<svg xmlns="http://www.w3.org/2000/svg" viewBox="0 0 200 200">
  <polygon points="62,24 42,66 82,66" fill="#BF360C"/>
  <polygon points="138,24 118,66 158,66" fill="#BF360C"/>
  <polygon points="62,34 50,62 74,62" fill="#FFAB91"/>
  <polygon points="138,34 126,62 150,62" fill="#FFAB91"/>
  <circle cx="100" cy="112" r="75" fill="#E65100"/>
  <ellipse cx="100" cy="130" rx="30" ry="21" fill="#FFCCBC"/>
  <ellipse cx="100" cy="122" rx="9" ry="6" fill="#4E342E"/>
  <circle cx="104" cy="120" r="2.5" fill="white" opacity="0.7"/>
  <path d="M 68,97 a 10,10 0 0 1 20,0 Z" fill="#1A1A1A"/>
  <path d="M 112,97 a 10,10 0 0 1 20,0 Z" fill="#1A1A1A"/>
  <circle cx="81" cy="100" r="3" fill="white" opacity="0.6"/>
  <circle cx="125" cy="100" r="3" fill="white" opacity="0.6"/>
  <path d="M 68,107 q 10,4 20,0" stroke="#888" stroke-width="1.5" fill="none" opacity="0.4"/>
  <path d="M 112,107 q 10,4 20,0" stroke="#888" stroke-width="1.5" fill="none" opacity="0.4"/>
  <path d="M 86,132 Q 100,135 114,132" stroke="#1A1A1A" stroke-width="3" fill="none" stroke-linecap="round"/>
</svg>