<svg xmlns="http://www.w3.org/2000/svg" viewBox="0 0 200 200">
  <polygon points="62,24 42,66 82,66" fill="#BF360C"/>
  <polygon points="138,24 118,66 158,66" fill="#BF360C"/>
  <polygon points="62,34 50,62 74,62" fill="#FFAB91"/>
  <polygon points="138,34 126,62 150,62" fill="#FFAB91"/>
  <circle cx="100" cy="112" r="75" fill="#E65100"/>
  <ellipse cx="100" cy="130" rx="30" ry="21" fill="#FFCCBC"/>
  <ellipse cx="100" cy="122" rx="9" ry="6" fill="#4E342E"/>
  <circle cx="104" cy="120" r="2.5" fill="white" opacity="0.7"/>
  <path d="M 68,97 Q 78,90 88,97" stroke="#1A1A1A" stroke-width="4" fill="none" stroke-linecap="round"/>
  <path d="M 112,97 Q 122,90 132,97" stroke="#1A1A1A" stroke-width="4" fill="none" stroke-linecap="round"/>
  <path d="M 88,132 Q 100,140 112,132" stroke="#1A1A1A" stroke-width="3" fill="none" stroke-linecap="round"/>
  <text x="138" y="85" font-family="Arial" font-size="14" font-weight="bold" fill="#9E9E9E" opacity="0.8">z</text>
  <text x="146" y="71" font-family="Arial" font-size="18" font-weight="bold" fill="#9E9E9E" opacity="0.7">z</text>
  <text x="154" y="55" font-family="Arial" font-size="22" font-weight="bold" fill="#9E9E9E" opacity="0.6">Z</text>
</svg>