<svg xmlns="http://www.w3.org/2000/svg" viewBox="0 0 200 200">
  <polygon points="62,24 42,66 82,66" fill="#BF360C"/>
  <polygon points="138,24 118,66 158,66" fill="#BF360C"/>
  <polygon points="62,34 50,62 74,62" fill="#FFAB91"/>
  <polygon points="138,34 126,62 150,62" fill="#FFAB91"/>
  <circle cx="100" cy="112" r="75" fill="#E65100"/>
  <ellipse cx="100" cy="130" rx="30" ry="21" fill="#FFCCBC"/>
  <ellipse cx="100" cy="122" rx="9" ry="6" fill="#4E342E"/>
  <circle cx="104" cy="120" r="2.5" fill="white" opacity="0.7"/>
  <polygon points="78.0,88.0 80.4,93.8 86.6,94.2 81.8,98.2 83.3,104.3 78.0,101.0 72.7,104.3 74.2,98.2 69.4,94.2 75.6,93.8" fill="#FFD700"/>
  <polygon points="122.0,88.0 124.4,93.8 130.6,94.2 125.8,98.2 127.3,104.3 122.0,101.0 116.7,104.3 118.2,98.2 113.4,94.2 119.6,93.8" fill="#FFD700"/>
  <circle cx="60" cy="112" r="13.0" fill="#FF8A80" opacity="0.6"/>
  <circle cx="140" cy="112" r="13.0" fill="#FF8A80" opacity="0.6"/>
  <path d="M 76,128 Q 100,150 124,128" stroke="#1A1A1A" stroke-width="4" fill="#FF8A65" stroke-linecap="round"/>
  <line x1="90" y1="136" x2="90" y2="141" stroke="#1A1A1A" stroke-width="2"/>
  <line x1="100" y1="140" x2="100" y2="145" stroke="#1A1A1A" stroke-width="2"/>
  <line x1="110" y1="136" x2="110" y2="141" stroke="#1A1A1A" stroke-width="2"/>
</svg>