<svg xmlns="http://www.w3.org/2000/svg" viewBox="0 0 200 200">
  <polygon points="62,24 42,66 82,66" fill="#BF360C"/>
  <polygon points="138,24 118,66 158,66" fill="#BF360C"/>
  <polygon points="62,34 50,62 74,62" fill="#FFAB91"/>
  <polygon points="138,34 126,62 150,62" fill="#FFAB91"/>
  <circle cx="100" cy="112" r="75" fill="#E65100"/>
  <ellipse cx="100" cy="130" rx="30" ry="21" fill="#FFCCBC"/>
  <ellipse cx="100" cy="122" rx="9" ry="6" fill="#4E342E"/>
  <circle cx="104" cy="120" r="2.5" fill="white" opacity="0.7"/>
  <line x1="68" y1="85" x2="86" y2="90" stroke="#1A1A1A" stroke-width="4" stroke-linecap="round"/>
  <line x1="114" y1="90" x2="132" y2="85" stroke="#1A1A1A" stroke-width="4" stroke-linecap="round"/>
  <circle cx="78" cy="97" r="9" fill="#1A1A1A"/>
  <circle cx="122" cy="97" r="9" fill="#1A1A1A"/>
  <circle cx="75" cy="94" r="3.5" fill="white"/>
  <circle cx="119" cy="94" r="3.5" fill="white"/>
  <path d="M 82,132 Q 94,140 100,132 Q 106,124 118,132" stroke="#1A1A1A" stroke-width="3" fill="none" stroke-linecap="round"/>
  <ellipse cx="150" cy="93" rx="5" ry="7" fill="#87CEEB" opacity="0.85"/>
  <path d="M 146,89 Q 150,81 154,89" fill="#87CEEB" opacity="0.85"/>
</svg>