<svg xmlns="http://www.w3.org/2000/svg" viewBox="0 0 200 200">
  <polygon points="62,24 42,66 82,66" fill="#BF360C"/>
  <polygon points="138,24 118,66 158,66" fill="#BF360C"/>
  <polygon points="62,34 50,62 74,62" fill="#FFAB91"/>
  <polygon points="138,34 126,62 150,62" fill="#FFAB91"/>
  <circle cx="100" cy="112" r="75" fill="#E65100"/>
  <ellipse cx="100" cy="130" rx="30" ry="21" fill="#FFCCBC"/>
  <ellipse cx="100" cy="122" rx="9" ry="6" fill="#4E342E"/>
  <circle cx="104" cy="120" r="2.5" fill="white" opacity="0.7"/>
  <circle cx="78" cy="97" r="9" fill="#1A1A1A"/>
  <circle cx="122" cy="97" r="9" fill="#1A1A1A"/>
  <circle cx="75" cy="94" r="3.5" fill="white"/>
  <circle cx="119" cy="94" r="3.5" fill="white"/>
  <ellipse cx="78" cy="109" rx="4" ry="7" fill="#64B5F6" opacity="0.9"/>
  <ellipse cx="122" cy="109" rx="4" ry="7" fill="#64B5F6" opacity="0.9"/>
  <path d="M 80,132 Q 100,120 120,132" stroke="#1A1A1A" stroke-width="4" fill="none" stroke-linecap="round"/>
</svg>