<svg xmlns="http://www.w3.org/2000/svg" viewBox="0 0 200 200">
  <defs><radialGradient id="al" cx="50%" cy="50%" r="50%"><stop offset="0%" stop-color="#FFD600" stop-opacity="0.0"/><stop offset="60%" stop-color="#FF6F00" stop-opacity="0.2"/><stop offset="85%" stop-color="#7B1FA2" stop-opacity="0.4"/><stop offset="100%" stop-color="#7B1FA2" stop-opacity="0.7"/></radialGradient></defs>
  <circle cx="100" cy="100" r="98" fill="url(#al)"/>
  <circle cx="100" cy="100" r="92" fill="none" stroke="#FFD600" stroke-width="4" stroke-dasharray="18,6" opacity="0.8"/>
  <circle cx="100" cy="100" r="82" fill="none" stroke="#E91E63" stroke-width="3" stroke-dasharray="12,10" opacity="0.7"/>
  <circle cx="100" cy="100" r="72" fill="none" stroke="#7B1FA2" stroke-width="2" stroke-dasharray="8,14" opacity="0.6"/>
  <polygon points="100,6 101.5,11 107,11 102.5,14 104,19 100,16 96,19 97.5,14 93,11 98.5,11" fill="#FFD600" opacity="0.9"/>
  <polygon points="100,194 101.5,189 107,189 102.5,186 104,181 100,184 96,181 97.5,186 93,189 98.5,189" fill="#7B1FA2" opacity="0.9"/>
  <circle cx="32"  cy="32"  r="4" fill="#FFD600" opacity="0.7"/>
  <circle cx="168" cy="32"  r="4" fill="#E91E63" opacity="0.7"/>
  <circle cx="168" cy="168" r="4" fill="#7B1FA2" opacity="0.7"/>
  <circle cx="32"  cy="168" r="4" fill="#FFD600" opacity="0.7"/>
</svg>