<svg xmlns="http://www.w3.org/2000/svg" viewBox="0 0 400 600" preserveAspectRatio="xMidYMid slice">
  <defs>
    <linearGradient id="cosmos" x1="0" y1="0" x2="0" y2="1">
      <stop offset="0%" stop-color="#050014"/>
      <stop offset="100%" stop-color="#0d0030"/>
    </linearGradient>
    <radialGradient id="nebula1" cx="20%" cy="30%" r="40%">
      <stop offset="0%" stop-color="#7b1fa2" stop-opacity="0.35"/>
      <stop offset="100%" stop-color="#050014" stop-opacity="0"/>
    </radialGradient>
    <radialGradient id="nebula2" cx="80%" cy="60%" r="45%">
      <stop offset="0%" stop-color="#1565c0" stop-opacity="0.30"/>
      <stop offset="100%" stop-color="#050014" stop-opacity="0"/>
    </radialGradient>
    <radialGradient id="nebula3" cx="50%" cy="85%" r="35%">
      <stop offset="0%" stop-color="#00695c" stop-opacity="0.25"/>
      <stop offset="100%" stop-color="#050014" stop-opacity="0"/>
    </radialGradient>
  </defs>
  <rect width="400" height="600" fill="url(#cosmos)"/>
  <rect width="400" height="600" fill="url(#nebula1)"/>
  <rect width="400" height="600" fill="url(#nebula2)"/>
  <rect width="400" height="600" fill="url(#nebula3)"/>
  <!-- Campo estelar denso -->
  <circle cx="22" cy="18" r="1" fill="white" opacity="0.9"/>
  <circle cx="55" cy="42" r="1.5" fill="white"/>
  <circle cx="90" cy="10" r="1" fill="white" opacity="0.7"/>
  <circle cx="130" cy="35" r="1" fill="white"/>
  <circle cx="170" cy="15" r="1.5" fill="white" opacity="0.8"/>
  <circle cx="210" cy="50" r="1" fill="white" opacity="0.9"/>
  <circle cx="250" cy="22" r="1" fill="white"/>
  <circle cx="295" cy="44" r="1.5" fill="white" opacity="0.7"/>
  <circle cx="340" cy="8" r="1" fill="white"/>
  <circle cx="375" cy="38" r="1" fill="white" opacity="0.8"/>
  <circle cx="15" cy="75" r="1.5" fill="white" opacity="0.6"/>
  <circle cx="60" cy="90" r="1" fill="white"/>
  <circle cx="100" cy="68" r="1" fill="white" opacity="0.9"/>
  <circle cx="148" cy="88" r="1.5" fill="white"/>
  <circle cx="192" cy="72" r="1" fill="white" opacity="0.7"/>
  <circle cx="235" cy="95" r="1" fill="white"/>
  <circle cx="278" cy="65" r="1.5" fill="white" opacity="0.8"/>
  <circle cx="322" cy="85" r="1" fill="white"/>
  <circle cx="365" cy="70" r="1" fill="white" opacity="0.9"/>
  <circle cx="38" cy="128" r="1" fill="white"/>
  <circle cx="82" cy="145" r="1.5" fill="white" opacity="0.7"/>
  <circle cx="125" cy="122" r="1" fill="white"/>
  <circle cx="165" cy="148" r="1" fill="white" opacity="0.8"/>
  <circle cx="208" cy="130" r="1.5" fill="white"/>
  <circle cx="255" cy="140" r="1" fill="white" opacity="0.6"/>
  <circle cx="300" cy="118" r="1" fill="white"/>
  <circle cx="345" cy="142" r="1.5" fill="white" opacity="0.9"/>
  <circle cx="385" cy="125" r="1" fill="white"/>
  <circle cx="18" cy="185" r="1.5" fill="white" opacity="0.7"/>
  <circle cx="62" cy="200" r="1" fill="white"/>
  <circle cx="110" cy="178" r="1" fill="white" opacity="0.8"/>
  <circle cx="155" cy="202" r="1.5" fill="white"/>
  <circle cx="198" cy="188" r="1" fill="white" opacity="0.9"/>
  <circle cx="242" cy="175" r="1" fill="white"/>
  <circle cx="288" cy="198" r="1.5" fill="white" opacity="0.7"/>
  <circle cx="332" cy="182" r="1" fill="white"/>
  <circle cx="378" cy="205" r="1" fill="white" opacity="0.8"/>
  <!-- Planeta principal con anillos -->
  <ellipse cx="80" cy="320" rx="22" ry="26" fill="#42a5f5" opacity="0.9"/>
  <ellipse cx="80" cy="320" rx="22" ry="26" fill="none" stroke="#1565c0" stroke-width="1.5" opacity="0.4"/>
  <!-- Franjas del planeta -->
  <path d="M58 316 Q80 310 102 316" stroke="#64b5f6" stroke-width="2" fill="none" opacity="0.5"/>
  <path d="M60 322 Q80 328 100 322" stroke="#1e88e5" stroke-width="2" fill="none" opacity="0.5"/>
  <!-- Anillo del planeta -->
  <ellipse cx="80" cy="320" rx="40" ry="10" fill="none" stroke="#90caf9" stroke-width="2.5" opacity="0.55"/>
  <!-- Planeta pequeño rojo -->
  <circle cx="310" cy="150" r="14" fill="#ef5350"/>
  <circle cx="314" cy="146" r="5" fill="#ffcdd2" opacity="0.4"/>
  <!-- Cohete -->
  <polygon points="200,240 192,280 208,280" fill="#eceff1"/>
  <rect x="193" y="278" width="14" height="8" rx="2" fill="#b0bec5"/>
  <polygon points="192,280 186,292 192,290" fill="#ef5350"/>
  <polygon points="208,280 214,292 208,290" fill="#ef5350"/>
  <circle cx="200" cy="252" r="4" fill="#80deea"/>
  <!-- Llama del cohete -->
  <polygon points="196,288 204,288 200,305" fill="#ff9800" opacity="0.8"/>
  <!-- Meteoro -->
  <line x1="340" y1="80" x2="310" y2="110" stroke="white" stroke-width="1.5" opacity="0.6" stroke-linecap="round"/>
  <circle cx="340" cy="80" r="2.5" fill="white"/>
  <!-- Estrella 4 puntas brillante -->
  <path d="M340 300 L342 308 L350 310 L342 312 L340 320 L338 312 L330 310 L338 308 Z" fill="#ffd700" opacity="0.85"/>
  <!-- Agujero negro hint -->
  <circle cx="350" cy="500" r="20" fill="#0d0030"/>
  <circle cx="350" cy="500" r="20" fill="none" stroke="#7b1fa2" stroke-width="2" opacity="0.5"/>
  <circle cx="350" cy="500" r="28" fill="none" stroke="#7b1fa2" stroke-width="1" opacity="0.3"/>
</svg>
