<svg xmlns="http://www.w3.org/2000/svg" viewBox="0 0 400 600" preserveAspectRatio="xMidYMid slice">
  <defs>
    <linearGradient id="bg" x1="0" y1="0" x2="1" y2="1">
      <stop offset="0%" stop-color="#f3e5f5"/>
      <stop offset="33%" stop-color="#e8eaf6"/>
      <stop offset="66%" stop-color="#e0f2f1"/>
      <stop offset="100%" stop-color="#fce4ec"/>
    </linearGradient>
  </defs>
  <rect width="400" height="600" fill="url(#bg)"/>
  <!-- Manchas de color suaves en esquinas -->
  <circle cx="0" cy="0" r="180" fill="#ce93d8" opacity="0.18"/>
  <circle cx="400" cy="0" r="160" fill="#90caf9" opacity="0.18"/>
  <circle cx="0" cy="600" r="170" fill="#80cbc4" opacity="0.18"/>
  <circle cx="400" cy="600" r="160" fill="#f48fb1" opacity="0.18"/>
  <!-- Rectángulos decorativos rotados -->
  <rect x="150" y="80" width="100" height="100" rx="20" fill="#b39ddb" opacity="0.10" transform="rotate(20 200 130)"/>
  <rect x="50" y="300" width="80" height="80" rx="15" fill="#80deea" opacity="0.12" transform="rotate(-15 90 340)"/>
  <rect x="280" y="350" width="90" height="90" rx="18" fill="#f48fb1" opacity="0.10" transform="rotate(10 325 395)"/>
  <!-- Formas geométricas flotantes -->
  <circle cx="60" cy="120" r="18" fill="#ce93d8" opacity="0.22"/>
  <circle cx="340" cy="180" r="14" fill="#90caf9" opacity="0.22"/>
  <circle cx="200" cy="460" r="20" fill="#80cbc4" opacity="0.20"/>
  <circle cx="80" cy="460" r="12" fill="#f48fb1" opacity="0.20"/>
  <circle cx="330" cy="500" r="16" fill="#ffcc80" opacity="0.22"/>
  <!-- Estrellas pequeñas -->
  <path d="M100 60 L102 67 L109 69 L102 71 L100 78 L98 71 L91 69 L98 67 Z" fill="#ffb300" opacity="0.4"/>
  <path d="M300 100 L302 107 L309 109 L302 111 L300 118 L298 111 L291 109 L298 107 Z" fill="#e91e63" opacity="0.3"/>
  <path d="M50 380 L51.5 385 L57 386.5 L51.5 388 L50 393 L48.5 388 L43 386.5 L48.5 385 Z" fill="#7c4dff" opacity="0.35"/>
  <path d="M360 400 L361.5 405 L367 406.5 L361.5 408 L360 413 L358.5 408 L353 406.5 L358.5 405 Z" fill="#00bcd4" opacity="0.35"/>
  <!-- Puntos decorativos en patrón -->
  <circle cx="200" cy="50" r="5" fill="#b39ddb" opacity="0.3"/>
  <circle cx="175" cy="80" r="4" fill="#90caf9" opacity="0.3"/>
  <circle cx="225" cy="80" r="4" fill="#f48fb1" opacity="0.3"/>
  <circle cx="155" cy="55" r="3" fill="#ffcc80" opacity="0.3"/>
  <circle cx="245" cy="55" r="3" fill="#80cbc4" opacity="0.3"/>
  <!-- Suelo pastel -->
  <ellipse cx="200" cy="600" rx="280" ry="80" fill="#e1bee7" opacity="0.5"/>
  <ellipse cx="200" cy="610" rx="220" ry="55" fill="#ce93d8" opacity="0.3"/>
</svg>
