<svg xmlns="http://www.w3.org/2000/svg" viewBox="0 0 200 200">
  <path d="M72,88 C72,80 60,76 56,86 C52,96 60,106 72,116 C84,106 92,96 88,86 C84,76 72,80 72,88Z" fill="#F48FB1"/>
  <path d="M72,88 C72,80 60,76 56,86 C52,96 60,106 72,116 C84,106 92,96 88,86 C84,76 72,80 72,88Z" fill="none" stroke="#E91E63" stroke-width="3"/>
  <path d="M128,88 C128,80 116,76 112,86 C108,96 116,106 128,116 C140,106 148,96 144,86 C140,76 128,80 128,88Z" fill="#F48FB1"/>
  <path d="M128,88 C128,80 116,76 112,86 C108,96 116,106 128,116 C140,106 148,96 144,86 C140,76 128,80 128,88Z" fill="none" stroke="#E91E63" stroke-width="3"/>
  <line x1="88" y1="96" x2="112" y2="96" stroke="#E91E63" stroke-width="3"/>
  <ellipse cx="64" cy="92" rx="6" ry="4" fill="white" opacity="0.4"/>
  <ellipse cx="120" cy="92" rx="6" ry="4" fill="white" opacity="0.4"/>
</svg>