<svg xmlns="http://www.w3.org/2000/svg" viewBox="0 0 100 100">
  <!-- Orejas -->
  <ellipse cx="28" cy="22" rx="8" ry="12" fill="#7B6CF5" transform="rotate(-20,28,22)"/>
  <ellipse cx="72" cy="22" rx="8" ry="12" fill="#7B6CF5" transform="rotate(20,72,22)"/>
  <ellipse cx="28" cy="22" rx="4" ry="7" fill="#C8B4FF" transform="rotate(-20,28,22)"/>
  <ellipse cx="72" cy="22" rx="4" ry="7" fill="#C8B4FF" transform="rotate(20,72,22)"/>
  <!-- Cabeza -->
  <circle cx="50" cy="42" r="28" fill="#7B6CF5"/>
  <!-- Cuerpo -->
  <ellipse cx="50" cy="76" rx="22" ry="18" fill="#7B6CF5"/>
  <!-- Ojos -->
  <circle cx="40" cy="38" r="7" fill="white"/>
  <circle cx="60" cy="38" r="7" fill="white"/>
  <circle cx="41" cy="39" r="4" fill="#2C2C2C"/>
  <circle cx="61" cy="39" r="4" fill="#2C2C2C"/>
  <circle cx="42.5" cy="37.5" r="1.5" fill="white"/>
  <circle cx="62.5" cy="37.5" r="1.5" fill="white"/>
  <!-- Mejillas -->
  <circle cx="36" cy="47" r="5" fill="#F9A8B8" opacity="0.65"/>
  <circle cx="64" cy="47" r="5" fill="#F9A8B8" opacity="0.65"/>
  <!-- Boca / sonrisa -->
  <path d="M 42 50 Q 50 57 58 50" stroke="#5C3D2E" stroke-width="2.5" fill="none" stroke-linecap="round"/>
  <!-- Patitas -->
  <ellipse cx="38" cy="90" rx="8" ry="5" fill="#6A5CE7"/>
  <ellipse cx="62" cy="90" rx="8" ry="5" fill="#6A5CE7"/>
</svg>
