<svg xmlns="http://www.w3.org/2000/svg" viewBox="0 0 200 200">
  <ellipse cx="38" cy="104" rx="24" ry="43" fill="#0D47A1"/>
  <ellipse cx="162" cy="104" rx="24" ry="43" fill="#0D47A1"/>
  <circle cx="100" cy="112" r="75" fill="#1976D2"/>
  <ellipse cx="100" cy="133" rx="32" ry="22" fill="#90CAF9"/>
  <ellipse cx="100" cy="122" rx="13" ry="9" fill="#0D47A1"/>
  <circle cx="106" cy="119" r="3" fill="white" opacity="0.7"/>
  <path d="M 68,97 a 10,10 0 0 1 20,0 Z" fill="#1A1A1A"/>
  <path d="M 112,97 a 10,10 0 0 1 20,0 Z" fill="#1A1A1A"/>
  <circle cx="81" cy="100" r="3" fill="white" opacity="0.6"/>
  <circle cx="125" cy="100" r="3" fill="white" opacity="0.6"/>
  <path d="M 68,107 q 10,4 20,0" stroke="#888" stroke-width="1.5" fill="none" opacity="0.4"/>
  <path d="M 112,107 q 10,4 20,0" stroke="#888" stroke-width="1.5" fill="none" opacity="0.4"/>
  <path d="M 86,136 Q 100,139 114,136" stroke="#1A1A1A" stroke-width="3" fill="none" stroke-linecap="round"/>
</svg>