<svg xmlns="http://www.w3.org/2000/svg" viewBox="0 0 200 200">
  <ellipse cx="38" cy="104" rx="24" ry="43" fill="#0D47A1"/>
  <ellipse cx="162" cy="104" rx="24" ry="43" fill="#0D47A1"/>
  <circle cx="100" cy="112" r="75" fill="#1976D2"/>
  <ellipse cx="100" cy="133" rx="32" ry="22" fill="#90CAF9"/>
  <ellipse cx="100" cy="122" rx="13" ry="9" fill="#0D47A1"/>
  <circle cx="106" cy="119" r="3" fill="white" opacity="0.7"/>
  <line x1="65" y1="83" x2="88" y2="92" stroke="#1A1A1A" stroke-width="5" stroke-linecap="round"/>
  <line x1="112" y1="92" x2="135" y2="83" stroke="#1A1A1A" stroke-width="5" stroke-linecap="round"/>
  <circle cx="78" cy="97" r="9" fill="#1A1A1A"/>
  <circle cx="122" cy="97" r="9" fill="#1A1A1A"/>
  <circle cx="75" cy="94" r="3.5" fill="white"/>
  <circle cx="119" cy="94" r="3.5" fill="white"/>
  <path d="M 85,136 Q 100,131 115,136" stroke="#1A1A1A" stroke-width="3" fill="none" stroke-linecap="round"/>
  <path d="M 52,81 Q 56,71 52,61" stroke="#FF5722" stroke-width="3" fill="none" stroke-linecap="round" opacity="0.7"/>
  <path d="M 60,83 Q 64,73 60,63" stroke="#FF5722" stroke-width="3" fill="none" stroke-linecap="round" opacity="0.7"/>
</svg>