<svg xmlns="http://www.w3.org/2000/svg" viewBox="0 0 200 200">
  <ellipse cx="38" cy="104" rx="24" ry="43" fill="#0D47A1"/>
  <ellipse cx="162" cy="104" rx="24" ry="43" fill="#0D47A1"/>
  <circle cx="100" cy="112" r="75" fill="#1976D2"/>
  <ellipse cx="100" cy="133" rx="32" ry="22" fill="#90CAF9"/>
  <ellipse cx="100" cy="122" rx="13" ry="9" fill="#0D47A1"/>
  <circle cx="106" cy="119" r="3" fill="white" opacity="0.7"/>
  <line x1="68" y1="85" x2="86" y2="90" stroke="#1A1A1A" stroke-width="4" stroke-linecap="round"/>
  <line x1="114" y1="90" x2="132" y2="85" stroke="#1A1A1A" stroke-width="4" stroke-linecap="round"/>
  <circle cx="78" cy="97" r="9" fill="#1A1A1A"/>
  <circle cx="122" cy="97" r="9" fill="#1A1A1A"/>
  <circle cx="75" cy="94" r="3.5" fill="white"/>
  <circle cx="119" cy="94" r="3.5" fill="white"/>
  <path d="M 82,136 Q 94,144 100,136 Q 106,128 118,136" stroke="#1A1A1A" stroke-width="3" fill="none" stroke-linecap="round"/>
  <ellipse cx="150" cy="93" rx="5" ry="7" fill="#87CEEB" opacity="0.85"/>
  <path d="M 146,89 Q 150,81 154,89" fill="#87CEEB" opacity="0.85"/>
</svg>