<svg xmlns="http://www.w3.org/2000/svg" viewBox="0 0 200 200">
  <polygon points="68,22 58,60 78,60" fill="#4A148C"/>
  <polygon points="132,22 122,60 142,60" fill="#4A148C"/>
  <polygon points="68,30 63,52 73,52" fill="#7B1FA2"/>
  <polygon points="132,30 127,52 137,52" fill="#7B1FA2"/>
  <circle cx="100" cy="112" r="75" fill="#7B1FA2"/>
  <circle cx="84" cy="90" r="5" fill="#6A1B9A" opacity="0.4"/>
  <circle cx="100" cy="88" r="5" fill="#6A1B9A" opacity="0.4"/>
  <circle cx="116" cy="90" r="5" fill="#6A1B9A" opacity="0.4"/>
  <ellipse cx="100" cy="131" rx="28" ry="20" fill="#9C27B0"/>
  <circle cx="92" cy="126" r="4" fill="#4A148C"/>
  <circle cx="108" cy="126" r="4" fill="#4A148C"/>
  <path d="M 68,96 Q 78,89 88,96" stroke="#1A1A1A" stroke-width="4" fill="none" stroke-linecap="round"/>
  <path d="M 112,96 Q 122,89 132,96" stroke="#1A1A1A" stroke-width="4" fill="none" stroke-linecap="round"/>
  <path d="M 88,133 Q 100,141 112,133" stroke="#1A1A1A" stroke-width="3" fill="none" stroke-linecap="round"/>
  <text x="138" y="84" font-family="Arial" font-size="14" font-weight="bold" fill="#9E9E9E" opacity="0.8">z</text>
  <text x="146" y="70" font-family="Arial" font-size="18" font-weight="bold" fill="#9E9E9E" opacity="0.7">z</text>
  <text x="154" y="54" font-family="Arial" font-size="22" font-weight="bold" fill="#9E9E9E" opacity="0.6">Z</text>
</svg>