<svg xmlns="http://www.w3.org/2000/svg" viewBox="0 0 200 200">
  <polygon points="68,22 58,60 78,60" fill="#4A148C"/>
  <polygon points="132,22 122,60 142,60" fill="#4A148C"/>
  <polygon points="68,30 63,52 73,52" fill="#7B1FA2"/>
  <polygon points="132,30 127,52 137,52" fill="#7B1FA2"/>
  <circle cx="100" cy="112" r="75" fill="#7B1FA2"/>
  <circle cx="84" cy="90" r="5" fill="#6A1B9A" opacity="0.4"/>
  <circle cx="100" cy="88" r="5" fill="#6A1B9A" opacity="0.4"/>
  <circle cx="116" cy="90" r="5" fill="#6A1B9A" opacity="0.4"/>
  <ellipse cx="100" cy="131" rx="28" ry="20" fill="#9C27B0"/>
  <circle cx="92" cy="126" r="4" fill="#4A148C"/>
  <circle cx="108" cy="126" r="4" fill="#4A148C"/>
  <polygon points="78.0,87.0 80.4,92.8 86.6,93.2 81.8,97.2 83.3,103.3 78.0,100.0 72.7,103.3 74.2,97.2 69.4,93.2 75.6,92.8" fill="#FFD700"/>
  <polygon points="122.0,87.0 124.4,92.8 130.6,93.2 125.8,97.2 127.3,103.3 122.0,100.0 116.7,103.3 118.2,97.2 113.4,93.2 119.6,92.8" fill="#FFD700"/>
  <circle cx="60" cy="111" r="13.0" fill="#FF8A80" opacity="0.6"/>
  <circle cx="140" cy="111" r="13.0" fill="#FF8A80" opacity="0.6"/>
  <path d="M 76,129 Q 100,151 124,129" stroke="#1A1A1A" stroke-width="4" fill="#FF8A65" stroke-linecap="round"/>
  <line x1="90" y1="137" x2="90" y2="142" stroke="#1A1A1A" stroke-width="2"/>
  <line x1="100" y1="141" x2="100" y2="146" stroke="#1A1A1A" stroke-width="2"/>
  <line x1="110" y1="137" x2="110" y2="142" stroke="#1A1A1A" stroke-width="2"/>
</svg>