<svg xmlns="http://www.w3.org/2000/svg" viewBox="0 0 200 200">
  <polygon points="68,22 58,60 78,60" fill="#4A148C"/>
  <polygon points="132,22 122,60 142,60" fill="#4A148C"/>
  <polygon points="68,30 63,52 73,52" fill="#7B1FA2"/>
  <polygon points="132,30 127,52 137,52" fill="#7B1FA2"/>
  <circle cx="100" cy="112" r="75" fill="#7B1FA2"/>
  <circle cx="84" cy="90" r="5" fill="#6A1B9A" opacity="0.4"/>
  <circle cx="100" cy="88" r="5" fill="#6A1B9A" opacity="0.4"/>
  <circle cx="116" cy="90" r="5" fill="#6A1B9A" opacity="0.4"/>
  <ellipse cx="100" cy="131" rx="28" ry="20" fill="#9C27B0"/>
  <circle cx="92" cy="126" r="4" fill="#4A148C"/>
  <circle cx="108" cy="126" r="4" fill="#4A148C"/>
  <line x1="65" y1="82" x2="88" y2="91" stroke="#1A1A1A" stroke-width="5" stroke-linecap="round"/>
  <line x1="112" y1="91" x2="135" y2="82" stroke="#1A1A1A" stroke-width="5" stroke-linecap="round"/>
  <circle cx="78" cy="96" r="9" fill="#1A1A1A"/>
  <circle cx="122" cy="96" r="9" fill="#1A1A1A"/>
  <circle cx="75" cy="93" r="3.5" fill="white"/>
  <circle cx="119" cy="93" r="3.5" fill="white"/>
  <path d="M 85,133 Q 100,128 115,133" stroke="#1A1A1A" stroke-width="3" fill="none" stroke-linecap="round"/>
  <path d="M 52,80 Q 56,70 52,60" stroke="#FF5722" stroke-width="3" fill="none" stroke-linecap="round" opacity="0.7"/>
  <path d="M 60,82 Q 64,72 60,62" stroke="#FF5722" stroke-width="3" fill="none" stroke-linecap="round" opacity="0.7"/>
</svg>