<?xml version="1.0" encoding="utf-8"?>
<!-- Generator: Adobe Illustrator 26.0.3, SVG Export Plug-In . SVG Version: 6.00 Build 0)  -->
<svg version="1.1" id="Capa_1" xmlns="http://www.w3.org/2000/svg" xmlns:xlink="http://www.w3.org/1999/xlink" x="0px" y="0px"
	 viewBox="0 0 287.6 230.7" style="enable-background:new 0 0 287.6 230.7;" xml:space="preserve">
<style type="text/css">
	.st0{fill:#A5C8D6;}
	.st1{fill:#F4F4F4;}
	.st2{fill:#E6DFD9;}
	.st3{fill:#EBEAE9;}
	.st4{fill:#DBDAD6;}
	.st5{fill:#CECBC7;}
	.st6{fill:#97775C;}
	.st7{fill:#C7BFB3;}
	.st8{fill:#F0D7B1;}
	.st9{fill:#ECC7C6;}
	.st10{fill:#99785C;}
	.st11{fill:#5A3A1D;}
	.st12{fill:#D47773;}
	.st13{fill:#F8EADC;}
	.st14{fill:#472F1E;}
</style>
<g>
	<path class="st0" d="M280.8,4.8c3.7-0.5,6.2,1.6,7.5,4.5c1.4,3.3,0.9,6.8-1.4,9.8c-3.9,5.1-9.8,5.9-15.3,7.3
		c-2.1,0.5-5,2.3-6.6,0.7c-1.8-1.9,0.5-4.6,1.2-6.8c1.8-5.4,4.4-10.3,9-13.8C276.9,5.4,278.7,4.6,280.8,4.8z"/>
	<path class="st0" d="M23.8,90.8c0,1.1,0,2.2,0,3.3c-5.1,0.8-10.3,0.7-15.4,0.4c-4.1-0.3-6.7-2.7-7.4-6.8c-0.6-3.6,1.3-6.1,4.6-7.4
		c3.4-1.3,6,0.7,8.7,2.3c1.5,1,2.4,2.8,4.4,3C20.4,87.4,22.1,89.1,23.8,90.8z"/>
	<path class="st0" d="M274,46.7c-0.2-0.2-0.4-0.6-0.6-0.7c-5.8-3.3-5.8-3.3-0.4-6.9c0.4-0.3,0.6-0.7,1-1.1c1.9-0.5,3.7-1.3,5.8-1.2
		c2.8,0.1,4.9,1.2,5.1,4.2c0.2,3.1-1.4,5.1-4.4,5.6C278.3,46.9,276.1,46.6,274,46.7z"/>
	<path class="st0" d="M255,15.9c-4.7,4.3-4.7-0.6-6-3.1c0-2.9-0.4-5.9,1.3-8.7c1.2-2,2.6-3.5,5.1-2.9c2.4,0.6,3.4,2.5,3.6,4.8
		C259.4,10.1,256.8,12.8,255,15.9z"/>
	<path class="st0" d="M21.9,104.4c8.1,0.3,1.3,4.6,1.9,6.9c-1,1-1.9,2.2-3.1,3.1c-2.6,1.8-5.5,2.9-7.8-0.1c-2.1-2.8-1.1-5.6,1.5-7.7
		c0.7-0.6,1.7-0.9,2.6-1.3c0.4-0.3,0.8-0.5,1.2-0.8C19.4,104.5,20.6,104.5,21.9,104.4z"/>
	<path class="st1" d="M18.1,104.6c-0.4,0.3-0.8,0.5-1.2,0.8C17.3,105.1,17.7,104.8,18.1,104.6z"/>
	<path class="st2" d="M27.8,43.7c0-5.2,4.5-8.4,6-12.9c2.7-2.3,5.9-4.2,7-8c2.6-1,5.3-1.7,6-5c8.1-3.3,15.5-8.7,24.9-7.9
		c1.3,1.3,2.7,1.3,4,0c0.7,0,1.3,0,2,0c0.4,2.1,1.4,2.6,3,1c3,0.3,6,0.7,9,1c3.2,2.7,7.3,2.5,10.9,4c0.8,0,1.6,0.2,2,1
		c0.1,2,1.6,2,3,2c5.6,2.3,9,7.2,12.8,11.4c4.4,4.9,9.4,6.1,15.5,5.5c9.3-0.9,18.6,0,27.9,0c3.9,0,6.9-1.1,9.5-4.2
		c7.2-8.7,15.8-15.7,26.8-18.9c12.4-3.6,24.9-4.6,36.9,2c3.7,2,8.2,2.7,11.2,6.1c0.5,1.3,1.5,2,3,2c4.3,4.5,8.1,9.4,11,14.9
		c1.4,3.3,3.6,6.3,4,10c-1,0-2,0-3,0c-0.5-1.2-1-2.4-1.5-3.6c-7.7-19-26.3-31.8-46.2-30.9c-17.5,0.8-31.2,8.9-41.1,23.5
		c-1.2,1.8-1.8,4.3-5.1,3.7c-13.8-2.6-27.7-2.3-41.6-0.6c-1.9-1.7-4.1-2.8-6.7-3c-0.8-1.1-1.6-2.1-2.4-3.2
		C91,1.6,44.8,9.8,30.7,43.7C29.7,43.7,28.8,43.7,27.8,43.7z"/>
	<path class="st2" d="M253,178.1c-5.3,10-12.5,18.4-21.9,24.9c-1.3,0-2,0.7-2,2c0,0,0,0,0,0c-3-0.3-4.6,1.8-6,4c0,0,0,0,0,0
		c-1.4,0-2.4,0.7-3,2c-0.8,0-1.6,0.2-2,1c-2.1-0.1-3.6,1.3-5.4,1.8c-2.5,0.7-4.3,3.9-7.5,2.2c4.3-2.8,8.7-5.6,13-8.5
		c4.5-3,9.7-4.8,13-9.4c1.4,0,2.9,0,3-2c0.4-0.9,1-1.6,2-2c2.1,0.1,3.8-0.4,4-3c0.3-0.7,0.7-1.3,1-2c2.3-0.3,3.7-1.6,4-4
		c0-0.8,0.2-1.6,1-2c3.9-0.2,3.4-5.4,6.9-6C253,177.4,253,177.8,253,178.1z"/>
	<path class="st3" d="M205.2,215.9c3.2,1.7,5-1.5,7.5-2.2c1.8-0.5,3.3-1.9,5.4-1.8c-2.7,4-7.3,5.5-11.3,7.3c-7.4,3.4-15,6.5-23,8.5
		c-1.2,0.3-2.7,0.4-3.6-0.9c0-0.7,0-1.3,0-2c0,0,0,0,0,0c0.7,0,1.3,0,2,0c1.6,1.5,1.8,0.3,2-1c0.7,0,1.3,0,2,0c2.7,2.1,3.5,0.3,4-2
		c0.7,0,1.3,0,2,0c1.6,1.5,1.8,0.3,2-1c3-1.6,7.2-1,9-5C203.8,216,204.5,215.9,205.2,215.9z"/>
	<path class="st3" d="M253,178.1c0-0.3,0-0.7,0-1c0.6-4.9,3.8-9,4-13.9c1,0,2,0,3,0C258.2,168.4,259,174.8,253,178.1z"/>
	<path class="st3" d="M29.8,137.3c0.3-5.4-0.2-11,3-15.9c1.2,0.7,1,1.9,1.1,3c0,1.3,0,2.6,0,3.9l-0.1,0c-2.7,0.3-1.8,2.4-2,4
		c-0.3,1.7-0.7,3.3-1,5C30.5,137.3,30.2,137.3,29.8,137.3z"/>
	<path class="st3" d="M114.5,227.9c-2.7,2.2-4.8,0.1-7-1c0-0.7,0-1.3,0-2c2.3,0.3,4.7,0.7,7,1C114.5,226.6,114.5,227.2,114.5,227.9z
		"/>
	<path class="st3" d="M28.8,150.2c-1.6-3-1.6-6,0-9c0.8,0.4,1,1.2,1,2c0.3,2.3,0.6,4.6,1,6.9C30.1,150.2,29.5,150.2,28.8,150.2z"/>
	<path class="st3" d="M100.5,15.9c-3.6-1.5-7.8-1.3-10.9-4C93.9,11.5,97.7,12.4,100.5,15.9z"/>
	<path class="st4" d="M33.9,124.4c-0.1-1.1,0.1-2.3-1.1-3c0-0.7,0-1.3,0-2c0.3,0,0.6,0,1,0c1,0,2,0,3,0
		C36.5,121.5,37.9,124.5,33.9,124.4z"/>
	<path class="st2" d="M29.9,143.3c0-0.8-0.2-1.6-1-2c0.3-1.3,0.7-2.7,1-4c0.3,0,0.7,0,1,0c0.7,1,1.3,2,2,3c0,1,0,2,0,3
		C31.8,143.3,30.8,143.3,29.9,143.3z"/>
	<path class="st3" d="M46.8,17.9c-0.7,3.2-3.4,4-6,5C41.6,19.7,43.4,17.8,46.8,17.9z"/>
	<path class="st2" d="M260,163.2c-1,0-2,0-3,0c1.1-1.9-0.3-5.1,2.9-6c0,1,0,2,0,3C260,161.2,260,162.2,260,163.2z"/>
	<path class="st2" d="M114.5,227.9c0-0.7,0-1.3,0-2c0.3-0.3,0.7-0.7,1-1c1.3,0,2.6,0,4,0c0,1,0,2,0,2.9c-0.7,0-1.3,0-2,0
		C116.5,227.9,115.5,227.9,114.5,227.9z"/>
	<path class="st3" d="M223.1,209c1.4-2.2,2.9-4.2,6-4C227.7,207.2,226.2,209.2,223.1,209z"/>
	<path class="st2" d="M107.5,224.9c0,0.7,0,1.3,0,2c-0.7,0-1.3,0-2,0c-0.3-1.3-0.7-2.6-1-3.9C106,222.9,107,223.6,107.5,224.9z"/>
	<path class="st3" d="M75.7,9.9c-1.3,1.4-2.7,1.3-4,0C73,8.5,74.3,8.5,75.7,9.9z"/>
	<path class="st2" d="M180.3,224.9c0,0.7,0,1.3,0,2c-0.7,0-1.3,0-2,0c-0.8,0-1.6-0.2-2-1.1C177.3,224.4,178.9,225,180.3,224.9z"/>
	<path class="st3" d="M80.6,10.9c-1.6,1.6-2.6,1.1-3-1C78.7,9.9,79.9,9.7,80.6,10.9z"/>
	<path class="st3" d="M105.5,18.8c-1.4,0-2.9,0-3-2C104,16.8,105.4,16.8,105.5,18.8z"/>
	<path class="st3" d="M220.1,211c0.6-1.3,1.6-2,3-2C223,211,221.6,211,220.1,211z"/>
	<path class="st3" d="M249,22.8c-1.4,0-2.4-0.7-3-2C247.5,20.8,248.9,20.8,249,22.8z"/>
	<path class="st2" d="M28.8,150.2c0.7,0,1.3,0,2,0c0,0.7,0,1.3,0,2c-0.7,0-1.3,0-2,0C28.8,151.6,28.8,150.9,28.8,150.2z"/>
	<path class="st3" d="M229.1,205c0-1.3,0.7-2,2-2C231,204.3,230.4,205,229.1,205z"/>
	<path class="st5" d="M24.8,67.6c0-2,0-4,0-6c0.9,0,1.7,0,2.6,0c0.4,14,4.5,26.8,11.5,38.8c-0.9,0.4-1.1,1.2-1.2,2.1
		c-2.1,0.1-2.2-2.6-3.9-3c-1.1-1.2-0.5-3.8-3-4c0-1,0-2-0.1-3c-1-2.3-2-4.7-3-7c-0.3-2.3-0.7-4.6-1-7c0-1.1,0.2-2.3-1-3
		c-0.3-1.3-0.6-2.7-1-4C26.2,70.2,26.3,68.9,24.8,67.6z"/>
	<path class="st4" d="M33.8,99.4c1.7,0.5,1.8,3.1,3.9,3c0.5,3.3,1.4,6.6,1,9.9c-1.9,1.2-0.1,3.8-2,5c-0.3,0-0.7,0-1,0c0-3,0-6,0-9
		c0-1.3-0.7-1.9-2-2c0-1.7,0-3.3,0-5C33.8,100.8,33.8,100.1,33.8,99.4z"/>
	<path class="st4" d="M27.8,43.7c1,0,1.9,0,2.9,0c-0.9,3.7-1.9,7.3-2.8,11c-1,0-2,0-3,0C24.8,50.7,28,47.7,27.8,43.7z"/>
	<path class="st4" d="M27.5,61.6c-0.9,0-1.7,0-2.6,0c-1.9-1.7-0.7-3.3,0-5c0.9,0,1.9,0,2.8,0C27.6,58.3,27.5,60,27.5,61.6z"/>
	<path class="st2" d="M33.8,99.4c0,0.7,0,1.4,0,2c-2.4-1.3-4.9-2.5-2.9-6C33.4,95.6,32.7,98.2,33.8,99.4z"/>
	<path class="st4" d="M27.8,85.5c1,2.3,2,4.7,3,7C27.3,91.3,25.8,89.1,27.8,85.5z"/>
	<path class="st4" d="M24.8,67.6c1.4,1.3,1.4,2.6,0,4C23.4,70.3,23.4,68.9,24.8,67.6z"/>
	<path class="st2" d="M35.8,117.4c0.3,0,0.7,0,1,0c0,0.7,0,1.3,0,2c-1,0-2,0-3,0C33.8,118.1,34.5,117.4,35.8,117.4z"/>
	<path class="st5" d="M27.7,56.7c-0.9,0-1.9,0-2.8,0c0-0.7,0-1.3,0-2c1,0,2,0,3,0C27.8,55.3,27.7,56,27.7,56.7z"/>
	<path class="st4" d="M25.8,75.6c1.2,0.7,1,1.9,1,3C24.7,78.1,24.2,77.2,25.8,75.6z"/>
	<path class="st2" d="M33.8,106.4c1.3,0.1,1.9,0.7,2,2C34.5,108.4,33.8,107.7,33.8,106.4z"/>
	<path class="st6" d="M27.7,56.7c0.1-0.7,0.1-1.3,0.2-2c0.9-3.7,1.9-7.3,2.8-11C44.8,9.8,91,1.6,116.4,33.5c0.8,1,1.6,2.1,2.4,3.2
		c1.3,3,3,5.4,6.7,3c13.9-1.6,27.8-2,41.6,0.6c3.3,0.6,3.9-1.9,5.1-3.7c9.8-14.6,23.6-22.7,41.1-23.5c19.9-0.9,38.5,11.9,46.2,30.9
		c0.5,1.2,1,2.4,1.5,3.6c1.5,8.1,2.5,16.2,1.1,24.5c-1.1,6.8-4.5,12.7-6,19.3c-3.6,4.3-4.4,10.3-9,14c-2.9-8.8-7.9-16.7-12.1-24.9
		c4.8-9.5,5.5-19.3,1.3-29c-7-16-33.4-19-44.4-5.3c-0.8,0.9,0,1.5,0.6,2c-1,3.7-2.8,3.3-4.6,0.6c-2.9-4.2-6.4-7.1-11.9-7.1
		c-3.3,0-4.4,1.1-2.6,4c2.2,3.6,3.7,7-1,9.8c-10.7,4.4-20.5,10.1-28.3,18.8c-1.8,2-2.8,1.1-4.4-0.4C125.2,59.9,108.9,50,87.5,52.8
		c3-3.1,7.6-3.5,11-6.2c-5.7-4.9-12.8-8.1-19.4-8.7c-14.2-1.3-25,6.8-27.5,20.7c-1.4,7.4-0.2,14.4,2.9,21.1
		c-4.3,8.3-8.5,16.7-12.8,25c-0.7-1.5-1.3-3.2-2.8-4.2c-7-12-11.1-24.8-11.5-38.8C27.5,60,27.6,58.3,27.7,56.7z M249.1,57.2
		c-1.8,5.9-4.8,10-4.1,15.2c0.4,2.9,2,5.1,5.1,4.9c2.9-0.2,4.1-2.3,4-5.2C254,67,252,62.6,249.1,57.2z"/>
	<path class="st4" d="M256,91.5c1.5-6.6,4.9-12.5,6-19.3c1.4-8.3,0.4-16.4-1.1-24.5c1,0,2,0,3,0c4.1,9.3,3.4,18.8,1.7,28.4
		c-1.7,9.6-5.6,18.4-9.3,27.3c-2.5,5.9-2.3,11.9-2.3,17.9c0.2,1.6-0.7,3.6,2,4c-0.7,3.9,0.8,7.4,2,10.9c-1,0.7-1,1.3,0,2
		c0,0.7,0,1.3,0,2c0,1.3,0.7,2,2,2c0,2,0,4,0,6c-1.3,1-1.3,2,0,3c0,2,0,4,0,6c-3.2,0.9-1.8,4.1-2.9,6c-0.2,5-3.5,9-4,13.9
		c-3.6,0.5-3.1,5.8-7,6c0.1-0.8-0.1-1.8,0.4-2.4c5.4-6.8,7.3-15.1,9.9-23.1c1.1-3.4,1.5-7-0.2-10.4c0.8-6.9-3.6-13-3.1-19.9
		c0-1.4,0.1-2.9-1.9-3c0-3,0-6-0.1-9c-0.3-6.4,1.2-12.2,4.7-17.6C257,95.9,258,93.7,256,91.5z"/>
	<path class="st5" d="M125.5,39.7c-3.8,2.4-5.4,0-6.7-3C121.3,36.9,123.5,38,125.5,39.7z"/>
	<path class="st5" d="M36.8,119.4c0-0.7,0-1.3,0-2c1.9-1.2,0.1-3.8,2-5c0.6-0.3,1.3-0.7,1.9-1c-2.9,9.6-2.6,19.8-5.6,29.4
		c-1.3,4-0.5,8.7,0.4,13.2c1.8,9.3,6.5,17.1,11.3,25c0,0.8,0.2,1.6,1,2l0,0c0.3,0.3,0.7,0.7,1,1l0,0c0,1,0,2,0,3
		c-2.3,0.1-3.1-2.3-5-3c0,0,0,0,0,0c0-1.3-0.7-2-2-2c-1.2-0.7-1-1.9-1-3c-1-2.5-0.4-5.9-4-7c0-0.3,0-0.6,0-1
		c1.2-3.7-2.7-5.6-3.1-8.9c-0.8-5.7-0.7-11.3-0.8-17c0-1,0-2,0-3c0.9-3,2-6.1,2.8-9.2c0.4-1.4,0-2.6-1.8-2.8c0-1.3,0-2.6,0-3.9
		C37.9,124.5,36.5,121.5,36.8,119.4z"/>
	<path class="st4" d="M107.5,224.9c-0.6-1.3-1.6-2-3-2c-3.7,1.1-6.4-2.6-9.9-2c-0.1-1.3-0.7-1.9-2-2c-5.4-2-10.4-4.5-15.5-7.2
		c-1.1-0.6-2.5-1.1-2.5-2.7c2.5,0,4.4,2.4,7,1.9c0.7,1.2,1.9,1,3,1c0.8,1.8,2.3,2.6,4.1,3.2c8.9,3.2,17.8,6.5,26.8,9.7
		c-0.3,0.3-0.7,0.7-1,1C112.2,225.6,109.9,225.2,107.5,224.9z"/>
	<path class="st4" d="M43.8,182.1c1.9,0.7,2.7,3.1,5,3c0.3,0.3,0.7,0.7,1,1c0.2,3.8,2.2,5.8,6,6c0.7,0.7,1.3,1.3,2,2
		c0.1,2.6,1.8,3.1,4,3l0,0c0.3,1.3,0.7,2.6,1,3.9C54.6,196.5,47.2,191.3,43.8,182.1z"/>
	<path class="st4" d="M32.8,143.3c0.1,5.7,0,11.3,0.8,17c0.5,3.3,4.4,5.2,3.1,8.9c-6.5-4.1-6-10.6-6-16.9c0-0.7,0-1.3,0-2
		c-0.3-2.3-0.6-4.6-1-6.9C30.8,143.3,31.8,143.3,32.8,143.3z"/>
	<path class="st5" d="M81.6,210.9c-2.6,0.5-4.5-1.9-7-1.9c-0.3,0-0.6,0-1,0c-0.6-2.9-4.1-3.3-5-6c0,0,0,0,0,0
		C73.6,204.8,78.6,206.2,81.6,210.9z"/>
	<path class="st5" d="M62.7,201c-0.3-1.3-0.7-2.6-1-3.9c3.2,1,5.4,3.1,7,5.9c0,0,0,0,0,0c-1.3,0-2.6,0-4,0
		C64,202.3,63.4,201.7,62.7,201z"/>
	<path class="st4" d="M64.7,203c1.3,0,2.6,0,4,0c0.9,2.6,4.4,3.1,5,6C70.1,207.8,66.7,206.5,64.7,203z"/>
	<path class="st4" d="M36.8,170.1c3.5,1.1,3,4.5,4,7C37.5,175.9,37.1,173.1,36.8,170.1z"/>
	<path class="st4" d="M41.8,180.1c1.3,0,2,0.7,2,2C42.5,182.1,41.8,181.4,41.8,180.1z"/>
	<path class="st2" d="M92.6,218.9c1.3,0,2,0.7,2,2C93.3,220.9,92.6,220.2,92.6,218.9z"/>
	<path class="st2" d="M256,125.4c-2.6-0.4-1.8-2.4-2-4C256.7,121.7,255.8,123.8,256,125.4z"/>
	<path class="st2" d="M260,151.2c-1.3-1-1.3-2,0-3C261.2,149.2,261.2,150.2,260,151.2z"/>
	<path class="st2" d="M259.9,142.3c-1.3-0.1-1.9-0.7-2-2C259.3,140.3,259.9,141,259.9,142.3z"/>
	<path class="st2" d="M258,138.3c-1-0.6-1-1.3,0-2C259,136.9,259,137.6,258,138.3z"/>
	<path class="st5" d="M115.5,224.9c-8.9-3.3-17.8-6.6-26.8-9.7c-1.8-0.6-3.3-1.5-4.1-3.2c1.2-1.6,2.2-0.2,3.3,0.2
		c1.3,0.5,2.6,1.4,3.7-0.2c1,0.3,1.9,0.7,2.9,1c1.3,3.4,4.7,3.9,7.5,4.9c13.2,4.6,27,6,40.7,6.8c14.2,0.8,28.1-1.8,41.9-5.6
		c15.3-4.2,29-11.3,42-20.2c1.7-1.2,2.9-3.2,5.4-2.9l0,0c-0.3,0.7-0.7,1.3-1,2c-3.2,4.6-8.5,6.5-13,9.4c-4.3,2.9-8.6,5.6-13,8.5
		c-0.7,0-1.3,0-2,0c-5.4,0.9-10.5,2.7-15,5.9c-0.7,0-1.3,0-2,0c-2.4,0.1-5.1-0.3-6,3c0,0,0,0,0,0c-1.4,0.1-2.9-0.5-4,1c-1,0-2,0-3,0
		c-2.6-1.8-5.3-0.6-8-0.5c-7.1,0.3-14.1,2-21.3,1.8c-8.3-0.2-16.3-1.9-24.4-2.3C118.2,224.9,116.8,224.9,115.5,224.9z"/>
	<path class="st4" d="M119.5,224.9c8.2,0.4,16.2,2.1,24.4,2.3c7.3,0.2,14.2-1.5,21.3-1.8c2.7-0.1,5.4-1.3,8,0.5
		c-6,3.4-12.9,3.3-19.4,3.9c-11.5,1-23-0.4-34.4-1.9C119.5,226.9,119.5,225.9,119.5,224.9z"/>
	<path class="st5" d="M256,147.2c1.7,3.4,1.3,7,0.2,10.4c-2.5,8-4.5,16.3-9.9,23.1c-0.4,0.5-0.3,1.6-0.4,2.4c-0.8,0.4-1,1.2-1,2
		c-1,0-2,0-3,0c0.3-1.4,0.6-2.7,1-4.1c0-0.3,0-0.6,0-0.9c0.4-0.2,1.8,0.5,1-1c0.8-1.3,1.5-2.6,2.3-3.8
		C251.6,166.6,255.5,157.5,256,147.2z"/>
	<path class="st5" d="M241.1,189.1c-0.3,0.7-0.7,1.3-1,2c-2,0.1-3.1,1.4-4,3c-1,0.4-1.6,1-2,2c-0.7,0-1.3,0-2,0c0,0,0,0,0,0
		c1.7-4.5,5.7-6.9,9-9.9C241.1,187.1,241.1,188.1,241.1,189.1z"/>
	<path class="st4" d="M241.1,189.1c0-1,0-2,0-3c0.3-0.3,0.7-0.7,1-1c1,0,2,0,3,0C244.8,187.4,243.4,188.7,241.1,189.1z"/>
	<path class="st4" d="M236.1,194c0.9-1.6,2-2.9,4-3C239.9,193.6,238.2,194.1,236.1,194z"/>
	<path class="st4" d="M232.1,196c0.7,0,1.3,0,2,0c-0.1,2-1.5,2-3,2C231.4,197.4,231.7,196.7,232.1,196z"/>
	<path class="st4" d="M188.2,221.9c4.5-3.2,9.6-5,15-5.9c-1.7,3.9-5.9,3.4-9,5c-0.8,0-1.6,0.2-2,1c-0.7,0-1.3,0-2,0
		C189.6,221.9,188.9,221.9,188.2,221.9z"/>
	<path class="st4" d="M180.2,224.9c0.9-3.3,3.6-2.8,6-3c0,0.7,0,1.3,0,2c-0.7,0-1.3,0-2,0c-0.8,0-1.6,0.2-2,1
		C181.6,224.9,180.9,224.9,180.2,224.9z"/>
	<path class="st2" d="M186.2,223.9c0-0.7,0-1.3,0-2c0.7,0,1.3,0,2,0c0.7,0,1.3,0,2,0C189.7,224.2,188.9,226,186.2,223.9z"/>
	<path class="st2" d="M192.2,221.9c0.4-0.8,1.2-1,2-1C194,222.2,193.8,223.4,192.2,221.9z"/>
	<path class="st2" d="M182.3,224.9c0.4-0.8,1.2-1,2-1C184,225.2,183.8,226.4,182.3,224.9z"/>
	<path class="st4" d="M33.9,128.3c1.8,0.2,2.2,1.4,1.8,2.8c-0.9,3.1-1.9,6.1-2.8,9.2c-0.7-1-1.3-2-2-3c0.3-1.7,0.7-3.3,1-5
		C34.5,132,33.6,129.9,33.9,128.3L33.9,128.3z"/>
	<path class="st2" d="M33.8,128.3c-0.2,1.6,0.7,3.6-2,4C32,130.7,31.1,128.7,33.8,128.3z"/>
	<path class="st7" d="M40.7,111.4c-0.6,0.3-1.3,0.7-1.9,1c0.4-3.4-0.5-6.6-1-9.9c0.1-0.9,0.3-1.7,1.2-2.1c1.5,1,2.1,2.7,2.8,4.2
		C41.4,106.9,41.1,109.1,40.7,111.4z"/>
	<path class="st8" d="M40.7,111.4c0.4-2.3,0.7-4.5,1.1-6.8c4.3-8.3,8.5-16.6,12.8-25c1.7-0.1,2.5-1.1,3.4-2.4
		c7.7-10.7,17.6-18.9,29.6-24.4c21.4-2.8,37.6,7.1,52.1,21.2c1.5,1.5,2.5,2.5,4.4,0.4c7.8-8.8,17.6-14.4,28.3-18.8
		c9.4-3.9,19.2-3,29-2.8c9.3,5.4,19,10.4,25.8,19.3c2.3,3,4.1,6.7,7.8,8.6c4.1,8.3,9.2,16.1,12.1,24.9c1.6,3.2,0.4,7.5,3.9,9.9
		c0,3,0,6,0.1,9c0,1.4,0,2.8,1.9,3c-0.5,6.9,3.8,13,3.1,19.9c-0.5,10.3-4.4,19.4-9.7,28c-0.8,1.3-1.5,2.6-2.3,3.8
		c-0.3,0.3-0.7,0.7-1,1c0,0.3,0,0.6,0,0.9c-2.2,0.2-3.5,1.9-4.6,3.5c-3.4,4.8-7.7,8.6-12.4,12c-17.7,12.9-37.6,20.6-59.1,24.3
		c-13.7,2.3-27.5,2.3-41.3,0.2c-10.6-1.6-20.7-5.2-31-8.1c-1-0.3-1.9-0.7-2.9-1c-5.7-3.2-11.4-6.5-17.2-9.4
		c-6.8-3.4-11.8-9.2-18.6-12.5c-1.2-3.7-4.3-5.6-7-7.9c0,0,0,0,0,0c-0.3-0.3-0.7-0.7-1-1c0,0,0,0,0,0c0-0.8-0.2-1.6-1-2
		c-4.8-7.9-9.5-15.7-11.3-25c-0.8-4.5-1.6-9.2-0.4-13.2C38.2,131.2,37.8,121,40.7,111.4z M174.2,141.4c13.7,6.2,28.1,7.7,42.9,6.9
		c1.8,0,3.7,0.1,5.5-0.2c7-1.3,14.3-2.4,18.8-8.8c4.1-5.8,3.5-12.4,2.1-18.7c-6-27.9-29.4-44-57.7-40c-15.5,2.2-27.7,12.9-30.5,26.8
		c-3.3,14.7,0.4,25.2,12.9,31C170.2,139.4,172.2,140.4,174.2,141.4z M123.6,136.4c2.5-0.6,4.3-2.3,6-4.2c8.8-10.5,7.7-28.6-2.6-39.7
		c-10-10.7-22.7-13-36.7-11.9c-16.2,1.3-28.3,9.3-37.5,22.4c-4.4,6.3-6.2,13.6-7.9,20.7c-2,8.5,3.1,19,11.4,21.6
		c19.2,6.1,37.7,3.9,56.1-3C116.7,141.3,120.4,139.2,123.6,136.4z M123.5,142.3c-8.3,1.6-15.7,5.1-22.4,10.2
		c-7.3,5.7-10.4,13-8.6,22.3c1.6,8.2,5.7,15.1,11.1,21.3c13.8,15.9,30.9,23.6,51.7,18.7c22-5.2,35.9-19.6,42.1-41.2
		c1.8-6.4,0-12.1-4.4-17c-7.4-8.3-17.1-12.1-27.7-14.4c-0.4-0.5-0.6-1.4-1.1-1.6c-12.4-3.6-24.9-4-37.5-1
		C125.4,140,124.2,140.9,123.5,142.3z M96.5,77.4c5.5-0.1,10.6-1.6,14.5-6c1.5-1.7,3.1-3.7,1.6-6.2c-1.5-2.5-4.1-2.2-6.3-1.5
		c-4.9,1.6-9.7,3.3-14.5,5.3C90,69.7,89,71.3,89,73.3c0,2,1.6,2.5,3,3.4C93.5,77.7,94.9,77,96.5,77.4z M191.7,77.3
		c0.8,0,1.7,0.1,2.5,0c2.6-0.4,5.7-0.4,6.2-3.8c0.5-3.5-2.2-5.4-5-5.7c-4.6-0.6-8.2-3.7-12.7-4.3c-2.1-0.3-4.2-0.7-5.3,1.3
		c-1,1.9-1,4.2,0.6,6C181.7,74.8,186.1,77.3,191.7,77.3z"/>
	<path class="st9" d="M234.9,80.5c-3.7-1.8-5.5-5.5-7.8-8.6c-6.8-8.9-16.5-13.9-25.8-19.3c-2.1-3.1-5.7-3.5-8.9-4.5
		c-0.6-0.5-1.3-1.1-0.6-2c11-13.7,37.4-10.7,44.4,5.3C240.5,61.2,239.7,71,234.9,80.5z"/>
	<path class="st9" d="M87.5,52.8c-12,5.6-21.9,13.7-29.6,24.4c-0.9,1.3-1.7,2.4-3.4,2.4c-3.2-6.7-4.3-13.7-2.9-21.1
		c2.5-13.8,13.3-22,27.5-20.7c6.6,0.6,13.7,3.8,19.4,8.7C95.1,49.2,90.6,49.7,87.5,52.8z"/>
	<path class="st10" d="M192.4,48.2c3.2,1.1,6.8,1.4,8.9,4.5c-9.8-0.2-19.6-1.1-29,2.8c4.8-2.8,3.2-6.2,1-9.8c-1.8-2.9-0.7-4,2.6-4
		c5.5,0,9,2.9,11.9,7.1C189.6,51.4,191.4,51.8,192.4,48.2z"/>
	<path class="st7" d="M249.1,57.2c2.9,5.4,4.9,9.8,5,14.9c0.1,2.9-1.2,5-4,5.2c-3.1,0.2-4.7-2-5.1-4.9
		C244.3,67.2,247.4,63.1,249.1,57.2z"/>
	<path class="st7" d="M251,115.4c-3.6-2.4-2.4-6.7-3.9-9.9c4.6-3.6,5.4-9.7,9-14c2,2.2,1,4.4-0.3,6.3
		C252.2,103.2,250.7,109,251,115.4z"/>
	<path class="st7" d="M253,127.4c-2-0.1-1.9-1.5-1.9-3C253.1,124.5,253,125.9,253,127.4z"/>
	<path class="st7" d="M48.8,182.1c2.7,2.3,5.9,4.2,7,7.9l-0.1,0.1c-2.8-0.1-3.7-3.1-6-4c-0.3-0.3-0.7-0.7-1-1
		C48.8,184.1,48.8,183.1,48.8,182.1z"/>
	<path class="st7" d="M46.8,179.1c0.8,0.4,1,1.2,1,2C46.9,180.7,46.8,179.9,46.8,179.1z"/>
	<path class="st7" d="M47.8,181.1c0.3,0.3,0.7,0.7,1,1C48.4,181.7,48.1,181.4,47.8,181.1z"/>
	<path class="st7" d="M55.8,190c6.8,3.3,11.8,9.2,18.6,12.5c5.9,2.9,11.5,6.3,17.2,9.4c-1.2,1.6-2.4,0.7-3.7,0.2
		c-1-0.4-2.1-1.7-3.3-0.2c-1.1,0-2.3,0.2-3-1c-3-4.7-8.1-6.2-12.9-8c-1.6-2.8-3.8-4.9-7-5.9c0,0,0,0,0,0c-0.8-1.6-1.9-2.9-4-3
		c-0.7-0.7-1.3-1.3-2-2C55.7,191.4,55.7,190.7,55.8,190L55.8,190z"/>
	<path class="st5" d="M55.7,190.1c0,0.7,0,1.3,0,2c-3.8-0.2-5.8-2.2-6-6C52,187,52.9,190,55.7,190.1z"/>
	<path class="st5" d="M57.7,194c2,0.1,3.1,1.4,4,3C59.5,197.1,57.8,196.6,57.7,194z"/>
	<path class="st7" d="M94.6,212.9c10.3,2.9,20.4,6.5,31,8.1c13.8,2.1,27.6,2.1,41.3-0.2c21.5-3.6,41.3-11.4,59.1-24.3
		c4.7-3.4,9-7.3,12.4-12c1.1-1.6,2.4-3.3,4.6-3.5c-0.3,1.4-0.6,2.7-1,4.1c-0.3,0.3-0.7,0.7-1,1c-3.4,3-7.3,5.4-9,9.9
		c-2.5-0.3-3.7,1.7-5.4,2.9c-12.9,8.9-26.7,16.1-42,20.2c-13.8,3.7-27.7,6.4-41.9,5.6c-13.7-0.8-27.6-2.2-40.7-6.8
		C99.2,216.9,95.9,216.4,94.6,212.9z"/>
	<path class="st7" d="M243,180.1c0.3-0.3,0.7-0.7,1-1C244.9,180.6,243.5,179.9,243,180.1z"/>
	<path class="st10" d="M165.4,142.2c10.5,2.3,20.3,6.1,27.7,14.4c4.4,4.9,6.2,10.6,4.4,17c-6.2,21.7-20.1,36-42.1,41.2
		c-20.9,4.9-38-2.9-51.7-18.7c-5.4-6.2-9.5-13.1-11.1-21.3c-1.9-9.2,1.3-16.6,8.6-22.3c6.6-5.2,14.1-8.6,22.4-10.2
		c0.2,2.3,1.5,4,3.1,5.5c8.1,7.7,19.1,9.1,29,3.9c1.9-1,3.6-2.5,5.6-3.1C164.5,147.5,165.3,145.2,165.4,142.2z M161.6,195.9
		c3.6-2.4,1.7-6,1.7-9c-0.1-10.8-8.6-20-17.5-20.9c-12.1-1.3-23.6,15.5-18.2,30.2c1.1,5.8,5,9.3,10.3,10.9
		C147.4,210.1,159.2,207.5,161.6,195.9z"/>
	<path class="st10" d="M112.5,142.3c-18.4,6.9-36.9,9.1-56.1,3c-8.3-2.7-13.4-13.1-11.4-21.6c1.7-7.2,3.5-14.5,7.9-20.7
		c9.2-13.1,21.2-21.1,37.5-22.4c13.9-1.1,26.7,1.2,36.7,11.9c10.3,11.1,11.4,29.2,2.6,39.7c-1.6,1.9-3.4,3.6-6,4.2
		c-5.2-1.3-3.3-4.6-1.4-7c2.7-3.5,3.6-7,1.5-11c-0.1-0.3-0.2-0.7-0.2-1c0.2-0.6,0.5-1.3,0.7-1.9c1.3-0.7,1.3-1.4,0-2.2
		c-0.3-1.3-0.6-2.5-0.9-3.8c1.5-1,2.8-2.1,1.9-4c-0.8-1.7-2.6-1.3-4-1.1c-7.6,1.3-15.3,2.6-22.9,4c-11.5,2.2-22.9,4.6-34.4,7
		c-1.6,0.3-3.4,0.9-3.3,3.1c0.1,2.5,1.8,2.8,3.8,2.7c1.5,8.5,6.2,14.5,14.3,17.5c10.7,4,21.3,3.9,31.6-1.5
		C112.2,138.5,112.8,140.2,112.5,142.3z"/>
	<path class="st10" d="M155.3,107.4c2.8-13.9,15-24.6,30.5-26.8c28.4-4,51.7,12.1,57.7,40c1.4,6.3,2,13-2.1,18.7
		c-4.6,6.4-11.8,7.5-18.8,8.8c-1.8,0.3-3.6,0.1-5.5,0.2c-0.5-4.2-4.9-5.7-6.3-9.2c7.5-3.6,12.9-8.9,14-17.5c1.9-0.4,4.2-0.5,4.1-3.3
		c-0.1-2.8-2.4-2.8-4.3-3.2c-11.1-2.3-22.3-4.5-33.4-6.7c-7.8-1.5-15.4-3.5-23.4-4.1c-1.5-0.1-3.1-0.2-3.9,1.4
		c-0.7,1.5,0.8,2.3,1.4,3.4c-2,2.6-0.2,6.1-2.6,10.1C162,113.3,157.8,111,155.3,107.4z"/>
	<path class="st11" d="M165.4,142.2c-0.1,3-0.9,5.3-4.3,6.3c-2,0.6-3.7,2.1-5.6,3.1c-9.9,5.3-20.9,3.8-29-3.9
		c-1.6-1.5-2.8-3.2-3.1-5.5c0.8-1.4,1.9-2.3,3.4-2.6c12.6-3,25.1-2.6,37.5,1C164.8,140.7,165.1,141.6,165.4,142.2z"/>
	<path class="st6" d="M155.3,107.4c2.5,3.6,6.7,5.9,7.5,11.8c2.4-4,0.6-7.5,2.6-10.1c0.3,0.1,0.7,0.2,1,0.3
		c-1.9,9.5,1.3,17.5,7.6,24.5c-3.6-0.7-3.5,3.4-5.9,4.4C155.7,132.6,152,122.1,155.3,107.4z"/>
	<path class="st6" d="M210.8,139.1c1.4,3.6,5.8,5,6.3,9.2c-14.8,0.8-29.2-0.8-42.9-6.9c1.3-1.5,3.6-2.3,3.1-5
		c1.5,0.5,2.8,1.5,4.4,2.1C191.3,142.6,201,142.1,210.8,139.1z M199,143.9c-3.4-0.7-5.4-1.4-7.7,0.7
		C193.8,145.4,195.7,145.7,199,143.9z"/>
	<path class="st11" d="M96.5,77.4c-1.6-0.4-3,0.3-4.5-0.6c-1.4-0.9-3-1.4-3-3.4c0-2,1.1-3.6,2.8-4.3c4.8-1.9,9.6-3.7,14.5-5.3
		c2.2-0.7,4.7-1,6.3,1.5c1.6,2.5-0.1,4.5-1.6,6.2C107.1,75.8,102,77.3,96.5,77.4z"/>
	<path class="st11" d="M191.7,77.3c-5.6,0-10-2.6-13.6-6.5c-1.7-1.8-1.6-4.1-0.6-6c1.1-2,3.2-1.6,5.3-1.3c4.5,0.7,8.1,3.8,12.7,4.3
		c2.8,0.3,5.5,2.2,5,5.7c-0.5,3.4-3.6,3.4-6.2,3.8C193.4,77.4,192.5,77.3,191.7,77.3z"/>
	<path class="st6" d="M112.5,142.3c0.3-2.1-0.3-3.8-2-5.1c4.2-2.3,7.4-5.6,9.9-9.8c1.7-2.9,1.4-6.4,3.3-9.1c2,4,1.2,7.5-1.5,11
		c-1.8,2.4-3.8,5.6,1.4,7C120.4,139.2,116.7,141.3,112.5,142.3z"/>
	<path class="st10" d="M177.3,136.4c0.6,2.6-1.8,3.5-3.1,5c-2-1-4-2-6-3c2.3-0.9,2.3-5.1,5.9-4.4
		C175.1,134.8,176.2,135.6,177.3,136.4z"/>
	<path class="st11" d="M127.5,196.1c-5.4-14.7,6.1-31.5,18.2-30.2c9,0.9,17.4,10.1,17.5,20.9c0,2.9,1.9,6.6-1.7,9
		C155.7,186.6,134.1,186.2,127.5,196.1z"/>
	<path class="st12" d="M127.5,196.1c6.6-9.9,28.2-9.5,34.1-0.3c-2.4,11.6-14.1,14.2-23.8,11.2C132.5,205.4,128.6,201.9,127.5,196.1z
		"/>
	<path class="st13" d="M123.7,118.4c-1.9,2.7-1.5,6.2-3.3,9.1c-2.5,4.2-5.7,7.4-9.9,9.8c-10.3,5.4-20.9,5.5-31.6,1.5
		c-8.2-3-12.8-9-14.3-17.5c5.8-2.6,12.3-2.5,18.3-4.3c1.3-0.4,2.5-0.7,3.6,0.5c2.6,10.8,11.6,16.3,21.9,12.9
		c6.6-2.2,10.5-7.3,12.3-13.9c1.1,0,2.2-0.2,2.8,1C123.5,117.7,123.6,118,123.7,118.4z"/>
	<path class="st11" d="M86.4,117.4c-1.1-1.2-2.3-0.9-3.6-0.5c-6,1.8-12.5,1.8-18.3,4.3c-2,0.1-3.8-0.2-3.8-2.7
		c0-2.2,1.7-2.7,3.3-3.1c11.4-2.4,22.9-4.8,34.4-7c7.6-1.5,15.2-2.8,22.9-4c1.4-0.2,3.2-0.7,4,1.1c0.9,1.9-0.4,3.1-1.9,4
		c-0.8,0-1.6,0-2.4,0c-6,1-12,1.5-17.9,3C97.5,114,91.3,113.4,86.4,117.4z"/>
	<path class="st2" d="M121,109.6c0.8,0,1.6,0,2.4,0c0.3,1.3,0.6,2.5,0.9,3.8c0,0.7,0,1.4,0,2.2c-0.2,0.6-0.5,1.3-0.7,1.9
		c-0.7-1.2-1.8-1-2.8-1C120.7,114.1,120.9,111.8,121,109.6z"/>
	<path class="st6" d="M124.2,115.5c0-0.7,0-1.4,0-2.2C125.5,114,125.5,114.8,124.2,115.5z"/>
	<path class="st13" d="M177.3,136.4c-1.1-0.8-2.2-1.6-3.2-2.4c-6.3-7-9.5-15-7.6-24.5c1-0.1,2,0,2.7,0.9c-0.8,5.3,1.1,10,3.8,14.2
		c3.9,6,10,8,16.8,6.6c7-1.4,11.7-5.7,13.4-12.8c0.6-0.7,0.8-2.1,2-1.8c6.5,1.9,13.6,1.7,19.7,5c-1.2,8.6-6.5,14-14,17.5
		c-9.8,2.9-19.5,3.4-29.2-0.6C180.1,137.9,178.8,136.9,177.3,136.4z"/>
	<path class="st11" d="M169.1,110.4c-0.7-0.8-1.7-1-2.7-0.9c-0.3-0.1-0.7-0.2-1-0.3c-0.7-1.1-2.2-1.9-1.4-3.4
		c0.8-1.6,2.4-1.5,3.9-1.4c7.9,0.6,15.6,2.5,23.4,4.1c11.2,2.2,22.3,4.5,33.4,6.7c1.9,0.4,4.2,0.4,4.3,3.2c0.1,2.8-2.2,2.9-4.1,3.3
		c-6.1-3.3-13.2-3.1-19.7-5c-1.2-0.4-1.4,1.1-2,1.8C192.6,112.2,180.8,111.6,169.1,110.4z"/>
	<path class="st10" d="M199,143.9c-3.3,1.7-5.2,1.5-7.7,0.7C193.6,142.6,195.6,143.3,199,143.9z"/>
	<path class="st14" d="M121,109.6c-0.1,2.3-0.2,4.6-0.4,6.8c-1.8,6.6-5.7,11.7-12.3,13.9c-10.3,3.4-19.4-2.1-21.9-12.9
		c4.9-4,11.1-3.3,16.7-4.8C108.9,111.1,115,110.5,121,109.6z"/>
	<path class="st14" d="M169.1,110.4c11.7,1.2,23.5,1.8,34,8c-1.7,7.1-6.4,11.5-13.4,12.8c-6.8,1.4-13-0.6-16.8-6.6
		C170.2,120.4,168.3,115.7,169.1,110.4z"/>
</g>
</svg>
