<?xml version="1.0" encoding="utf-8"?>
<!-- Generator: Adobe Illustrator 26.0.3, SVG Export Plug-In . SVG Version: 6.00 Build 0)  -->
<svg version="1.1" id="Capa_1" xmlns="http://www.w3.org/2000/svg" xmlns:xlink="http://www.w3.org/1999/xlink" x="0px" y="0px"
	 viewBox="0 0 306.5 232.3" style="enable-background:new 0 0 306.5 232.3;" xml:space="preserve">
<style type="text/css">
	.st0{fill:#E8E7E6;}
	.st1{fill:#C5BCAF;}
	.st2{fill:#EFD5B1;}
	.st3{fill:#98775C;}
	.st4{fill:#5A391D;}
</style>
<g>
	<path class="st0" d="M253.9,63.1c-1,15.7-3.1,31-13,44.2c-2.4,3.1-1.2,7.2-0.9,10.6c1,10.3,3.7,20.3,4.4,30.8
		c0.5,7.7-0.6,14.6-3.7,21.5c-5.6,12.4-14.1,22.7-24.2,31.5c-7.1,6.1-15.1,11.2-23.9,15c-5.1,2.2-10.2,4.4-15.4,6.4
		c-12.4,4.8-25.4,7.2-38.7,8c-3.3,0.2-6.6,0.9-9.8,1.2c-4.5,0.4-9.1-0.7-13.7-1.1c-10.3-0.9-20.6-2.2-30.4-5.5
		c-14.9-5.1-29.2-11.2-41.8-21.3c-11.2-9-20.8-19.1-27.3-31.7c-6.6-12.6-7.2-26.2-4.4-40.1c1.6-8.1,4.6-16.1,1.6-24.6
		C10.9,103,8.3,98.6,6.1,94C0.6,82.1-1.2,70,0.7,57C2.6,44,9.1,33.4,18,24.6c8.3-8.3,19.1-12.7,31-13.4c6.8-0.4,13.9-1.1,20.1,2
		c8.4,4.2,17.9,6.1,24.8,13.4c5.5,5.9,13,7.6,21.2,6.8c6.6-0.6,13.2-2.2,20.1-0.2c3.5,1,7.7,0.1,11.6,0.4c4.6,0.3,8.2-2.8,11-5.8
		c3.8-4.1,8.1-7.5,12.7-10c5.3-2.8,10.1-7.3,17.1-6.8c4.2,0.3,8.2-2.3,12.7-1.8c16.4,1.9,31.5,6.6,42.4,20.2c1.5,1.8,0.3,3,0.4,4.5
		c-1.7,0.1-3.3,0.1-5,0.1c-12.8-16.1-29.3-22.3-49.4-17.8c-13.3,3-23.7,10.7-32,21.5c-1.3,1.7-2.2,3.4-5.1,2.8
		c-13.7-2.9-27.7-3.9-41.5-1.1c-8.1,1.6-12.1-1.4-17.2-7C73.2,10.5,40,7.6,19,30.3C7.4,42.8,3,57.8,7.5,74.7
		c-2.1,0.4-2.1,2.1-1.7,3.5c1.2,4.6,2.5,9.2,4.5,13.6c3.7,8.3,10,15.7,8.4,25.8c-1.1,6.6-1.5,13.4-3,20c0,0.6,0,1.3,0,1.9
		c-1.6,1.4-0.8,3.3-1,5.1c0,0.6,0,1.3,0,1.9c-0.6,7.6,0.9,15.1,3.8,21.7c5.6,12.7,15,22.9,26.3,31c10.6,7.6,21.8,14.3,34.4,18.8
		c8.6,3.1,17.3,5.4,26,6.8c13.1,2.1,26.4,2.4,39.8,0.5c15.7-2.1,30.4-6.6,44.8-13c10.6-4.7,20.5-10.2,28.8-18.8
		c8.7-9,16.2-18.7,19.7-30.8c2-6.9,3.2-14.1,0.8-21.3c0-0.6,0-1.3,0-1.9c-0.2-5.8-2.9-11.2-3.4-16.9c-0.7-7.8-2.1-15.7,3.8-22.7
		c5.2-6.2,6.2-14.3,8.5-21.7c0.4-1.3-0.3-2.3-1.7-2.5c0.4-4.3,0.8-8.6,1.3-12.9C249.5,62.9,251.7,63,253.9,63.1z"/>
	<path class="st1" d="M284.6,31.1c5.6,0,10.2-0.1,14.8,0c3.1,0.1,7-0.3,7,4.2c0.1,4.7-3.9,4.6-7.2,4.7c-7,0.1-13.9,0-20.9,0
		c-2.6,0-5.5,0.2-6.9-2.8c-1.5-3.2,0.5-5.5,2.4-7.5c4.8-5.4,9.9-10.7,14.8-16c1-1.1,2.4-1.9,2.9-4.4c-4.8,0-9.5-0.1-14.2,0
		c-3.1,0.1-6.1-0.4-6-4.1c0-3.4,2.9-4,5.8-4c7.1,0,14.2,0,21.4,0.1c2.4,0,4.8,0.3,5.9,2.8c1.1,2.5,0.3,4.9-1.5,6.9
		C297.1,17.3,291.2,23.8,284.6,31.1z"/>
	<path class="st1" d="M253.9,63.1c-2.2-0.1-4.4-0.2-6.6-0.3c-1,0-2,0-3-0.1c-2-0.2-4.6,0.9-5.9-1.5c-1.4-2.7,0.7-4.6,2.1-6.6
		c1.6-2.3,4.1-4,4.7-6.9c3.6-1.3,5.6-4,7.8-8c-4.1,0.8-7.4-0.8-10.4,1.3c-4.8-0.3-5.3-3.3-4.7-7.2c1.7,0,3.3-0.1,5-0.1
		c4.8,0,9.6,0,14.4,0.1c2,0,4.2-0.3,5.2,2c1,2.2,0.1,4.3-1.3,6c-2.9,3.2-6,6.2-8.9,9.3c-1.2,1.3-3.5,2.7-2.5,4.3
		c1,1.7,3.5,1.2,5.6,0.9c2-0.2,3.9-0.5,5.9-0.4c1.8,0.1,3.2,1.1,3.4,3c0.2,2.2-1.3,3.4-3.3,3.7C258.9,63,256.4,63,253.9,63.1z"/>
	<path class="st2" d="M15.6,139.4c0-0.6,0-1.3,0-1.9c2.1-0.3,2.6-1.9,2.9-3.6c1.4-9.1,2.8-18.2,4.1-27.3c2.3-5.1,4-10.5,7-15.2
		c3.2-5.1,4.9-9.8,1.9-15.5c-1.1-2.1-1.3-4.8-1.7-7.2c-2.4-15,6.8-27.8,21.8-30.2c7.6-1.2,14.2,1.6,20.6,5.4
		c1.8,1.1,4.6,1.8,4.6,3.9c0,2.2-3.3,1.5-4.7,2.7c-0.4,0.3-1.4,0.3-1.1,1.1c1.3,2.1,2.7,0.4,4.1,0.5c1.7,0,3.3-0.1,5,0.1
		c15.6,2,28.6,9.3,39.6,20c3.7,3.6,5,2.8,8.2-0.3c12.8-12.1,27.8-19.6,45.9-19.1c3.1,0.1,6.3,0,10,0c-2.4-2.8-5.8-2.6-7.4-5.1
		c4.6-4.4,10-7,15.8-8.4c9.8-2.3,18.8-0.9,25.6,7.4c4.7,5.8,6.6,12.5,6.3,19.9c-2.1,0.1-4.3,0-6.4,0.2c-1.5,0.1-2.6,0.8-2.5,2.4
		c0.1,1.5,1.5,1.4,2.7,1.5c6.4,0.7,6.4,0.7,3,6.1c-0.8,1.2-1.9,2.3-2.9,3.3c-1.5,1.7-3.9,3.1-2.7,5.8c1.1,2.5,3.7,1.4,5.7,1.7
		c3.8,6.2,6.7,12.9,8.9,19.8c2,7.5,3.5,15,4.4,22.7c0.3,3.1,1.6,6.9,4.6,9.3c0,0.6,0,1.3,0,1.9c-0.8,0.7-0.9,1.7-0.9,2.7
		c0.1,21.4-11,36.9-26.9,49.5c-19.4,15.3-41.6,23.9-66.3,26.6c-20.7,2.2-41.1,1.3-60.7-5.3c-19.8-6.6-37.9-16.6-51.9-32.7
		c-8.3-9.5-14.9-19.8-15.5-32.9c-0.1-1.4-0.2-2.7-2-2.9c0-0.6,0-1.3,0-1.9C17.7,143.3,16.9,141.4,15.6,139.4z M105.2,142.3
		c-6.4,2.2-12.9,4.2-18.7,7.9c-16,10.4-18.1,25.2-5.2,39.3c14.6,16.1,33.1,22.2,54.3,19.4c16.1-2.1,29.6-9.7,39.5-22.8
		c9.2-12.2,6.8-25.3-5.4-34.2c-6.7-4.9-14.5-7.3-22.2-9.7c-1.4-1.8-3.3-2.6-5.5-3c-10-1.8-20-2.3-30-0.5
		C109.4,139.2,106.8,139.9,105.2,142.3z M177.2,79.8c-22,0-36.7,11-40.5,31.2c-2.4,12.5,1.7,25.2,16.6,29.8
		c5.9,1.8,11.8,3.4,17.9,4.2c13.8,2,27.6,3.5,41.5,0.4c9.5-2.1,14-8,14.2-17.6C227.1,108.4,205.2,77.5,177.2,79.8z M58.6,146.6
		c14,0.3,27.8-1.6,41.1-6.1c7.9-2.7,14.6-7.3,16.2-15.9c2.3-12.1,0-23.5-8.8-32.6C95.6,80.1,81,77.9,65.5,80.5
		c-9,1.5-16.9,6-23.2,12.3c-7.5,7.6-12.4,16.8-15.7,27.2c-2.9,9.5,1.3,22.3,13.2,25.3C46.1,146.9,52.4,146.5,58.6,146.6z M80.4,72.3
		c4,1.1,7.5-0.6,11.1-2.1c2.2-0.9,3.7-2.6,3.6-4.8c-0.1-2.4-2.3-3.6-4.4-4.1c-4.9-1.2-9.8-0.9-14.6,0.9c-2.8,1-6,2.4-5.3,6.1
		c0.7,4,4.3,4.2,7.6,4.4C79,72.7,79.6,72.4,80.4,72.3z M172.4,73.8c1.9,0.1,4-0.1,6.1-0.7c2.1-0.7,4.3-1.4,4.6-3.9
		c0.4-2.7-1.6-4.3-3.8-5.2c-5.1-2.3-10.5-2.9-15.9-1.4c-2.1,0.6-4.2,1.5-4.4,4c-0.2,2.5,1.7,3.8,3.7,4.8
		C165.6,73.1,168.8,73.9,172.4,73.8z"/>
	<path class="st3" d="M229.9,107.6c-2.2-6.9-5-13.6-8.9-19.8c3,0,6,0.1,8.9-0.1c1.6-0.1,3.7-0.6,3.7-2.5c0-2.2-2-2.2-3.7-2.3
		c-2.5-0.2-5.1,0.5-8.4-0.7c2.4-2.2,4.3-3.8,6-5.6c2.1-2.2,5.8-4.3,4.9-7.5c-1.1-3.7-5.5-1.7-8.3-2.4c0.3-7.4-1.6-14.1-6.3-19.9
		c-6.8-8.3-15.7-9.8-25.6-7.4c-5.9,1.4-11.2,3.9-15.8,8.4c1.7,2.5,5,2.3,7.4,5.1c-3.7,0-6.8,0.1-10,0c-18.2-0.4-33.1,7-45.9,19.1
		c-3.2,3-4.6,3.8-8.2,0.3c-11-10.7-24.1-18-39.6-20c-1.6-0.2-3.3,0-5-0.1c-1.3,0-2.8,1.6-4.1-0.5c-0.3-0.8,0.7-0.8,1.1-1.1
		c1.5-1.2,4.7-0.5,4.7-2.7c0-2.1-2.8-2.9-4.6-3.9c-6.3-3.8-13-6.6-20.6-5.4c-15,2.4-24.2,15.2-21.8,30.2c0.4,2.4,0.6,5.1,1.7,7.2
		c3,5.8,1.3,10.4-1.9,15.5c-3,4.7-4.7,10.1-7,15.2c-7-9.7-12.4-20.2-15.1-32C3,57.8,7.4,42.8,19,30.3c21-22.7,54.2-19.9,73.9,2
		c5.1,5.6,9.1,8.6,17.2,7c13.7-2.8,27.7-1.8,41.5,1.1c2.9,0.6,3.8-1.1,5.1-2.8c8.2-10.8,18.7-18.5,32-21.5
		c20.1-4.5,36.6,1.7,49.4,17.8c-0.6,3.8-0.1,6.9,4.7,7.2c0.9,2.2,1.7,4.4,2.6,6.7c-0.6,2.9-3.1,4.6-4.7,6.9c-1.4,2-3.5,4-2.1,6.6
		c1.2,2.4,3.8,1.3,5.9,1.5c1,0.1,2,0.1,3,0.1c-0.4,4.3-0.8,8.6-1.3,12.9c-0.7,1.5-1.7,2.9-2.1,4.4C241.2,90.3,235.6,99,229.9,107.6z
		"/>
	<path class="st1" d="M14.7,146.4c1.7,0.3,1.9,1.5,2,2.9c0.5,13.1,7.2,23.4,15.5,32.9c14,16.1,32.1,26.1,51.9,32.7
		c19.7,6.6,40.1,7.5,60.7,5.3c24.7-2.7,46.9-11.3,66.3-26.6c15.9-12.6,27-28.1,26.9-49.5c0-1,0.1-2,0.9-2.7
		c2.4,7.2,1.2,14.4-0.8,21.3c-3.5,12.1-10.9,21.7-19.7,30.8c-8.3,8.6-18.2,14.1-28.8,18.8c-14.3,6.4-29.1,10.9-44.8,13
		c-13.4,1.8-26.7,1.6-39.8-0.5c-8.7-1.4-17.4-3.7-26-6.8c-12.6-4.5-23.7-11.2-34.4-18.8c-11.3-8.1-20.6-18.4-26.3-31
		C15.6,161.5,14.1,154,14.7,146.4z"/>
	<path class="st1" d="M229.9,107.6c5.7-8.6,11.3-17.3,14-27.4c0.4-1.6,1.4-3,2.1-4.4c1.4,0.2,2.1,1.2,1.7,2.5
		c-2.3,7.4-3.4,15.5-8.5,21.7c-5.9,7-4.5,14.8-3.8,22.7c0.5,5.8,3.2,11.1,3.4,16.9c-3-2.4-4.2-6.1-4.6-9.3
		C233.4,122.5,231.9,115,229.9,107.6z"/>
	<path class="st1" d="M7.5,74.7c2.8,11.7,8.2,22.2,15.1,32c-1.4,9.1-2.7,18.2-4.1,27.3c-0.3,1.6-0.8,3.3-2.9,3.6
		c1.6-6.6,1.9-13.3,3-20c1.7-10.1-4.7-17.5-8.4-25.8c-2-4.4-3.3-8.9-4.5-13.6C5.4,76.8,5.4,75.1,7.5,74.7z"/>
	<path class="st1" d="M15.6,139.4c1.3,2,2.1,3.9-1,5.1C14.8,142.8,14,140.9,15.6,139.4z"/>
	<path class="st0" d="M245.2,47.8c-0.9-2.2-1.7-4.4-2.6-6.7c3-2.2,6.3-0.6,10.4-1.3C250.7,43.8,248.7,46.5,245.2,47.8z"/>
	<path class="st3" d="M147.4,142.3c7.8,2.4,15.5,4.8,22.2,9.7c12.2,8.9,14.6,22,5.4,34.2c-9.9,13.1-23.4,20.6-39.5,22.8
		c-21.2,2.8-39.7-3.3-54.3-19.4c-12.8-14.1-10.8-28.9,5.2-39.3c5.8-3.7,12.3-5.7,18.7-7.9c0,1.9,0.6,3.6,1.8,5
		c9.5,10.8,30.7,10,39.2-1.4C147.1,144.8,147.3,143.6,147.4,142.3z M158.1,176.2c-7.1,2.3-14.3,3.2-21.4,0.7
		c-6.8-2.4-13.5-2.3-20.3-0.1c-4.6,1.4-9.4,2-14.3,1.5c-2.7-0.3-5-2.5-8.5-1.6c6.1,4,11.9,6.3,19,5c8-1.5,16-3.3,24.4-0.5
		c7.6,2.5,15.1,1.1,21.2-4.7c0.4-0.2,0.9-0.3,1.3-0.5c-0.1-0.1-0.3-0.4-0.3-0.3C158.8,175.7,158.5,176,158.1,176.2z"/>
	<path class="st3" d="M177.2,79.8c27.9-2.3,49.9,28.6,49.6,48c-0.1,9.6-4.7,15.5-14.2,17.6c-13.9,3.1-27.7,1.6-41.5-0.4
		c-6.1-0.9-12-2.4-17.9-4.2c-14.9-4.6-19-17.3-16.6-29.8C140.5,90.8,155.2,79.7,177.2,79.8z M179.5,135.6
		c10.8,0.2,19.7-3.7,26.7-11.9c1.5-1.7,3.3-3.9,1.1-6.1c-2.2-2.2-4.2-0.5-6,1.1c-8.5,7.8-18.7,9.1-29.6,7.3
		c-6.3-1.1-11.4-4.2-16-8.4c-1.3-1.2-2.8-2.8-4.7-1c-1.7,1.6-0.8,3.3,0.1,5c0.3,0.6,0.7,1.1,1.1,1.7
		C159.1,132.2,168.6,135.3,179.5,135.6z"/>
	<path class="st3" d="M58.6,146.6c-6.3-0.2-12.6,0.3-18.8-1.3c-12-3-16.2-15.9-13.2-25.3c3.2-10.4,8.2-19.6,15.7-27.2
		c6.3-6.4,14.2-10.9,23.2-12.3C81,77.9,95.6,80.1,107.1,92c8.8,9.1,11.2,20.5,8.8,32.6c-1.7,8.6-8.3,13.2-16.2,15.9
		C86.4,145.1,72.7,146.9,58.6,146.6z M75.6,135.6c6.2,0.2,13-2.1,19.3-6c3.5-2.2,6.2-5,8.1-8.6c0.8-1.5,0.9-3.3-0.6-4.6
		c-1.7-1.5-3-0.2-4.3,0.9c-2.5,1.9-4.8,4.3-7.5,5.6c-13.7,6.5-26.6,5.4-38.4-4.4c-1.8-1.5-3.6-3-5.6-1c-2.1,2-0.5,3.9,0.9,5.6
		C54.2,131.7,63.3,135.6,75.6,135.6z"/>
	<path class="st4" d="M147.4,142.3c-0.2,1.3-0.3,2.5-1.2,3.7c-8.6,11.4-29.8,12.2-39.2,1.4c-1.2-1.4-1.9-3.1-1.8-5
		c1.6-2.5,4.2-3.1,6.8-3.6c10-1.8,20-1.3,30,0.5C144.1,139.7,146,140.5,147.4,142.3z"/>
	<path class="st1" d="M224.1,66.7c2.9,0.7,7.2-1.3,8.3,2.4c1,3.2-2.7,5.3-4.9,7.5c-1.7,1.8-3.6,3.4-6,5.6c3.3,1.2,5.9,0.6,8.4,0.7
		c1.7,0.1,3.7,0.1,3.7,2.3c0,2-2,2.5-3.7,2.5c-3,0.2-6,0.1-8.9,0.1c-2-0.3-4.6,0.8-5.7-1.7c-1.2-2.7,1.1-4.1,2.7-5.8
		c1-1.1,2.1-2.1,2.9-3.3c3.4-5.4,3.4-5.4-3-6.1c-1.1-0.1-2.6,0.1-2.7-1.5c-0.1-1.6,1-2.3,2.5-2.4C219.9,66.8,222,66.8,224.1,66.7z"
		/>
	<path class="st4" d="M80.4,72.3c-0.8,0.1-1.4,0.3-2.1,0.3c-3.3-0.2-6.9-0.4-7.6-4.4c-0.7-3.7,2.5-5,5.3-6.1
		c4.7-1.8,9.7-2.1,14.6-0.9c2.1,0.5,4.3,1.7,4.4,4.1c0.1,2.2-1.4,3.9-3.6,4.8C87.9,71.7,84.4,73.4,80.4,72.3z"/>
	<path class="st4" d="M172.4,73.8c-3.6,0.1-6.8-0.8-9.7-2.3c-1.9-1-3.8-2.3-3.7-4.8c0.2-2.6,2.3-3.4,4.4-4
		c5.5-1.5,10.8-0.9,15.9,1.4c2.1,0.9,4.2,2.5,3.8,5.2c-0.4,2.5-2.5,3.2-4.6,3.9C176.4,73.8,174.3,73.9,172.4,73.8z"/>
	<path class="st4" d="M158.2,176.4c-6.1,5.8-13.6,7.2-21.2,4.7c-8.4-2.8-16.4-1-24.4,0.5c-7.2,1.3-12.9-1-19-5
		c3.5-0.8,5.8,1.4,8.5,1.6c4.9,0.5,9.7-0.1,14.3-1.5c6.9-2.1,13.5-2.3,20.3,0.1c7.1,2.5,14.3,1.6,21.4-0.7L158.2,176.4z"/>
	<path class="st4" d="M158.1,176.2c0.4-0.2,0.8-0.5,1.2-0.7c0,0,0.2,0.2,0.3,0.3c-0.4,0.2-0.9,0.3-1.3,0.5
		C158.2,176.4,158.1,176.2,158.1,176.2z"/>
	<path class="st4" d="M179.5,135.6c-10.9-0.2-20.4-3.4-27.3-12.4c-0.4-0.5-0.8-1.1-1.1-1.7c-0.9-1.6-1.8-3.4-0.1-5
		c1.9-1.8,3.3-0.1,4.7,1c4.6,4.2,9.7,7.3,16,8.4c11,1.9,21.1,0.6,29.6-7.3c1.8-1.7,3.8-3.4,6-1.1c2.2,2.2,0.4,4.4-1.1,6.1
		C199.2,131.9,190.3,135.8,179.5,135.6z"/>
	<path class="st4" d="M75.6,135.6c-12.3,0-21.3-3.9-28.2-12.5c-1.4-1.7-3-3.6-0.9-5.6c2.1-1.9,3.9-0.5,5.6,1
		c11.8,9.8,24.8,10.9,38.4,4.4c2.8-1.3,5.1-3.7,7.5-5.6c1.3-1,2.6-2.4,4.3-0.9c1.5,1.3,1.4,3.1,0.6,4.6c-1.9,3.6-4.6,6.4-8.1,8.6
		C88.5,133.5,81.7,135.8,75.6,135.6z"/>
</g>
</svg>
