<?xml version="1.0" encoding="utf-8"?>
<!-- Generator: Adobe Illustrator 26.0.3, SVG Export Plug-In . SVG Version: 6.00 Build 0)  -->
<svg version="1.1" id="Capa_1" xmlns="http://www.w3.org/2000/svg" xmlns:xlink="http://www.w3.org/1999/xlink" x="0px" y="0px"
	 viewBox="0 0 295.7 232.3" style="enable-background:new 0 0 295.7 232.3;" xml:space="preserve">
<style type="text/css">
	.st0{fill:#EFD080;}
	.st1{fill:#F1D7B1;}
	.st2{fill:#ECE7E2;}
	.st3{fill:#D9D4CF;}
	.st4{fill:#97775C;}
	.st5{fill:#CAC8C4;}
	.st6{fill:#ECC8C8;}
	.st7{fill:#99775D;}
	.st8{fill:#5C3B1F;}
	.st9{fill:#54361D;}
	.st10{fill:#D98A75;}
	.st11{fill:#F9EDE1;}
	.st12{fill:#462F1E;}
	.st13{fill:#661D18;}
</style>
<g>
	<path class="st0" d="M271.3,125.1c-2.3-1.8-2.2-4.8-2.8-7.2c-1.9-7.3-6.2-12.2-13.4-14.6c-0.8-0.3-1.6-0.4-2-1.6
		c5.5-2,11.3-3.7,13.6-10.1c0.8-2.2,1.6-4.3,2.5-6.4c1.1-0.4,2.2-0.5,3.2,0.1c1.4,8.9,6.4,13.8,16.8,16.2c-0.3,0.5-0.6,1.1-0.9,1.6
		c-6.1,0.8-10.9,3.6-13.4,9.3C273.1,116.5,271.8,120.7,271.3,125.1L271.3,125.1z"/>
	<path class="st0" d="M12.5,192.9c6.6-0.4,8.3-6.1,11-11.2c2.9,5.4,5.3,10.4,11.7,11.9c-6.3,3.5-10,8.2-10.1,15.1
		c-1.1,1.8-1.1,1.8-2.8-1.1c-0.9-6.2-3.4-11.2-10.1-12.8C12.3,194.2,12.4,193.6,12.5,192.9z"/>
	<path class="st0" d="M16.2,110.5c-5.3,1-6.6,5.7-8.7,10.9c-1.1-5.5-2.9-9.5-7.6-11.2c0.2-0.6,0.2-0.9,0.4-1.1
		C6.1,100.9,11.3,103.6,16.2,110.5z"/>
	<path class="st1" d="M289,151.4c-0.6-3.6-2-5.8-4.5-7.3c-1.6-1-1.4-2.1,0.1-3c2.4-1.5,3.4-3.9,4.3-6.9c2.6,2.4,3,6.2,6.2,7.5
		c0.9,0.4,0.7,1.6-0.2,1.9C291.9,144.9,291.7,148.3,289,151.4z"/>
	<path class="st0" d="M257.4,203.8c-0.8-2.1-2.4-3.6-4.1-4.9c0-0.7,0-1.4,0-2.1c2.1-1.1,3.1-3,4.1-4.9c1-0.7,1.9-0.5,2.9,0
		c0.9,1.7,1.6,3.7,3.9,4.2c0,1.2,0,2.4,0,3.6c-2.1,0.5-2.8,2.2-3.3,4C259.8,203.7,258.6,203.7,257.4,203.8z"/>
	<path class="st1" d="M271.4,78.3c0.3,2.3,0.7,4.6,1,6.9c-1.1-0.6-2.1-0.5-3.2-0.1c0.1-1.6,0.1-3.2,0.2-4.8
		C270.1,79.7,269.6,77.8,271.4,78.3z"/>
	<path class="st1" d="M257.4,203.8c1.2-0.1,2.3-0.1,3.5-0.2c0,0.2,0.1,0.3,0.1,0.5c-0.2,1.6-0.2,4.1-1.8,4
		C256.9,208.1,257.6,205.5,257.4,203.8z"/>
	<path class="st1" d="M260.4,191.9c-1-0.5-1.9-0.6-2.9,0c0-1.5-0.6-4.1,1.1-4.1C261.1,187.6,260.1,190.3,260.4,191.9z"/>
	<path class="st1" d="M264.3,199.6c0-1.2,0-2.4,0-3.6c1.3-0.1,2.5,0.3,2.7,1.5C267.1,199.3,265.8,199.7,264.3,199.6z"/>
	<path class="st1" d="M253.4,196.8c0,0.7,0,1.4,0,2.1c-0.9-0.2-2.3,0.2-2.3-1.1C251.1,196.5,252.5,196.9,253.4,196.8z"/>
	<path class="st2" d="M21.3,31.6c-1.1-4.8,2.9-7.5,4.9-10.8c3.2-5.2,8.7-8.3,13.4-12c4.6-3.6,10-5.8,15.6-7
		c14.4-3,27.7,1.5,39.8,8.2c7.8,4.3,14.3,11.2,19.8,18.5c3,4,6.4,6.3,11.7,6c8.3-0.3,16.6-0.2,24.9,0c2.8,0,4.9-0.5,6.8-2.9
		c3.8-4.6,7.7-9.5,12.2-12.9C179.3,12.1,188,5,199.6,2.4c13.4-2.9,25.3,1.1,37.2,5.2c5.9,2,8.9,8.5,13.4,12.8
		c7,6.7,7.6,15.7,9.2,24.4c2.1,11.6-1.6,22.5-3.1,33.7c-0.3,2.2-1.6,3.5-3.9,3.8c0.1-0.8,0.1-1.7,0.3-2.4
		c2.7-10.3,4.1-20.8,3.7-31.5c-0.1-2,0.2-4.1-2.9-4c-0.4-1.9-0.7-3.9-1.2-5.8C246.6,14,224.1,0.4,199.5,6.4
		c-10.9,2.7-19.2,9.4-27.2,16.5c-4.6,0.9-12.5,10.3-13.5,15.9c-13.3-1.5-26.5-1.8-39.8-0.3c-2.4-4.7-6.2-8.4-9.8-12.1
		c-2.3-2.4-4-5.9-8.1-5.9c-1.3-1.1-2.5-2.2-3.8-3.2C85.6,7.7,72.5,2.8,57.2,5.6c-15,2.7-25.1,11.7-31.9,25
		C24,30.9,22.6,31.2,21.3,31.6z"/>
	<path class="st3" d="M21.3,31.6c1.3-0.3,2.7-0.6,4-1c-8,24.1-1.1,45.3,12.9,65.1c-2.8,7.3-6.1,14.4-7.5,22.3
		c-0.6,3.3-0.2,6.5-1.1,9.8c-1.8,6.9-3.8,13.8-2.4,21.1c0.8,4,1.3,8.1,2,12.1c0.4,4.8,1.7,9.1,6,12l0,0c0.5,6.2,4.5,10.4,8.7,14.4
		c5.8,5.6,11.5,11.1,18.1,15.8c6.6,4.8,14.1,7.7,21.2,11.3c4.9,2.5,10.1,5.2,15.5,6c12.3,1.8,24.3,5,37,4.8
		c13.1-0.1,25.9-1.2,38.6-4.2c5.1-1.2,9.9-4.1,15.4-3.4c-0.5,1.2-1.4,1.6-2.6,2c-11.4,4.1-23.1,6.4-35.2,7.9
		c-15.5,1.9-30.2-0.3-45.1-2.7c-10-1.7-19.2-5.6-28.2-9.7c-8.8-4-17.2-8.7-24.7-15c-8.1-6.9-14.8-14.6-21.1-23.2
		c-7.3-9.9-9.9-20.7-9-31.9c1-13.2,4.3-26.3,6.7-39.4c1.2-6.7,0.1-12.6-5.1-17.3c-0.3-1-0.7-2-1-3c-6.2-16.6-7.5-33.5-3.9-50.8
		C20.6,33.6,20.9,32.6,21.3,31.6z"/>
	<path class="st2" d="M25.2,88.3c5.2,4.7,6.3,10.6,5.1,17.3c-2.4,13.1-5.7,26.1-6.7,39.4c-0.8,11.2,1.7,22,9,31.9
		c6.3,8.6,13,16.4,21.1,23.2c7.5,6.4,15.9,11,24.7,15c9,4.1,18.2,8.1,28.2,9.7c15,2.5,29.7,4.7,45.1,2.7c12.1-1.5,23.8-3.8,35.2-7.9
		c1.2-0.4,2.1-0.9,2.6-2c0.3,0,0.7,0,1,0c1.9,0.3,3.8-0.4,5.2-1.2c9.8-6.1,20.6-10.3,29.5-18.2c11.8-10.4,20.9-22,25.1-37.2
		c0.5-1.8,0.7-3.6,3-4c-0.4,8.4-3.5,15.9-7.9,22.9c-6.1,9.6-13.8,17.8-23.1,24.3c-7.2,5.1-15.4,8.7-23.1,13.2
		c-10.9,6.5-23.1,8.8-35.3,11.6c-9.5,2.2-19,2.5-28.4,2.4c-10.1-0.1-20.2-1.3-30.2-4c-6.9-1.9-13.9-3.3-20.7-5.6
		c-0.6-0.2-1.4,0-1.9-0.3c-12.8-7.3-26.4-13.2-37.1-24.1c-6.7-6.8-12.7-13.9-17.4-21.9c-6.8-11.5-9.6-24-6.3-37.5
		c1.6-6.8,2.3-13.9,3.2-20.9c0.4-3.1,1.8-5.9,2.3-9.1c1-5.8,0.4-11-2.5-16.1C24.4,90.6,23.8,89.4,25.2,88.3z"/>
	<path class="st3" d="M253.4,157c-2.3,0.4-2.5,2.3-3,4c-4.2,15.2-13.3,26.9-25.1,37.2c-8.9,7.9-19.7,12.1-29.5,18.2
		c-1.4,0.9-3.3,1.5-5.2,1.2c0.1-1,0.4-2,1.4-2.5c5.7-2.5,11-5.9,16.5-8.7c18.1-9.2,30.9-23.1,38.4-41.8c2.2-5.6,4.2-11.5,1.5-17.6
		c0.9-6.7-3.3-12.4-3.8-18.7c-0.9-11.5-4.1-22.2-8.2-32.8c1.6-1,2.5-2.6,3.5-4c9.8-14.2,13.9-30,13.6-47c3-0.2,2.8,1.9,2.9,4
		c0.3,10.7-1,21.1-3.7,31.5c-0.2,0.8-0.2,1.6-0.3,2.4c0,0,0,0,0,0c-4.1,5.4-8.1,10.7-8,17.9c0,0.7,0,1.3,0,2c0,1.9-0.3,4,1.9,5
		c0,1,0,2,0,2.9c-0.4,4-2,8.4,3,11c0,1.6,0,3.3,0,4.9c-1.3,1-1.2,2,0.1,3c0,0.7,0,1.3,0,2c0.3,1.6,0.6,3.2,1,4.8
		c1.7,6.3,0.9,12.9,2.9,19.1C253.4,155.7,253.4,156.3,253.4,157z"/>
	<path class="st2" d="M20.3,34.6c-3.5,17.3-2.2,34.2,3.9,50.8c-1.7,0.1-2.6-0.5-3.2-2.3c-4.7-14.7-7.7-29.4-3.7-44.8
		C17.7,36.5,18.7,35.4,20.3,34.6z"/>
	<path class="st2" d="M253.4,155c-2-6.2-1.3-12.9-2.9-19.1c-0.4-1.6-0.7-3.2-1-4.8c0.8,0.1,1.8,0.4,2,1.2
		C253.1,139.8,255.6,147.2,253.4,155z"/>
	<path class="st2" d="M244.5,100.3c-0.1-7.2,3.9-12.6,8-17.9C250.9,88.8,248.2,94.8,244.5,100.3z"/>
	<path class="st2" d="M249.4,121.2c-4.9-2.6-3.4-7-3-11C248.6,113.6,248.2,117.6,249.4,121.2z"/>
	<path class="st2" d="M246.4,107.3c-2.2-1.1-2-3.1-1.9-5C247.7,102.9,246,105.5,246.4,107.3z"/>
	<path class="st2" d="M249.5,129.1c-1.3-1-1.3-2-0.1-3C250.7,127.1,250.7,128.1,249.5,129.1z"/>
	<path class="st4" d="M253.6,44.5c0.3,17.1-3.8,32.9-13.6,47c-1,1.5-1.9,3.1-3.5,4c-3.9-6.6-7.9-13.3-11.8-19.9
		c5.1-8.6,7.5-17.9,6.8-27.9c-0.8-11.5-10.3-20.4-21.6-20.3c-12,0.1-19.5,7.7-26.3,16.3c-1.4,1.8-0.4,2.5,1.2,3.2
		c2.8,1.3,6.1,1.6,8.1,4.4c-0.5,0.8-1.2,1.1-2.1,1c-21.1-2.6-38.1,5.9-52.8,19.9c-2.7,2.6-3.7,2.9-6.4,0.2
		c-9.4-9.4-20.3-16.6-33.5-19.4c-5.5-1.2-11.3-1.2-17-1.7c2.2-2.1,5.1-2.9,7.8-3.9c3.4-1.3,4-2.9,1.6-5.7
		c-4.2-4.9-8.9-9.3-14.9-12.1c-14-6.5-28.9,1.2-31.7,16.4c-1.8,10.2,1.4,19.5,6.1,28.4c0.3,1.4-0.2,2.6-1.1,3.6
		c-4.4,5.4-7.6,11.5-10.8,17.6c-14-19.8-20.9-41-12.9-65.1C32,17.3,42.2,8.3,57.2,5.6c15.3-2.8,28.4,2.1,40.1,11.8
		c1.3,1.1,2.5,2.1,3.8,3.2c4.4,5.1,8.8,10.1,11.9,16.1c1.5,2.9,3.4,3.2,5.9,1.8c13.3-1.5,26.6-1.2,39.8,0.3c1.3,1.1,2,0.1,2.7-0.9
		c3.6-5,7.2-10,10.8-15c8-7.2,16.3-13.9,27.2-16.5c24.7-6,47.2,7.6,52.9,32.2C252.8,40.6,253.2,42.5,253.6,44.5z"/>
	<path class="st3" d="M118.9,38.5c-2.6,1.4-4.4,1.1-5.9-1.8c-3.1-6-7.5-11-11.9-16.1c4.1,0,5.8,3.5,8.1,5.9
		C112.7,30.1,116.5,33.8,118.9,38.5z"/>
	<path class="st3" d="M172.2,22.9c-3.6,5-7.2,10-10.8,15c-0.7,1-1.4,1.9-2.7,0.9C159.7,33.2,167.7,23.8,172.2,22.9z"/>
	<path class="st1" d="M81.2,51.4c5.7,0.5,11.4,0.5,17,1.7c13.2,2.8,24.1,10,33.5,19.4c2.7,2.7,3.6,2.4,6.4-0.2
		c14.7-13.9,31.7-22.5,52.8-19.9c0.9,0.1,1.6-0.1,2.1-1c1.6-0.1,2.9,0.5,4.2,1.2c10.7,5.9,19.8,13.7,27.6,23
		c3.9,6.6,7.9,13.3,11.8,19.9c4.2,10.6,7.4,21.3,8.2,32.8c0.5,6.3,4.7,12,3.8,18.7c-0.7,19.2-11.1,33.5-25,45
		c-24.3,20.1-53.3,28.3-84.4,29.7c-9.3,0.4-18.4-1.1-27.5-2.9c-25.4-5-47.9-15.6-66.4-34.2c-3.6-3.7-5.7-8.5-10-11.6c0,0,0,0,0,0
		c-1.3-4.3-3.4-8.3-6-12c-0.7-4-1.2-8.1-2-12.1c-1.4-7.3,0.6-14.2,2.4-21.1c0.9-3.3,0.5-6.5,1.1-9.8c1.4-7.9,4.7-14.9,7.5-22.3
		c3.3-6.1,6.4-12.2,10.8-17.6c0.9-1.1,1.4-2.2,1.1-3.6c4.3-3.8,8.4-7.7,12.9-11.3C68.6,58.6,73.4,52.8,81.2,51.4z M88,57.7
		c-0.7,0.2-1.4,0.4-2.1,0.6c-0.6,0.1-1.3,0.3-1.9,0.4c-3.9,0.8-7.1,2.7-9.5,5.9c-1,1.3-1.7,3-0.6,4.6c0.9,1.3,2.2,1.6,3.8,1.6
		c5,0,9.7-1.3,14.2-3.4c3.5-0.8,7.4-2,6.9-6.3c-0.6-4.6-5.1-3.7-8.4-3.9C89.6,57.3,88.8,57.5,88,57.7z M64,84.3
		c-6.2,3-11.2,7.3-15.1,12.9c-6.6,7.6-10.4,16.5-11.6,26.3c-1.5,12.5,3.7,19.7,15.8,22.2c2.2,0.5,4.6,0.3,6.9,0.5
		c19.5,1.8,38.3-0.6,56.2-8.8c2.9-1.3,5.2-3.4,6.7-6.2c7.2-9.8,5.1-19.8,0.8-29.9c-6-16.9-28.4-27.5-46.8-22.1
		C72.2,79.7,67.9,81.5,64,84.3z M209.6,83.5c-6.4-3.8-13.4-5.5-20.9-5.2c-12.9-0.4-23.8,3.9-32.2,13.9c-3.2,3.4-5.6,7.3-7,11.8
		c-5.3,16.3-2.3,32.2,18.1,37.3c2.1,0.5,4.1,1.1,6.2,1.6c6.8,2.1,13.8,3,20.8,3.2c9.9,1.6,19.8,1.7,29.4-1
		c10.2-2.9,13.7-7.9,13.4-18.5c-0.3-11.7-5.3-21.5-12.7-30.3C220.4,91,215.8,86.3,209.6,83.5z M115.6,142.9
		c-8.5,1.5-16.2,4.8-22.8,10.2c-8.7,6.9-11.8,16.3-7.1,26c7.9,16.4,20.7,28,38.2,33.9c11.3,4.6,22.3,3.2,32.9-2.2
		c14.7-6.6,26.1-16.7,32.8-31.5c4.5-9.9,1.4-19.4-7.2-26.3c-7-5.7-15.2-8.4-23.6-10.9c-1.6-1.4-3.3-2.6-5.5-3.1
		c-9.9-2-19.8-2.3-29.7-0.6C120.6,138.9,116.8,138.9,115.6,142.9z M182.4,57.3c-2.4-0.3-6.5,0.6-7.2,3.8c-0.7,3.3,3,5.1,6.2,6.4
		c4.5,1.7,9.1,3,13.9,3.5c2.1,0.2,4.6,0.5,5.6-2c1-2.3-0.5-4.2-2-5.7C194.7,59.1,189.4,57.6,182.4,57.3z M207.6,153.5
		c-0.2-1.1-1.2-2-2.6-0.9c-2.8,2.2-5.5,4.6-7.4,7.7c-1,1.7,0.1,2.4,1.6,2.6C201.4,163,207.7,156.3,207.6,153.5z M58.7,163.9
		c1.9-0.1,8.6-7.5,8.3-9.4c-0.3-2-1.8-1.9-2.9-0.9c-2.5,2.2-4.7,4.6-7,7c-0.6,0.6-0.9,1.4-0.4,2.2C57.1,163.6,57.8,164,58.7,163.9z
		 M48.5,162.9c1.9-0.1,8.4-6.5,8.4-8.5c0-0.6-0.3-1.3-0.7-1.7c-0.7-0.6-1.5-0.6-2.2,0.1c-2.5,2.4-5.2,4.5-7,7.6
		C46.1,162,46.6,162.9,48.5,162.9z M217.5,154.6c-0.1-1.8-2-2.1-3-1.1c-2.4,2.2-4.4,4.8-6.3,7.4c-1.1,1.6-0.2,2.9,1.8,2.9
		C211.5,163.7,217.4,156.6,217.5,154.6z M77,155.5c-0.1-1.5-1.4-2-2.7-0.9c-2.4,2-4.7,4.2-6.7,6.6c-1,1.1-0.8,2.6,1.2,2.7
		C71.1,164,77.2,158,77,155.5z M228.3,155.9c0.1-0.7-0.2-1.4-0.8-1.5c-0.8-0.1-2-0.2-2.3,0.2c-1.8,2.4-4.2,4.1-6.5,6
		c-0.6,0.5-1.1,1.3-0.6,2.2c0.4,0.8,1.1,1.2,2,1.2C221.4,164,228.2,157.3,228.3,155.9z"/>
	<path class="st5" d="M35.2,172.9c4.3,3,6.3,7.9,10,11.6c18.4,18.6,40.9,29.2,66.4,34.2c9.1,1.8,18.2,3.3,27.5,2.9
		c31.2-1.3,60.1-9.5,84.4-29.7c13.9-11.5,24.3-25.8,25-45c2.7,6.1,0.7,12.1-1.5,17.6c-7.5,18.7-20.4,32.6-38.4,41.8
		c-5.5,2.8-10.8,6.2-16.5,8.7c-1,0.4-1.3,1.5-1.4,2.5c-0.3,0-0.7,0-1,0c-5.5-0.7-10.3,2.2-15.4,3.4c-12.7,3-25.4,4.1-38.6,4.2
		c-12.7,0.1-24.7-3.1-37-4.8c-5.4-0.8-10.6-3.4-15.5-6c-7.1-3.6-14.5-6.5-21.2-11.3c-6.6-4.8-12.3-10.3-18.1-15.8
		C39.7,183.3,35.7,179.2,35.2,172.9z"/>
	<path class="st5" d="M29.2,160.9c2.6,3.7,4.7,7.7,6,12C31,170,29.7,165.7,29.2,160.9z"/>
	<path class="st6" d="M224.7,75.7c-7.9-9.3-17-17.1-27.6-23c-1.3-0.7-2.6-1.4-4.2-1.2c-2-2.8-5.3-3.2-8.1-4.4
		c-1.6-0.7-2.6-1.5-1.2-3.2c6.8-8.6,14.3-16.2,26.3-16.3c11.3-0.1,20.8,8.8,21.6,20.3C232.2,57.8,229.8,67.1,224.7,75.7z"/>
	<path class="st6" d="M81.2,51.4c-7.7,1.4-12.6,7.2-18.2,11.7c-4.4,3.6-8.6,7.5-12.9,11.3c-4.7-8.9-7.9-18.1-6.1-28.4
		c2.7-15.3,17.6-22.9,31.7-16.4c6,2.8,10.7,7.1,14.9,12.1c2.4,2.8,1.8,4.4-1.6,5.7C86.3,48.6,83.4,49.3,81.2,51.4z"/>
	<path class="st7" d="M123.8,212.9c-17.5-5.9-30.3-17.4-38.2-33.9c-4.7-9.7-1.6-19.1,7.1-26c6.7-5.3,14.4-8.7,22.8-10.2
		c2.8,5.8,8.3,8.3,13.7,10.8c8.5,3.9,23.9-0.9,28.8-8.8c0.5-0.8,0.4-1.9,0.7-2.8c8.4,2.5,16.6,5.2,23.6,10.9
		c8.5,7,11.6,16.4,7.2,26.3c-6.7,14.8-18.1,24.9-32.8,31.5c-0.7-0.9-1.7-1.3-2.6-0.9c-4.2,2-7.6,0.4-10.8-2.4
		c14.9-8,14.8-32.4,4.2-41.4c-5.8-4.9-12.3-5.6-18.6-1.2c-12.1,8.4-13.8,33.6,2.9,42.1c-0.5,2.1-2.3,3-4,2.5
		C124.2,208.4,123.9,210.3,123.8,212.9z"/>
	<path class="st7" d="M224.7,96.2c7.4,8.8,12.4,18.6,12.7,30.3c0.3,10.6-3.1,15.6-13.4,18.5c-9.6,2.7-19.5,2.6-29.4,1
		c3-2.1,6.4-0.9,9.6-1c6.8-0.2,6.8-0.1,6.2-6.6c0.7-0.2,1.4-0.4,2.1-0.5c3,1.3,4.9,0.7,5-3c2.4,0.2,3.8-1,4.2-3.3
		c1.5-9.3,1.8-18.4-3.9-26.6c-0.4-1.3-0.9-2.5-1.3-3.8C219.2,99.6,220.8,96.1,224.7,96.2z"/>
	<path class="st7" d="M60,146.2c-2.3-0.1-4.7,0-6.9-0.5c-12.1-2.5-17.3-9.7-15.8-22.2c1.2-9.9,5-18.8,11.6-26.3
		c3.9-0.2,6.6,2,9.3,4.3c-0.5,1.6-1,3.1-1.5,4.7c-4.4,7.6-5.1,15.8-4,24.3c0.4,3.3,2.2,4.5,5.2,4.7c1.7,1.1,3.5,2.1,5.2,3.2
		C66.2,143.5,66.2,143.5,60,146.2z"/>
	<path class="st8" d="M158.8,142.1c-0.2,1-0.2,2.1-0.7,2.8c-4.9,7.9-20.3,12.7-28.8,8.8c-5.4-2.5-10.9-5-13.7-10.8
		c1.2-3.9,5-4,7.9-4.5c9.9-1.7,19.8-1.4,29.7,0.6C155.4,139.4,157.2,140.6,158.8,142.1z"/>
	<path class="st7" d="M173.8,142.9c-2.1-0.5-4.1-1.1-6.2-1.6c-20.4-5.1-23.4-20.9-18.1-37.3c1.4-4.4,3.8-8.3,7-11.8
		c2.8,0.4,5.7,0.8,8.5,1.2c-0.7,0.8-1.4,1.6-1.3,2.7c-8.6,10.8-9.3,23.1-6.9,36c0.3,1.5,0.6,3.5,3.1,2.2c0.7-0.1,1.3-0.2,2-0.3
		c2.3,0.8,4.7,1.6,7,2.4c0.6,2.1,2.4,2.3,4.2,2.6C176.1,139.8,175.8,141.2,173.8,142.9z"/>
	<path class="st4" d="M77,79.2c18.4-5.4,40.8,5.1,46.8,22.1c-3.1,0-5.2,1.8-6.9,4c-2.7-5.4-5.6-10.6-10.9-13.9
		C98,84.2,88.8,83.5,79,86.1C79.5,83.5,76.4,81.9,77,79.2z"/>
	<path class="st4" d="M60,146.2c6.1-2.7,6.1-2.7,3-7.9c10.9,2.2,21.9,2.8,32.8,0.5c6.1-0.7,11.8-2.5,17.3-5.2c4.5,5,4.3-0.6,5.8-2.5
		c1.3,0,2.7,0,4,0c-1.6,2.8-3.8,4.9-6.7,6.2C98.4,145.6,79.5,148,60,146.2z"/>
	<path class="st8" d="M182.4,57.3c7,0.3,12.3,1.9,16.6,6c1.5,1.5,3,3.4,2,5.7c-1.1,2.5-3.5,2.2-5.6,2c-4.8-0.5-9.4-1.8-13.9-3.5
		c-3.2-1.2-7-3.1-6.2-6.4C175.9,57.9,180,56.9,182.4,57.3z"/>
	<path class="st7" d="M123,131.2c-1.3,0-2.7,0-4,0c-0.2-8.6,0.9-17.4-2.1-25.8c1.8-2.3,3.8-4.1,6.9-4
		C128.1,111.4,130.2,121.4,123,131.2z"/>
	<path class="st4" d="M173.8,142.9c2.1-1.7,2.4-3.1-0.7-3.7c-1.7-0.4-3.6-0.5-4.2-2.6c2.4-0.5,4.5,3.3,7,0.5c1.9-1.4,2.9,0,3.9,1.2
		c0.5,1.1,1.6,0.9,2.6,1.1c9.4,1.5,18.8,1.2,28.1-0.7c0.6,6.5,0.6,6.4-6.2,6.6c-3.2,0.1-6.6-1.1-9.6,1
		C187.5,145.9,180.6,145,173.8,142.9z"/>
	<path class="st4" d="M165,93.4c-2.8-0.4-5.7-0.8-8.5-1.2c8.4-10,19.3-14.3,32.2-13.9c-2.9,1-4.8,2.7-4,6.1
		C177.2,85.5,170.8,88.7,165,93.4z"/>
	<path class="st4" d="M143.4,207.5c3.1,2.8,6.5,4.4,10.8,2.4c0.9-0.4,2-0.1,2.6,0.9c-10.7,5.4-21.6,6.8-32.9,2.2
		c0.1-2.6,0.4-4.5,4-3.4c1.7,0.5,3.5-0.4,4-2.5C135.6,208.4,139.5,208,143.4,207.5z"/>
	<path class="st7" d="M184.7,84.4c-0.8-3.4,1.1-5.1,4-6.1c7.5-0.4,14.5,1.3,20.9,5.2c0.7,3.2-3.7,4.5-3,7.7
		c-5.6-3.2-11.1-6.6-18-5.9C187.6,84,186,84.7,184.7,84.4z"/>
	<path class="st4" d="M58.2,101.5c-2.7-2.2-5.5-4.5-9.3-4.3c3.9-5.6,8.9-10,15.1-12.9c1.4,2.4,2.8,4.7,4.1,7.1
		C64.3,94.2,61.1,97.7,58.2,101.5z"/>
	<path class="st4" d="M206.6,91.2c-0.8-3.3,3.7-4.5,3-7.7c6.2,2.9,10.9,7.6,15.1,12.8c-3.9-0.2-5.5,3.3-8.2,5.2
		c-3-3.3-5.3-7.3-9.6-9.3C206.8,91.8,206.7,91.5,206.6,91.2z"/>
	<path class="st9" d="M92,67.4c-4.5,2.1-9.2,3.4-14.2,3.4c-1.6,0-3-0.3-3.8-1.6c-1.1-1.7-0.3-3.3,0.6-4.6c2.3-3.2,5.6-5.1,9.5-5.9
		C84.5,63.9,87.1,66.7,92,67.4z"/>
	<path class="st8" d="M92,67.4c-4.9-0.7-7.5-3.5-8-8.8c0.6-0.1,1.3-0.3,1.9-0.4c1.2,1.6,1.8,0.9,2.1-0.6c0.8-0.1,1.6-0.4,2.4-0.3
		c3.4,0.1,7.8-0.7,8.4,3.9C99.4,65.4,95.5,66.6,92,67.4z"/>
	<path class="st7" d="M68.1,91.3c-1.4-2.4-2.8-4.7-4.1-7.1c3.9-2.7,8.2-4.5,13-5.1c-0.6,2.7,2.5,4.3,2.1,6.9
		C75,87.1,71.7,89.4,68.1,91.3z"/>
	<path class="st10" d="M207.6,153.5c0.1,2.8-6.2,9.5-8.4,9.4c-1.5-0.1-2.6-0.8-1.6-2.6c1.9-3.1,4.6-5.5,7.4-7.7
		C206.4,151.5,207.4,152.4,207.6,153.5z"/>
	<path class="st10" d="M58.7,163.9c-0.9,0.1-1.6-0.3-2.1-1.1c-0.5-0.9-0.2-1.6,0.4-2.2c2.3-2.4,4.6-4.8,7-7c1.1-1,2.6-1.1,2.9,0.9
		C67.3,156.4,60.7,163.8,58.7,163.9z"/>
	<path class="st10" d="M48.5,162.9c-1.9,0-2.4-0.9-1.5-2.5c1.7-3.1,4.5-5.2,7-7.6c0.7-0.6,1.5-0.7,2.2-0.1c0.4,0.4,0.7,1.1,0.7,1.7
		C56.8,156.4,50.3,162.8,48.5,162.9z"/>
	<path class="st10" d="M217.5,154.6c-0.1,2-6,9.1-7.6,9.1c-2,0-2.9-1.3-1.8-2.9c1.9-2.7,3.9-5.2,6.3-7.4
		C215.5,152.5,217.3,152.7,217.5,154.6z"/>
	<path class="st10" d="M77,155.5c0.2,2.5-5.9,8.5-8.1,8.4c-2-0.1-2.2-1.6-1.2-2.7c2-2.4,4.3-4.6,6.7-6.6
		C75.6,153.5,76.9,154,77,155.5z"/>
	<path class="st10" d="M228.3,155.9c-0.1,1.5-6.9,8.1-8.3,8.1c-0.9,0-1.6-0.4-2-1.2c-0.4-0.9,0-1.6,0.6-2.2c2.2-1.9,4.7-3.6,6.5-6
		c0.3-0.4,1.5-0.3,2.3-0.2C228.1,154.5,228.4,155.1,228.3,155.9z"/>
	<path class="st9" d="M88,57.7c-0.3,1.5-0.9,2.2-2.1,0.6C86.6,58.1,87.3,57.9,88,57.7z"/>
	<path class="st8" d="M143.4,207.5c-3.9,0.5-7.7,0.9-11.5-0.5c-16.7-8.5-15-33.7-2.9-42.1c6.3-4.4,12.8-3.7,18.6,1.2
		C158.1,175.2,158.3,199.5,143.4,207.5z M125.5,192.2c-0.6,5.9,5.5,12.2,11.9,12.4c6.5,0.2,12.2-5.6,12.3-12.7
		c4.7-7.3,1.3-13.9-2.1-20.2c-2.4-4.5-8.9-6.8-13.3-5.4C125.9,169.1,120.6,184.5,125.5,192.2z"/>
	<path class="st11" d="M210.4,138.5c-9.3,1.9-18.7,2.3-28.1,0.7c-0.9-0.2-2,0.1-2.6-1.1c1.8-1.6,4.1-0.8,6.1-1
		c6.3-0.6,11.6-3.1,15-8.8c8.4-14.1,2.4-29.3-13.4-33.8c0.6-1.3,1.3-2.6,1.1-4.2c1.6,0.1,3.3,0.2,4.9,0.3c0.7,0.2,1.4,0.4,2.1,0.6
		c0.2,0.3,0.5,0.4,0.9,0.3l-0.1-0.1c0.7,0.3,1.4,0.6,2.2,1l-0.1-0.1c0.7,0.4,1.4,0.7,2.1,1.1l-0.1-0.1c0.6,0.4,1.3,0.8,1.9,1.3
		l0,0.1c4.9,3.8,8.9,8.5,12,13.9c0.2,0.6,0.4,1.2,0.6,1.7c0.2,0.6,0.5,1.2,0.7,1.8c0.4,1.7,0.8,3.3,1.2,5c0.6,4.6,0.5,9.2,0,13.8
		c-0.6,1.3-0.4,2.7,0,4c-1,1.6-3,1.9-4.3,3C211.8,138.2,211.1,138.4,210.4,138.5z"/>
	<path class="st8" d="M214.9,110.4c-0.2-0.6-0.4-1.2-0.6-1.7c0.7-1.6,1.2-3.4,3.4-3.5c5.7,8.2,5.4,17.3,3.9,26.6
		c-0.4,2.3-1.8,3.5-4.2,3.3c-0.2-0.1-0.5-0.1-0.7,0c-0.4-1.3-0.6-2.6,0-4c2.4-3.1,2.4-10.8,0-13.8c-0.4-1.7-0.8-3.3-1.2-5
		C216.7,111,216.2,110.6,214.9,110.4z"/>
	<path class="st9" d="M217.8,105.1c-2.2,0.1-2.7,1.9-3.4,3.5c-3.1-5.4-7.1-10.1-12-13.9c1.5-0.9,3-1.7,4.5-2.6
		c4.3,1.9,6.6,5.9,9.6,9.3C216.9,102.6,217.4,103.9,217.8,105.1z"/>
	<path class="st4" d="M216.9,135c0.2-0.1,0.5-0.1,0.7,0c-0.1,3.6-2,4.2-5,3C213.9,136.9,215.8,136.6,216.9,135z"/>
	<path class="st11" d="M95.9,138.9c-11,2.3-21.9,1.7-32.8-0.5c-1.7-1.1-3.5-2.1-5.2-3.2c0.4-8-1.2-16.2,1.6-24
		c1.5-2.6,2.9-5.2,4.5-7.7c7.8-11.8,25.4-19.3,40-7.2c-1.5,2.8-3.2,0.4-4.5-0.1c-15.8-6.4-30.9,5.6-29.5,21.7
		C71,130.3,80,137.4,95,137.4C95.3,137.9,95.6,138.4,95.9,138.9z"/>
	<path class="st9" d="M104,96.2c-14.6-12.1-32.2-4.6-40,7.2c-1.6,2.5-3,5.1-4.5,7.7c-0.6-1.8,0.5-4.6-2.8-5c0.5-1.6,1-3.1,1.5-4.7
		c2.9-3.7,6.1-7.2,9.9-10.1c3.5-1.9,6.9-4.2,10.9-5.2c9.8-2.6,19-1.9,26.9,5.3c-0.3,1.3-0.7,2.6-1,3.9
		C104.6,95.6,104.3,95.9,104,96.2z"/>
	<path class="st8" d="M56.7,106.1c3.3,0.4,2.1,3.2,2.8,5c-2.7,7.9-1.2,16-1.6,24c-3-0.2-4.7-1.4-5.2-4.7
		C51.6,121.9,52.3,113.7,56.7,106.1z"/>
	<path class="st8" d="M159.8,134.4c-2.5,1.4-2.8-0.7-3.1-2.2c-2.3-12.9-1.7-25.2,6.9-36c0.6,1.4,2.2,2.3,2.1,4.1
		c1.1,4.8-1.7,8.3-4,11.9c-3.1-1.1-2.4,1.6-3,3c0,0.7,0,1.3,0,2c0.3,2.3-0.8,4.8,0.8,7c0.1,0.3,0.2,0.6,0.2,0.9
		C159.8,128.1,159.8,131.3,159.8,134.4z"/>
	<path class="st9" d="M165.7,100.3c0.1-1.8-1.5-2.7-2.1-4.1c0-1.1,0.7-1.9,1.3-2.7c5.8-4.7,12.2-8,19.7-9c1.3,0.3,2.9-0.4,4,1
		c-0.7,4,3.8,3.1,4.9,5.4c-1.6-0.1-3.3-0.2-4.9-0.3c-7.3-0.7-13.9,0.9-18.9,6.7C168.9,98.8,167.8,100.2,165.7,100.3z"/>
	<path class="st11" d="M159.8,125c0-0.3,0-0.6-0.2-0.9c0.9-1.6-1.5-4.6,2.1-5.1c1.6,0.4,0.5,1.9,0.8,2.7c2.2,7.1,7.5,11.4,13.3,15.2
		c-2.5,2.8-4.6-0.9-7-0.5c-2.3-0.8-4.7-1.6-7-2.4C161,131.1,161.4,127.9,159.8,125z"/>
	<path class="st9" d="M159.8,125c1.6,2.8,1.2,6.1,2.1,9.1c-0.7,0.1-1.3,0.2-2,0.3C159.8,131.3,159.8,128.1,159.8,125z"/>
	<path class="st8" d="M104.9,95.3c0.3-1.3,0.7-2.6,1-3.9c5.4,3.3,8.2,8.6,10.9,13.9c3,8.4,1.9,17.2,2.1,25.8
		c-1.5,1.9-1.3,7.5-5.8,2.5c0.7-6.4,1.5-12.9,0.6-19.4c1-0.7,1.9-1.8,0.2-2.4c-1.8-0.6-2-1.7-2.9-3
		C108.1,104.7,107.2,99.7,104.9,95.3z"/>
	<path class="st2" d="M113.7,114.3c0.9,6.5,0.1,12.9-0.6,19.4c-5.5,2.7-11.2,4.5-17.3,5.2c-0.3-0.5-0.6-1-0.9-1.5
		c12.1-3.4,16.6-9.2,17.3-22.4C112.3,114,113.2,114.4,113.7,114.3z"/>
	<path class="st12" d="M175.9,137c-5.8-3.9-11.1-8.1-13.3-15.2c-0.3-0.8,0.8-2.3-0.8-2.7c-0.2-1.9-1.6-1.8-3-1.9c0-0.7,0-1.3,0-2
		c2.2,0.2,3.2-0.8,3-3c2.3-3.7,5-7.2,4-11.9c2.1-0.1,3.2-1.5,4-3.1c1.3,0.1,2.5,0.2,3.8-0.5c4.4-2.4,9.1-2.8,13.9-2.1
		c15.8,4.5,21.8,19.7,13.4,33.8c-3.4,5.7-8.7,8.1-15,8.8c-2.1,0.2-4.3-0.6-6.1,1C178.7,137,177.7,135.6,175.9,137z M177.2,117.4
		c5.1,0,9.2-4,9.2-9.1c0-4.8-4-8.6-9.1-8.5c-4.9,0-8.8,3.9-8.8,8.8C168.5,114.3,171.6,117.5,177.2,117.4z M194.8,127.2
		c-0.2-3.3-1.3-4.9-3.9-4.7c-2.9,0.2-4.9,1.7-4.7,4.6c0.1,2.6,1.9,4.2,4.7,4C193.6,130.9,194.7,129,194.8,127.2z"/>
	<path class="st8" d="M193.6,90.7c-1.1-2.3-5.7-1.4-4.9-5.4c6.9-0.7,12.4,2.6,18,5.9c0.1,0.3,0.1,0.6,0.3,0.9
		c-1.5,0.9-3,1.7-4.5,2.6c0,0,0-0.1,0-0.1c-0.1-1.2-1-1.3-1.9-1.3c0,0,0.1,0.1,0.1,0.1c-0.3-1-1.2-1.1-2.1-1.1c0,0,0.1,0.1,0.1,0.1
		c-0.4-1-1.2-1.1-2.2-1c0,0,0.1,0.1,0.1,0.1c-0.1-0.7-0.3-1-0.9-0.3C194.9,91.1,194.3,90.9,193.6,90.7z"/>
	<path class="st13" d="M125.5,192.2c-4.9-7.7,0.4-23.2,8.8-25.9c4.4-1.4,10.9,0.9,13.3,5.4c3.4,6.4,6.8,12.9,2.1,20.2
		C141.5,185.6,133.4,185.7,125.5,192.2z"/>
	<path class="st10" d="M125.5,192.2c7.9-6.6,16-6.7,24.2-0.3c-0.1,7.1-5.8,12.9-12.3,12.7C130.9,204.4,124.9,198.1,125.5,192.2z"/>
	<path class="st2" d="M187.5,94.6c-4.8-0.7-9.6-0.3-13.9,2.1c-1.3,0.7-2.5,0.6-3.8,0.5c5-5.8,11.5-7.4,18.9-6.7
		C188.8,92,188.2,93.3,187.5,94.6z"/>
	<path class="st12" d="M216.9,117.2c2.4,3,2.4,10.7,0,13.8C217.3,126.4,217.5,121.8,216.9,117.2z"/>
	<path class="st9" d="M196.4,91.5c0.9-0.1,1.7,0,2.2,1C197.9,92.1,197.1,91.8,196.4,91.5z"/>
	<path class="st9" d="M200.4,93.4c1,0,1.8,0.1,1.9,1.3C201.7,94.3,201.1,93.8,200.4,93.4z"/>
	<path class="st9" d="M198.5,92.4c0.9,0,1.7,0.1,2.1,1.1C199.9,93.1,199.2,92.7,198.5,92.4z"/>
	<path class="st9" d="M214.9,110.4c1.2,0.2,1.8,0.7,0.7,1.8C215.4,111.6,215.2,111,214.9,110.4z"/>
	<path class="st9" d="M195.6,91.3c0.6-0.8,0.8-0.4,0.9,0.3C196.1,91.6,195.9,91.5,195.6,91.3z"/>
	<path class="st12" d="M113.7,114.3c-0.6,0.1-1.4-0.3-1.5,0.7c-0.6,13.1-5.2,19-17.3,22.4c-15,0-24-7-25.1-19.6
		c-1.4-16.1,13.7-28,29.5-21.7c1.3,0.5,3,2.9,4.5,0.1c0.3-0.3,0.6-0.6,1-0.9c2.3,4.4,3.1,9.4,6.1,13.6c0.9,1.3,1.2,2.5,2.9,3
		C115.6,112.4,114.8,113.5,113.7,114.3z M85.3,117.4c5.2-0.1,8.9-4,8.7-9.2c-0.2-4.7-4-8.4-8.6-8.5c-4.9,0-9.1,4.2-9.1,9.2
		C76.3,113.6,80.4,117.5,85.3,117.4z M98,131.1c2.4-0.3,4.3-1.4,4.4-3.9c0-2.5-1.3-4.7-4-4.7c-2.6,0-4.3,1.7-4.3,4.4
		C94,129.5,95.7,130.7,98,131.1z"/>
	<path class="st9" d="M158.8,117.2c1.4,0,2.8-0.1,3,1.9c-3.6,0.5-1.2,3.5-2.1,5.1C157.9,122,159.1,119.5,158.8,117.2z"/>
	<path class="st9" d="M161.8,112.2c0.2,2.2-0.8,3.2-3,3C159.3,113.8,158.6,111.1,161.8,112.2z"/>
	<path class="st11" d="M177.2,117.4c-5.6,0-8.7-3.1-8.7-8.8c0-4.9,3.9-8.8,8.8-8.8c5,0,9.1,3.8,9.1,8.5
		C186.4,113.4,182.3,117.4,177.2,117.4z"/>
	<path class="st2" d="M194.8,127.2c0,1.8-1.2,3.7-4,3.9c-2.8,0.2-4.6-1.4-4.7-4c-0.1-3,1.9-4.5,4.7-4.6
		C193.5,122.2,194.6,123.8,194.8,127.2z"/>
	<path class="st11" d="M85.3,117.4c-4.9,0.1-9-3.7-9-8.5c0-5,4.2-9.2,9.1-9.2c4.6,0,8.4,3.8,8.6,8.5
		C94.2,113.3,90.6,117.2,85.3,117.4z"/>
	<path class="st2" d="M98,131.1c-2.3-0.4-4-1.6-4-4.2c0-2.7,1.8-4.4,4.3-4.4c2.7,0,4.1,2.2,4,4.7C102.3,129.8,100.4,130.9,98,131.1z
		"/>
</g>
</svg>
