<?xml version="1.0" encoding="utf-8"?>
<!-- Generator: Adobe Illustrator 26.0.3, SVG Export Plug-In . SVG Version: 6.00 Build 0)  -->
<svg version="1.1" id="Capa_1" xmlns="http://www.w3.org/2000/svg" xmlns:xlink="http://www.w3.org/1999/xlink" x="0px" y="0px"
	 viewBox="0 0 243.5 210.3" style="enable-background:new 0 0 243.5 210.3;" xml:space="preserve">
<style type="text/css">
	.st0{fill:#ECE7E0;}
	.st1{fill:#D1D0CD;}
	.st2{fill:#97785E;}
	.st3{fill:#EFD5B1;}
	.st4{fill:#5A3A1D;}
</style>
<g>
	<path class="st0" d="M239.3,29.8c4.6,1.3,3.6,5.5,3.9,8.6c1.2,12.6-1.8,24.5-8.5,35.1c-3.5,5.6-2.6,11.2-1.2,16.5
		c2.3,9.4,4.7,18.7,6.3,28.2c1.6,9.6,1,18.8-3.1,28c-9,20.3-24.3,34.2-43.1,44.9c-1,0.6-1.9,1.4-2.7,2.1c-3.1,2.7-6.3,4.9-10.4,6.4
		c-18.2,6.5-36.7,10.5-56.2,10.5c-11.9,0.1-23.5-0.8-35-3.3c-6.9-1.5-13.7-3.3-20.4-5.7c-3.4-1.2-5.4-4.3-8.8-5.4
		C45.2,191.2,34,181,23.3,170.5c-9.2-9.1-16.1-20.2-18.7-33c-2.5-11.9,0.3-23.9,3.2-35.6c1.8-7.2,1.7-14.7,3.5-21.9
		c1.1-4.3-2.2-7.6-4.3-10.7c-4.5-6.8-5.4-14.4-6.6-22C-0.9,39.3,1.9,32.8,5,25.6C9.4,15.3,16.8,8.5,26.3,4.2
		c9.5-4.3,19.8-5,30.1-2.1c10.2,2.9,19,8.8,28.7,12.7c3.5,1.4,6.6,0.4,9.6,0c10-1.4,19.9-3.2,29.9-3.1c5.7,0.1,11.4,1.2,17.1,1.9
		c3.8,0.5,7.5,0.8,11.3,1.5c7.3,1.3,12.6-3.4,18.4-6.2c7.5-3.6,14.8-6.6,23.1-8c9-1.6,17.6-0.8,25.6,2.6c4.2,1.8,8.5,5.1,11.1,9.2
		c2.7,4.2,7.1,7.4,8.2,12.6c0.2,1,0.8,1.9-0.3,2.6c-1.9-0.1-2.4-1.6-2.8-3c-0.5-1.8-1.3-3-3.3-2.9c-8.4-13.7-20.7-19.8-36.5-17.6
		c-12.4,1.7-23.5,6.9-33,15c-1.6,1.4-2.9,2.2-5.2,1.5c-23.6-7.2-47.4-6.7-71.1-0.3c-2.4,0.7-4.4,0.5-6.3-1.4
		c-7.3-7.1-16.4-10.9-26-13.5C36,0.6,21.5,6.4,11.2,22.9C6,24.5,5.5,30.2,4.8,33.6C2.6,43.9,4.3,54.5,9.7,63.7
		c4.8,8.2,7.8,16.2,4.6,25.7c-2.1,6.3-1.7,13.2-3.6,19.3C8.8,115,8.9,121.2,9,127.3c0.4,15.9,8.2,28.8,18.9,40.1
		c9.4,9.9,20.8,16.9,32.9,23.2c16,8.3,32.9,13.1,50.5,14.1c21.2,1.2,42.2-0.6,62.5-9.2c10.4-4.4,20.7-8.6,29.8-15.4
		c10.6-8,21.5-15.8,27-28.6c2.4-5.5,6.2-11,6.4-16.8c0.3-12.7-2.4-25.2-5.8-37.4c-3-10.8-4-21,2.5-31.3
		C240.6,55,241.7,42.5,239.3,29.8z"/>
	<path class="st1" d="M239.3,29.8c2.4,12.7,1.3,25.1-5.7,36.1c-6.5,10.3-5.6,20.5-2.5,31.3c3.4,12.2,6.2,24.7,5.8,37.4
		c-0.2,5.9-3.9,11.3-6.4,16.8c-5.6,12.8-16.4,20.6-27,28.6c-9.1,6.8-19.4,11-29.8,15.4c-20.2,8.6-41.3,10.3-62.5,9.2
		c-17.5-1-34.5-5.9-50.5-14.1c-12.1-6.3-23.5-13.3-32.9-23.2C17.2,156.1,9.4,143.2,9,127.3c-0.1-6-0.2-12.3,1.7-18.6
		c1.9-6.2,1.5-13.1,3.6-19.3c3.2-9.5,0.2-17.5-4.6-25.7c-5.4-9.2-7.1-19.8-4.9-30.1c0.7-3.4,1.2-9.1,6.4-10.7
		c-8.4,19.8-0.9,36.2,10.9,51.7c-0.4,5.2-3,9.6-4.2,14.6c-1.6,7-0.6,14.4-3.3,20.9c-5,12-2.3,23.1,2.6,33.9
		c7.4,16.3,20.4,27.5,35.4,36.3c20.7,12.1,43.3,18,67.1,18.6c19.3,0.5,38.2-2.7,56.1-10.1c19.9-8.3,37.6-19.7,49-38.6
		c7.7-12.7,12-26.1,5.1-40.9c-1.2-2.5-1.4-5.4-1.7-8.2c-0.4-4.4-0.9-8.8-2.1-13.1c-1.3-4.6-3.6-8.9-3.8-13.8
		C235.1,58.7,242.1,42,233.2,22c2.1-0.1,2.8,1.1,3.3,2.9c0.4,1.4,0.9,2.9,2.8,3C239.3,28.5,239.3,29.2,239.3,29.8z"/>
	<path class="st2" d="M233.2,22c8.9,20,1.9,36.7-10.8,52.3c-3.1-4.9-5.9-10-9.4-14.5c-2.4-3.1-2.3-5.5,0.2-8.1
		c2.9-3.1,4.7-6.9,5.7-10.9c1.2-5.1,1.8-10.2-2.5-14.4c-4.3-4.2-9.5-4.4-14.9-3c-5.2,1.4-9.8,4-13.7,7.7c-1.8,1.7-3.6,2.3-5.8,1.4
		c-6.9-2.6-14-2-21.1-1.1c-15.2,2-27.9,8.9-38.4,20c-2.4,2.6-4,2.6-6.3,0c-2.1-2.3-4.4-4.5-6.9-6.4c-14.3-10.5-29.5-18-48-12.3
		c-2,0.6-2.9-0.8-4.3-1.8c-6.1-4.8-12.6-8.7-20.8-8.2c-6.6,0.4-11.1,5-11.2,11.5c-0.1,6.9,2.5,12.9,6.7,18.2
		c1.9,2.4,1.8,4.1,0.1,6.5c-3.5,5-7.2,9.8-9.5,15.5C10.4,59.1,2.8,42.6,11.2,22.9C21.5,6.4,36,0.6,54.9,5.7
		c9.7,2.6,18.7,6.4,26,13.5c1.9,1.9,3.9,2,6.3,1.4c23.7-6.5,47.4-6.9,71.1,0.3c2.3,0.7,3.6-0.1,5.2-1.5c9.6-8.2,20.6-13.3,33-15
		C212.5,2.2,224.8,8.2,233.2,22z"/>
	<path class="st3" d="M22.2,74.6c2.3-5.7,6-10.5,9.5-15.5c1.7-2.4,1.8-4.1-0.1-6.5c-4.2-5.3-6.7-11.3-6.7-18.2
		c0.1-6.5,4.6-11.1,11.2-11.5c8.2-0.5,14.7,3.4,20.8,8.2c1.3,1,2.3,2.4,4.3,1.8c18.5-5.7,33.7,1.8,48,12.3c2.5,1.9,4.9,4,6.9,6.4
		c2.3,2.6,3.9,2.6,6.3,0c10.5-11.1,23.2-18,38.4-20c7.1-0.9,14.2-1.5,21.1,1.1c2.2,0.8,4,0.2,5.8-1.4c3.9-3.7,8.5-6.4,13.7-7.7
		c5.3-1.4,10.6-1.2,14.9,3c4.3,4.2,3.7,9.4,2.5,14.4c-1,4-2.7,7.8-5.7,10.9c-2.5,2.6-2.6,4.9-0.2,8.1c3.5,4.5,6.3,9.6,9.4,14.5
		c0.1,4.9,2.5,9.2,3.8,13.8c1.2,4.3,1.7,8.7,2.1,13.1c0.3,2.8,0.5,5.7,1.7,8.2c6.9,14.7,2.6,28.2-5.1,40.9
		c-11.4,18.9-29.2,30.3-49,38.6c-17.9,7.4-36.8,10.6-56.1,10.1c-23.8-0.6-46.4-6.5-67.1-18.6c-15.1-8.8-28.1-20.1-35.4-36.3
		c-4.9-10.8-7.6-22-2.6-33.9c2.7-6.5,1.8-13.9,3.3-20.9C19.1,84.2,21.8,79.7,22.2,74.6z M138.9,94.9c-3.5,0.5-7.9,0.9-6.9,5.6
		c1.4,6.3,4.7,11.8,11.4,14.5c7.6,3.1,15.2,6,23.5,6.9c12.7,1.4,25.4,2.3,38.1,0.5c13.1-1.9,18.8-10,16.6-23.2
		c-1.9-11.5-7.4-21.2-15.1-29.6c-4.7-5.1-10.6-7.5-17.5-4.5c-14.4,6.1-26.4,16.2-39.4,24.6C146.1,91.4,142.5,93.1,138.9,94.9z
		 M92.9,88.8c-11.2-8.3-22.5-16.7-35.1-22.8c-5.8-2.8-12.8-3.4-18.3,1.9C30.9,76,25.2,85.7,22.6,97.2c-2.2,9.9,0,17.3,6.6,21.2
		c8.7,5.1,18.7,6,28.3,5.6c5.8-0.2,11.7-0.4,17.6-1.6c9.2-1.9,18.5-3.6,26.8-8.1c4.5-2.4,8-5.9,9.4-11c1.7-6,0.8-7.4-5.6-8.6
		C101.5,92.8,97.2,90.8,92.9,88.8z M100.5,121.2c-8,1.1-15.1,4.6-21.6,9.3c-11.7,8.6-13.4,21.8-4.7,33.5
		c8.7,11.7,20.5,18.9,34.6,21.5c24.5,4.5,45.7-1.5,61.5-21.8c9.3-11.9,7.3-24.4-4.9-33.4c-6.8-5-14.5-7.9-22.5-10.1
		c-12-6.2-24.6-5.3-37.2-2.5C103.6,118.1,101.5,118.9,100.5,121.2z M101.5,85.5c1.9,0.1,3.7-0.4,4.7-2.1c1.2-2,0.7-3.8-0.6-5.5
		c-4.8-6.5-11.3-10.5-19-12.6c-1.9-0.5-3.7-0.3-4.9,1.3c-1.1,1.5-0.7,3.1-0.1,4.7C83.7,77,95.5,85.4,101.5,85.5z M143.1,85.4
		c6.1,0,18-8.8,20-14.7c1.1-3.2-0.5-5.9-3.4-5.4c-8.4,1.4-15.3,5.7-21,12.1c-1.4,1.6-1.7,3.6-0.7,5.6C139.1,85,141,85.4,143.1,85.4z
		 M129.9,79.4c-3.5,7.1-1.3,13,5.3,12.5C130.6,88.6,130.6,83.9,129.9,79.4z M114.4,79.9c-0.3,4.4-1.5,8.6-4.9,13.3
		C115.9,90.1,117.1,86.2,114.4,79.9z"/>
	<path class="st2" d="M142.9,120.2c8,2.2,15.7,5.1,22.5,10.1c12.2,8.9,14.3,21.4,4.9,33.4c-15.8,20.2-37,26.3-61.5,21.8
		c-14.2-2.6-25.9-9.7-34.6-21.5c-8.7-11.7-7-24.9,4.7-33.5c6.4-4.7,13.5-8.2,21.6-9.3c1.8,6.4,7.4,8.3,12.8,10.6
		c8.1,3.5,23.7-0.3,28.7-7.3C142.9,123.1,142.9,121.7,142.9,120.2z M157.2,156.4c-1-7.7-2.8-9.4-10.8-10.1
		c-18.2-1.5-33.2,6.6-47.9,15.7C117.7,155.3,136.8,148.7,157.2,156.4z"/>
	<path class="st2" d="M105.7,94.7c6.4,1.2,7.3,2.6,5.6,8.6c-1.4,5.1-4.9,8.6-9.4,11c-8.4,4.5-17.6,6.2-26.8,8.1
		c-5.9,1.2-11.8,1.3-17.6,1.6c-9.6,0.4-19.6-0.5-28.3-5.6c-6.6-3.9-8.8-11.3-6.6-21.2c2.6-11.5,8.3-21.2,16.8-29.3
		c5.5-5.2,12.5-4.7,18.3-1.9c12.6,6.1,23.9,14.5,35.1,22.8c-0.5,0.7-1.1,0.6-1.8,0.3c-8.2-3.6-16.4-7.1-24.6-10.7
		c-6.2-2.7-12.4-5.6-18.6-8.3c-1.7-0.7-3.6-1.3-5,0.4c-1.2,1.4,0,2.5,1,3.4C45.2,75,45,76,44,77.3c-5.9,7.8-6.3,16.8-5.7,26
		c0.2,2.8,1,5.8,5,5.2c2.4,2.4,5.1,4.1,8.4,5c15.8,4.6,31.2,4.3,46.2-3.1c3.7,0.9,5.3-0.4,6-4.9c0.3-1.9-0.7-4.3,1.3-5.4
		C108.1,98.4,106.3,96.6,105.7,94.7z"/>
	<path class="st2" d="M149.7,89.7c13-8.5,25-18.5,39.4-24.6c6.9-3,12.9-0.6,17.5,4.5c7.7,8.4,13.2,18.1,15.1,29.6
		c2.2,13.2-3.5,21.3-16.6,23.2c-12.8,1.9-25.4,0.9-38.1-0.5c-8.3-0.9-15.9-3.8-23.5-6.9c-6.7-2.8-10-8.2-11.4-14.5
		c-1.1-4.7,3.4-5.1,6.9-5.6c-0.7,1.8,2.4,13.9,3.7,15c1.4,1.1,2.5-0.3,3.7-0.3c0.5,1.1,1.4,1.7,2.5,2.1c15.1,6.1,30.4,6.5,45.8,1.4
		c2.5-0.8,4.8-2.2,6.2-4.6c2.9,0.6,4.1-0.5,4.7-3.4c1.9-9.7,0.4-18.7-4.6-27.2c-0.6-1.1-2-1.9-0.8-3.4c1-1.4,2.2-2.9,0.4-4.3
		c-1.5-1.1-3.1-0.3-4.7,0.4c-11.3,5-22.6,10.3-34.1,15C157.9,87,154.4,90.2,149.7,89.7z"/>
	<path class="st4" d="M43.3,108.5c-4.1,0.6-4.8-2.3-5-5.2c-0.6-9.2-0.2-18.2,5.7-26c1-1.3,1.2-2.2-0.1-3.4c-1-0.9-2.2-1.9-1-3.4
		c1.4-1.7,3.4-1.1,5-0.4c6.2,2.7,12.4,5.6,18.6,8.3c8.2,3.6,16.4,7.2,24.6,10.7c0.6,0.3,1.3,0.4,1.8-0.3c4.3,2,8.6,3.9,12.9,5.9
		c0.6,1.9,2.4,3.6-0.6,5.3c-2,1.1-1,3.6-1.3,5.4c-0.7,4.4-2.3,5.8-6,4.9c0.4-3.1,0.8-6.2,1.2-9.3c0.2-1.5-0.1-2.7-1.7-3.1
		c-2.1-0.6-1.9,1.2-2.4,2.3c-4,10-12.4,14.5-22.1,11.5c-10.6-3.4-14.1-13-12.6-21.8c1.3-7.6,1.4-7.6-5.7-10.8
		c-0.6-0.3-1.3-0.4-1.8-0.8c-2.2-1.6-3.5-0.6-4.7,1.4c-3.7,6.1-5.6,12.6-5.2,19.8C43.1,102.5,44,105.5,43.3,108.5z"/>
	<path class="st4" d="M146.3,109.5c-1.2,0-2.3,1.5-3.7,0.3c-1.3-1.1-4.4-13.1-3.7-15c3.6-1.7,7.2-3.5,10.8-5.2
		c4.7,0.5,8.1-2.7,12.1-4.3c11.5-4.7,22.8-9.9,34.1-15c1.6-0.7,3.2-1.5,4.7-0.4c1.8,1.4,0.7,3-0.4,4.3c-1.2,1.5,0.2,2.3,0.8,3.4
		c5,8.5,6.5,17.5,4.6,27.2c-0.6,2.9-1.8,4.1-4.7,3.4c-0.7-1.8-0.1-3.6,0.1-5.4c0.8-5.5,0.5-10.9-1.3-16.1
		c-3.6-10.1-4.1-10.4-13.6-6.2c-0.3,0.1-0.6,0.3-0.9,0.4c-3,0.9-3.9,2-2.3,5.6c4.7,10.5-1.8,21.3-11.6,25
		c-9.2,3.5-18.3-1.9-21.9-10.7c-0.4-1.1-0.1-3.4-2.5-2.8c-2.4,0.6-1.7,2.3-1.5,4C145.8,104.6,146,107,146.3,109.5z"/>
	<path class="st4" d="M142.9,120.2c-0.1,1.5,0,2.9-1,4.2c-5,7-20.5,10.8-28.7,7.3c-5.3-2.3-10.9-4.1-12.8-10.6c1-2.3,3.1-3,5.2-3.5
		C118.3,114.9,130.9,114,142.9,120.2z"/>
	<path class="st4" d="M101.5,85.5c-6-0.1-17.8-8.5-20-14.2c-0.6-1.6-1-3.2,0.1-4.7c1.3-1.7,3-1.9,4.9-1.3c7.7,2.2,14.2,6.2,19,12.6
		c1.3,1.7,1.9,3.5,0.6,5.5C105.1,85.1,103.4,85.6,101.5,85.5z"/>
	<path class="st4" d="M143.1,85.5c-2.1,0-4-0.5-5.1-2.5c-1-1.9-0.7-4,0.7-5.6c5.6-6.4,12.5-10.7,21-12.1c2.9-0.5,4.5,2.2,3.4,5.4
		C161.1,76.7,149.2,85.4,143.1,85.5z"/>
	<path class="st2" d="M129.9,79.4c0.6,4.5,0.6,9.2,5.3,12.5C128.7,92.4,126.4,86.4,129.9,79.4z"/>
	<path class="st2" d="M114.4,79.9c2.7,6.3,1.5,10.2-4.9,13.3C112.9,88.5,114.1,84.3,114.4,79.9z"/>
	<path class="st4" d="M157.2,156.4c-20.4-7.7-39.5-1.1-58.7,5.6c14.8-9.1,29.8-17.2,47.9-15.7C154.4,147,156.3,148.6,157.2,156.4z"
		/>
	<path class="st0" d="M43.3,108.5c0.7-3-0.2-5.9-0.4-8.9c-0.4-7.2,1.4-13.7,5.2-19.8c1.2-2,2.5-3,4.7-1.4c0.5,0.4,1.2,0.5,1.8,0.8
		c7.1,3.2,7,3.2,5.7,10.8c-1.5,8.8,2,18.4,12.6,21.8c9.6,3.1,18.1-1.4,22.1-11.5c0.4-1.1,0.3-2.9,2.4-2.3c1.6,0.5,1.9,1.6,1.7,3.1
		c-0.4,3.1-0.8,6.2-1.2,9.3c-15,7.4-30.4,7.7-46.2,3.1C48.4,112.5,45.7,110.9,43.3,108.5z"/>
	<path class="st0" d="M146.3,109.5c-0.3-2.5-0.6-4.9-0.9-7.4c-0.3-1.6-0.9-3.4,1.5-4c2.4-0.6,2.1,1.7,2.5,2.8
		c3.6,8.8,12.7,14.2,21.9,10.7c9.9-3.7,16.3-14.5,11.6-25c-1.6-3.6-0.7-4.6,2.3-5.6c0.3-0.1,0.6-0.3,0.9-0.4
		c9.5-4.1,10-3.9,13.6,6.2c1.9,5.3,2.1,10.7,1.3,16.1c-0.3,1.8-0.9,3.6-0.1,5.4c-1.4,2.4-3.7,3.8-6.2,4.6
		c-15.4,5.1-30.7,4.7-45.8-1.4C147.7,111.2,146.9,110.6,146.3,109.5z"/>
</g>
</svg>
