<?xml version="1.0" encoding="utf-8"?>
<!-- Generator: Adobe Illustrator 26.0.3, SVG Export Plug-In . SVG Version: 6.00 Build 0)  -->
<svg version="1.1" id="Capa_1" xmlns="http://www.w3.org/2000/svg" xmlns:xlink="http://www.w3.org/1999/xlink" x="0px" y="0px"
	 viewBox="0 0 243.5 232.3" style="enable-background:new 0 0 243.5 232.3;" xml:space="preserve">
<style type="text/css">
	.st0{fill:#E0DFDC;}
	.st1{fill:#EBEBEA;}
	.st2{fill:#D0CDC7;}
	.st3{fill:#F6F6F5;}
	.st4{fill:#97785E;}
	.st5{fill:#EFD6B1;}
	.st6{fill:#C6BFB4;}
	.st7{fill:#F1D6AF;}
	.st8{fill:#ECC8C7;}
	.st9{fill:#98775C;}
	.st10{fill:#97765B;}
	.st11{fill:#5B3A1D;}
	.st12{fill:#DE9B8C;}
	.st13{fill:#533B25;}
	.st14{fill:#FEFDFC;}
</style>
<g>
	<path class="st0" d="M238.8,77.1c-0.1,4.4-4,7.5-3.9,12c-1.2,0.7-1,1.9-1,3c-4.8,4.9-4.8,15,0,19.9c0,0.7,0,1.3,0,2
		c0,1.1-0.2,2.3,1,3c0,0.7,0,1.3,0,2c0.4,1.8-1.2,4.3,2,5c0,1,0,2,0,3c-1.1,3.1,1.1,5.4,2,8c0,0.7,0,1.3,0,2c0,5.3,0,10.6,0,16
		c0,1,0,2,0,3c-0.8,0.4-1,1.2-1,2c0,0.7,0,1.3,0,2c-2.3,2.5-3,5.6-3,9c0,0,0,0,0,0c-3.5,2.9-5.8,6.6-6.9,11c-0.3,0.3-0.7,0.7-1,1
		c-4.3,4.6-8.6,9.3-12.9,13.9c-0.3,0.3-0.7,0.7-1,1c-6,2.8-10.5,7.9-16.4,11c-1,0.5-1.6,1.7-1.6,2.9c-0.3,0-0.7,0-1,0
		c-1.7-0.1-3.2,0.2-4,2c-1,0.3-2,0.7-3,1c-5.6,2-11.1,4.1-16.7,5.8c-18.9,5.9-38.1,8.8-57.9,7c-4.5-0.4-9.1-0.4-13.6-1.3
		c-15.1-2.9-29.9-7-43.2-14.9c-3.2-1.9-8-2.8-9.1-7.6c2.1-0.4,3.4,1,4.9,1.9c13.2,8.5,27.9,12.8,43.1,16.1
		c6.5,1.4,13.1,1.4,19.6,2.2c9.6,1.2,18.9,1.4,28.6-0.3c11.7-2.2,23.3-4.4,34.3-8.6c12.6-4.7,24.1-11.5,34.3-20.3
		c11.3-9.8,20-21.4,23.9-36.1c3.9-14.5-1.4-28.3-4.6-41.9c-2.3-9.6-3.5-18.4,1.1-27.2C233.8,83.7,234.1,78.8,238.8,77.1z"/>
	<path class="st1" d="M46.7,201.7c1.1,4.8,5.9,5.7,9.1,7.6c13.3,7.9,28.1,11.9,43.2,14.9c4.4,0.9,9.1,0.9,13.6,1.3
		c19.8,1.9,39-1.1,57.9-7c5.6-1.8,11.1-3.9,16.7-5.8c-0.6,3-3.5,3.7-5.5,4.5c-17.5,6.4-35.4,11.6-54.1,11.2
		c-11.4-0.2-23.2,0.5-34.3-2.8c-11.7-3.4-23.9-6.1-34.7-11.4c-14.8-7.3-27.5-18-38.3-30.7c-1-1.2-1.6-2.5-3.3-2.5c0-0.3,0-0.7,0-1
		c-0.5-4.2-3.5-6.9-6-10c0-0.3,0-0.7,0-1c-0.4-1.8-0.4-3.7-1.3-5.3c-5.8-10.7-4.7-21.7-2.5-33c1.8-9.4,3.6-18.8,4.7-28.2
		c1-8.9-5-16.2-7-24.5c-1.3-5.5-4-10.8-1.9-16.7c1,0.6,0.8,1.7,1.1,2.6c2.3,8,3.3,16.4,7,24.1c1,2,2.6,3.5,3.2,6
		c2.6,10.8-1.8,20.8-3.3,31.1C9.1,137,6,149,11.1,160.7c2,4.5,2.4,10.4,7.7,13.1c0,0.6,0,1.3,0.1,1.9c0,1.9,1,2.9,2.9,3l0,0
		c2.4,6.4,6.1,11.7,12.9,13.9c1,0.7,2,1.3,3,2c1.2,4,3.8,6.4,8,6.9C46.1,201.6,46.4,201.6,46.7,201.7z"/>
	<path class="st1" d="M233.9,112c-4.8-4.9-4.8-15,0-19.9C233.1,98.7,234.3,105.3,233.9,112z"/>
	<path class="st1" d="M195.1,209.6c0-1.3,0.6-2.4,1.6-2.9c5.8-3.1,10.4-8.1,16.4-11c0.1,4.4-4.1,4.9-6.5,6.7
		C203,205.1,199.9,208.9,195.1,209.6z"/>
	<path class="st1" d="M214,194.7c4.3-4.6,8.6-9.3,12.9-13.9C224.5,187.1,220.9,192.4,214,194.7z"/>
	<path class="st1" d="M238.9,152.8c0-5.3,0-10.6,0-16C243,140.4,243,149.3,238.9,152.8z"/>
	<path class="st1" d="M228,179.7c1.2-4.4,3.5-8.1,6.9-11C234.7,173.7,231.6,176.9,228,179.7z"/>
	<path class="st1" d="M234.9,168.7c0-3.3,0.7-6.4,3-9C238.6,163.3,237.9,166.4,234.9,168.7z"/>
	<path class="st1" d="M238.9,134.9c-0.8-2.6-3.1-4.9-2-8C239.8,129,239.8,131.8,238.9,134.9z"/>
	<path class="st1" d="M236.9,123.9c-3.2-0.7-1.6-3.2-2-5C238.1,119.6,236.5,122.2,236.9,123.9z"/>
	<path class="st1" d="M190.1,211.6c0.8-1.8,2.3-2.1,4-2C193.8,212.3,191.7,211.4,190.1,211.6z"/>
	<path class="st1" d="M234.9,117c-1.2-0.7-1-1.9-1-3C236,114.4,236.5,115.3,234.9,117z"/>
	<path class="st1" d="M237.9,157.8c0-0.8,0.2-1.6,1-2C240.4,157.4,239.2,157.6,237.9,157.8z"/>
	<path class="st0" d="M241.9,38.3c-1.7,1.9,0.3,3.7,0.4,5.5c0.1,1.6,1.2,3.1-0.4,4.5c-1,0-2,0-2.9,0c-0.6-3.1-1-6.2-1.7-9.2
		C232,16.8,213.8,3.2,191.1,4.3c-9.9,0.5-18.6,4.2-26.9,9.3c-0.3-2.1,2.1-3.1,1.9-5.1c13.1-9.5,27.9-10.2,42.3-5.7
		c12.4,3.8,22.4,12.2,28.8,23.9C239.3,30.2,239.3,34.8,241.9,38.3z"/>
	<path class="st1" d="M166.2,8.4c0.2,2-2.3,3-1.9,5.1c-0.9,0.7-1.8,1.3-2.7,2c-4.3-1.7-5.8,3.4-9.3,3.8l0,0c0.3-1.3,0.7-2.6,1-4
		C158.7,15.1,161.6,10.1,166.2,8.4z"/>
	<path class="st2" d="M238.9,48.2c1,0,2,0,2.9,0c-0.1,3.3,1,6.6,0,10c-1.2,4.8-2.4,9.6-3.7,14.3c-0.3,1-0.3,1.9,0.6,2.6
		c0,0.6,0,1.3,0,1.9c-4.7,1.8-5,6.7-6.9,10.3c-4.6,8.8-3.3,17.7-1.1,27.2c3.2,13.7,8.5,27.4,4.6,41.9c-3.9,14.7-12.6,26.3-23.9,36.1
		c-10.2,8.9-21.7,15.6-34.3,20.3c-11.1,4.2-22.7,6.5-34.3,8.6c-9.7,1.8-19,1.5-28.6,0.3c-6.5-0.8-13.1-0.8-19.6-2.2
		c-15.2-3.3-29.9-7.6-43.1-16.1c-1.5-1-2.9-2.3-4.9-1.9c-0.3,0-0.6,0-1,0c-1.3-3.9-4.9-5.1-8-6.9c-1-0.7-2-1.3-3-2
		c-0.8-1.9-2.3-3.7-2-6c6.1,4.5,11.8,9.8,18.3,13.4c12.8,7.1,25.9,13.1,40.5,16.3c14.8,3.2,29.7,4.7,44.4,3.6
		c16.1-1.3,31.9-5.2,46.8-12.4c14.8-7.1,27.6-16.6,38.4-28.9c2.2-2.5,4.5-5.3,4.6-9l0,0c5.3-4,6.8-9.7,7-15.9c0-1,0-2,0.1-3
		c2.2-0.4,2.5-1.4,1-2.9c1.1-9.2-2-17.5-5-25.9c-0.1-2.7,0.5-5.5-1-8c-0.7-6.9-3-13.3-5-19.8c0.7-0.7,1.4-1.3,2-2.1
		C234.4,79,238.5,64.2,238.9,48.2z"/>
	<path class="st0" d="M238.8,75.1c-0.9-0.7-0.9-1.6-0.6-2.6c1.2-4.8,2.5-9.6,3.7-14.3C243.5,64.3,242.9,70,238.8,75.1z"/>
	<path class="st3" d="M10.9,169.8c2.5,3,5.5,5.8,6,10C12.4,177.9,11.8,173.7,10.9,169.8z"/>
	<path class="st0" d="M28.8,6.4c2.6-0.7,5.3-1.3,7.9-2c0,0.7,0,1.4,0,2.1c-2.1,1.2-4.3,2.4-6.4,3.6C12.8,20.9,5.1,39.4,8.7,62.1
		c-2.4,0.6-1.9,2.5-1.6,4c0.8,3,1.8,6,2.7,8.9c3.4,10.8,10.3,20.8,7,33c0,0.6,0,1.3,0,1.9c-1.7,1.3-1.2,3.4-1.4,5
		c-0.9,6.3-2.9,12.5-2.6,18.9c0,0.6,0,1.3,0,1.9c-0.8,0.1-1.7,0.5-1.8,1.4c-1,8.4,0.6,16.6,3.1,24.5c0.5,1.4,1.8,1.1,2.7,0.1
		c0.7,0.4,0.9,1.1,0.9,1.8c-1.8,1.2-2.8,2.8-0.8,4.3c2.2,1.6,1.9,3.6,1.9,5.7c-5.3-2.7-5.7-8.6-7.7-13.1C6,149,9.1,137,10.8,124.9
		c1.5-10.3,5.9-20.3,3.3-31.1c-0.6-2.4-2.2-4-3.2-6c-3.7-7.6-4.6-16.1-7-24.1c-0.3-0.9-0.1-2-1.1-2.6c0-0.7,0-1.3,0-2
		c1.3-9.7,2-19.5,5-28.9c1.2-0.7,1-1.9,1-3c2-0.1,2-1.6,2-3c0,0,0,0,0,0c3-3,6.2-5.9,8-9.9c2-0.1,3.1-1.4,4-3c1.9-0.1,2.9-1.1,3-3
		c0.3,0,0.7,0,1,0C28.1,8.3,28.8,7.7,28.8,6.4z"/>
	<path class="st2" d="M18.8,173.8c0-2.1,0.3-4.1-1.9-5.7c-2-1.5-1-3.2,0.8-4.3c1.3,1,1.9,2.4,2.1,4c1.1,4.2,2.2,8.4,7,10
		c0,0,0,0,0,0c0.4,0.3,0.7,0.7,1.1,1c1.3,0.7,2.3,1.6,2.9,2.9c0,1,0,2,0,3.1c-3.8-0.7-5.2-5.1-8.9-6c0,0,0,0,0,0
		c-0.1-1.9-1.1-2.9-2.9-3C18.9,175,18.8,174.4,18.8,173.8z"/>
	<path class="st0" d="M21.8,178.7c3.8,0.8,5.1,5.3,8.9,6c0.9,0.4,1.6,1,2,2c-0.3,2.3,1.2,4,2,6C27.9,190.4,24.3,185.1,21.8,178.7z"
		/>
	<path class="st0" d="M37.7,194.7c3.1,1.8,6.7,3.1,8,6.9C41.5,201.1,39,198.7,37.7,194.7z"/>
	<path class="st0" d="M18.9,175.7c1.9,0.1,2.9,1.1,2.9,3C19.9,178.6,18.9,177.6,18.9,175.7z"/>
	<path class="st1" d="M97.5,23.3c1.3,0,2.3,0.6,3,1.5c5,6.6,11.9,6.1,18.9,4.9c3.5-0.6,7-0.9,10.3-0.1c6.2,1.6,11.2,0.3,15.5-4.5
		c2-2.2,3.7-5.2,7.1-5.8c0,0,0,0,0,0c-2.1,4.1-5.1,7.5-8.7,10.4c-1.5,1.2-3.7,1.9-3.3,4.5c-11.6-1.2-23.2-1-34.8,0.1
		c0-2.3-1.9-3.2-3.1-4.7C100.7,27.6,97.8,26.4,97.5,23.3z"/>
	<path class="st0" d="M97.5,23.3c0.3,3.1,3.2,4.3,4.8,6.3c1.2,1.5,3.1,2.4,3.1,4.7c-2.9,1.9-4.5,0.3-5.9-2.2
		c-3.8-6.7-9.1-12-15-16.9C75.3,7.5,64.3,4.7,52.7,3.7c-0.3-0.8-0.6-1.5-1-2.3c4.3,0,8.6,0,12.9,0c2.3,3,5.7,3.3,9,3.9
		c6.4,3.4,12.7,6.8,17.9,12c0,1.3,0.7,2,2,2C95.5,20,96.8,21.4,97.5,23.3z"/>
	<path class="st1" d="M7.9,30.3c-3,9.4-3.7,19.2-5,28.9c-3.4-1-1.7-3.9-1.9-5.9C0.3,46.6,3.3,40.4,4.3,34
		C4.6,32.5,5.7,30.5,7.9,30.3z"/>
	<path class="st1" d="M51.7,1.4c0.3,0.8,0.6,1.5,1,2.3c-5.3,0.9-10.6,1.9-15.9,2.8c0-0.7,0-1.4,0-2.1C41.5,2.3,46-1,51.7,1.4z"/>
	<path class="st1" d="M18.9,14.4c-1.8,4-5,6.9-8,9.9C11,18.9,14.2,16.1,18.9,14.4z"/>
	<path class="st1" d="M73.6,5.4c-3.3-0.6-6.7-1-9-3.9C67.8,2.4,72.2,0.5,73.6,5.4z"/>
	<path class="st1" d="M25.8,8.4c-0.1,1.9-1.1,2.9-3,3C22.9,9.4,23.9,8.4,25.8,8.4z"/>
	<path class="st1" d="M10.9,24.3c0,1.4,0,2.9-2,3C8.9,25.9,8.8,24.4,10.9,24.3z"/>
	<path class="st1" d="M93.5,19.3c-1.3,0-2-0.7-2-2C92.8,17.4,93.5,18,93.5,19.3z"/>
	<path class="st1" d="M28.8,6.4c-0.1,1.3-0.7,1.9-2,2C26.8,7.1,27.5,6.4,28.8,6.4z"/>
	<path class="st4" d="M36.8,6.5c5.3-0.9,10.6-1.9,15.9-2.8c11.7,1,22.7,3.8,31.9,11.5c5.9,4.9,11.2,10.2,15,16.9
		c1.4,2.4,3,4,5.9,2.2c11.6-1.1,23.2-1.3,34.8-0.1c2.6,1.2,4.9,1.4,6.7-1.6c3.8-6.6,9.1-11.9,14.6-17.1c0.9-0.7,1.8-1.3,2.7-2
		c8.3-5,17-8.8,26.9-9.3c22.7-1,40.9,12.6,46.1,34.7c0.7,3,1.1,6.2,1.7,9.2c-0.5,16-4.6,30.8-14,43.9c-0.6,0.8-1.3,1.4-2,2.1
		c-1.6-3.4-3.2-6.8-5.6-9.8c-1-3.2-2.8-5.9-5-8.4c-0.4-1.2-0.8-2.4-1.1-3.6c3-4.3,4.7-9.2,5.4-14.3c1.3-8.4,0.5-16.5-5.7-23.3
		c-13-14.4-35-6.8-44.1,6.2c4.1,3,9.7,3.3,13.3,7.3c-2-0.1-4-0.1-5.9-0.2c-12.9-0.6-24.9,2.4-35.9,9.1c-4.6,2-8.5,5.1-12.1,8.6
		c-1.1,1.1-2.2,2.2-3.3,3.2c-1.9,2.4-3.4,2.1-5.4-0.1c-4.3-4.8-9.3-8.7-15.1-11.7c-4.5-3.4-9.7-5.3-15-7c-7.4-2.5-15-2.4-22.6-2
		c4.2-1.9,8.3-4,12.5-5.8c2.4-1,2.7-2.1,0.8-3.9c-5.2-5-11-9-18.1-10.8c-14.4-3.6-28.6,5.5-30.1,19.6c-0.9,8.1,0.3,15.9,4.6,23
		c1.2,2.7-0.3,4.8-1.7,6.7c-3.9,5.3-7,11.1-9.9,17c-7.2-9.6-11.2-20.5-14.2-31.9c-3.6-22.7,4.2-41.2,21.8-52
		C32.5,8.9,34.7,7.7,36.8,6.5z"/>
	<path class="st0" d="M161.6,15.5c-5.5,5.2-10.8,10.5-14.6,17.1c-1.7,3-4,2.8-6.7,1.6c-0.4-2.6,1.8-3.3,3.3-4.5
		c3.7-2.8,6.6-6.3,8.7-10.4C155.8,19,157.3,13.8,161.6,15.5z"/>
	<path class="st5" d="M22.8,94c2.9-5.9,6-11.7,9.9-17c1.4-2,3-4,1.7-6.7c2.9,0.3,4.5-1.7,6.2-3.5c7.1-7.5,14.5-14.6,24.2-18.6
		c7.6-0.4,15.2-0.4,22.6,2c5.3,1.8,10.5,3.6,15,7c-4.8,1.5-9.6,2.6-12.4,7.8c-2.1,3.9-1.1,7.8-1.7,11.6c-14.7-4.4-28.8-3.7-41.7,5.5
		c-6.1,3.6-11,8.5-14.5,14.7c-5,5.6-7.2,12.5-8.5,19.7c-2.3,12.1-0.1,16.9,10.3,22.8c-0.1,2-0.4,3.8-2.5,4.8
		c-1.5,0.7-2.6,1.9-2.6,3.8l0,0c-2.9-0.3-3.7,1.6-4,3.9c-0.5,4.2,2.4,8.7,7.1,10.1c5.5,1.7,11,2.2,16.9,2.2c6,0,10.2-2.5,14.5-5.7
		c2.7-2,3.9-5,2.8-8.4c-0.9-2.6-8.6-7.1-10.9-6.6c-0.2,0.1-0.3,0.9-0.5,1.3c-3.2-1.1-6.6-0.9-10-1.1c0-0.8,0-1.7-0.1-2.5
		c3,0,5.9-0.2,8.9-0.1c13,0.2,26-0.6,38.6-4.1c9.4-2.7,17-7.2,20.2-17c1.8,1.8,0.9,4.1,1,6.1c0.1,3.4,1.5,5.2,5.2,4.9
		c2.5-0.2,4.9,0,7.4,0c1.5,0,3.1-0.1,3.4,2c-6.4,0.3-12.9-0.3-19.2,1c-3.2,0.6-6.6,1-8.7,4.1c-9.1,2.3-17.7,5.6-24.7,12.1
		c-9.8,9.1-10.5,20.2-2.3,31.1c1.3,2.7,2.9,5.2,5.6,6.8c4,4.7,8.8,8.4,14.5,10.8c2.9,2.3,6.4,3.2,9.8,4.2c7.4,3,15.1,3.9,23.1,3.2
		c12.2-0.9,22.9-5.6,32.8-12.5c4.5,0.7,7.6-1.6,10.2-4.8c1.1-1.4,1.3-3-0.5-4.3c0.1-0.5,0.3-1,0.4-1.5c0.3-0.1,0.6-0.2,0.9-0.4
		c2.6-0.2,3.1-1.9,2.9-4.1l0,0c4.2-0.2,7.4-2.2,9.8-5.7c0.4-0.7,1.3-1.1,1-2c-0.4-1.3-1.5-1.1-2.5-1c-1.1,0.1-2.7,1.5-3.1-0.8
		c-0.3-1.6-0.3-3.1,1.2-4.5c2.3-2.2,4.9-1.9,6.8-0.5c4.5,3.5,10.1,2,15,3.6c1.8,0.6,3.8-0.1,5.8-0.8c6.1-2.3,12-4.3,16.3-10.2
		c3.3-4.7,4.9-12.1,1.3-16.9c-1.7-2.2-3.1-4.6-4.7-7c0.4-0.6,0.7-1.2,1.1-1.8c4.2,0.3,8.1,0.4,6.1-5.9c-0.3-1-0.2-2.3,0.9-3.1
		c2.9,8.4,6.1,16.7,5,25.9c-1.2,0.7-1,1.9-1,2.9c0,1,0,2-0.1,3c-2.3,5.3-4.7,10.6-7,15.9c0,0,0,0,0,0c-3.2,1.4-3.6,5-5.7,7.3
		c-24.6,27.1-55.9,39-91.8,40.5c-9.9,0.4-19.8-0.7-29.6-1.9c-10.9-1.3-21.3-4.3-31.2-9.1c-13.4-6.6-26-14.4-36.8-24.9
		c-0.7-1.3-1.6-2.3-2.9-2.9c-0.4-0.3-0.7-0.7-1.1-1c0,0,0,0,0,0c-2.1-3.5-3.5-7.5-7-10c-0.2-1.6-0.7-3-2.1-4c0-0.8-0.1-1.5-0.9-1.9
		c0-0.4-0.1-0.7-0.1-1.1c-0.3-0.3-0.6-0.6-0.9-1c-1.5-7.9-4-15.7-3-23.9c0-0.6,0-1.3,0-1.9c3.6-4.2,3.5-9.5,3.8-14.5
		c0.2-3.1,2.9-6.3,0.2-9.5c0-0.6,0-1.3,0-1.9c1.9-0.1,2.4-1.6,2.8-3.1C20.8,101.4,21.8,97.7,22.8,94z M67.3,68
		c5.3-1.1,11.4-2.4,17.2-5c2-0.9,3.5-2.7,3.1-5.2c-0.4-2.5-2.4-3.4-4.7-3.8c-7.1-1.2-13.4,1.1-18.9,5.4c-1.9,1.5-2.8,3.7-2,6.2
		C62.6,67.7,64.5,68.1,67.3,68z"/>
	<path class="st6" d="M30.8,181.7c10.8,10.5,23.4,18.3,36.8,24.9c9.9,4.8,20.2,7.8,31.2,9.1c9.9,1.2,19.7,2.3,29.6,1.9
		c35.9-1.5,67.2-13.4,91.8-40.5c2.1-2.3,2.6-5.9,5.7-7.3c-0.2,3.7-2.4,6.5-4.6,9c-10.8,12.3-23.6,21.8-38.4,28.9
		c-14.9,7.2-30.8,11.1-46.8,12.4c-14.7,1.2-29.6-0.3-44.4-3.6c-14.6-3.2-27.8-9.2-40.5-16.3c-6.6-3.6-12.2-8.9-18.3-13.4
		c-0.4-0.9-1-1.6-2-2C30.8,183.7,30.8,182.7,30.8,181.7z"/>
	<path class="st5" d="M217.4,84.4c2.4,3,4,6.4,5.6,9.8c2,6.5,4.4,12.9,5,19.8c-1.9-0.1-3.1,0.5-3,2.7c0.1,1.4,0.2,3-1.8,3.3
		c-1.5-7.4-3.6-14.6-8.1-20.9c-0.8-1.6-1.7-3.2-2.5-4.8C218.4,93.1,216.3,88,217.4,84.4z"/>
	<path class="st7" d="M223.1,119.9c2.1-0.3,1.9-1.9,1.8-3.3c-0.1-2.2,1.1-2.8,3-2.7c1.5,2.5,0.9,5.3,1,8c-1.1,0.8-1.3,2-0.9,3.1
		c2.1,6.3-1.8,6.2-6.1,5.9C223.1,127.3,223.1,123.6,223.1,119.9z"/>
	<path class="st6" d="M225.9,169.7c2.3-5.3,4.7-10.6,7-15.9C232.7,160.1,231.2,165.7,225.9,169.7z"/>
	<path class="st6" d="M233,150.8c0-1.1-0.2-2.2,1-2.9C235.4,149.4,235.1,150.4,233,150.8z"/>
	<path class="st2" d="M22.8,94c-1,3.6-2,7.3-3.2,10.9c-0.4,1.4-0.9,2.9-2.8,3.1c3.3-12.2-3.6-22.2-7-33c-0.9-3-2-5.9-2.7-8.9
		c-0.4-1.5-0.8-3.4,1.6-4C11.7,73.5,15.7,84.5,22.8,94z"/>
	<path class="st2" d="M16.8,160.7c0,0.4,0,0.7,0.1,1.1c-1,1-2.3,1.4-2.7-0.1c-2.5-8-4.2-16.1-3.1-24.5c0.1-0.9,1-1.2,1.8-1.4
		c-1,8.2,1.5,16,3,23.9C16.2,160.1,16.5,160.4,16.8,160.7z"/>
	<path class="st2" d="M16.9,109.9c2.6,3.2,0,6.4-0.2,9.5c-0.3,4.9-0.2,10.3-3.8,14.5c-0.3-6.5,1.7-12.6,2.6-18.9
		C15.7,113.3,15.2,111.3,16.9,109.9z"/>
	<path class="st6" d="M19.8,167.7c3.5,2.5,4.9,6.5,7,10C22,176.1,20.9,171.9,19.8,167.7z"/>
	<path class="st6" d="M26.8,177.7c0.4,0.3,0.7,0.7,1.1,1C27.5,178.4,27.2,178,26.8,177.7z"/>
	<path class="st7" d="M129.4,132.9c-0.3-2.1-1.9-2-3.4-2c-2.5,0-5-0.2-7.4,0c-3.7,0.3-5-1.4-5.2-4.9c-0.1-2,0.9-4.3-1-6.1
		c1.3-22.4-5.3-34.3-24-43.3C89,72.8,88,68.9,90.1,65c2.8-5.2,7.6-6.3,12.4-7.8c5.8,2.9,10.8,6.9,15.1,11.7c2,2.2,3.6,2.5,5.4,0.1
		c2.6,0.5,3.7-0.6,3.3-3.2c3.6-3.5,7.5-6.5,12.1-8.6c3.2,0.4,6.2-0.5,9.5,1.8c4.6,3.1,7.1,9.9,4.6,15.1c-0.8,1.8-4.4,3.2-1.9,6.1
		c-2.3,1.8-4.3,4.1-7.2,5c-0.7-1.1-1.4-0.8-2.5-0.3c-8.1,4.4-10.6,10.8-8.4,22.1c0,0.6,0,1.3,0.1,1.9c-0.6,7.7,1,14.6,6.6,20.2
		c0,0.3,0.1,0.5,0.2,0.7c-0.1,0.3,0,0.6,0.1,0.9c-2.3,1.1-5.3,0.2-7.3,2.5C131.2,133.2,130.3,133,129.4,132.9z"/>
	<path class="st8" d="M180.2,48.2c-3.6-4-9.2-4.3-13.3-7.3C176,28,198,20.4,211,34.8c6.1,6.8,6.9,14.9,5.7,23.3
		c-0.8,5.1-2.4,10-5.4,14.3c-3.6-3.4-6.9-7.1-10.8-10.3c-5.8-4.8-11-10.5-18.5-13C181.6,48.3,180.9,48.1,180.2,48.2L180.2,48.2z"/>
	<path class="st8" d="M64.9,48.1c-9.7,4-17.1,11.1-24.2,18.6c-1.7,1.8-3.3,3.8-6.2,3.5c-4.3-7.1-5.5-14.9-4.6-23
		C31.4,33.2,45.6,24.1,60,27.7c7.1,1.8,12.9,5.8,18.1,10.8c1.9,1.8,1.6,2.8-0.8,3.9C73.1,44.2,69,46.2,64.9,48.1z"/>
	<path class="st5" d="M182,49.2c7.4,2.5,12.7,8.2,18.5,13c3.8,3.2,7.2,6.8,10.8,10.3c0.4,1.2,0.8,2.4,1.1,3.6
		c-5.4-0.3-9.9,0.7-11.2,6.9c-0.7-0.3-1.3-0.6-2-0.9c-3.8-3.1-8-5.2-12.8-6.3c-12.6-4.1-24.3-1.3-35.7,4.4c-2.5-2.9,1-4.3,1.9-6.1
		c2.5-5.2,0-12-4.6-15.1c-3.3-2.2-6.3-1.4-9.5-1.8c11-6.7,23-9.7,35.9-9.1c2,0.1,4,0.1,5.9,0.2c0,0,0-0.1,0-0.1
		C180.4,49.2,181.3,49,182,49.2z M179.7,67.2c3.8-0.1,4,0,4.3-1c0.6-1.7,0.1-3.2-0.8-4.7c-3.6-5.7-16.5-9.6-22.4-6.6
		c-1.6,0.8-2.7,1.9-2.7,3.8c0,2,0.8,3.9,2.5,4.4C166.6,64.9,172.3,67.9,179.7,67.2z"/>
	<path class="st7" d="M201.1,82.9c1.3-6.2,5.9-7.2,11.2-6.9c2.2,2.5,4.1,5.1,5,8.4c-1,3.6,1.1,8.7-4.9,9.9
		C208.7,90.5,204.9,86.7,201.1,82.9z"/>
	<path class="st5" d="M126.2,65.8c0.5,2.6-0.7,3.7-3.3,3.2C124.1,67.9,125.1,66.8,126.2,65.8z"/>
	<path class="st9" d="M88.4,76.6c18.8,9,25.4,20.9,24,43.3c-3.2,9.8-10.8,14.4-20.2,17c-12.7,3.6-25.6,4.3-38.6,4.1
		c-3,0-5.9,0.1-8.9,0.1c0,0,0.1-0.4,0.1-0.4c-2.3-1.7-4.6-3.9-7-0.1c-1.3-0.5-2.5-1-3.8-1.4c-10.4-5.9-12.6-10.7-10.3-22.8
		c1.4-7.2,3.6-14,8.5-19.7c4.5,0.5,8.3,2.1,9.8,6.8c0.7,2,2.3,3.1,3.7,4.4c-0.7,4.7-2.5,9.2-2.1,14.1c0.2,2.8,0.6,4.9,4.1,4.9
		c3.1,0,3.9-1.6,4.1-4.3c0.1-2.3,0.5-4.6,1.2-6.8c1.9-6.8,5.3-12.7,12.5-14.9c9.7-2.9,18.5,1.8,22.6,11.8c1.4,3.5,2,7.3,2.5,11.1
		c0.2,1.8,1,3.4,2.9,3.5c2,0.1,3-1.6,3-3.3c0.1-10.8-2.1-21-10.8-28.1c-9-7.3-19.9-7-30.9-0.1c-4.7-3.5-7.9-7.8-7.9-13.9
		C59.6,72.9,73.7,72.2,88.4,76.6z"/>
	<path class="st9" d="M139.4,129.9c-0.1-0.2-0.2-0.5-0.2-0.7c1.9-3.2,4.9-5.3,7.3-8c1.8-2.1,3.7-10.9,2.2-11.4
		c-3.5-1.3-5.9,1.8-8.7,3.1c-0.4,0.2-0.7,0.7-1.1,1c-2.4,1.6-4.4,2-4.5-1.9c0-1.4,0-2.7-1.8-3c0-0.6,0-1.3-0.1-1.9
		c1.4-1.3,1.3-3.3,1.8-4.9c1.6-4.7,3.2-9.5,6.9-13.1c5.8-2.3,6.7-1.7,8.2,4.9c0.8,3.2,0.9,6.1,0,9.2c-0.7,2.2-0.2,4,2.8,3.8
		c-1.5,5.4-2.5,10.9-2.1,16.6c0.1,1.9,0.2,4,2.6,4.1c2.1,0.1,2.3-1.8,2.6-3.6c0.7-3.9,1.2-7.8,2.8-11.5c3.2-7.5,10.8-12.9,18.1-12.5
		c7,0.3,13.3,5.7,15.9,13.7c1,3,1.9,6,2,9.2c0,2.8,1.3,4.6,4,4.6c2.7-0.1,3.9-1.9,4-4.7c0.2-4.3-0.6-8.6-1.2-12.8
		c2.1-0.1,2.8-2.1,4.2-2.9c3.8-2.2,4.5-8,9.8-8c4.5,6.3,6.6,13.5,8.1,20.9c0,3.7,0,7.4-1.2,10.9c-0.4,0.6-0.7,1.2-1,1.8
		c-4.6,5.5-10.6,8.1-17.8,8.2c-5.7-1.7-11.3-1.7-17,0c-0.6,0-1.3-0.1-1.9-0.1c-0.2-1,0.3-2.8-1.4-2.5c-3.1,0.5-6.1,1.7-7.2-2.8
		c-0.1-0.2-1.5-0.5-1.7-0.3c-1.6,2.6-4.9,2.1-6.8,4c-0.6-0.1-1.2-0.2-1.8-0.4c-0.3-0.5-0.6-0.6-1-0.1c-5.4-0.8-10.8-1.8-16-3.6
		c-2.7-1.4-5.3-2.8-8-4.2C140,130.6,139.7,130.3,139.4,129.9z"/>
	<path class="st10" d="M74.5,181.1c-8.2-10.8-7.5-21.9,2.3-31.1c7-6.5,15.6-9.8,24.7-12.1c0.1,1.6,0.8,2.9,1.7,4.1
		c8.8,11.5,31.4,11.1,40.1-0.6c0.9-1.2,1-2.4,1.3-3.7c1.2,0.1,2.4,0.2,3.7,0.4c3.9,1.7,7.9,3.3,11.7,5.2
		c16.4,8.1,20.6,18.6,14.1,35.5c0,0,0,0,0,0c-1.2,1.2-2.9,2.1-2.9,4.1c-0.3,0.1-0.6,0.2-0.9,0.4c-1.1-3.8-3.7-7.1-4.4-11.1
		c-0.1-0.9-1,0.7-1.6,0.8c2-3.9,0.7-9.1,4.9-12.2c1.7-1.3,1.2-3.2-0.4-4.1c-2.1-1.2-5.2-3.9-6.9-1.1c-2.7,4.6-7.1,5.3-11.1,6.4
		c-17.5,4.9-35.2,5.2-52.8,0.4c-5-1.4-10.7-1.5-14.2-6.7c-1.2-1.7-4.4-1-6.2,0.9c-1,1-2.7,2.4-1,3.7c3.4,2.9,3.2,7,4.3,10.7
		C78.8,174.2,74.8,176.5,74.5,181.1z"/>
	<path class="st7" d="M174.1,178.6c6.4-16.9,2.3-27.4-14.1-35.5c-3.8-1.9-7.8-3.5-11.7-5.2c0-0.9,0-1.9,0-2.8
		c5.2,1.8,10.6,2.8,16,3.6c0,0,0.5,0.1,0.5,0.1l0.5,0c0.6,0.1,1.2,0.2,1.8,0.4c5.7,1.1,11.3,1.7,17.1,1.7c0.6,0,1.3,0.1,1.9,0.1
		c5.7,0,11.3,0,17,0c7.2,0,13.2-2.6,17.8-8.2c1.5,2.3,3,4.7,4.6,7c3.6,4.8,2,12.2-1.3,16.9c-4.2,6-10.1,8-16.3,10.2
		c-1.9,0.7-4,1.4-5.8,0.8c-4.9-1.6-10.4-0.1-15-3.6c-1.9-1.5-4.5-1.7-6.8,0.5c-1.5,1.4-1.4,2.9-1.2,4.5c0.4,2.3,2,0.9,3.1,0.8
		c1,0,2.1-0.2,2.5,1c0.3,1-0.6,1.4-1,2C181.5,176.5,178.3,178.4,174.1,178.6z M201.6,143.8c-7.5,0-14,1.9-17.2,5.1
		c-3,3-3,5.8,0.1,8.5c6.9,6,22.3,7,30,2c6.2-4,6-9.6-0.5-13C210.2,144.4,206,143.6,201.6,143.8z"/>
	<path class="st11" d="M144.6,137.6c-0.3,1.3-0.5,2.5-1.3,3.7c-8.7,11.7-31.3,12.1-40.1,0.6c-0.9-1.2-1.6-2.5-1.7-4.1
		c2.1-3,5.5-3.4,8.7-4.1c6.4-1.2,12.8-0.7,19.2-1c0.9,0.1,1.9,0.3,2.8,0.4C136.4,134.4,141.3,133.8,144.6,137.6z"/>
	<path class="st12" d="M44.7,143.7c3.3,0.2,6.7,0,10,1.1c0.9,0.4,1.9,0.7,2.7,1.1c3,1.5,6.1,3.1,6.2,7c0.1,4.1-3.1,5.7-6.2,6.9
		c-8.5,3.1-17.1,3.4-25.5-0.5c-5.8-2.7-6.5-6-3.1-11.5c0,0,0,0,0,0C33.9,145.6,39,143.2,44.7,143.7z"/>
	<path class="st10" d="M160.2,193.6c-9.9,6.8-20.6,11.5-32.8,12.5c-8,0.6-15.7-0.2-23.1-3.2c2.7-1.6,4.7-3.6,4.1-7.1
		c9.7,2.9,19.4,2.8,29.1-0.1c6.4-1.9,11.7-5.8,17.3-9.2c1.6,0.1,3.1,0.3,3.6,2.4c0.4,1.6,1.4,2.9,3.3,3
		C161.2,192.5,160.7,193.1,160.2,193.6z"/>
	<path class="st10" d="M45.7,108c-1.4-1.4-3.1-2.4-3.7-4.4c-1.6-4.7-5.3-6.3-9.8-6.8c3.5-6.2,8.4-11.1,14.5-14.7
		c0,6.1,3.2,10.4,7.9,13.9C50.6,99.2,48.4,103.8,45.7,108z"/>
	<path class="st11" d="M67.3,68c-2.8,0-4.7-0.3-5.4-2.3c-0.9-2.4,0.1-4.7,2-6.2c5.6-4.3,11.8-6.5,18.9-5.4c2.3,0.4,4.2,1.3,4.7,3.8
		c0.4,2.5-1.1,4.3-3.1,5.2C78.7,65.6,72.6,67,67.3,68z"/>
	<path class="st9" d="M161.7,191.9c-1.9-0.1-2.9-1.4-3.3-3c-0.5-2.1-2-2.2-3.6-2.4c2.6-4.9,7.6-8.3,9.5-13.7
		c0.7-0.1,1.5-1.7,1.6-0.8c0.7,4.1,3.3,7.3,4.4,11.1c-0.1,0.5-0.3,1-0.4,1.5C167.2,187,164.5,189.4,161.7,191.9z"/>
	<path class="st7" d="M28.8,147.9c-3.5,5.4-2.7,8.8,3.1,11.5c8.4,3.9,17,3.6,25.5,0.5c3.1-1.1,6.3-2.7,6.2-6.9c-0.1-4-3.2-5.5-6.2-7
		c-0.9-0.4-1.8-0.8-2.7-1.1c0.2-0.5,0.3-1.3,0.5-1.3c2.3-0.5,10.1,4,10.9,6.6c1.1,3.3-0.2,6.4-2.8,8.4c-4.3,3.1-8.4,5.6-14.5,5.7
		c-5.9,0-11.4-0.6-16.9-2.2c-4.7-1.4-7.7-5.9-7.1-10.1C25.2,149.5,25.9,147.6,28.8,147.9z"/>
	<path class="st9" d="M74.5,181.1c0.4-4.6,4.4-6.9,6.4-10.4c2.6,4.3,5.2,8.7,7.8,13c-3.6-0.1-5.2,4-8.7,4.2
		C77.4,186.3,75.8,183.8,74.5,181.1z"/>
	<path class="st10" d="M80,187.8c3.5-0.2,5.1-4.3,8.7-4.2c2.3,2,4.6,4,6.9,6c-1.7,2.8-2,5.9-1.1,9C88.8,196.2,84,192.6,80,187.8z"/>
	<path class="st4" d="M94.5,198.7c-0.9-3.2-0.6-6.2,1.1-9c4.3,2,8.6,4.1,12.8,6.1c0.6,3.5-1.4,5.5-4.1,7.1
		C100.9,201.9,97.4,201,94.5,198.7z"/>
	<path class="st7" d="M44.7,143.7c-5.8-0.5-10.8,1.8-15.9,4.2c0-1.9,1.1-3.1,2.6-3.8c2.1-1,2.4-2.8,2.5-4.8c1.3,0.5,2.5,1,3.8,1.4
		c2.3-0.1,4.6,1.1,7,0.1c0,0-0.1,0.4-0.1,0.4C44.7,142.1,44.7,142.9,44.7,143.7z"/>
	<path class="st7" d="M161.7,191.9c2.7-2.4,5.5-4.9,8.2-7.3c1.8,1.2,1.6,2.8,0.5,4.3c-2.6,3.2-5.7,5.6-10.2,4.8
		C160.7,193.1,161.2,192.5,161.7,191.9z"/>
	<path class="st7" d="M171.2,182.7c0-2,1.7-2.9,2.9-4.1C174.3,180.8,173.8,182.5,171.2,182.7z"/>
	<path class="st6" d="M16.8,160.7c-0.3-0.3-0.6-0.6-0.9-1C16.2,160.1,16.5,160.4,16.8,160.7z"/>
	<path class="st10" d="M215,99c-5.3,0.1-6.1,5.9-9.8,8c-1.4,0.8-2.1,2.9-4.2,2.9c-2.2-5.1-4.8-9.9-8.9-13.7c3.1-4.3,7.5-8.1,7-14.2
		c0.7,0.3,1.3,0.6,2,0.9c3.8,3.8,7.6,7.5,11.4,11.3C213.3,95.8,214.2,97.4,215,99z"/>
	<path class="st10" d="M152.3,107c-3,0.2-3.4-1.7-2.8-3.8c1-3.1,0.8-6.1,0-9.2c-1.6-6.5-2.4-7.2-8.2-4.9c-0.1-1.7,1.4-2.5,2.1-3.8
		c2.9-0.9,4.9-3.2,7.2-5c11.4-5.7,23.1-8.5,35.7-4.4c-2.5,5.1-6.2,9.6-8.1,15.1C165.6,90,157.6,96.4,152.3,107z"/>
	<path class="st10" d="M132.6,109c1.8,0.3,1.8,1.6,1.8,3c0.1,3.9,2.1,3.4,4.5,1.9c0.4-0.3,0.7-0.8,1.1-1c2.9-1.3,5.2-4.4,8.7-3.1
		c1.4,0.5-0.4,9.3-2.2,11.4c-2.4,2.7-5.5,4.8-7.3,8C133.5,123.6,131.9,116.7,132.6,109z"/>
	<path class="st5" d="M143.4,85.2c-0.7,1.3-2.2,2.1-2.1,3.8c-3.8,3.6-5.3,8.4-6.9,13.1c-0.6,1.6-0.4,3.6-1.8,4.9
		c-2.2-11.3,0.3-17.7,8.4-22.1C142,84.4,142.7,84.1,143.4,85.2z"/>
	<path class="st5" d="M144.6,137.6c-3.3-3.8-8.2-3.2-12.4-4.3c2-2.2,5-1.3,7.3-2.5c0.3,0,0.6,0.1,0.8,0.1c2.7,1.4,5.3,2.8,8,4.2
		c0,0.9,0,1.9,0,2.8C147,137.8,145.8,137.7,144.6,137.6z"/>
	<path class="st10" d="M140.3,131c-0.3,0-0.6-0.1-0.8-0.1c-0.1-0.3-0.1-0.6-0.1-0.9C139.7,130.3,140,130.6,140.3,131z"/>
	<path class="st4" d="M182,49.2c-0.7-0.2-1.6,0-1.9-1C180.9,48.1,181.6,48.3,182,49.2z"/>
	<path class="st11" d="M179.7,67.2c-7.5,0.8-13.1-2.3-19.1-4.1c-1.7-0.5-2.5-2.4-2.5-4.4c0-1.9,1.1-3,2.7-3.8
		c5.9-3,18.8,0.9,22.4,6.6c0.9,1.5,1.4,3,0.8,4.7C183.7,67.1,183.5,67.1,179.7,67.2z"/>
	<path class="st9" d="M178.2,90.9c2-5.4,5.7-9.9,8.1-15.1c4.7,1.1,9,3.2,12.8,6.3c0.4,6.1-3.9,9.8-7,14.2
		C187.6,93.9,183.4,91.1,178.2,90.9z"/>
	<path class="st11" d="M45.7,108c2.7-4.2,4.9-8.8,8.9-12c10.9-6.9,21.9-7.3,30.9,0.1c8.7,7.1,10.9,17.3,10.8,28.1c0,1.7-1,3.4-3,3.3
		c-1.9-0.1-2.6-1.7-2.9-3.5c-0.5-3.8-1-7.5-2.5-11.1c-4.1-10-12.9-14.8-22.6-11.8c-7.2,2.2-10.6,8-12.5,14.9c-0.6,2.2-1,4.5-1.2,6.8
		c-0.2,2.7-1,4.4-4.1,4.3c-3.5-0.1-3.8-2.2-4.1-4.9C43.2,117.2,45.1,112.7,45.7,108z"/>
	<path class="st10" d="M44.7,140.9c-2.3,1-4.6-0.2-7-0.1C40.2,137,42.4,139.2,44.7,140.9z"/>
	<path class="st11" d="M178.2,90.9c5.2,0.3,9.5,3,13.9,5.4c4.1,3.9,6.7,8.7,8.9,13.7c0.6,4.2,1.4,8.5,1.2,12.8
		c-0.1,2.8-1.3,4.6-4,4.7c-2.8,0.1-4-1.8-4-4.6c0-3.2-1-6.2-2-9.2c-2.7-8-9-13.4-15.9-13.7c-7.2-0.3-14.8,5-18.1,12.5
		c-1.6,3.7-2.1,7.6-2.8,11.5c-0.3,1.7-0.5,3.6-2.6,3.6c-2.4-0.1-2.5-2.2-2.6-4.1c-0.4-5.7,0.5-11.2,2.1-16.6
		C157.6,96.4,165.6,90,178.2,90.9z"/>
	<path class="st10" d="M184.1,140.9c-5.8,0-11.4-0.6-17.1-1.7c2-1.9,5.3-1.4,6.8-4c0.1-0.2,1.6,0,1.7,0.3c1.1,4.5,4.1,3.4,7.2,2.8
		C184.5,138,183.9,139.8,184.1,140.9z"/>
	<path class="st10" d="M203.1,140.9c-5.7,0-11.3,0-17,0C191.7,139.2,197.4,139.3,203.1,140.9z"/>
	<path class="st10" d="M165.2,138.8l-0.5,0c0,0-0.5-0.1-0.5-0.1C164.6,138.2,164.9,138.3,165.2,138.8z"/>
	<path class="st13" d="M108.5,195.8c-4.3-2-8.6-4.1-12.8-6.1c-2.3-2-4.6-4-6.9-6c-2.6-4.3-5.2-8.7-7.8-13c-1.1-3.7-0.9-7.8-4.3-10.7
		c-1.6-1.3,0-2.7,1-3.7c1.9-1.9,5.1-2.6,6.2-0.9c3.6,5.2,9.2,5.4,14.2,6.7c17.6,4.8,35.3,4.5,52.8-0.4c4.1-1.1,8.4-1.8,11.1-6.4
		c1.7-2.8,4.8-0.1,6.9,1.1c1.6,0.9,2.1,2.9,0.4,4.1c-4.2,3.1-3,8.3-4.9,12.2c-1.9,5.5-6.9,8.8-9.5,13.7c-5.6,3.4-10.9,7.3-17.3,9.2
		C127.9,198.6,118.2,198.7,108.5,195.8z M144.5,188.8C144.5,188.8,144.4,188.8,144.5,188.8c0.6-0.3,1.2-0.7,1.8-1.1
		c0.4-0.2,0.7-0.4,1.1-0.7c9.8-6.2,15-15.2,16.9-27c-5.6,2.6-10.7,4.3-16,5.8c-0.7,0.1-1.4,0.3-2,0.4c-1,0.3-2,0.5-3,0.8
		c-0.8-0.1-1.5-0.1-2.1,0.6c-0.6,0.1-1.3,0.2-1.9,0.3c-1.4-0.1-2.8-0.2-4.1,0.6c-3.3,0.2-6.6,0.4-9.8,0.6c-0.3-0.2-0.6-0.2-0.9,0
		c-1,0-2.1,0-3.1,0c-0.6,0-1.3,0-1.9,0c-3.3-0.3-6.6-0.6-9.8-0.9c-3.2-0.6-6.3-1.1-9.5-1.7c-0.2-0.2-0.4-0.3-0.7-0.3
		c-5.6-1.6-11.2-3.4-17.1-6.2c1.7,11.7,6.6,20.8,16.2,26.9c0.3,0.8,0.9,1,1.6,1.1l0.2-0.1c0.4,0.3,0.8,0.6,1.2,0.9
		c1.9,1.7,4.2,2.7,6.7,3c4.1,2.1,8.6,2.5,13.2,2.7c1,0,2.1,0,3.1,0c6,0.1,11.7-1,16.9-4.1c0.7,0.2,0.8-0.3,1-0.8
		c0.3-0.1,0.7-0.2,1-0.3C143.9,189.6,144.3,189.3,144.5,188.8z"/>
	<path class="st12" d="M201.6,143.8c4.4-0.2,8.6,0.5,12.5,2.6c6.5,3.4,6.7,9,0.5,13c-7.7,5-23.2,4-30-2c-3.1-2.7-3.1-5.4-0.1-8.5
		C187.7,145.8,194.2,143.8,201.6,143.8z"/>
	<path class="st14" d="M141.3,190.4c-5.2,3-10.9,4.1-16.9,4.1c0-8.2,0.1-16.5,0.1-24.7c0.3-0.3,0.5-0.5,0.8-0.8
		c3.3-0.2,6.6-0.4,9.8-0.6c1.6,1.8,3.1,2.3,4.1-0.6c0.6-0.1,1.3-0.2,1.9-0.3c1.2,1.6,1.7,0.9,2.1-0.6c1-0.3,2-0.5,3-0.8
		c0.2,6.8-0.4,13.7-1,20.5c-0.8,0.5-0.9,1.3-0.9,2.1c0,0,0.1,0,0.1,0c-0.4,0.2-0.8,0.4-1.1,0.6c-0.3,0.1-0.7,0.2-1,0.3
		C142,189.9,141.7,190.2,141.3,190.4z"/>
	<path class="st14" d="M108.2,191.8c-2.5-0.4-4.8-1.4-6.7-3c-0.4-0.3-0.8-0.6-1.2-0.9c0,0-0.2,0.1-0.2,0.1c1.1-6.1,0-12.2,0.4-18.2
		c3-0.7,6.6,1.6,9.1-1.7c3.3,0.3,6.6,0.6,9.8,0.9c0.6,0.3,1.3,0.5,1.9,0.8c0,7.3,0,14.6,0.1,21.9C117,191.7,112.6,191.7,108.2,191.8
		z"/>
	<path class="st3" d="M98.5,186.9c-9.6-6.2-14.5-15.2-16.2-26.9c5.9,2.7,11.5,4.6,17.1,6.2C97.3,173,99,180,98.5,186.9z"/>
	<path class="st3" d="M148.3,165.8c5.2-1.5,10.4-3.3,16-5.8c-2,11.8-7.2,20.8-16.9,27C149.2,180,147.9,172.9,148.3,165.8z"/>
	<path class="st2" d="M121.4,191.7c0-7.3,0-14.6-0.1-21.9c0-0.3,0-0.5,0-0.8c1,0,2.1,0,3.1,0c0,0.3,0.1,0.5,0.1,0.8
		c0,8.2-0.1,16.5-0.1,24.7c-1,0-2.1,0-3.1,0C121.4,193.6,121.4,192.6,121.4,191.7z"/>
	<path class="st2" d="M148.3,165.8c-0.5,7,0.9,14.2-1,21.2c-0.4,0.2-0.7,0.4-1.1,0.7c-0.3-0.3-0.7-0.6-1-1c0.6-6.8,1.3-13.6,1-20.5
		C147,166.1,147.6,166,148.3,165.8z"/>
	<path class="st6" d="M98.5,186.9c0.5-6.9-1.1-13.9,0.9-20.7c0.3,0,0.5,0.1,0.7,0.3c0.1,1.1,0.3,2.2,0.4,3.3
		c-0.4,6.1,0.7,12.2-0.4,18.2C99.4,187.9,98.7,187.6,98.5,186.9z"/>
	<path class="st3" d="M121.4,191.7c0,1,0,1.9,0,2.9c-4.5-0.2-9-0.6-13.2-2.7C112.6,191.7,117,191.7,121.4,191.7z"/>
	<path class="st3" d="M100.5,169.8c-0.1-1.1-0.3-2.2-0.4-3.3c3.2,0.6,6.3,1.1,9.5,1.7C107.1,171.4,103.5,169,100.5,169.8z"/>
	<path class="st3" d="M139.3,167.9c-1,2.9-2.5,2.3-4.1,0.6C136.5,167.7,137.9,167.7,139.3,167.9z"/>
	<path class="st3" d="M145.3,186.7c0.3,0.3,0.7,0.6,1,1c-0.6,0.4-1.3,0.8-1.9,1.2C144.3,188,144.4,187.2,145.3,186.7z"/>
	<path class="st3" d="M143.3,167c-0.3,1.5-0.9,2.2-2.1,0.6C141.8,166.9,142.5,166.9,143.3,167z"/>
	<path class="st3" d="M121.4,168.9c0,0.3,0,0.5,0,0.8c-0.6-0.3-1.3-0.5-1.9-0.8C120.1,168.9,120.7,168.9,121.4,168.9z"/>
	<path class="st3" d="M124.6,169.7c-0.1-0.3-0.1-0.5-0.1-0.8c0.3-0.2,0.6-0.2,0.9,0C125.1,169.2,124.8,169.5,124.6,169.7z"/>
	<path class="st3" d="M141.3,190.4c0.3-0.3,0.7-0.5,1-0.8C142.2,190.2,142,190.7,141.3,190.4z"/>
	<path class="st3" d="M143.3,189.4c0.4-0.2,0.8-0.4,1.1-0.6C144.3,189.3,143.9,189.6,143.3,189.4z"/>
	<path class="st3" d="M100.3,187.8c0.4,0.3,0.8,0.6,1.2,0.9C101.1,188.4,100.7,188.1,100.3,187.8z"/>
</g>
</svg>
