<?xml version="1.0" encoding="utf-8"?>
<!-- Generator: Adobe Illustrator 26.0.3, SVG Export Plug-In . SVG Version: 6.00 Build 0)  -->
<svg version="1.1" id="Capa_1" xmlns="http://www.w3.org/2000/svg" xmlns:xlink="http://www.w3.org/1999/xlink" x="0px" y="0px"
	 viewBox="0 0 249.7 228.3" style="enable-background:new 0 0 249.7 228.3;" xml:space="preserve">
<style type="text/css">
	.st0{fill:#EBE5E1;}
	.st1{fill:#EFD5B1;}
	.st2{fill:#96775E;}
	.st3{fill:#ECC8C7;}
	.st4{fill:#46301F;}
</style>
<g>
	<path class="st0" d="M63,1.2c17.1,1.2,32.5,6.7,43.3,21c3.6,4.8,7.9,7.5,13.3,7.1c5.6-0.4,10.9,1.5,16.6,0.2c3.6-0.9,6.4-2.5,8.8-5
		c4.6-4.7,8.8-9.8,13.7-14.1c8.6-7.4,19.5-9,30.3-10.1c11.6-1.2,22.2,1.9,32.4,7.1c2.4,1.3,4.7,3.1,6.7,5
		c9.6,8.9,16.5,19.4,19.4,32.5c4.1,17.9,2.3,35-4.5,52c-4.5,11.3-7.9,23.1-3.6,35.5c3.4,9.8,2.6,19.9,0.9,29.9
		c-1.3,7.2-5.8,13.1-9.7,19.1c-5.5,8.6-13.3,15.3-21.3,21.4c-7.3,5.6-15.4,10.4-24.4,13.6c-6.8,2.4-13.4,5.4-20.3,7
		c-9.5,2.2-19,5-29,4.5c-1.4-0.1-2.9,0.4-4.4,0.5c-14.8,0.9-29.1-2.3-43.5-5.5c-12.4-2.8-24.3-7.4-34.8-14
		c-17.2-10.9-33.6-23.2-41.5-43.2c-4.5-11.4-6.2-23-2.9-35.2c2.3-8.7,2.2-17.9,4.7-26.7c0.7-2.5-1.6-4.3-2.1-6.5
		C8.3,84.6,3.8,72.5,4.3,59.4c0.7-18,7.4-33.6,21-45.1C35.8,5.5,49,1.6,63,1.2z M191.6,206.4l0.1-0.1c2,0.3,3.5-0.8,5.1-1.5
		c4-1.7,7-4.9,10.6-7.1c7.4-4.5,13.7-10.1,18.5-17.3c0.9-1.4,2.5-3,0.6-4.8c0.1-1.9,2.6-2.7,2.1-4.9c0.8-0.2,1.5-0.5,2-1.3
		c5.3-9.3,7.7-19.3,6.7-29.9c-0.2-1.9,0.3-4.9-2.8-5.7c-0.7-1.2-1.1-2.5-1-4c-0.1-2.6-0.4-5.2-0.6-7.8c-0.8-7.7-2.8-16,1.9-22.9
		c5.3-7.8,6-16.8,8.3-25.5c0.4-1.6,1.3-3.7-1.3-4.5c0.3-7.3,1.1-14.5-0.2-21.8C237.7,25,222,9.4,199.3,5.5
		c-19.8-3.4-41.1,7.1-51,25.4c-1.9,3.6-4.1,4.6-7.9,4c-8.1-1.2-16.3-1.7-24.3-0.4c-6.6,1.1-9.4-1.2-12.8-6.4
		c-20.8-32-66.7-30.4-85.8,2.7c-3.3,5.7-4.8,11.9-6.3,18.2C8,50,8.6,52.7,8.4,55.1c-1,12.2,1.4,24.1,4.7,35.6
		c3.7,12.8,2.5,25.3,0.1,37.9c-1.7,8.7-5,16.8-2.1,26.3c3.9,12.5,9.4,23.8,18.9,32.3c11.1,9.9,23,18.9,37.7,23.7
		c16.3,5.3,32.1,12.1,49.7,11.4c2.5-0.1,5,2.4,7.5,0c0.7,0,1.3,0,2,0c0.7,1,1.3,1,2,0c1,0,2,0,3-0.1c8.9,0.8,17.6-0.5,26.3-1.9
		c1.3-0.2,2.1-0.9,2.6-2c0.7,0,1.3,0,2-0.1c8-0.7,15-4.5,22.1-7.6C187.2,209.6,190.8,210,191.6,206.4z"/>
	<path class="st1" d="M126.9,222.3c-0.7,0-1.3,0-2,0c-1.7-1.4-3.8-1.9-6-2c-11.5-0.2-22.5-2.9-33.5-5.8
		c-14.6-3.9-27.7-10.6-39.9-19.3c-11.9-8.4-21.5-18.8-26.8-32.7c-3.1-8.2-6.5-16.3-5-25.3c0.8-5,3-9.7,3.2-14.8
		c0.4-8.3,2.9-16.2,4.3-24.2c4.6-9.1,9.3-18,15.8-25.9c0.4-0.5,0.3-1.6,0.5-2.4c1.4,0.1,2.6-0.3,3.5-1.4c3.6-4.2,8.1-7,12.6-10
		c5-3.3,9.6-7.1,14.4-10.6c1.5,1.3,3.4,1,5.2,1.1c3.3,0.1,6.6-0.1,9.9,0.5c13.9,2.5,25.1,9.8,35,19.5c2.3,2.3,3.6,2.9,6.1,0.1
		c4.9-5.4,11.1-9.3,17.5-12.9c12.6-6.9,26-8.3,40-7.2c0.5-0.1,1.1-0.5,1.4-0.3c11.6,7.1,21.8,15.8,30.4,26.4
		c5.4,9.3,11,18.5,13.8,28.9c1.1,6.4,3.4,12.5,3.3,19.2c0,2-0.1,5.1,2.7,6.4c-0.1,1.4,0.3,2.8,1,4c2.1,10.3,0.8,20.1-3.6,29.7
		c-1,2.1-4,4.1-2.3,7.2c0.5,2.1-1.9,3-2.1,4.9c-1.1,1-2.5,1.8-3.3,2.9c-5.9,8.7-14,15-22.7,20.8c-3.1,2.1-6.7,3.7-8.9,7.1
		c0,0-0.1,0.1-0.1,0.1c-10.1,2.1-19.2,6.8-28.6,10.9c-0.2,0.1-0.2,0.6-0.3,0.9c-0.7,0-1.3,0-2,0.1c-0.7-0.9-1.6-1-2.7-0.9
		c-7.9,1.3-15.7,3.3-23.8,2.9c-1.3-0.1-2.2,0.5-2.4,1.9c-1,0-2,0-3,0.1C128.3,221.3,127.6,221.3,126.9,222.3z M102.5,138.4
		c-8.3,1.3-15.2,5.3-21.5,10.5c-11.1,9.2-12.3,22.2-2.8,33.1c17.6,20.4,43.7,27.2,68.9,17.3c12-4.7,22.4-11.8,28.5-23.5
		c5-9.6,3.5-17.7-3.8-24.6c-7.4-6.9-15.8-11.7-25.9-13.4c-1-0.8-1.8-1.8-3.2-2.2c-12-3.3-24-3.6-36.1-0.6
		C104.6,135.6,103.1,136.5,102.5,138.4z M190.6,139.5c5.3,0,10.6,0.3,15.9-0.1c11.5-0.9,17.3-7.5,17.1-18.9
		c-0.2-10.4-4.8-19.2-10.8-27.2c-11.1-14.6-24.9-23.5-44.3-20.3c-17,2.8-29.6,11.2-33.7,28.6c-4.7,19.9,1.7,29.3,19.7,34.4
		C166.3,139.3,178.4,139.6,190.6,139.5z M55,138.8c14.1-0.3,28.1-1.1,41.8-5c12.6-3.6,18.1-10.6,18-23.4
		C114.7,81,88.1,67.1,63.3,72.6c-19.8,4.4-38,27.4-38.8,48c-0.4,8.9,4,14.8,12.7,17.1C43.1,139.3,49.1,138.5,55,138.8z M78.9,68.8
		c3.8,0.2,7.7-0.4,11.3-2.3c1.8-0.9,3.6-2.2,3.5-4.4c-0.1-2.5-2.2-3.5-4.2-4.3c-3.7-1.4-7.3-0.5-11.1,0c-4.2,0.6-8.9,1.3-8.8,5.9
		C69.6,68.7,74.6,68.8,78.9,68.8z M171.6,69.9c0.3,0,2-0.1,3.6-0.4c2.5-0.5,5.1-1.4,5.3-4.4c0.2-2.8-2.1-4.4-4.5-5.2
		c-4.9-1.6-9.9-2.5-15.1-1c-2,0.6-3.8,1.4-4.1,3.8c-0.3,2.3,1.4,3.6,3.1,4.7C163,69.4,166.5,70,171.6,69.9z"/>
	<path class="st2" d="M181.8,49c-13.9-1.1-27.4,0.3-40,7.2c-6.5,3.5-12.6,7.5-17.5,12.9c-2.5,2.7-3.7,2.1-6.1-0.1
		c-9.8-9.7-21.1-17-35-19.5c-3.3-0.6-6.6-0.4-9.9-0.5c-1.8,0-3.7,0.2-5.2-1.1c5.6-3.2,11.8-5.3,18.1-7.7
		c-5.9-5.4-12.6-8.8-20.1-10.3C53.1,27.2,40,35.1,36.8,48c-1.8,7.3-1.5,14.7,0.8,21.9c-0.1,0.8,0,1.8-0.5,2.4
		c-6.5,7.9-11.3,16.8-15.8,25.9c-6.8-15.7-11.3-31.8-10-49.1c1.5-6.3,3.1-12.5,6.3-18.2c19-33.1,65-34.8,85.8-2.7
		c3.4,5.2,6.2,7.5,12.8,6.4c7.9-1.3,16.2-0.8,24.3,0.4c3.8,0.6,6-0.5,7.9-4c9.9-18.4,31.1-28.8,51-25.4C222,9.4,237.7,25,241.6,47.2
		c1.3,7.3,0.4,14.5,0.2,21.8c-2,7.3-3.2,14.8-6.3,21.7c-2.1,4.7-3.7,9.9-8,13.3c-2.8-10.5-8.4-19.7-13.8-28.9
		c4-4.5,4.2-10.4,4.4-15.8c0.6-14.4-6-27.6-22.9-29.8c-11.2-1.4-20.3,4.4-29.3,11C171.3,43.9,177.6,44.6,181.8,49z"/>
	<path class="st3" d="M11.3,49.1c-1.3,17.3,3.2,33.5,10,49.1c-1.4,8.1-4,16-4.3,24.2c-0.2,5.1-2.4,9.8-3.2,14.8
		c-1.5,9,1.9,17.1,5,25.3c5.3,14,14.9,24.3,26.8,32.7c12.2,8.6,25.3,15.4,39.9,19.3c11,2.9,22,5.7,33.5,5.8c2.2,0,4.2,0.5,6,2
		c-2.5,2.5-5-0.1-7.5,0c-17.6,0.6-33.4-6.1-49.7-11.4C53,206.1,41.1,197.2,30,187.2c-9.5-8.5-15.1-19.8-18.9-32.3
		c-3-9.6,0.4-17.6,2.1-26.3c2.4-12.6,3.6-25-0.1-37.9C9.8,79.2,7.4,67.3,8.4,55.1C8.6,52.7,8,50,11.3,49.1z"/>
	<path class="st3" d="M227.5,104c4.3-3.5,5.8-8.6,8-13.3c3.1-6.9,4.4-14.5,6.3-21.7c2.6,0.8,1.8,2.9,1.3,4.5
		c-2.3,8.6-3,17.6-8.3,25.5c-4.7,7-2.7,15.2-1.9,22.9c0.3,2.6,0.6,5.2,0.6,7.8c-2.8-1.3-2.7-4.4-2.7-6.4
		C230.9,116.6,228.6,110.4,227.5,104z"/>
	<path class="st3" d="M191.7,206.3c2.1-3.4,5.8-5.1,8.9-7.1c8.7-5.8,16.7-12.1,22.7-20.8c0.8-1.2,2.2-2,3.3-2.9
		c2,1.9,0.3,3.4-0.6,4.8c-4.7,7.3-11.1,12.8-18.5,17.3c-3.6,2.2-6.6,5.4-10.6,7.1C195.2,205.5,193.7,206.6,191.7,206.3z"/>
	<path class="st3" d="M228.6,170.6c-1.7-3.1,1.3-5.1,2.3-7.2c4.4-9.6,5.7-19.4,3.6-29.7c3.1,0.8,2.6,3.8,2.8,5.7
		c1,10.6-1.4,20.6-6.7,29.9C230.2,170.1,229.5,170.4,228.6,170.6z"/>
	<path class="st3" d="M162.8,218.2c0.1-0.3,0.1-0.8,0.3-0.9c9.3-4.1,18.5-8.8,28.6-10.9c-0.8,3.6-4.4,3.2-6.7,4.2
		C177.7,213.7,170.8,217.5,162.8,218.2z"/>
	<path class="st3" d="M131.9,222.2c0.2-1.4,1.1-1.9,2.4-1.9c8.1,0.3,15.9-1.6,23.8-2.9c1-0.2,2-0.1,2.7,0.9c-0.5,1.1-1.4,1.8-2.6,2
		C149.5,221.7,140.8,223,131.9,222.2z"/>
	<path class="st3" d="M126.9,222.3c0.7-1,1.3-1,2,0C128.3,223.3,127.6,223.3,126.9,222.3z"/>
	<path class="st2" d="M145.7,137.9c10.1,1.7,18.6,6.6,25.9,13.4c7.4,6.9,8.8,15,3.8,24.6c-6.1,11.8-16.5,18.9-28.5,23.5
		c-25.2,9.8-51.2,3.1-68.9-17.3c-9.5-11-8.3-23.9,2.8-33.1c6.4-5.3,13.3-9.3,21.5-10.5c3.2,6.3,9.1,9,15.2,11.1
		C127.5,152.9,140.9,147.2,145.7,137.9z M154.8,171.5c-7.5,3.2-15,2.2-22.7,0.2c-4.1-1-8.2-2.4-12.6-1.1c-9.1,2.7-18.2,4.4-27.5,0.9
		c-0.1-0.2-0.3-0.3-0.4-0.5c0,0.1,0,0.3,0.1,0.3c0.1,0.1,0.3,0.1,0.4,0.2c4.1,4.1,9.1,5.7,14.8,5.2c9.9-0.8,19.8-3.4,29.9-0.4
		C143.4,178.3,149.9,177.1,154.8,171.5c0.4-0.1,0.9-0.1,1.3-0.2c-0.1-0.2-0.2-0.3-0.3-0.5C155.4,171,155.1,171.3,154.8,171.5z"/>
	<path class="st2" d="M190.6,139.5c-12.2,0.1-24.3-0.2-36.1-3.6c-18-5.1-24.4-14.4-19.7-34.4c4.1-17.4,16.7-25.8,33.7-28.6
		c19.4-3.2,33.3,5.7,44.3,20.3c6.1,8,10.6,16.8,10.8,27.2c0.2,11.4-5.6,18-17.1,18.9C201.2,139.9,195.9,139.5,190.6,139.5z
		 M147.9,127.4c1.8,0.3,3.6,0.5,5.3,1c13.7,4,27.5,4.5,41.5,2.1c2.3-0.4,5.1-0.2,6.4-3c3.1,0.5,5-0.3,5.5-3.8
		c1.9-15.8-4.7-32.4-19.2-39.8c-12-6.1-26.3-4.6-35.4,4.2c-10.6,10.3-11.1,23.1-9.6,36.4C142.7,128.2,144.8,129,147.9,127.4z"/>
	<path class="st2" d="M55,138.8c-5.9-0.3-11.9,0.5-17.8-1.1c-8.6-2.3-13-8.2-12.7-17.1c0.8-20.5,19-43.5,38.8-48
		c24.8-5.6,51.4,8.4,51.5,37.8c0.1,12.8-5.4,19.8-18,23.4C83.1,137.6,69.1,138.5,55,138.8z M86.1,130.5c5.1,0,9.5-3.3,14.6-2.9
		c4,0.6,5.8-0.7,5.5-5.1c-0.3-4.6,0.3-9.3-0.3-13.9c-1.3-10.9-4.8-20.7-15.7-25.8C78,77.2,66,78.5,55.5,86.4
		c-12,9.1-16.4,22-14.8,36.9c0.4,3.4,1.9,5.1,5.5,4.3c1.7,2.5,4.6,2.5,7,3C64.2,132.8,75.1,133,86.1,130.5z"/>
	<path class="st3" d="M181.8,49c-4.2-4.5-10.6-5.1-15.9-8.5c8.9-6.6,18-12.5,29.3-11c16.9,2.2,23.4,15.4,22.9,29.8
		c-0.2,5.4-0.4,11.3-4.4,15.8c-8.6-10.5-18.9-19.2-30.4-26.4C182.9,48.6,182.3,48.9,181.8,49z"/>
	<path class="st3" d="M37.6,69.9C35.3,62.7,35,55.3,36.8,48c3.2-12.9,16.3-20.8,29.4-18c7.6,1.6,14.3,5,20.1,10.3
		C80,42.6,73.8,44.7,68.2,48c-4.8,3.6-9.4,7.4-14.4,10.6c-4.5,3-9.1,5.8-12.6,10C40.2,69.7,39,70,37.6,69.9z"/>
	<path class="st4" d="M145.7,137.9c-4.8,9.4-18.2,15.1-28,11.7c-6.2-2.1-12.1-4.8-15.2-11.1c0.6-1.9,2.1-2.9,3.9-3.3
		c12.1-3.1,24.1-2.7,36.1,0.6C143.9,136.1,144.7,137.1,145.7,137.9z"/>
	<path class="st4" d="M78.9,68.8c-4.3,0-9.3-0.1-9.3-5c-0.1-4.7,4.6-5.3,8.8-5.9c3.8-0.6,7.4-1.5,11.1,0c2.1,0.8,4.1,1.8,4.2,4.3
		c0.1,2.2-1.7,3.5-3.5,4.4C86.6,68.4,82.7,69,78.9,68.8z"/>
	<path class="st4" d="M171.6,69.9c-5,0.1-8.6-0.5-11.8-2.5c-1.7-1.1-3.3-2.4-3.1-4.7c0.3-2.3,2.1-3.2,4.1-3.8
		c5.1-1.6,10.2-0.6,15.1,1c2.4,0.8,4.7,2.4,4.5,5.2c-0.2,3-2.8,3.9-5.3,4.4C173.6,69.8,171.9,69.9,171.6,69.9z"/>
	<path class="st4" d="M92,171.5c9.3,3.6,18.4,1.8,27.5-0.9c4.4-1.3,8.5,0,12.6,1.1c7.6,1.9,15.1,3,22.7-0.2l0,0
		c-4.9,5.6-11.4,6.8-18,4.8c-10.1-3-20-0.4-29.9,0.4C101.1,177.2,96.2,175.6,92,171.5L92,171.5z"/>
	<path class="st4" d="M154.8,171.5c0.3-0.2,0.6-0.5,1-0.7c0.1,0.2,0.2,0.3,0.3,0.5C155.7,171.4,155.2,171.4,154.8,171.5
		C154.8,171.5,154.8,171.5,154.8,171.5z"/>
	<path class="st4" d="M92.1,171.5c-0.1-0.1-0.3-0.1-0.4-0.2c-0.1,0,0-0.2-0.1-0.3C91.7,171.2,91.9,171.4,92.1,171.5
		C92,171.5,92.1,171.5,92.1,171.5z"/>
	<path class="st4" d="M147.9,127.4c-3.1,1.6-5.2,0.7-5.6-2.8c-1.5-13.4-1-26.2,9.6-36.4c9.1-8.8,23.5-10.3,35.4-4.2
		c14.5,7.4,21.1,23.9,19.2,39.8c-0.4,3.6-2.4,4.3-5.5,3.8c0.2-1.6,0.3-3.3,0.5-4.9c1.3-18.1-6.8-31.4-22.2-36.1
		c-3.3-1-6.8-2.3-10.7-0.5c13,5,15.8,20,12.6,29.7c-2.6,8.1-8.7,12.9-16.3,12.9c-7.1-0.1-13.7-5.7-15.9-13.5
		c-0.4-1.4-0.1-3.2-2.2-4.5C146.6,116.7,146.4,122.1,147.9,127.4z"/>
	<path class="st0" d="M147.9,127.4c-1.5-5.3-1.3-10.8-1.2-16.7c2.1,1.2,1.8,3,2.2,4.5c2.2,7.8,8.8,13.4,15.9,13.5
		c7.6,0.1,13.7-4.8,16.3-12.9c3.2-9.8,0.4-24.7-12.6-29.7c3.9-1.8,7.4-0.5,10.7,0.5c15.5,4.7,23.5,17.9,22.2,36.1
		c-0.1,1.6-0.3,3.3-0.5,4.9c-1.3,2.7-4.1,2.6-6.4,3c-14,2.4-27.8,2-41.5-2.1C151.5,128,149.7,127.8,147.9,127.4z"/>
	<path class="st4" d="M46.2,127.7c-3.6,0.8-5.1-0.9-5.5-4.3c-1.6-14.9,2.8-27.8,14.8-36.9C66,78.5,78,77.2,90.3,82.9
		c10.9,5.1,14.4,14.9,15.7,25.8c0.5,4.6-0.1,9.3,0.3,13.9c0.3,4.3-1.5,5.7-5.5,5.1c0.6-6.2,1.8-12.4,0-18.7
		c-1.5,9.3-4.9,17-14.7,20.1c-10.3,0-18-5.5-19.8-14.4c-1.3-6.2-0.9-12.4,2-18.2c3-6,8-9.2,15.4-10.6c-16.3-4.1-32.2,6.2-36.5,22.2
		C45.4,114.5,46.6,121.1,46.2,127.7z"/>
	<path class="st0" d="M46.2,127.7c0.3-6.6-0.9-13.2,0.9-19.7c4.2-16,20.2-26.3,36.5-22.2c-7.4,1.4-12.4,4.7-15.4,10.6
		c-2.9,5.8-3.2,12-2,18.2c1.8,8.9,9.6,14.4,19.8,14.4c0,0.5,0,1,0,1.5c-10.9,2.5-21.9,2.3-32.8,0.1
		C50.8,130.2,47.9,130.2,46.2,127.7z"/>
	<path class="st3" d="M86.1,130.5c0-0.5,0-1,0-1.5c9.7-3.1,13.2-10.7,14.7-20.1c1.8,6.3,0.5,12.5,0,18.7
		C95.5,127.2,91.1,130.5,86.1,130.5z"/>
</g>
</svg>
