<?xml version="1.0" encoding="utf-8"?>
<!-- Generator: Adobe Illustrator 26.0.3, SVG Export Plug-In . SVG Version: 6.00 Build 0)  -->
<svg version="1.1" id="Capa_1" xmlns="http://www.w3.org/2000/svg" xmlns:xlink="http://www.w3.org/1999/xlink" x="0px" y="0px"
	 viewBox="0 0 257.3 232.3" style="enable-background:new 0 0 257.3 232.3;" xml:space="preserve">
<style type="text/css">
	.st0{fill:#F9F9F8;}
	.st1{fill:#F3F3F1;}
	.st2{fill:#E6DFD9;}
	.st3{fill:#E9E8E7;}
	.st4{fill:#DAD9D6;}
	.st5{fill:#97785D;}
	.st6{fill:#CCC7C1;}
	.st7{fill:#F0D7B0;}
	.st8{fill:#ECC8C8;}
	.st9{fill:#EFD5B1;}
	.st10{fill:#EBD7BB;}
	.st11{fill:#98775C;}
	.st12{fill:#5A381C;}
	.st13{fill:#F8E9E1;}
	.st14{fill:#48301D;}
</style>
<g>
	<path class="st0" d="M13.3,113.8c-0.3-0.7-1-1.5-0.9-2.2c1.5-11.2-4.2-20.7-6.9-30.9c-5.6-21.3-4.3-41.1,9.3-60.1
		c6.4-8.9,14.9-13.8,23.6-17.7c10.4-4.6,22.2-5.4,33.7-2.5c14.6,3.7,25.8,12.3,35.8,23.1c2.1,2.3,4.6,3.7,8.7,3.2
		c7.3-0.9,14.9-0.4,22.3-0.5c1.2,0,1.7,0.8,1.9,1.9c-0.8,0.4-1,1.2-1,2c-2,0-4,0-6,0c-1-1.5-2.6-0.9-4-1c-1,0-2,0-3,0
		c-0.9-1.3-2.4-1.2-3.6-0.9c-4.7,1.3-9.5,1.8-14.3,0.9c-0.1-2-1.6-2-3-2c-1-0.7-2-1.3-2.9-2c0.6-0.4,1-0.9,0.4-1.4
		c-0.6-0.6-1.1-0.1-1.4,0.4c-0.3,0-0.6,0-1,0c0.1-1.4-0.3-2.7-1-4c-0.4-4-4.5-4.1-6.7-5.9c-3.5-2.8-6.9-5.8-11.4-7.3
		c-8.1-2.7-16-5.5-24.9-5c-6.1,0.3-12,1.3-17.9,2.7c-1.7,0.4-2.7,1.8-2.8,3.7c-0.3,0-0.6,0-1,0c-2.7,0.6-6.2-0.1-7,4l0,0
		c-4,2.2-8.4,4.1-10,9c0,0.3,0,0.6,0,1c-2.8,0.4-4,2.6-5.3,4.7c-5.9,8.7-7.5,18.7-8.5,28.8c-0.2,2.4-1.8,5.7,1.8,7.3c0,1,0,2,0,3
		c-2.2,0.3-2.4,1.9-1.7,3.3c2.1,4.4,2.2,9.2,3.7,13.7c0.7,0.7,1.3,1.3,2,2c0.2,1.6-0.7,3.7,2,4c0,0.3,0,0.7,0,1
		c0.5,2.4,0.8,4.8,1.6,7.1C16.2,102.8,15.9,108.3,13.3,113.8z"/>
	<path class="st0" d="M80,224.3c-0.8,1.1-1.6,0.6-2.6,0.2C64.2,218.7,51,213,39.6,203.7c-12.7-10.4-23.2-22.6-29.3-37.7
		c-5-12.4-5-25.7-1.2-38.7c1.1-3.9,0.3-8.6,4.2-11.5c-1.3,6.6-1.9,13.2-3.5,19.8c-0.8,3.3-2.9,7.6,0.5,11.1c0,0.7,0,1.3,0,2
		c-1.3,1-1.3,2,0,3c0,0.7,0,1.3,0,2c0.3,11.3,6.4,20.2,12.6,28.9c1.9,2.7,3.4,6.2,7.3,6.9l0,0c0.3,2.4,1.6,3.7,4,4l0,0
		c3,5.9,7.9,9.5,13.9,11.9l0,0c2.4,5.1,7.1,6.1,11.9,7c0.3,2.4,2.2,2.7,4,3c1,0,2,0,3,0c0,1.3,0.7,2,2,2c0.7,0,1.3,0,2,0
		c0.1,2,1.5,2,3,2c0.3,0,0.7,0,1,0C76.1,221.6,79.2,221.8,80,224.3z"/>
	<path class="st1" d="M204.5,1.4c0.7,0,1.3,0,2,0c4.9,3,10.5,3.8,15.9,5c0.1,1.1,0.7,1.8,1.6,2.3c8.2,4.5,15.5,10,19.5,18.9
		c0.5,1.2,1.5,1.7,2.8,1.7c0.3,1.3,0.7,2.6,1,4c0.9,4.5,3,8.7,3.1,13.5c0,2.4,0.3,5.2,1.9,7.4c0,2,0,4,0,6c-0.7,0-1.3,0-2,0
		c-0.2-3.9,0.8-8.1-3-11c0-1,0-2,0-3c-0.2-2.7,0.7-5.8-3-7c0.5-3.3,1.2-6.6-1.8-9.1c-2.1-1.9-3.6-4.3-5.2-6.6
		c-4-6.2-10-10.2-16.3-13.6c-9.3-5-19.3-7.2-29.9-5.4c-5.4,0.9-10.8,2-15.6,5c-2.7-0.6-4.3,2.6-7,2l0,0c0.6-1.4,2.1-2.2,2-4
		c1.1,0,2.3,0.2,3-1c2.2-0.1,4.4-0.2,5-3c0.3,0,0.7,0,1,0c1.4,0,2.9,0,3-2c0.7,0,1.3,0,2,0c0.9,1.3,2.3,1.1,3.6,0.9
		C193.6,1.4,199,1.3,204.5,1.4z"/>
	<path class="st0" d="M177.6,223.3c-3.2,3.4-7.9,3-11.8,4.9c-10.5,5-22.3,2.4-33.3,4.8c-4.7,1-9.8,0.2-14.8-0.6
		c-9.9-1.6-19.9-2.2-29.6-5.2c-2.1-0.7-5.2,0.3-6.2-2.9c8.2,1.4,16.4,2.2,24.4,4.2c4.5,1.1,9.2-0.6,13.5,1.3c0,0,0.6-1,0.9-1.6
		c1.3,0.3,2.6,0.6,4,1c1.3,1.4,2.7,1.4,4,0c1.3,0,2.7,0,4,0c2.6,2,4.9,0.9,7-1c0.7,0,1.3,0,2,0c4.2,2.1,8.1,0.8,12-1
		c0.7,0,1.3,0,2,0c5.9,0.1,11.2-1.6,15.9-5c0.3,0,0.7,0,1,0C174.3,222.6,176.2,221.7,177.6,223.3z"/>
	<path class="st1" d="M245.3,120.8c0,1,0,2,0,3c-1,0.7-1,1.3,0,2c0,0.7,0,1.3,0,2c-0.7,0-1.3,0-2,0c-1.1-2.7-1.5-5.7-2.3-8.3
		c-1.5-4.8-1.3-10-3.7-14.5c0-1.7,0-3.3,0-5c2-3.8,4.2-7.6,6-11.5c3.9-8.3,4.6-17.5,6.9-26.3c0.8,0.1,2,0.4,1.7,1.4
		c-1.5,7.2-1.5,14.6-4.6,21.6c-3.5,7.7-9.5,15-6.1,24.5C242.7,113.2,242.2,117.7,245.3,120.8z"/>
	<path class="st1" d="M177.6,223.3c-1.4-1.7-3.3-0.8-5-1c0.1-0.7,1.1-1.3,0-2c0-0.3,0-0.7,0-1c0.7,0,1.3,0,2,0c0.7,0,1.3,0,2,0
		c3.7,1.6,7.6,2.4,11.3,4.3c5.7,2.9,11.9,4.4,19,3.1c8.1-1.5,14.8-5.2,21.5-9.4c0,1.2,0.2,2.5-0.9,3.2c-6.2,3.7-11.6,9.5-19.8,8.8
		c-1.4-0.1-3-0.4-4.1,1c-0.7,0-1.3,0-2,0c-7-0.9-13.4-3.4-19.4-7c-0.9-0.6-1.7-1-2.5,0.1C178.9,223.3,178.3,223.3,177.6,223.3z"/>
	<path class="st0" d="M245.3,120.8c-3.1-3.1-2.6-7.6-4-11.3c-3.4-9.5,2.6-16.8,6.1-24.5c3.2-6.9,3.1-14.4,4.6-21.6
		c0.2-1-0.9-1.2-1.7-1.4c0-0.7,0-1.3,0-2c0.7,0,1.3,0,2,0c3.3,3.7,0.3,7.8,0.6,11.7c0.6,9.2-4.8,16.5-8,24.5
		c-2.4,6.2-1.7,11.9-0.3,17.7C245.2,116.3,245.3,118.5,245.3,120.8z"/>
	<path class="st0" d="M203.5,230.3c1.1-1.4,2.7-1.1,4.1-1c8.2,0.7,13.6-5,19.8-8.8c1.1-0.7,0.9-2,0.9-3.2c0,0,0,0,0,0
		c2.2,0.2,3.7-0.7,5.4-2.4c3.5-3.6,4.8-9,9.5-11.5l0,0c1,4-2.6,5.8-4.3,8.4c-6.8,10.1-16.4,16.7-27.8,20.6c-1.9,0-3.7,0-5.6,0.1
		C204.9,231.7,204.2,231,203.5,230.3z"/>
	<path class="st1" d="M10.3,146.7c-3.4-3.5-1.3-7.8-0.5-11.1c1.6-6.6,2.1-13.2,3.5-19.8c0-0.7,0-1.3,0-2c2.6-5.5,2.9-11.1,0.6-16.8
		c-0.9-2.2-1.1-4.7-1.6-7.1c4.3,4,5,9.4,5.1,14.6c0.2,7.1-2,14-3.4,20.9C12.5,132.5,12,139.7,10.3,146.7z"/>
	<path class="st1" d="M120.9,228.3c-0.3,0.5-0.8,1.6-0.9,1.6c-4.3-2-9-0.2-13.5-1.3c-8-2-16.3-2.9-24.4-4.2c-0.7,0-1.3,0-2,0
		c-0.8-2.5-3.9-2.7-5-5c1.5,0,2.9,0,4.3,0.7c4.6,2.1,9.7,2.5,14.4,3.9C102.5,226.5,111.8,227,120.9,228.3z"/>
	<path class="st1" d="M157.7,16.3c0.7-0.3,1.3-0.7,2-1c3.2-0.5,5.3-2.3,7-5c0,0,0,0,0,0c0.7,0.3,1.3,0.7,2,1c0,0,0,0,0,0
		c-0.3,3.1-4.7,2.8-5,6c-4,3.6-8,7.3-11.9,10.9c-2,0.3-3.9,1.4-6,1c1.2-1.2,2.5-2.3,3-4c0,0,0,0,0,0c2.4-0.3,3.7-1.6,4-4
		c0,0,0,0,0,0C155.5,20.7,157.2,19.1,157.7,16.3z"/>
	<path class="st0" d="M246.3,29.2c-1.3,0-2.3-0.5-2.8-1.7c-4-8.9-11.3-14.4-19.5-18.9c-1-0.5-1.6-1.2-1.6-2.3
		c5.7-0.9,8.5,3.8,12.1,6.6C240,17.1,244.8,22.1,246.3,29.2z"/>
	<path class="st1" d="M248.3,150.7c0,1,0,2,0,3c-2.1,2.3,0,6.1-3,8c-0.5-10.6,1.4-21.4-2-31.9c2.5,0.4,2.5,2.5,3,4.4
		c0.9,3.5,0.5,7.4,2.9,10.6c-0.3,1.3-0.7,2.7-1,4C247.3,149.3,247.3,150,248.3,150.7z"/>
	<path class="st1" d="M248.3,177.5c0,1.3,0,2.6,0,4c0,4.3-1.5,8.4-2.2,12.6c-0.1,1-1,1.2-1.8,1.3c0.2-7.1,1.7-14.2,0.8-21.4
		c-0.2-1.4-1.8-3.1,0.2-4.5C248.8,171.3,246.3,175.3,248.3,177.5z"/>
	<path class="st0" d="M248.3,177.5c-2.1-2.3,0.5-6.2-3-8c0-2.7,0-5.3,0-8c3-1.9,0.9-5.7,3-8c1.9,1.6,0.8,3.9,0.5,5.5
		c-0.8,5-0.6,9.8,0.4,14.6C249.5,175,251.5,177,248.3,177.5z"/>
	<path class="st0" d="M179.6,223.3c0.8-1.1,1.5-0.6,2.5-0.1c6,3.7,12.4,6.2,19.4,7c-1.6,3.7-4.4,0.9-6.3,0.8
		C189.1,230.8,183.9,227.7,179.6,223.3z"/>
	<path class="st0" d="M244.3,195.4c0.8-0.1,1.7-0.3,1.8-1.3c0.6-4.2,2.2-8.3,2.2-12.6c1.4,0.1,2.3,1,1.9,2.3
		c-1.9,6.7-0.9,14.4-6.9,19.6c0,0,0,0,0,0C243.4,200.7,244.8,198.2,244.3,195.4L244.3,195.4z"/>
	<path class="st0" d="M252.3,54.1c-1.6-2.2-1.8-4.9-1.9-7.4c-0.1-4.8-2.2-9-3.1-13.5c5.6,3.7,4.6,10,5.9,15.3
		C253.6,50.2,254,52.5,252.3,54.1z"/>
	<path class="st0" d="M204.5,1.4c-5.5,0-10.9,0-16.4,0.9c-1.3,0.2-2.6,0.4-3.6-0.9c5.8-2.8,12-1.9,18.1-1.9
		C203.9-0.6,204.3,0.3,204.5,1.4z"/>
	<path class="st0" d="M249.3,144.7c-2.4-3.1-2-7-2.9-10.6c-0.5-1.9-0.5-3.9-3-4.4c0-0.7,0-1.3,0-2c0.7,0,1.3,0,2,0
		c3.5,1.2,2.5,4.8,3.2,7.1C249.4,137.8,251.5,141.3,249.3,144.7z"/>
	<path class="st0" d="M222.4,6.3c-5.5-1.2-11-2-15.9-5C212.8-0.1,217.8,2.5,222.4,6.3z"/>
	<path class="st0" d="M166.7,10.3c-1.6,2.6-3.8,4.5-7,5C160.6,11.6,163,10.1,166.7,10.3z"/>
	<path class="st1" d="M139.8,30.2c0-0.8,0.2-1.6,1-2c1,0,2,0,3,0c0.3,0.3,0.7,0.7,1,1c0,1,0,2,0,3c-0.7,0-1.3,0-2,0
		C141.8,31.5,140.8,30.9,139.8,30.2z"/>
	<path class="st0" d="M157.7,16.3c-0.6,2.8-2.2,4.4-5,5C153.3,18.5,154.9,16.8,157.7,16.3z"/>
	<path class="st0" d="M144.8,29.2c-0.3-0.3-0.7-0.7-1-1c0.6-2.8,2.8-2.8,5-3c-0.5,1.7-1.8,2.8-3,4C145.4,29.2,145.1,29.2,144.8,29.2
		z"/>
	<path class="st0" d="M178.6,3.4c-0.6,2.8-2.8,2.8-5,3C174.2,3.5,176.4,3.5,178.6,3.4z"/>
	<path class="st0" d="M152.7,21.3c-0.3,2.4-1.6,3.7-4,4C149,22.9,150.4,21.6,152.7,21.3z"/>
	<path class="st0" d="M168.7,11.3c-0.7-0.3-1.3-0.7-2-1c0.3-2.4,2.2-2.6,4-3C170.8,9.1,169.2,9.9,168.7,11.3z"/>
	<path class="st0" d="M182.6,1.4c-0.1,2-1.5,2-3,2C179.7,1.3,181.2,1.3,182.6,1.4z"/>
	<path class="st0" d="M248.3,150.7c-1-0.7-1-1.3,0-2C249.3,149.3,249.3,150,248.3,150.7z"/>
	<path class="st0" d="M245.3,125.8c-1-0.7-1-1.3,0-2C246.3,124.4,246.4,125.1,245.3,125.8z"/>
	<path class="st2" d="M18.3,22.3c0-0.3,0-0.6,0-1c4.4-1.8,8.2-4.3,10-9c0,0,0,0,0,0c2.7-0.7,6.2,0,7-4c0.3,0,0.6,0,1,0
		c4.1-0.5,7.7-3.4,11.7-3.8c11.2-0.9,22.2-0.6,32.8,4.4c6.4,3,11.2,8.1,17.3,11.3c0.1,2,1.4,3.1,3,3.9c0.3,0,0.6,0,1,0
		c0.3,0.3,0.7,0.7,1,1c1,0.7,2,1.3,2.9,2c0.3,0.7,0.7,1.3,1,2c0,1.3,0.7,2,2,2c3.2,1.6,6.7,0.5,10,1c0.1,0.6,0.3,1.3,0.4,1.9
		c-11,3.1-12,2.5-19-5.7c-13.8-16-30.7-24.7-52.3-20C33.7,11.5,24,20.7,17.2,33.2c-1-0.3-1.9-0.7-2.9-1c0-0.3,0-0.7,0-1l0,0
		c1.3-0.5,2-1.5,2-3C16.3,26,18.9,24.7,18.3,22.3z"/>
	<path class="st3" d="M10.3,146.7c1.7-7,2.2-14.2,3.7-21.2c1.5-6.9,3.6-13.8,3.4-20.9c-0.2-5.3-0.8-10.7-5.1-14.6c0-0.3,0-0.7,0-1
		c0.1-1.7-0.2-3.2-2-4c-0.7-0.7-1.3-1.3-2-2c3.7-1.4-0.3-4.2,1-6c1,0.1,2.4,0.4,2.4,1.4c0.2,5.7,4.3,9.9,5.6,15.2
		c0.7,2.9,1,6.3,3.9,8.4c0,1,0,2,0,3c-2.2,2.3-2.7,5-2,8c0,1.7-0.1,3.3-0.1,5c-0.8,0.2-1.8,0.5-1.8,1.4c-0.3,8-3.5,15.6-3.2,23.7
		c0.1,2.2-0.1,4.3-1.9,5.8c-0.7,0-1.4,0-2,0C10.3,148,10.3,147.3,10.3,146.7z"/>
	<path class="st1" d="M97.9,20.3C91.9,17,87.1,12,80.7,8.9c-10.6-5-21.6-5.2-32.8-4.4c-4,0.3-7.5,3.2-11.7,3.8
		C36.3,6.5,37.4,5,39,4.6C44.9,3.3,50.8,2.3,56.9,2c8.9-0.5,16.7,2.4,24.9,5c4.6,1.5,8,4.5,11.4,7.3c2.3,1.8,6.3,2,6.7,5.9
		C99.3,20.3,98.6,20.3,97.9,20.3z"/>
	<path class="st1" d="M18.3,22.3c0.6,2.4-2,3.8-2,6c-2,0.1-2,1.5-2,3c0,0,0,0,0,0c-1.2,0.2-2.5,0.4-1,2c-0.3,1.3-0.7,2.6-1,4
		c-3.9,2.9-6.1,10.5-4,14c0,1.7,0,3.3,0,5c-3.5,1.5-2.1,4.4-2,7c-3.6-1.6-2-5-1.8-7.3c0.9-10.1,2.6-20.1,8.5-28.8
		C14.3,24.9,15.5,22.6,18.3,22.3z"/>
	<path class="st3" d="M119.2,34.1c-0.1-0.6-0.3-1.3-0.4-1.9c2.3-2.1,6.2,0.5,8-3c1,0,2,0,3,0c0.7,2.8,2.2,2.4,4,1c2,0,4,0,6,0
		c1,0.7,2,1.3,3,2c0,0.8-0.1,1.7-0.1,2.5C134.9,34.1,127.1,33.7,119.2,34.1z"/>
	<path class="st1" d="M126.8,29.2c-1.7,3.5-5.7,0.9-8,3c-3.3-0.5-6.8,0.6-10-1c0-0.7,0-1.3,0-2l0,0c4.9,0.9,9.6,0.5,14.3-0.9
		C124.5,28,125.9,28,126.8,29.2z"/>
	<path class="st3" d="M6.3,63.1c-0.1-2.5-1.5-5.5,2-7c1,5.6,0.9,11.3,1,16.9c-3.2-1.4-2.2-4.6-3-7C6.3,65.1,6.3,64.1,6.3,63.1z"/>
	<path class="st1" d="M6.3,66.1c0.8,2.4-0.2,5.6,3,7c0,1.3,0,2.6,0,3.9c-1.3,1.8,2.7,4.6-1,6c-1.6-4.5-1.6-9.3-3.7-13.7
		C4,67.9,4.2,66.3,6.3,66.1z"/>
	<path class="st1" d="M28.3,12.3c-1.8,4.7-5.5,7.2-10,9C19.9,16.4,24.2,14.5,28.3,12.3z"/>
	<path class="st1" d="M35.3,8.3c-0.8,3.9-4.3,3.3-7,4C29,8.3,32.5,9,35.3,8.3z"/>
	<path class="st1" d="M133.8,30.2c-1.8,1.4-3.3,1.8-4-1C131.2,29.4,132.8,28.8,133.8,30.2z"/>
	<path class="st3" d="M97.9,20.3c0.7,0,1.3,0,2,0c0.7,1.2,1.2,2.5,1,4C99.3,23.4,98.1,22.3,97.9,20.3z"/>
	<path class="st1" d="M10.3,85c1.8,0.8,2.1,2.3,2,4C9.7,88.6,10.5,86.5,10.3,85z"/>
	<path class="st1" d="M106.9,29.2c-0.3-0.7-0.7-1.3-1-2c1.5,0,2.9,0,3,2c0,0,0,0,0,0C108.2,29.2,107.6,29.2,106.9,29.2z"/>
	<path class="st1" d="M103,25.2c-0.3-0.3-0.7-0.7-1-1c0.4-0.6,0.9-1,1.4-0.4C104,24.4,103.5,24.9,103,25.2z"/>
	<path class="st3" d="M120.9,228.3c-9-1.3-18.4-1.8-27-4.4c-4.8-1.4-9.9-1.8-14.4-3.9c-1.4-0.7-2.9-0.7-4.3-0.7c-0.3,0-0.7,0-1,0
		c-0.6-1.3-1.6-2-3-2c-0.7,0-1.3,0-2,0c0-1.3-0.7-2-2-2c-1,0-2,0-3,0c-0.2-2.6-1.9-3.1-4-3c-0.6-1.4-2.1-2.2-2-4c0,0,0,0,0,0
		c2.4-0.3,4.7,0.4,6.7,1.5c16.5,9.4,34.3,13.7,53.1,14.4c0.3,2.4,2.2,2,3.8,2c3.7,0,7.5,0,11.2,0c0.7,0,1.3,0,2,0
		c0.3,0.3,0.7,0.7,1,1c-1,0.7-2,1.3-3,2c-1.3,0-2.7,0-4,0c-1.3-1.4-2.7-1.4-4,0C123.5,229,122.2,228.6,120.9,228.3z"/>
	<path class="st3" d="M10.3,153.6c0-0.7,0-1.3,0-2c0.8,0,1.6-0.2,2-1c3.3,2.8,3.7,7,4.9,10.8c2.2,7.2,5.7,13.8,10.2,19.5
		c7.5,9.6,16.4,18,27.4,23.9c1.4,0.7,2.3,2.3,3.4,3.5c0,0,0,0,0,0c-3.7,0.3-6.2-3.3-9.9-3c0,0,0,0,0,0c-4.3-4.4-7.9-9.6-13.9-11.9
		c0,0,0,0,0,0c-0.3-2.4-1.6-3.7-4-4c0,0,0,0,0,0c-0.6-2.7-2.4-4.6-4.1-6.6c-4.7-5.7-8.6-11.6-11.2-18.7
		C13.7,160.7,14.7,155.9,10.3,153.6z"/>
	<path class="st1" d="M10.3,153.6c4.3,2.2,3.3,7.1,4.6,10.6c2.6,7,6.5,13,11.2,18.7c1.7,2,3.5,3.9,4.1,6.6c-3.9-0.7-5.4-4.2-7.3-6.9
		C16.8,173.8,10.7,165,10.3,153.6z"/>
	<path class="st1" d="M34.2,193.5c6,2.4,9.6,7.6,13.9,11.9C42.2,203,37.2,199.4,34.2,193.5z"/>
	<path class="st1" d="M48.2,205.4c3.7-0.3,6.2,3.3,9.9,3c-0.1,1.7,1.5,2.6,2,4C55.3,211.5,50.5,210.5,48.2,205.4z"/>
	<path class="st1" d="M30.2,189.5c2.4,0.3,3.7,1.6,4,4C31.9,193.2,30.5,191.8,30.2,189.5z"/>
	<path class="st1" d="M60.1,212.4c2.1-0.1,3.8,0.4,4,3C62.3,215,60.4,214.7,60.1,212.4z"/>
	<path class="st1" d="M12.4,150.6c-0.4,0.8-1.2,1-2,1c-1.3-1-1.3-2,0-3c0.7,0,1.4,0,2,0C12.4,149.3,12.4,150,12.4,150.6z"/>
	<path class="st1" d="M71.1,217.3c1.4,0,2.4,0.7,3,2C72.6,219.4,71.2,219.4,71.1,217.3z"/>
	<path class="st1" d="M67.1,215.4c1.3,0,2,0.7,2,2C67.8,217.3,67.1,216.7,67.1,215.4z"/>
	<path class="st2" d="M247.3,46.1c0,1,0,2,0,3c-0.7,4.6,1.6,9.7-1.9,14c-0.7,0-1.3,0-2,0c0.1-4.1,0.3-8.3,0.2-12.4
		c-0.7-18.1-12.9-34.8-29.9-40.8c-14.6-5.1-28.4-2.6-41.5,4.9c-0.2-0.2-0.3-0.4-0.5-0.5c0.3-2.5,3.4-2.7,4-5
		c4.8-2.9,10.2-4.1,15.6-5c10.6-1.7,20.7,0.5,29.9,5.4c6.3,3.4,12.3,7.4,16.3,13.6c1.5,2.3,3,4.7,5.2,6.6c2.9,2.6,2.3,5.9,1.8,9.1
		C245.7,41.3,243.9,44.9,247.3,46.1z"/>
	<path class="st3" d="M245.4,63.1c3.6-4.2,1.2-9.3,1.9-14c3.8,2.9,2.8,7.1,3,11c0,0.7,0,1.3,0,2c-2.3,8.8-3.1,18-6.9,26.3
		c-1.8,3.9-4,7.7-6,11.5c-2.6-1.6,1.6-4.4-1-6c0-0.8,0.2-1.6,1-2c3.2-2.2,5.4-4.7,4-8.9c0-0.7,0-1.3,0-2c3.2-1.8,5.2-8.1,3.9-12
		C245.4,67,245.4,65.1,245.4,63.1z"/>
	<path class="st3" d="M175.6,9.3c-0.6,2.3-3.7,2.4-4,5c-3.2-0.4-4.9,3.1-7.9,3c0.3-3.1,4.7-2.8,5-6C171.3,11.9,172.9,8.7,175.6,9.3z
		"/>
	<path class="st3" d="M247.3,46.1c-3.4-1.3-1.6-4.8-3-7C248,40.3,247.2,43.5,247.3,46.1z"/>
	<path class="st1" d="M171.7,222.3c-4.8,3.4-10.1,5.1-15.9,5c-0.3-2.3,3.3-1.7,3-4c0.7,0,1.3,0,2,0c2.3,1,4.1,0.5,5-2
		c1.3,0,2.6,0,4,0C170.1,222.1,170.8,222.3,171.7,222.3z"/>
	<path class="st1" d="M153.7,227.3c-3.9,1.8-7.8,3.1-12,1c0.8-1.6,3.1-0.4,4-2c0.8,0,1.6-0.2,2-1c1,0,2,0,3,0
		C151.1,227,153.9,224.8,153.7,227.3z"/>
	<path class="st3" d="M153.7,227.3c0.2-2.5-2.7-0.3-3-2c2.5-1.4,5.3-1.6,8-2c0.3,2.3-3.3,1.7-3,4C155,227.3,154.4,227.3,153.7,227.3
		z"/>
	<path class="st1" d="M132.8,229.3c1-0.7,2-1.3,3-2c1.3,0,2.7,0,4,0c0,0.3,0,0.7,0,1C137.7,230.2,135.5,231.2,132.8,229.3z"/>
	<path class="st3" d="M139.8,228.3c0-0.3,0-0.7,0-1c0-0.7,0-1.3,0-2c0.3,0,0.7,0,1,0c1.1,0,2.3,0.2,3-1c1.3,0,2,0.7,2,2
		c-0.8,1.6-3.1,0.4-4,2C141.1,228.3,140.4,228.3,139.8,228.3z"/>
	<path class="st1" d="M124.8,229.3c1.3-1.4,2.7-1.4,4,0C127.5,230.7,126.2,230.7,124.8,229.3z"/>
	<path class="st3" d="M171.7,222.3c-0.8,0-1.6-0.2-2-1c0.7-1.2,1.9-1,3-1c1.1,0.7,0.1,1.3,0,2C172.3,222.3,172,222.3,171.7,222.3z"
		/>
	<path class="st3" d="M243.4,127.8c0,0.7,0,1.3,0,2c3.4,10.5,1.4,21.2,2,31.9c0,2.7,0,5.3,0,8c-2,1.4-0.4,3-0.2,4.5
		c0.9,7.2-0.6,14.3-0.8,21.4c0,0,0,0,0,0c-4.8,7.7-9.9,15.1-15.9,21.9c0,0,0,0,0,0c-6.7,4.1-13.3,7.9-21.5,9.4
		c-7.1,1.3-13.2-0.2-19-3.1c-3.7-1.9-7.6-2.7-11.3-4.3c1.4-1.7,3.3-0.7,5-1c7.6,2.6,14.2,7.2,23.3,6.3c13.3-1.3,21.4-9,28.9-18.4
		c0.5-0.7,0.4-1.9,0.6-2.8c0,0,0,0,0,0c3.9-0.3,3.6-3.7,4.6-6.2c2.1-5.2,4.7-10.6,4.2-16.1c-1.1-10.9-2.5-21.7,0.1-32.6
		c0.4-1.6,1.2-4.2-1.9-4.9c0-1.3,0-2.6,0-4c2.1-6.2-1.2-11.4-3.1-16.9c0-1,0-2,0-2.9c-0.3-1.8,1.3-4.3-1.9-5c0-0.7,0-1.3,0-2
		c1.1-0.7,1-1.4-0.1-2c0-0.6,0-1.3,0-1.9c0.2-1.4-0.4-3,1-4c2.4,4.5,2.2,9.7,3.7,14.5C241.9,122.1,242.3,125.1,243.4,127.8z"/>
	<path class="st4" d="M237.3,104.9c-1.4,1.1-0.8,2.7-1,4c-3.9-3-3.9-8.9,0.1-15c2.6,1.6-1.6,4.3,1,6
		C237.3,101.6,237.3,103.2,237.3,104.9z"/>
	<path class="st4" d="M234.4,203.4c-0.2,1-0.1,2.2-0.6,2.8c-7.6,9.3-15.7,17.1-28.9,18.4c-9.1,0.9-15.7-3.7-23.3-6.3
		c-2.9-3.6-5.1-2.3-7,1c-0.7,0-1.3,0-2,0c-0.8-1.1-2-1.1-3.1-0.8c-4.4,1-9,1.7-13.3,3.2c-2.9,1-6.7,0-8.5,3.6c-0.4,0.8-1.2,1-2,1
		c0-1.3-0.7-1.9-2-2c0-0.3,0-0.7,0-1c1.2-1.3,2.7-1.8,4.4-2c9-1.1,17.7-3.6,26.3-6c5.4-1.5,9.8-0.5,13.9,2.4
		c7.9,5.5,20.4,5.9,28.4,0.6C223.3,214.1,229.2,209.2,234.4,203.4z"/>
	<path class="st2" d="M147.7,225.3c1.8-3.6,5.6-2.6,8.5-3.6c4.3-1.5,8.8-2.2,13.3-3.2c1.2-0.3,2.3-0.3,3.1,0.8c0,0.3,0,0.7,0,1
		c-1.1,0-2.3-0.2-3,1c-1.3,0-2.6,0-4,0c-1.8,0.4-3.6,0.6-5,2c-0.7,0-1.3,0-2,0c-2.7,0.4-5.5,0.6-8,2
		C149.7,225.3,148.7,225.3,147.7,225.3z"/>
	<path class="st2" d="M174.6,219.3c1.9-3.3,4.1-4.6,7-1c-1.7,0.3-3.6-0.7-5,1C176,219.3,175.3,219.3,174.6,219.3z"/>
	<path class="st1" d="M228.4,217.3c6-6.8,11.1-14.2,15.9-21.9c0.5,2.8-0.9,5.3-1,8c-4.7,2.6-6,7.9-9.5,11.5
		C232.1,216.7,230.7,217.5,228.4,217.3z"/>
	<path class="st2" d="M163.7,17.3c3,0,4.8-3.4,7.9-3c0.2,0.2,0.3,0.4,0.5,0.5c-6.2,4.4-12.5,9-16.5,15.4c-3.5,5.7-7.4,6.5-13,4.5
		c0-0.8,0.1-1.7,0.1-2.5c0.7,0,1.3,0,2,0c2.7-0.7,6.2,0,7-4C155.7,24.6,159.7,20.9,163.7,17.3z"/>
	<path class="st3" d="M151.7,28.2c-0.8,4-4.3,3.3-7,4c0-1,0-2,0-3c0.3,0,0.7,0,1,0C147.9,29.6,149.7,28.6,151.7,28.2z"/>
	<path class="st5" d="M142.7,34.7c5.5,2,9.5,1.2,13-4.5c3.9-6.5,10.3-11,16.5-15.4c13.1-7.5,26.9-10,41.5-4.9
		c17,5.9,29.3,22.7,29.9,40.8c0.1,4.1-0.1,8.3-0.2,12.4c-2.3,8.4-3.8,17.1-8.4,24.6c-1.8,3-2.8,6.7-6.5,8.2c-2.6-6-5.2-12-9.6-17
		c-0.6-1.6-1.8-3-1.7-4.9c1.2-3.2,2.8-6.4,3.7-9.7c4.4-16.1-3.2-30.7-18.1-33.7c-12-2.4-21.3,3.8-30.4,11c4.3,3.4,9.8,3.5,13.1,7.5
		c-0.7,0-1.3,0.1-2,0c-21.7-1.7-40.5,4.6-55.7,20.4c-2.2,2.3-3.5,1.2-5.2-0.5c-6.9-7.3-15.3-12.4-24.5-16.4
		c-9.2-4-18.9-4.3-28.7-3.6c4-1.8,8-3.8,12.1-5.4c2.9-1.1,3-2.1,0.7-3.9c-5.1-4-10.5-7.4-17-8.9C48.3,27.1,34.9,37.8,35,55
		c0,6,1.4,11.7,4.1,17.1c0.9,2.5-0.3,4.4-1.8,6.2c-4.3,5.4-7.2,11.5-10,17.8c-2.1-1-2.8-3.1-3.9-4.9C19.2,84,16.8,76,14.2,68
		c-2.1-11.9-1.8-23.5,3-34.8C24,20.7,33.7,11.5,47.9,8.5c21.6-4.7,38.6,3.9,52.3,20c7,8.2,8.1,8.8,19,5.7
		C127.1,33.7,134.9,34.1,142.7,34.7z"/>
	<path class="st4" d="M17.2,33.2c-4.8,11.3-5,23-3,34.8c-1.1,0.2-2,0.7-1.7,1.9c0.9,5.1,2,10.2,4.1,15c2.4,5.4,4.7,10.9,4.7,16.9
		c-2.9-2-3.2-5.5-3.9-8.4c-1.3-5.3-5.4-9.5-5.6-15.2c0-0.9-1.4-1.3-2.4-1.4c0-1.3,0-2.6,0-3.9c-0.1-5.7,0-11.3-1-16.9
		c0-1.7,0-3.3,0-5c2.7-4.3,2.4-9.4,4-14c0.3-1.3,0.7-2.6,1-4c0.3-0.3,0.7-0.7,1-1C15.3,32.5,16.2,32.9,17.2,33.2z"/>
	<path class="st3" d="M14.3,31.2c0-1.4,0-2.9,2-3C16.3,29.7,15.6,30.7,14.3,31.2z"/>
	<path class="st3" d="M106.9,29.2c0.7,0,1.3,0,2,0c0,0.7,0,1.3,0,2C107.6,31.2,107,30.5,106.9,29.2z"/>
	<path class="st3" d="M14.3,32.2c-0.3,0.3-0.7,0.7-1,1c-1.5-1.6-0.2-1.8,1-2C14.3,31.5,14.3,31.9,14.3,32.2z"/>
	<path class="st6" d="M21.3,101.9c0-6.1-2.3-11.6-4.7-16.9c-2.1-4.8-3.2-9.9-4.1-15c-0.2-1.3,0.6-1.8,1.7-1.9
		c2.6,7.9,4.9,16,9.2,23.2c1.1,1.8,1.8,3.9,3.9,4.9c-0.4,1.9-0.7,3.8-1.1,5.7c-2.8,4.7-3.6,10-3.8,15.1c-0.4,7.8-3.2,15.1-4.1,22.7
		c0,2.3,0,4.6,0,7c0.3,1.9,0.5,3.9,1,5.8c1.6,6.2,3.4,12.3,7.9,17.1c0,1.4,0.7,2.4,2,3c0,1.4,0.7,2.4,2,3c0.9,1.7,2.3,3,4,4
		c0.9,3.1,2.9,5.1,6,6l0,0c0.1,1.3,0.7,1.9,2,2c0.7,1.3,1.7,2.3,3,3c2.5,3.5,6.2,5.2,9.9,7l0,0c1.7,2.5,4.3,3.3,7,4
		c0.4,0.8,1.2,1,2,1c0.4,0.8,1.2,1,2,1c1.7,1.6,3.7,2.5,6,3c11.3,5.7,23.3,8.8,35.8,9.9c0.7,0,1.3,0,2,0c1.8,1.8,4,0.7,6,0.9
		c1.3,0,2.7,0,4,0c5,1.6,10,1.6,14.9,0c2,0,4,0,6-0.1c1.7-0.2,3.5,0.7,5-0.9c1,0,2,0,3,0c7.3-0.3,14.2-2.2,20.9-4.9
		c4.4-1.3,8.8-2.7,13.1-4c9.6,11.9,20.5,14.5,32.3,7.5c10-5.9,17.4-14.1,21.7-25c1,1.4,1.5,2.5,0.4,4.4c-1.6,2.8-2.6,6-3.8,9.1
		c0,0,0,0,0,0c-5.2,5.8-11.1,10.7-17.5,15c-8,5.3-20.5,4.9-28.4-0.6c-4.2-2.9-8.5-3.9-13.9-2.4c-8.7,2.4-17.4,4.9-26.3,6
		c-1.7,0.2-3.2,0.6-4.4,2c-0.7,0-1.3,0-2,0c-1.7-1.7-3.8-0.9-5.7-0.9c-11-0.3-22.1,0.5-33-1.9c-13.4-3-26.3-6.8-38.7-12.8
		c-10.5-5.1-19.1-12.7-27.9-20c-6.9-5.8-10.3-14-14.4-21.7c-5.7-10.7-7.9-22.1-4.6-33.9c1.3-4.7,1.9-9.3,1.7-14.1
		c0-1.7,0.1-3.3,0.1-5c1.6-2.4,3.8-4.7,2-8C21.3,103.9,21.3,102.9,21.3,101.9z"/>
	<path class="st4" d="M19.3,117.8c0.2,4.8-0.4,9.4-1.7,14.1c-3.3,11.8-1.1,23.2,4.6,33.9c4.1,7.7,7.5,15.9,14.4,21.7
		c8.8,7.4,17.4,14.9,27.9,20c12.3,6,25.3,9.8,38.7,12.8c11,2.4,22,1.6,33,1.9c1.9,0.1,4-0.7,5.7,0.9c-0.3,0.7-0.7,1.3-1,2
		c-0.3,0-0.7,0-1,0c-2-1.4-3.9-2.1-5,1c-0.7,0-1.3,0-2,0c-0.4-2.4-2.2-1.9-3.8-2c-3.7,0-7.5,0-11.2,0c-18.8-0.7-36.6-5-53.1-14.4
		c-2-1.1-4.3-1.8-6.7-1.5c-1.1-1.2-2-2.8-3.4-3.5c-11-5.9-19.8-14.2-27.4-23.9c-4.5-5.8-8-12.4-10.2-19.5c-1.2-3.8-1.5-8-4.9-10.8
		c0-0.7,0-1.3,0-2c1.8-1.6,2-3.6,1.9-5.8c-0.4-8.1,2.8-15.7,3.2-23.7C17.5,118.2,18.4,117.9,19.3,117.8z"/>
	<path class="st4" d="M21.3,104.9c1.8,3.3-0.4,5.5-2,8C18.6,109.8,19.1,107.2,21.3,104.9z"/>
	<path class="st3" d="M12.3,37.2c-1.6,4.6-1.2,9.7-4,14C6.2,47.6,8.3,40.1,12.3,37.2z"/>
	<path class="st2" d="M117.9,224.3c3.7,0,7.5,0,11.2,0c1.6,0,3.4-0.4,3.8,2c-3.7,0-7.5,0-11.2,0
		C120.1,226.3,118.2,226.7,117.9,224.3z"/>
	<path class="st2" d="M134.8,226.3c1.1-3,3-2.3,5-1c0,0.7,0,1.3,0,2c-1.3,0-2.7,0-4,0C135.5,227,135.1,226.6,134.8,226.3z"/>
	<path class="st6" d="M228.4,95.9c3.7-1.5,4.7-5.2,6.5-8.2c4.6-7.6,6.1-16.3,8.4-24.6c0.7,0,1.3,0,2,0c0,2-0.1,4-0.1,6
		c-1.3,4-2.6,8-3.9,12c0,0.7,0,1.3,0,2c-2,2.7-3.5,5.6-4,8.9c-0.8,0.4-1,1.2-1,2c-4,6-4,12-0.1,15c0,0.6,0,1.3,0,1.9
		c-1,0.7-0.9,1.4,0.1,2c0,0.7,0,1.3,0,2c0.4,1.8-1.2,4.3,1.9,5c0,1,0,2,0,2.9c-1.5,1.6-0.9,3.3-0.4,5c0.8,3,1.6,5.9,2.5,8.9
		c-2.1-0.1-1.8-1.9-2.5-3.1c-2-3.7-2-8-3.4-11.8c0-1.3,0-2.6,0-4c-1.2-7.2-2.7-14.3-6-20.9C228.4,96.6,228.4,96.2,228.4,95.9z"/>
	<path class="st4" d="M241.4,81c1.3-4,2.6-8,3.9-12C246.6,72.9,244.5,79.2,241.4,81z"/>
	<path class="st4" d="M237.4,91.9c0.4-3.4,2-6.2,4-8.9C242.8,87.2,240.5,89.8,237.4,91.9z"/>
	<path class="st3" d="M160.7,223.3c1.4-1.4,3.2-1.6,5-2C164.8,223.9,163,224.3,160.7,223.3z"/>
	<path class="st2" d="M140.8,225.3c0.3-0.7,0.7-1.3,1-2c0.7,0,1.3,0,2,0c0,0.3,0,0.7,0,1C143,225.5,141.9,225.3,140.8,225.3z"/>
	<path class="st4" d="M234.4,203.4c1.2-3,2.2-6.3,3.8-9.1c1.1-1.9,0.6-3-0.4-4.4c2.8-7.3,2.9-14.7,0.4-22.1
		c0.9-8.1,3.3-15.9,3.2-24.1c3,0.7,2.2,3.3,1.9,4.9c-2.5,10.9-1.1,21.7-0.1,32.6c0.5,5.5-2.1,10.9-4.2,16.1
		C238,199.7,238.3,203.1,234.4,203.4z"/>
	<path class="st6" d="M241.4,143.7c0.2,8.2-2.2,16.1-3.2,24.1c-1.3-1.7-2.5-3.5-3.8-5.2c1.4-2.6,2.3-5.3,3.1-8.1
		c1.5-4.9,1.1-10,2.8-14.8c0.3,0,0.7,0,1,0C241.4,141,241.4,142.3,241.4,143.7z"/>
	<path class="st4" d="M241.4,139.7c-0.3,0-0.7,0-1,0c0-1,0-2,0-3c-0.8-3-1.6-5.9-2.5-8.9c-0.5-1.7-1.1-3.5,0.4-5
		C240.2,128.3,243.5,133.5,241.4,139.7z"/>
	<path class="st4" d="M238.3,119.9c-3.1-0.8-1.5-3.3-1.9-5C239.6,115.5,238,118.1,238.3,119.9z"/>
	<path class="st4" d="M236.3,112.8c-1-0.6-1-1.3-0.1-2C237.4,111.5,237.4,112.1,236.3,112.8z"/>
	<path class="st7" d="M26.2,101.9c0.4-1.9,0.7-3.8,1.1-5.7c2.7-6.3,5.7-12.4,10-17.8c1.5-1.9,2.7-3.7,1.8-6.2
		c0.8-0.3,1.8-0.3,2.3-0.8c8.4-8.6,17.3-16.6,28-22.2c9.8-0.7,19.5-0.4,28.7,3.6c9.1,4,17.6,9.1,24.5,16.4c1.7,1.8,3,2.8,5.2,0.5
		c15.2-15.9,34-22.2,55.7-20.4c0.7,0.1,1.3,0,2,0c9.3,3.6,16.4,9.9,22.9,17.2c2.6,2.9,4.9,6.3,8.8,7.7c-0.1,1.9,1.2,3.2,1.7,4.9
		c-5.4-0.6-7.6,3.1-9.5,7.1c-7.9-5.8-16.6-9.7-26.3-11c1.9-4.4,0-6.7-4.3-7.1c-1.4-0.1-2.4-0.8-3.6-1.3c-4.1-1.8-8.1-3.8-12.2-5.3
		c-2.3-0.9-5.1-1-6.6,1.7c-1.6,2.7,0.1,4.8,1.8,6.6c3.2,3.3,7.4,4.9,11.6,6.5c-0.5,0.3-1.1,0.8-1.6,0.9c-11.3,1.6-19.6,7.5-25,17.3
		c-8.7,15.9-8.5,38.7,17.8,43.8c11.9,2.3,23.8,3.6,35.8,4.5c-2.3,3.4-5.4,0.8-8.1,1c-7.4,0.5-8.3,1-8.9,8.4c-0.1,1.3-0.7,2.5-1,3.7
		c-7.4-9.1-17.2-14-28.4-16.2c-1.6-2.4-4.2-3.3-6.8-3.6c-5.7-0.8-11.5-2.1-17.1-1.7c-6.8,0.5-14.4-0.7-19.9,5.3
		c-5.6,1-10.9,2.9-15.7,5.8c-13.5,7.9-19.4,16.9-13.6,32.3c-2.6-0.9-3.6-6.2-7.4-3.5c-2.4,1.7-5.8,2.6-6.7,6.5
		c-1.1-2.1-1.6-3.7-2.2-5.2c-1.3-3.3-0.8-6.6,2.5-8.6c5.9-3.7,6.3-6.6,1.2-10.9c-0.8-0.7-1.6-1.3-0.9-2.4c0.5-0.8,1.6-0.8,2.2-0.2
		c1.9,1.7,3.6,1.3,5.3-0.2c1.9-1.7,0.3-3.3-0.2-5c2.9-0.9,6.3-0.6,8.7-3.4c-7.7,1.9-15.5,1.1-23.2,1.1c-2.5-2.6-4.6-2.9-7.2,0.3
		c-2.8,3.4-4.6,7.7-9.7,8.9c-7.4,1.8-8.6,7.6-8.2,14.1c0.1,1.1,0,2.3,0,3.5c-0.7,0-1.3,0-2,0c-1.3-0.6-2-1.5-2-3
		c0.2-5.3-4.7-8.8-5-14c2,0.2,3.1-0.9,4.3-2.4c2.2-2.6,1.6-6.8,3.8-8.5c3.1-2.5,2.8-5.2,2.8-8.2c5.9,3.2,12.1,5.3,18.9,5.3
		c19.4,2.2,38.1-0.5,55.9-8.5c3.1-1.4,5.9-3.7,6.9-7.3c1.2-1,1.6-2.4,2-3.9c3.1-12.1,0.4-23-7.1-32.7C97.1,72.8,71.6,70.8,53,81.7
		c-13.5,8-20.8,20.4-24.6,35.1c-3.4-1.6-3.7-4-2.1-7.2C27.6,107.1,28.1,104.4,26.2,101.9z M88.1,53.8c-7,0.8-13.4,3.3-18.1,9.2
		c-1,1.3-2,2.8-1.4,4.5c0.8,2.2,2.7,1.4,4.3,1.5c1.5,0.1,2.9-0.1,4.3-0.7c3.9-1.8,8-3,12.3-3.4c3.8-0.4,6.7-2.5,6.5-6.4
		C95.8,54,91.8,54.1,88.1,53.8z M74.6,159.4c0.1-1-0.2-1.6-1-1.6c-0.7,0-1.3,0.3-1.4,1.1c-0.1,0.7,0.1,1.4,0.9,1.3
		C73.8,160.1,74.3,159.6,74.6,159.4z"/>
	<path class="st8" d="M217.1,74c-3.9-1.4-6.2-4.8-8.8-7.7c-6.5-7.3-13.7-13.6-22.9-17.2c-3.3-4-8.8-4.1-13.1-7.5
		c9.2-7.2,18.4-13.4,30.4-11c14.8,3,22.5,17.5,18.1,33.7C219.9,67.6,218.4,70.8,217.1,74z"/>
	<path class="st8" d="M69.3,49c-10.7,5.6-19.6,13.6-28,22.2c-0.5,0.5-1.5,0.6-2.3,0.8C36.4,66.7,35,61,35,55
		c-0.1-17.2,13.3-27.9,30.1-24c6.5,1.5,11.9,4.9,17,8.9c2.3,1.8,2.2,2.8-0.7,3.9C77.3,45.2,73.4,47.2,69.3,49z"/>
	<path class="st9" d="M209.3,86c1.9-4,4.1-7.8,9.5-7.1c4.4,5,7,11,9.6,17c0,0.3,0,0.7,0,1c-2,2.8-0.1,5.8,0.3,8.5
		c0.5,4.5,2.6,8.9,5.7,12.4c0,1.3,0,2.6,0,4c-1.7,2.8-1.6,5.7,0,8.3c4.6,7.7,3.7,15.6,1,23.5c-4.9,0.7-7.6-2.1-9.4-6
		c-1.6-3.5-3.1-7.2-2.6-11.2c4.6-5,5.7-10.9,4.6-17.4C225.6,105.7,218.8,95.1,209.3,86z"/>
	<path class="st9" d="M31.2,172.6c0-1.2,0.1-2.3,0-3.5c-0.4-6.5,0.8-12.4,8.2-14.1c5.1-1.2,6.9-5.6,9.7-8.9c2.6-3.2,4.7-2.9,7.2-0.3
		c4.4,3.8,9.6,1.9,14.5,2.2c0.5,1.7,2.1,3.3,0.2,5c-1.7,1.5-3.4,1.9-5.3,0.2c-0.6-0.6-1.7-0.6-2.2,0.2c-0.7,1.1,0,1.7,0.9,2.4
		c5.2,4.4,4.8,7.3-1.2,10.9c-3.3,2-3.8,5.3-2.5,8.6c0.6,1.5,1.1,3.1,2.2,5.2c1-3.9,4.3-4.8,6.7-6.5c3.8-2.8,4.7,2.6,7.4,3.5
		c21.3,37.6,81.8,36,102.5,0c5.9,0.5,7.7,2.1,8.1,7.3c-4.2,3.5-6.2,8.1-5.9,13.5c0.2,3.1,1.3,6.1,2,9.1c-4.4,1.3-8.8,2.7-13.1,4
		c-3.5-2.6-7.1-0.1-10.3,0.4c-3.6,0.6-7.7,1.6-10.6,4.5c-1,0-2,0-3,0c-2-1.4-3.8-2.1-5,0.9c-2,0-4,0-6,0.1c-5-1.6-10-1.6-14.9,0
		c-1.3,0-2.7,0-4,0c-1.5-3.4-3.8-2-6-0.9c-0.7,0-1.3,0-2,0c-0.2-1.8-1.5-1.7-2.9-2c-5.8-1.2-11.5-2.1-17.2-3.9
		c-5.1-1.6-9.9-5.2-15.8-4.1c-2.3-0.4-4.3-1.3-6-3c-0.2-1.3-0.4-2.5-2-1c-0.8,0-1.6-0.2-2-1c-1.3-3.2-4-3.7-7-4c0,0,0,0,0,0
		c-2.1-4-5.3-6.5-9.9-7c-1.3-0.6-2.3-1.6-3-3c0-1.3-0.7-2-2-2c0,0,0,0,0,0c-0.8-3.2-2.8-5.2-6-6c-1.7-1-3-2.3-4-4
		C31.2,174.5,31.2,173.5,31.2,172.6z"/>
	<path class="st5" d="M183.8,207.3c-0.7-3-1.8-6-2-9.1c-0.4-5.4,1.7-9.9,5.9-13.5c1.6-0.8,3.2-1.5,4.9-2.3c0.3,0,0.6,0,0.9,0.1
		c2,2.6,5.1,3.3,8.3,5.9c-1.5-5.2-4.7-5.9-8.2-6c-0.1-0.4-0.1-0.8-0.2-1.2c-0.4-4,1.2-7.4,3.1-10.7c3.7-3.3,7.7-5.9,13.1-4.8
		c3.7,1.5,6.1,4.8,9.5,6.8c-1-3.6-2.5-6.7-6.8-7c0.7-4,3.7-5.8,7.1-7.2c3.4,0.2,6.8,0.4,10.3,0.6c1.6,1.2,3.1,2.4,4.7,3.6
		c1.3,1.7,2.5,3.5,3.8,5.2c2.4,7.4,2.4,14.8-0.4,22.1c-4.2,10.9-11.6,19.1-21.7,25C204.2,221.8,193.3,219.2,183.8,207.3z"/>
	<path class="st9" d="M33.2,136.4c-0.1,3,0.3,5.7-2.8,8.2c-2.2,1.7-1.6,5.9-3.8,8.5c-1.3,1.5-2.3,2.6-4.3,2.4c-2-2.7,0.3-7.3-4-9
		c0-2.3,0-4.6,0-7c3.6-1.7,2.6-5.6,4-8.4c1.4-2.8,2.9-4.1,5.9-3.6C28.7,131.3,30.9,133.9,33.2,136.4z"/>
	<path class="st10" d="M28.2,127.8c-3-0.5-4.5,0.8-5.9,3.6c-1.4,2.8-0.3,6.7-4,8.4c0.9-7.6,3.8-14.9,4.1-22.7
		c0.2-5.2,1.1-10.5,3.8-15.1c1.9,2.6,1.3,5.3,0.1,7.7c-1.6,3.2-1.3,5.6,2.1,7.2C28.3,120.5,28.2,124.1,28.2,127.8z"/>
	<path class="st10" d="M73.1,206.4c5.9-1.2,10.7,2.4,15.8,4.1c5.7,1.8,11.5,2.7,17.2,3.9c1.4,0.3,2.7,0.2,2.9,2
		C96.4,215.2,84.4,212.1,73.1,206.4z"/>
	<path class="st10" d="M149.8,216.3c2.9-3,7-4,10.6-4.5c3.2-0.5,6.8-3,10.3-0.4C163.9,214.1,157,216,149.8,216.3z"/>
	<path class="st10" d="M18.3,146.7c4.3,1.7,1.9,6.3,4,9c0.2,5.2,5.2,8.6,5,14c-4.5-4.8-6.3-11-7.9-17.1
		C18.8,150.6,18.6,148.6,18.3,146.7z"/>
	<path class="st10" d="M120.9,217.3c5-1.6,9.9-1.6,14.9,0C130.8,218.9,125.8,218.9,120.9,217.3z"/>
	<path class="st10" d="M46.2,190.5c4.6,0.5,7.8,2.9,9.9,7C52.4,195.7,48.7,193.9,46.2,190.5z"/>
	<path class="st10" d="M35.2,179.5c3.2,0.8,5.2,2.8,6,6C38.1,184.6,36.1,182.6,35.2,179.5z"/>
	<path class="st10" d="M56.1,197.4c2.9,0.3,5.7,0.8,7,4C60.4,200.7,57.8,199.9,56.1,197.4z"/>
	<path class="st10" d="M110.9,216.4c2.2-1.1,4.5-2.5,6,0.9C114.9,217.1,112.7,218.1,110.9,216.4z"/>
	<path class="st10" d="M141.8,217.3c1.1-3,3-2.3,5-0.9C145.3,218,143.5,217.1,141.8,217.3z"/>
	<path class="st10" d="M31.2,172.6c0,1,0,2,0,3c-1.3-0.6-2-1.6-2-3C29.9,172.6,30.6,172.6,31.2,172.6z"/>
	<path class="st10" d="M65.1,202.4c1.6-1.5,1.8-0.3,2,1C66.3,203.4,65.5,203.2,65.1,202.4z"/>
	<path class="st10" d="M41.2,185.5c1.3,0,2,0.7,2,2C41.9,187.4,41.2,186.8,41.2,185.5z"/>
	<path class="st10" d="M234.4,162.6c-1.6-1.2-3.1-2.4-4.7-3.6c2.9-0.7,5.1-2.2,5.7-5.3c2.7-8,3.6-15.8-1-23.5
		c-1.6-2.6-1.7-5.5,0-8.3c1.4,3.9,1.4,8.1,3.4,11.8c0.7,1.2,0.4,3,2.5,3.1c0,1,0,2,0,3c-1.7,4.8-1.3,9.9-2.8,14.8
		C236.7,157.3,235.9,160,234.4,162.6z"/>
	<path class="st10" d="M234.4,117.8c-3.1-3.6-5.2-7.9-5.7-12.4c-0.3-2.7-2.2-5.6-0.3-8.5C231.7,103.5,233.1,110.6,234.4,117.8z"/>
	<path class="st11" d="M179.5,177.5c-20.7,36-81.2,37.6-102.5,0c-5.9-15.4,0.1-24.4,13.6-32.3c4.9-2.8,10.1-4.8,15.7-5.8
		c0.7,1.9,1.6,3.6,3.1,5.1c11.7,11.1,32.2,8.5,40.7-5c11.3,2.3,21,7.2,28.4,16.2c0.4,0.6,0.8,1.3,1.2,1.9
		C182.5,164.3,182.6,170.9,179.5,177.5z M104,173.7c-3.8,0.7-7.3,1.7-9.5,5c-0.7,1-1,2.3-0.1,3.2c1.1,1.2,2.3,0.4,3-0.5
		c3.3-4.2,7.5-3.6,11.8-2.1c5.9,2,11.1,0.8,16-2.7c3.4-2.4,7-2.9,10.8-1.3c4.3,1.8,8.4,1.6,12.3-1c5.1-3.5,10.1-3.8,15.1,0.2
		c1.3,1,2.7,1.6,3.8-0.1c0.9-1.5-0.5-2.4-1.5-3.2c-5.2-4.3-11.8-4.9-17.5-1c-3.7,2.5-7.2,2.9-11.2,1.3c-4.4-1.7-8.7-1.5-12.7,1.4
		c-4.6,3.3-9.5,4.4-14.9,2C107.6,174.1,105.6,174,104,173.7z"/>
	<path class="st11" d="M209.3,86c9.5,9.1,16.3,19.7,18.5,33c1.1,6.6,0.1,12.4-4.6,17.4c-4.9,2.9-10.1,5-15.8,5.6
		c-1.1-0.2-2.1-0.3-3.1,0.4c-0.3,0-0.7,0-1,0.1c-2.3,0-4.6,0-6.9,0.1c-12-0.9-23.9-2.3-35.8-4.5c-26.3-5.1-26.5-27.9-17.8-43.8
		c5.4-9.8,13.8-15.8,25-17.3c0.6-0.1,1.1-0.6,1.6-0.9c4.5-0.4,9.1,0.9,13.4-1C192.8,76.3,201.5,80.2,209.3,86z M146,122.8
		c-0.3,6.3,1,8,6.3,7.9c1.4,0.3,2.8,0.5,4.2,0.8c0.5,3.6,3.3,2.3,5,1.9c13.5-3.1,27.2-3.6,40.9-1.9c4.3,0.5,8.3-1.8,8.8-5.3
		c2.6-16.8-2.3-32.7-19.4-41.8c-15.1-8-34.1-2.5-41.7,12.8C146.3,105.2,145.1,113.9,146,122.8z M192.3,134.6
		c-5.6-2.9-16.5-1.8-20.6,2.2C178.8,136.1,185.2,135.4,192.3,134.6z"/>
	<path class="st11" d="M28.2,127.8c0.1-3.6,0.2-7.3,0.2-10.9c3.9-14.7,11.2-27.2,24.6-35.1c18.6-11,44.1-8.9,56.8,7.6
		c7.5,9.7,10.2,20.6,7.1,32.7c-0.4,1.4-0.8,2.8-2,3.9c-1.1-1.5-2.7-0.9-4.1-1.1c-0.1-5.9,0.3-11.9-1-17.8
		c-5.4-25.3-29.8-31.6-45.8-22.2c-4.6,1.8-8.6,4.4-11,8.9c-7.9,9.2-10.1,19.8-7.9,31.6c0.6,3.5,2.2,4.9,5.6,4.3
		c0.5,0.6,1,1.3,1.5,1.9c-0.1,1.2,0.5,2.1,1.3,3c2.9,3,2,5.3-1.4,7.1c-6.8,0-13-2.1-18.9-5.3C30.9,133.9,28.7,131.3,28.2,127.8z"/>
	<path class="st9" d="M204.4,142.4c1-0.7,2-0.6,3.1-0.4c0.4,0.5,0.8,1.5,1.1,1.4c4.2-0.6,7.3,2.3,11,3.4c1.8,0.6,3.2,1.3,2.4,3.9
		c-0.8,2.5-0.6,5.4-2.5,7.6c-3.4,1.4-6.3,3.2-7.1,7.2c-0.9,0.1-1.8,0.2-2.7,0.2c-5.4-1.1-9.4,1.5-13.1,4.8c-2-0.8-3.3-2.2-4.7-4
		c-3.1-4.1-5.9-9-12.2-8.9c-0.4-0.6-0.8-1.3-1.2-1.9c0.3-1.2,0.9-2.5,1-3.7c0.6-7.4,1.5-8,8.9-8.4c2.6-0.2,5.8,2.4,8.1-1
		c2.3,0,4.6,0,6.9-0.1C203.9,143.3,204.2,143.4,204.4,142.4z"/>
	<path class="st12" d="M150.2,139.5c-8.5,13.6-29,16.1-40.7,5c-1.5-1.4-2.3-3.2-3.1-5.1c5.5-6,13.1-4.8,19.9-5.3
		c5.6-0.4,11.4,0.9,17.1,1.7C145.9,136.2,148.6,137.1,150.2,139.5z"/>
	<path class="st5" d="M52.1,141.7c3.4-1.8,4.3-4.1,1.4-7.1c-0.8-0.8-1.4-1.8-1.3-3c17.7,7.1,35,6.5,52.1-1.9c5.6,2.9,5.4-2,6.5-4.9
		c1.4,0.1,3-0.5,4.1,1.1c-1,3.7-3.7,5.9-6.9,7.3C90.2,141.2,71.6,144,52.1,141.7z"/>
	<path class="st12" d="M88.1,53.8c3.7,0.3,7.6,0.2,7.9,4.6c0.2,3.9-2.7,6-6.5,6.4c-4.3,0.5-8.4,1.7-12.3,3.4
		c-1.4,0.7-2.9,0.8-4.3,0.7c-1.6-0.1-3.5,0.7-4.3-1.5C68,65.8,69,64.3,70,63C74.8,57.2,81.2,54.6,88.1,53.8z"/>
	<path class="st12" d="M183,75c-4.3,2-9,0.6-13.4,1c-4.2-1.6-8.4-3.1-11.6-6.5c-1.7-1.8-3.4-3.9-1.8-6.6c1.6-2.6,4.3-2.6,6.6-1.7
		c4.2,1.5,8.2,3.6,12.2,5.3c1.2,0.5,2.1,1.2,3.6,1.3C183.1,68.3,185,70.6,183,75z"/>
	<path class="st12" d="M70.8,148c-4.9-0.3-10.1,1.5-14.5-2.2c7.7,0,15.5,0.7,23.2-1.1C77.1,147.3,73.8,147.1,70.8,148z"/>
	<path class="st9" d="M74.6,159.4c-0.4,0.2-0.8,0.7-1.4,0.8c-0.9,0.1-1-0.6-0.9-1.3c0.1-0.8,0.7-1.1,1.4-1.1
		C74.5,157.8,74.7,158.3,74.6,159.4z"/>
	<path class="st7" d="M219.5,158.4c1.9-2.2,1.7-5.1,2.5-7.6c0.8-2.5-0.6-3.3-2.4-3.9c-3.6-1.1-6.7-4-11-3.4c-0.3,0-0.7-0.9-1.1-1.4
		c5.7-0.7,10.9-2.7,15.8-5.6c-0.4,4,1,7.7,2.6,11.2c1.8,3.9,4.5,6.8,9.4,6c-0.6,3.2-2.8,4.6-5.7,5.3
		C226.3,158.8,222.9,158.6,219.5,158.4z"/>
	<path class="st7" d="M179.7,157.6c6.3-0.1,9.1,4.7,12.2,8.9c1.3,1.8,2.7,3.2,4.7,4c-2,3.3-3.5,6.7-3.1,10.7
		c-0.3,0.4-0.6,0.9-0.9,1.3c-1.6,0.8-3.3,1.5-4.9,2.3c-0.5-5.2-2.3-6.8-8.1-7.3C182.6,170.9,182.5,164.3,179.7,157.6z"/>
	<path class="st12" d="M209.6,165.7c0.9-0.1,1.8-0.2,2.7-0.2c4.3,0.3,5.8,3.4,6.8,7C215.8,170.6,213.3,167.3,209.6,165.7z"/>
	<path class="st11" d="M193.6,182.4c3.6,0.1,6.7,0.8,8.2,6c-3.2-2.6-6.3-3.3-8.3-5.9C193.5,182.6,193.6,182.4,193.6,182.4z"/>
	<path class="st11" d="M192.6,182.5c0.3-0.4,0.6-0.9,0.9-1.3c0.1,0.4,0.1,0.8,0.2,1.2c0,0-0.1,0.1-0.1,0.1
		C193.2,182.5,192.9,182.5,192.6,182.5z"/>
	<path class="st12" d="M104,173.7c1.7,0.4,3.6,0.5,5.2,1.2c5.4,2.4,10.3,1.3,14.9-2c4-2.9,8.3-3.1,12.7-1.4c4,1.6,7.5,1.2,11.2-1.3
		c5.8-3.8,12.3-3.3,17.5,1c1,0.8,2.4,1.7,1.5,3.2c-1.1,1.7-2.5,1.1-3.8,0.1c-5-4-10-3.7-15.1-0.2c-3.9,2.6-8,2.8-12.3,1
		c-3.8-1.6-7.4-1.1-10.8,1.3c-4.8,3.4-10.1,4.7-16,2.7c-4.2-1.5-8.4-2.1-11.8,2.1c-0.7,0.9-1.9,1.6-3,0.5c-0.9-1-0.6-2.2,0.1-3.2
		C96.7,175.4,100.2,174.3,104,173.7z"/>
	<path class="st13" d="M156.5,131.5c-1.4-0.3-2.8-0.5-4.2-0.8c-1.3-3.6-0.4-7.6-2.4-11c0-1.6,0-3.2,0-4.9c1.1-0.4,0.9-1.2,0.8-2
		c1.7-12.8,7.8-22.2,20.6-26.6c5.6-1.1,11,0.2,16.4,1.6c0.5,0.1,1,0.1,1.4,0.3c12.8,6.3,20.4,22.8,17.4,37c-0.6,2.6-1.7,3-4.1,2.6
		C186.7,125,171.5,127,156.5,131.5z M170.3,112.8c0-6-3.1-10.1-7.7-10.1c-4.7,0-8.4,4.1-8.3,9.6c0,5.6,3.7,11,8.1,10.5
		C167,122.4,170.2,118.8,170.3,112.8z"/>
	<path class="st12" d="M171.2,86.3c-12.7,4.3-18.8,13.7-20.6,26.6c-1.4,0.3-2.4,0.7-0.8,2c0,1.6,0,3.2,0,4.9
		c-1.4,0.9-1.3,3.6-3.8,3.1c-1-8.9,0.2-17.6,4.2-25.6c7.6-15.3,26.6-20.7,41.7-12.8c17.1,9.1,22,25,19.4,41.8
		c-0.5,3.4-4.5,5.8-8.8,5.3c-13.8-1.7-27.4-1.2-40.9,1.9c-1.8,0.4-4.5,1.7-5-1.9c15-4.6,30.2-6.5,45.8-3.7c2.4,0.4,3.5,0,4.1-2.6
		c3-14.2-4.6-30.7-17.4-37c-0.4-0.2-1-0.2-1.4-0.3c-2.5-4.2-13.6-5.4-16.8-1.9C170.9,86.1,171.1,86.2,171.2,86.3z"/>
	<path class="st12" d="M192.3,134.6c-7,0.7-13.5,1.4-20.6,2.2C175.7,132.8,186.6,131.7,192.3,134.6z"/>
	<path class="st14" d="M146,122.8c2.6,0.6,2.5-2.2,3.8-3.1c2,3.4,1.2,7.4,2.4,11C147.1,130.8,145.7,129.1,146,122.8z M148.5,125.2
		c-0.1,0.3-0.4,0.6-0.3,0.8c0.1,0.2,0.5,0.3,0.8,0.4c0.1-0.3,0.4-0.6,0.3-0.8C149.2,125.4,148.7,125.3,148.5,125.2z"/>
	<path class="st7" d="M204.4,142.4c-0.2,0.9-0.6,0.9-1,0.1C203.8,142.4,204.1,142.4,204.4,142.4z"/>
	<path class="st13" d="M104.3,129.7c-17.1,8.4-34.5,9-52.1,1.9c-0.5-0.6-1-1.3-1.5-1.9c-1.8-10.3-2-20.4,3.3-29.8
		c0.3-0.3,0.5-0.6,0.8-1c0.3-0.1,0.4-0.4,0.4-0.7c4-4.8,8.9-8.4,14.5-11.1c0.8-0.2,1.6-0.3,2.4-0.5c0.9-0.2,1.9-0.5,2.8-0.7
		c0.3,0,0.7,0,1-0.1c3.7,0.2,7.4,0,10.9,1c6.1,2.1,10.7,6.1,13.9,11.6C106.7,108.3,105.3,119,104.3,129.7z M99.9,113.5
		c0-1.2,0.1-2.3,0-3.5c-0.5-3.2-1.9-5.9-5.1-7.2c-3.1-1.3-5.3,0.8-7.2,2.6c-4,3.7-4.4,9.3-1.4,14.5c1,1.7,2.2,2.6,4.2,2.8
		C96.7,123.6,99.9,120.5,99.9,113.5z"/>
	<path class="st12" d="M104.3,129.7c1-10.7,2.3-21.4-3.5-31.3C97.6,92.9,93.1,89,87,86.8c-3.3-3.6-7.8-4-10.9-1c-0.3,0-0.7,0-1,0.1
		c-1.3-1.3-2.3-1.3-2.8,0.7c-0.8,0.2-1.6,0.3-2.4,0.5c-1.9-0.8-4.9,1.2-5.7-2.3c16-9.5,40.4-3.1,45.8,22.2c1.3,5.9,0.9,11.8,1,17.8
		C109.7,127.8,109.9,132.6,104.3,129.7z"/>
	<path class="st12" d="M55.2,98.2c0.1,0.3-0.1,0.6-0.4,0.7c-0.4,0.2-1.6-0.2-0.8,1c-5.3,9.5-5.1,19.6-3.3,29.8
		c-3.4,0.6-5-0.8-5.6-4.3c-2.1-11.8,0-22.4,7.9-31.6C54.3,95,55.5,96.2,55.2,98.2z"/>
	<path class="st14" d="M55.2,98.2c0.3-2-1-3.2-2.2-4.4c2.4-4.6,6.4-7.1,11-8.9c0.8,3.5,3.8,1.5,5.7,2.3
		C64.2,89.8,59.3,93.4,55.2,98.2z"/>
	<path class="st14" d="M170.3,112.8c0,5.9-3.3,9.5-8,10.1c-4.3,0.5-8-4.9-8.1-10.5c0-5.5,3.6-9.6,8.3-9.6
		C167.2,102.8,170.3,106.8,170.3,112.8z"/>
	<path class="st14" d="M171.2,86.3c-0.1-0.1-0.3-0.2-0.4-0.3c3.2-3.6,14.3-2.4,16.8,1.9C182.2,86.5,176.8,85.2,171.2,86.3z"/>
	<path class="st14" d="M149.9,114.9c-1.6-1.4-0.6-1.8,0.8-2C150.8,113.7,150.9,114.5,149.9,114.9z"/>
	<path class="st12" d="M148.5,125.2c0.3,0.1,0.7,0.2,0.8,0.4c0.1,0.2-0.2,0.5-0.3,0.8c-0.3-0.1-0.7-0.2-0.8-0.4
		C148.1,125.8,148.3,125.5,148.5,125.2z"/>
	<path class="st14" d="M99.9,113.5c0,7-3.2,10.1-9.5,9.3c-2-0.3-3.2-1.1-4.2-2.8c-3-5.2-2.6-10.7,1.4-14.5c2-1.8,4.1-3.9,7.2-2.6
		c3.2,1.3,4.6,4,5.1,7.2C100.1,111.1,99.9,112.3,99.9,113.5z"/>
	<path class="st14" d="M76.1,85.8c3.2-3,7.6-2.6,10.9,1C83.4,85.8,79.7,86.1,76.1,85.8z"/>
	<path class="st14" d="M72.2,86.6c0.5-2,1.5-2,2.8-0.7C74.1,86.1,73.2,86.4,72.2,86.6z"/>
	<path class="st14" d="M54.1,99.9c-0.8-1.2,0.4-0.8,0.8-1C54.6,99.2,54.3,99.6,54.1,99.9z"/>
</g>
</svg>
