<?xml version="1.0" encoding="utf-8"?>
<!-- Generator: Adobe Illustrator 26.0.3, SVG Export Plug-In . SVG Version: 6.00 Build 0)  -->
<svg version="1.1" id="Capa_1" xmlns="http://www.w3.org/2000/svg" xmlns:xlink="http://www.w3.org/1999/xlink" x="0px" y="0px"
	 viewBox="0 0 269.9 213" style="enable-background:new 0 0 269.9 213;" xml:space="preserve">
<style type="text/css">
	.st0{fill:#F8F8F7;}
	.st1{fill:#F3F3F1;}
	.st2{fill:#E7DFD8;}
	.st3{fill:#E8E7E6;}
	.st4{fill:#D6D3CE;}
	.st5{fill:#97785E;}
	.st6{fill:#CCC9C4;}
	.st7{fill:#EDD7B7;}
	.st8{fill:#F0D7B1;}
	.st9{fill:#ECC7C5;}
	.st10{fill:#99775D;}
	.st11{fill:#5C3B1E;}
	.st12{fill:#4B311E;}
	.st13{fill:#ADD0E4;}
	.st14{fill:#F6EDE4;}
</style>
<g>
	<path class="st0" d="M37.4,168.2c-4.1-0.8-5.5-4.5-7.7-7.3c-10.6-13.1-17-27.7-16.2-44.9c0.3-7.9,3.5-15.3,3.2-23.4
		c-0.2-4.9-1.9-8.3-5.2-11.7c-9.7-9.7-14-21.1-9.9-35C5.2,33.7,13,25.5,24.1,19.6c8.3-4.4,16.8-8.7,25.9-10.6
		c10-2.1,19.9-4.9,30.7-3.3c10.9,1.6,22.1-0.3,33-2.8c11.9-2.7,23.9-4.3,36.2-1.1c3.6,0.9,7.4,1.1,11,2.3c1.1,0.4,1.7,0.9,1.8,2
		c-11.3,0-22.2-3.7-33.7-2.4c-6.7,0.7-13.5,1.6-20.2,2.2c-7.2,0.6-14.1,4.4-21.7,2.3c-0.8-0.2-1.6,0.2-2.1,0.9c-1.3,0-2.6,0-4,0
		c-6.3-2.5-12.7-1.5-18.9,0c-2,0.5-5.2-0.3-6,3c-0.7,0-1.3,0-2,0c-4.5-1-8.2,0.1-11,4c-0.7,0-1.3,0-2,0c-1.6-1.5-1.8-0.3-2,1
		c-1,0-2,0-2.9,0c-1.5,0-2.9-0.1-3,2c-0.3,0-0.6,0-1,0c-2.9,0.8-6.4,0.9-7,4.9c-0.3,0-0.7,0-1,0c-3-0.4-4.7,0.9-5,4
		c-0.3,0-0.6,0-1,0c-3.4,1.1-5.9,3-6,6.9c-0.3,0.3-0.7,0.7-1,1c-3.2-0.3-3.1,1.8-3,4l0,0c-3.2,1.4-4.2,4.4-5,7.3
		C0.3,58.9,5,68.4,12.3,76.9c5.3,6.1,10.4,11.9,7.2,20.9c-1.3,3.8-1.4,8.1-2.4,12c-0.4,1.8-0.4,2.9,1.3,3.6c0,0.7,0,1.3,0,2
		c-3.3,3.4-3.5,7-1,10.9c0,1.3,0,2.6,0,4c1.3,3.5,0.6,8,4.9,10c0,0.7,0,1.3,0,2c0,2.2-0.3,4.7,3,5c2.4,6.1,6.1,11.4,11,15.9
		C36.7,164.9,37.1,166.5,37.4,168.2z"/>
	<path class="st1" d="M37.4,168.2c-0.3-1.7-0.7-3.3-1-5c2.4,0.2,3.2,6.2,6.9,2c1,1.3,2,2.6,3,3.9c0.3,0.7,0.7,1.3,1,2
		c3,6.3,8.7,9.1,14.9,10.9c0.4,0.8,1.2,1,2,1c0,1.4,1,2.1,2,2.6c7,2.8,13.1,7.6,20.6,9.3c10.2,2.4,20.5,4.5,30.8,6.7
		c11.7,2.5,23.3,2.1,34.6,0.3c12.9-2,25.8-4.3,38.1-9.6c11.6-5,22.9-10.7,32.4-18.5c14.9-12.2,26.6-27.1,29.3-47.3
		c0.2-1.3,0.4-3.1,2.5-3.2c0,1.3,0,2.7,0,4c0.5,9.2-3.9,16.8-8.2,24.5c-6,10.7-15,18.3-24.1,26.1c-9.8,8.4-20.9,14.2-32.8,18.7
		c-12.6,4.8-25.8,7.6-39.2,8.9c-7.2,0.7-14.4,0.2-21.4,2.5c-1.1-0.5-1.5-2.1-3.1-1.8c-3.8-3.2-8.3-2.1-12.6-2.3c-1.7,0-3.3,0-5,0
		c-0.7-3.2-3.2-1.6-5-2c-1,0-2,0-3,0c-3.9-2.7-8.3-3.8-13-4c-1.3,0-2.7,0-4,0c-0.3-3.3-2.7-3-5-3c-1-1.4-2.6-0.9-4-1
		c-2.1-4-6.4-4.4-10-6c0,0,0,0,0,0c-2.3-3.6-6.2-4.7-10-6c-0.3,0-0.7,0-1,0c-0.8-3.8-4-4.7-7-6c-0.4-0.8-1.2-1-2-1
		c-0.6-2.8-2.2-4.4-5-5c0,0,0,0,0,0C39.3,168.9,38.7,168.2,37.4,168.2L37.4,168.2z"/>
	<path class="st1" d="M85.2,9.1c0.5-0.7,1.3-1.2,2.1-0.9c7.6,2.2,14.5-1.6,21.7-2.3c6.7-0.6,13.5-1.5,20.2-2.2
		c11.5-1.3,22.4,2.4,33.7,2.4c0.7,0,1.3,0,2,0c6,2.2,12.1,3.3,18.5,2.1c3.1-0.6,6.5-1.5,9.4,0.9c-4.5,1.7-9.4,1.1-14,1.9
		c-2.7,0.5-5.3,1.9-8.2,0.5c-4.8-2.4-10-2.7-15.2-3.6c-20.6-3.7-40.7-0.9-60.7,3.5C91.3,12,87.8,12.1,85.2,9.1z"/>
	<path class="st0" d="M244.6,20c7.5,1.9,12.8,7.1,17,12.9c6.4,8.8,11.3,18.5,8,30.3c-2,7.1-5.8,13.1-10.7,18c-3,3-6.1,5.8-8.3,9.5
		c-1.6-1.3-2-3-2-5c1.1-1.9,2.8-3.1,4.5-4.4c6.3-4.7,10.2-11,12.4-18.5c3.2-0.8,2.1-3.5,1.9-5.2c-0.6-5,1-10.7-3.9-14.7
		c-0.3-1-0.7-2-1-3c-1.5-7.7-8-11-13.5-15.1C247.2,23.4,244.8,22.8,244.6,20z"/>
	<path class="st0" d="M192.8,9.1c-2.9-2.4-6.2-1.5-9.4-0.9c-6.4,1.2-12.5,0.1-18.5-2.1c0.7-0.9,1.7-1.2,2.7-1
		c8.9,1.9,17.9-0.1,26.8,0.1c12.8,0.4,25.4,2.7,37.4,7.8c4.3,1.8,9.2,2.4,11.9,7c-5-1.3-10-2.6-15-4c-0.3,0-0.7,0-1,0
		c-2.6-3.6-10.8-6-13.9-4c-0.7,0-1.3,0-2,0c-2.8-3.4-6.2-3.7-10-2C198.7,10.2,195.7,10,192.8,9.1z"/>
	<path class="st1" d="M228.6,16c5,1.3,10,2.6,15,4c0.3,0,0.7,0,1,0c0.2,2.8,2.6,3.4,4.4,4.8c5.5,4.1,12,7.4,13.5,15.1
		c-0.7,0-1.3,0-2,0c-1.1-1-2.5-1.8-3.2-3c-5.1-8.9-13.1-13.8-22.4-17.3C232.6,18.8,229.9,18.6,228.6,16z"/>
	<path class="st1" d="M248.6,85.6c-0.1,1.9,0.4,3.7,2,5c0,1.7,0,3.3,0,5c0.5,4.6,0.3,9.4,4,12.9c0,0.7,0,1.3,0,2c0,3.3,0,6.6,0,10
		c-2.1-0.3-1.7-1.9-2-3.3c-1.5-8-2.7-16-5.9-23.5c0-1.3,0-2.6,0-4C246.5,87.9,246.7,86.4,248.6,85.6z"/>
	<path class="st0" d="M254.5,120.5c0-3.3,0-6.6,0-10c1.4,0.2,2,1,2,2.3c0,4.1,0,8.2,0,12.3c0,1.4-0.6,2.1-2,2.3c0-1.3,0-2.7,0-4
		C254.5,122.4,254.5,121.4,254.5,120.5z"/>
	<path class="st0" d="M254.5,108.5c-3.7-3.6-3.5-8.4-4-12.9C254.4,99.1,255,103.6,254.5,108.5z"/>
	<path class="st0" d="M87.2,198c4.7,0.2,9.1,1.3,13,4C95.7,201.1,90.3,203.2,87.2,198z"/>
	<path class="st0" d="M113.1,204c4.3,0.1,8.8-0.9,12.6,2.3c-0.8,0.3-1.5,0.6-2.3,0.9c-2.3-0.6-4.6-1.4-7.1-1.2
		C114.8,206.1,113.3,206,113.1,204z"/>
	<path class="st0" d="M64.3,188.1c3.6,1.5,7.8,2,10,6C70.3,193.1,66.1,192.6,64.3,188.1z"/>
	<path class="st0" d="M54.3,182.1c3.8,1.3,7.6,2.3,10,6C60.4,187.1,56.6,185.8,54.3,182.1z"/>
	<path class="st0" d="M46.3,176.1c3,1.3,6.2,2.2,7,6C49.9,181.4,47.2,179.8,46.3,176.1z"/>
	<path class="st0" d="M39.4,170.2c2.8,0.5,4.4,2.2,5,5C41.6,174.6,39.9,172.9,39.4,170.2z"/>
	<path class="st0" d="M78.2,195c2.2,0,4.7-0.3,5,3C81,198,78.5,198.3,78.2,195z"/>
	<path class="st0" d="M103.1,202c1.8,0.4,4.3-1.2,5,2C106.4,203.6,103.8,205.2,103.1,202z"/>
	<path class="st0" d="M37.4,168.2c1.3,0,2,0.7,2,2C38.1,170.1,37.4,169.5,37.4,168.2z"/>
	<path class="st2" d="M228.6,16c1.3,2.6,4,2.7,6.2,3.6c9.3,3.5,17.3,8.4,22.4,17.3c0.7,1.2,2.1,2,3.2,3c-0.1,1.8,0.7,3.5,1,5.2
		c0.9,4.8,3.3,9.6,1,14.6c-1-0.6-1.4-2.1-2.9-2c1.1-10.7-2.3-19.8-10.9-26.2c-17.9-13.5-38.5-19-60.7-17.8
		c-8.1,0.4-15.8,0.9-23.9-1.3c-18.2-4.8-36.7-4.8-55.2-0.8c-7.6,1.7-14.9,3.8-23.3,2.5c-20-3.1-38.8,2.4-56.4,11.7
		C17.4,32.2,9.4,41.3,10.1,55.7c-0.9,0.2-2.5,0.1-2.1,1.4c0.9,3.1,0.4,6.4,2.6,9.4c3.8,5,7.7,9.9,12.3,14.2c1.2,1.1,2.6,2.2,2.5,4.1
		c-0.3,8-0.8,16-3,23.8c-0.8-0.4-1-1.2-1-2c0.1-2.6,0.4-5.2,0.7-7.8c0.6-6.3,1.8-12.9-3.4-18.3c-2.5-2.6-4.8-5.4-7.2-8.2
		c-6.4-7.7-7.1-16.6-4.9-25.9c0.5-2.2,2.5-4,1.9-6.5c0,0,0,0,0,0c1.6-0.9,2.9-2,3-4c0.3-0.3,0.7-0.7,1-1c2.4-1.9,5.2-3.6,6-6.9
		c0.3,0,0.6,0,1,0c2.5-0.2,3.8-2.1,5-4c0.3,0,0.7,0,1,0c3-0.7,5.6-2,7-4.9c0.3,0,0.6,0,1,0c1.5,0,2.9,0,3-2c1,0,2,0,2.9,0
		c0.8,0,1.6-0.2,2-1c0.7,0,1.3,0,2,0c4-0.3,7.8-1.3,11-4c0.7,0,1.3,0,2,0c2.8-0.1,5.6-0.5,8.1-1.2c5.6-1.4,11.4,0.5,16.8-1.8
		c1.3,0,2.6,0,4,0c2.6,3,6.1,2.9,9.4,2.2c20.1-4.4,40.2-7.2,60.7-3.5c5.2,0.9,10.4,1.2,15.2,3.6c2.9,1.5,5.6,0,8.2-0.5
		c4.7-0.8,9.5-0.1,14-1.9c2.9,1,5.9,1.1,9,1c3.1,1.9,6.5,2.1,10,2c0.7,0,1.3,0,2,0c0.6,1.3,1.6,2,3.1,2c3.8-0.2,7.3,1.3,10.9,2
		C228,16,228.3,16,228.6,16z"/>
	<path class="st1" d="M8.5,39.9c0.6,2.5-1.4,4.3-1.9,6.5c-2.1,9.3-1.5,18.2,4.9,25.9c2.3,2.8,4.6,5.6,7.2,8.2
		c5.2,5.4,3.9,12,3.4,18.3c-0.2,2.6-0.5,5.2-0.7,7.8c-2.6,0.4-1.8,2.4-2,4c0,1,0,2,0,3c-0.3,0-0.7,0-1,0c-1.7-0.8-1.8-1.9-1.3-3.6
		c1-4,1-8.2,2.4-12c3.2-9.1-2-14.8-7.2-20.9C5,68.4,0.3,58.9,3.5,47.2C4.3,44.3,5.3,41.3,8.5,39.9z"/>
	<path class="st3" d="M43.3,165.2c-3.7,4.2-4.5-1.8-6.9-2c-4.8-4.5-8.5-9.8-11-15.9c-0.3-2.1-1-3.9-3-5c0-0.7,0-1.3,0-2c0-1,0-2,0-3
		c0.7,0.3,1.3,0.7,2,1c1.7,4.1,3.1,8.4,6,11.9c0.5,2.3,1,4.7,4,5c2.2,1.5,3.3,4,5,6c0,1.3,0.7,2,2,2C42.3,163.6,43,164.2,43.3,165.2
		z"/>
	<path class="st1" d="M81.2,9.1c-5.4,2.2-11.2,0.3-16.8,1.8c-2.5,0.6-5.4,1.1-8.1,1.2c0.9-3.2,4-2.5,6-3C68.6,7.6,74.9,6.6,81.2,9.1
		z"/>
	<path class="st1" d="M22.4,137.4c0,1,0,2,0,3c-4.4-2-3.7-6.4-4.9-10c1,0,2,0,3,0c0,0.3,0,0.7,0,1c0,1.4,0,2.9,2,3
		C22.4,135.4,22.4,136.4,22.4,137.4z"/>
	<path class="st1" d="M54.3,12c-3.2,2.7-6.9,3.7-11,4C46.1,12.2,49.8,11.1,54.3,12z"/>
	<path class="st1" d="M17.5,126.4c-2.5-3.9-2.3-7.6,1-10.9c0,1.7,0,3.3,0,5c0.3,1.7,0.6,3.3,1,5C18.8,125.7,18.1,126.1,17.5,126.4z"
		/>
	<path class="st1" d="M32.4,19c-1.4,3-4,4.3-7,4.9C26,19.9,29.5,19.9,32.4,19z"/>
	<path class="st1" d="M18.5,28c-0.8,3.4-3.6,5-6,6.9C12.6,31,15.1,29.1,18.5,28z"/>
	<path class="st3" d="M17.5,126.4c0.7-0.3,1.3-0.7,2-1c1.7,1.4,0.8,3.3,1,5c-1,0-2,0-3,0C17.5,129.1,17.5,127.7,17.5,126.4z"/>
	<path class="st1" d="M24.4,24c-1.2,1.9-2.4,3.7-5,4C19.7,24.9,21.4,23.6,24.4,24z"/>
	<path class="st3" d="M18.5,120.4c0-1.7,0-3.3,0-5c0-0.7,0-1.3,0-2c0.3,0,0.7,0,1,0c0,0.8,0.2,1.6,1,2c0,1.7,0,3.3,0,5
		C19.8,120.4,19.1,120.4,18.5,120.4z"/>
	<path class="st1" d="M22.4,142.3c2,1,2.7,2.9,3,5C22.1,147,22.5,144.6,22.4,142.3z"/>
	<path class="st1" d="M11.5,35.9c-0.1,2-1.4,3.1-3,4C8.4,37.8,8.3,35.6,11.5,35.9z"/>
	<path class="st1" d="M36.4,17c-0.1,2-1.6,2-3,2C33.5,17,35,17,36.4,17z"/>
	<path class="st1" d="M41.4,16c-0.4,0.8-1.2,1-2,1C39.6,15.7,39.8,14.5,41.4,16z"/>
	<path class="st3" d="M254.5,120.5c0,1,0,2,0,2.9c-2.1,0.1-2.3,1.9-2.5,3.2c-2.7,20.2-14.4,35.1-29.3,47.3
		c-9.5,7.8-20.8,13.4-32.4,18.5c-12.3,5.4-25.2,7.7-38.1,9.6c-11.3,1.7-22.9,2.2-34.6-0.3c-10.3-2.2-20.6-4.2-30.8-6.7
		c-7.5-1.8-13.6-6.6-20.6-9.3c-1.1-0.4-2-1.2-2-2.6c0.7,0,1.3,0,2,0c0.7,0,1.3,0,2,0c0,1.3,0.7,2,2,2c3.3-0.8,4.8,3.3,8,3
		c0,1.3,0.7,2,2,2c1.3,0.3,2.6,0.7,4,1c2.1,1.6,4.1,3.3,7,2c0.7,0,1.3,0,2,0c1.1,3.1,3,2.3,5,1c1,0.3,2,0.7,3,1
		c1.3,3.4,4.8,1.6,7,2.9c1.3,0,2.6,0,3.9,0c0.7,1.2,1.9,1,3,1c1,0,2,0,3,0c1.9,1.1,3.7,2.1,6,1c2,0,4,0,6,0c1.8,1.8,4,0.7,6,1
		c0.6,0,1.3,0,1.9,0c2-0.3,4.3,0.9,6-1c2,0,4,0,6,0c1.4-0.1,2.9,0.5,4-1c8.2-1.7,16.7-2.7,24.5-5.4c3.4-1.2,8.4-1.1,10.3-5.5
		c0.7,0,1.3,0,2,0c2,2,3.5,0.5,5.2-0.5c6.9-4.1,14.1-7.8,20.7-12.4c12.2-8.4,21.8-19.2,28.3-32.3c5.3-10.8,5.8-22.6,3.2-34.6
		c-1-4.7-3.6-9.5-1.6-14.7c3.3,7.5,4.4,15.6,5.9,23.5C252.8,118.6,252.4,120.2,254.5,120.5z"/>
	<path class="st3" d="M62.3,182.1c-6.3-1.9-11.9-4.7-14.9-10.9c1,0,2,0,3,0c1.6,0.9,2.9,2.4,5,2c0.3,0.3,0.7,0.7,1,1
		c0.2,2.5,1.9,3.1,4,3c0.3,0,0.6,0,1,0c0.3,1,0.7,2,1,2.9C62.3,180.8,62.3,181.5,62.3,182.1z"/>
	<path class="st4" d="M55.3,173.2c-2.1,0.4-3.4-1.1-5-2c-0.7-1.8-2.3-2.1-4-2c-1-1.3-2-2.6-3-3.9c-0.3-1-1-1.6-1.9-2
		c0-0.7,0-1.3,0-2c0,0,0,0,0,0C46.8,164.3,50.9,168.9,55.3,173.2z"/>
	<path class="st2" d="M62.3,182.1c0-0.7,0-1.3,0-2c1,0,2,0,3,0c0.3,0,0.7,0,1,0c0,1,0,2,0,2.9c-0.7,0-1.3,0-2,0
		C63.5,183.1,62.7,182.9,62.3,182.1z"/>
	<path class="st2" d="M46.4,169.2c1.7-0.1,3.2,0.2,4,2c-1,0-2,0-3,0C47,170.5,46.7,169.8,46.4,169.2z"/>
	<path class="st3" d="M262.5,59.8c2.3-5-0.1-9.8-1-14.6c-0.3-1.7-1.1-3.4-1-5.2c0.7,0,1.3,0,2,0c0.3,1,0.7,2,1,3
		c0.6,6.6,2.9,13.1,2,19.9c-2.2,7.5-6.1,13.8-12.4,18.5c-1.7,1.3-3.5,2.4-4.5,4.4c-1.8,0.8-2.1,2.3-2,4c-2.6-0.4-1.8-2.4-2-4
		c0-0.7,0-1.3,0-2c2.5-2.8,6.9-3.7,8-7.9c0.3-0.3,0.7-0.7,1-1c5.9-2.3,7.2-7.8,8.9-12.9C262.5,61.1,262.5,60.4,262.5,59.8z"/>
	<path class="st1" d="M265.5,62.8c0.9-6.8-1.4-13.3-2-19.9c4.8,3.9,3.3,9.6,3.9,14.7C267.6,59.3,268.7,62,265.5,62.8z"/>
	<path class="st1" d="M227.6,16c-3.6-0.7-7.1-2.3-10.9-2c-1.4,0.1-2.5-0.7-3.1-2C216.9,10,225,12.4,227.6,16z"/>
	<path class="st1" d="M211.7,12c-3.5,0.1-6.9-0.1-10-2C205.5,8.4,208.9,8.6,211.7,12z"/>
	<path class="st2" d="M244.6,85.6c0.2,1.6-0.7,3.7,2,4c0,1.3,0,2.6,0,4c-1.9,5.2,0.6,10,1.6,14.7c2.7,12,2.1,23.8-3.2,34.6
		c-6.4,13.1-16,23.9-28.3,32.3c-6.7,4.6-13.8,8.3-20.7,12.4c-1.7,1-3.3,2.5-5.2,0.5c0-0.3,0-0.7,0-1c1.3,0,1.9-0.7,2-2
		c9.9-2.6,18-8.6,25.9-14.6c7.3-5.6,14-11.8,18.6-20.2c3.8-7,7.5-13.8,8.3-21.9c3.5-4.8,2.6-9.8,0.9-15c0-1,0-2,0-2.9
		c-1.2-6.2-2.7-12.4-3.6-18.7C242.6,89.8,241,86.9,244.6,85.6z"/>
	<path class="st5" d="M10.1,55.7c-0.7-14.5,7.3-23.5,19.2-29.8c17.6-9.4,36.4-14.9,56.4-11.7c8.4,1.3,15.7-0.8,23.3-2.5
		c18.5-4,37-4,55.2,0.8c8.1,2.2,15.8,1.7,23.9,1.3c22.2-1.2,42.8,4.3,60.7,17.8c8.6,6.5,12,15.5,10.9,26.2c-1.2,3.5-3.2,6.6-5.1,9.8
		c-5,4.3-10.3,8-16.9,9.5c-2-4.7-3.9-9.5-5.9-14.2c1.5-0.8,3-1.4,4.4-2.3c3.9-2.5,7.2-5.4,6.7-10.7c-0.5-5-4.3-7.2-8.4-8.9
		c-6.9-3-14-5.1-21.7-4c-1.7,0-3.2-0.6-4.3-2c-10-12.5-24-11.8-37.5-10.3c-14,1.6-26,8.7-36,18.7c-2.4,2.4-3.7,2.1-5.9-0.1
		C120.8,35,110.9,29,99.6,25.6c-8.4-2.5-16.9-3.2-25.3,0.1c-2.1,0.3-3.5,1.7-5.2,2.6c-4.4,2.5-7.6,6.9-12.7,8.4
		c-6.7-0.4-13.2,0.9-19.4,3.4c-4.7,1.9-10.1,4-10.2,10.2c-0.1,6,4.5,9.1,9.4,11.6c0.9,1.2,0.4,2.6,0.3,3.9
		c-2.4,3.6-3.3,7.8-5.1,11.7C20.7,73.7,12.4,67.6,10.1,55.7z"/>
	<path class="st4" d="M10.1,55.7c2.4,11.8,10.6,18,21.3,21.7c0,0.4,0,0.8,0.1,1.2c-2.1,3.7-2.2,7.9-3,11.9c-0.2,2.4-0.1,4.8-0.5,7.3
		c-1.6,8.4-4.5,16.7-3.5,25.5c-0.1,0.1-0.4,0.2-0.4,0.3c0.1,0.3,0.2,0.5,0.4,0.7c1,3.3,2,6.6,3,9.9c-1.6,1.3-0.3,2.4,0.1,3.8
		c1.4,5.2,6.4,8.6,6.9,14.2c-1.3-0.7-2.6-1.3-4-2c-2.9-3.5-4.2-7.8-6-11.9c-0.7-6.1-1.8-12.1-4-17.9c0-1.7,0-3.3,0-5
		c1.5-1.3,2-3,1.9-5c0-0.7,0-1.3,0-2c2.2-7.8,2.7-15.7,3-23.8c0.1-1.9-1.3-3-2.5-4.1c-4.6-4.3-8.5-9.2-12.3-14.2
		c-2.2-2.9-1.8-6.3-2.6-9.4C7.6,55.8,9.1,55.9,10.1,55.7z"/>
	<path class="st4" d="M254.4,67.6c1.9-3.2,4-6.2,5.1-9.8c1.5-0.1,1.9,1.4,2.9,2c0,0.7,0,1.3,0,2c-2.5,0.7-3.3,2.9-4.1,5
		c-0.7,1.8-1.3,3.9-3.8,4C254.5,69.7,254.5,68.6,254.4,67.6z"/>
	<path class="st3" d="M22.4,108.5c0,0.7,0,1.3,0,2c-1,0-2,0-2.9,0c0.2-1.6-0.7-3.6,2-4C21.5,107.3,21.6,108.1,22.4,108.5z"/>
	<path class="st2" d="M19.5,110.5c1,0,2,0,2.9,0c0.1,2-0.4,3.7-1.9,5c-0.8-0.4-1-1.2-1-2C19.5,112.5,19.5,111.5,19.5,110.5z"/>
	<path class="st2" d="M20.5,120.4c2.2,5.8,3.3,11.8,4,17.9c-0.7-0.3-1.3-0.7-2-1c0-1,0-2,0-2.9c0.1-1.5-0.6-2.5-2-3c0-0.3,0-0.7,0-1
		c-0.2-1.7,0.7-3.6-1-5c-0.3-1.7-0.6-3.3-1-5C19.1,120.4,19.8,120.4,20.5,120.4z"/>
	<path class="st4" d="M39.4,161.2c-1.7-2-2.8-4.4-5-6c0-0.7,0-1.3,0-2c4,1.1,5.3,4.7,7,7.9c0,0,0,0,0,0
		C40.7,161.2,40,161.2,39.4,161.2z"/>
	<path class="st2" d="M34.4,153.3c0,0.7,0,1.3,0,2c-3-0.3-3.5-2.7-4-5c1.3,0.7,2.6,1.3,4,2C34.4,152.6,34.4,152.9,34.4,153.3z"/>
	<path class="st2" d="M39.4,161.2c0.7,0,1.3,0,2,0c0,0.7,0,1.3,0,2C40.1,163.2,39.4,162.5,39.4,161.2z"/>
	<path class="st3" d="M20.4,131.4c1.3,0.6,2,1.6,2,3C20.4,134.3,20.4,132.8,20.4,131.4z"/>
	<path class="st6" d="M34.4,153.3c0-0.3,0-0.6,0-1c-0.5-5.6-5.4-9-6.9-14.2c-0.4-1.4-1.7-2.4-0.1-3.8c4.1,6.5,7.4,13.6,12.8,19.3
		c23.8,25.3,53.3,37.5,87.8,38.4c0.4,0.8,1.2,1,2,0.9c1.3,0,2.7,0,4,0c3-0.2,6.1,1,8.9-0.9c2.3,0,4.7,0,7-0.1
		c8.1-0.9,16.3-1.6,23.9-4.9c0.7,0,1.3,0,2-0.1c6.2-1.8,12.4-3.3,17.9-6.9c0.8,0,1.6-0.2,2-1c1.4,0,2.4-0.7,3-1.9c1.6-0.2,3-0.7,4-2
		c8.8-4.1,16.7-9.4,22.9-16.9c0.3-0.3,0.7-0.7,1-1c8.9-7.8,14.4-17.7,17.9-28.8c0.4,0,0.7,0,1.1,0c-0.8,8.1-4.5,14.9-8.3,21.9
		c-4.6,8.4-11.3,14.6-18.6,20.2c-7.9,6.1-16,12-25.9,14.6c-1.3,0-2,0.6-2,2c0,0.3,0,0.7,0,1c-0.7,0-1.3,0-2,0
		c-1.2-1.6-2.5-0.3-3.5,0.1c-11,3.7-22.3,6.3-33.8,8.2c-5.2,0.9-10.6-0.7-15.5,1.7c-0.7,0-1.3,0-2,0c-0.8-1.1-2-1-3.1-1
		c-5.8,0.1-11.4-1.4-17.1-1.7c-7.8-0.5-14.6-5-22.6-4.2c-0.7,0-1.3,0-2,0c-0.2-2.3-2.3-2.3-3.7-2.6c-5.2-1.3-9.9-3.7-14.2-6.8
		c-1.6-1.2-3.2-1.5-5.1-1.4c-0.3,0-0.7,0-1,0c-0.3-2.4-2.2-2.7-4-2.9c-0.3,0-0.6,0-1,0c-0.9-1.6-2-2.9-4-3c-0.3-0.3-0.7-0.7-1-1
		c-4.4-4.2-8.5-8.9-13.9-12C39.7,158,38.5,154.4,34.4,153.3z"/>
	<path class="st4" d="M136,198c4.9-2.4,10.3-0.8,15.5-1.7c11.5-1.9,22.7-4.5,33.8-8.2c1.1-0.4,2.3-1.7,3.5-0.1
		c-2,4.4-6.9,4.3-10.3,5.5c-7.9,2.7-16.3,3.7-24.5,5.4c-1.7-1.4-3.3-1.8-4,1c-2,0-4,0-6,0c-2.2-1.1-4.5-2.4-6,1c-0.6,0-1.3,0-1.9,0
		C136,200,136,199,136,198z"/>
	<path class="st4" d="M91.2,191.1c7.9-0.8,14.8,3.8,22.6,4.2c5.7,0.3,11.3,1.8,17.1,1.7c1.2,0,2.3-0.1,3.1,1c-0.9,1.6-3.1,0.4-4,2
		c-2,0-4,0-6,0c-1.9-1.1-3.6-2.8-6-1c-1,0-2,0-3,0c-0.4-2.1-1.4-2.6-3-1c-1.3,0-2.6,0-3.9,0c-1.4-3.3-4.3-2.8-7-2.9
		c-1-0.3-2-0.7-3-1c-1.4-1.7-3.3-0.8-5-1c-0.7,0-1.3,0-2,0C91.2,192.4,91.2,191.7,91.2,191.1z"/>
	<path class="st4" d="M66.3,180.1c1.8-0.1,3.4,0.3,5.1,1.4c4.3,3.1,8.9,5.6,14.2,6.8c1.4,0.3,3.5,0.3,3.7,2.6c-1.7,0.7-3.3-1.7-5,0
		c-1.3-0.3-2.6-0.7-4-1c-0.1-1.3-0.7-1.9-2-2c-3.1,0.3-4.6-3.8-8-3c-0.1-1.3-0.7-1.9-2-2c-0.7,0-1.3,0-2,0
		C66.3,182.1,66.3,181.1,66.3,180.1z"/>
	<path class="st2" d="M84.2,191c1.7-1.7,3.3,0.7,5,0c0.7,0,1.3,0,2,0c0,0.7,0,1.3,0,2C88.3,194.4,86.3,192.6,84.2,191z"/>
	<path class="st2" d="M130,200c0.9-1.6,3.1-0.4,4-2c0.7,0,1.3,0,2,0c0,1,0,2,0.1,2.9C134,200.7,131.8,201.8,130,200z"/>
	<path class="st2" d="M101.1,195.1c2.7,0.2,5.6-0.3,7,2.9C106,196.7,102.5,198.5,101.1,195.1z"/>
	<path class="st2" d="M138,201c1.5-3.4,3.8-2.1,6-1C142.2,201.8,140,200.7,138,201z"/>
	<path class="st2" d="M118.1,199c2.4-1.8,4.1-0.1,6,1C121.8,201.1,119.9,200.1,118.1,199z"/>
	<path class="st2" d="M93.2,193.1c1.7,0.2,3.6-0.7,5,1C96.1,195.4,94.3,196.1,93.2,193.1z"/>
	<path class="st2" d="M149.9,200c0.7-2.8,2.3-2.3,4-1C152.9,200.5,151.3,199.9,149.9,200z"/>
	<path class="st2" d="M112.1,198c1.6-1.6,2.6-1.1,3,1C114,199,112.8,199.2,112.1,198z"/>
	<path class="st2" d="M68.3,183.1c1.3,0,2,0.7,2,2C69,185.1,68.3,184.4,68.3,183.1z"/>
	<path class="st2" d="M78.2,188.1c1.3,0,1.9,0.7,2,2C78.9,190,78.3,189.4,78.2,188.1z"/>
	<path class="st4" d="M61.2,177.2c1.9,0.3,3.7,0.6,4,2.9c-1,0-2,0-3,0C61.9,179.1,61.6,178.2,61.2,177.2z"/>
	<path class="st4" d="M56.3,174.2c2,0,3.1,1.4,4,3C58.2,177.2,56.5,176.7,56.3,174.2z"/>
	<path class="st4" d="M244.6,85.6c-3.6,1.3-2,4.2-1.6,6.2c1,6.3,2.4,12.4,3.6,18.7c-1.4-0.1-1.6-1.2-2.1-2.3
		c-3.5-7.5-3.3-15.7-4.9-23.6c3.3-5.7,8.4-9.6,13.9-12.9c0,1,0,2,0,3c-0.3,0.3-0.7,0.7-1,1c-2.9,0.6-4.7,2.9-6.9,4.5
		c-0.9,0.7-3,1.6-1.1,3.4C244.6,84.3,244.6,85,244.6,85.6z"/>
	<path class="st2" d="M253.6,74.7c0-1,0-2,0-3c0.3-0.3,0.7-0.7,1-1c2.5-0.1,3.1-2.1,3.8-4c0.8-2.1,1.6-4.3,4.1-5
		C260.7,66.9,259.4,72.4,253.6,74.7z"/>
	<path class="st2" d="M244.6,83.6c-1.9-1.8,0.2-2.8,1.1-3.4c2.2-1.6,4-3.9,6.9-4.5C251.4,79.9,247.1,80.9,244.6,83.6z"/>
	<path class="st7" d="M239.6,84.6c1.6,7.9,1.3,16.1,4.9,23.6c0.5,1.1,0.6,2.2,2.1,2.3c0,1,0,2,0,2.9c-2.6,2.9,0.6,7-2,10
		c-1.7-1.6-1.1-3.7-1-5.6c0.3-4.5-0.4-8.8-2.3-12.8c-0.7-1.4-1.1-3.4-3.1-3.3c-1.8,0-2.1,1.8-2.5,3.2c-0.4,1.1-1.1,1.5-2.2,1.6
		c2-6.6,1.4-13.2-0.4-19.7c5.2,0,2.4-5.2,4.6-7.1C239.2,81,238.3,83.2,239.6,84.6z"/>
	<path class="st4" d="M244.6,123.4c2.5-3-0.6-7,2-10c1.7,5.1,2.6,10.2-0.9,15c-0.4,0-0.7,0-1.1,0c0-0.7,0-1.3,0-2
		C244.6,125.4,244.6,124.4,244.6,123.4z"/>
	<path class="st4" d="M190.8,187.1c0-1.3,0.7-2,2-2C192.7,186.4,192.1,187.1,190.8,187.1z"/>
	<path class="st8" d="M244.6,123.4c0,1,0,2,0,3c-1.7,0-2.1,1.3-2.7,2.5c-3,6-5.9,12-9.3,17.8c-2,3.5-5.9,5.9-5.9,10.5
		c-0.3,0.3-0.7,0.7-1,1c-6.1,0.9-9.3,6.1-13.8,9.5c-3.1,2.4-7.9,2.8-9.1,7.5c-1,1.3-2.4,1.8-4,2c-1.4,0-2.9-0.1-3,1.9
		c-0.4,0.8-1.2,1-2,1c-2.5-2.7-4.4,0.3-6,1.1c-3.9,2.1-9,1.8-12,5.8c-0.7,0-1.3,0-2,0.1c-6.3-1.1-12,1.9-18.1,2.7
		c-1.9,0.3-5-1.2-5.8,2.2c-2.3,0-4.7,0-7,0.1c-3.1-1.1-6.3-2.5-8.9,0.9c-1.3,0-2.7,0-4,0c-0.2-1.3-0.6-2.3-2-0.9
		c-34.5-1-64-13.1-87.8-38.4c-5.4-5.7-8.7-12.7-12.8-19.3c-1-3.3-2-6.6-3-9.9c0-0.3,0-0.7,0-1c-1.1-8.8,1.9-17.1,3.5-25.5
		c0.5-2.5,0.4-4.9,0.5-7.3c3.3-2.4,4.6-7.5,3-11.9c0-0.4,0-0.8-0.1-1.2c1.8-3.9,2.7-8.1,5.1-11.7c4.2,3.9,4.5-0.8,6-2.8
		c0.6-0.8,0.9-2.1,2-1.7c1.7,0.6,0.5,1.8,0.1,2.8c-0.9,2.8-2.8,5.5-1.8,8.7c-3.2,5.3-5.6,10.8-7,16.8c-4.2,18.6,3.7,24.1,17.2,26.6
		c15.9,2.9,31.8,0.3,47.5-3.4c2-0.5,4.2-0.9,6.1-1.6c5.6-2.1,11.6-3.7,14.6-9.7c2.6-5,4.1-10.2,3.6-16c-1.2-12.4-6.6-22.3-16.8-29.6
		c1.2-0.2,2.4-0.6,2-2.2c-1.3-4.4-0.8-9-2-13.5c-1.3-5.1-5.5-5.7-9-5.9c-3.1-0.3-4.3,3.3-4.7,6.3c-3.2,2-6.3,4.1-10,5.2
		c-1.8-2.2-3.3-5.1-6.8-4.9c-7.2,0.4-11.3,5.2-10.9,12.5c-4.2,2.4-8.4,4.8-12.6,7.2c-7.3-7.6-7.2-10.4,0.2-17
		c1.3-1.2,2.6-1.9,4.4-1.8c1.5,0.1,3-0.2,4.1-1.3C67,36.1,73,32.8,74.3,25.8c8.4-3.4,16.9-2.6,25.3-0.1C110.9,29,120.8,35,129,43.4
		c2.2,2.2,3.5,2.5,5.9,0.1c9.9-10.1,22-17.1,36-18.7c13.4-1.6,27.5-2.2,37.5,10.3c1.1,1.4,2.6,2,4.3,2c0.1,2.3,2,3.3,3.3,4.7
		c6.1,6.4,10.8,13.9,15.7,21.2c2,4.7,3.9,9.5,5.9,14.2c0,0.9,0,1.7,0.1,2.6c-2.2,1.9,0.6,7.1-4.6,7.1c-1.1-2.6-2.1-5.2-3.4-7.7
		c-8.2-15.7-20.3-26.1-38.4-28.5c-5.9-5.7-13.3-8.6-20.8-11.3c-1.9-0.7-4,0.4-5.1,2.2c-1,1.6-0.3,3.5,0.5,5.2
		c1.3,2.8,4.3,3.9,6.1,6.2c-13.9,1.8-26.1,16.2-27.1,31.8c-0.9,15.2,3.4,22.1,18,26.6c14.2,4.4,28.9,6.7,43.9,6.1
		c0.1,1.4-0.1,2.7-0.9,3.8c-4.1,6-6.3,12.6-6.3,19.9c0,4,5.7,11.6,9.8,11.8c0.6,0,1.4-0.2,1.8-0.6c1.5-1.6,3.7-2.2,5.4-3.5
		c4.3-3.1,7.9-7.8,6.8-12.8c-1.7-7.7-5.1-15.2-13.5-18.5c1.7-0.4,3.5-1,5.2-1.2c7.6-0.7,14-3.3,18.5-9.8c1.1-0.1,1.8-0.5,2.2-1.6
		c0.4-1.3,0.7-3.1,2.5-3.2c2,0,2.4,1.9,3.1,3.3c2,4,2.6,8.3,2.3,12.8C243.5,119.7,242.9,121.8,244.6,123.4z M83.2,132.4
		c-4.9,3.6-5.4,11.7-1,15.9c3.6,8.7,9.6,15.6,17.2,20.8c14,9.7,29.8,13,46.4,9.8c19.3-3.7,35.1-12.9,42.4-32.6
		c2.7,0.2,5.2,0.1,6.3-3.1c1-3.2-1.6-4.3-3.4-5.7c-1-0.8-1.6-2.2-3.1-2.1c-6.5-13.3-18.6-18.4-31.8-22c-1.8-2.1-4.3-3-7-3.5
		c-9.5-1.9-19.1-1.8-28.6,0c-3,0.5-6.2,1.3-7.8,4.4C100.6,116.7,90.3,122,83.2,132.4z"/>
	<path class="st9" d="M231.7,62.9c-4.9-7.3-9.6-14.8-15.7-21.2c-1.3-1.4-3.2-2.4-3.3-4.7c7.7-1.1,14.8,1,21.7,4
		c4,1.7,7.8,3.9,8.4,8.9c0.6,5.3-2.8,8.2-6.7,10.7C234.7,61.5,233.2,62.1,231.7,62.9z"/>
	<path class="st9" d="M36.1,61.9c-4.9-2.4-9.5-5.6-9.4-11.6c0.1-6.1,5.5-8.2,10.2-10.2c6.2-2.5,12.6-3.8,19.4-3.4
		c-0.4,0.9-0.5,2-1.1,2.6c-6.3,6-11.4,13-16.1,20.2C38.4,60.7,37.7,61.9,36.1,61.9z"/>
	<path class="st7" d="M36.1,61.9c1.5,0,2.2-1.2,3-2.3c4.7-7.2,9.8-14.2,16.1-20.2c0.6-0.6,0.8-1.7,1.1-2.6c5.1-1.5,8.2-5.9,12.7-8.4
		c1.7-1,3.2-2.4,5.2-2.6c-1.3,7-7.2,10.3-11.7,14.8c-1.1,1.1-2.6,1.4-4.1,1.3c-1.8-0.1-3.1,0.6-4.4,1.8c-7.4,6.6-7.5,9.4-0.2,17
		c-3.7,4.1-7.4,8.1-11.2,12.2c-1-3.2,0.9-5.9,1.8-8.7c0.3-1,1.5-2.2-0.1-2.8c-1.1-0.4-1.4,0.9-2,1.7c-1.4,2-1.8,6.6-6,2.8
		C36.5,64.5,37,63.1,36.1,61.9z"/>
	<path class="st6" d="M237.6,79.7c0-0.9,0-1.7-0.1-2.6c6.6-1.5,11.9-5.2,16.9-9.5c0,1.1,0.1,2.1,0.1,3.2c-0.3,0.3-0.7,0.7-1,1
		c-5.5,3.3-10.6,7.2-13.9,12.9C238.3,83.2,239.2,81,237.6,79.7z"/>
	<path class="st7" d="M31.4,78.7c1.6,4.5,0.3,9.5-3,11.9C29.3,86.6,29.3,82.4,31.4,78.7z"/>
	<path class="st6" d="M24.4,123.4c0,0.3,0,0.7,0,1c-0.1-0.2-0.3-0.5-0.4-0.7C24,123.7,24.3,123.5,24.4,123.4z"/>
	<path class="st7" d="M226.6,157.2c0-4.6,3.9-7,5.9-10.5c3.4-5.8,6.2-11.8,9.3-17.8c0.6-1.2,1.1-2.5,2.7-2.5c0,0.7,0,1.3,0,2
		C241,139.5,235.5,149.4,226.6,157.2z"/>
	<path class="st7" d="M202.7,175.2c1.2-4.6,6-5.1,9.1-7.5c4.4-3.4,7.6-8.6,13.8-9.5C219.4,165.8,211.5,171.1,202.7,175.2z"/>
	<path class="st7" d="M150,192c0.8-3.4,3.9-1.9,5.8-2.2c6-0.8,11.8-3.8,18.1-2.7C166.2,190.4,158.1,191.1,150,192z"/>
	<path class="st7" d="M175.8,187c3-4,8-3.7,12-5.8c1.6-0.9,3.4-3.9,6-1.1C188.3,183.7,182,185.2,175.8,187z"/>
	<path class="st7" d="M134,192.9c2.7-3.4,5.8-1.9,8.9-0.9C140.1,193.9,137,192.7,134,192.9z"/>
	<path class="st7" d="M195.8,179.1c0.1-2,1.6-2,3-1.9C198.2,178.4,197.2,179.1,195.8,179.1z"/>
	<path class="st7" d="M128,192.1c1.4-1.5,1.8-0.4,2,0.9C129.2,193,128.5,192.8,128,192.1z"/>
	<path class="st10" d="M206.7,117.4c-15,0.6-29.6-1.7-43.9-6.1c-14.6-4.5-18.9-11.4-18-26.6c0.9-15.6,13.2-30.1,27.1-31.8
		c3.4,0.8,6.7,2,10.1,2.4c3.8,0.4,7.8,0.1,9.2-4.6c18.1,2.5,30.2,12.8,38.4,28.5c1.3,2.5,2.3,5.1,3.4,7.7c1.8,6.5,2.4,13.1,0.4,19.7
		c-4.4,6.5-10.9,9.2-18.5,9.8c-1.8,0.2-3.5,0.8-5.2,1.2C208.7,117.5,207.7,117.4,206.7,117.4z M170,109.4
		C170,109.4,170,109.3,170,109.4c3.9,3,8.4,4.5,13.3,3.7c4.1-0.6,8.1-0.7,12.2,0c5.1,0.9,10.4,1.2,15.5,0.3
		c4.6-0.8,7.4-6.1,5.5-10.1c2.4-4.5,2.2-9.6,3.5-14.3c1.2-4.2-0.4-5.5-3.9-6.1c-11.2-1.7-21.7-5.8-32.3-9.6
		c-7.7-2.7-14.2-7.8-21.9-10.5c-0.3,0.3-0.7,0.6-1,0.9l-0.1-0.1c-0.5,4.8-4.6,8.3-5.1,13.1c-3.8,7.9-4.2,16.2-2.2,24.6
		c0.6,2.4,1.2,5.9,5.1,2.7c3,1.5,5.9,3.2,9.4,3.5c0,0.2,0,0.4,0,0.6C168.2,109.3,169,109.5,170,109.4z"/>
	<path class="st10" d="M156,113.4c13.2,3.6,25.3,8.8,31.8,22c0.8,3.6,1.2,7.3,0.2,10.9c-7.3,19.7-23.1,28.9-42.4,32.6
		c-16.6,3.2-32.4-0.1-46.4-9.8c-7.6-5.2-13.6-12.1-17.2-20.8c-1.5-5.4-1.1-10.7,1-15.9c7.2-10.4,17.5-15.7,29.5-18.1
		c8.3,13.5,27.5,16.3,40.8,4.2C155,117.1,156.1,115.5,156,113.4z M106.2,156.4c0.7-0.3,1.6-0.5,2.2-1c7.6-6.4,16.6-8.8,26.2-9
		c10.9-0.2,20.5,3.6,28.9,10.5c0.8-1.7-0.2-2.5-0.8-3.4c-8.2-12.5-28.7-17.1-43.8-9.5c-5.5,2.7-10.8,5.8-12.8,12.3
		c-0.1,0.2-0.2,0.4-0.4,0.6C105.9,156.6,106,156.5,106.2,156.4z"/>
	<path class="st10" d="M42.7,72.8c3.7-4.1,7.4-8.1,11.2-12.2c4.2-2.4,8.4-4.8,12.6-7.2c3.8-0.9,7.7-1.9,11.5-2.8
		c0.5,2.6,2.2,3.8,4.7,4.4c5.7,1.4,10.6-0.6,15.5-3.2c3.3,1.4,6.5,2.7,9.8,4.1c10.1,7.3,15.6,17.2,16.8,29.6c0.6,5.8-0.9,11-3.6,16
		c-1.4,0-2.9-0.1-4.3-0.1c0.1-6.3,1.1-12.6-0.9-18.8c0-6.5-5.1-11.5-5.6-18c-0.1-1.7-2.4-2.7-4.3-1c-9.2,4.5-18.2,9.5-28.1,12.4
		c-7.9,2.3-15.6,5.6-23.8,7c-3,0.5-5.6,1.4-4.2,5.9c1.3,4.2,1.2,8.8,1.7,13.2c-1.8,9.5,10.8,16.1,18.2,12.6c3.3-1.5,6.4-2.2,9.9-2.3
		c4.4-0.1,8.8,0.2,13.3-0.8c2.3-0.5,5.3-1.3,7.4,1.2c-15.6,3.7-31.5,6.3-47.5,3.4c-13.5-2.5-21.4-8-17.2-26.6
		C37.1,83.7,39.5,78.1,42.7,72.8z"/>
	<path class="st11" d="M156,113.4c0,2.2-1.1,3.7-2.6,5.1c-13.2,12.1-32.4,9.3-40.8-4.2c1.6-3.2,4.8-3.9,7.8-4.4
		c9.5-1.8,19.1-1.8,28.6,0C151.7,110.4,154.2,111.2,156,113.4z"/>
	<path class="st11" d="M191.2,50.6c-1.5,4.7-5.4,5.1-9.2,4.6c-3.4-0.4-6.7-1.6-10.1-2.4c-1.8-2.3-4.8-3.4-6.1-6.2
		c-0.8-1.7-1.5-3.6-0.5-5.2c1.1-1.7,3.2-2.9,5.1-2.2C177.9,42,185.4,44.9,191.2,50.6z"/>
	<path class="st11" d="M98.1,51.8c-4.8,2.6-9.8,4.7-15.5,3.2c-2.5-0.6-4.2-1.8-4.7-4.4c1.5-2.4,3.6-4,6.2-4.8
		c3.7-1.1,6.8-3.2,10-5.2c0.9-0.3,1.9-0.6,2.8-0.9c2.7-0.8,5-0.3,6.5,2.1c1.6,2.5,0.1,4.5-1.4,6.3C101,49.5,99.5,50.6,98.1,51.8z"/>
	<path class="st7" d="M206.7,117.4c1,0.1,2,0.1,3,0.2c8.5,3.2,11.9,10.7,13.5,18.5c1.1,5-2.5,9.6-6.8,12.8c-1.7,1.2-3.9,1.9-5.4,3.5
		c-0.4,0.4-1.2,0.7-1.8,0.6c-4.1-0.2-9.8-7.8-9.8-11.8c0-7.4,2.2-13.9,6.3-19.9C206.6,120,206.8,118.7,206.7,117.4z M219.8,138
		c-0.7-6.4-3.6-11.8-7.7-16.6c-1.9-2.2-3.1-1.1-4.1,0.8c-2.4,4.5-4.9,9-5.7,14.1c-0.6,3.6,0.2,6.8,3.2,9.2c3,2.4,6.6,2.7,9.8,1.3
		C218.6,145.2,220.1,141.9,219.8,138z"/>
	<path class="st5" d="M100.3,112.9c-2.1-2.5-5.1-1.7-7.4-1.2c-4.4,1-8.9,0.7-13.3,0.8c-3.5,0.1-6.6,0.7-9.9,2.3
		c-7.4,3.5-20-3-18.2-12.6c0.6,0.5,1.2,1,1.9,1.5c-0.1,1.9-0.2,3.8,1.9,4.8l0,0c6.2,4.7,12.8,5.2,19.8,1.8c6-0.2,12.1,0.7,18.1-0.6
		c1.7,0.6,3.1,0,4.4-1c0.5-0.1,1-0.1,1.5-0.2c0.8,0,1.5-0.2,2-0.9c3.3,0.1,6-2.5,9.4-2.2c3.3,0.5,4.3-2.4,6.2-4
		c1.4,0,2.9,0.1,4.3,0.1c-3,6-9,7.6-14.6,9.7C104.5,112,102.4,112.3,100.3,112.9z"/>
	<path class="st7" d="M98.1,51.8c1.4-1.2,2.9-2.3,4-3.6c1.5-1.8,2.9-3.8,1.4-6.3c-1.5-2.4-3.8-3-6.5-2.1c-0.9,0.3-1.9,0.6-2.8,0.9
		c0.4-3.1,1.6-6.6,4.7-6.3c3.5,0.3,7.7,0.9,9,5.9c1.1,4.5,0.7,9.1,2,13.5c0.4,1.5-0.8,1.9-2,2.2C104.6,54.5,101.4,53.2,98.1,51.8z"
		/>
	<path class="st7" d="M84.2,45.8c-2.7,0.8-4.8,2.4-6.2,4.8c-3.8,0.9-7.7,1.9-11.5,2.8c-0.4-7.3,3.8-12.1,10.9-12.5
		C80.9,40.7,82.4,43.6,84.2,45.8z"/>
	<path class="st7" d="M188.1,146.3c0.9-3.7,0.6-7.3-0.2-10.9c1.5-0.1,2.2,1.3,3.1,2.1c1.8,1.5,4.4,2.5,3.4,5.7
		C193.3,146.4,190.8,146.5,188.1,146.3z"/>
	<path class="st7" d="M83.2,132.4c-2.1,5.2-2.5,10.5-1,15.9C77.8,144,78.3,136,83.2,132.4z"/>
	<path class="st12" d="M155.6,76.7c0.4-4.9,4.6-8.3,5.1-13.1c0.1,2.6,3.3,3.6,3.2,6.3c-1.9,3-3.8,6-4.1,9.8c2-3.2,4.6-5.9,6.7-8.9
		c4.2,2,9.5,2.2,12,7.2c-2.3-1.2-4.6-2.5-7.4-2.3c-3.3,0.3-5.1,2.4-6.1,5c-1,2.6,0.9,5,2.9,6.2c3.1,1.8,6.7,1.9,9.7-0.5
		c2.9-2.4,2.8-5.3,0.9-8.3c1.4-0.4,2.5,0.5,3.7,0.9c5.8,2.1,11.5,4.7,17.7,5.9c0.4,8.5-2.9,15.1-10.1,19.7
		c-6.1,1.5-12.2,1.5-18.3-0.2c-0.8-0.8-1.7-0.7-2.7-0.4c-6.2-4.1-9.4-9.9-9.4-17.3c-1.6-2.7-3.2-5.4-1.8-8.8
		C157.9,77.1,156.5,76.8,155.6,76.7z M191.2,96.1c-0.4-2.3-2-3.4-4.2-3.3c-2,0.1-3.3,1.5-3.2,3.7c0.1,2.5,1.9,3.3,4.1,3.2
		C190.1,99.7,191,98.3,191.2,96.1z"/>
	<path class="st11" d="M164,69.9c0.1-2.7-3.2-3.7-3.2-6.3c0,0,0.1,0.1,0.1,0.1c0.3-0.3,0.7-0.6,1-0.9c7.7,2.7,14.2,7.8,21.9,10.5
		c10.6,3.7,21.1,7.8,32.3,9.6c3.5,0.5,5,1.9,3.9,6.1c-1.3,4.7-1.1,9.8-3.5,14.3c-0.2,0-0.4,0-0.5,0.1c-0.9-0.6-2.1-0.8-2.5-2
		c1.2-13.3,1.2-13.3-11.5-16.3c-0.6-0.1-1.3-0.2-1.9-0.3c-6.2-1.1-11.8-3.8-17.7-5.9c-1.2-0.4-2.3-1.3-3.7-0.9
		c-2.4-5-7.7-5.2-12-7.2C165.7,70.5,164.8,70.2,164,69.9z"/>
	<path class="st13" d="M213.4,101.4c0.4,1.3,1.6,1.4,2.5,2c0,3.7-1.4,6.3-5.2,7.3c-0.2-0.2-0.3-0.4-0.5-0.6
		c-0.1,0.2-0.2,0.5-0.3,0.7l-0.1-0.1c-2.1,0.2-4.5-1.4-6,1.3c-0.7,0-1.4,0-2.1,0.1c-1.5-2.7-4-1.1-6.1-1.4c-1.7-0.1-3.3-0.2-5-0.3
		c-3.6-1.2-7.2-1.3-10.8,0c-1-0.1-2.1-0.1-3.1-0.2c-1.2-2.6-3.1-1.7-4.9-0.9c-0.7,0-1.3,0.1-2,0.1c0,0,0,0,0,0c-0.3-1-1.2-1-2-1.2
		c0-0.2,0-0.4,0-0.6c1.1-0.7,0.9-1.9,0.9-3c0.9-0.1,1.8-0.2,2.7-0.3c6.1,1.7,12.2,1.6,18.3,0.2c0.5,0.9,1.3,0.6,2.1,0.6
		C199.3,105.3,205.7,99.8,213.4,101.4z"/>
	<path class="st11" d="M155.6,76.7c0.8,0.1,2.2,0.4,1.9,1c-1.4,3.4,0.2,6.1,1.8,8.8c-0.6,0-1.1,0-1.7,0c-0.5,0-0.9,0-1.4-0.1
		c0.2,4.7-2.3,9.7,1.4,14.1c0.3,1.2,0.5,2.3,0.8,3.5c-3.9,3.2-4.5-0.4-5.1-2.7C151.5,92.9,151.8,84.7,155.6,76.7z"/>
	<path class="st5" d="M190.7,110.3c1.7,0.1,3.3,0.2,5,0.3c1.8,1.6,3.8,2,6.1,1.4c0.7,0,1.4,0,2.1-0.1c2.2,0.5,4.2-0.1,6-1.3
		c0,0,0.1,0.1,0.1,0.1c0,0,0.4,0,0.4,0l0.4-0.1c3.8-1,5.3-3.6,5.2-7.3c0.2-0.1,0.3-0.1,0.5-0.1c2,4-0.8,9.3-5.5,10.1
		c-5.2,0.9-10.4,0.6-15.5-0.3c-4.1-0.7-8.1-0.7-12.2,0c-4.8,0.7-9.3-0.8-13.3-3.8c0.7,0,1.3-0.1,2-0.1c1.6,0.4,3.1,1.4,4.9,0.9
		c1,0.1,2.1,0.1,3.1,0.2C183.5,110.7,187.1,110.8,190.7,110.3z"/>
	<path class="st14" d="M158.5,104.1c-0.3-1.2-0.5-2.3-0.8-3.5c0.1-4.7-0.8-9.3-0.1-14c0.6,0,1.1,0,1.7,0c0.1,7.4,3.2,13.2,9.5,17.3
		c0,0.2,0,0.5,0,0.7c0.1,1.1,0.2,2.2-0.9,3C164.5,107.3,161.5,105.6,158.5,104.1z"/>
	<path class="st5" d="M168,108.1c0.8,0.2,1.7,0.3,2,1.2C169,109.5,168.2,109.3,168,108.1z"/>
	<path class="st12" d="M161.9,62.8c-0.3,0.3-0.7,0.6-1,0.9C161.2,63.4,161.5,63.1,161.9,62.8z"/>
	<path class="st11" d="M106,156.2c2-6.4,7.4-9.5,12.9-12.3c15-7.5,35.6-3,43.8,9.5c0.6,0.9,1.7,1.7,0.8,3.4
		c-8.5-6.9-18.1-10.7-28.9-10.5c-9.6,0.2-18.6,2.6-26.2,9c-0.6,0.5-1.4,0.7-2.2,1C106.2,156.4,106,156.2,106,156.2z"/>
	<path class="st11" d="M106.2,156.4c-0.2,0.1-0.4,0.2-0.5,0.4c0.1-0.2,0.2-0.4,0.4-0.6C106,156.2,106.2,156.4,106.2,156.4z"/>
	<path class="st11" d="M53.4,103.7c-0.6-0.5-1.2-1-1.9-1.5c-0.5-4.4-0.4-9-1.7-13.2c-1.4-4.6,1.2-5.4,4.2-5.9
		c8.2-1.4,15.9-4.6,23.8-7c9.9-2.9,18.9-7.9,28.1-12.4c3.1,2.5-0.7,4-0.8,6c-1.1,0.4-2.1,0.7-2.3,2.1c-5.5,2.7-11.1,5.3-16.6,8
		c-0.7,0-1.3,0-2-0.1c-1.1-1.3-2.1-1.3-2.9,0.2c-1.3,0.6-2.6,1.2-3.9,1.8c-0.9,0-1.8,0.1-2,1.3l0,0c-2.5-1-4.3,0.9-6.3,1.7
		c-3.2,0.8-6.4,1.7-9.7,2.2c-3.1,0.5-4.7,1.8-4.1,5.2c0.5,3.1,0.8,6.2,1.2,9.3l-0.3,0.1c-0.4,0.3-0.7,0.6-1.1,0.9l0,0
		C54.6,102.8,54,103.3,53.4,103.7z"/>
	<path class="st11" d="M116.8,101.4c-1.9,1.6-2.9,4.5-6.2,4c1.9-8.6,2.9-17.2-0.5-25.8c-0.1-0.6-0.2-1.2-0.3-1.9
		c1.5-0.8,2.9-1.4,3.6,1.1c0.4,1.3,0.2,3.4,2.5,3.7C117.9,88.8,116.9,95.1,116.8,101.4z"/>
	<path class="st12" d="M115.9,82.6c-2.3-0.2-2.1-2.3-2.5-3.7c-0.7-2.6-2-1.9-3.6-1.1c-1.6-2.7-2.3-5.9-4.7-8.1c0.1-2,3.9-3.5,0.8-6
		c1.9-1.7,4.2-0.7,4.3,1C110.8,71.1,115.9,76.1,115.9,82.6z"/>
	<path class="st13" d="M219.8,138c0.3,3.9-1.2,7.2-4.5,8.7c-3.2,1.5-6.8,1.2-9.8-1.3c-2.9-2.4-3.7-5.6-3.2-9.2
		c0.8-5.1,3.3-9.6,5.7-14.1c1-1.8,2.3-3,4.1-0.8C216.2,126.2,219.1,131.6,219.8,138z M213.6,137.7c0.6,1-0.8,3.6,1.9,3.3
		c2.5-0.2,2.1-2.5,2.1-4.3c0-1.8-0.1-4.6-1.8-4.5C213.3,132.4,213.9,135.3,213.6,137.7z"/>
	<path class="st13" d="M99.2,108.5c-0.5,0.1-1,0.1-1.5,0.2c-1.5,0-3.3-0.9-4.4,1c-6,1.4-12,0.4-18.1,0.6c-6.7,0.2-13.3,0.1-19.8-1.8
		c0,0,0,0,0,0c0-2-0.1-4.1-0.1-6.1c0,0,0,0,0,0c0.4-0.3,0.7-0.6,1.1-0.9c0,0,0.3-0.1,0.3-0.1c3.3,0,6.6-0.6,9.7,1.1
		c3.8,2,7.9,2.4,12,1.9c0.3,0,0.6,0,0.9,0.1c0.5,0.9,1.2,1.1,1.9,0.2c4,0.1,8,0.2,12,0.3c1.5,2.2,2.9,2.4,4-0.4
		c0.7-0.1,1.3-0.2,2-0.3C99.1,105.8,99.1,107.2,99.2,108.5z"/>
	<path class="st2" d="M110.1,79.7c3.4,8.5,2.4,17.1,0.5,25.8c-3.4-0.3-6.1,2.3-9.4,2.2c0-1.3,0-2.7,0-4c8.7-6,9-14.6,7.6-23.8
		C109.2,79.7,109.7,79.7,110.1,79.7z"/>
	<path class="st6" d="M55.4,108.5c6.5,2,13.1,2,19.8,1.8C68.2,113.7,61.6,113.2,55.4,108.5z"/>
	<path class="st6" d="M55.2,102.4c0,2,0.1,4.1,0.1,6.1c-2.1-1-2-2.9-1.9-4.8C54,103.3,54.6,102.8,55.2,102.4z"/>
	<path class="st6" d="M101.2,103.6c0,1.3,0,2.7,0,4c-0.5,0.7-1.2,1-2,0.9c0-1.4,0-2.8,0-4.1C99.8,104.1,100.5,103.8,101.2,103.6z"/>
	<path class="st6" d="M93.2,109.7c1.1-2,2.9-1,4.4-1C96.3,109.7,94.9,110.3,93.2,109.7z"/>
	<path class="st14" d="M213.4,101.4c-7.6-1.6-14,3.9-21.4,3.7c-0.8,0-1.6,0.2-2.1-0.6c7.2-4.6,10.5-11.2,10.1-19.7
		c0.6,0.1,1.3,0.2,1.9,0.3C214.6,88.1,214.6,88.1,213.4,101.4z"/>
	<path class="st14" d="M178.6,78c2,3,2.1,6-0.9,8.3c-3,2.4-6.6,2.3-9.7,0.5c-2-1.2-3.9-3.5-2.9-6.2c0.9-2.6,2.8-4.7,6.1-5
		C174,75.5,176.2,76.8,178.6,78z"/>
	<path class="st14" d="M191.2,96.1c-0.1,2.1-1,3.5-3.3,3.6c-2.2,0.1-4-0.7-4.1-3.2c-0.1-2.2,1.1-3.5,3.2-3.7
		C189.2,92.7,190.8,93.8,191.2,96.1z"/>
	<path class="st7" d="M164,69.9c0.9,0.3,1.8,0.6,2.6,0.9c-2.1,3-4.7,5.7-6.7,8.9C160.1,75.9,162.1,72.9,164,69.9z"/>
	<path class="st6" d="M168.8,104.6c-0.1-0.2-0.1-0.5,0-0.7c1-0.3,1.9-0.4,2.7,0.4C170.6,104.4,169.7,104.5,168.8,104.6z"/>
	<path class="st6" d="M190.7,110.3c-3.6,0.5-7.2,0.4-10.8,0C183.5,109,187.1,109.1,190.7,110.3z"/>
	<path class="st6" d="M201.7,112c-2.3,0.6-4.3,0.2-6.1-1.4C197.7,111,200.2,109.3,201.7,112z"/>
	<path class="st6" d="M209.8,110.7c-1.8,1.2-3.8,1.7-6,1.3C205.3,109.3,207.8,110.9,209.8,110.7z"/>
	<path class="st6" d="M176.8,110.1c-1.8,0.5-3.3-0.4-4.9-0.9C173.8,108.4,175.6,107.5,176.8,110.1z"/>
	<path class="st6" d="M210.7,110.7l-0.4,0.1c0,0-0.4,0-0.4,0c0.1-0.2,0.2-0.5,0.3-0.7C210.4,110.3,210.5,110.5,210.7,110.7z"/>
	<path class="st12" d="M157.7,86.5c-0.8,4.7,0.2,9.3,0.1,14c-3.7-4.4-1.2-9.3-1.4-14.1C156.7,86.5,157.2,86.5,157.7,86.5z"/>
	<path class="st12" d="M101.2,103.6c-0.7,0.3-1.4,0.6-2,0.8c-0.7,0.1-1.3,0.2-2,0.3c-1.3,0.1-2.6,0.2-4,0.4c-4-0.1-8-0.2-12-0.3
		c-0.6-0.1-1.3-0.1-1.9-0.2c-0.3,0-0.6-0.1-0.9-0.1c-5.7-5.4-9.5-11.6-9.3-19.8c2-0.8,3.8-2.6,6.3-1.7c-2.3,3.7-0.2,6.1,2.7,7.7
		c3.7,2.1,7.3,1,9.8-2.1c2.7-3.3,1.5-6.5-1.8-8.9c5.5-2.7,11.1-5.3,16.6-8c2.6,2.2,4.5,4.9,6,8C110.2,88.9,109.8,97.6,101.2,103.6z
		 M98.8,98.8c2-0.2,3.2-1.4,3.3-3.5c0-2.3-1.4-3.6-3.7-3.6c-2,0-3.4,1.2-3.4,3.3C95,97.3,96.4,98.5,98.8,98.8z"/>
	<path class="st14" d="M69.1,84.7c-0.2,8.1,3.6,14.4,9.3,19.8c-4.2,0.5-8.2,0.1-12-1.9c-3.1-1.6-6.5-1-9.7-1.1
		c-0.4-3.1-0.7-6.2-1.2-9.3c-0.6-3.4,1-4.7,4.1-5.2C62.7,86.4,65.9,85.5,69.1,84.7z"/>
	<path class="st14" d="M86.2,79.7c3.3,2.5,4.4,5.6,1.8,8.9c-2.5,3.1-6.2,4.1-9.8,2.1c-2.9-1.6-4.9-4-2.7-7.7c0,0,0,0,0,0
		c0.9-0.1,1.7-0.3,2-1.3c1.3-0.6,2.6-1.2,3.9-1.8c1-0.1,2-0.1,2.9-0.2C84.9,79.7,85.5,79.7,86.2,79.7z"/>
	<path class="st7" d="M108.8,79.7c-1.5-3.1-3.4-5.8-6-8c0.2-1.3,1.2-1.7,2.3-2.1c2.4,2.2,3.1,5.4,4.7,8.1c0.1,0.6,0.2,1.2,0.3,1.9
		C109.7,79.7,109.2,79.7,108.8,79.7z"/>
	<path class="st12" d="M84.2,79.7c-1,0.1-2,0.1-2.9,0.2C82.1,78.3,83.1,78.4,84.2,79.7z"/>
	<path class="st12" d="M77.4,81.7c-0.2,1-1.1,1.2-2,1.3C75.6,81.8,76.4,81.7,77.4,81.7z"/>
	<path class="st6" d="M56.3,101.6c-0.4,0.3-0.7,0.6-1.1,0.9C55.5,102.2,55.9,101.9,56.3,101.6z"/>
	<path class="st3" d="M213.6,137.7c0.2-2.3-0.4-5.3,2.2-5.5c1.7-0.1,1.8,2.7,1.8,4.5c0,1.7,0.4,4.1-2.1,4.3
		C212.8,141.2,214.2,138.6,213.6,137.7z"/>
	<path class="st6" d="M93.2,105.1c1.3-0.1,2.6-0.2,4-0.4C96.1,107.5,94.7,107.3,93.2,105.1z"/>
	<path class="st6" d="M79.2,104.5c0.6,0.1,1.3,0.1,1.9,0.2C80.4,105.6,79.8,105.5,79.2,104.5z"/>
	<path class="st14" d="M98.8,98.8C96.4,98.5,95,97.3,95,95c0-2.1,1.3-3.3,3.4-3.3c2.3-0.1,3.7,1.3,3.7,3.6
		C102,97.3,100.8,98.5,98.8,98.8z"/>
</g>
</svg>
