<?xml version="1.0" encoding="utf-8"?>
<!-- Generator: Adobe Illustrator 26.0.3, SVG Export Plug-In . SVG Version: 6.00 Build 0)  -->
<svg version="1.1" id="Capa_1" xmlns="http://www.w3.org/2000/svg" xmlns:xlink="http://www.w3.org/1999/xlink" x="0px" y="0px"
	 viewBox="0 0 505.8 900.5" style="enable-background:new 0 0 505.8 900.5;" xml:space="preserve">

<g>
	<path fill="#8E745B" d="M410,681.3c1.7,11,0.1,21.9-0.9,32.8c-3.7,38.6-10.8,76.7-17,115c-0.7,4.3-0.2,6.8,4,9.2
		c9.8,5.7,18.9,12.5,25.1,22.4c5.7,9.2,6.6,18.8,1.7,28.5c-3.7,7.2-10,11.2-18.2,11.2c-39.5,0.1-78.9,0.1-118.4,0
		c-7.8,0-12.3-4.4-12.3-12.6c0-21.8-1.7-43.6-2.6-65.4c-1.7-40.9-3.6-81.8-5.3-122.7c2.3-0.5,4.6-0.9,6.8-1.5
		c9.5-2.4,19-5.2,26.7-11.5c1.8-1.5,5.4-3.5,4.2-5.4c-1.6-2.6-4.7,0.1-7,1c-14.7,5.4-29.8,9-45.6,9.1c-15.9,0.1-30.7-4.5-45.4-10
		c-1.6-0.6-3.5-2.3-4.8-0.1c-1.1,1.9,1,3,2.2,4c10.3,8.4,22.2,13,35.5,14c0.3,0.4,0.6,0.7,0.9,1.1c0.6,13-0.8,25.9-1.3,38.9
		c-1,26.4-2.5,52.9-3.7,79.3c-1.1,23.4-2,46.9-3,70.3c-0.3,7.3-4.4,11.4-11.8,11.4c-40.3,0.1-80.6,0.1-120.9,0
		c-13.5-0.1-22.8-12.8-20.8-27.8c1.1-9,6.4-15.6,12.5-21.6c5.5-5.4,11.7-10,18.5-13.5c2.7-1.4,3.3-2.8,2.8-5.8
		c-4.7-29.4-9.3-58.8-13.7-88.3c-2.8-18.8-5-37.6-5.3-56.6c0-2.1,0.2-4.3,0.4-6.4c7.6,0.1,13.2,4,18.6,9.1c8.7,8.1,18.7,8.5,28.7,2
		c1.8-1.2,3.7-1,5.7-0.6c4,0.7,8,2.3,12.2,1.2c10.4-2.8,17.6-9.2,20.7-19.5c0.8-2.6,2-3.7,4.3-4.6c10.5-4.4,16.1-12.8,15.9-24.1
		c-0.1-7-1.6-13.8-4.9-20.1c-2.5-4.9-4.7-9.9-6.1-15.2c-4.3-16-8-32.1-11.5-48.3c-4-18.6-7.3-37.3-9.3-56.2
		c-1.7-15.2-1.5-30.6-0.8-45.8c0.3-5.9,0-11.9,1.4-17.8c0.4-1.6,0.2-2.6-1.6-2.8c-0.6-3.8,3.5-5.5,3.8-8.8c0.7-8.1,3-15.7,6.2-23.1
		c6,2,11.9,4.1,17.9,5.9c15.7,4.7,31.9,6.8,48.2,8.3c17.2,1.6,34-0.1,50.8-3.1c10.2-1.9,20.3-4.6,30.1-8.2c0.3,0.4,0.6,1.2,0.8,1.2
		c6-0.7,5.6,4,6.6,7.6c0.4,1.6,1.2,3.1,1.7,4.6c1.6,5.1,3.3,10.2,3.9,15.6c0,3.3-0.2,6.7,0.1,10c1.8,19,2.1,38,0,57
		c-2.4,21.9-6.4,43.5-11.2,65c-3.7,16.6-6.6,33.6-13.4,49.3c-3.8,8.8-7.5,17.3-6.7,27.2c0.8,9.8,4.5,17.7,14.4,21.2
		c3.2,1.2,4.9,3,5.9,6.4c4.1,13.3,19.6,22.4,33.2,17c1.3-0.5,2.5-1,4.2,0c11.7,7.4,20.3,6.8,30.6-1.9
		C398.7,684.6,402.6,679.3,410,681.3z M193.7,420.2c-2.5,0.2-4.4-0.7-5.2,0.7c-1,1.8,1.1,2.9,2,4.2c0.8,1.2,1.9,2.3,3,3.3
		c16.9,17,35.2,32.4,55.8,44.8c3.2,1.9,5.4,1.9,8.5,0c20.7-12.6,39.1-28.1,56-45.4c1.9-1.9,5.6-4.3,4.2-6.6
		c-1.4-2.3-5.5-0.9-8.4-0.3c-19.2,4.4-36.6,12.8-52.7,24c-2.6,1.8-4.5,2-7.1,0c-6.4-5.1-13.5-9.1-20.9-12.6
		C217.3,426.9,205.4,422.2,193.7,420.2z"/>
	<path fill="#F1D8B1" d="M435.6,196.4c1.9,10.7,4.6,21.4,5.4,32.2c0.8,10.7,6.2,20.1,7.2,30.8c0.7,7.8-0.3,15.2-1.7,22.6
		c-3.9,19.9-13.9,36.7-27.4,51.6c-10.5,11.7-23.3,20.6-35.6,30.1c-1.1-0.5-1.8,0.1-2.7,0.6c-23.4,14.2-48.9,22.6-75.5,28.3
		c-12.7,2.7-25.6,3.8-38.3,5.6c-2.4,0.1-4.7,0.1-7.1,0.2c-6,0-12,0-18-0.1c-0.7,0-1.4,0-2.1,0c-1.1-0.2-2.3-0.6-3.4-0.7
		c-39.1-3.3-75.6-14.6-109.3-34.8c-1.3-0.8-2.5-1.8-4.1-1.3c-3.8-4.8-9.4-7.2-14.1-10.9c-19-15.1-34.5-33.2-44-55.6
		c-6.5-15.4-9.3-32.3-4.4-48.3c6-19.4,4.8-40.1,12.4-59c0.2-0.2,0.6-0.4,0.7-0.7c6.3-15.4,14.2-30,24.8-43c1.4-1.6,2-3.4,1.8-5.5
		c3-0.7,5.1-2.6,7.3-4.7c6.2-6.1,12-12.9,19-17.7c12.9-8.8,25.7-18,40.5-23.5c0.1,2,1.7,1.7,2.9,1.8c3,0.2,6,0.1,8.9,0.7
		c26.5,5.1,47.6,19.7,66.1,38.5c3,3,3.8,2.9,6.5,0c18.2-19.3,39.9-32.8,66.2-38.2c7.5-1.5,15.1-1.2,22.6-1.8
		c11.7,4.9,22.6,11,32.8,18.5c11.7,8.6,22.2,18.1,31.3,29.3c1.6,2,4,3.5,6.9,3.4c-0.8,2.7-0.2,5.1,1.5,7.4
		c8.5,11.4,14.2,24.3,19.6,37.3C433.2,191.8,433,194.7,435.6,196.4z M319.7,134.2c7.5,4.6,15.6,5.2,24,3.9c3.1-0.5,6.4-1.4,7.1-5.2
		c0.8-4.1-1.3-7.1-4.5-9.2c-3.5-2.3-7.6-3.3-11.6-4.1c-4.9-1.9-9.7-4-14.7-5.7c-3.7-1.2-7.2-0.7-9.9,2.5c-1.9,2.2-2.3,4.9-1,7.4
		C311.4,128.4,314.5,132.5,319.7,134.2z M194.3,115.3c-3.2-3-6.7-2.2-10.2-0.9c-4.2,1.5-8.2,3.4-12.3,5.1c-5.3,1.2-10.9,2-14.9,6.3
		c-3.6,3.9-3.1,8.6,1.2,10.9c10.7,5.7,31.9-0.6,37.7-11.3C197.9,121.8,198.5,118.1,194.3,115.3z M215.7,255.4
		c-13.3,2.5-25.4,8-36.2,16c-18,13.5-23,27.7-16.8,49.3c4.7,16.4,14.5,29.9,27,41.3c22.4,20.3,48.5,30.7,78.8,24.5
		c38.1-7.8,61.9-32.6,75.5-67.9c4.9-12.9,4-25.9-5.5-36.7c-12.8-14.6-29.2-23.4-48.4-26.8c-2.4-4.1-6.6-4.9-10.7-5.7
		c-17.7-3.3-35.5-3.1-53.2,0.1C222.2,250.3,218.2,251.5,215.7,255.4z M137.6,267.5c21.1-0.9,43.5-4.2,64.7-13.5
		c11.9-5.2,23.1-11.3,29.5-23.5c12-22.9,3-57.1-19.2-72.8c-29.3-20.7-74-18.3-101.9,5.4c-19.5,16.6-30.2,37.7-32.9,63
		c-1.9,18.4,6,30.3,23.5,36.3C112.5,266.1,124,267.4,137.6,267.5z M370.8,267.5c7.2,0,14.3-0.7,21.3-2c5.1-0.9,10-2.3,14.9-4
		c13.6-4.9,21-15.1,20.8-29.6c-0.3-23.8-8.8-44.7-25.1-61.8c-19.8-20.7-44.6-28.8-72.9-25.7c-32.7,3.5-56.6,24-60.8,56.7
		c-2.7,21,5.9,38.6,24.8,48.5C317.9,262.1,344,266.2,370.8,267.5z"/>
	<path fill="#98765D" d="M176.8,405.4c-3.3,7.4-5.5,15-6.2,23.1c-0.3,3.3-4.4,5.1-3.8,8.8c-6.1,23.1-7.7,46.6-6.2,70.4
		c1.5,24.7,6.2,48.9,11.4,73c3.6,16.6,5.9,33.8,14.9,48.8c1.4,2.3,2,4.9,2.6,7.5c2.8,13.1-2.5,20.9-15.2,22.3
		c-2.9,0.3-3.4,1.9-3.5,4.3c-0.2,4.6-1.3,8.9-4.3,12.5c-4.9,5.9-12.2,7.1-21.9,3.4c-2.4-0.9-4-0.9-5.6,1.1
		c-8.7,11.2-24.1,6.1-29.1-4.4c-1.5-3.2-2.9-5-6.7-2.3c-2.8,1.9-6.4,1.6-9.7,1.2c-10.3-4-15-12.6-18.1-22.4
		C61.7,610.8,57.7,568,62.5,524.2c5.4-48.9,20.1-94.8,44.1-137.7c3.6-6.4,7.3-12.7,11.9-18.3c3,4.3,7.4,7.1,11.4,10.3
		C144.3,389.6,160.4,397.7,176.8,405.4z"/>
	<path fill="#98765B" d="M336.7,437.3c-0.5-5.4-2.2-10.5-3.9-15.6c-0.5-1.6-1.3-3.1-1.7-4.6c-1-3.6-0.6-8.3-6.6-7.6
		c-0.2,0-0.5-0.8-0.8-1.2c13.4-5.3,26.1-12,38.3-19.7c8.9-5.7,18.1-11,24.9-19.4c13.1,17.4,22.2,37,30.5,57
		c20.5,49.5,29.1,101.1,26.2,154.5c-1.5,26.9-7,53-16.5,78.2c-2.7,7.1-7.2,12.2-14.4,14.9c-0.9,0.3-1.7,1-2.5,1.6
		c-3.2,0-6.4-0.4-9.2-2c-2.9-1.7-4.4-0.3-5.4,2.1c-1.3,3-3.5,5.3-6,7.2c-8,6.3-16.7,5.7-22.3-0.9c-2.7-3.2-4.5-3.6-8.2-2
		c-9.6,4-18.5,1.3-22.3-6.6c-1.3-2.6-2-5.7-2.4-8.6c-0.5-3.6-2.4-5.1-5.9-5.3c-6.9-0.3-10.9-4.3-12.9-10.6
		c-2.3-7.3-0.3-14.2,2.9-20.6c2.3-4.6,4.9-9,6.2-14.1c3.6-13.4,6.9-26.9,9.8-40.6c4.3-20.8,8.4-41.6,9.9-62.7
		c1.6-21.9-0.1-43.8-4.1-65.4C339.9,442.6,340.4,438.8,336.7,437.3z"/>
	<path fill="#99785E" d="M340.1,93.5c-7.5,0.6-15.1,0.3-22.6,1.8c-26.3,5.4-48,18.9-66.2,38.2c-2.7,2.9-3.6,3-6.5,0
		c-18.5-18.8-39.5-33.4-66.1-38.5c-2.9-0.6-6-0.5-8.9-0.7c-1.3-0.1-2.8,0.3-2.9-1.8c5.5-2,10.9-4,16.4-5.9c0.7-0.3,1.8-0.1,2-1.1
		c0.3-1.3-0.9-1.6-1.7-2.2c-9.8-7.1-20.3-12.7-32.1-15.5c-23.4-5.5-46.6,8.5-52.8,31.8c-3.5,13.1-2.3,26,1.2,38.8
		c0.2,2.1-0.4,3.8-1.8,5.5c-10.6,13-18.4,27.6-24.8,43c-0.1,0.3-0.4,0.5-0.7,0.7c-15.7-30.4-23.9-62.3-16-96.4
		C70.5,32,141,4.5,191.2,38.6c13,8.9,23,20.7,29.7,35c0.9,2,1.4,3.7,4.5,3.4c20.3-2,40.6-1.9,60.8,0.6c3.3,0.4,4.6-0.9,6-3.6
		c17.2-32.4,43.4-51.5,80.9-50.1c37.4,1.3,64.2,20.2,79.3,54.4c7.4,16.8,8.3,34.8,5.9,53c-3,23.3-10.4,45-22.7,65
		c-2.6-1.6-2.4-4.6-3.3-7c-5.3-13.1-11.1-25.9-19.6-37.3c-1.7-2.3-2.3-4.7-1.5-7.4c6.3-18.1,8.5-36.2,0-54.2
		c-7.1-14.8-24.4-24.9-40.8-23.8c-16.4,1.1-30.2,8.6-43.1,18.1c-2.1,1.5-1.7,2.5,0.5,3.4C331.9,89.9,336.3,91,340.1,93.5z
		 M435.5,104.9c-3.8,8.5-7.9,15.7-7.8,24.3c0.1,6.1,3.2,9.4,8.6,9.2c5.1-0.2,8.8-4.2,8-9.9C443.4,120.5,440.6,112.9,435.5,104.9z"/>
	<path fill="#745237" d="M386.9,369.2c-6.8,8.4-16.1,13.8-24.9,19.4c-12.1,7.7-24.9,14.4-38.3,19.7c-9.8,3.6-19.8,6.3-30.1,8.2
		c-16.8,3.1-33.6,4.7-50.8,3.1c-16.3-1.5-32.5-3.6-48.2-8.3c-6-1.8-11.9-3.9-17.9-5.9c-16.3-7.8-32.4-15.9-46.8-27
		c-4-3.1-8.4-5.9-11.4-10.3c1.4-2.2,2.9-4.5,4.3-6.7c1.7-0.5,2.9,0.6,4.1,1.3c33.7,20.2,70.2,31.5,109.3,34.8
		c1.1,0.1,2.3,0.5,3.4,0.7c0.7,1.1,1.4,1.2,2.1,0c6,0,12,0,18,0.1c2.4,1.5,4.8,1.6,7.1-0.2c12.8-1.8,25.7-2.9,38.3-5.6
		c26.6-5.7,52.1-14.1,75.5-28.3c0.9-0.5,1.6-1.1,2.7-0.6C384.6,365.6,385.7,367.4,386.9,369.2z"/>
	<path fill="#715035" d="M93.4,675.1c3.3,0.4,6.9,0.8,9.7-1.2c3.8-2.6,5.1-0.9,6.7,2.3c5,10.5,20.5,15.6,29.1,4.4
		c1.6-2.1,3.2-2,5.6-1.1c9.8,3.7,17,2.5,21.9-3.4c3-3.6,4.1-7.9,4.3-12.5c0.1-2.4,0.6-4,3.5-4.3c12.7-1.4,18-9.2,15.2-22.3
		c-0.5-2.6-1.1-5.2-2.6-7.5c-9-15-11.3-32.2-14.9-48.8c-5.3-24.1-10-48.3-11.4-73c-1.4-23.8,0.2-47.3,6.2-70.4
		c1.8,0.2,2,1.3,1.6,2.8c-1.3,5.9-1.1,11.9-1.4,17.8c-0.7,15.2-0.8,30.6,0.8,45.8c2.1,18.9,5.3,37.7,9.3,56.2
		c3.5,16.2,7.2,32.3,11.5,48.3c1.4,5.3,3.6,10.3,6.1,15.2c3.3,6.3,4.8,13.1,4.9,20.1c0.2,11.3-5.4,19.7-15.9,24.1
		c-2.3,1-3.5,2-4.3,4.6c-3.1,10.3-10.3,16.7-20.7,19.5c-4.2,1.1-8.2-0.5-12.2-1.2c-2.1-0.3-3.9-0.5-5.7,0.6c-10.1,6.5-20,6.1-28.7-2
		c-5.5-5.1-11-8.9-18.6-9.1C93.4,678.6,93.4,676.9,93.4,675.1z"/>
	<path fill="#715035" d="M336.7,437.3c3.7,1.5,3.2,5.3,3.7,8c4,21.6,5.7,43.5,4.1,65.4c-1.5,21.1-5.6,42-9.9,62.7
		c-2.9,13.6-6.2,27.1-9.8,40.6c-1.4,5.1-4,9.5-6.2,14.1c-3.2,6.5-5.2,13.3-2.9,20.6c2,6.3,5.9,10.3,12.9,10.6
		c3.4,0.2,5.3,1.7,5.9,5.3c0.4,2.9,1.1,5.9,2.4,8.6c3.9,7.9,12.8,10.7,22.3,6.6c3.7-1.6,5.4-1.2,8.2,2c5.6,6.6,14.3,7.1,22.3,0.9
		c2.5-1.9,4.7-4.2,6-7.2c1-2.4,2.5-3.8,5.4-2.1c2.8,1.6,5.9,2,9.2,2c0.3,1.9,0.5,3.9-0.2,5.8c-7.4-2-11.3,3.4-16,7.3
		c-10.3,8.7-18.9,9.2-30.6,1.9c-1.6-1-2.8-0.6-4.2,0c-13.6,5.4-29.1-3.7-33.2-17c-1-3.4-2.7-5.3-5.9-6.4
		c-9.9-3.6-13.5-11.4-14.4-21.2c-0.9-9.9,2.9-18.3,6.7-27.2c6.8-15.7,9.7-32.7,13.4-49.3c4.8-21.5,8.8-43.1,11.2-65
		c2.1-19,1.8-38,0-57C336.5,444,336.7,440.6,336.7,437.3z"/>
	<path fill="#A5C8D6" d="M505.8,23.4c-0.2,10.1-6.8,15.3-14.9,19.3c-8,4-16.7,5.5-25.4,6.6c-1.6,0.2-4.2,0.8-3.4-2.5
		c3.3-12.7,7.5-24.9,17.7-33.9c8.7-7.7,20.7-5.3,25,4.6C505.6,19.4,505.7,21.4,505.8,23.4z"/>
	<path fill="#715035" d="M238.8,699.3c-13.3-1-25.1-5.5-35.5-14c-1.2-1-3.3-2.1-2.2-4c1.3-2.2,3.2-0.5,4.8,0.1
		c14.7,5.5,29.5,10.1,45.4,10c15.8-0.1,30.9-3.7,45.6-9.1c2.3-0.8,5.4-3.6,7-1c1.2,1.9-2.4,3.9-4.2,5.4c-7.8,6.4-17.2,9.1-26.7,11.5
		c-2.2,0.6-4.5,1-6.8,1.5c-0.2,0-0.3-0.1-0.4-0.3c-1.2-1.6-3-1.2-4.6-1.1C253.8,698.9,246.2,697.2,238.8,699.3z"/>
	<path fill="#A5C8D6" d="M21.4,171.4c-4.9-0.7-9.9-1.2-14.3-3.8c-6.4-3.8-8.7-10-6.1-16.5c2.4-5.9,8.2-8.4,15.4-6.3
		c11,3.3,17.7,12,24.4,20.4c1.7,2.1-0.8,2.5-1.9,2.9C33.3,170.2,27.3,170.4,21.4,171.4z"/>
	<path fill="#A5C8D6" d="M434.7,17.7c-0.3-3.3,0.3-6.4,1.6-9.3c2.1-4.7,6.1-6.8,10.4-5.7c3.9,1,7.5,6.2,6.7,10.5
		c-1.5,8-6.3,14.1-12.6,19.2c-2.2,1.7-3.4,0.5-3.8-1.6C436,26.4,434.3,22.1,434.7,17.7z"/>
	<path fill="#A5C8D6" d="M39.3,187.6c5.4-0.1,6.5,1.5,4.4,5.9c-2.5,5.5-5.5,10.7-11.1,13.6c-5.3,2.7-9.9,1.5-12.4-3.1
		c-2.3-4.4-0.7-9.7,3.7-12.5C28.7,188.3,34.3,188.5,39.3,187.6z"/>
	<path fill="#A5C8D6" d="M487.4,83.5c-5.9-0.4-11-2.8-15.9-5.8c-2.5-1.5-1.9-3.1,0.2-4.6c4.1-2.9,8.5-5.2,13.2-6.9
		c4.5-1.6,8.7-0.9,12,2.4c2.6,2.6,2.4,6.2,0.8,9.4C495.6,82.2,491.7,83.4,487.4,83.5z"/>
	<path fill="#452F1E" d="M238.8,699.3c7.4-2.1,15-0.4,22.4-0.9c1.6-0.1,3.3-0.5,4.6,1.1c0,0,0.1,0.1,0.1,0.1c-0.4,0-0.9,0-1.3-0.1
		c-8.3,0.3-16.5,0.6-24.8,0.9C239.4,700,239.1,699.7,238.8,699.3z"/>
	<path fill="#99785E" d="M264.6,699.5c0.4,0,0.9,0,1.3,0.1C265.4,699.5,265,699.5,264.6,699.5z"/>
	<path fill="#F1D8B1" d="M193.7,420.2c11.8,2,23.6,6.7,35.2,12.3c7.3,3.5,14.4,7.6,20.9,12.6c2.5,2,4.4,1.8,7.1,0
		c16.1-11.2,33.5-19.6,52.7-24c2.9-0.7,7-2,8.4,0.3c1.4,2.3-2.3,4.7-4.2,6.6c-16.9,17.3-35.3,32.8-56,45.4c-3.1,1.9-5.3,1.9-8.5,0
		c-20.7-12.4-38.9-27.8-55.8-44.8c-1.1-1.1-2.1-2.1-3-3.3c-0.9-1.3-3-2.4-2-4.2C189.3,419.5,191.2,420.4,193.7,420.2z"/>
	<path fill="#98775C" d="M290.1,255.2c19.2,3.4,35.6,12.1,48.4,26.8c9.4,10.8,10.4,23.8,5.5,36.7c-13.6,35.3-37.4,60.1-75.5,67.9
		c-30.3,6.2-56.4-4.2-78.8-24.5c-12.5-11.3-22.3-24.8-27-41.3c-6.2-21.6-1.2-35.9,16.8-49.3c10.8-8.1,22.8-13.6,36.2-16
		c0.3,2.9,1.4,5.4,3.3,7.6c10.7,12.6,32.9,18.2,48.1,12.1c4-1.6,8-3.4,11.5-5.8C283.8,265.8,289.7,262.6,290.1,255.2z M282.7,351.6
		c1.4-1.1,1.7-2.8,2-4.4c3-13.5-0.9-25.7-8.6-36.2c-9.2-12.6-23.6-18.3-39.1-7.5c-13.2,9.2-21.1,31.5-16.2,46.7
		c0.3,1,0.8,1.8,1.9,2.2c-0.4,3,0.8,5.5,2.5,7.8c13.3,18.2,38.3,19.3,53.1,2.2C280.8,359.3,282.9,355.9,282.7,351.6z"/>
	<path fill="#98795D" d="M137.6,267.5c-13.6-0.1-25.1-1.4-36.2-5.2C83.9,256.3,76,244.4,77.9,226c2.7-25.3,13.4-46.4,32.9-63
		c27.9-23.7,72.6-26.1,101.9-5.4c22.1,15.7,31.1,49.9,19.2,72.8c-6.4,12.2-17.6,18.3-29.5,23.5C181.1,263.2,158.7,266.6,137.6,267.5
		z M214.5,196.7c3.1-1.2,6.1-2.8,4.9-6.8c-1.2-3.9-4.4-3.7-7.8-3c-22.9,4.6-45.9,9-68.8,13.5c-11.4,2.3-22.7,4.7-34.1,7
		c-2.9,0.6-4.9,2.3-4.8,5.5c0.1,3.5,2.7,4.2,5.5,4.4c1,0.1,2-0.1,3-0.2c0.9,13.5,7.6,23.1,19.4,29.3c12.2,6.4,25.3,8,38.8,6.7
		C201,250.4,220.1,225.7,214.5,196.7z"/>
	<path fill="#98795D" d="M370.8,267.5c-26.8-1.3-52.8-5.4-77-18c-18.9-9.8-27.4-27.5-24.8-48.5c4.2-32.6,28.1-53.1,60.8-56.7
		c28.4-3,53.1,5,72.9,25.7c16.4,17.1,24.9,38,25.1,61.8c0.2,14.5-7.3,24.7-20.8,29.6c-4.9,1.8-9.8,3.1-14.9,4
		C385.1,266.8,378,267.5,370.8,267.5z M393.5,217.7c1.2-0.1,2.3,0,3.5-0.2c2.2-0.4,4.2-1.2,4.6-3.8c0.4-2.8-1.1-4.4-3.5-5.4
		c-1.1-0.4-2.2-0.7-3.3-0.9c-25.7-6.1-51.7-10.3-77.5-15.8c-7.5-1.6-14.9-3.3-22.4-4.7c-3.6-0.7-7.7-1.4-8.8,3.7
		c-0.8,3.7,2.2,5.2,5,6.4c-0.5,5.1-0.8,10.3-0.2,15.5c1.3,11.3,5.7,21.2,14.6,28.6c18.8,15.5,48.9,17.3,70.9,4.5
		C387,239.1,392,229.5,393.5,217.7z"/>
	<path fill="#ECC8C8" d="M340.1,93.5c-3.8-2.5-8.2-3.6-12.3-5.3c-2.2-0.9-2.5-1.9-0.5-3.4c12.9-9.5,26.7-17,43.1-18.1
		c16.3-1.1,33.7,9,40.8,23.8c8.6,18,6.3,36.1,0,54.2c-2.9,0.1-5.3-1.4-6.9-3.4c-9.1-11.2-19.7-20.7-31.3-29.3
		C362.7,104.4,351.8,98.3,340.1,93.5z"/>
	<path fill="#ECC8C8" d="M100,138.4c-3.6-12.8-4.7-25.7-1.2-38.8c6.2-23.3,29.4-37.3,52.8-31.8c11.8,2.8,22.3,8.4,32.1,15.5
		c0.8,0.6,1.9,0.9,1.7,2.2c-0.2,1-1.3,0.8-2,1.1c-5.5,2-10.9,3.9-16.4,5.9C152,98,139.2,107.2,126.3,116c-7.1,4.8-12.9,11.6-19,17.7
		C105.1,135.8,103,137.8,100,138.4z"/>
	<path fill="#5A3A1D" d="M290.1,255.2c-0.5,7.4-6.3,10.6-11.4,14.1c-3.5,2.4-7.5,4.2-11.5,5.8c-15.2,6.1-37.5,0.5-48.1-12.1
		c-1.9-2.2-3-4.7-3.3-7.6c2.5-3.9,6.5-5,10.6-5.8c17.7-3.1,35.4-3.3,53.2-0.1C283.5,250.3,287.8,251.1,290.1,255.2z"/>
	<path fill="#5A3A1D" d="M194.3,115.3c4.2,2.8,3.5,6.4,1.6,10.1c-5.8,10.8-27,17.1-37.7,11.3c-4.3-2.3-4.8-7-1.2-10.9
		c4-4.3,9.5-5.1,14.9-6.3c2.9,0.6,6-0.6,8.9,0.8c0.7,0.3,1.4-0.4,2.1-1C186.1,116.6,190,115.3,194.3,115.3z"/>
	<path fill="#5A3A1D" d="M334.7,119.6c4.1,0.8,8.1,1.8,11.6,4.1c3.2,2.1,5.4,5.1,4.5,9.2c-0.8,3.8-4,4.7-7.1,5.2
		c-8.4,1.3-16.5,0.7-24-3.9c-1-3.4-3.7-5.5-6-7.7c-3.2-3.1-0.2-5.6,0.5-8c0.7-2.4,3.2-1.5,5.2-1.1
		C324.4,118.5,329.3,120.4,334.7,119.6z"/>
	<path fill="#452F1E" d="M334.7,119.6c-5.3,0.8-10.3-1-15.4-2.2c-2-0.5-4.5-1.3-5.2,1.1c-0.7,2.5-3.7,4.9-0.5,8c2.3,2.2,5,4.4,6,7.7
		c-5.2-1.7-8.3-5.8-10.7-10.4c-1.3-2.5-0.9-5.2,1-7.4c2.7-3.2,6.3-3.7,9.9-2.5C324.9,115.5,329.8,117.6,334.7,119.6z"/>
	<path fill="#452F1E" d="M194.3,115.3c-4.3,0-8.2,1.3-11.6,4c-0.7,0.5-1.4,1.3-2.1,1c-2.9-1.4-6-0.2-8.9-0.8c4.1-1.7,8.2-3.6,12.3-5.1
		C187.6,113.1,191.2,112.4,194.3,115.3z"/>
	<path fill="#5A3A1D" d="M266.9,398.3c-2.3,1.8-4.7,1.7-7.1,0.2C262.1,398.4,264.5,398.3,266.9,398.3z"/>
	<path fill="#5A3A1D" d="M241.8,398.4c-0.7,1.1-1.4,1-2.1,0C240.4,398.3,241.1,398.3,241.8,398.4z"/>
	<path fill="#A5C8D6" d="M435.5,104.9c5,7.9,7.8,15.5,8.9,23.6c0.7,5.7-2.9,9.7-8,9.9c-5.4,0.2-8.5-3.1-8.6-9.2
		C427.6,120.7,431.7,113.4,435.5,104.9z"/>
	<path fill="#5A3A1D" d="M222.7,352.3c-1.1-0.3-1.5-1.2-1.9-2.2c-4.8-15.2,3-37.5,16.2-46.7c15.5-10.8,29.9-5.1,39.1,7.5
		c7.7,10.5,11.6,22.8,8.6,36.2c-0.4,1.6-0.6,3.3-2,4.4c-1-0.9-1.9-1.8-2.9-2.7C263.3,334.2,236.5,335.8,222.7,352.3z"/>
	<path fill="#D3716B" d="M222.7,352.3c13.9-16.5,40.7-18.1,57.1-3.4c1,0.9,1.9,1.8,2.9,2.7c0.2,4.3-1.9,7.7-4.5,10.7
		c-14.8,17.1-39.7,16-53.1-2.2C223.4,357.8,222.3,355.3,222.7,352.3z"/>
	<path fill="#F8E9DF" d="M214.5,196.7c5.6,29-13.5,53.6-43.9,56.6c-13.5,1.3-26.6-0.3-38.8-6.7c-11.8-6.2-18.5-15.9-19.4-29.3
		c3.9-1.6,8.2-3.1,12.1-3.5c8.5-0.7,16.5-3.3,24.9-4.3c0.4,1.6,0.9,3.2,1.3,4.8c6.3,21.9,32.8,29.6,49.5,14.1
		c8.9-8.3,11.6-19.1,10.5-31C212,197.2,213.3,197,214.5,196.7z"/>
	<path fill="#5A3A1D" d="M214.5,196.7c-1.3,0.2-2.5,0.5-3.8,0.7c-1.1,0.3-2.2,0.8-3.4,0.9c-12,1-23.6,4.8-35.4,6.7
		c-7.6,1.2-15.1,2.7-22.5,4.5c-8.4,0.9-16.4,3.6-24.9,4.3c-3.9,0.3-8.2,1.8-12.1,3.5c-1,0.1-2,0.3-3,0.2c-2.8-0.2-5.5-1-5.5-4.4
		c-0.1-3.1,1.9-4.9,4.8-5.5c11.4-2.4,22.7-4.8,34.1-7c22.9-4.5,45.9-8.9,68.8-13.5c3.4-0.7,6.6-0.9,7.8,3
		C220.6,194,217.6,195.6,214.5,196.7z"/>
	<path fill="#F8E9DF" d="M393.5,217.7c-1.5,11.8-6.5,21.5-17.2,27.7c-22,12.8-52.1,11.1-70.9-4.5c-8.9-7.4-13.3-17.2-14.6-28.6
		c-0.6-5.1-0.3-10.3,0.2-15.5c1.4-0.4,2.7,0,3.9,0.6c-1.1,14.3,2.7,26.6,15.2,34.5c18.6,11.8,41.5,0.6,46-22.4
		C368.7,211.9,381.3,214.1,393.5,217.7z"/>
	<path fill="#5A3A1D" d="M393.5,217.7c-12.2-3.5-24.8-5.8-37.3-8.1c-4-0.3-7.6-2.7-11.4-3c-10.8-0.6-20.8-4.4-31.3-6.1
		c-6.2-1-12.3-2.1-18.5-3.1c-1.3-0.6-2.5-0.9-3.9-0.6c-2.9-1.2-5.8-2.6-5-6.4c1.1-5.1,5.2-4.4,8.8-3.7c7.5,1.4,14.9,3.1,22.4,4.7
		c25.8,5.6,51.8,9.7,77.5,15.8c1.1,0.3,2.3,0.5,3.3,0.9c2.4,1,3.9,2.6,3.5,5.4c-0.4,2.7-2.4,3.4-4.6,3.8
		C395.8,217.6,394.7,217.6,393.5,217.7z"/>
	<path fill="#452F1E" d="M149.5,209.6c7.5-1.8,15-3.3,22.5-4.5c11.8-1.9,23.4-5.7,35.4-6.7c1.1-0.1,2.2-0.6,3.4-0.9
		c1.1,11.9-1.6,22.7-10.5,31c-16.7,15.5-43.1,7.9-49.5-14.1C150.3,212.8,149.9,211.2,149.5,209.6z"/>
	<path fill="#452F1E" d="M294.9,197.4c6.2,1.1,12.3,2.2,18.5,3.1c10.5,1.7,20.6,5.5,31.3,6.1c3.8,0.2,7.4,2.7,11.4,3
		c-4.5,22.9-27.4,34.2-46,22.4C297.6,224,293.8,211.7,294.9,197.4z"/>
</g>
</svg>
