<?xml version="1.0" encoding="utf-8"?>
<!-- Generator: Adobe Illustrator 26.0.3, SVG Export Plug-In . SVG Version: 6.00 Build 0)  -->
<svg version="1.1" id="Capa_1" xmlns="http://www.w3.org/2000/svg" xmlns:xlink="http://www.w3.org/1999/xlink" x="0px" y="0px"
	 viewBox="0 0 596.4 822.4" style="enable-background:new 0 0 596.4 822.4;" xml:space="preserve">

<g>
	<path fill="#96765B" d="M86.3,376.1c3.1-7.6,8.3-13.9,12.9-20.5c24.8-35.4,54.2-66.1,91.2-89c14-8.7,28.3-16.9,43.8-22.7
		c0.4,0.8,0.9,1.5,1.1,2.3c5.6,25.5,16.4,48.6,32.1,69.4c20.2,26.8,46.4,45.2,78.2,56c3.3,1.1,7.8,0.6,10,4.5
		c-9.1-0.1-18.2,0.3-26.8,3.9c-2.2,0.9-3.6,0.3-4.8-1.9c-2-3.6-4.1-7.2-6.8-10.3c-8.1-9.3-16.7-18-29.5-20.6
		c-0.1-0.1-0.1-0.3-0.2-0.3c-0.1-0.1-0.2,0-0.3,0c0.2,0.1,0.3,0.2,0.5,0.4c0,0.5-0.1,1.1,0.2,1.4c10.1,17.5,20.2,35.1,30.2,52.6
		c1.3,2.2,2.5,1.3,4.1,0.6c5.1-2.4,10.2-4.9,15.3-7.2c10.6-4.7,21.2-9.4,31.2-15.4c1.4-3.9,4.2,0.2,6-1.1c-0.3,2.5-0.4,5.3-2.6,6.7
		c-11.4,7.5-21.5,16.8-33.7,22.9c-10.9,5.5-17.6,4.5-25.9-4.4c-5.8-6.3-9.8-13.8-13.8-21.3c-7.6-14.4-15.7-28.5-28.1-39.6
		c-1.2-1.1-2.4-3.2-4.1-1.9c-1.9,1.5-0.4,3.2,0.8,4.7c8.4,10.3,15.7,21.4,21.8,33.3c4.4,8.7,8.5,17.8,14.7,25.4
		c11.5,14.3,21.2,18.4,38,10.1c9-4.4,16.9-10.5,24.8-16.6c14.6-11.2,29.1-22.8,47.1-28.4c10.4-3.2,21.1-5.8,33.1-2.6
		c-5.4,2.1-10.3,3.3-14,6.7c-1.6,1.4-4.3,3.2-2.3,5.7c1.7,2.2,3.5-0.4,5.2-1c0.8-0.3,1.3-1,2.1-1.3c9.1-4.4,18.3-5.9,27.5-0.2
		c1.6,1,3.2,2.6,2.9,4.4c-0.4,2.3-2.7,1-4.2,1.3c-6,1-11.6,2.7-16.4,6.6c-1.7,1.4-2.7,3.3-1.6,5.3c1.2,2.1,3,0.4,4.3-0.3
		c4.1-2.3,8.6-3.4,13.2-4.1c6.8-1.1,9.1,1.1,7.7,7.7c-2.6,11.8-10.9,19.1-20.4,25.2c-6.7,4.3-13.9,7.9-19.1,14.2
		c-4.1,5-8.3,9.9-12.7,14.6c-11.5,12.3-23.9,23.6-37.4,33.5c-14.6,10.8-29.7,20.9-47.3,26.1c-10.6,3.1-21.6,6-32.7,2.8
		c-16.3-4.7-30.3-13.6-42.3-25.4c-17.3-17-30.7-37-41.5-58.7c-3.8-7.6-7.1-15.4-10.7-23c-0.7-1.4-1.5-3.6-3.4-2.8
		c-1.5,0.6-0.9,2.7-0.6,4.1c0.8,3.7,1.9,7.4,2.9,11c-4.5-2.9-8.9-6.1-13.6-8.7c-3.8-2.1-7-5.3-11.5-6.2c0,0,0,0,0,0
		c-0.3-0.3-0.7-0.6-1-1c-6.3-4.1-12.9-7.4-20-9.9c-0.3,0-0.7-0.1-1-0.1c-14.9-7.9-31.2-11.4-47.7-13.9
		C102.7,378,94.5,377.2,86.3,376.1z"/>
	<path fill="#94775B" d="M362.4,822c-10.2,0.1-18.1-5-25.1-11.7c-10-9.6-21-17.9-32.2-25.9c-17.4-12.3-36.3-15.6-56.9-10.8
		c-3.2,0.7-6.4,1.9-9.8,1.5c-0.6-3.5-4.2-1.4-6-3.3c-6.1-6.1-11.5-12.5-14.1-20.8c-5.1-16.2-7.5-32.7-6.1-49.9
		c1.7-19.6,5.2-38.5,15.5-55.4c7.6-12.4,16.6-23.6,30.3-29.9c3.7-1.7,7.6-3.2,11.4-4.7c15.9-0.6,29.9,5.6,43.3,13
		c18.4,10.2,31.8,25.9,43.6,42.9c11.1,16,19.6,33.5,26.7,51.6c1.6,4,4.1,4.8,7.8,3.2c3.8-1.6,7.7-3.2,11.5-4.8
		c7.4-3.2,15.3-4.8,23.2-4.8c9,0,16.7,3.9,21.7,11.8c3.9,9.4,2,18.2-2.4,26.8c-0.6,1.1-0.7,3.2-3,2.3c-2.1-0.8-2-2.3-1.6-4
		c1-4.1,1.4-8.2,1.1-12.4c-0.7-9.1-4.6-16.1-12.7-20.7c-2.7-1.6-5.4-1.3-6.9,1.5c-1.5,2.9,1,4,3.1,5.2c8.2,4.9,11.5,15.1,7.7,23.9
		c-1.8,4.1-6.2,3.7-9.4,4c-3.2,0.2-1.6-3.3-1.8-5.2c-1-10.2-6.1-16.6-15.8-19.6c-3-0.9-5.9-1.4-6.9,2.2c-1,3.8,2.3,4.1,4.8,4.8
		c7.6,2.1,13.1,14.4,9.5,21.4c-0.3,0.7-1.1,1.2-1.8,1.7c-5.7,4-11.6,7.7-17,12.1c-12.6,10.1-24.3,21.2-31.5,36.1
		C359.9,810.2,359.1,816.1,362.4,822z"/>
	<path fill="#F1D9B2" d="M236.5,242.3c-0.4-7.2-3.6-13.7-4.5-20.8c-2.5-18.3-1.6-36,7.3-52.7c2.6-4.9,6.3-9.1,10.7-12.4
		c8.5-6.2,13.5-15.4,21-22.5c0.6-0.5,0.7-1.5,1.1-2.2c1.1,0.7,1.9-0.1,2.6-0.7c8.5-7.1,17.5-13.5,27.7-17.9c1.9-0.8,2.2-2.3,2.4-3.9
		c2.5-0.2,5,0.5,7.4-0.5c9.3-3.9,19.4-4.9,29.1-7c9.1-2,19.1-1.1,28.7,0c0.4,1.3,1.6,1.7,2.5,2.3c12.1,7.1,21.9,16.6,29.8,28.2
		c9.1,13.3,14.5,28,17,43.8c0.5,3.2,0.7,5.8,5.3,4.1c5.1-1.9,10.7-2.5,16.2-2.7c21.2-1,40.4,4.7,57.3,17.7c1.2,0.9,2.2,2.7,4.2,2.2
		l0-0.1c-0.3,1.1,0.3,1.7,1.3,2.1c-0.4,1.2-0.5,2,0.3,3.3c3.5,6.2,5.1,13.1,6.4,20c1.4,7.2,1.9,14.6,4.2,21.6
		c-1.8,1.4-1.7,3.6-1.7,5.5c-0.2,9.7-1.6,19.3-3.4,28.9c-1.3,4.7-2.6,9.5-3.9,14.2c-1.3,1.4-1.9,3.2-2.3,5.1
		c-3.6,7.1-8.3,13.7-8.5,22.1c-0.4,2.2-1.6,4.2-1.3,6.5c-2.6,2-3.3,5.3-5.1,7.9c-6.5,9.3-15.3,16-25.1,21.4
		c-3.6,1.6-7.3,3.1-10.9,4.7c-1.3,0.2-2.6,0.4-3.9,0c-10.8-3-21.7-2.5-31.9,1.3c-11.6,4.3-23,5.4-34.9,3c-12.4-3.5-25-6.6-37-11.6
		c-50.5-21-85.8-57-105.9-107.9C238.1,244.2,237.9,242.9,236.5,242.3z M401.2,273.3c0.1-4.9-1.8-9-5.4-12.2
		c-9.6-8.6-20-16-32.3-20.4c-3.1-1.1-6.1-1.6-9.1-0.2c-10.7-5.4-22-7-33.8-5.8c-6.3,0.7-12.5,2.1-17.6,6.3
		c-11.5,9.6-13.1,22.3-10.2,35.8c10.9,50.7,64.2,69.8,102.6,55.5c11.1-4.1,19.3-11.8,19.9-24.4C415.8,294.4,409.9,283.2,401.2,273.3
		z M328.6,132c-20.1,0.6-39.2,6.5-54.3,22.2C262,167,262.5,181,275.6,193c0.6,0.6,1.2,1.2,1.9,1.7c19.6,14.6,40.6,26.8,64,33.9
		c18.6,5.6,28.6,2.2,38.5-11.6c13.7-19.2,13-45.8-2.1-64C365.4,138,348.7,132.2,328.6,132z M496.5,270.1c0.3-6.1-1-11.9-2.1-17.8
		c-0.8-4.4-2.3-8.7-4-12.8c-7.6-18.2-24.6-30.1-43.3-30.2c-20.2-0.1-38.4,11.9-46.2,30.1c-4,9.4-3.7,18.5,2.1,27.1
		c13.6,20.1,31.1,36.1,52.2,47.8c14.3,8,26.4,3.4,33.9-11.4C494.2,292.6,496,281.5,496.5,270.1z M371.3,123.1c-1,0-2-0.1-3,0
		c-3.5,0.5-7.4,0.8-8.5,4.9c-1.1,4,1.9,6.5,5,8.3c6.7,4.2,14.2,5.5,22,4.6c3.1-0.3,6-1.3,6.7-4.9c0.6-3.4-1.2-5.7-3.8-7.5
		C384.2,124.6,377.9,123.4,371.3,123.1z M489.4,210.7c-0.8-7.7-5.4-14.8-13.1-19.6c-4.8-3.1-9.5-0.2-9.8,5.3
		c-0.3,7,7.4,19.1,13.8,21.8C486.1,220.6,489.5,218.3,489.4,210.7z"/>
	<path fill="#96775D" d="M509.4,278.7c1.9-9.5,3.2-19.1,3.4-28.9c0-1.9,0-4,1.7-5.5c1.4-0.6,2.8-1.1,4.1-1.8
		c17.8-9.9,24.6-31.4,15-47.9c-7.8-13.3-20.8-16.5-35-17.5c-4-0.3-5.1,0.6-3,4.6c2.6,5,6,9.6,6.8,15.4c-2,0.5-3-1.3-4.2-2.2
		c-16.9-13-36.2-18.6-57.3-17.7c-5.4,0.2-11,0.8-16.2,2.7c-4.6,1.7-4.8-1-5.3-4.1c-2.5-15.8-8-30.5-17-43.8
		c-7.9-11.6-17.8-21.1-29.8-28.2c-1-0.6-2.1-1-2.5-2.3c3,0.4,5.9,0.7,8.9,1.2c2.7,0.4,3.5-0.1,2.8-3.1c-2.7-11.5-8.6-21-17.9-28
		c-8-6-17.2-8.6-27.3-6.9c-20.6,3.6-33.4,23.5-31.8,44.3c-0.2,1.7-0.6,3.1-2.4,3.9c-10.2,4.4-19.2,10.8-27.7,17.9
		c-0.7,0.6-1.5,1.4-2.6,0.7c-7.8-27.7-4.2-53.6,13.3-76.7c22.4-29.5,66.2-34.8,96.8-12c20.8,15.5,29.7,37,28.7,62.6
		c-0.1,2.7-0.3,4.6,3,5.8c23.3,8.6,43,22.4,59.9,40.5c2.6,2.8,4.6,3,8.1,1.7c33.9-13.5,70.7,2.1,83.3,35.9
		c8.4,22.6,3.4,43.5-11.6,61.7C542.1,265.3,527.2,274.5,509.4,278.7z"/>
	<path fill="#80614C" d="M466.5,770.7c-9.1,3.6-16.9,0.7-24.4-4.4c1-0.5,1.9-1.1,2.3-2.2c3.6-2.1,5.3-5.5,7-9c0.8-0.4,1-1.2,1-2
		c0-0.7,0-1.3,0.1-2c1.6-1.7,2.6-3.7,2.9-6c0-0.7,0-1.3,0-2c2.1-3.8,1.5-7.8,1.1-11.9c-1.2-12.3-9.6-22.5-21.8-25.1
		c-8-1.7-16-1.5-24.1,0.3c-6.2,1.4-11.9,3.9-17.9,5.9c-3.2,1.1-4.3,0.2-5.3-2.8c-5.3-15.5-13.5-29.5-22-43.4
		c3.9-10.9,6.5-22.1,8-33.5c0.8-6.4,1.6-12.9,1-19.4c7.5-10.8,12.4-22.6,12.1-36c28.7,7.2,50.3,24.1,66.6,48.3
		c9.9,14.7,18.3,30.1,25.7,46.2c0.3,0.6,0.7,1.1,1.1,1.7c6.5-4.5,12.6-9.4,20.5-11.2c-0.6,3.7,0.4,6.3,4.3,7.7c3.6,1.3,5.7,4.5,7,8
		c2.2,5.6,0.7,10.4-4.1,13.4c-14.7,9.1-27,20.8-37.3,34.6c-6.2,8.4-12.1,17.2-13.6,27.9c-1,7.1-0.6,14.5,8.6,15.6
		C465.7,769.4,466.1,770.3,466.5,770.7z"/>
	<path fill="#93A8B7" d="M86.3,376.1c8.2,1,16.4,1.9,24.5,3.1c16.5,2.5,32.7,6,47.7,13.9c-4.8,0.4-9.1-1.6-13.4-3.1
		c-3.7-1.2-9.3,3.3-11.1-3.5c0-0.2-0.6-0.2-0.9-0.3c-4.6-1.3-9.1-3.1-13.7-3.8c-3.7-0.6-8.2-1.6-9.8,3.8
		c-10.7,12.9-18.4,27.4-23.1,43.5c-0.8,2.6-0.1,3.6,2.1,4.3c0.3,2,1.4,3.9,1,6c-2.6,0.9-6.2-2-8.1,2c-0.5,0.8-1.2,1.6-1.6,2.5
		c-5.1,14.4-10.5,28.7-13.7,43.7c-1.3,6.5-1.5,6.6,4.9,7.9c20.4,4,40.3,9.8,59.5,17.8c5.8,2.4,5.8,2.3,7.7-3.8
		c4.8-15.4,11.1-30.2,17.2-45.1c1.2-0.8,1.3-2.6,2.9-3c1,0,2.1,0,3.1,0c-0.4,1.6-0.7,3.3-1.1,4.9c-7.6,15-13.6,30.6-18.2,46.7
		c-1.1,3.7-0.3,5.3,3.1,6.8c17.6,8.3,34.5,17.9,50,29.7c2.8,2.1,4.2,1.6,5.3-1.6c2-5.6,4.3-11.2,6.3-16.8
		c3.8-10.2,10.1-19,14.4-28.9c0.7-0.4,1.3-0.7,2-1.1c0.6,1.4,1.6,2.1,3.1,2.1c0,0.6,0,1.3-0.1,1.9c-1.4,0.5-1.8,1.8-2.6,2.9
		c-7,10.9-12.1,22.8-16.7,34.9c-5,13.2-7,10.1,6.6,18.9c7.5,4.9,15.7,8.5,22.8,13.9c-0.4,1.1-0.7,2.2-1.1,3.3
		c-10.5-4.9-20.3-11.1-29.9-17.6c-2.9-2-4.7-2.2-5.4,1.9c-0.4,2.4-1.3,4.8-2,7.2c-4.6,15.9-7.6,32.1-8.8,48.6c-1,1.5-0.9,3.2-1,4.9
		c-1.3,0-2.6,0-3.9,0c1.3-21.8,5.5-43,11.9-63.8c0.7-2.4,1.6-4.3-1.4-6.3c-16.6-11.1-33.4-21.7-51.4-30.4c-3.2-1.6-4.3-1.4-5.2,2.5
		c-5.7,23-9.8,46.3-12.6,69.8c-0.3,2.9,0.3,4.6,3.1,5.9c9.2,4.5,18.4,9.2,26.7,15.2c0,1.4,0,2.7,0,4.1c-0.9-0.4-1.8-0.7-2.7-1.2
		c-8.2-4.4-16.3-8.9-24.4-13.4c-2.3-1.3-3.8-1.7-3.9,2c-0.1,6.8-0.7,13.6-0.9,20.4c-0.4,14.4,0.4,28.8,2,43.2
		c0.3,3.9,1,7.9,0.9,11.8c-0.1,4.6,1.8,6.8,6.1,8.2c15.9,4.9,30.2,13.2,45,20.7c3.1,1.6,6.1,6.5,9,4.5c2.7-1.9,0.6-7.1,0.9-10.9
		c0-0.6-0.2-1.3-0.3-1.9c-3.3-16.9-4.8-34-4.5-51.3c1.6,0,3.2,0,4.8,0c0.5,13-1.1,26.2,2.5,39.9c2.2-6.4,2.3-12.4,4.6-17.9
		c2.5-0.8,4,1.6,6.1,2c-0.1,1.3,0,2.7-0.3,4c-3.1,13.8-4.8,27.8-6,41.8c-0.9,11.1-2.9,22-6.6,32.6c-2.3,6.5-6.2,12-8.9,18.2
		c-1.6,1.5-3.3,2.8-4.7,4.4c-8.9,10.4-20.5,14.4-33.9,15.1c-20.3,1-40.5,0.8-60.7-1.2c-21.3-2.1-41.8-7.2-60.8-17.6
		c-5.5-3-10.2-6.8-13.3-12.3c2.1-0.8,4.5-0.6,6.3-2.2c3.4,2.2,6.8,4.5,10.1,6.7c6.6,4.5,13.7,7.9,21.4,10c2,0.6,3.8,0.3,5.5-1.3
		c6.5-6.6,11.3-14.1,14.3-22.9c0.9-2.7-0.1-3.6-2.3-4.4c-3.5-1.3-7.3-2.3-10.1-5c0-1,0-2.1,0-3.1c3.7,0,6.4,2.6,9.7,3.6
		c2.7,0.8,4.4,0.4,4.7-2.4c0.7-6.9,2.1-13.7,1.3-20.7c-1.3-11-3.6-21.8-5.9-32.6c-0.9-4.5-0.2-10.2-5.8-12.7c0-1,0-2.1,0-3.1
		c2.6-0.4,1.9-2.1,1.6-3.8c-0.6-2.7-1.1-5.5-1.7-8.3c-1.1-2.7-0.7-5.6-1.1-8.3c-2.9-21.2-4.9-42.4-4.8-63.8c0-9.9,0-9.8-9.7-12.2
		c-0.5-0.1-0.9-0.4-1.4-0.6c0.3-1.3,0.7-2.6,1-3.8c2,0.4,4,0.4,5.8,1.1c4.4,1.6,5.1-0.5,5.2-4.3c0.7-18.9,2.6-37.7,6.5-56.2
		c0.9-4.2,3.2-9.2,1.7-12.5c-1.8-4.2-7.8-1.5-11.9-2.6c-1-0.3-2-0.4-2.9-0.5c-2.9-0.4-5.1,0.2-6,3.6c-0.5,1.7-0.8,4.1-3.5,4.3l0,0
		c2.5-7.9,2.5-7.9-5-8.1c0-1.3,0-2.6,0-3.9c7.2,1.3,12.3-1.1,14.2-10.2c1.1,4-0.5,5.5-1.2,7.3c-0.7,1.7-0.9,2.8,1.5,2.9
		c4.1,0.2,8.3,0.6,12.4,1c3.2,0.3,4.5-0.7,5.4-4.1c4-14.7,8-29.5,13.4-43.8c0.9-2.3,2.5-4.4,2.1-7.1c0.8-0.6,1.2-1.5,0.1-1.9
		c-3.9-1.5-0.9-2.8,0-4.2c3.7,0.3,4.8-2.3,5.6-5.1c4-14.4,10.5-27.5,20.1-39c1.7-2.1,0.9-2.4-1.3-3.1c-3.4-1-6.9-0.4-10.4-1
		c-1.3-2.7-2.6-2.7-3.9,0c-1,0-2,0-3,0.1c-0.1-2.6-1.5-5-1-7.7c0.9-0.1,1.8-0.1,2.8-0.2c0.4-0.3,0.8-0.7,1.2-1
		C86.5,376.1,86.3,376.1,86.3,376.1z M130.5,738.2c0,1.5,0,2.9,2,3c0.1,2-0.3,3.7-1.3,5.6c-2.1,3.8-2.8,8.6-1.2,12.5
		c1.3,3.3,5.7,2.5,8.9,3c0.7,0.1,1.3,0.4,1.9,0.5c10,1.4,19.8,3.9,30,3.5c3-0.1,4.6-1.2,6-4.1c4.8-10.3,7.6-21.2,9.6-32.2
		c0.7-3.6-0.5-6-3.7-7.7c-5.4-2.9-10.6-6.1-16-9c-11-5.8-22.1-11.4-33.9-15.4c-1.5-0.5-4-1.5-4,0.8c0,4.4,0,9.2,1.8,12.9
		c1,2,1.2,2.4,0,4.1c-2.2,3.1-1.5,11.2,0.9,13.5c0,0.3,0,0.6,0,0.9c-1.8,1.8-0.8,3.9-0.9,6C129.4,736.7,130.3,737.4,130.5,738.2z
		 M125.5,717.2c-0.4-0.4-0.7-0.7-1.1-1.1c0.2-6.1,0.1-12.3-0.8-18.4c-0.4-2.4-1.6-3.6-3.6-4.2c-4.3-1.2-8.6-2.3-13-3.3
		c-13.1-3-26.3-5.2-39.2-8.8c-4.5-1.3-4.9-0.8-3.8,3.8c4.6,18.6,8.6,37.2,5.5,56.5c-0.7,4.5,1.1,6.6,5.5,7.5
		c15.1,3.1,30.1,6.5,45.1,9.7c1.3,0.3,2.7,0.7,3.8-0.4c1.2-1.2,1.6-11.7,0.3-12.9c-2.2-2-3.2-4.6-3.9-7.4c0.5-0.1,0.9-0.1,1.4-0.2
		c1.4,1.2,1.2,3.8,3.8,4.5C125.5,733.8,125.5,725.5,125.5,717.2z M60.4,664.2c0.2,9.9,0.9,11.2,6.8,12.7
		c17.1,4.3,34.7,6.9,51.6,11.8c3.1,0.9,3.8-0.4,3.2-3.4c-0.7-3.4-1.1-6.8-1.6-10.2c0-4.2,0.1-8.3-0.2-12.5
		c-1.4-18.2-1.4-36.5,0-54.7c0.2-2.4,0-4.1-2.7-5.5c-8.2-4.2-16.9-7-25.3-10.5c-1.6-0.7-2.5-0.5-3.8,0.8c-2.3,2.3-4.6,1.1-4.5-1.7
		c0.1-2.6-1.2-2.7-2.8-3.2c-7.8-2.3-15.6-4.4-23.4-6.8c-3.7-1.1-4.4,0.1-4.4,3.7c-0.2,16.9,0.3,33.9,2.3,50.7
		C56.8,645.1,57.3,654.9,60.4,664.2z M90.9,555c2.1,2,1.6,3.9,1.2,5.8c-1.2,6.4-2.5,12.7-3.4,19.1c-0.3,2.2-1.7,5.5,1.6,6.6
		c9.5,3,18.4,7.6,27.7,11.3c1.5,0.6,3.1,0.8,3.4-1.4c1.2-9.6,2.4-19.1,3.6-28.7c-3.7,4.3-6.7,0.8-8.7-1.2c-1.2-1.2,1.3-3.7,1.9-5.7
		c2.5,1.2,6.9-0.5,7.1,4.7c2.7-14.2,5.6-27.9,9.2-41.5c0.8-3-1.3-4.1-3.6-5c-20.4-8.3-41.2-14.9-62.9-18.6c-3.4-0.6-5,0.4-5.8,4.1
		c-2.1,10.4-4.1,20.8-5.3,31.3c-1.3,11.7-2.2,23.4-3.4,35.1c-0.4,3.5,1,4.9,4.4,5.7c7.9,2,15.6,4.5,23.4,7c3.3,1.1,4.8,0.4,5.3-3.4
		C87.8,571.8,89.4,563.4,90.9,555z M123.7,768.4c0.8-4.3-2.3-4.6-5.1-5.3c-15.5-3.4-31-6.7-46.4-10.4c-3.2-0.8-4.5-0.4-5.5,2.7
		c-2.4,7.6-6.3,14.5-11.5,20.6c-2.4,2.8-1.8,4.5,1.9,5.5c10.8,2.8,21.8,3.8,32.8,4.5c9.1,0.6,18.3-0.5,27.4,0.6
		c1.7,0.2,2.7-0.2,3-1.7C121.5,779.4,122.6,773.9,123.7,768.4z M170.3,770.9c-1.7,0.1-3,0.4-4.3,0.2c-11.1-1.4-22.3-2.9-33.2-5.4
		c-3-0.7-4-0.1-4.7,2.9c-1.3,5.6-1.7,11.5-4.1,16.8c-1.1,2.5,0.8,2.6,2.6,2.8c4.3,0.4,8.6-0.4,12.8-1
		C151.4,785.4,162.9,782.7,170.3,770.9z"/>
	<path fill="#90A6B5" d="M89.5,440.2c0.4-2.1-0.7-4-1-6c2.7,0.1,5.4-0.2,8,0.2c21.3,3.2,41.9,8.8,61.7,17.3c3,1.3,4.1,1.3,4.9-2.3
		c2.8-11.8,8.2-22.4,15.1-32.3c1.2-1.8,2.8-3.4,2.2-5.8c5.8-2.2,0-4.7,0.1-7.1c4.5,0.8,7.7,4.1,11.5,6.2c4.7,2.6,9.1,5.8,13.6,8.7
		c2.6,3.6,4.3,7.6,5,12c-1,0-2,0-3,0c-5.9-5.7-12.9-9.7-19.7-14.2c-2.2-1.4-3.9-1-5.4,1.3c-6.5,10.1-12.3,20.4-15.1,32.2
		c-0.8,3.3-0.2,4.7,2.8,6c19.9,9.3,38.5,20.8,56.1,34c2.5,1.9,3.3,0.8,4.5-1.1c0.9-1.4,0.9-2.8,0.9-4.3c3.9-1.8,3.6-6.7,6.8-9
		c1.2,0.5,2,1.2,2.1,2.6c-0.7,4.5-4.1,7.9-5.1,12.2c-2.7,2.1-2.8,4.3-0.2,6.5c2,1.7,4.1,3.3,6.1,4.9c1,0.9,1.8,1.9,2.9,2.7
		c8,5.8,15.9,11.9,24.2,17.3c9.3,6.1,18.6,12,28.8,16.5c2,0.9,4.3,1.7,4.9-1.6c1-5.2,3.5-10,3.4-15.4c1.6,0.1,3.2,0.2,4.8,0.3
		c-1.3,5.3-2.2,10.7-4,15.9c-1.2,3.7,0,5,3.3,6.1c9.7,3.3,19.6,5.9,29.7,8.1c12.9,2.8,15.1,1.3,16-12.2c0-0.5-0.1-1,0-1.5
		c1.8-9.6,0.7-19.1-0.1-28.7c2.7-2.1,5.7-3.3,9.1-4.3c6-1.8,11.3,0.9,16.9,1.7c0.7,1.2,2.1,0.7,3.1,1.1c3.6,5,7.9,9.5,9.1,16.1
		c1.6,8.7,0.8,17-2.4,25c-3.7,9-5.7,18-4.7,27.7c0.3,13.5-4.6,25.2-12.1,36c-0.5,0.4-1.1,0.7-1.6,1.1c-10.3,9.6-22.1,13.5-36,9.1
		c-5.3-1.7-10.8-2.9-16.3-4.3c-12.7-7.2-26-12.8-40.6-14.5c-10.8-1.3-21.6-1.1-31.4,4.5c-17.7,7.7-28.9,21.7-37,38.6
		c-4.7,9.8-7.3,20.2-10.8,30.4c-2.1-0.4-3.6-2.8-6.1-2c0.6-2.9,0.7-6,1.9-8.7c2.6-6,2.8-11-3.1-15.3c-1.8-1.3-2.6-5-4.8-4.3
		c-2.4,0.8-0.5,4.2-1.1,6.3c-1.6,0-3.2,0-4.8,0c0-2.6-0.3-5.3-0.1-7.9c0.3-3.9-1.1-6.3-5-7.1c-1.4-2.1-3.3-3.5-5.2-5.2
		c-5.3-4.5-11.9-7-16.9-11.8c0-1.4,0-2.7,0-4.1c1,0.5,2.1,1,3,1.6c7,4.5,14,9.1,21,13.6c0.9,1.1,1.6,2.9,3.2,2.2
		c1.4-0.6,0.6-2.3,0.7-3.5c0.1-0.6-0.1-1.3-0.1-1.9c0.3-1.7-0.3-3.5,1.1-4.9c1.3,0,2.6,0,3.9,0c0.2,1.7-0.5,3.3-0.6,4.9
		c-0.2,4.8-1.9,10.1,3.1,13.7c2.9,2,5.4,4.5,7.6,7.2c2.1,2.6,2.9,1.8,4-0.6c2-4.4,3.8-8.9,6.1-13.1c8.9-16.1,20.8-29,38.3-35.9
		c8.6-3.4,17.4-4.4,26.6-4.7c-12.6-4.8-25.2-9.2-37-15.6c-0.3-0.3-0.7-0.7-1-1c0.4-1.1,0.7-2.2,1.1-3.3c2.3,0.7,4.6,1.5,6.9,2.2
		c0.3,0.4,0.6,0.9,1,1.1c10.9,5.4,22.3,9.4,33.7,13.4c1.9,0.7,2.3-0.5,3-1.7c7.1-13.2,12.4-27.1,17.1-41.3c0.8-2.4,0.1-4-2.3-5.2
		c-9.5-4.7-19-9.3-27.8-15.3c-12.1-8.2-24.2-16.4-35.1-26.1c-2.9-2.6-4.4-2.4-6.5,0.2c-1.5,0-2.5-0.7-3.1-2.1c1.5-2.3,1.1-4-1.2-5.9
		c-16.8-13.7-35.7-24.1-55.1-33.6c-1.7-0.8-3.6-2-5.6-0.4c-1,0-2.1,0-3.1,0c0.1-1.8,0.3-3.4-2.2-4.3c-6.4-2.4-12.8-5.1-19.4-7.2
		c-4.4-1.4-5.8,0-5.6,4.2c-1.3,0.8-0.3,3.1-2.4,3.5c-1-1.7-0.1-3.5-0.3-5.3c1.8-2.7,1.4-4.6-2-5.4c-4.6-1.2-9.3-2.2-13.8-3.6
		C105.1,441.8,97.1,442.3,89.5,440.2z M338,591.2c-0.4-2,0.4-2.8,1.2-3.3c7.7-5.2,10-13,11.1-21.6c0.5-3.6,0.5-6-4.4-6.7
		c-13.4-1.8-26.8-4.3-39.3-9.9c-2.6-1.2-3.6,0.2-4.2,2.5c-3.9,14.3-9.9,27.8-16.6,40.9c-1.4,2.7-0.3,3.2,1.6,3.9
		c16,5.4,32,10.8,48,16.3c1.5,0.5,2.7,0.8,3.7-1c4.5-8.9,6.9-18.4,8.7-28.9C343.6,585.7,341.7,589.4,338,591.2z M378.4,577.1
		c0-4.9,0-8.2,0-11.5c0-1.5,0.2-3.2-2-3.4c-6.3-0.4-12.6-0.8-18.9-1.1c-1.7-0.1-3,0.9-3,2.6c0.1,2.9-3,6.9-0.3,8.2
		c3.4,1.6,1.2,2.5,0.7,3.9c-0.4,1.1-1.3,2-1.5,3.1c-1.9,11.5-5.1,22.7-10.1,33.2c-0.5,1-1.3,2.1,0.5,2.9c5.1,2.4,18.5-1,22.8-5.3
		C376.2,600.3,379.5,588.7,378.4,577.1z M364.2,511.9c-3.6-0.4-4.4,0.6-4,4.5c1.3,12,1.1,24.1-3.2,35.6c-0.8,2.2-0.1,3.1,2.1,3.1
		c6.1,0.1,12.2,0.9,18.2,1.8c1.6,0.2,2.5-0.6,3.1-1.9c4.8-9.1,8.4-18.5,5.8-28.9c-1.2-5-3.5-10-9-11.7
		C373.1,513.1,368.6,512.7,364.2,511.9z"/>
	<path fill="#80614C" d="M384.5,508.4c-1-0.4-2.4,0.1-3.1-1.1c-0.2-3.7-3.9-3.7-5.9-5.3c-2.2-1.8-1.9-2.8-0.2-4.1
		c3-2.3,6.1-4.5,9.2-6.7c15-10.6,28.7-22.7,40.9-36.4c5.9-6.6,10.8-14.3,18.3-19.4c6.3-4.3,12.5-8.7,18.6-13.1
		c12.5-9.1,17.8-23.1,13.9-37.3c-2.1-7.7-5.8-14.3-13.8-17.8c-3.6-1.6-7.5-3.4-10.3-6.5c3.6-1.6,7.3-3.1,10.9-4.7
		c0.4,2.8,2.5,4.1,4.6,5.5c8.2,5.5,16.6,4.6,25,0.6c10-4.8,13.1-18.7,6.5-27.7c-1.9-2.6-5-4.3-5.8-7.7c-0.3-2.3,0.9-4.3,1.3-6.5
		c3.4-0.4,9.9-6.7,10.8-10.6c1-4.2,2.7-8.5-2.3-11.5c0.4-1.9,1-3.6,2.3-5.1c5.1,2.4,9.4,5.7,11.3,11.3c0.4,1.3,1.3,2.2,2.5,3
		c6.6,3.8,8.8,10,9.3,17.2c0.8,11.7-1.6,22.8-6,33.6c-13.5,33.2-30.5,64.3-53.2,92.1c-16.1,19.7-33.9,37.6-56.5,49.9
		C404.1,504.8,394.7,507.8,384.5,508.4z M517.4,322.8c0-1,0-2,0-3c0-2.6-0.3-5.3-3-6.3c-2.6-1-5.4-0.2-7.4,1.7
		c-3.5,3.3-5.4,7.8-5.3,12.4c0.1,3.7,0.4,8.3,5.6,9.4c3.2,0.7,7.5-2.4,9.2-6.4C517.5,328.1,517.5,325.5,517.4,322.8z"/>
	<path fill="#90A6B5" d="M82.5,377.3c-0.5,2.7,0.9,5.1,1,7.7c-5,0.2-10,0.2-14.7,2.1c-8.4,3.4-13.2,10.1-16.3,18.4
		c-2.8,7.3-5.3,14.6-6.8,22.3c-1,5.2-0.4,5.8,4.8,5.6c3.3-0.2,6.6-0.6,9.9-0.8c5.4-0.3,10.9-1.2,16.2,0.7c-0.9,1.4-3.9,2.7,0,4.2
		c1.1,0.4,0.7,1.3-0.1,1.9c-1.9,1.6-4,1.9-6.4,1.9c-6.4,0.1-12.8-1.4-19.2-1c-7,0.4-9.6,4.2-7,10.9c-0.2,0.1-0.3,0.3-0.5,0.4
		c-2.7-0.8-3.5,1.1-4.3,2.9c-5.1,11.3-9.7,22.7-13.5,34.5c-1.1,3.5-0.3,4.6,3.1,4.3c0,1.3,0,2.6,0,3.9c-4-0.5-5.7,1.2-6.7,5.2
		c-5.1,20.5-7.7,41.3-7.4,62.4c0,3.5,1.1,4.3,4.5,4.6c6.6,0.6,13.1,1.9,19.6,2.9c-0.3,1.3-0.7,2.6-1,3.8c-6.5-0.1-12.7-2.4-19.3-2.1
		c-2.4,0.1-3.2,0.3-3.1,3.3c1.2,23.2,8.3,45.3,13.4,67.7c0.3,1.9,0.9,3.9,1,5.8c0.3,7.3,4.8,11.3,10.6,14.7
		c4.7,2.8,10.3,3.6,14.3,7.5c0,1,0,2.1,0,3.1c-8.3-0.5-14.2-6.6-21.8-9.4c2.1,17,1,33.5-4.9,49.5c-1.7,4.5-0.9,7.6,2.7,10.3
		c1.1,0.8,2.1,1.6,3,2.6c5.1,4.8,11.8,7.2,17,11.9c0,1,0,2.1,0,3.1c-7.4-1.5-12.8-6.7-18.9-10.6c-3-1.9-4.8-7.3-8.1-6.2
		c-2.7,0.9-4,5.7-6.1,8.7c-5.3,7.6-10.5,15.1-5.9,25c-1.8,1.6-4.2,1.4-6.3,2.2c-5.9-8.1-3.8-16,0.8-23.7c2.7-4.6,5.9-8.9,8.5-13.5
		c11.7-20.5,13.7-42.3,9.5-65.2c-3.1-16.7-8.2-32.9-11.7-49.5c-10.7-49.5-6-97.5,12.9-144.3c3.7-9.3,7.5-18.5,12.8-27
		c0.9-1.5,1.1-2.9,0.9-4.7c-1.9-17.4,4.7-32.5,14.3-46.1C60.1,379.5,70.9,376.7,82.5,377.3z"/>
	<path fill="#614328" d="M466.5,770.7c-0.4-0.5-0.8-1.3-1.3-1.4c-9.2-1.1-9.6-8.5-8.6-15.6c1.6-10.7,7.4-19.5,13.6-27.9
		c10.3-13.8,22.6-25.5,37.3-34.6c4.8-3,6.3-7.8,4.1-13.4c-1.4-3.5-3.5-6.7-7-8c-3.9-1.5-4.8-4.1-4.3-7.7c1.3-0.4,2.6-0.8,4-1.2
		c0.1,0.8,0.3,1.7,1.2,2c9.8,3.2,13.2,10.8,13.8,20.2c0.1,2.1,1,2.8,3,3c3.9,0.4,5.9-1,7.2-5c2-6.4-0.5-12.5-0.1-18.7
		c2.4,0.9,4.5,2.2,6.2,4.2c1.2,7.4,1.9,14.7-2.7,21.4c-0.9,1.3-0.8,2.8,0.3,4.2c2.9,3.8,3.4,8.1,3.2,12.7
		c-4.7,8.5-11.7,15.2-17.9,22.4c-10.7,12.4-21.6,24.8-34.9,34.6C478.3,765.9,472.8,769.1,466.5,770.7z"/>
	<path fill="#67492E" d="M452.4,751.1c0,0.7,0,1.3-0.1,2c-1.2,0.3-3-0.7-3.3,1c-0.2,1.2,1.4,0.8,2.3,1c-1.7,3.5-3.4,7-7,9
		c-3.2-3.7-3.6-8.9-7.5-12.4c0.9,5.3-0.1,10.9,2.8,15.9c-13.3,18.3-28.4,34.8-47.8,46.7c-8.8,5.4-18.4,9.4-29.3,7.6
		c-3.3-5.9-2.5-11.7,0.3-17.6c7.2-14.9,18.8-26,31.5-36.1c5.4-4.3,11.3-8.1,17-12.1c0.7-0.5,1.4-1,1.8-1.7c3.6-7-1.9-19.3-9.5-21.4
		c-2.6-0.7-5.8-1.1-4.8-4.8c1-3.7,3.9-3.2,6.9-2.2c9.6,3,14.8,9.5,15.8,19.6c0.2,1.9-1.4,5.4,1.8,5.2c3.3-0.2,7.6,0.1,9.4-4
		c3.8-8.8,0.5-19-7.7-23.9c-2.1-1.2-4.6-2.4-3.1-5.2c1.5-2.8,4.1-3.1,6.9-1.5c8,4.6,12,11.7,12.7,20.7c0.3,4.2-0.1,8.3-1.1,12.4
		c-0.4,1.8-0.5,3.3,1.6,4c2.3,0.9,2.4-1.2,3-2.3c4.4-8.6,6.3-17.4,2.4-26.8c1.8-1.9,2.9-0.1,3.4,1c1.7,3.7,3.1,7.7,2.1,11.8
		c-0.7,3,0.1,4.8,2.6,6.1c0,0.7,0,1.3,0,2C450.8,745.4,450.5,747.7,452.4,751.1z"/>
	<path fill="#80614C" d="M200.6,678.2c3.5-10.2,6.2-20.6,10.8-30.4c8.1-16.9,19.3-30.9,37-38.6c2.9,1.9,6,0.8,9.1,0.8
		c4,0,8.1-0.4,11.9,1.2c-3.8,1.6-7.6,3-11.4,4.7c-13.7,6.2-22.7,17.5-30.3,29.9c-10.3,16.9-13.8,35.8-15.5,55.4
		c-1.5,17.2,0.9,33.6,6.1,49.9c2.6,8.3,8.1,14.7,14.1,20.8c1.9,1.9,5.4-0.2,6,3.3c-19.9,3.1-39.9,4.1-59.7-0.3
		c2.7-6.2,6.6-11.7,8.9-18.2c3.8-10.6,5.7-21.5,6.6-32.6c1.2-14.1,2.9-28,6-41.8C200.5,680.9,200.5,679.5,200.6,678.2z"/>
	<path fill="#80614C" d="M236.5,242.3c1.4,0.6,1.6,1.9,2.1,3.2c20,50.9,55.3,86.8,105.9,107.9c12,5,24.6,8.1,37,11.6
		c-2.4,4.4-4.7,8.8-7.1,13.3c-1.9,1.2-4.6-2.8-6,1.1c-2.6-0.8-5.3-1.5-7.9-2.3c-0.6-2.1-1.6-2.3-3.1-0.7c-0.6-0.1-1.3-0.1-1.9-0.2
		c-2.2-3.9-6.6-3.4-10-4.5c-31.8-10.8-57.9-29.2-78.2-56c-15.7-20.8-26.5-43.9-32.1-69.4c-0.2-0.8-0.7-1.5-1.1-2.3
		C235,243.3,235.7,242.8,236.5,242.3z"/>
	<path fill="#9DB9CB" d="M554,20.3c-6.3,0-12.6,0-18.8,0c-3,0-6.1-0.4-8.1-3c-1.9-2.4-2.2-5.2-1-8c1.3-3.2,4.1-4.9,7.5-4.9
		c12-0.1,24-0.3,36,0c8.4,0.2,11.5,8.6,5.9,16.1c-4.7,6.4-10.2,12.3-15.1,18.6c-3.7,4.6-8.4,8.4-11.7,14.2c8.2,0,15.7-0.1,23.3,0
		c5.2,0.1,8.3,2.7,8.6,7.1c0.4,5.7-1.7,8.5-7.5,8.9c-12.1,0.7-24.3,1.4-36.4,0.8c-3.9-0.2-8.5-0.1-10.4-4.5
		c-1.9-4.4-1.2-8.7,1.8-12.7c7.2-9.8,15.5-18.6,23.3-28C552.2,23.7,553.8,22.8,554,20.3z"/>
	<path fill="#9DB9CB" d="M494.6,75.5c-6.7-0.9-12.4,0.2-18-0.9c-3.5-0.7-5.4-2.2-5.3-5.9c0-3.5,1.6-5.8,5.1-6.3
		c10.2-1.6,20.6-1.5,30.8-0.3c6.7,0.7,8.5,6.2,4.5,12.4c-4.8,7.6-11.1,14.1-17,20.9c-0.9,1-1.9,1.9-2.8,2.9
		c-0.6,0.7-1.7,1.4-1.2,2.5c0.5,1.1,1.7,0.7,2.7,0.7c4.7,0,9.3-0.2,14-0.1c5.3,0.1,7.7,2.1,7.9,6.3c0.2,5-2.5,6.5-7.1,6.9
		c-10.5,0.9-20.9,1.2-31.4,0c-6-0.7-7.9-5-5.5-10.5c2.2-5,6.2-8.6,9.6-12.7C485.3,86.1,489.7,81.2,494.6,75.5z"/>
	<path fill="#9DB9CB" d="M575.2,125.3c4.9,0,8.9,0,12.9,0c3.7,0,6.2,1.5,6.1,5.6c-0.1,3.9-2.9,4.3-5.9,4.4c-6.5,0.2-13,0.6-19.4,0.7
		c-2.9,0-6.2,0.1-7.8-3.2c-1.7-3.4,0.1-6.3,2.1-8.7c3.9-4.9,8.2-9.6,12.3-14.5c0.7-0.8,2.2-1.6,1.2-2.9c-0.4-0.6-1.8-0.5-2.7-0.6
		c-3-0.2-6,0.2-8.9-0.5c-3.1-0.7-4-2.5-3.9-5.4c0.1-3,1.8-3.9,4.5-4.1c6.6-0.5,13.3-1.3,19.9-0.4c7.7,1,9.4,5.1,4.7,11.1
		c-4.2,5.4-8.7,10.5-13,15.8C576.8,123.2,576.3,123.9,575.2,125.3z"/>
	<path fill="#80614C" d="M529.4,662.6c-0.4,6.2,2.1,12.3,0.1,18.7c-1.3,4-3.3,5.3-7.2,5c-2-0.2-2.9-0.8-3-3c-0.6-9.4-4-17-13.8-20.2
		c-0.9-0.3-1.1-1.1-1.2-2C512.9,658,521.3,657.7,529.4,662.6z"/>
	<path fill="#80614C" d="M536.3,705c0.3-4.6-0.3-8.9-3.2-12.7c-1-1.3-1.2-2.8-0.3-4.2c4.5-6.7,3.9-14,2.7-21.4
		c9.3,6.9,11.5,19.1,5.4,31.6C539.8,700.8,539,703.6,536.3,705z"/>
	<path fill="#6F4F35" d="M439.6,767.6c-2.9-5-1.8-10.6-2.8-15.9c3.9,3.5,4.3,8.7,7.5,12.4c-0.4,1.1-1.3,1.7-2.3,2.2
		C441,766.2,440.4,767.1,439.6,767.6z"/>
	<path fill="#96765B" d="M86.5,376.1c-0.4,0.3-0.8,0.7-1.2,1C85.5,376.6,85.6,375.9,86.5,376.1z"/>
	<path fill="#6F4F35" d="M374.4,378.2c2.4-4.4,4.7-8.8,7.1-13.3c11.9,2.4,23.3,1.3,34.9-3c10.2-3.8,21.1-4.3,31.9-1.3
		c1.4,0.4,2.6,0.1,3.9,0c2.9,3.1,6.7,4.9,10.3,6.5c8,3.6,11.6,10.1,13.8,17.8c3.9,14.2-1.4,28.2-13.9,37.3
		c-6.2,4.4-12.4,8.8-18.6,13.1c-7.6,5.1-12.4,12.8-18.3,19.4c-12.2,13.7-25.9,25.8-40.9,36.4c-3.1,2.2-6.2,4.4-9.2,6.7
		c-1.8,1.3-2.1,2.4,0.2,4.1c2,1.6,5.7,1.7,5.9,5.3c-5.6-0.8-10.9-3.4-16.9-1.7c-3.4,1-6.4,2.1-9.1,4.3c-14.3,6.5-28.9,12.2-45,12.3
		c-1.6-0.1-3.2-0.2-4.8-0.3c-15.1-2.6-28.2-9.5-40.3-18.6c-9.4-7.1-16.7-16.1-24.8-24.5c-0.1-1.4-0.9-2.1-2.1-2.6
		c-9.8-14.2-19-28.8-27.2-44c-0.2-0.4-0.5-0.7-0.7-1.1c0,0,0,0,0,0c-0.7-4.4-2.4-8.4-5-12c-1-3.7-2.1-7.3-2.9-11
		c-0.3-1.4-0.9-3.5,0.6-4.1c1.9-0.8,2.7,1.4,3.4,2.8c3.6,7.7,6.9,15.5,10.7,23c10.8,21.7,24.2,41.7,41.5,58.7
		c12,11.8,26,20.7,42.3,25.4c11.2,3.3,22.1,0.4,32.7-2.8c17.6-5.2,32.6-15.4,47.3-26.1c13.6-10,26-21.2,37.4-33.5
		c4.4-4.7,8.6-9.7,12.7-14.6c5.2-6.3,12.4-9.8,19.1-14.2c9.5-6.1,17.8-13.4,20.4-25.2c1.5-6.6-0.8-8.8-7.7-7.7
		c-4.6,0.8-9.1,1.9-13.2,4.1c-1.3,0.7-3.1,2.5-4.3,0.3c-1.1-1.9-0.1-3.8,1.6-5.3c4.7-4,10.4-5.7,16.4-6.6c1.5-0.2,3.9,1,4.2-1.3
		c0.3-1.8-1.3-3.4-2.9-4.4c-9.2-5.7-18.4-4.3-27.5,0.2c-0.7,0.4-1.3,1.1-2.1,1.3c-1.7,0.6-3.5,3.2-5.2,1c-2-2.6,0.8-4.3,2.3-5.7
		c3.7-3.4,8.6-4.6,14-6.7c-12-3.2-22.6-0.6-33.1,2.6c-18,5.6-32.4,17.1-47.1,28.4c-7.9,6.1-15.8,12.1-24.8,16.6
		c-16.8,8.3-26.5,4.2-38-10.1c-6.2-7.6-10.2-16.7-14.7-25.4c-6.1-11.9-13.4-23-21.8-33.3c-1.2-1.5-2.7-3.2-0.8-4.7
		c1.7-1.3,2.9,0.8,4.1,1.9c12.4,11.1,20.5,25.2,28.1,39.6c4,7.5,8,15,13.8,21.3c8.2,8.9,15,9.9,25.9,4.4
		c12.2-6.2,22.3-15.5,33.7-22.9C374,383.5,374.1,380.7,374.4,378.2z"/>
	<path fill="#F1D9B2" d="M360.5,377c2.6,0.8,5.3,1.5,7.9,2.3c-10,6-20.5,10.7-31.2,15.4c-5.2,2.3-10.2,4.7-15.3,7.2
		c-1.5,0.7-2.8,1.7-4.1-0.6c-10-17.6-20.2-35.1-30.2-52.6c-0.2-0.4-0.1-1-0.2-1.4l0,0c12.8,2.6,21.5,11.2,29.5,20.6
		c2.7,3.1,4.8,6.8,6.8,10.3c1.2,2.2,2.7,2.8,4.8,1.9c8.6-3.7,17.7-4.1,26.8-3.9c0.6,0.1,1.3,0.1,1.9,0.2
		C358.2,377.3,359.3,377.2,360.5,377z"/>
	<path fill="#90A6B5" d="M109.5,386.3c1.6-5.4,6.2-4.4,9.8-3.8c4.7,0.7,9.2,2.5,13.7,3.8c0.3,0.1,0.9,0.1,0.9,0.3
		c1.8,6.8,7.4,2.3,11.1,3.5c4.3,1.5,8.7,3.5,13.4,3.1c0.3,0,0.7,0.1,1,0.1c0.4,2.3,2.4,3.4,4,3.7c4.4,1.1,5.2,3.5,3.9,7.3
		c-7-2.8-14.1-5.6-21.1-8.4C134.4,391.3,121.9,389,109.5,386.3z"/>
	<path fill="#93A8B7" d="M167.4,404.4c1.3-3.8,0.5-6.3-3.9-7.3c-1.6-0.4-3.6-1.5-4-3.7c7.1,2.5,13.7,5.8,20,9.9c0.3,0.3,0.7,0.6,1,1
		c0,0,0,0,0,0c-0.2,2.3,5.6,4.8-0.1,7.1C175.7,409.5,171.2,407.6,167.4,404.4z"/>
	<path fill="#F1D9B2" d="M287.4,347.2c-0.2-0.1-0.3-0.2-0.5-0.4c0.1,0,0.2,0,0.3,0C287.3,347,287.4,347.1,287.4,347.2
		C287.4,347.2,287.4,347.2,287.4,347.2z"/>
	<path fill="#90A6B5" d="M180.5,404.2c-0.3-0.3-0.7-0.6-1-1C179.8,403.5,180.1,403.9,180.5,404.2z"/>
	<path fill="#6F4F35" d="M269.4,611.1c-3.9-1.6-7.9-1.2-11.9-1.2c-3,0-6.2,1.1-9.1-0.8c9.9-5.6,20.7-5.8,31.4-4.5
		c14.5,1.8,27.9,7.4,40.6,14.5c6.4,5.2,13,10.2,19.1,15.7c10.1,9.2,18,20.2,25.9,31.3c8.4,13.9,16.7,27.9,22,43.4
		c1,3,2.1,3.9,5.3,2.8c6-2,11.7-4.5,17.9-5.9c8.1-1.8,16.1-2.1,24.1-0.3c12.2,2.7,20.6,12.8,21.8,25.1c0.4,4.1,1.1,8.1-1.1,11.9
		c-2.5-1.3-3.3-3.1-2.6-6.1c0.9-4.1-0.4-8.1-2.1-11.8c-0.5-1.1-1.6-2.9-3.4-1c-5.1-8-12.8-11.8-21.7-11.8c-7.9,0-15.8,1.6-23.2,4.8
		c-3.8,1.6-7.7,3.2-11.5,4.8c-3.7,1.5-6.2,0.8-7.8-3.2c-7.1-18.1-15.6-35.6-26.7-51.6c-11.8-17-25.2-32.7-43.6-42.9
		C299.3,616.7,285.3,610.6,269.4,611.1z"/>
	<path fill="#96765B" d="M328.6,132c20.1,0.3,36.9,6,49.3,21c15.1,18.2,15.8,44.8,2.1,64c-9.9,13.9-19.9,17.3-38.5,11.6
		c-23.5-7.1-44.5-19.3-64-33.9c-0.7-0.5-1.2-1.1-1.9-1.7c-13.1-12-13.6-26-1.3-38.8C289.4,138.5,308.5,132.6,328.6,132z
		 M312.4,173.5c0-1.7,0.1-3.3,0-5c-0.1-2.3-1.4-3.7-3.6-4.1c-2.2-0.4-4,0.4-4.9,2.5c-0.6,1.3-1.3,2.9-1.1,4.3
		c0.5,5.9,0.8,11.8,3,17.6c6.6,17.2,26.1,26.6,44.4,23.4c5.6-1,11-2.7,15.5-6.5c2-1.7,2.7-3.9,1.2-6.2c-1.4-2.4-3.7-2.6-6.1-1.7
		c-0.9,0.4-1.7,1-2.6,1.5c-10,5.7-20.2,5.4-30,0.2C318,193.9,312.3,185.3,312.4,173.5z"/>
	<path fill="#96765B" d="M401.2,273.3c8.7,9.9,14.6,21.2,14.1,34.6c-0.5,12.7-8.8,20.3-19.9,24.4c-38.4,14.3-91.7-4.7-102.6-55.5
		c-2.9-13.5-1.2-26.2,10.2-35.8c5-4.2,11.3-5.6,17.6-6.3c11.8-1.3,23.1,0.4,33.8,5.8c-0.3,4.7,0.2,9.2,2,13.6
		C363.8,272.9,384.4,281.8,401.2,273.3z M317.1,264.4c1.3,5.7,2.7,10.5,5.7,14.8c4.8,6.9,12.2,10.1,19.7,11.6
		c9.2,1.8,15.1,6.8,20.2,14.2c6.8,9.7,17.3,10.7,28.1,9.7c0.3,0,0.5-0.6,1.3-1.5c-13.1-1-23.6-5.8-29.8-17.5
		c-2.7-5-6.8-7.5-12.4-8.6c-13.5-2.7-25.4-8-31.3-21.8C318.6,265.1,318.4,265.1,317.1,264.4z"/>
	<path fill="#96765B" d="M496.5,270.1c-0.5,11.4-2.2,22.5-7.4,32.8c-7.5,14.8-19.7,19.4-33.9,11.4c-21-11.8-38.6-27.8-52.2-47.8
		c-5.8-8.6-6.1-17.7-2.1-27.1c7.8-18.2,26-30.2,46.2-30.1c18.7,0.1,35.7,11.9,43.3,30.2c1.7,4.2,3.2,8.4,4,12.8
		C495.5,258.1,496.8,264,496.5,270.1z M454,279.3c-17.6,1.5-30.8-18.2-27.1-32.4c0.8-3-0.1-5.6-3.2-6.3c-3-0.7-4.9,1-5.6,4.2
		c-2.9,13.1,0.8,24.5,9.5,34c10.8,11.8,32.1,13.7,45.5,4.7c2.1-1.4,4.1-3.3,2.4-6.2c-1.7-2.9-3.9-3.6-7.1-1.8
		C464.1,278,459.2,279.7,454,279.3z"/>
	<path fill="#ECC8C8" d="M304.8,109.2c-1.6-20.8,11.1-40.8,31.8-44.3c10.1-1.7,19.3,0.9,27.3,6.9c9.3,7,15.2,16.5,17.9,28
		c0.7,3.1-0.2,3.5-2.8,3.1c-3-0.5-5.9-0.8-8.9-1.2c-9.6-1.1-19.6-2-28.7,0c-9.7,2.1-19.8,3.1-29.1,7
		C309.9,109.8,307.3,109.1,304.8,109.2z"/>
	<path fill="#ECC8C8" d="M502.4,197.3c-0.7-5.8-4.2-10.5-6.8-15.4c-2.1-4-1-4.9,3-4.6c14.1,0.9,27.2,4.1,35,17.5
		c9.6,16.5,2.7,38-15,47.9c-1.3,0.7-2.7,1.2-4.1,1.8c-2.3-7-2.8-14.4-4.2-21.6c-1.3-6.9-2.9-13.9-6.4-20c-0.8-1.3-0.7-2.2-0.3-3.3
		C503.3,198.5,503.3,197.6,502.4,197.3L502.4,197.3z"/>
	<path fill="#593C1E" d="M401.2,273.3c-16.9,8.5-37.5-0.4-44.8-19.2c-1.8-4.5-2.3-8.9-2-13.6c3.1-1.4,6-0.9,9.1,0.2
		c12.3,4.4,22.7,11.8,32.3,20.4C399.4,264.2,401.4,268.3,401.2,273.3z"/>
	<path fill="#593C1E" d="M493.3,326.6c0.8,3.4,3.9,5.1,5.8,7.7c6.6,9,3.6,22.9-6.5,27.7c-8.4,4-16.8,4.9-25-0.6
		c-2.1-1.4-4.2-2.7-4.6-5.5c9.9-5.4,18.6-12,25.1-21.4C490,331.9,490.8,328.7,493.3,326.6z"/>
	<path fill="#593C1E" d="M371.3,123.1c6.5,0.4,12.8,1.6,18.3,5.4c2.6,1.8,4.4,4.2,3.8,7.5c-0.7,3.6-3.6,4.6-6.7,4.9
		c-7.8,0.9-15.2-0.4-22-4.6c-3-1.9-6-4.3-5-8.3c1.1-4.1,5-4.3,8.5-4.9C369.3,122.9,370.3,123.1,371.3,123.1z"/>
	<path fill="#593C1E" d="M489.4,210.7c0,7.7-3.3,9.9-9.1,7.5c-6.4-2.7-14.2-14.9-13.8-21.8c0.3-5.6,5-8.4,9.8-5.3
		C484,195.9,488.7,202.9,489.4,210.7z"/>
	<path fill="#593C1E" d="M503.1,298c5,3,3.3,7.3,2.3,11.5c-0.9,4-7.4,10.2-10.8,10.6C494.8,311.7,499.5,305.1,503.1,298z"/>
	<path fill="#96775D" d="M502.3,197.2c1,0.4,1,1.3,1.3,2.1C502.7,198.9,502,198.3,502.3,197.2z"/>
	<path fill="#94775B" d="M365.4,666.1c-7.9-11-15.8-22.1-25.9-31.3c-6.1-5.5-12.7-10.5-19.1-15.7c5.4,1.4,10.9,2.6,16.3,4.3
		c14,4.4,25.7,0.5,36-9.1c0.5-0.4,1.1-0.8,1.6-1.1c0.6,6.5-0.2,13-1,19.4C371.9,644.1,369.3,655.3,365.4,666.1z"/>
	<path fill="#6F4F35" d="M452.4,751.1c-1.9-3.4-1.6-5.7,2.9-6C455,747.4,454,749.4,452.4,751.1z"/>
	<path fill="#6F4F35" d="M451.4,755.1c-0.9-0.2-2.5,0.3-2.3-1c0.3-1.8,2.2-0.7,3.3-1C452.4,754,452.2,754.7,451.4,755.1z"/>
	<path fill="#CADDEA" d="M90.9,555c-1.4,8.4-3.1,16.8-4.3,25.3c-0.5,3.7-2,4.4-5.3,3.4c-7.7-2.5-15.5-5-23.4-7
		c-3.4-0.9-4.8-2.2-4.4-5.7c1.2-11.7,2-23.5,3.4-35.1c1.2-10.5,3.2-20.9,5.3-31.3c0.7-3.7,2.4-4.7,5.8-4.1
		c21.7,3.7,42.6,10.3,62.9,18.6c2.3,0.9,4.4,2,3.6,5c-3.6,13.6-6.6,27.4-9.2,41.5c-0.3-5.3-4.6-3.5-7.1-4.7c-0.5,2-3.1,4.5-1.9,5.7
		c2,2,4.9,5.5,8.7,1.2c-1.2,9.6-2.3,19.2-3.6,28.7c-0.3,2.2-1.9,2-3.4,1.4c-9.2-3.8-18.1-8.3-27.7-11.3c-3.3-1.1-1.9-4.3-1.6-6.6
		c0.9-6.4,2.2-12.7,3.4-19.1C92.4,558.9,93,557,90.9,555z M97.5,551.2c5.8,3.9,11,8.7,17.7,11.4c-2.6-4.1-7-5.8-10.4-8.8
		c-2.1-1.8-3.9-4.1-7.2-3.7c-0.3-2.1,1.5-5-2.8-5.6c-1.6-0.2-2-0.3-3.4,0.8c-3.1,2.5-0.2,4.3,0.3,6.3c0.5,2.2,1.6,0.2,2.5,0
		C95.2,551.4,96.3,551.3,97.5,551.2z"/>
	<path fill="#CADDEA" d="M60.4,664.2c-3.1-9.3-3.7-19.1-4.8-28.7c-2-16.8-2.5-33.7-2.3-50.7c0-3.6,0.7-4.8,4.4-3.7
		c7.8,2.4,15.6,4.5,23.4,6.8c1.6,0.5,2.8,0.6,2.8,3.2c-0.1,2.9,2.2,4,4.5,1.7c1.3-1.3,2.2-1.5,3.8-0.8c8.4,3.5,17.1,6.3,25.3,10.5
		c2.8,1.4,2.9,3,2.7,5.5c-1.4,18.2-1.4,36.5,0,54.7c0.3,4.1,0.1,8.3,0.2,12.5c-4.8-0.3-9.5,1.4-14.3,1
		C90.2,674.7,75.1,670.3,60.4,664.2z M84.5,595.7c-4.3,8.1-6.4,17.1-9.5,25.7c-0.2,0.7-0.2,1.4,0.6,1.6c1,0.3,1.5-0.4,1.8-1.2
		C80.3,613.2,83,604.6,84.5,595.7z M73.9,632.2c4.4,2.5,3.8-2,4-3.6c0.3-2.3-2.7-3.7-4.2-3.8c-1.5,0-3.1,2.2-4.7,3.5
		C71.1,629.1,69.2,634.5,73.9,632.2z M71.8,622.7c-0.5-7.4-3.1-14.3-6.4-21C65.9,609.2,68.8,615.9,71.8,622.7z M64.6,599.3
		c3.9,2.4,2.9-1.6,3.3-3.1c0.8-2.8-2.6-2.1-3.5-3.5c-1.4,1.2-2.7,2.3-4.1,3.5C61.9,597,60.7,601.2,64.6,599.3z M81.7,592.2
		c-3.8-0.4-7.2,0.5-10.4,2.4C75,594.9,78.6,594.5,81.7,592.2z"/>
	<path fill="#CADDEA" d="M184.4,625.2c-1.4,1.4-0.8,3.3-1.1,4.9c-1.9,0.3-3.1,1.5-3.9,3.2c-7-4.5-14-9.1-21-13.6c-0.9-0.6-2-1-3-1.6
		c-8.4-6-17.5-10.8-26.7-15.2c-2.7-1.3-3.4-3-3.1-5.9c2.8-23.5,6.9-46.8,12.6-69.8c1-3.9,2-4.1,5.2-2.5c18,8.7,34.9,19.3,51.4,30.4
		c3,2,2.1,3.9,1.4,6.3C189.9,582.1,185.8,603.4,184.4,625.2z M179.7,611.8c-1.9-0.6-0.5-3.5-3.1-3.4c-3.2,0.1-4.5,2.2-4.6,5
		c-0.1,2.9,2.8,2,4,2.2C178.1,616,178.3,613.4,179.7,611.8z"/>
	<path fill="#CADDEA" d="M128.5,453.2c0.2,1.7-0.7,3.5,0.3,5.3c2.1-0.4,1.2-2.7,2.4-3.5c8.1,3.4,16.2,6.8,24.3,10.2
		c-6.2,14.9-12.5,29.7-17.2,45.1c-1.9,6.1-1.9,6.2-7.7,3.8c-19.2-8.1-39.1-13.8-59.5-17.8c-6.4-1.3-6.3-1.5-4.9-7.9
		c3.1-15,8.5-29.3,13.7-43.7c0.3-0.9,1-1.7,1.6-2.5c4.3,2.1,9,1.6,13.5,2.7C106.1,447.7,117.3,450.4,128.5,453.2z M98.5,479
		c0.3,0.4,0.5,0.9,0.8,1.3c7.7-4.6,15.4-9.2,23.1-13.8c-0.3-0.5-0.6-1-0.9-1.5C113.5,469.2,105.6,473.5,98.5,479z M92.3,488.4
		c4.5,0.8,3.7-3.1,4.2-4.4c0.8-1.9-2.9-2.4-3.8-4.3c-1.6,1.3-4.6,1.9-4.7,4C88,486.4,88.9,489.6,92.3,488.4z M127.1,466.2
		c2.4-0.1,3.2-1.2,3.2-2.5c0-1.2-0.9-2.4-2.2-2.1c-1.4,0.2-2.9,0.8-2.6,2.9C125.7,465.9,126.6,466.3,127.1,466.2z"/>
	<path fill="#CADDEA" d="M167.4,404.4c3.8,3.2,8.4,5.1,12.9,6.8c0.6,2.5-0.9,4.1-2.2,5.8c-6.9,9.9-12.3,20.5-15.1,32.3
		c-0.8,3.5-1.9,3.6-4.9,2.3c-19.8-8.5-40.4-14-61.7-17.3c-2.6-0.4-5.3-0.2-8-0.2c-2.3-0.7-2.9-1.7-2.1-4.3
		c4.7-16.1,12.4-30.6,23.1-43.5c12.4,2.7,24.9,5,36.8,9.7C153.3,398.8,160.3,401.6,167.4,404.4z"/>
	<path fill="#CADDEA" d="M221.4,503.2c-4.3,9.9-10.7,18.7-14.4,28.9c-2.1,5.6-4.3,11.1-6.3,16.8c-1.1,3.1-2.5,3.7-5.3,1.6
		c-15.5-11.9-32.4-21.4-50-29.7c-3.3-1.6-4.1-3.1-3.1-6.8c4.6-16.1,10.6-31.7,18.2-46.7c3.7,1.9,7.5,3.5,11.3,5.1
		c4.6,2,9.4,3.9,12.8,8c-6.3,0.7-12.4,4.6-19,1.2c-0.8-0.4-1.9,0-1.9,1c-0.1,2.8-2.4,4.3-3.6,6.4c-2.2,4.2-0.6,8.1,4.1,8.1
		c7.7,0,10.5,5,12.3,11c0.7,2.5,1.7,1.9,3.2,1.3c2.6-1.2,1.2-2.9,0.7-4.6c-0.7-2.4-0.6-5.1,2.4-5.3c2.7-0.2,5.8,0.3,6.6,3.7
		c0.3,1.2-1.3,3,1.4,3.2c2.2,0.1,3.3-0.9,3.8-3c0.7-2.8,1.3-5.5,1-8.4c-0.2-2.1,0.2-4,2.2-5.2c2.2-1.3,3.3,0.8,4.8,1.6l0,0
		c0,0.3,0.1,0.6,0.1,0.9c0.3,1,0.9,1.7,1.9,2.1c0.1,0.7,0.3,1.4,0.4,2.2c0.1-0.1,0.3-0.1,0.4-0.3c0.3-0.8,0-1.5-0.8-1.9
		c1.3-3,2.5-0.5,3.5,0.1C212.5,497.2,216.3,501.2,221.4,503.2z"/>
	<path fill="#B0C6D3" d="M120.3,738.2c0.8,2.7,1.7,5.3,3.9,7.4c1.3,1.2,0.9,11.7-0.3,12.9c-1.1,1.1-2.5,0.7-3.8,0.4
		c-15-3.3-30.1-6.6-45.1-9.7c-4.4-0.9-6.3-3-5.5-7.5c3.1-19.3-1-37.9-5.5-56.5c-1.1-4.6-0.7-5,3.8-3.8c12.9,3.7,26.2,5.8,39.2,8.8
		c4.4,1,8.7,2.1,13,3.3c2,0.6,3.2,1.8,3.6,4.2c0.9,6.1,1.1,12.2,0.8,18.4c-6.4,0.1-12.5,3.2-19.1,2.2c-1.1-0.2-1.8,0.7-1.8,1.9l0,0
		c-8.5,1.6-8.8,2-8,10.4c0.1,0.8-0.1,1.7,0.1,2.5c1.2,5.4,1.9,11,6,15.2l0,0c2.6,2.2,14.6-0.6,15.7-3.6c0.2-0.4,0.3-1.1,0.1-1.4
		C113.9,738.7,117.9,738.9,120.3,738.2z"/>
	<path fill="#B0C6D3" d="M131.5,729.2c-2.3-2.3-3-10.5-0.9-13.5c1.2-1.6,0.9-2.1,0-4.1c-1.8-3.8-1.9-8.6-1.8-12.9c0-2.4,2.4-1.4,4-0.8
		c11.8,4,22.9,9.7,33.9,15.4c5.4,2.8,10.6,6.1,16,9c3.2,1.7,4.4,4.1,3.7,7.7c-2.1,11.1-4.8,21.9-9.6,32.2c-1.3,2.9-2.9,4-6,4.1
		c-10.2,0.4-20-2.1-30-3.5c-0.7-0.1-1.3-0.4-1.9-0.5c-3.2-0.5-7.5,0.3-8.9-3c-1.6-4-0.9-8.7,1.2-12.5c1.1-1.9,1.4-3.6,1.3-5.6l0,0
		c1.5,0,2.9,0.1,4.4,0c1.8,0,4.1,0.2,4.3-2.1c0.3-2.4-2-2.5-3.7-2.9l0,0c0-1.3-0.6-2-2-2l0,0c0.2-1.8-0.1-3.3-2-4l0,0
		c1.9-3.1,5.9-2.9,8.4-5.1c1.6-1.4,3.1-2.7,2.5-5c-1-3.3-6.5-6-10.9-4.7c3.4-0.3,2.4,4.4,4.6,3.9c2.4-0.6,2.8,0.7,3.2,1.8
		c0.6,1.8-0.9,2.5-2.2,3.4C136.5,726,133.6,727,131.5,729.2z"/>
	<path fill="#CADDEA" d="M243.4,579c-2.3-0.7-4.6-1.5-6.9-2.2c-7.1-5.5-15.3-9.1-22.8-13.9c-13.6-8.9-11.6-5.7-6.6-18.9
		c4.6-12.1,9.7-23.9,16.7-34.9c0.7-1.1,1.2-2.4,2.6-2.9c1.1,2.7,3.8,3.6,5.8,5.3c13.1,10.6,24.6,23.2,39.9,31.1
		c5.4,2.8,5.3,6.4,0.3,10.7c-0.1-0.9,0.3-2-0.9-2.5c-0.2-0.1-0.8,0.5-0.9,0.8c-0.2,1.3,0.7,1.6,1.8,1.7c-0.7,0.6-1.3,1.3-2,1.9
		c-1,6.7-1.2,6.8-7.4,4.3c-1.1-0.4-2.1-1.1-3.2-1.2c-2.3-0.2-4.9-0.7-6.1,2.8c4.5-3.2,8-0.3,11.7,1.2c-0.6,3.3-3.3,4.8-5.6,6.7
		C254.9,573.1,248.9,575.6,243.4,579z M247.4,536.2c-0.3-0.3-0.7-0.7-1-1c-0.8-1.8-2.3-2.1-4-2c-2.3-2-5.6-1.7-8-3.7
		c-1-0.8-2.7-0.2-3.4,1.1c-0.4,0.6-0.4,1.6-0.4,2.4c0,0.7,0.8,1.3,1.4,0.8c3.4-2.7,7,0.6,10.4-0.6c0.8,1.8,2.3,2.2,4,2
		C246.8,535.5,247.1,535.8,247.4,536.2c0.4,0.3,0.7,0.7,1,1c0.3,0.3,0.7,0.7,1,1c1.5,4.1,5.1,2.7,8,3c0.4,0.8,1.2,1,2,1
		c0.2,0.2,0.3,0.3,0.5,0.5c-0.1-0.2-0.3-0.3-0.4-0.5c-0.4-0.8-1.2-1-2-1c-2.2-2.3-5.3-2-8-3c0-0.8-0.2-1.5-1-1.8
		C248.1,536.3,247.8,536.2,247.4,536.2z M251.3,562c-0.4,0.6-0.8,1.3-1.2,1.9c-1.7,0.8-2.2,2.4-2.7,4c-0.4,1.2,0.8,3.5-1.9,3.1
		c-1.7-0.3-2.9-1.6-3.1-3.4c-0.2-1.8-0.4-3.8,0.6-5.4c2.3-3.8,0.1-4.8-3-5.7c-4.6-1.4-4.7,2.3-5.8,4.9c-0.3,0.7-2.3,0.8-0.9,2.1
		c1.2,1,2.3,0.3,2.9-0.7c0.5-0.8,0.8-1.8,1-2.7c0.3-1.9,1.5-2,2.9-1.7c1.8,0.4,1.9,1.4,1.3,3c-0.8,2.2-1.5,4.4-1.1,6.8
		c0.6,3.8,3.8,5.3,6.8,5.5c3.2,0.2,1.9-3,2.2-5c0.2-1.4,0.7-2.9,1.1-4.3c0.4-0.6,0.7-1.3,1.1-1.9c0.3-0.3,0.9-0.5,0.2-0.9
		C251.9,561.4,251.5,561.8,251.3,562z M231.2,562c-0.3-1.9-0.7-3.2-0.5-4.5c0.1-1.3,0.7-2.5,1.1-3.8c0.3-0.8,0.7-1.7-0.2-2.2
		c-0.5-0.2-1.3,0-1.8,0.2c-1.1,0.4-2,1.2-3.1,1.5c-3.5,1.1-1.5,4-1.8,5.9c-0.5,2.8,1.9,1,3.1,1.2C228.8,560.6,229.7,561.3,231.2,562
		z M264,544.1c-1.7-0.1-2.8,0.4-2.5,2.2c0.2,1.1,0.9,1.8,2,1.8c1.9,0,2.6-1.5,2.6-3C266.2,543.7,264.7,544.2,264,544.1z"/>
	<path fill="#B0C6D3" d="M177.5,639.1c3.8,0.9,5.3,3.2,5,7.1c-0.2,2.6,0,5.3,0.1,7.9c-0.4,17.2,1.1,34.3,4.5,51.3
		c0.1,0.6,0.4,1.3,0.3,1.9c-0.2,3.8,1.8,9-0.9,10.9c-2.9,2-5.9-2.9-9-4.5c-14.7-7.5-29.1-15.8-45-20.7c-4.4-1.3-6.2-3.6-6.1-8.2
		c0.1-3.9-0.6-7.9-0.9-11.8c2.5,0.4,4.8-0.5,7.2-1.2c7.9-2,14.5-6.7,21.9-9.8c2.7,1.5,2.8,5.5,6.5,6.8c-0.1-4.1-3.8-5.7-4.6-8.8
		c5.8-4.6,11.5-9.1,15.9-15.2C173.9,642.9,174.9,640.2,177.5,639.1z M167.3,674.5c-1.2-1.4,0.1-4.2-3.1-4.4c-3-0.2-3.1,2.2-3.5,3.9
		c-0.6,2.3,1.8,3.3,3.2,3.5C165.1,677.6,167,676.5,167.3,674.5z"/>
	<path fill="#CADDEA" d="M38.5,572.3c-6.5-1-13-2.3-19.6-2.9c-3.4-0.3-4.5-1.1-4.5-4.6c-0.3-21.1,2.3-41.9,7.4-62.4
		c1-4,2.7-5.7,6.7-5.2c7.5,0.2,7.5,0.2,5,8.1c-3.4-0.5-3.7,2.7-4.4,4.4c-0.6,1.7,2.1,4.1,3.2,4.1c2.6,0,2.3,1.9,3,3.1
		c2.3,4.4,4.5,8.9,6.7,13.3c1.5-3-0.2-4.8-1-6.9c-1.3-3-4-6-4-9c0.1-3.9-1.1-6.6-3.5-9.1c2.7-0.2,3-2.6,3.5-4.3c0.9-3.4,3.1-4,6-3.6
		c1,0.1,2,0.3,2.9,0.5c4.1,1.1,10.1-1.6,11.9,2.6c1.4,3.3-0.8,8.3-1.7,12.5c-3.9,18.5-5.8,37.3-6.5,56.2c-0.1,3.8-0.8,5.9-5.2,4.3
		C42.5,572.7,40.4,572.6,38.5,572.3z M42.6,537.2c-1.1,0.6-1.2,1.7-1.4,2.7c-4.3,3.8-6.4,8.9-9,13.9c4-3.9,7.2-8.4,9.5-13.5
		c1.1-0.8,1.9-1.7,1.8-3.1c0.4-0.3,0.7-0.8,1.1-0.9c2.1-0.6,3.1-1.8,2.3-4c-0.3-0.9-0.7-1.9-2.1-1.5c-2,0.6-2.2,2.2-2.1,4
		C42.7,535.5,42.6,536.4,42.6,537.2z M29.5,560.2c1.3-0.2,2.7,0,2.6-1.7c-0.1-1.9-1.4-3-3.2-3.1c-1.5-0.1-2,1.3-2.1,2.3
		C26.6,559.7,28.1,560.1,29.5,560.2z"/>
	<path fill="#CADDEA" d="M28.6,645.1c-5.1-22.4-12.2-44.5-13.4-67.7c-0.2-3,0.6-3.2,3.1-3.3c6.6-0.3,12.8,2,19.3,2.1
		c0.5,0.2,0.9,0.5,1.4,0.6c9.7,2.4,9.7,2.4,9.7,12.2c-0.1,21.4,1.9,42.6,4.8,63.8c0.4,2.8,0,5.6,1.1,8.3c-2.7-1.5-5.3-3.1-8.1-4.4
		C40,653.5,35.2,647.8,28.6,645.1z"/>
	<path fill="#CADDEA" d="M154.6,662.2c-7.4,3.1-14,7.8-21.9,9.8c-2.4,0.6-4.7,1.5-7.2,1.2c-1.6-14.4-2.4-28.7-2-43.2
		c0.2-6.8,0.8-13.6,0.9-20.4c0.1-3.7,1.6-3.3,3.9-2c8.1,4.5,16.3,8.9,24.4,13.4c0.9,0.5,1.8,0.8,2.7,1.2c5,4.8,11.6,7.3,16.9,11.8
		c1.9,1.6,3.9,3,5.2,5.2c-2.7,1-3.7,3.7-5.1,5.8c-4.4,6.1-10.2,10.6-15.9,15.2c-1.3-1.1-2.4-2.3-1.5-4.2c0.6-1.4,0.3-2.6-1.1-3.4
		c-1-0.5-2-0.3-2.6,0.6c-1,1.4-0.9,2.7,0.4,4C153,658.5,154.2,660.2,154.6,662.2z M149.5,638.1c0,3.1-0.9,6.4,2.5,9.3
		c0.3-3.7-0.1-6.6-1.7-9.3c0.8-1.7,2.3-3.6-0.4-4.9c-1.1-0.5-2.5-0.2-2.9,1.1C146.5,636.4,147.3,637.8,149.5,638.1z M152,649.4
		l-0.2,0.3l0.3,0L152,649.4z"/>
	<path fill="#B0C6D3" d="M236.4,581.2c11.8,6.4,24.4,10.8,37,15.6c-9.2,0.3-18,1.3-26.6,4.7c-17.6,6.9-29.5,19.8-38.3,35.9
		c-2.3,4.2-4.1,8.7-6.1,13.1c-1.1,2.4-1.9,3.2-4,0.6c-2.1-2.7-4.7-5.1-7.6-7.2c-5-3.5-3.4-8.9-3.1-13.7c0.1-1.6,0.8-3.2,0.6-4.9
		c0.1-1.7,0-3.4,1-4.9c2-2.6,3.9-5.3,5.9-7.8c8.6-10.4,18.5-19,30.8-24.8C229.8,585.9,233.5,584,236.4,581.2z"/>
	<path fill="#B0C6D3" d="M50.5,741.1c-5.2-4.7-11.9-7.1-17-11.9c-1-0.9-2-1.8-3-2.6c-3.6-2.7-4.4-5.8-2.7-10.3
		c5.9-15.9,7.1-32.5,4.9-49.5c7.5,2.8,13.5,8.9,21.8,9.4c5.6,2.5,4.9,8.2,5.8,12.7c2.2,10.8,4.6,21.6,5.9,32.6
		c0.8,7-0.5,13.8-1.3,20.7c-0.3,2.8-2,3.2-4.7,2.4C56.9,743.7,54.2,741.1,50.5,741.1z M44,709.2c-0.6,0.3-1.1,0.5-1.7,0.8
		c1.3,2.5,2.5,5.1,3.9,7.6c1.1,2.1,2.1,4.4,0.6,6.5c-2.7,3.7,1.5,3.3,2.6,4.1c2.1,1.6,3.1-1.5,4.8-2c-0.9-1.8,0-5.7-1.8-5.5
		c-4.1,0.5-3.7-2.4-4.7-4.3C46.4,714.1,45.2,711.7,44,709.2z M40.4,687.2c-1.6,0-2.4,1.2-2.4,2.5c0,1.3,0.8,2.5,2.5,2.4
		c1.4-0.1,1.9-0.9,2-2.3C42.6,688.3,42.1,687.3,40.4,687.2z M42.5,705c0-1.5-0.8-2.6-2.3-2.7c-1.4-0.1-2.1,1.1-2.1,2.2
		c-0.1,1.4,0.7,2.6,2.3,2.6C41.7,707.1,42.5,706.4,42.5,705z"/>
	<path fill="#B0C6D3" d="M272.5,553.1c5-4.3,5.1-7.9-0.3-10.7c-15.2-7.9-26.7-20.5-39.9-31.1c-2-1.6-4.8-2.6-5.8-5.3
		c0-0.6,0-1.3,0.1-1.9c2.1-2.6,3.6-2.8,6.5-0.2c10.9,9.7,23,17.9,35.1,26.1c8.8,6,18.3,10.6,27.8,15.3c2.4,1.2,3.1,2.8,2.3,5.2
		c-4.6,14.2-10,28.1-17.1,41.3c-0.6,1.2-1,2.3-3,1.7c-11.4-4-22.8-8.1-33.7-13.4c-0.4-0.2-0.7-0.7-1-1.1c5.4-3.4,11.4-6,16.4-10.1
		c2.2-1.9,5-3.4,5.6-6.7c1.1,0,2.3,0,3.4,0c1.8-0.1,4.1,0.3,4.3-2.1c0.1-1.8,0.2-4.4-2.7-4.9C271.1,554.5,271.7,553.9,272.5,553.1
		L272.5,553.1z"/>
	<path fill="#CADDEA" d="M76.5,433.2c-5.3-1.9-10.8-0.9-16.2-0.7c-3.3,0.2-6.6,0.6-9.9,0.8c-5.1,0.3-5.8-0.3-4.8-5.6
		c1.5-7.7,4.1-15,6.8-22.3c3.1-8.3,7.9-15,16.3-18.4c4.7-1.9,9.7-1.8,14.7-2.1c1,0,2,0,3-0.1c1.3,0,2.6,0,3.9,0
		c3.4,0.6,6.9,0,10.4,1c2.2,0.6,3,0.9,1.3,3.1c-9.5,11.6-16,24.7-20.1,39C81.3,430.9,80.2,433.5,76.5,433.2z"/>
	<path fill="#B0C6D3" d="M123.7,768.4c-1.1,5.5-2.2,11-3.4,16.5c-0.3,1.5-1.3,1.9-3,1.7c-9.1-1.1-18.3,0-27.4-0.6
		c-11-0.7-22-1.7-32.8-4.5c-3.8-1-4.3-2.7-1.9-5.5c5.2-6.1,9.1-12.9,11.5-20.6c1-3.1,2.3-3.4,5.5-2.7c15.4,3.7,30.9,7,46.4,10.4
		C121.4,763.8,124.5,764.1,123.7,768.4z"/>
	<path fill="#CADDEA" d="M28.5,493.2c-3.4,0.3-4.3-0.8-3.1-4.3c3.9-11.8,8.5-23.2,13.5-34.5c0.8-1.9,1.7-3.8,4.3-2.9
		c0.2,0.8,0.4,1.5,1.3,1.8c0,0.7,0,1.3,0.1,2c0.2,1.3,1.1,2.1,2.4,2c0.5,0,1.2-0.8,1.2-1.3c0.2-1.3-0.6-2.2-1.9-2.5
		c-0.6-0.2-1.3-0.1-2-0.2c0.2-0.9-0.1-1.6-0.8-2.2c-2.6-6.6,0.1-10.5,7-10.9c6.5-0.4,12.8,1.1,19.2,1c2.4,0,4.6-0.3,6.4-1.9
		c0.4,2.7-1.2,4.8-2.1,7.1c-5.5,14.3-9.4,29-13.4,43.8c-0.9,3.3-2.2,4.4-5.4,4.1c-4.1-0.4-8.3-0.8-12.4-1c-2.4-0.1-2.2-1.2-1.5-2.9
		c0.7-1.8,2.3-3.3,1.2-7.3C40.8,492.1,35.7,494.5,28.5,493.2z M53.3,466.4c0.2,0.1,0.5,0.2,0.7,0.3c-0.1-0.2-0.2-0.5-0.3-0.7
		c-0.3-1.6-0.4-3.3-2.9-3.5C50.7,464.5,52.1,465.4,53.3,466.4z M43.3,471.4c0.4,0.3,0.7,0.6,1.1,0.9c1.2,3.5-0.2,6.9-0.8,10.7
		c2.6-1.6,2.3-4.2,3.6-5.8c2.8-3.6,1.4-4.9-2.4-5.3c-0.3-0.3-0.6-0.7-1-1c-0.8-1.4-1.7-2.8-2.5-4.1c-0.6-1.1-1.5-1.8-2.8-1.2
		c-0.9,0.4-1,1.2-1,2c0,1.2,0.2,2.2,1.7,2.6C40.5,470.5,41.9,471,43.3,471.4z M56.2,468.3c-0.8,1.3-3.7-0.2-3.2,2.7
		c0.3,1.9,1.2,4,2.8,4.1c1.7,0.2,3.1-1.8,3.3-3.6C59.4,469.8,57.9,468.8,56.2,468.3z M50.7,460.5c-0.6-0.8-0.9-1.4-1.3-1.7
		c-0.6-0.4-0.8,0.2-0.8,0.7c0,0.4,0.3,1,0.6,1.2C49.4,460.9,49.9,460.7,50.7,460.5z"/>
	<path fill="#B0C6D3" d="M11.5,761.1c-4.6-9.9,0.7-17.4,5.9-25c2.1-3,3.4-7.9,6.1-8.7c3.2-1,5.1,4.3,8.1,6.2
		c6.1,3.9,11.4,9.1,18.9,10.6c2.8,2.7,6.5,3.7,10.1,5c2.2,0.8,3.2,1.7,2.3,4.4c-3,8.8-7.7,16.4-14.3,22.9c-1.6,1.6-3.4,1.9-5.5,1.3
		c-7.7-2.2-14.8-5.6-21.4-10C18.3,765.5,14.9,763.3,11.5,761.1z"/>
	<path fill="#CADDEA" d="M236.4,581.2c-3,2.9-6.7,4.8-10.3,6.5c-12.3,5.8-22.3,14.4-30.8,24.8c-2.1,2.5-4,5.2-5.9,7.8
		c1.1-16.5,4.2-32.7,8.8-48.6c0.7-2.4,1.6-4.7,2-7.2c0.7-4.1,2.5-3.9,5.4-1.9c9.6,6.5,19.4,12.7,29.9,17.6
		C235.8,580.5,236.1,580.8,236.4,581.2z"/>
	<path fill="#B0C6D3" d="M170.3,770.9c-7.4,11.8-18.9,14.5-30.9,16.2c-4.2,0.6-8.5,1.4-12.8,1c-1.8-0.2-3.7-0.3-2.6-2.8
		c2.4-5.4,2.8-11.2,4.1-16.8c0.7-3,1.7-3.6,4.7-2.9c10.9,2.6,22.1,4,33.2,5.4C167.3,771.2,168.6,771,170.3,770.9z"/>
	<path fill="#B0C6D3" d="M60.4,664.2c14.7,6.1,29.8,10.5,45.7,11.9c4.9,0.4,9.5-1.3,14.3-1c0.5,3.4,0.9,6.9,1.6,10.2
		c0.6,2.9-0.1,4.3-3.2,3.4c-17-5-34.5-7.5-51.6-11.8C61.3,675.4,60.6,674.2,60.4,664.2z"/>
	<path fill="#B0C6D3" d="M125.5,717.2c0,8.3,0,16.6,0,25.3c-2.6-0.7-2.4-3.3-3.8-4.5c-0.5-2-1.7-1.9-3.4-1.4c-2,0.7-4.2,1.5-6.2,1.3
		c-4.4-0.4-5.9,2.3-5.4,5.6c0.7,4.8-1.8,4.9-5.2,4.5c0,0,0,0,0,0c0.1-2.4-0.9-4.5-1.7-6.6c-3-7.9-3.9-15.4,3.7-21.4c0,0,0,0,0,0
		c6-0.2,12.1,1,17.6-2.6C122.2,716.8,124,717.3,125.5,717.2z"/>
	<path fill="#B0C6D3" d="M221.4,503.2c-5.1-2-8.9-6-13.4-8.9c-1-0.6-2.3-3.2-3.5-0.1l0,0c-1-0.4-1.6-1.1-1.9-2.1
		c0.1-0.1,0.3-0.2,0.3-0.3c-0.1-0.2-0.3-0.4-0.5-0.6c0,0,0,0,0,0c-0.4-5-2.7-8.1-7.7-9.5c-3.4-0.9-6.7-1.8-10.2-1.4
		c-3.3-4.1-8.2-6-12.8-8c-3.8-1.6-7.6-3.2-11.3-5.1c0.4-1.6,0.7-3.3,1.1-4.9c2-1.6,3.9-0.4,5.6,0.4c19.4,9.5,38.2,19.9,55.1,33.6
		c2.3,1.9,2.7,3.5,1.2,5.9C222.7,502.5,222.1,502.8,221.4,503.2z"/>
	<path fill="#B0C6D3" d="M28.6,645.1c6.7,2.7,11.4,8.4,17.7,11.6c2.8,1.4,5.4,2.9,8.1,4.4c0.6,2.8,1.1,5.5,1.7,8.3
		c0.4,1.7,1.1,3.4-1.6,3.8c-4.1-3.9-9.7-4.7-14.3-7.5c-5.8-3.5-10.3-7.5-10.6-14.7C29.5,649,28.9,647,28.6,645.1z"/>
	<path fill="#B0C6D3" d="M187.3,654.1c0.6-2.1-1.2-5.5,1.1-6.3c2.2-0.7,3,3.1,4.8,4.3c5.9,4.3,5.7,9.3,3.1,15.3
		c-1.2,2.7-1.3,5.8-1.9,8.7c-2.3,5.4-2.5,11.5-4.6,17.9C186.3,680.4,187.8,667.2,187.3,654.1z"/>
	<path fill="#B0C6D3" d="M128.5,453.2c-11.2-2.8-22.4-5.5-33.6-8.3c-4.5-1.1-9.2-0.7-13.5-2.7c1.9-3.9,5.4-1.1,8.1-2
		c7.6,2.1,15.7,1.7,23.3,4c4.6,1.4,9.2,2.4,13.8,3.6C129.9,448.6,130.4,450.5,128.5,453.2z"/>
	<path fill="#B0C6D3" d="M155.6,465.2c-8.1-3.4-16.2-6.8-24.3-10.2c-0.2-4.2,1.2-5.6,5.6-4.2c6.6,2.1,12.9,4.7,19.4,7.2
		c2.4,0.9,2.2,2.5,2.2,4.3C156.9,462.6,156.7,464.4,155.6,465.2z"/>
	<path fill="#90A6B5" d="M101.5,748.1c3.4,0.4,5.8,0.3,5.2-4.5c-0.5-3.3,1-6,5.4-5.6c2,0.2,4.2-0.7,6.2-1.3c1.7-0.5,2.9-0.6,3.4,1.4
		c-0.5,0.1-0.9,0.1-1.4,0.2c-2.4,0.7-6.4,0.4-3.1,4.8c0.2,0.3,0.1,1-0.1,1.4C116.1,747.6,104.1,750.3,101.5,748.1z M111.2,740.2
		c-1.1,0.1-2.6,0-2.4,1.7c0.2,2.2,2.2,2.7,3.9,3.1c1.2,0.3,1.8-0.7,1.7-1.8C114.3,741.1,113.2,740.2,111.2,740.2z"/>
	<path fill="#90A6B5" d="M131.5,729.2c2.1-2.2,5-3.1,7.5-4.8c1.3-0.8,2.9-1.6,2.2-3.4c-0.4-1.1-0.8-2.4-3.2-1.8
		c-2.2,0.5-1.2-4.2-4.6-3.9c4.4-1.3,9.9,1.4,10.9,4.7c0.7,2.3-0.9,3.6-2.5,5c-2.5,2.2-6.4,2-8.4,5.1c-0.7,0-1.3,0-2-0.1
		C131.5,729.8,131.5,729.5,131.5,729.2z"/>
	<path fill="#B0C6D3" d="M131.5,730.1c0.7,0,1.3,0,2,0.1c0,0,0,0,0,0c-0.1,1.7,0.1,3.2,2,4c0,0,0,0,0,0c0,1.3,0.6,2,2,2c0,0,0,0,0,0
		c0.5,1.6,1.7,3.7-1.7,2.9c-1.1-0.2-2.2-0.6-3.3-0.9l0,0c-0.2-1-1-1.6-1.8-2.1C130.7,734,129.7,731.8,131.5,730.1z"/>
	<path fill="#90A6B5" d="M125.5,717.2c-1.5,0.1-3.3-0.4-4.3,0.3c-5.5,3.6-11.7,2.4-17.6,2.6c0.1-1.2,0.7-2.1,1.8-1.9
		c6.6,1,12.6-2.1,19.1-2.2C124.7,716.5,125.1,716.8,125.5,717.2z"/>
	<path fill="#90A6B5" d="M90.5,384.9c-1.3,0-2.6,0-3.9,0C87.8,382.2,89.1,382.2,90.5,384.9z"/>
	<path fill="#B0C6D3" d="M132.5,741.2c-2-0.1-2-1.5-2-3c0.7,0,1.3,0,2,0l0,0C132.5,739.1,132.5,740.1,132.5,741.2L132.5,741.2z"/>
	<path fill="#90A6B5" d="M132.5,738.1c-0.7,0-1.3,0-2,0c-0.2-0.7-1.1-1.5,0.1-2.1C131.5,736.5,132.2,737.1,132.5,738.1z"/>
	<path fill="#B0C6D3" d="M338,591.2c3.8-1.9,5.6-5.5,9.6-8c-1.8,10.5-4.1,20-8.7,28.9c-1,1.9-2.1,1.6-3.7,1c-16-5.4-32-10.8-48-16.3
		c-1.9-0.6-3-1.2-1.6-3.9c6.7-13.1,12.7-26.6,16.6-40.9c0.6-2.3,1.6-3.6,4.2-2.5c12.5,5.6,25.9,8.1,39.3,9.9
		c4.9,0.7,4.9,3.1,4.4,6.7c-1.1,8.6-3.4,16.4-11.1,21.6C338.4,588.5,337.6,589.2,338,591.2z M315.6,589.9c0.7-1.1,0.4-1.6-0.1-2.1
		c-4.1-3.7-9.9-4.5-13.6-8.9c-0.9-1.1-2.2-0.6-2.7,0.8c-0.7,1.7,0.1,3.1,1.8,3.3c2,0.2,3.9,0.7,5.6,1.7
		C309.6,586.5,312.6,588.2,315.6,589.9z M330.2,595.1c-2.5,4.1,1.9,3.1,3.5,3.5c2.4,0.6,2.6-2.4,2.9-3.6c0.4-1.3-0.9-3.8-3-3.2
		C332.4,592.1,328.8,591,330.2,595.1z M321.4,591.6c0-1.3-0.3-2.4-1.8-2.3c-1.4,0.1-2.6,1.1-2.6,2.4c0,1.1,1.1,2.1,2.3,2.1
		C320.7,593.9,321.3,592.9,321.4,591.6z"/>
	<path fill="#CADDEA" d="M231.6,485.2c-0.1,1.5,0,2.9-0.9,4.3c-1.2,1.8-1.9,3-4.5,1.1c-17.6-13.2-36.2-24.7-56.1-34
		c-3-1.4-3.5-2.8-2.8-6c2.8-11.9,8.6-22.2,15.1-32.2c1.5-2.3,3.3-2.7,5.4-1.3c6.8,4.4,13.8,8.5,19.7,14.2c0.1,1.3,0,2.7,0.4,3.9
		c3.5,10.6,7.6,21.1,12.6,31.1C223.8,472.7,226.4,479.7,231.6,485.2z"/>
	<path fill="#B0C6D3" d="M310.4,522.2c16.1-0.1,30.6-5.8,45-12.3c0.7,9.6,1.9,19.1,0.1,28.7c-0.1,0.5,0,1,0,1.5
		c-0.8,13.5-3,15-16,12.2c-10-2.2-20-4.7-29.7-8.1c-3.2-1.1-4.5-2.4-3.3-6.1C308.2,532.9,309.1,527.5,310.4,522.2z"/>
	<path fill="#B0C6D3" d="M378.4,577.1c1.1,11.6-2.2,23.1-11.7,32.6c-4.3,4.3-17.7,7.7-22.8,5.3c-1.7-0.8-0.9-1.9-0.5-2.9
		c5-10.6,8.2-21.7,10.1-33.2c0.2-1.1,1.1-2,1.5-3.1c0.5-1.3,2.7-2.2-0.7-3.9c-2.7-1.3,0.4-5.4,0.3-8.2c0-1.8,1.3-2.7,3-2.6
		c6.3,0.3,12.6,0.7,18.9,1.1c2.2,0.1,2,1.9,2,3.4C378.4,568.9,378.4,572.3,378.4,577.1z M364.6,567.8c-2.5-0.3-2.3-3.6-5.1-2.8
		c-2,0.5-3.5,1.5-3,3.7c0.4,1.8,2.3,3.3,3.9,3C361.8,571.3,362.9,569.4,364.6,567.8z"/>
	<path fill="#B0C6D3" d="M240.5,478.8c8.1,8.3,15.5,17.4,24.8,24.5c12.1,9.1,25.2,16.1,40.3,18.6c0,5.4-2.4,10.3-3.4,15.4
		c-0.6,3.3-2.9,2.5-4.9,1.6c-10.2-4.5-19.5-10.4-28.8-16.5c-8.3-5.4-16.1-11.5-24.2-17.3c-1.1-0.8-1.9-1.8-2.9-2.7
		c0-4.8-4.8-7.1-6-11.4C236.4,486.7,239.8,483.3,240.5,478.8z"/>
	<path fill="#B0C6D3" d="M364.2,511.9c4.4,0.8,8.9,1.2,13.1,2.5c5.5,1.7,7.7,6.8,9,11.7c2.6,10.4-1,19.8-5.8,28.9
		c-0.7,1.3-1.5,2.1-3.1,1.9c-6-0.9-12.1-1.7-18.2-1.8c-2.3,0-3-0.9-2.1-3.1c4.3-11.6,4.5-23.6,3.2-35.6
		C359.8,512.5,360.6,511.6,364.2,511.9z"/>
	<path fill="#B0C6D3" d="M231.6,485.2c-5.2-5.5-7.7-12.5-11-19.1c-5-10-9.1-20.5-12.6-31.1c-0.4-1.2-0.3-2.6-0.4-3.9c1,0,2,0,3,0
		c0,0,0,0,0,0c0.2,0.4,0.5,0.7,0.7,1.1c8.1,15.3,17.4,29.8,27.2,44C235.2,478.5,235.4,483.4,231.6,485.2z"/>
	<path fill="#CADDEA" d="M235.4,491.1c1.2,4.2,6,6.5,6,11.4c-2.1-1.6-4.1-3.2-6.1-4.9C232.7,495.4,232.7,493.2,235.4,491.1z"/>
	<path fill="#B0C6D3" d="M179.4,633.3c0.8-1.7,1.9-2.9,3.9-3.2c0,0.6,0.2,1.3,0.1,1.9c-0.1,1.2,0.6,3-0.7,3.5
		C181,636.2,180.3,634.4,179.4,633.3z"/>
	<path fill="#593C1E" d="M517.4,322.8c0.1,2.7,0.1,5.3-1,7.9c-1.6,3.9-6,7-9.2,6.4c-5.2-1.1-5.5-5.7-5.6-9.4
		c-0.1-4.6,1.8-9.1,5.3-12.4c2.1-2,4.8-2.7,7.4-1.7c2.7,1,3,3.7,3,6.3C517.4,320.8,517.4,321.8,517.4,322.8z"/>
	<path fill="#96765B" d="M360.5,377c-1.1,0.2-2.2,0.3-3.1-0.7C358.8,374.7,359.8,374.9,360.5,377z"/>
	<path fill="#90A6B5" d="M211.2,432.2c-0.2-0.4-0.5-0.7-0.7-1.1C210.8,431.5,211,431.8,211.2,432.2z"/>
	<path fill="#593C1E" d="M312.4,173.5c-0.1,11.8,5.6,20.5,15.6,25.8c9.8,5.2,20,5.6,30-0.2c0.9-0.5,1.7-1.1,2.6-1.5
		c2.4-1,4.7-0.7,6.1,1.7c1.4,2.3,0.8,4.5-1.2,6.2c-4.5,3.8-9.9,5.5-15.5,6.5c-18.3,3.3-37.8-6.2-44.4-23.4c-2.2-5.7-2.5-11.6-3-17.6
		c-0.1-1.4,0.5-2.9,1.1-4.3c0.9-2.1,2.7-2.9,4.9-2.5c2.2,0.4,3.5,1.8,3.6,4.1C312.4,170.1,312.4,171.8,312.4,173.5z"/>
	<path fill="#593C1E" d="M317.1,264.4c1.3,0.7,1.5,0.7,1.5,0.8c5.8,13.8,17.8,19.2,31.3,21.8c5.7,1.1,9.8,3.6,12.4,8.6
		c6.2,11.7,16.6,16.5,29.8,17.5c-0.7,0.9-1,1.5-1.3,1.5c-10.8,1-21.3,0-28.1-9.7c-5.1-7.4-11-12.3-20.2-14.2
		c-7.5-1.5-14.9-4.7-19.7-11.6C319.8,274.9,318.4,270.1,317.1,264.4z"/>
	<path fill="#593C1E" d="M454,279.3c5.2,0.4,10-1.3,14.6-3.8c3.2-1.7,5.4-1.1,7.1,1.8c1.7,2.9-0.3,4.8-2.4,6.2
		c-13.5,9-34.7,7.1-45.5-4.7c-8.7-9.5-12.4-21-9.5-34c0.7-3.2,2.6-4.8,5.6-4.2c3.1,0.7,4,3.3,3.2,6.3
		C423.3,261,436.4,280.8,454,279.3z"/>
	<path fill="#93A8B7" d="M97.5,550.1c3.3-0.4,5.1,1.9,7.2,3.7c3.5,2.9,7.9,4.7,10.4,8.8c-6.6-2.7-11.8-7.5-17.7-11.4
		C97.5,550.8,97.5,550.4,97.5,550.1z"/>
	<path fill="#90A6B5" d="M97.5,550.1c0,0.4,0,0.7,0,1.1c-1.1,0.1-2.3,0.2-3.4,0.4c-0.9,0.1-2,2.2-2.5,0c-0.4-2-3.4-3.8-0.3-6.3
		c1.3-1.1,1.7-1,3.4-0.8C99,545.1,97.2,547.9,97.5,550.1z"/>
	<path fill="#90A6B5" d="M84.5,595.7c-1.5,8.9-4.1,17.5-7,26c-0.3,0.8-0.8,1.5-1.8,1.2c-0.8-0.2-0.9-0.9-0.6-1.6
		C78.1,612.7,80.1,603.8,84.5,595.7z"/>
	<path fill="#90A6B5" d="M73.9,632.2c-4.7,2.3-2.9-3.1-4.9-3.9c1.6-1.3,3.2-3.5,4.7-3.5c1.5,0,4.5,1.5,4.2,3.8
		C77.7,630.2,78.4,634.7,73.9,632.2z"/>
	<path fill="#90A6B5" d="M71.8,622.7c-3-6.8-5.9-13.5-6.4-21C68.6,608.4,71.2,615.3,71.8,622.7z"/>
	<path fill="#90A6B5" d="M64.6,599.3c-3.9,1.9-2.7-2.4-4.3-3.1c1.4-1.2,2.7-2.3,4.1-3.5c0.9,1.5,4.3,0.8,3.5,3.5
		C67.5,597.7,68.5,601.8,64.6,599.3z"/>
	<path fill="#93A8B7" d="M81.7,592.2c-3.1,2.3-6.7,2.6-10.4,2.4C74.4,592.7,77.9,591.9,81.7,592.2z"/>
	<path fill="#90A6B5" d="M179.7,611.8c-1.4,1.6-1.6,4.2-3.6,3.8c-1.3-0.2-4.2,0.6-4-2.2c0.1-2.8,1.4-4.9,4.6-5
		C179.2,608.3,177.8,611.2,179.7,611.8z"/>
	<path fill="#90A6B5" d="M98.5,479c7.2-5.5,15.1-9.8,23-14c0.3,0.5,0.6,1,0.9,1.5c-7.7,4.6-15.4,9.2-23.1,13.8
		C99,479.8,98.7,479.4,98.5,479z"/>
	<path fill="#90A6B5" d="M92.3,488.4c-3.4,1.1-4.4-2-4.3-4.7c0.1-2.1,3-2.7,4.7-4c0.9,1.9,4.5,2.4,3.8,4.3
		C96,485.4,96.8,489.2,92.3,488.4z"/>
	<path fill="#90A6B5" d="M127.1,466.2c-0.5,0-1.4-0.3-1.6-1.8c-0.2-2.1,1.3-2.6,2.6-2.9c1.3-0.2,2.2,0.9,2.2,2.1
		C130.3,465.1,129.5,466.1,127.1,466.2z"/>
	<path fill="#93A8B7" d="M184.5,480.3c3.5-0.3,6.8,0.5,10.2,1.4c5,1.4,7.4,4.6,7.7,9.5c-1.5-0.8-2.7-2.8-4.8-1.6
		c-2,1.2-2.4,3.1-2.2,5.2c0.3,2.9-0.3,5.6-1,8.4c-0.5,2.2-1.7,3.1-3.8,3c-2.7-0.2-1.1-2-1.4-3.2c-0.8-3.4-4-4-6.6-3.7
		c-3,0.2-3.1,2.9-2.4,5.3c0.5,1.7,1.9,3.4-0.7,4.6c-1.4,0.6-2.4,1.2-3.2-1.3c-1.8-6-4.6-10.9-12.3-11c-4.7,0-6.3-3.9-4.1-8.1
		c1.1-2.2,3.5-3.6,3.6-6.4c0-1,1.1-1.4,1.9-1C172.1,484.9,178.2,480.9,184.5,480.3z"/>
	<path fill="#B0C6D3" d="M204.5,494.2c0.7,0.5,1,1.1,0.8,1.9c0,0.1-0.2,0.2-0.4,0.3C204.7,495.7,204.6,494.9,204.5,494.2
		C204.4,494.2,204.5,494.2,204.5,494.2z"/>
	<path fill="#93A8B7" d="M202.4,491.2c0.2,0.2,0.3,0.4,0.5,0.6c0,0-0.2,0.2-0.3,0.3C202.5,491.8,202.4,491.5,202.4,491.2z"/>
	<path fill="#90A6B5" d="M103.5,720.2c-7.7,6-6.7,13.5-3.7,21.4c0.8,2.1,1.9,4.2,1.7,6.6c-4.1-4.2-4.8-9.8-6-15.2
		c-0.2-0.8,0-1.6-0.1-2.5C94.7,722.2,95,721.8,103.5,720.2z"/>
	<path fill="#90A6B5" d="M132.5,741.1c0-1,0-2,0-3c1.1,0.3,2.2,0.7,3.3,0.9c3.5,0.8,2.3-1.3,1.7-2.9c1.7,0.4,4,0.5,3.7,2.9
		c-0.3,2.4-2.5,2.1-4.3,2.1C135.4,741.2,134,741.1,132.5,741.1z"/>
	<path fill="#90A6B5" d="M135.5,734.1c-1.8-0.7-2.1-2.3-2-4C135.4,730.9,135.6,732.4,135.5,734.1z"/>
	<path fill="#90A6B5" d="M137.5,736.1c-1.4,0.1-2-0.7-2-2C136.8,734.1,137.4,734.8,137.5,736.1z"/>
	<path fill="#90A6B5" d="M250.6,564.3c-0.4,1.4-0.9,2.8-1.1,4.3c-0.3,2,1,5.2-2.2,5c-3-0.2-6.1-1.7-6.8-5.5c-0.4-2.4,0.3-4.6,1.1-6.8
		c0.6-1.5,0.5-2.6-1.3-3c-1.4-0.3-2.6-0.2-2.9,1.7c-0.2,0.9-0.5,2-1,2.7c-0.7,1-1.7,1.8-2.9,0.7c-1.5-1.3,0.6-1.4,0.9-2.1
		c1-2.6,1.2-6.3,5.8-4.9c3.1,0.9,5.3,1.9,3,5.7c-1,1.6-0.8,3.5-0.6,5.4c0.2,1.8,1.4,3.2,3.1,3.4c2.6,0.4,1.5-1.9,1.9-3.1
		c0.5-1.6,1-3.2,2.7-4C250.3,564,250.4,564.2,250.6,564.3z"/>
	<path fill="#90A6B5" d="M231.2,562c-1.4-0.7-2.4-1.4-3.4-1.6c-1.2-0.3-3.5,1.5-3.1-1.2c0.3-1.9-1.6-4.8,1.8-5.9c1.1-0.3,2-1.1,3.1-1.5
		c0.6-0.2,1.4-0.5,1.8-0.2c0.9,0.5,0.5,1.4,0.2,2.2c-0.4,1.3-1,2.5-1.1,3.8C230.5,558.8,230.9,560.1,231.2,562z"/>
	<path fill="#90A6B5" d="M270.4,555.2c2.9,0.5,2.8,3.1,2.7,4.9c-0.2,2.4-2.5,2-4.3,2.1c-1.1,0-2.3,0-3.4,0c-3.7-1.5-7.2-4.4-11.7-1.2
		c1.3-3.4,3.8-2.9,6.1-2.8c1.1,0.1,2.2,0.8,3.2,1.2C269.2,561.9,269.4,561.8,270.4,555.2z"/>
	<path fill="#90A6B5" d="M242.4,533.2c-3.4,1.2-7.1-2.1-10.4,0.6c-0.6,0.5-1.3-0.1-1.4-0.8c0-0.8,0-1.7,0.4-2.4
		c0.8-1.3,2.4-1.9,3.4-1.1C236.8,531.5,240.1,531.2,242.4,533.2C242.4,533.2,242.4,533.2,242.4,533.2z"/>
	<path fill="#90A6B5" d="M264,544.1c0.7,0.1,2.2-0.4,2.1,1.1c-0.1,1.5-0.7,3-2.6,3c-1.1,0-1.9-0.7-2-1.8
		C261.2,544.6,262.2,544.1,264,544.1z"/>
	<path fill="#93A8B7" d="M257.4,541.2c-2.9-0.3-6.5,1.1-8-3c0,0,0.1-0.1,0.1-0.1C252.1,539.2,255.3,538.9,257.4,541.2L257.4,541.2z"/>
	<path fill="#90A6B5" d="M246.5,535.2c-1.7,0.2-3.2-0.2-4-2c0,0,0,0,0,0C244.1,533.1,245.7,533.4,246.5,535.2L246.5,535.2z"/>
	<path fill="#B0C6D3" d="M272.4,553.2c-1-0.1-2-0.4-1.8-1.7c0.1-0.3,0.7-0.8,0.9-0.8C272.8,551.1,272.3,552.2,272.4,553.2
		C272.5,553.1,272.4,553.2,272.4,553.2z"/>
	<path fill="#90A6B5" d="M250.1,563.9c0.4-0.6,0.8-1.3,1.2-1.9c0.1,0.1,0.3,0.3,0.4,0.4c-0.4,0.6-0.7,1.3-1.1,1.9
		C250.4,564.2,250.3,564,250.1,563.9z"/>
	<path fill="#93A8B7" d="M257.5,541.1c0.8,0,1.6,0.2,2,1l-0.1,0.1C258.6,542.2,257.8,542.1,257.5,541.1
		C257.4,541.2,257.5,541.1,257.5,541.1z"/>
	<path fill="#93A8B7" d="M248.4,536.3c0.8,0.3,1.1,1,1,1.8c0,0-0.1,0.1-0.1,0.1c-0.3-0.3-0.7-0.7-1-1
		C248.4,536.9,248.4,536.6,248.4,536.3z"/>
	<path fill="#90A6B5" d="M248.4,536.3c0,0.3,0,0.6,0,0.9c-0.3-0.3-0.6-0.7-1-1.1c0,0,0,0,0,0C247.8,536.2,248.1,536.3,248.4,536.3z"/>
	<path fill="#90A6B5" d="M251.3,562c0.2-0.2,0.6-0.6,0.6-0.5c0.7,0.4,0.1,0.7-0.2,0.9C251.6,562.3,251.4,562.1,251.3,562z"/>
	<path fill="#93A8B7" d="M259.5,542.2c0.1,0.2,0.3,0.3,0.4,0.5C259.7,542.5,259.6,542.4,259.5,542.2
		C259.4,542.2,259.5,542.2,259.5,542.2z"/>
	<path fill="#90A6B5" d="M246.4,535.2c0.3,0.3,0.7,0.7,1,1c0,0,0,0,0,0C247.1,535.8,246.8,535.5,246.4,535.2
		C246.5,535.2,246.4,535.2,246.4,535.2z"/>
	<path fill="#90A6B5" d="M154.6,662.2c-0.4-2-1.6-3.6-3-5c-1.3-1.3-1.4-2.6-0.4-4c0.6-0.9,1.6-1.1,2.6-0.6c1.4,0.7,1.7,1.9,1.1,3.4
		c-0.8,1.9,0.2,3.1,1.5,4.2c0.8,3.1,4.5,4.8,4.6,8.8C157.4,667.7,157.3,663.7,154.6,662.2z"/>
	<path fill="#90A6B5" d="M167.3,674.5c-0.2,2-2.2,3.1-3.3,2.9c-1.4-0.2-3.8-1.2-3.2-3.5c0.4-1.7,0.4-4.1,3.5-3.9
		C167.3,670.3,166.1,673.2,167.3,674.5z"/>
	<path fill="#90A6B5" d="M33.5,505.2c2.5,2.5,3.6,5.2,3.5,9.1c-0.1,3,2.6,6,4,9c0.9,2,2.6,3.8,1,6.9c-2.2-4.4-4.4-8.9-6.7-13.3
		c-0.6-1.2-0.4-3.1-3-3.1c-1.1,0-3.9-2.4-3.2-4.1C29.8,507.9,30.1,504.7,33.5,505.2C33.5,505.2,33.5,505.2,33.5,505.2z"/>
	<path fill="#93A8B7" d="M41.7,540.3c-2.3,5.1-5.4,9.6-9.5,13.5c2.5-4.9,4.7-10.1,9-13.9C41.4,540.1,41.5,540.2,41.7,540.3z"/>
	<path fill="#90A6B5" d="M42.6,537.2c0-0.8,0-1.7,0-2.5c-0.1-1.8,0-3.3,2.1-4c1.4-0.4,1.8,0.6,2.1,1.5c0.8,2.2-0.2,3.4-2.3,4
		c-0.4,0.1-0.7,0.6-1.1,0.9C43.2,537.2,42.9,537.2,42.6,537.2z"/>
	<path fill="#90A6B5" d="M29.5,560.2c-1.4-0.1-2.9-0.5-2.7-2.5c0.1-1,0.6-2.4,2.1-2.3c1.8,0.1,3.1,1.2,3.2,3.1
		C32.2,560.2,30.8,560,29.5,560.2z"/>
	<path fill="#93A8B7" d="M42.6,537.2c0.3,0,0.5,0,0.8,0c0.1,1.5-0.7,2.4-1.8,3.1c-0.2-0.1-0.3-0.3-0.5-0.4
		C41.4,538.9,41.5,537.8,42.6,537.2z"/>
	<path fill="#90A6B5" d="M149.5,638.1c-2.3-0.3-3.1-1.8-2.5-3.8c0.4-1.3,1.8-1.6,2.9-1.1c2.7,1.3,1.2,3.2,0.4,4.9
		C150,638.2,149.8,638.1,149.5,638.1z"/>
	<path fill="#93A8B7" d="M149.5,638.1c0.2,0,0.5,0,0.7,0c1.6,2.7,2,5.5,1.7,9.3C148.6,644.5,149.6,641.2,149.5,638.1z"/>
	<polygon fill="#90A6B5" points="152,649.4 152.1,649.7 151.8,649.7 	"/>
	<path fill="#90A6B5" d="M44,709.2c1.2,2.4,2.4,4.9,3.7,7.3c1,1.9,0.6,4.8,4.7,4.3c1.8-0.2,0.8,3.7,1.8,5.5c-1.8,0.5-2.8,3.6-4.8,2
		c-1.1-0.8-5.3-0.4-2.6-4.1c1.6-2.1,0.6-4.4-0.6-6.5c-1.3-2.5-2.6-5.1-3.9-7.6C42.9,709.8,43.4,709.5,44,709.2z"/>
	<path fill="#90A6B5" d="M40.4,687.2c1.7,0.1,2.2,1.1,2.1,2.6c0,1.3-0.6,2.2-2,2.3c-1.7,0.1-2.5-1.1-2.5-2.4
		C38,688.4,38.8,687.2,40.4,687.2z"/>
	<path fill="#90A6B5" d="M42.5,705c0,1.4-0.8,2.1-2.2,2.1c-1.6,0-2.4-1.2-2.3-2.6c0.1-1.1,0.7-2.4,2.1-2.2
		C41.7,702.4,42.5,703.4,42.5,705z"/>
	<path fill="#90A6B5" d="M56.2,468.3c1.8,0.5,3.2,1.4,3,3.2c-0.2,1.8-1.6,3.8-3.3,3.6c-1.6-0.2-2.5-2.2-2.8-4.1
		C52.5,468.1,55.4,469.6,56.2,468.3z"/>
	<path fill="#93A8B7" d="M44.7,471.9c3.8,0.4,5.2,1.7,2.4,5.3c-1.2,1.6-1,4.2-3.6,5.8c0.6-3.8,1.9-7.2,0.8-10.7
		C44.5,472.2,44.6,472.1,44.7,471.9z"/>
	<path fill="#93A8B7" d="M43.3,471.4c-1.4-0.4-2.7-1-4.2-1.3c-1.5-0.3-1.7-1.4-1.7-2.6c0-0.8,0.2-1.7,1-2c1.3-0.5,2.2,0.2,2.8,1.2
		c0.8,1.4,1.7,2.8,2.5,4.1C43.6,471.1,43.4,471.3,43.3,471.4z"/>
	<path fill="#90A6B5" d="M44.5,453.2c0.7,0.1,1.3,0,2,0.2c1.3,0.3,2.1,1.2,1.9,2.5c-0.1,0.5-0.8,1.2-1.2,1.3c-1.3,0.1-2.1-0.7-2.4-2
		C44.5,454.5,44.6,453.8,44.5,453.2L44.5,453.2z"/>
	<path fill="#90A6B5" d="M53.3,466.4c-1.3-1-2.6-1.9-2.5-3.9c2.5,0.2,2.6,2,2.9,3.5C53.6,466.1,53.5,466.2,53.3,466.4z"/>
	<path fill="#90A6B5" d="M50.7,460.5c-0.8,0.1-1.3,0.4-1.5,0.2c-0.3-0.3-0.6-0.8-0.6-1.2c0-0.4,0.2-1.1,0.8-0.7
		C49.9,459.1,50.1,459.7,50.7,460.5z"/>
	<path fill="#90A6B5" d="M44.5,453.2c-0.9-0.3-1.1-1-1.3-1.8c0.2-0.1,0.3-0.3,0.5-0.4C44.4,451.6,44.7,452.3,44.5,453.2
		C44.5,453.2,44.5,453.2,44.5,453.2z"/>
	<path fill="#93A8B7" d="M43.8,470.9c0.3,0.3,0.6,0.7,1,1c-0.1,0.1-0.3,0.3-0.4,0.4c-0.4-0.3-0.7-0.6-1.1-0.9
		C43.4,471.3,43.6,471.1,43.8,470.9z"/>
	<path fill="#90A6B5" d="M53.7,466c0.1,0.2,0.2,0.5,0.3,0.7c-0.2-0.1-0.5-0.2-0.7-0.3C53.5,466.2,53.6,466.1,53.7,466z"/>
	<path fill="#B0C6D3" d="M111.2,740.2c2,0,3.1,0.9,3.2,2.9c0.1,1.1-0.5,2.1-1.7,1.8c-1.7-0.4-3.7-0.9-3.9-3.1
		C108.6,740.1,110.1,740.2,111.2,740.2z"/>
	<path fill="#90A6B5" d="M315.6,589.9c-3-1.7-6-3.5-9.1-5.2c-1.7-1-3.6-1.5-5.6-1.7c-1.7-0.2-2.4-1.6-1.8-3.3c0.5-1.4,1.8-1.9,2.7-0.8
		c3.6,4.4,9.5,5.3,13.6,8.9C316,588.3,316.3,588.8,315.6,589.9z"/>
	<path fill="#90A6B5" d="M330.2,595.1c-1.4-4.1,2.1-3,3.4-3.4c2.2-0.6,3.4,1.9,3,3.2c-0.4,1.3-0.5,4.2-2.9,3.6
		C332.1,598.2,327.7,599.2,330.2,595.1z"/>
	<path fill="#90A6B5" d="M321.4,591.6c-0.2,1.2-0.7,2.3-2.1,2.2c-1.2,0-2.3-1-2.3-2.1c0-1.3,1.1-2.3,2.6-2.4
		C321.2,589.2,321.5,590.3,321.4,591.6z"/>
	<path fill="#90A6B5" d="M364.6,567.8c-1.7,1.6-2.8,3.5-4.2,3.8c-1.5,0.3-3.4-1.1-3.9-3c-0.5-2.1,0.9-3.1,3-3.7
		C362.3,564.2,362.1,567.5,364.6,567.8z"/>
</g>
</svg>
