<?xml version="1.0" encoding="utf-8"?>
<!-- Generator: Adobe Illustrator 26.0.3, SVG Export Plug-In . SVG Version: 6.00 Build 0)  -->
<svg version="1.1" id="Capa_1" xmlns="http://www.w3.org/2000/svg" xmlns:xlink="http://www.w3.org/1999/xlink" x="0px" y="0px"
	 viewBox="0 0 564.4 884" style="enable-background:new 0 0 564.4 884;" xml:space="preserve">

<g>
	<path fill="#96775C" d="M268.1,733.4c0.3,1.4,0.4,2.8-0.2,4.2c-3.4,2.8-1.3,6.8-1.8,10.2c-1.3,8.4-1.2,17.1,0,25.6
		c0.4,1.4,0.4,2.8-0.1,4.2c-2.8,2.5-1.9,5.2-0.5,8c0.3,4,0.2,8-0.4,12c-1.5,0.3-1.6,1.3-1.7,2.6c-1,16.7-2.4,33.4-2,50.2
		c0,1.4-0.4,3,1,4.2c0,1-0.1,2-0.1,3c-3,4.5-2.5,9.3-0.7,14c0.1,0.8-0.1,1.5-0.8,2c-1.2-0.1-2.6-0.4-3.3,0.6c-3,4-7.2,3.3-11.4,3.3
		c-41.1,0-82.2,0.1-123.3,0.1c-6.2-1.1-10-5.3-12.2-10.6c-3.6-9-3.2-17.9,2-26.3c6.5-10.5,16.1-17.6,26.5-23.7
		c3-1.8,4.1-3.1,3.5-6.9c-5.8-33.8-11.1-67.6-15.8-101.5c-3.6-25.9-3.8-51.7-1.3-77.6c2.4-24.5,5.5-48.9,10.8-73
		c0.2-0.8,0.5-1.6,0.7-2.4c5,1.2,6-2.6,7.3-6c0.6,1.4,1.8,2.3,2.1,3.9c0.9,4.2,4,6.5,7.9,5.9c3.8-0.6,6.2-4.2,5.9-8
		c-0.6-8.5,2.2-16.7,1.1-25.2c-0.3-2.6,0.5-4.7,3.2-5.5c3.2-0.9,3.9-3.2,3.8-6.1c-0.2-5.8,0.8-11.5,1.7-17.3c0.3-2.1-0.2-4-1.7-4.9
		c-2-1.2-2.7-3.2-4-4.8c1-2.7,2-5.3,3.1-8c1.6-0.1,3.5,2,4.6-0.7c1-2.5-2-2-2.7-3.3c0-0.8,0.1-1.6,0.9-2c1.3-0.3,2.9,1.6,3.7,0.2
		c2.1-3.8,6.9-2.4,9.4-5.2c-0.7,3.7-2.4,7.1-3.6,10.7c-3.9,12.3-7.6,24.6-9.8,37.4c-2.3,13.2-4.1,26.3-2.7,39.7
		c1.3,13.2,2.6,26.3,7.9,38.8c5.9,13.9,13.8,26.2,25,36.4c10.4,9.4,22.4,16.2,35.6,20.9c6.6,2.3,13.4,4,20.1,4.9
		c15.1,1.9,30.3,3.6,45.6,1.3c9.6-1.4,19.1-3,28.5-5.6c9.6-2.6,17.7-7.9,26.3-12.4l0,0c-0.3,1.6-1.1,3.4-0.7,4.8
		c1.1,3.9-1,4.1-3.9,4.2c-9.5,0.3-14.7,7.4-12.5,16.9c0.7,3.2-1.1,5-3.1,6.8c-1.5,1.3-3.3,2.7-5.3,2c-2.4-0.8-1-3.1-1.4-4.8
		c0.8-1.7,3-2.9,1.2-5.2c-1.8-2.3-3.7-1.4-5.8-0.7c-3.9,1.4-7.8,2.7-11.7,4c-8.4,2.9-17.2,3.3-25.9,3.7c-8.6,0.4-17.5,0.4-25.9-2.6
		c1.2-1.9,3.5-1.8,5.2-2.7c0.7-0.4,1.7-0.7,1.4-1.8c-0.2-0.5-0.8-1.1-1.3-1.3c-2.5-0.9-4.5,0.4-6.6,1.4c-2.5,1.2-0.4,2.9-0.6,4.3
		c-5.4-1.6-10.9-2.9-16.2-4.7c-2.6-0.9-5-2-6.3,1.2c-1.3,3.3,1.7,4.4,4,5.2c7.8,2.8,15.6,5.6,24,6.4c3.2,0.3,5.1,1.6,4.6,5
		c-1,7.4-0.8,14.9-1.4,22.3c-0.1,1.8,0,3.2,1.1,4.6c0.4,1.7,0.4,3.5-0.2,5.2c-2.9,5.1-1.5,10.5-0.8,15.8c0,0.7,0,1.4,0,2.2
		c-0.1,0.1-0.2,0.2-0.2,0.2C267.9,733,268,733.2,268.1,733.4z"/>
	<path fill="#F0D8B0" d="M177.4,353.6c-8.3-5.2-17-9.5-25.2-14.9c-16.7-11-31-24.2-43-40.3C98.9,284.7,91.5,270,89,253
		c-1.2-8.1-1.8-16.5,1-24.2c3.5-9.6,4.3-19.4,5.1-29.3c0.8-9.7,3.4-18.9,6.2-28.1c0.6-1.9,1.3-3.8,1.1-5.8c1.1-0.2,1.6-1.1,2-2.1
		c6.2-15,14.4-28.8,24.9-41.2c1.2-1.4,1.3-3,1.3-4.7c2.4,0.4,4.7-1.1,5.8-2.4c5-6.1,10.7-11.5,16.9-16.3
		c8.9-6.8,17.4-14.2,28.1-18.3c0.7-0.2,1.7,0,2-1l-0.1,0.1c9.5-0.1,18.9-0.3,28.3,1.6c25,5.1,45.5,18.1,63.3,35.8
		c2.3,2.2,3.4,2.5,5.7,0c17.8-18.9,39.9-30.2,65-35.6c13.1-2.8,26.4-2.5,39.7-0.8c0,0-0.1-0.1-0.1-0.1c0.3,0.3,0.6,0.6,0.9,1
		c0.8,0.1,1.7,0.2,2.4,0.5c8,3.2,13.5,10.1,20.8,14.5c8.1,4.9,13.4,13,20.2,19.5c3.8,3.6,5.5,9.6,11.6,10.7c-0.3,2.6,0.5,4.7,2,6.9
		c7.3,10.9,13.4,22.4,18,34.7c1.2,3.2,1.4,6.8,4,9.4c1.5,8.6,3.7,17.2,4.3,25.9c0.6,8.6,3.8,16.2,6.5,24.1
		c4.8,14.1,2.4,28.5-1.5,42.6c-4.7,17-14.5,31-26.2,44c-14.2,15.8-31.1,27.6-50,36.9c-1.8,0.9-3.5,1.9-4.4,3.8
		c-1.4-0.6-2.8-0.5-4.3,0.1c-6.8,2.9-13.6,5.7-20.4,8.5c-2.3,0.7-4.7,1.4-7,2.2c-0.4,0.3-0.9,0.5-1.3,0.8c-1.4-0.3-2.5,0.2-3.6,1
		c-13.2,3-26.5,6.1-40,7.6c-24.7,2.7-49.4,2.8-74-1.1c-11.2-1.8-21.9-5.3-33-7.6c-6.1-2.4-12.2-4.9-18.4-7
		C187,357.6,182.7,354.3,177.4,353.6z M278.3,228.6c-7.5-0.7-14.8,1.2-22.2,2c-4.2,0.4-8.6,1.4-10.8,6c-15,4-28.7,10.4-40.7,20.3
		c-0.2-0.2-0.6-0.4-0.7-0.7c-5.4-8.9-10.7-18.1-23.4-16.8c-0.4,0-0.8-0.6-1.1-0.9c3.8-0.3,7.6-0.5,11.4-1c16-1.8,32.1-3.5,47.3-9
		c12.2-4.4,22.6-11.2,26-24.7c4.4-17.7,2.1-34.8-7.6-50.3c-17.8-28.5-54.9-39.9-85-28.5c-35.2,13.4-56.4,39.5-62.7,76.9
		c-2.1,12.5,0,24.1,12.2,31.3c6,3.5,12.8,4.5,19.6,5.4c-1.3,1.6-3.1,0.7-4.7,1c-4,0.8-8.4-0.5-12.1,0.6c-8.3,2.5-14.5,8.3-17.4,16.4
		c-1.4,4-3.1,8.8-0.5,13.4c7,12.3,17.6,18.7,31.7,19.6c1.3,0.1,2.6,0.4,3.9,0.8c6.1,2.2,12.4,1.9,18.8,1.4c3.7-0.3,7.1-1.9,10.6-2.1
		c8.1-0.4,14.7-3.6,20.4-9c-0.5,3.8-0.5,7.6,0.5,11.2c2.8,9.9,8.2,18.4,14.7,26.3c7.2,8.7,16.6,14.7,25.4,21.5
		c25.1,19.6,52.8,23.4,82.2,12.4c18.8-7,34.1-19.7,47.8-34.3c8.7-9.3,15.2-19.8,15.2-33.1c0.5,0,1.1-0.2,1.5,0
		c9.5,6.2,20.5,5,30.9,6.8c5.3,0.9,10.5-1,15.7-1.8c10.2-1.6,20.2-3.4,27.7-11.3c3.5-3.6,7.8-6.9,7.5-12.7
		c-0.7-12.9-10.1-23.6-23-26.1c-1.1-0.2-2.3-0.1-3.1-1.3c1.2-0.5,2.4-1,3.7-1.5c13.6-4.9,20.8-16.9,19.4-31.2
		c-1.8-17.2-7.6-32.7-18.3-46.2c-19.3-24.5-43.1-40.6-76.1-36.9c-34,3.8-66,28.5-63.3,72.7c0.9,15.6,8.6,27.1,23.5,32.9
		c5.9,2.3,12,3.9,18.1,5.5c11.1,3,22.7,3.2,33.9,5.4c-3.8,6.2-10.4,10.1-13.8,16.7c-12.3-9.8-26.3-16.1-41.6-19.3
		c-1.5-2.6-4.1-3.7-6.9-4.5c-7.6-2.1-15.4-3.2-23.4-3.3c-0.3,0-0.7,0-1,0c-1.7,0-3.3-0.1-5-0.1C281.7,228.6,280,228.6,278.3,228.6z
		 M382.6,112.6c3.7-0.2,7.1,0,8.7-3.5c1.6-3.5,0-6.6-2.5-9c-9.4-8.6-20.6-11.8-33.1-10.7c-3.7,0.3-7.2,2-7.9,6.4
		c-0.6,4.1,2.2,6.8,5.3,8.2C362.6,108.4,372.5,111.5,382.6,112.6z M181.8,112.5c10.6-1.1,20.7-4.2,30.3-8.8c3.4-1.6,5.5-4.4,4.7-8.4
		c-0.8-3.8-4-4.8-7.3-5.8c-4.1-1.2-8.1-0.2-11.9,0.5c-8,1.5-15.9,3.8-21.6,10.2c-2.1,2.4-3.9,5.2-2.3,8.6
		C175.3,112.2,178.5,112.5,181.8,112.5z"/>
	<path fill="#99785E" d="M465.2,177.6c-2.6-2.6-2.8-6.2-4-9.4c-4.6-12.3-10.7-23.8-18-34.7c-1.5-2.2-2.3-4.3-2-6.9
		c1.2-3.9,2.6-7.8,3.5-11.9c2.8-12.6,3.8-25.4,0.1-38c-6.5-22-30.8-35.5-53.4-29.6c-13.3,3.5-25.1,10.2-36.3,19.1
		c10.7,4.7,21,8.3,30.2,14.4c-13.3-1.7-26.6-2-39.7,0.8c-25.1,5.4-47.2,16.7-65,35.6c-2.3,2.5-3.4,2.2-5.7,0
		c-17.8-17.7-38.3-30.7-63.3-35.8c-9.4-1.9-18.8-1.7-28.3-1.6c9.3-6.2,20-9.5,30.3-13.6c0.8-0.3,2.2-0.1,2.4-1.4
		c0.2-1.2-1-1.5-1.8-2.1c-8.6-6.4-18-11.5-28.2-14.6c-26-7.9-51.5,7-57.4,33.2c-2.8,12.3-1.1,24.4,1.9,36.4c0,1.7-0.1,3.3-1.3,4.7
		c-10.5,12.4-18.6,26.3-24.9,41.2c-0.4,0.9-0.8,1.8-2,2.1c-12-24.1-18.4-49.5-17.9-76.5c1-47.2,40.1-85.5,87.3-85.7
		c37-0.2,62.7,17.8,79.4,49.9c1.4,2.8,2.9,3.4,5.8,3.1c19.9-2.1,39.9-1.9,59.8,0.6c4.3,0.5,5.1-1.5,6.5-4.2
		c12.2-24,30.8-40.6,57.1-47c41.4-10,81.9,8.9,100.9,47.6c8.4,17.1,10.1,35.3,8,54C486.4,132.6,478.5,156,465.2,177.6z"/>
	<path fill="#98785E" d="M177.4,353.6c5.3,0.7,9.6,4,14.6,5.8c6.2,2.2,12.2,4.7,18.4,7c2.7,4.2,2.6,8.7,0.9,13.2
		c-2,5.5-3.4,11.4-4.3,16.9c-1.9,11.1-6,21.3-9.5,31.8c-2.2,6.8-4.3,13.7-6.8,20.4c-2.5,6.6-4.6,13.3-7.2,19.9
		c-2.5,2.8-7.2,1.4-9.4,5.2c-0.8,1.4-2.4-0.5-3.7-0.2c2.3-6.2,4.6-12.4,6.9-18.6c3.2-8.6,6.5-17.1,8-26.1c0.4-2.1,1.3-5.2-1.9-5.9
		c-3-0.7-3.7,2.1-4.4,4.4c-0.2,0.8-0.4,1.6-0.6,2.4c-2.1,8.6-4.8,16.9-8.1,25.1c-11.8,29-24.5,57.7-32.1,88.2
		c-0.9,3.7-3.2,7.3-1.7,11.4c-2.8,1.4-5.6,2.8-8.5,4.1c-16,6.9-30.4,3-43.3-7.4c-14.4-11.7-25-26.7-34.1-42.7
		c-9.7-16.8-18.2-34-24.6-52.3c-1-2.9-2.9-4.8-5.2-6.5c-3.8-2.8-7.2-6-10.3-9.4c-2.8-3-4.8-6.4-6-10.3C1.6,420.8,6.6,413,16,411.8
		c2-0.2,3.9-0.2,6.3-0.3c-3.9-9.5-8.2-19.2,1.3-27.2c8.9-7.5,17.1-2.1,25,3c1.2-1.7,0.3-3.1,0.2-4.5c-0.4-4.4,0-8.7,2.3-12.5
		c3.6-6,9.5-7.7,15.9-5c7.8,3.3,12.2,10.1,17.2,16.2c0.3,1.3,1,2.3,2,3.2c0,0.3,0.1,0.5,0.3,0.8c0.8,2.2,1.7,4.4,3.6,6.2
		c2.5-3.3,4.7-6.3,7-9.2c1.1-0.7,2.1-1.5,3.2-2.2c3-1,6-1.2,9.1-1.3c8.5,2.2,10.9,8.9,11.8,16.5c0.9,7.7-0.2,15.2-2.2,22.6
		c-0.6,2.1-0.9,4.2-0.6,6.3c-1.9,2.1-1.8,4-0.3,6.6c5.8,9.6,12.1,18.9,16.7,29.3c2.2,5.1,5,10,7.8,14.9c0.6,1.1,1.8,2.7,3.6,1.7
		c1.6-0.9,1.9-2.2,1.4-4.2c-1.1-4.4-3.1-8.4-5-12.4c-5.8-12.5-13.5-23.9-20.3-35.8C140,400.4,154.7,373.8,177.4,353.6z M72.9,408.7
		c-17.3,0-29.1,10.1-31.3,25.4c-0.5,3.4-0.6,7,0.8,10.3c4.2,10.3,17.4,11.9,25.4,2.8c3.1-3.5,6.3-5.6,10.8-6.9
		c11.3-3.2,16.7-13.8,11.8-22.6C86.3,410.3,78.9,409.1,72.9,408.7z M72.5,385.8c-0.1-5.9-4.1-11.1-8.5-11.1c-4.3,0-7.5,4.1-7.5,9.5
		c0.1,6.2,3.8,10.6,8.9,10.5C70,394.6,72.6,391.5,72.5,385.8z M28.2,401.1c0,5.7,4.7,11.1,9.9,11.3c3.9,0.1,7.1-3.4,7.2-7.9
		c0.1-5.7-4.6-10.8-10.1-11C30.7,393.4,28.3,396,28.2,401.1z M22.9,437.5c4.5,0.3,8-2.6,8.3-6.7c0.2-4.9-5.3-10.8-10.4-11
		c-3.7-0.1-7.7,3.2-8,6.8C12.3,431.9,17.1,437.1,22.9,437.5z M110.3,396c0-4.9-2.8-8.4-6.7-8.3c-4.8,0.1-9,5.6-9,11.4
		c0,4.9,2.8,8.3,6.8,8.3C106.1,407.4,110.3,402,110.3,396z"/>
	<path fill="#98785E" d="M369.3,363.5c6.8-2.8,13.6-5.6,20.4-8.5c1.5-0.6,2.8-0.7,4.3-0.1c14.8,13.5,25.2,30.5,36.7,46.6
		c5.5,7.7,10.3,15.9,16.7,23c-4.6,4.4-7.5,10.1-10.8,15.4c-6.2,9.8-11.3,20.3-16.1,30.9c-1.2,2.6-1.1,5.1,1.7,6.4
		c2.9,1.3,3.7-1.4,4.5-3.3c6.3-15,14.3-29.2,23.2-42.8c1.8-2.8,1.1-4.5-0.5-6.5c1.6-2.1,0.2-4.2-0.3-6.2c-2-8.3-3.2-16.6-1.8-25.2
		c1-6.2,3.3-11.6,10-13.7c6.6-2.1,11.6,0.6,16,5.3c4.9,5.3,5.1,5.4,9.3-0.8c3.7-5.4,7.4-10.7,12.5-14.9c4.9-4,10.3-7.2,16.9-3.7
		c6.4,3.4,8,9.4,7.7,16.1c-0.1,1.5-1.3,3.7,0.4,4.5c1.5,0.8,2.9-1.1,4.4-1.8c1.8-0.9,3.5-2,5.4-2.6c11.4-3.5,20.8,4.1,20.2,16.1
		c-0.2,4.7-2.1,9-4,13.2c1.5,1.1,3.1,0.6,4.5,0.7c11.5,0.7,17.1,9.8,12.6,20.4c-1.9,4.5-4.6,8.9-8.7,11.4
		c-10.3,6.5-13.4,17.1-17.9,27.3c-12.2,27.6-25.7,54.5-47.9,75.9c-5.6,5.4-11.8,9.6-19.1,12.4c-11.7,4.5-22.8,3.1-33.6-2.9
		c-1.4-0.8-2.6-2.1-4.5-2c0.7-1.2,1-2.3,0.6-3.7c-1.3-4.3-2.3-8.6-3.6-12.9c-5.2-17.6-10.9-35.1-18-52c-8.2-19.7-17.1-39.1-22-60.1
		c5,0,1.8-3.1,1.9-5c0.3,0,0.7,0,1,0c0.7,0,1.3,0,2,0c0,2.3-0.4,4.6,2.5,5.9c2.1,0.9,2.5,3,2.5,5.1c0,2.5,0,5,0,7.5
		c0,2.1,0.8,4,3.2,3.3c5.3-1.6,6.5,1.6,7,5.6c0.7,5.6,0.9,10.8,9.3,10.4c2.5-0.1,5.2,1,6.8-1.2c1.6-2.3,4.3-5,1-8.3
		c-0.9-0.9-1.6-2.3-0.9-3.7c1.2-2.7,0.2-3.7-2.5-3.6c-3.3,0.1-4.4-2.2-4.6-4.8c-0.3-2.6-0.3-5.2,0.5-7.9c0.9-2.8-0.3-4.5-3.6-4.2
		c-6,0.6-7.3-0.6-5.9-6.7c0.9-4.2,0.6-8.3,0.8-12.4c0.1-1.5,0-3.4-1.7-3.7c-3-0.5-5.5-2.4-8.3-3.2c-4.9-1.3-6.7,0.1-6.9,5.2
		c-0.1,2.6-0.5,4.8-3.7,4.6c-2.9-0.3-7.2,1.8-7.3-3.9c0-1.7-0.9-3-2.4-3.5c-1.8-0.7-2.6,1.1-3.6,2c-3.9,3.6-4.2,8.9-6,13.5
		c-2.3-2-2.3-4.7-1.7-7.3c0.3-1.3,0.8-2.5,0.5-3.9c-1.2-5.4-0.5-10.1,5-13c1.6-0.8,2.8-2,2-4c-0.7-1.6-1.9-2.7-3.8-2.7
		c-1.1,0-2.4,0-3.4,0.3c-3.2,1.1-6.1,1.2-7.3-2.6c-1.7-5.2,0-11.1,3.7-12.1C368.4,370.1,369.9,367.6,369.3,363.5z M526.4,437.9
		c0.1-18.3-15.8-31.8-33.9-28.9c-6.9,1.1-13,3.2-15.9,10.2c-3.3,8.3,1.7,17.6,11.9,20.6c4.9,1.5,8.3,3.9,11.7,7.6
		c4.6,5.1,10.7,7.2,17.6,4.7C523.6,450.1,526.4,445.2,526.4,437.9z M532.8,393.5c-5.3,0-10.2,5.1-10.4,10.7c-0.1,4.4,3,8.1,7,8.2
		c5.2,0.1,10.8-5.7,10.7-11.1C540.1,396.9,536.9,393.5,532.8,393.5z M511.4,384.2c0-5.5-3.2-9.6-7.3-9.5c-4.6,0.1-8.8,5.3-8.8,11
		c-0.1,5.8,2.6,9.1,7.5,9.1C508,394.8,511.4,390.5,511.4,384.2z M544.3,437.6c5.4,0.1,10.7-5,10.8-10.4c0.1-3.9-3.2-7.2-7.3-7.4
		c-4.9-0.2-10.9,5.1-11,9.8C536.6,434.4,539.6,437.5,544.3,437.6z M457.4,396c0.2,5.1,2.2,8.9,6.6,11.1c2.4,1.2,4.9,0.6,6.8-1.5
		c3.5-4,2.4-8.3,0.6-12.6c-0.1-0.2-0.1-0.3-0.2-0.5c-2.1-3.1-4.6-5.5-8.6-4.4C458.7,389.2,457.4,392.4,457.4,396z"/>
	<path fill="#96775C" d="M369.3,363.5c0.6,4.1-0.9,6.6-5.1,7.7c-3.7,1-5.5,6.9-3.7,12.1c1.3,3.8,4.1,3.7,7.3,2.6
		c1.1-0.4,2.3-0.3,3.4-0.3c1.9,0,3.1,1.1,3.8,2.7c0.8,2-0.4,3.2-2,4c-5.4,2.9-6.1,7.6-5,13c0.3,1.4-0.2,2.6-0.5,3.9
		c-0.6,2.7-0.6,5.3,1.7,7.3c0,2.1-0.2,4.1,1,6c2.6,2.7,5.4,5.3,3.1,9.7c-0.6,1.2,0.7,2.4,1.5,3.5c4.5,6,6.6,13.1,8.3,20.2
		c1.4,5.9,2.2,6.6,9.1,5.5c5.2,10.4,9.9,21.1,13.9,32.1c-5.1,1.6-6.4,4.2-3.9,8.6c0.9,1.6,0.2,2.3-0.6,3.5
		c-2.8,4.4-2.9,10.1-0.6,13.6c2.8,4.2,2.7,8.2,3.1,12.5c0.5,6,2.6,11.9,0,17.9c-0.2,0.4-0.1,1,0.1,1.5c0.4,1.6,0.9,3.2,3,3.4
		c2.1,0.2,2.8-1.1,3.7-2.6c1.6-2.5,0.1-4.8-0.3-7.2c-0.3-1.8,0.5-3.8,1.9-2.3c2.8,3.1,6.7,1.5,9.6,3.1c0.7,1.4,1.9,2.5,2,4.3
		c0.3,3.5,2.2,5.9,5.8,6.6c2.5,9,4,18.3,5.3,27.6c1.3,9.9,2.6,19.9,3.4,29.9c0.8,9.7,1.4,19.4,1.8,29.2c0.5,12.4-0.1,24.8-0.3,37.2
		c-0.3,14-2.7,27.9-4.4,41.8c-1.6,12.6-3.4,25.2-5.4,37.7c-2.2,13.3-3.3,26.8-6.6,40c-1,4.3-1,8.8-1.9,13.2c-0.4,2,0.7,2.1,1.9,2.8
		c6.3,3.6,12,8,17.6,12.4c3.3,2.6,6.1,5.7,8.2,9.2c-0.5,0.4-1.5,0.7-1.6,1.1c-0.6,3.7-2,6.6-5.6,8.5c-2,1.1-0.8,3,0.5,4.2
		c2.7,2.6,6.3,1.1,7.1-3.2c0.4-2.2,1-3.7,3.2-4.5c3.6,6.8,4,13.8,1.4,21.1c-2.9,1.6-5.2,3.6-4.7,7.3c0,0-0.3,0.3-0.3,0.2
		c-3.7-0.2-5.6,1.8-6.4,5.2c-0.3,0.1-0.6,0.2-0.9,0.2c-5.7,0-11.4,0-17.1,0c3.2-4.4,8.2-3.3,12.5-3.9c4.4-0.6,6.5-2.5,5.1-6.4
		c-1.3-3.9-1.8-7.7-1.7-11.7c0.1-1.5-0.1-3.2-1.8-3.7c-7-1.8-8.7-8.7-12.6-13.4c-1.7-2.1-3.2-5.2-2.4-7.9c1.4-5.1-1.5-8.5-4-12
		c-1.3-1.8-2.3-3.6-2.6-5.8c-0.7-4.9-1.1-9.8-3.4-14.4c-0.9-1.9,0-4,1.3-6c2.2-3.5,3.4-7.5,3.4-11.7c0-1.2-0.4-2.4-1.8-2.6
		c-1.5-0.1-2.1,1.1-2.1,2.3c0,3.2-1.7,5.7-3.2,8.3c-1.3,2.3-1.7,4.1-1.3,6.9c0.5,3.4-0.7,7-1.3,11.8c-1.8-3.4-1.4-5.7-1.2-7.7
		c0.5-4.8-1.9-6.3-6.2-6c-1.5,0.1-3,0-4.5,0c-2.3-0.1-4.1-1.2-4.2-3.4c-0.2-3.4-1.6-5.1-4.9-4.5c-4,0.7-9.9-2.8-11.3,4.5
		c-0.3,1.6-1.3,2.8-2.8,3.2c-2.6,0.6-5.5,1.2-4.7,4.4c0.7,2.9,3.5,4.1,6.8,3.9c4-0.2,8,0,12-0.1c2.5,0,4.6,1,4.7,3.5
		c0.1,4.4,2.6,4.7,6,4.6c2.2-0.1,4.3-0.1,6.5,0c6.3,0.2,11.1,5.4,10.7,11.6c-0.1,1.1,0.5,2.6-1.1,2.9c-1.1,0.2-1.5-1-2-1.9
		c-0.7-1.2-1.2-3.1-3.2-2.2c-1.7,0.7-1.8,2.4-1.5,3.9c0.7,3.8,1.2,7.5,0.9,11.4c-0.2,3.1,0.4,5.6,3.9,6.5c1.8,0.5,2.1,1.9,2.1,3.5
		c0,2.8,0,5.7,0,8.5c0,2.1-0.6,3.7-3,3.7c-2.1,0-2.9-1.3-3-3.2c-0.1-3.7-2.3-4.8-5.6-4.7c-7,0.1-14,0.1-21,0c-3.1,0-5.2,1.1-5.4,4.5
		c-0.1,1.9-0.7,3.4-2.8,3.4c-3.5,0.1-7,0.1-10.5,0c-1.5,0-2.7-1-2.6-2.5c0.5-6.2-1.3-12.1-2.2-18.1c-1.2-8.2,3-15.9,2.1-24.1
		c-0.3-2.3,1.4-3.1,3.6-3.2c2,0,3.8-0.9,3.9-3c0.1-2.1-1.4-3.7-3.5-4.3c-1.4-0.4-2.9-0.6-4.4-0.6c-8.3-0.1-16.7,0-25,0
		c-5.8,0-6.7,0.9-6.7,6.6c0,10.1,1,9.4-9.5,9.4c-0.3,0-0.7,0-1,0c-2.7,0.2-4.6-0.5-4.6-3.8c0-1.2-0.3-2.7-1.6-2.7
		c-2,0.1-1.2,2-1.3,3.2c-0.3,3.1,1,6.6-1.1,9.2c-2.4,2.9-1.6,5.5-0.2,8.3c1.5,3,2.1,6.1,0.6,9.1c-1.1,2.4-1.4,4.8-1.2,7.3
		c0.3,4,0.9,7.9,0.9,11.9c0.1,10.5,4,14.4,14.3,14.6c3.1,0.1,6.7-0.7,8.7,2.9c-5.5,0-11,0-16.4,0c-5.7,0-8.7-2.9-9.6-8.5
		c-1.6-10-1.3-20.1-1.8-30.1c-0.5-9.7-1.6-19.3-0.4-29.1c1-8.3-2.2-16.7-1.8-25.1c0-1.2-0.6-1.8-1.8-2c0-0.7-0.1-1.3-0.1-2
		c1.4-0.2,1.9-1,1.6-2.4c-2.3-15.1-1.5-30.3-2.6-45.4c-0.7-10-0.1-20.1-0.1-30.1c1.1,0.2,2,0.7,1.9,1.8c-0.5,4.5,1.1,8.7,2.1,13
		c1.7,7,0.8,14.1,1,21.2c0.1,3,0.1,6.1,4,6.9c0,1.2,0,2.3,0,3.5c0.2,13.1-2.5,12.5,12.6,12.5c6.1,0,7.2,1,7.4,7.2
		c0.1,1.8,0.1,3.7-0.1,5.5c-0.2,1.5-0.8,3.1-2.6,3.2c-5.9,0.3-11.9,1.1-16.7-3.9c-1.3-1.4-1.5-3.7-4.1-4.8c0.1,2.6-2.2,4.6-0.6,7.2
		c2.8,4.5,4.5,9.6,6.3,14.6c0.8,2.2,2.1,3.1,4.4,3.1c5.2-0.1,10.3-0.2,15.5,0c4.2,0.2,5.7-1.9,6-5.6c0.1-1.5,0.1-3,0-4.5
		c-0.2-3.2,0.7-4.9,4.4-5.1c4.2-0.2,8-1.6,9.9-6.2c0.8-1.8,2.7-3.7,4.5-4.5c4.6-2,5.8-5.8,6.1-10c0.2-3.3,1.6-4.3,4.7-4.3
		c7,0.1,14,0,21,0.1c2.4,0,4.4-0.5,5.2-2.9c0.8-2.5-0.8-3.9-2.9-5c-2.9-1.5-4.2-13.1-1.8-15.2c0.5-0.4,1.2-0.6,1.8-0.8
		c8.6-2,11.2-0.1,11.2,8.5c0,1,0,2,0,3c0,1.7,0.7,3.2,2.3,3.5c3.9,0.7,6,2.6,6.4,6.7c0.1,1.6,2.2,2.3,4.1,2.2c2.5-0.1,5-0.2,7.5,0
		c3.3,0.3,4.7-1.5,5.8-4.3c1.7-4.5,0.6-9.1,0.9-13.7c0.7-10-3.4-19.5-3.6-29.4c-0.1-3.2-2.3-8.3,1.9-9.2c5.1-1,4.8,4.1,4.9,7.8
		c0,1-0.1,2.2,1.4,2.2c0.8,0,1.5-1,1.5-1.8c-0.3-3.4,1.7-7.4-2.2-10.1c-1.2-0.9-1.7-2.5-1.6-4c0.3-4-0.6-7.9-1.8-11.7
		c-0.7-2.4-1-5.5,3-8.3c-1.9,6.8,3.9,10.9,2.8,16.7c-0.2,1,0.4,2,1.6,2.2c0.3,0.1,1.1-0.4,1.1-0.7c0-2,2.3-3.9,0.1-6
		c-1.6-1.4-2.1-3.4-1.7-5.5c1-6,0.2-12.1,0.7-18.1c1-12.2-1.2-24.4-3.3-36.4c-0.5-2.9-0.4-5.8-4.4-6.5c-1.6-0.3-2-2.1-1.7-4.1
		c0.8-4.1,1.9-8.3-1.9-12.1c-1.3-1.3-1.6-5.1,0.8-6.2c2.9-1.4,2.4,2.2,3.3,3.6c0.5,0.7,0.6,1.7,1.1,2.1c0.6,0.4,1.6,0.4,2.3,0.1
		c0.4-0.1,0.8-1.3,0.6-1.6c-4.1-5.9,0.5-15.3-8.6-19.4c-4.9-2.3-13.6-2.3-14.2,2c-1,6.2-1.2,12.4-7.9,15.5c-0.4,0.2-0.4,0.9-0.7,1.3
		c-2.9,4-2.3,8.5-2.3,13c0,6.5-1.9,7.9-8.2,6.4c-1.6-0.4-3.1-2.8-4.8-0.6c-1.6,2.2-2,5.4-0.2,7c4.1,3.7,7.8,8.2,13.6,9.7
		c0.2,0,0.3,0,0.5,0c4.5-0.6,5.2,2,5.2,5.7c0,2.9-1.4,6.4,1,8.6c3.7,3.4,2.6,5.4-1.2,7.4c-1.1,0.6-2.1,1.7-2.9,2.7
		c-5.4,7.8-13,9.3-21.9,8.6c-11-0.9-11.1-0.6-11.1-11.6c0-3.5-0.6-5.9-4.9-5.5c-2.8,0.2-4.4-0.6-3.4-4.1c1.2-4.1-1-5.4-4.8-4.9l0,0
		c4.2-5.1,10.4-7.7,14.9-12.7c11.1-12,19-25.5,24.2-40.9c4.9-14.5,5-29.3,5.2-44.5c0.3-17.1-4.7-33-8.2-49.2
		c-1.9-8.6-5.8-16.8-8.8-25.2c-2.7-7.8-4.9-15.7-7.6-23.4c-5-13.8-9.7-27.7-13.9-41.8c-1-3.2-0.9-6.4-2.1-9.6
		c-2.9-8.2-5.2-16.8-2.7-25.7c1.1-0.8,2.3-1.2,3.6-1c0.4-0.3,0.9-0.5,1.3-0.8C364.6,365,366.9,364.3,369.3,363.5z M429.4,830.2
		c-0.3,2.7,0.1,4.6,2.1,5.7c3.3,1.9,7.4,1.1,10.9,3.1c0.9,0.5,1.9-0.9,1.5-2.4c-0.6-1.8-2-2.7-3.7-3.1c-2.7-0.7-4.8-2.2-6.4-4.4
		c-0.8-1.2-1.4-3-3.3-2.4C428.6,827.5,429.6,829.4,429.4,830.2z M428.2,567.2c1.7-0.3,2.1-1.4,2-2.9c0-1.5-0.8-2.6-2.4-2.6
		c-1.6,0-2.4,1.1-2.5,2.6C425.3,566.2,426.6,566.8,428.2,567.2z"/>
	<path fill="#E6C273" d="M495.2,171.7c-0.3-0.1-0.6-0.2-0.8-0.3c-1.8-2.5-4.9-3-7.4-4.5c-1.4-0.9-4.2-0.3-4.2-2.5c0-2.1,2.7-2,4.1-3
		c3.6-2.6,9.4-1.5,11.5-6.7c0.3-0.1,0.5-0.2,0.8-0.3c2.5-0.3,3.9-1.5,3.8-4.1c0.1-0.3,0.2-0.5,0.3-0.7c1.3-0.2,1.9-0.9,1.7-2.3
		c0.2-0.6,0.3-1.1,0.5-1.7c5.8-6.7,5.8-15.3,7.4-23.3c0,0,0.1-0.3,0.1-0.3c3.3,0.4,2.4,4.5,4.9,5.6c0.1,0.6,0.2,1.2,0.3,1.8
		c-1.2,2.3-0.2,3.9,1.6,5.2c0.2,0.9,0.3,1.8,0.5,2.7c0.2,0.4,0.4,0.8,0.7,1.2c0.2,1.2,0.4,2.4,0.7,3.6c-0.5,1.4,0.1,2.1,1.4,2.4
		c0.1,0.3,0.2,0.6,0.2,0.8c0.3,2.4,1.1,4.5,3.7,5.2c0.1,0.3,0.2,0.5,0.3,0.8c-0.1,1.4,0.6,2,1.9,2.1c0,0,0,0,0,0
		c1.3,4.7,5,5,8.9,5.1c0,0,0,0,0,0c1,2.6,3.2,2.5,5.4,2.5c0.9,0.2,1.8,0.4,2.6,0.5c1,4-2.2,4.6-4.7,5.8c-4,1.9-9.1,2.1-11.4,7
		c-1,1-2,2-3.1,3c-1.3,0.2-1.9,0.9-1.7,2.2c-0.1,0.3-0.2,0.5-0.3,0.8c-2.9,1.9-4.7,4.4-3.9,8.1c-0.1,0.6-0.2,1.2-0.3,1.8
		c-2.6,3.3-3.4,7.2-3.5,11.3c0,0,0,0,0,0c-0.1,0.1-0.3,0.1-0.4,0.2c0.1,0.2,0.2,0.5,0.3,0.7c-0.1,0.6-0.2,1.3-0.3,1.9
		c-2.8,0.7-4.3-0.6-4.7-3.2c-0.3-1.9-0.6-3.8-2.6-4.8c-0.1-0.9-0.3-1.9-0.4-2.8c1.5-1.8,0.1-2.9-1.1-3.9c-0.1-0.3-0.1-0.5-0.2-0.8
		c0.4-1.3-0.2-2-1.4-2.4c-0.2-0.8-0.5-1.7-0.7-2.5c0-4.3-2.1-7.2-5.9-9c-0.3-0.4-0.7-0.7-1-1.1c0-0.6-0.4-0.9-1-0.8
		c-0.3,0-0.6-0.1-0.9-0.2C496.8,171.9,496.1,171.6,495.2,171.7z"/>
	<path fill="#E6C273" d="M111.3,324.8c-0.5,2.2-2.3,2.4-3.8,2.7c-10.2,2.1-14.9,9.1-17.4,18.4c-0.6,2.2-1,4.6-1.7,6.7
		c-0.6,1.6-0.2,4.4-2.4,4.3c-2-0.1-1.7-2.9-2.3-4.6c-0.5-1.6-0.9-3.2-1.2-4.8c-1.8-10-7.2-16.9-17.2-19.9c-1.5-0.5-3.7-0.6-3.8-2.6
		c-0.1-2.1,2.2-2.3,3.7-2.7c12.1-3,16.1-12.3,18.2-23.1c0.4-2.2,0.2-5.8,2.5-5.9c2.8-0.2,2.1,3.6,2.9,5.6c0.8,2.2,1.1,4.5,1.6,6.8
		c2.1,8.3,7.1,13.7,15.4,16.1C107.8,322.3,110.1,322.8,111.3,324.8z"/>
	<path fill="#7B5A3F" d="M136.4,554.4c-1.4-4.1,0.8-7.7,1.7-11.4c7.6-30.5,20.3-59.2,32.1-88.2c3.3-8.1,6-16.5,8.1-25.1
		c0.2-0.8,0.4-1.6,0.6-2.4c0.7-2.3,1.4-5,4.4-4.4c3.2,0.7,2.3,3.9,1.9,5.9c-1.6,9-4.9,17.5-8,26.1c-2.3,6.2-4.6,12.4-6.9,18.6
		c-0.8,0.4-0.9,1.2-0.9,2c-0.7,1.3-1.3,2.6-2,4c-1,2.7-2,5.3-3.1,8c-0.6,0.8-1.3,1.5-1.6,2.4c-5.1,14.7-10.3,29.3-15,44.1
		c-1.6,5-3.7,9.9-3.4,15.4c-1.3,3.4-2.2,7.2-7.3,6C136.8,555.1,136.6,554.7,136.4,554.4z"/>
	<path fill="#7B5A3F" d="M430.2,556.5c-3.6-0.7-5.5-3.1-5.8-6.6c-0.2-1.8-1.3-2.9-2-4.3c-0.2-1.3-0.2-2.6-0.5-3.9
		c-2.4-12-6.7-23.5-10.6-35.1c-1.1-2-1-4.5-2.9-6c0.3-2.6-1.8-4.5-2-7c-4-11-8.7-21.6-13.9-32.1c-2.6-11.2-8.2-21.5-10.1-32.9
		c0-0.7,0-1.3,0-2c0-0.7,0-1.3,0-2c2.7-3.8,4.4-1.4,6.1,1c4.8,20.9,13.7,40.4,22,60.1c7.1,17,12.8,34.4,18,52
		c1.3,4.3,2.3,8.6,3.6,12.9c0.5,1.5,0.2,2.6-0.6,3.7C430.3,554.7,430.3,555.6,430.2,556.5z"/>
	<path fill="#96775C" d="M296.5,681.5c0-0.7-0.1-1.4-0.1-2c5.4-2.1,11.3-2.7,16.9-3.9c0,3.7,0,7.3,0,11c0,3.3,1.6,4.9,4.9,5
		c3.2,0,6.3,0,9.5,0c4.5,0.1,7.5,3,7.6,7.4c0.1,3.3-0.1,6.7,0.1,10c0.2,3.5-1.4,4.3-4.7,4.8c-8.1,1.1-15.5-2.1-23.4-2.5
		c-1.4-0.1-1.8-1.3-1.9-2.5c-0.4-3.7-0.5-7.9,1.6-10.6c2.8-3.7,2.2-7.5,2.3-11.3c0-1.8,0.8-4.7-2.2-4.6c-2.2,0.1-3,2.4-2.7,4.6
		c0.7,5.2-1,9.7-4,13.9c-0.9,0-1.8,0-2.8,0c-0.1-4.6-0.2-9.3-0.3-13.9C298.7,684.6,299.4,682.8,296.5,681.5z"/>
	<path fill="#7B5A3F" d="M313.3,675.5c-5.6,1.3-11.5,1.8-16.9,3.9c-7.9-0.2-15.8-0.4-23.7-0.6c-2.6,0-2,2.1-2.1,3.7
		c-0.5,8.9-1,17.9-1.5,26.8c-1.1-1.4-1.2-2.7-1.1-4.6c0.6-7.4,0.4-14.9,1.4-22.3c0.5-3.5-1.4-4.7-4.6-5c-8.3-0.8-16.2-3.6-24-6.4
		c-2.3-0.8-5.2-1.9-4-5.2c1.2-3.2,3.7-2.1,6.3-1.2c5.3,1.9,10.8,3.2,16.2,4.7c0.6,0,1.3,0.1,1.9,0.1c8.4,3,17.3,3,25.9,2.6
		c8.6-0.4,17.5-0.8,25.9-3.7c3.9-1.3,7.8-2.7,11.7-4c2.1-0.7,4-1.6,5.8,0.7c1.8,2.4-0.4,3.6-1.2,5.2
		C324,672.2,318.6,673.9,313.3,675.5z"/>
	<path fill="#E6C273" d="M494.3,309.1c0.3,0.4,0.7,0.8,0.8,1.2c0.3,0.8,0.6,1.6,0.8,2.4c1.4,7.8,4.5,14.2,13,16.5
		c0.9,0.2,2.1,0.6,2.2,1.8c0.2,1.3-0.9,1.8-1.8,2c-8.8,1.8-11.5,8.5-13.2,16.2c-0.3,1.4-0.3,3.7-1.8,3.7c-2.2,0.1-1.8-2.3-2.1-3.8
		c-1.8-7.7-4.9-14.1-13.4-16.3c-0.9-0.2-2-0.7-1.9-2c0.1-1.1,1.1-1.1,1.9-1.3c7.9-2.4,11.9-7.8,13-15.8
		C492,312.1,492,309.8,494.3,309.1z"/>
	<path fill="#E6C273" d="M58.7,199.5c-2.5-1.2-2.8-3.1-3.1-4.8c-1.3-7.4-4.5-13.1-12.4-15.1c-1-0.2-2.1-0.6-2.2-1.7
		c-0.1-1.3,1.1-1.7,2-1.9c8.5-2.2,11.7-8.5,13.1-16.4c0.2-1,0.6-1.9,1.1-2.8c0.2-0.4,0.7-0.5,1.2-0.9c1.5,1.2,1.6,3,1.9,4.5
		c1.6,7,4.5,12.9,12.2,15c1,0.3,2.5,0.7,2.5,2.1c0.1,1.5-1.3,1.8-2.4,2.1c-7,1.9-10.2,6.8-11.5,13.6
		C60.7,195.2,59.6,197.2,58.7,199.5z"/>
	<path fill="#7B5A3F" d="M122.4,424.5c6.8,11.9,14.6,23.3,20.3,35.8c1.9,4,3.9,8,5,12.4c0.5,2,0.2,3.3-1.4,4.2c-1.8,1-3-0.6-3.6-1.7
		c-2.8-4.9-5.6-9.8-7.8-14.9c-4.5-10.4-10.8-19.7-16.7-29.3c-1.6-2.6-1.6-4.5,0.3-6.6C119.7,424.4,121.1,424.5,122.4,424.5z"/>
	<path fill="#7B5A3F" d="M449.3,424.5c1.6,2.1,2.3,3.7,0.5,6.5c-8.9,13.6-16.9,27.8-23.2,42.8c-0.8,1.9-1.6,4.6-4.5,3.3
		c-2.8-1.2-2.9-3.8-1.7-6.4c4.8-10.6,9.9-21.1,16.1-30.9c3.4-5.3,6.2-11,10.8-15.4C447.9,424.5,448.6,424.5,449.3,424.5z"/>
	<path fill="#E6C273" d="M547.7,252.3c-1.7-2.4-1.8-4.8-2.6-6.9c-1.3-3.9-3.4-7.2-7.7-8.4c-1.1-0.3-2.5-0.7-2.7-1.9
		c-0.2-1.5,1.4-1.6,2.4-2.1c4.8-2.1,7.7-5.4,8.4-10.8c0.2-1.5,0.2-4,2-4.2c2.3-0.2,1.7,2.5,2.1,3.8c1.5,5.1,3.4,9.7,9.4,11.1
		c1.8,0.4,3.3,2.4,0.6,3.2c-7.6,2.2-9.3,8.2-10.8,14.7C548.7,251.2,548.2,251.5,547.7,252.3z"/>
	<path fill="#8D7359" d="M301.5,782.5c1.1,0.2,1.8,0.9,1.8,2c-0.3,8.5,2.9,16.8,1.8,25.1c-1.2,9.8-0.1,19.5,0.4,29.1
		c0.5,10,0.2,20.2,1.8,30.1c0.9,5.6,3.9,8.5,9.6,8.5c5.5,0,11,0,16.4,0c7.7,0,15.3,0,23,0c2,0.7,4.9-1.6,6,1.9
		c-15.5,0.1-30.9,0.2-46.4,0.1c-6.3,0-10.7-4.2-11-10.5c-0.7-11.1-1-22.2-1.4-33.3c-0.6-14.6-0.8-29.2-2.1-43.8
		C301.1,788.8,301.5,785.6,301.5,782.5z"/>
	<path fill="#8D7359" d="M122.8,877.6c41.1,0,82.2-0.1,123.3-0.1c4.1,0,8.4,0.7,11.4-3.3c0.7-1,2.2-0.6,3.3-0.6
		c-2,4.7-6.2,5.9-10.6,5.9c-40.1,0.1-80.2,0.1-120.4,0C127.3,879.5,124.8,879.4,122.8,877.6z"/>
	<path fill="#E5B196" d="M38.4,225.7c-1.1,3.3-2.2,6.6-3.3,9.9c-0.3,0.8-0.7,1.6-1.6,1.7c-1,0.1-1.6-0.7-1.7-1.5
		c-1.1-7.3-4.5-12.7-12.6-14.9c7.9-2.4,11.4-7.8,12.7-15c0.1-0.7,0.8-1.7,1.4-1.8c1.3-0.3,1.6,0.9,1.9,1.8c0.8,2.3,1.2,4.9,2.4,7
		c1.5,2.7,3.5,5.3,7,5.9c0.9,0.2,2.1,0.5,2.3,1.7c0.2,1.5-1.3,1.7-2.3,2.1c-1.7,0.6-3.4,1.3-5.1,1.9c1.7-3,2.2-5.6-1.7-7.3
		c-0.6-0.3-1-1.2-1.4-2c-1.5-3.1-3.2-3.7-5.1-0.3c-0.5,0.8-1.1,1.7-1.9,2.2c-3.6,2.2-3.6,3.2-0.6,6.9
		C32.3,228.6,34.4,229.6,38.4,225.7z"/>
	<path fill="#96775C" d="M362.3,879.4c-1.1-3.5-4-1.3-6-1.9c0.5-2.8,2.7-1.9,4.4-2c4.8-0.3,9.9,1.1,14.4-0.6c5.1-2,10.6-2.3,15.2-1
		c7,1.9,13.8,1.3,20.7,1.6c1.5,0.1,3.1-0.1,3.4,2c-11.2,0-22.4,0-33.6,0c-1.6,0-3.8-0.8-4.4,1.9C371.6,879.4,367,879.4,362.3,879.4z
		"/>
	<path fill="#8D7359" d="M297.6,700.5c0.9,0,1.8,0,2.8,0c0,0.7,0,1.3,0,2c0,10-0.6,20.1,0.1,30.1c1.1,15.1,0.3,30.4,2.6,45.4
		c0.2,1.5-0.2,2.2-1.6,2.4c-1.5-15.2-1.8-30.5-2.3-45.7C298.7,723.3,298.1,711.9,297.6,700.5z"/>
	<path fill="#E6C273" d="M38.4,225.7c-4,3.9-6.1,2.9-9.7-1.5c-3.1-3.8-3.1-4.8,0.6-6.9c0.8-0.5,1.4-1.4,1.9-2.2c2-3.4,3.6-2.8,5.1,0.3
		c0.4,0.7,0.8,1.7,1.4,2c3.9,1.7,3.4,4.4,1.7,7.3C39.1,225,38.7,225.3,38.4,225.7z"/>
	<path fill="#8D7359" d="M376.3,879.4c0.5-2.7,2.7-1.9,4.4-1.9c11.2-0.1,22.4,0,33.6,0c3.7,0,7.3,0,11,0c5.7,0,11.4,0,17.1,0
		c-1.7,1.9-4.1,2-6.4,2C416.1,879.5,396.2,879.4,376.3,879.4z"/>
	<path fill="#8D7359" d="M262.3,854.4c-1.4-1.1-0.9-2.7-1-4.2c-0.4-16.8,1-33.5,2-50.2c0.1-1.3,0.3-2.3,1.7-2.6
		C264.5,816.5,263.7,835.5,262.3,854.4z"/>
	<path fill="#98785E" d="M453.3,843.5c-2.1,0.7-2.8,2.2-3.2,4.5c-0.8,4.3-4.4,5.8-7.1,3.2c-1.2-1.2-2.4-3.1-0.5-4.2
		c3.5-1.9,5-4.8,5.6-8.5c0.1-0.4,1-0.8,1.6-1.1C450.9,839.3,452.7,841.1,453.3,843.5z"/>
	<path fill="#7B5A3F" d="M266,773.3c-1.2-8.5-1.2-17.1,0-25.6c0.5-3.3-1.6-7.3,1.8-10.2C267.2,749.5,266.6,761.4,266,773.3z"/>
	<path fill="#F0D8B0" d="M498.4,154.8c-2.1,5.2-7.9,4-11.5,6.7c-1.4,1-4.1,0.9-4.1,3c0,2.2,2.8,1.6,4.2,2.5c2.5,1.5,5.6,1.9,7.4,4.5
		c-5.2-0.1-9.2-3.3-13.7-5.3c-2.8-1.2-1.2-3.2,0.9-4.2C487.2,159.5,492.8,157.2,498.4,154.8z"/>
	<path fill="#F0D8B0" d="M530.2,174.5c2.2-4.9,7.3-5.1,11.4-7c2.5-1.2,5.6-1.8,4.7-5.8c1.8,0,3.5,0.4,3.9,2.4c0.3,1.5-1,2.8-2.2,3
		C541.3,168.1,536.3,172.5,530.2,174.5z"/>
	<path fill="#F0D8B0" d="M512.9,122.5c-1.7,8-1.6,16.6-7.4,23.3c2-7.2,3.9-14.3,5.9-21.5C511.6,123.3,512.1,122.8,512.9,122.5z"/>
	<path fill="#F7E8DC" d="M97.2,382.5c-2.2,3-4.5,5.9-7,9.2c-1.9-1.8-2.8-3.9-3.6-6.2c2.6,0.4,5.4,1.8,6.4-2.6
		C93.5,380.9,95.6,381.7,97.2,382.5z"/>
	<path fill="#F0D8B0" d="M509.7,196.4c2,1,2.3,2.9,2.6,4.8c0.5,2.7,1.9,3.9,4.7,3.2c0.3,2.1,0.1,4.5-2.2,4.8c-2.7,0.4-2.8-2.5-3.2-4.3
		C511.1,202.2,509.4,199.5,509.7,196.4z"/>
	<path fill="#7B5A3F" d="M268.1,730.4c-0.8-5.3-2.2-10.7,0.8-15.8C268.6,719.9,268.4,725.1,268.1,730.4z"/>
	<path fill="#8D7359" d="M261.5,871.5c-1.7-4.8-2.2-9.5,0.7-14C262.2,862.2,263,866.9,261.5,871.5z"/>
	<path fill="#F0D8B0" d="M538.2,158.7c-3.9-0.1-7.6-0.4-8.9-5.1C532.3,155.3,535.8,156,538.2,158.7z"/>
	<path fill="#F0D8B0" d="M517.4,201.7c0.1-4.1,0.9-8,3.5-11.3C520.6,194.5,520.2,198.5,517.4,201.7z"/>
	<path fill="#F0D8B0" d="M500,174.9c3.8,1.8,5.9,4.7,5.9,9C503.4,181.3,501.1,178.4,500,174.9z"/>
	<path fill="#F7E8DC" d="M109.4,379c-3.1,0.1-6.2,0.3-9.1,1.3C102.8,376,106.1,376.9,109.4,379z"/>
	<path fill="#F0D8B0" d="M517.9,127.8c-2.5-1.1-1.6-5.2-4.9-5.6c0.1-1.1,0.1-2.4,1.7-2.5c1.2,0,1.7,1,1.9,1.9
		C517.2,123.7,517.5,125.8,517.9,127.8z"/>
	<path fill="#8D7359" d="M450,871.9c-0.5-3.8,1.8-5.8,4.7-7.3C454.5,867.9,452.8,870.3,450,871.9z"/>
	<path fill="#F0D8B0" d="M521.2,188.6c-0.9-3.7,1-6.2,3.9-8.1C524.9,183.7,522.5,185.9,521.2,188.6z"/>
	<path fill="#8D7359" d="M443.3,877.3c0.8-3.4,2.7-5.4,6.4-5.2C448.2,874.6,446.1,876.5,443.3,877.3z"/>
	<path fill="#8D7359" d="M265.4,785.5c-1.4-2.8-2.3-5.5,0.5-8C266.3,780.2,265.7,782.8,265.4,785.5z"/>
	<path fill="#F0D8B0" d="M527,150.8c-2.6-0.7-3.4-2.8-3.7-5.2C525.6,146.6,526.8,148.3,527,150.8z"/>
	<path fill="#F0D8B0" d="M503,150.4c0.1,2.6-1.4,3.9-3.8,4.1C499.6,152.4,500.9,151,503,150.4z"/>
	<path fill="#8D7359" d="M296.5,681.5c2.9,1.3,2.2,3.1,0.7,5C296,685,296.3,683.3,296.5,681.5z"/>
	<path fill="#F0D8B0" d="M519.9,134.8c-1.8-1.3-2.8-2.9-1.6-5.2C519.5,131.1,520.1,132.9,519.9,134.8z"/>
	<path fill="#F0D8B0" d="M543.6,161.2c-2.2,0.1-4.4,0.1-5.4-2.5C540.2,159.1,542.3,159.2,543.6,161.2z"/>
	<path fill="#F0D8B0" d="M508.1,189.7c1.2,1.1,2.6,2.1,1.1,3.9C507.9,192.6,508.3,191.1,508.1,189.7z"/>
	<path fill="#F7E8DC" d="M86.3,384.8c-1-0.8-1.7-1.9-2-3.2C86.5,381.7,86.4,383.2,86.3,384.8z"/>
	<path fill="#F0D8B0" d="M506.6,186.5c1.2,0.4,1.7,1.1,1.4,2.4C506.8,188.5,506.2,187.8,506.6,186.5z"/>
	<path fill="#F0D8B0" d="M525.4,179.7c-0.1-1.3,0.5-2,1.7-2.2C527.3,178.9,526.6,179.5,525.4,179.7z"/>
	<path fill="#F0D8B0" d="M529.3,153.6c-1.3,0-2-0.7-1.9-2.1C528.6,151.7,529.2,152.4,529.3,153.6z"/>
	<path fill="#F0D8B0" d="M523.1,144.7c-1.3-0.3-1.9-1-1.4-2.4C522.7,142.8,523.4,143.5,523.1,144.7z"/>
	<path fill="#F0D8B0" d="M505,147.4c0.3,1.4-0.3,2.1-1.7,2.3C503.2,148.4,503.9,147.8,505,147.4z"/>
	<path fill="#F0D8B0" d="M495.2,171.7c0.9,0,1.6,0.2,1.9,1.1C496.3,172.7,495.7,172.4,495.2,171.7z"/>
	<path fill="#F0D8B0" d="M521,138.7c-0.2-0.4-0.4-0.8-0.7-1.2C520.6,138,520.8,138.3,521,138.7z"/>
	<path fill="#7B5A3F" d="M268.1,733.4c-0.1-0.2-0.2-0.4-0.2-0.6c0-0.1,0.2-0.2,0.2-0.2C268.2,732.9,268.2,733.1,268.1,733.4z"/>
	<path fill="#F0D8B0" d="M517.3,202.6c-0.1-0.2-0.2-0.5-0.3-0.7c0.1-0.1,0.3-0.1,0.4-0.2C517.4,202,517.4,202.3,517.3,202.6z"/>
	<path fill="#F0D8B0" d="M498,173c0.6-0.1,0.9,0.2,1,0.8C498.7,173.6,498.4,173.3,498,173z"/>
	<path fill="#8D7359" d="M357.3,367.5c-2.5,8.9-0.2,17.5,2.7,25.7c1.2,3.2,1.1,6.4,2.1,9.6c4.3,14.1,9,28,13.9,41.8
		c2.8,7.7,4.9,15.7,7.6,23.4c3,8.4,6.9,16.6,8.8,25.2c3.5,16.2,8.4,32.1,8.2,49.2c-0.2,15.1-0.2,29.9-5.2,44.5
		c-5.2,15.4-13.1,28.9-24.2,40.9c-4.6,5-10.8,7.5-14.9,12.7c-8.6,4.5-16.7,9.8-26.3,12.4c-9.4,2.6-18.9,4.2-28.5,5.6
		c-15.3,2.3-30.5,0.6-45.6-1.3c-6.7-0.9-13.5-2.6-20.1-4.9c-13.3-4.7-25.2-11.5-35.6-20.9c-11.2-10.1-19.1-22.5-25-36.4
		c-5.3-12.5-6.6-25.6-7.9-38.8c-1.3-13.4,0.4-26.5,2.7-39.7c2.2-12.8,5.9-25.1,9.8-37.4c1.1-3.6,2.8-7,3.6-10.7
		c2.7-6.5,4.8-13.3,7.2-19.9c2.5-6.7,4.6-13.6,6.8-20.4c3.5-10.5,7.6-20.7,9.5-31.8c0.9-5.5,2.3-11.4,4.3-16.9
		c1.7-4.6,1.8-9-0.9-13.2c11,2.3,21.8,5.8,33,7.6c24.6,3.9,49.3,3.8,74,1.1C330.9,373.6,344.1,370.5,357.3,367.5z M221.8,407.1
		c1.4,1.7,3.2,1.8,4.7,2.1c21.7,5.1,39.8,16.4,55.6,31.8c2.8,2.7,4.5,2.7,7.3,0.1c13.7-12.8,29.3-22.4,47.6-27.1
		c5.3-1.4,10.6-2.8,17.1-4.6c-4.2-1.3-7.2-2.3-10.2-3.1c-17.8-4.4-34.6-3.3-49.8,8.1c-2.8,2.1-5.6,5.8-8.3,5.8c-2.8,0-5.5-3.8-8.2-6
		C259.5,399.6,239.7,397,221.8,407.1z"/>
	<path fill="#97765B" d="M300.3,702.5c0-0.7,0-1.3,0-2c3.1-4.1,4.7-8.6,4-13.9c-0.3-2.2,0.5-4.5,2.7-4.6c3-0.1,2.2,2.8,2.2,4.6
		c-0.1,3.9,0.5,7.6-2.3,11.3c-2.1,2.7-2,6.9-1.6,10.6c0.1,1.2,0.5,2.4,1.9,2.5c7.8,0.4,15.3,3.7,23.4,2.5c3.3-0.5,4.9-1.3,4.7-4.8
		c-0.2-3.3,0-6.7-0.1-10c-0.1-4.4-3.1-7.3-7.6-7.4c-3.2-0.1-6.3,0-9.5,0c-3.3,0-4.9-1.7-4.9-5c0-3.7,0-7.3,0-11
		c5.3-1.7,10.7-3.4,16-5.1c0.4,1.6-1,4,1.4,4.8c2.1,0.7,3.8-0.7,5.3-2c2.1-1.8,3.9-3.6,3.1-6.8c-2.2-9.6,3-16.6,12.5-16.9
		c2.8-0.1,5-0.3,3.9-4.2c-0.4-1.4,0.5-3.2,0.7-4.8c3.8-0.5,6,0.8,4.8,4.9c-1.1,3.5,0.5,4.3,3.4,4.1c4.3-0.4,4.9,2,4.9,5.5
		c0,11,0.1,10.7,11.1,11.6c8.9,0.7,16.5-0.8,21.9-8.6c0.7-1.1,1.7-2.2,2.9-2.7c3.8-2,4.9-3.9,1.2-7.4c-2.4-2.2-1.1-5.7-1-8.6
		c0.1-3.8-0.6-6.3-5.2-5.7c-0.2,0-0.3,0-0.5,0c-5.8-1.5-9.5-6-13.6-9.7c-1.8-1.6-1.4-4.8,0.2-7c1.7-2.3,3.2,0.2,4.8,0.6
		c6.2,1.5,8.2,0,8.2-6.4c0-4.5-0.6-9,2.3-13c0.3-0.4,0.4-1.1,0.7-1.3c6.7-3.2,6.9-9.4,7.9-15.5c0.7-4.3,9.3-4.3,14.2-2
		c9.1,4.2,4.5,13.6,8.6,19.4c0.2,0.3-0.3,1.5-0.6,1.6c-0.7,0.2-1.7,0.3-2.3-0.1c-0.6-0.4-0.7-1.5-1.1-2.1c-1-1.4-0.4-5-3.3-3.6
		c-2.4,1.1-2.1,4.9-0.8,6.2c3.8,3.8,2.7,7.9,1.9,12.1c-0.4,2,0.1,3.9,1.7,4.1c4,0.7,3.9,3.6,4.4,6.5c2.1,12.1,4.3,24.2,3.3,36.4
		c-0.5,6.1,0.3,12.1-0.7,18.1c-0.3,2.1,0.1,4,1.7,5.5c2.3,2.1-0.1,4-0.1,6c0,0.2-0.8,0.7-1.1,0.7c-1.1-0.2-1.7-1.2-1.6-2.2
		c1.1-5.8-4.7-9.9-2.8-16.7c-4,2.8-3.7,5.8-3,8.3c1.1,3.9,2,7.7,1.8,11.7c-0.1,1.6,0.4,3.2,1.6,4c3.9,2.7,1.9,6.7,2.2,10.1
		c0.1,0.8-0.6,1.7-1.5,1.8c-1.4,0.1-1.3-1.2-1.4-2.2c-0.1-3.7,0.2-8.8-4.9-7.8c-4.2,0.8-2,6-1.9,9.2c0.3,9.9,4.4,19.4,3.6,29.4
		c-0.3,4.5,0.9,9.2-0.9,13.7c-1.1,2.8-2.4,4.6-5.8,4.3c-2.5-0.2-5-0.1-7.5,0c-1.8,0-3.9-0.7-4.1-2.2c-0.4-4.2-2.5-6-6.4-6.7
		c-1.6-0.3-2.3-1.8-2.3-3.5c0-1,0-2,0-3c0-8.6-2.6-10.5-11.2-8.5c-0.6,0.1-1.3,0.4-1.8,0.8c-2.4,2.1-1.1,13.7,1.8,15.2
		c2.1,1.1,3.7,2.5,2.9,5c-0.8,2.4-2.8,3-5.2,2.9c-7-0.1-14,0.1-21-0.1c-3.1,0-4.4,1-4.7,4.3c-0.3,4.2-1.5,8-6.1,10
		c-1.8,0.8-3.7,2.6-4.5,4.5c-1.9,4.6-5.7,6-9.9,6.2c-3.7,0.2-4.6,1.9-4.4,5.1c0.1,1.5,0.1,3,0,4.5c-0.2,3.7-1.8,5.8-6,5.6
		c-5.2-0.2-10.3-0.1-15.5,0c-2.4,0.1-3.6-0.9-4.4-3.1c-1.9-5-3.5-10-6.3-14.6c-1.6-2.6,0.7-4.6,0.6-7.2c2.6,1.1,2.8,3.4,4.1,4.8
		c4.8,5,10.8,4.2,16.7,3.9c1.8-0.1,2.4-1.7,2.6-3.2c0.2-1.8,0.2-3.7,0.1-5.5c-0.2-6.1-1.3-7.2-7.4-7.2c-15,0-12.3,0.6-12.6-12.5
		c0-1.2,0-2.3,9.6-15.5c5.1-12,0.6-12-3.9-12c-1.4,0-3.3-0.3-3.5,1.8c-0.4,5.1-2.6,9.9-2.2,15.2c0.5,7.1,0.1,7,7.1,7
		c3.6,0,5.3-1.1,5-4.9c-0.2-2.3,0-4.7,0-7c0-2.2,0.4-4,3.1-4.2c2.5-0.2,3.5,1.1,4.2,3.3c0.5,1.6,0.7,3.2,0.7,4.9
		c-0.1,2.4,1.1,4.2,3.5,3.7c4.1-0.8,9,2.6,12.3-2.3c0.1-0.1,0.1-0.3,0.1-0.5c0.7-4.7,0.7-9.5,0-14.2c-0.3-2.4-1.8-2.9-3.9-2.9
		c-4.3,0-8.7,0-22.5,12c-13.5,11.2-13.5,8.1-13.5,5.1c-0.2-7.1,0.7-14.2-1-21.2c-1-4.3-2.6-8.5-2.1-13
		C302.4,703.2,301.4,702.7,300.3,702.5z"/>
	<path fill="#98785E" d="M144.3,549.5c-0.2-5.4,1.9-10.4,3.4-15.4c4.7-14.8,9.9-29.4,15-44.1c0.3-0.9,1.1-1.6,1.6-2.4
		c1.3,1.6,2,3.6,4,4.8c1.5,0.9,2,2.8,1.7,4.9c-0.9,5.7-1.9,11.4-1.7,17.3c0.1,3-0.6,5.2-3.8,6.1c-2.7,0.8-3.5,2.9-3.2,5.5
		c1.1,8.5-1.8,16.7-1.1,25.2c0.3,3.8-2.1,7.4-5.9,8c-3.9,0.6-7-1.7-7.9-5.9C146.1,551.8,144.9,550.8,144.3,549.5z"/>
	<path fill="#97765B" d="M261.3,669.6c-0.6,0-1.3-0.1-1.9-0.1c0.2-1.4-1.9-3.1,0.6-4.3c2.1-1,4.1-2.3,6.6-1.4c0.5,0.2,1.1,0.8,1.3,1.3
		c0.3,1-0.7,1.4-1.4,1.8C264.7,667.8,262.5,667.8,261.3,669.6z"/>
	<path fill="#98785E" d="M167.4,479.6c0.7-1.3,1.3-2.6,2-4c0.6,1.3,3.7,0.8,2.7,3.3C171,481.5,169,479.5,167.4,479.6z"/>
	<path fill="#99785E" d="M376.8,284.8c0,13.4-6.5,23.8-15.2,33.1c-13.6,14.6-29,27.3-47.8,34.3c-29.3,10.9-57,7.2-82.2-12.4
		c-8.8-6.8-18.2-12.8-25.4-21.5c-6.6-7.9-11.9-16.4-14.7-26.3c-1-3.6-1-7.4-0.5-11.2c0.2-4.6,1.8-8.7,4.2-12.5
		c2.6-4.2,6-7.8,9.4-11.4c12-9.9,25.7-16.3,40.7-20.3c0.1,2.8,1.5,5,3.4,7c6,6.5,13.6,10.4,21.9,13.1c4.5,1.5,9.1,3.2,14,2.4
		c9.4-1.6,18.2-5.2,26-10.6c4.2-2.9,8.4-6.2,9-11.9c15.3,3.3,29.3,9.5,41.6,19.3C369.2,263.9,376.7,272.4,376.8,284.8z M313.4,308.4
		c-0.1-8.9-2.3-16.8-6.8-24.2c-8.8-14.4-26.5-18.1-39.7-8.3c-19.4,14.2-19.4,50.2,0.1,64.4c9,6.6,18.9,7.7,28.6,2.1
		C308.3,335,313.1,322.7,313.4,308.4z"/>
	<path fill="#99785E" d="M374.9,239.1c-11.2-2.1-22.8-2.4-33.9-5.4c-6.1-1.6-12.2-3.3-18.1-5.5c-14.9-5.8-22.6-17.3-23.5-32.9
		c-2.7-44.2,29.3-68.9,63.3-72.7c32.9-3.6,56.7,12.4,76.1,36.9c10.6,13.5,16.5,29,18.3,46.2c1.5,14.3-5.8,26.4-19.4,31.2
		c-1.2,0.4-2.4,1-3.7,1.5c-8.9,0.8-17.7,2.9-26.7,1.9c-9.4-1-18.8-0.3-28.1-1.1c-0.4,0.1-0.8,0.1-1.2,0.2
		C377,239.3,376,239.2,374.9,239.1z M323.5,217.6c2.3,0.8,4.7,1.6,7,2.5c26.4,9.3,53.1,11.6,80.5,4.7c3.6-0.9,6-2.4,6.5-6.3
		c7.6,1.5,9.5,0.1,9.7-7.7c0.2-8,0.4-15.9-0.8-23.9c-5-32.3-37.2-56.8-69-51.1c-12.3,2.2-22.9,7.7-30.2,18.4c-1.6,1.5-3.3,3-3.9,5.3
		c-1,1.5-2.1,3-2.9,4.6c-7.8,15.7-8.2,32.3-6,49.2C315.1,219.6,317.9,220.7,323.5,217.6z"/>
	<path fill="#99785E" d="M140.4,238.6c-6.8-1-13.6-1.9-19.6-5.4c-12.2-7.2-14.3-18.8-12.2-31.3c6.3-37.4,27.5-63.5,62.7-76.9
		c30.1-11.4,67.2,0,85,28.5c9.7,15.5,12,32.6,7.6,50.3c-3.4,13.5-13.7,20.2-26,24.7c-15.3,5.6-31.3,7.2-47.3,9
		c-3.8,0.4-7.6,0.7-11.4,1C166.3,238.5,153.3,238.6,140.4,238.6z M242.1,217.6c5.2,3,8.7,1.3,9.2-4.4c1.2-12.3,0.8-24.3-1.5-36.6
		c-4.6-24-28.5-46.2-57-42.2c-18.6,2.6-32.6,11.4-43.7,25.9c-11.6,15.1-14,32.7-12.6,51.1c0.5,7,2.2,8.1,9.6,7.2
		c0.2,3,1.9,5.1,4.6,5.7c7.7,1.7,15.4,4,23.1,4.2c16.3,0.5,32.5,0,48.5-4.3C229,222.2,235.2,218.8,242.1,217.6z"/>
	<path fill="#ECC8C7" d="M385.3,80.7c-9.2-6.1-19.6-9.7-30.2-14.4c11.3-8.9,23-15.6,36.3-19.1c22.6-5.9,46.9,7.6,53.4,29.6
		c3.7,12.6,2.7,25.3-0.1,38c-0.9,4-2.3,7.9-3.5,11.9c-6.1-1.1-7.8-7.1-11.6-10.7c-6.8-6.5-12.1-14.6-20.2-19.5
		c-7.3-4.4-12.8-11.2-20.8-14.5c-0.7-0.3-1.6-0.3-2.4-0.5C385.8,81.3,385.5,80.9,385.3,80.7C385.3,80.6,385.3,80.7,385.3,80.7z"/>
	<path fill="#ECC8C7" d="M130.6,117.6c-3-12-4.7-24.1-1.9-36.4C134.5,55,160,40.2,186,48c10.2,3.1,19.6,8.1,28.2,14.6
		c0.8,0.6,2,0.9,1.8,2.1c-0.2,1.3-1.5,1-2.4,1.4c-10.3,4.1-21,7.3-30.3,13.6c0,0,0.1-0.1,0.1-0.1c-0.8,0-1.6,0.2-2,1
		c-10.7,4.1-19.2,11.5-28.1,18.3c-6.2,4.8-11.9,10.2-16.9,16.3C135.3,116.5,133,118.1,130.6,117.6z"/>
	<path fill="#E5B196" d="M140.4,238.6c13,0,25.9,0,38.9-0.1c0.4,0.3,0.8,0.9,1.1,0.9c12.8-1.3,18,7.9,23.4,16.8
		c0.2,0.3,0.5,0.5,0.7,0.7c-3.4,3.6-6.8,7.2-9.4,11.4c-2.4,3.8-4,7.9-4.2,12.5c-5.8,5.4-12.3,8.7-20.4,9c-3.5,0.2-6.9,1.8-10.6,2.1
		c-6.4,0.5-12.6,0.8-18.8-1.4c-1.2-0.4-2.6-0.7-3.9-0.8c-14.1-0.8-24.7-7.2-31.7-19.6c-2.6-4.6-0.9-9.4,0.5-13.4
		c2.9-8.1,9.1-13.9,17.4-16.4c3.7-1.1,8.1,0.2,12.1-0.6C137.3,239.3,139.1,240.2,140.4,238.6z M177.4,254.5
		c-2.2-5.3-7.4-5.6-11.8-6.8c-5.3-1.3-11.2,0.3-16.3-2.9c-1-0.6-2.8-0.6-3.9-0.1c-7.3,3.1-16,3.4-21.8,10c-1.9,2.2-5,3.3-5.3,6.8
		c-0.5,5.6,5.8,15.3,11.3,16.6c11.4,2.9,22.7,5.7,34.7,3.6c9.6-1.7,17.7-4.5,22.4-14c3.3-6.8,1.3-10.9-6.3-11.2
		C179.9,255.2,178.8,254.6,177.4,254.5z"/>
	<path fill="#E5B196" d="M379.3,239.2c9.4,0.8,18.8,0.1,28.1,1.1c8.9,0.9,17.8-1.1,26.7-1.9c0.7,1.1,1.9,1.1,3.1,1.3
		c12.9,2.5,22.3,13.1,23,26.1c0.3,5.8-4.1,9.1-7.5,12.7c-7.5,7.9-17.5,9.7-27.7,11.3c-5.2,0.8-10.4,2.7-15.7,1.8
		c-10.4-1.7-21.5-0.6-30.9-6.8c-0.3-0.2-1,0-1.5,0c-0.1-12.4-7.5-20.9-15.6-29c3.4-6.6,9.9-10.5,13.8-16.7c1,0.1,2.1,0.2,3.1,0.3
		C378.6,240.2,379,240.3,379.3,239.2z M435.3,254.5c-1-1.5-0.9-3.7-2.9-4.4c-6.6-2.5-12.8-7-20.6-3.9c-1.6,0.6-3.8,0.7-5.4,0.2
		c-8.3-2.8-14.7,2.2-21.5,5.3c-3.7,1.7-6.8,4.6-8.7,8.5c-1.8,3.6-1.3,10.6,1.1,11.9c8.1,4.3,15.9,9.1,25.2,10.5
		c1.6,0.2,3.1,0.4,4.8,0.3c8.1-0.5,15.9-2,23.8-3.8c7.5-1.6,11.9-5.1,14.9-11.3c3-6.1,1.1-9-5.7-9.2
		C440.6,254.9,438.2,254.3,435.3,254.5z"/>
	<path fill="#57391D" d="M319.5,236.4c-0.6,5.8-4.8,9-9,11.9c-7.8,5.4-16.6,9-26,10.6c-4.9,0.8-9.5-0.9-14-2.4
		c-8.3-2.7-15.9-6.6-21.9-13.1c-1.9-2-3.2-4.2-3.4-7c2.2-4.6,6.7-5.5,10.8-6c7.4-0.8,14.7-2.7,22.2-2c1.7,1.5,3.4,1.6,5,0
		c1.7,0,3.3,0.1,5,0.1c0.3,0.6,0.6,0.6,1,0c7.9,0.1,15.7,1.2,23.4,3.3C315.4,232.7,318,233.8,319.5,236.4z"/>
	<path fill="#57391D" d="M382.6,112.6c-10-1.1-20-4.2-29.5-8.6c-3.2-1.4-5.9-4.1-5.3-8.2c0.7-4.4,4.2-6.1,7.9-6.4
		c12.5-1.2,23.7,2.1,33.1,10.7c2.6,2.4,4.1,5.5,2.5,9C389.7,112.5,386.2,112.4,382.6,112.6z"/>
	<path fill="#57391D" d="M181.8,112.5c-3.3,0-6.5-0.3-8.1-3.7c-1.5-3.4,0.2-6.2,2.3-8.6c5.7-6.4,13.6-8.7,21.6-10.2
		c3.8-0.7,7.8-1.7,11.9-0.5c3.3,1,6.6,1.9,7.3,5.8c0.8,4-1.3,6.8-4.7,8.4C202.5,108.3,192.4,111.4,181.8,112.5z"/>
	<path fill="#4E341D" d="M283.3,228.6c-1.7,1.6-3.3,1.6-5,0C280,228.6,281.7,228.6,283.3,228.6z"/>
	<path fill="#99785E" d="M181.4,80.6c0.4-0.8,1.2-1,2-1C183.1,80.6,182.1,80.4,181.4,80.6z"/>
	<path fill="#8D7359" d="M362.3,365.7c-0.4,0.3-0.9,0.5-1.3,0.8C361.4,366.2,361.8,366,362.3,365.7z"/>
	<path fill="#99785E" d="M385.3,80.6c0.3,0.3,0.6,0.6,0.9,1C385.8,81.3,385.5,80.9,385.3,80.6z"/>
	<path fill="#4E341D" d="M289.3,228.7c-0.4,0.6-0.7,0.5-1,0C288.7,228.6,289,228.7,289.3,228.7z"/>
	<path fill="#ECC8C7" d="M72.9,408.7c6,0.4,13.4,1.6,17.6,9.1c4.8,8.8-0.5,19.3-11.8,22.6c-4.6,1.3-7.7,3.4-10.8,6.9
		c-8,9.1-21.2,7.5-25.4-2.8c-1.4-3.4-1.3-6.9-0.8-10.3C43.8,418.9,55.6,408.8,72.9,408.7z"/>
	<path fill="#ECC8C7" d="M72.5,385.8c0.1,5.6-2.5,8.8-7.1,8.9c-5.1,0.1-8.8-4.3-8.9-10.5c-0.1-5.4,3.2-9.5,7.5-9.5
		C68.5,374.7,72.5,379.9,72.5,385.8z"/>
	<path fill="#ECC8C7" d="M28.2,401.1c0-5.1,2.4-7.8,7-7.6c5.5,0.2,10.2,5.3,10.1,11c-0.1,4.6-3.3,8.1-7.2,7.9
		C33,412.3,28.2,406.8,28.2,401.1z"/>
	<path fill="#ECC8C7" d="M22.9,437.5c-5.8-0.4-10.7-5.6-10.2-10.9c0.3-3.6,4.3-7,8-6.8c5.1,0.2,10.7,6.1,10.4,11
		C31,434.9,27.4,437.8,22.9,437.5z"/>
	<path fill="#ECC8C7" d="M110.3,396c0,5.9-4.3,11.4-8.9,11.4c-3.9,0-6.7-3.4-6.8-8.3c-0.1-5.9,4.2-11.3,9-11.4
		C107.5,387.7,110.3,391.1,110.3,396z"/>
	<path fill="#ECC8C7" d="M526.4,437.9c-0.1,7.3-2.9,12.2-8.6,14.3c-6.9,2.5-13,0.4-17.6-4.7c-3.4-3.7-6.8-6.1-11.7-7.6
		c-10.1-3-15.2-12.3-11.9-20.6c2.8-7,8.9-9.1,15.9-10.2C510.6,406.1,526.6,419.6,526.4,437.9z"/>
	<path fill="#97765B" d="M370.3,422.6c-1.2-1.9-1-3.9-1-6c1.8-4.6,2.1-9.8,6-13.5c1-1,1.8-2.8,3.6-2c1.4,0.6,2.3,1.9,2.4,3.5
		c0.1,5.7,4.4,3.7,7.3,3.9c3.3,0.3,3.6-1.9,3.7-4.6c0.2-5.1,2-6.5,6.9-5.2c2.9,0.8,5.3,2.7,8.3,3.2c1.7,0.3,1.8,2.2,1.7,3.7
		c-0.2,4.1,0.2,8.2-0.8,12.4c-1.4,6.1-0.1,7.3,5.9,6.7c3.2-0.3,4.5,1.4,3.6,4.2c-0.8,2.6-0.8,5.3-0.5,7.9c0.3,2.6,1.3,4.9,4.6,4.8
		c2.7-0.1,3.7,0.9,2.5,3.6c-0.6,1.4,0.1,2.8,0.9,3.7c3.3,3.3,0.6,6-1,8.3c-1.6,2.2-4.3,1.1-6.8,1.2c-8.4,0.4-8.6-4.8-9.3-10.4
		c-0.5-4-1.7-7.2-7-5.6c-2.4,0.7-3.1-1.2-3.2-3.3c0-2.5,0-5,0-7.5c0-2.1-0.4-4.2-2.5-5.1c-2.9-1.2-2.5-3.5-2.5-5.9
		c-0.3-0.5-0.4-1.4-0.8-1.5c-1.1-0.2-1.1,0.8-1.2,1.5c-0.3,0-0.7,0-1,0c-2.1,0.1-4.2-0.6-6.3-0.7c-2.2-0.1-5.3-2-6.7,1.7
		C375,421.9,372.6,422.2,370.3,422.6z M402.4,415.6c-0.5-2.2-0.1-6-3-5.7c-3.9,0.3-2.8,4.9-3.7,7.6c-0.8,2.5,1.7,3.8,3.5,3.6
		C402,420.8,402,418,402.4,415.6z"/>
	<path fill="#ECC8C7" d="M532.8,393.5c4.1,0,7.3,3.4,7.3,7.7c0,5.4-5.5,11.2-10.7,11.1c-3.9,0-7.1-3.8-7-8.2
		C522.6,398.6,527.5,393.5,532.8,393.5z"/>
	<path fill="#ECC8C7" d="M511.4,384.2c0,6.3-3.4,10.6-8.7,10.6c-4.8,0-7.5-3.3-7.5-9.1c0-5.7,4.2-10.8,8.8-11
		C508.2,374.6,511.4,378.7,511.4,384.2z"/>
	<path fill="#ECC8C7" d="M544.3,437.6c-4.7-0.1-7.7-3.3-7.6-8c0.2-4.7,6.2-10,11-9.8c4.1,0.2,7.4,3.5,7.3,7.4
		C555,432.6,549.7,437.7,544.3,437.6z"/>
	<path fill="#ECC8C7" d="M457.4,396c0-3.6,1.2-6.8,5.2-7.9c4-1.1,6.5,1.4,8.6,4.4c0.1,0.1,0.1,0.3,0.2,0.5c1.8,4.3,2.9,8.6-0.6,12.6
		c-1.9,2.1-4.4,2.7-6.8,1.5C459.6,404.9,457.6,401.1,457.4,396z"/>
	<path fill="#96775C" d="M377.3,421.6c1.4-3.7,4.5-1.9,6.7-1.7c2.1,0.1,4.1,0.9,6.3,0.7c-0.2,1.9,3,5-1.9,5c-1.7-2.4-3.4-4.8-6.1-1
		C379.8,424.9,378.1,424,377.3,421.6z"/>
	<path fill="#96775C" d="M391.3,420.6c0.1-0.7,0.1-1.7,1.2-1.5c0.4,0.1,0.5,1,0.8,1.5C392.6,420.6,392,420.6,391.3,420.6z"/>
	<path fill="#97765B" d="M425.3,877.5c-3.7,0-7.3,0-11,0c-0.3-2.1-1.9-1.9-3.4-2c-6.9-0.3-13.7,0.3-20.7-1.6c-4.6-1.3-10-1-15.2,1
		c-4.5,1.8-9.6,0.3-14.4,0.6c-1.7,0.1-3.9-0.8-4.4,2c-7.7,0-15.3,0-23,0c-2-3.6-5.6-2.9-8.7-2.9c-10.4-0.2-14.2-4.1-14.3-14.6
		c-0.1-4-0.7-7.9-0.9-11.9c-0.2-2.5,0.1-4.9,1.2-7.3c1.5-3,0.9-6.1-0.6-9.1c-1.4-2.7-2.1-5.3,0.2-8.3c2.1-2.6,0.8-6.1,1.1-9.2
		c0.1-1.2-0.7-3.1,1.3-3.2c1.3-0.1,1.7,1.5,1.6,2.7c-0.1,3.2,1.9,3.9,4.6,3.8c0.3,0,0.7,0,1,0c10.4,0,9.4,0.8,9.5-9.4
		c0-5.8,0.9-6.6,6.7-6.6c8.3,0,16.7,0,25,0c1.5,0,3,0.2,4.4,0.6c2.1,0.6,3.6,2.2,3.5,4.3c-0.1,2.1-1.9,3-3.9,3
		c-2.1,0-3.8,0.9-3.6,3.2c0.9,8.2-3.3,15.9-2.1,24.1c0.9,6,2.7,11.9,2.2,18.1c-0.1,1.5,1.1,2.5,2.6,2.5c3.5,0.1,7,0.1,10.5,0
		c2.1-0.1,2.7-1.6,2.8-3.4c0.2-3.4,2.2-4.5,5.4-4.5c7,0,14,0.1,21,0c3.3,0,5.5,1,5.6,4.7c0.1,1.9,0.9,3.2,3,3.2c2.4,0,3-1.7,3-3.7
		c0-2.8,0-5.7,0-8.5c0-1.6-0.3-3.1-2.1-3.5c-3.5-0.9-4.1-3.4-3.9-6.5c0.2-3.8-0.2-7.6-0.9-11.4c-0.3-1.5-0.2-3.2,1.5-3.9
		c2-0.9,2.5,1,3.2,2.2c0.5,0.9,1,2.1,2,1.9c1.6-0.3,1.1-1.8,1.1-2.9c0.4-6.2-4.4-11.5-10.7-11.6c-2.2-0.1-4.3-0.1-6.5,0
		c-3.3,0.2-5.9-0.2-6-4.6c-0.1-2.5-2.2-3.5-4.7-3.5c-4,0-8-0.2-12,0.1c-3.2,0.2-6-0.9-6.8-3.9c-0.8-3.3,2.2-3.8,4.7-4.4
		c1.5-0.3,2.5-1.6,2.8-3.2c1.4-7.3,7.3-3.8,11.3-4.5c3.4-0.6,4.7,1.1,4.9,4.5c0.1,2.2,1.9,3.4,4.2,3.4c1.5,0,3,0.1,4.5,0
		c4.3-0.3,6.7,1.2,6.2,6c-0.2,2.1-0.6,4.3,1.2,7.7c0.6-4.8,1.8-8.4,1.3-11.8c-0.4-2.8,0-4.7,1.3-6.9c1.5-2.5,3.2-5.1,3.2-8.3
		c0-1.2,0.6-2.4,2.1-2.3c1.4,0.1,1.8,1.4,1.8,2.6c0,4.2-1.2,8.2-3.4,11.7c-1.3,2-2.2,4.1-1.3,6c2.2,4.6,2.6,9.5,3.4,14.4
		c0.3,2.2,1.3,3.9,2.6,5.8c2.4,3.5,5.4,6.9,4,12c-0.7,2.7,0.7,5.8,2.4,7.9c3.9,4.7,5.5,11.6,12.6,13.4c1.8,0.5,1.9,2.2,1.8,3.7
		c-0.2,4,0.3,7.9,1.7,11.7c1.3,3.9-0.7,5.8-5.1,6.4C433.5,874.1,428.5,873.1,425.3,877.5z"/>
	<path fill="#98785E" d="M411.2,506.6c3.9,11.6,8.2,23,10.6,35.1c0.3,1.3,0.3,2.6,0.5,3.9c-3-1.6-6.8,0-9.6-3.1
		c-1.4-1.5-2.2,0.5-1.9,2.3c0.4,2.3,1.9,4.6,0.3,7.2c-0.9,1.5-1.6,2.8-3.7,2.6c-2.1-0.2-2.6-1.8-3-3.4c-0.1-0.5-0.2-1.1-0.1-1.5
		c2.7-6,0.6-11.9,0-17.9c-0.4-4.4-0.2-8.3-3.1-12.5c-2.4-3.5-2.2-9.2,0.6-13.6c0.7-1.2,1.5-1.9,0.6-3.5c-2.5-4.4-1.2-7,3.9-8.6
		c0.2,2.5,2.4,4.3,2,7c-0.6,2-4.2,2.9-2,5.9C407.9,508.7,409.6,506.3,411.2,506.6z M410.8,512.1c-0.5-0.3-1.2-0.8-1.9-1.1
		c-1.1-0.4-1.6,0.3-1.4,1.3c0.1,1,1,1.2,1.9,1.2C410,513.4,410.8,513.4,410.8,512.1z"/>
	<path fill="#98785E" d="M377.3,421.6c0.8,2.5,2.5,3.4,4.9,3c0,0.7,0,1.3,0,2c-0.5,0.3-1.4,0.4-1.4,0.8c-0.2,1,0.7,1.1,1.5,1.2
		c1.9,11.4,7.5,21.7,10.1,32.9c-6.9,1.1-7.7,0.4-9.1-5.5c-1.7-7.1-3.9-14.2-8.3-20.2c-0.8-1.1-2.1-2.2-1.5-3.5
		c2.3-4.4-0.5-7-3.1-9.7C372.6,422.2,375,421.9,377.3,421.6z"/>
	<path fill="#97765B" d="M429.4,830.2c0.2-0.8-0.8-2.7,1.1-3.4c1.9-0.7,2.4,1.2,3.3,2.4c1.6,2.2,3.7,3.7,6.4,4.4
		c1.7,0.4,3.1,1.3,3.7,3.1c0.5,1.4-0.5,2.9-1.5,2.4c-3.4-2-7.5-1.1-10.9-3.1C429.5,834.8,429.1,832.9,429.4,830.2z"/>
	<path fill="#97765B" d="M428.2,567.2c-1.5-0.4-2.9-1-2.8-2.9c0.1-1.5,0.9-2.6,2.5-2.6c1.6,0,2.3,1.1,2.4,2.6
		C430.3,565.8,429.8,567,428.2,567.2z"/>
	<path fill="#96775C" d="M411.2,506.6c-1.6-0.2-3.3,2.1-5-0.1c-2.1-3,1.4-3.9,2-5.9C410.2,502.1,410.2,504.6,411.2,506.6z"/>
	<path fill="#96775C" d="M382.3,428.6c-0.7-0.1-1.7-0.2-1.5-1.2c0.1-0.4,0.9-0.5,1.4-0.8C382.2,427.2,382.2,427.9,382.3,428.6z"/>
	<path fill="#F0D8B0" d="M221.8,407.1c18-10.2,37.8-7.6,55.7,7.1c2.7,2.2,5.4,5.9,8.2,6c2.7,0,5.5-3.7,8.3-5.8
		c15.2-11.4,32.1-12.5,49.8-8.1c3,0.8,6,1.8,10.2,3.1c-6.5,1.7-11.8,3.2-17.1,4.6c-18.3,4.7-33.9,14.3-47.6,27.1
		c-2.8,2.6-4.4,2.7-7.3-0.1c-15.8-15.3-33.9-26.6-55.6-31.8C225,408.9,223.2,408.8,221.8,407.1z"/>
	<path fill="#96775C" d="M328.4,721.5c4.3,0,8.7,0,13,0c2,0,3.5,0.6,3.9,2.9c0.7,4.8,0.6,9.5,0,14.2c0,0.2,0,0.4-0.1,0.5
		c-3.3,4.8-8.2,1.5-12.3,2.3c-2.5,0.5-3.6-1.3-3.5-3.7c0-1.7-0.2-3.3-0.7-4.9c-0.7-2.2-1.7-3.5-4.2-3.3c-2.7,0.2-3.1,2-3.1,4.2
		c0,2.3-0.1,4.7,0,7c0.3,3.8-1.5,4.9-5,4.9c-7,0-6.6,0.1-7.1-7c-0.4-5.3,1.8-10.1,2.2-15.2c0.2-2.2,2.1-1.8,3.5-1.8
		C319.4,721.5,323.9,721.5,328.4,721.5z"/>
	<path fill="#57391D" d="M313.4,308.4c-0.3,14.3-5.1,26.5-17.9,34c-9.6,5.6-19.5,4.5-28.6-2.1c-19.5-14.2-19.5-50.1-0.1-64.4
		c13.3-9.7,30.9-6,39.7,8.3C311.1,291.6,313.3,299.6,313.4,308.4z M283.9,310.3c-7.7,0.1-14.7,2-20.5,7.5c-1.3,1.3-2.4,2.6-2,4.8
		c2.6,12.4,19.3,20.8,30.4,15c5.8-3,9.7-7.7,12.2-13.9c1.2-3.1,0.6-4.9-1.8-6.8C296.9,312.7,290.9,310.2,283.9,310.3z"/>
	<path fill="#4E341D" d="M323.2,159.5c0.5-2.3,2.2-3.8,3.9-5.3c1.8,2.6,2.8,6.4,7.3,4.4c2.2,0.9,2.4,1.1,4.6-0.9
		c8.4-7.6,19-7.6,28.9-6.6c14.8,1.4,26.6,14.4,29.3,29.4c2.8,15.8-3.6,30.1-17.2,38.4c-12.1,7.4-29.2,6.4-40.9-2.4
		c-10.8-8.2-15.1-19.4-14.5-32.8c0.6-5.7,3.7-10.6,4.7-16.2l0,0.1c1,0.4,0.9-0.5,1.1-1c0.9-0.4,1.6-1.1,1.7-2.1
		c0-0.2-0.4-0.5-0.6-0.5c-1.3,0-1.2,1.2-1.6,2c-0.3,0.1-0.5,0.3-0.6,0.5C325.8,165.5,325.3,161.8,323.2,159.5z M361,157.9
		c-3.4,6.7-3.7,13.9-8,19.6c-4.6,6.1-12.2,6.3-18.7,9.9c17.6,1.5,23.1,13.8,26,28.6c3.1-6.9,3.6-14.1,7.9-19.8
		c4.5-5.9,12-6.1,18.4-9.9C369.1,184.8,362.7,173.6,361,157.9z M343.3,160.6c-4.8,0.1-8.5,3.9-8.3,8.7c0.2,4.8,4,8.3,8.7,8.1
		c4.6-0.2,8.4-4.3,8.3-8.9C351.8,164,347.9,160.5,343.3,160.6z M379,199.6c-3.1,0.5-5.4,2.2-5.4,5.7c0,3.5,2,5.6,5.5,5.7
		c3.7,0.1,6-2,5.9-5.8C384.9,201.6,382.6,200,379,199.6z M333.4,161.7c0.1-0.1,0.2-0.3,0.3-0.4c-0.3,0-0.5-0.1-0.8,0
		c-0.1,0-0.1,0.3-0.1,0.4C332.9,161.7,333.2,161.7,333.4,161.7z"/>
	<path fill="#F7E8DC" d="M324.7,183.8c-0.6,13.3,3.7,24.5,14.5,32.8c11.6,8.8,28.8,9.8,40.9,2.4c13.6-8.3,20-22.6,17.2-38.4
		c-2.7-15-14.5-27.9-29.3-29.4c-9.9-1-20.5-1-28.9,6.6c-2.2,2-2.4,1.8-4.6,0.9c5.5-5.4,11.5-10.1,18.9-12.8c0.3-0.1,0.7-0.1,1-0.2
		c0.7-0.2,1.4-0.4,2.1-0.7c5.6-1,11.2-1.5,16.9-0.8c31.2,7.8,47.4,30.3,45.2,62.5c-0.3,3.9-1.9,7.8-1,11.8c-0.4,3.9-2.9,5.4-6.5,6.3
		c-27.4,6.9-54.1,4.6-80.5-4.7c-2.3-0.8-4.7-1.6-7-2.5c-0.2-2.1-0.3-4.3-0.6-6.4c-1-9.2-1.4-18.4,0.5-27.6
		C323.8,183.7,324.2,183.7,324.7,183.8z"/>
	<path fill="#57391D" d="M356.4,145c-0.7,0.2-1.4,0.4-2.1,0.7c-0.5-0.8-0.8-0.5-1,0.2c-7.3,2.8-13.3,7.4-18.9,12.8
		c-4.5,2.1-5.6-1.8-7.3-4.4c7.3-10.7,17.9-16.2,30.2-18.4c31.8-5.7,64,18.8,69,51.1c1.2,8,1,15.9,0.8,23.9c-0.2,7.8-2.1,9.2-9.7,7.7
		c-0.9-4,0.7-7.9,1-11.8c2.2-32.2-14-54.8-45.2-62.5c-2.6-1.8-14.3-2.3-16.6-0.6C356.4,143.8,356.5,144.5,356.4,145z"/>
	<path fill="#57391D" d="M323.4,183.6c-1.9,9.2-1.5,18.4-0.5,27.6c0.2,2.1,0.4,4.3,0.6,6.4c-5.5,3.1-8.3,2-9.2-4.3
		c-2.2-16.9-1.8-33.5,6-49.2c0.8-1.6,1.9-3.1,2.9-4.6c2,2.3,2.6,5.9,6,7.1c0,0.3,0.1,0.7,0.1,1c0,0,0-0.1,0-0.1
		C325.6,172.3,324.2,177.8,323.4,183.6z"/>
	<path fill="#F0D8B0" d="M379.3,239.2c-0.2,1.1-0.7,0.9-1.2,0.2C378.5,239.4,378.9,239.3,379.3,239.2z"/>
	<path fill="#F7E8DC" d="M242.1,217.6c-6.9,1.3-13.1,4.7-19.8,6.5c-15.9,4.3-32.2,4.8-48.5,4.3c-7.7-0.2-15.4-2.6-23.1-4.2
		c-2.7-0.6-4.4-2.7-4.6-5.7c0.3-2.2,0.1-4.3-0.2-6.4c-2.4-18.8,0.8-36.1,13.7-50.8c14.5-16.7,36.9-22.5,55.8-14.5
		c0.1,1.7,0,3.4-1,4.9c-3.1-0.5-6.2-1.1-9.3-1.6c-2.3-0.5-4.7-1.2-6.8,0.8c-6.2,0.9-11.8,3.2-16.8,6.9
		c-13.7,10.3-18.4,29.3-10.8,45.3c7.7,16.2,24.3,23.3,40.5,19.9c20.5-4.3,31.1-20.4,28.7-42.3c0.5,0,1,0,1.5,0
		c0.5,2.6,1.1,5.3,1.6,7.9c0.8,8.1-0.1,16.1-0.5,24.1C242.3,214.3,242.2,215.9,242.1,217.6z"/>
	<path fill="#57391D" d="M215.4,146.7c-18.9-7.9-41.2-2.2-55.8,14.5c-12.8,14.8-16.1,32-13.7,50.8c0.3,2.2,0.5,4.3,0.2,6.4
		c-7.4,0.9-9.1-0.2-9.6-7.2c-1.3-18.4,1.1-36,12.6-51.1c11-14.4,25.1-23.3,43.7-25.9c28.5-4,52.4,18.2,57,42.2
		c2.3,12.3,2.7,24.3,1.5,36.6c-0.6,5.7-4,7.4-9.2,4.4c0.1-1.7,0.2-3.3,0.3-5c2.5-0.4,1.9-2.3,1.9-3.9c0-5.4,0-10.9,0-16.3
		c0-1.5,0.3-3-1.4-3.9c-0.5-2.6-1.1-5.3-1.6-7.9c-0.5-5-2.7-9.5-5-13.9C231.9,157.3,225.1,150.5,215.4,146.7z"/>
	<path fill="#DF9D88" d="M180.5,256.6c7.6,0.3,9.6,4.4,6.3,11.2c-4.7,9.5-12.8,12.3-22.4,14c-12,2.1-23.3-0.7-34.7-3.6
		c-5.5-1.4-11.8-11-11.3-16.6c0.3-3.5,3.4-4.6,5.3-6.8c5.8-6.7,14.4-6.9,21.8-10c1.1-0.5,2.9-0.5,3.9,0.1c5.1,3.2,10.9,1.5,16.3,2.9
		c4.5,1.1,9.7,1.4,11.8,6.8c-5.5,1.2-8.1,6-11.8,9.4c-2.1,1.9-6.3,4.1-3.4,7.5c3.1,3.7,5.9-0.6,7.7-2.3
		C173.9,265.4,179.3,262.6,180.5,256.6z M145.3,254.5c0.1-1.9-0.3-2.9-1.4-3.5c-1.7-0.8-3.2-0.2-4.5,1.1c-3.7,3.8-7.5,7.5-11.2,11.3
		c-1.6,1.5-2.7,3.4-1,5.2c1.7,1.9,4,1.6,5.8,0c3.7-3.6,7.3-7.2,10.9-11C144.6,256.6,145,255.2,145.3,254.5z M145.5,272.4
		c0.6-0.3,1.3-0.4,1.8-0.8c5.4-4.2,9.9-9.2,14.5-14.2c1.1-1.2,1-3-0.4-4c-1.6-1.2-3.4-1.4-4.9,0.2c-2,2-3.9,4.1-5.8,6.1
		c-2.3,2.6-5.4,4.5-6.8,7.8C143,269.6,142.9,271.4,145.5,272.4z"/>
	<path fill="#D47672" d="M180.5,256.6c-1.2,6.1-6.6,8.8-10.5,12.5c-1.9,1.7-4.6,6.1-7.7,2.3c-2.9-3.5,1.4-5.6,3.4-7.5
		c3.7-3.4,6.3-8.3,11.8-9.4C178.8,254.6,179.9,255.2,180.5,256.6z"/>
	<path fill="#DF9D88" d="M440.4,258.6c6.8,0.2,8.7,3.1,5.7,9.2c-3,6.2-7.4,9.7-14.9,11.3c-7.9,1.7-15.7,3.3-23.8,3.8
		c-1.7,0.1-3.2-0.1-4.8-0.3c-9.3-1.4-17.1-6.2-25.2-10.5c-2.3-1.2-2.9-8.3-1.1-11.9c2-3.9,5-6.8,8.7-8.5c6.7-3.1,13.1-8.1,21.5-5.3
		c1.6,0.5,3.8,0.5,5.4-0.2c7.8-3.1,14,1.4,20.6,3.9c2,0.8,1.9,3,2.9,4.4c-2.6,4.1-7.8,5.5-10.4,9.7c-1.5,2.3-5.4,4.6-2.3,7.5
		c3.2,3,5.5-1.2,7.8-2.8C434.5,266.2,436.2,261.2,440.4,258.6z M406.1,272.5c0.3-0.1,0.9-0.2,1.2-0.5c4.9-4.9,9.9-9.8,14.6-14.9
		c1.2-1.3,0.4-3.1-0.9-4.4c-1.5-1.5-2.8-0.7-3.9,0.4c-3.4,3.5-7,7-10.8,10.1c-1.4,1.1-2.4,2.8-3.3,4.3
		C401.8,269.7,403.6,272.5,406.1,272.5z M389.8,269.6c0.4-0.2,1.2-0.4,1.9-0.9c5.1-3.2,8.7-8,12.4-12.7c1-1.3,1.6-2.9-0.1-4.4
		c-1.9-1.6-3.6-1.4-5.3,0.2c-4.1,3.8-7.8,8-11.4,12.4c-0.9,1.1-1.1,2.4-0.6,3.7C387.1,269.1,388.1,269.6,389.8,269.6z"/>
	<path fill="#D47672" d="M440.4,258.6c-4.2,2.6-5.8,7.6-9.9,10.2c-2.4,1.5-4.6,5.7-7.8,2.8c-3.1-2.9,0.8-5.1,2.3-7.5
		c2.6-4.2,7.7-5.6,10.4-9.7C438.2,254.3,440.6,254.9,440.4,258.6z"/>
	<path fill="#98785E" d="M402.4,415.6c-0.4,2.4-0.4,5.2-3.2,5.5c-1.8,0.2-4.4-1.1-3.5-3.6c0.9-2.7-0.2-7.3,3.7-7.6
		C402.3,409.7,401.8,413.4,402.4,415.6z"/>
	<path fill="#96775C" d="M410.8,512.1c-0.1,1.2-0.8,1.3-1.4,1.3c-0.9,0-1.7-0.2-1.9-1.2c-0.1-1,0.4-1.6,1.4-1.3
		C409.7,511.3,410.3,511.8,410.8,512.1z"/>
	<path fill="#D47672" d="M283.9,310.3c7-0.1,13,2.4,18.3,6.6c2.4,1.9,3,3.7,1.8,6.8c-2.5,6.2-6.4,10.9-12.2,13.9
		c-11.1,5.8-27.8-2.6-30.4-15c-0.4-2.2,0.6-3.5,2-4.8C269.2,312.3,276.2,310.4,283.9,310.3z"/>
	<path fill="#E6C273" d="M361,157.9c1.7,15.6,8.1,26.8,25.6,28.5c-6.4,3.8-13.9,4-18.4,9.9c-4.4,5.7-4.8,12.9-7.9,19.8
		c-2.9-14.8-8.4-27.1-26-28.6c6.6-3.6,14.2-3.8,18.7-9.9C357.2,171.8,357.5,164.6,361,157.9z"/>
	<path fill="#F7E8DC" d="M343.3,160.6c4.6-0.1,8.5,3.4,8.6,7.9c0.1,4.6-3.7,8.7-8.3,8.9c-4.7,0.2-8.5-3.3-8.7-8.1
		C334.8,164.5,338.5,160.7,343.3,160.6z"/>
	<path fill="#F7E8DC" d="M379,199.6c3.6,0.4,5.9,2.1,6,5.6c0.1,3.8-2.2,5.8-5.9,5.8c-3.5-0.1-5.5-2.2-5.5-5.7
		C373.6,201.7,375.8,200,379,199.6z"/>
	<path fill="#DF9D88" d="M323.4,183.6c0.8-5.8,2.2-11.3,5.9-16c-0.9,5.6-4.1,10.5-4.7,16.2C324.2,183.7,323.8,183.7,323.4,183.6z"/>
	<path fill="#DF9D88" d="M329.9,166.1c0.4-0.8,0.3-2,1.6-2c0.2,0,0.6,0.4,0.6,0.5c-0.1,1-0.7,1.7-1.7,2.1
		C330.2,166.5,330,166.3,329.9,166.1z"/>
	<path fill="#DF9D88" d="M333.4,161.7c-0.2,0-0.4,0-0.6,0c0-0.1,0.1-0.4,0.1-0.4c0.2,0,0.5,0,0.8,0
		C333.5,161.5,333.5,161.6,333.4,161.7z"/>
	<path fill="#DF9D88" d="M329.3,167.7c0-0.3-0.1-0.7-0.1-1c0.2-0.2,0.4-0.4,0.6-0.5c0.2,0.2,0.4,0.4,0.5,0.6
		C330.2,167.2,330.3,168,329.3,167.7z"/>
	<path fill="#4E341D" d="M356.4,145c0.1-0.5,0-1.2,0.3-1.4c2.3-1.7,14-1.2,16.6,0.6C367.6,143.5,362,144,356.4,145z"/>
	<path fill="#4E341D" d="M353.3,145.8c0.2-0.7,0.5-1,1-0.2C354,145.7,353.6,145.7,353.3,145.8z"/>
	<path fill="#4E341D" d="M205.1,150c3.1,0.5,6.2,1.1,9.3,1.6c8.1,3.1,15,7.8,20.1,15c2.4,4.4,4.2,9,5.4,13.9
		c2.5,21.9-8.2,38-28.7,42.3c-16.2,3.4-32.8-3.7-40.5-19.9c-7.5-16-2.9-35,10.8-45.3c5-3.8,10.6-6.1,16.8-6.9
		C200.7,151.9,203.1,152.5,205.1,150z M231.3,187.1c-17.5-2.1-24.4-13.5-26.7-29.5c-2.5,15.9-9,27.3-26.8,29.4
		c17.8,2,23.7,13.9,26.8,29.1C207.4,200.7,213.7,189.3,231.3,187.1z M194.7,169c0.1-4.7-3.7-8.5-8.5-8.5c-4.5,0-8.1,3.6-8.3,8.2
		c-0.1,4.2,4.5,9.7,8.2,9.7C189.8,178.4,194.6,173.1,194.7,169z M216.5,205.9c0.3,3.3,2.4,5.2,5.8,5.1c3.4-0.1,5.7-2.1,5.6-5.7
		c-0.1-3.7-2.5-5.8-6.1-5.7C218.3,199.8,216.6,202.1,216.5,205.9z"/>
	<path fill="#ECC8C7" d="M234.4,166.7c-5.1-7.2-12-11.9-20.1-15c1-1.5,1.1-3.2,1-4.9c9.7,3.8,16.5,10.6,21,20
		C235.7,166.7,235.1,166.7,234.4,166.7z"/>
	<path fill="#E5B196" d="M234.4,166.7c0.6,0,1.3,0,1.9,0c2.3,4.4,4.5,8.8,5,13.9c-0.5,0-1,0-1.5,0C238.7,175.7,236.8,171.1,234.4,166.7
		z"/>
	<path fill="#4E341D" d="M242.9,188.5c1.7,0.9,1.4,2.5,1.4,3.9c0,5.4,0,10.9,0,16.3c0,1.6,0.5,3.5-1.9,3.9
		C242.9,204.6,243.8,196.5,242.9,188.5z"/>
	<path fill="#ECC8C7" d="M205.1,150c-2,2.5-4.4,1.8-6.8,0.8C200.4,148.8,202.7,149.5,205.1,150z"/>
	<path fill="#D47672" d="M145.3,254.5c-0.3,0.7-0.7,2.1-1.5,3c-3.5,3.8-7.1,7.4-10.9,11c-1.8,1.7-4.1,1.9-5.8,0
		c-1.7-1.8-0.5-3.7,1-5.2c3.8-3.7,7.5-7.5,11.2-11.3c1.3-1.3,2.8-1.9,4.5-1.1C145.1,251.6,145.4,252.6,145.3,254.5z"/>
	<path fill="#D47672" d="M145.5,272.4c-2.6-1-2.4-2.9-1.6-4.9c1.4-3.3,4.5-5.2,6.8-7.8c1.9-2.1,3.8-4.1,5.8-6.1
		c1.5-1.6,3.4-1.4,4.9-0.2c1.4,1,1.5,2.8,0.4,4c-4.6,5-9.1,10-14.5,14.2C146.8,272,146.1,272.1,145.5,272.4z"/>
	<path fill="#D47672" d="M406.1,272.5c-2.5,0.1-4.3-2.8-3.1-4.9c0.9-1.6,1.9-3.2,3.3-4.3c3.8-3.1,7.4-6.6,10.8-10.1
		c1.1-1.1,2.4-1.9,3.9-0.4c1.3,1.3,2.1,3.1,0.9,4.4c-4.7,5.1-9.7,10-14.6,14.9C406.9,272.3,406.3,272.4,406.1,272.5z"/>
	<path fill="#D47672" d="M389.8,269.6c-1.7,0-2.7-0.4-3.2-1.7c-0.5-1.3-0.3-2.6,0.6-3.7c3.5-4.4,7.2-8.6,11.4-12.4
		c1.7-1.6,3.4-1.7,5.3-0.2c1.7,1.5,1.2,3,0.1,4.4c-3.6,4.7-7.2,9.4-12.4,12.7C391,269.2,390.2,269.4,389.8,269.6z"/>
	<path fill="#E6C273" d="M231.3,187.1c-17.6,2.2-23.9,13.6-26.7,28.9c-3.1-15.2-9.1-27.1-26.8-29.1c17.8-2.1,24.4-13.4,26.8-29.4
		C207,173.6,213.8,184.9,231.3,187.1z"/>
	<path fill="#F7E8DC" d="M194.7,169c-0.1,4.1-5,9.4-8.6,9.4c-3.6,0-8.3-5.5-8.2-9.7c0.1-4.6,3.8-8.2,8.3-8.2
		C191.1,160.6,194.9,164.4,194.7,169z"/>
	<path fill="#F7E8DC" d="M216.5,205.9c0-3.8,1.8-6.1,5.3-6.2c3.7-0.1,6.1,1.9,6.1,5.7c0.1,3.5-2.2,5.5-5.6,5.7
		C218.9,211.1,216.8,209.2,216.5,205.9z"/>
</g>
</svg>
