<?xml version="1.0" encoding="utf-8"?>
<!-- Generator: Adobe Illustrator 26.0.3, SVG Export Plug-In . SVG Version: 6.00 Build 0)  -->
<svg version="1.1" id="Capa_1" xmlns="http://www.w3.org/2000/svg" xmlns:xlink="http://www.w3.org/1999/xlink" x="0px" y="0px"
	 viewBox="0 0 534.5 884" style="enable-background:new 0 0 534.5 884;" xml:space="preserve">

<g>
	<path fill="#8E745C" d="M118.1,756.2c-0.1-0.7-0.2-1.4-0.3-2c1.7-6.9-0.7-13.4-1.8-20c-0.3-1.9,1.2-4.9-2-6c-0.1-0.7-0.1-1.4-0.2-2.1
		c1.3-1.6,1.7-3-0.7-3.9c-0.1-0.7-0.2-1.4-0.3-2.1c2.1-3.5,0.3-7,0.1-10.5c-0.9-14.9-3.1-29.7-3.3-44.7c-0.1-10.3,0.6-20.5,2.6-30.6
		c1.1-5.5-1.2-10.8,0.4-16.1c-0.1-2.9,0.5-5.7,1.8-8.1c4.8-8.6,6.8-18.1,10.1-27.2c2.5-6.8,4.9-13.8,7.8-20.3
		c5.9-13.1,10.6-26.7,15.7-40.1c4.3-11.5,8.1-23.4,12.5-34.8c5.8-14.9,11.8-29.9,17.1-45c6.6-18.7,13.8-37.4,16.9-57.3
		c0.9-6.1,2.1-12.1,0.2-18.2c1.9-0.5,3.6,0.4,5.3,0.9c21.1,6,42.5,9.5,64.4,9.8c23,0.3,45.8-2.7,68.2-8.2c2.5-0.6,4.9-1.1,7.1,0.7
		c1.6,5.4,0.9,11.3,2.3,16.6c2.5,10.2,4.8,20.5,8.8,30.2c3.7,9,5.4,18.6,9.6,27.6c2.8,6.1,5.8,12.5,6.9,19.1
		c1.1,6.7,4.2,12.4,6.4,18.4c3.4,9.3,8,18.1,11.2,27.5c4.6,13.8,9.6,27.4,15,40.9c4.2,10.4,7.7,21,12.3,31.3
		c3.1,6.9,4.8,14.4,7.6,21.4c1.5,3.7,3.4,7.2,2.8,11.4c-0.4,2.4,0.9,3.7,3,4.5l0,0c-0.3,0.6-0.7,1.2-1,1.8
		c-1.6,3.9,0.2,7.7,0.4,11.4c1.6,28.5,0.1,56.9-3.8,85.2c-4.2,31.3-9.2,62.5-14.5,93.7c-0.5,3.2,1.2,4.4,3.4,5.8
		c10.3,6.8,20.5,13.6,26.8,24.8c6.2,11,4.9,25-3.1,32.2c-1.6-0.2-3.1,0-4.3,1c-3.4,3.1-7.5,2.9-11.7,2.9c-38.3,0-76.5,0-114.8,0
		c-8.4,0-12.2-4-12.4-12.4c-0.1-2.5,1.7-5.7-1.7-7.6c-0.1-1.3-0.1-2.7-0.2-4c1.2-1,0.8-2.4,0.9-3.7c1.2-12.9-2.4-25.8-0.5-38.7
		c0.3-1.9-1.4-1.4-2.5-1.5c0-1.3-0.1-2.7-0.1-4c3.2-2.9,2.9-9.5-0.6-12c-0.8-12.9-1.7-25.9-2.3-38.8c-1.1-23.8-2.1-47.5-2.9-71.3
		c-0.1-3.7-1.1-4.9-4.8-4.7c-5.8,0.3-11.6,0.2-17.5,0.1c-2.5,0-3.8,0.3-3.9,3.5c-1.9,47.2-4,94.4-6.2,141.6c-0.7,15-1.9,29.9-2,44.9
		c0,4.7-2.1,8.3-7,9.7c-1.7-1.7-3.8-0.9-5.7-0.9c-24.3-0.1-48.6,0-72.8,0c-15.8,0-31.6,0-47.3,0c-1.7,0-3.7-0.7-5.1,1
		c-14.9-4.8-20.7-22.8-12.1-37.3c6.5-11,16.3-18.2,27-24.5c3.1-1.8,4.5-3.3,3.3-6.9c-0.8-2.6-0.8-5.6-1.1-8.3
		c1.5-2.4,0.7-4.9,0.3-7.4c-1.2-8.6-3.5-17-4.6-25.7C120.9,764.8,122.2,759.7,118.1,756.2z M338.4,410.5
		c-24.8-9.3-46.7-8.3-65.8,9.6c-2.3,2.1-3.6,1.1-5.3-0.5c-6.3-6.1-13.5-10.8-21.6-14.2c-13.6-5.8-26.7-4.4-40.1,2.9
		c6.8,2.1,12.8,3.7,18.7,5.8c16.3,5.8,29.9,15.9,42.3,27.6c2.9,2.7,4.8,2.5,7.5,0c6.6-6.1,13.7-11.6,21.5-16.2
		C308.3,417.9,322.4,413.7,338.4,410.5z"/>
	<path fill="#F2DAB2" d="M339.8,370.5c-2.2-1.8-4.6-1.3-7.1-0.7c-22.4,5.4-45.1,8.5-68.2,8.2c-21.9-0.3-43.4-3.8-64.4-9.8
		c-1.7-0.5-3.4-1.4-5.3-0.9c-0.3-0.1-0.5-0.1-0.8-0.1c-0.4-0.3-0.8-0.6-1.2-0.9c-7.9-3.7-16.4-5.9-24.1-9.9
		c-2.1-1.1-4.3-2.6-6.9-2.3c-0.1-0.2-0.1-0.3,0-0.5c-3-4-7.3-5.6-12-6.4c0,0,0,0,0,0c-1.2-3.3-4-3.9-7-4c0,0,0,0,0,0
		c0-2.2-1.5-2.1-3-2c0,0,0,0,0,0c0-2.1-1.5-2.1-3-2c0,0,0,0,0,0c0-2.2-1.5-2.1-3-2c0,0,0,0,0,0c0-2.2-1.5-2.1-3-2c0,0,0,0,0,0
		c-0.3-0.3-0.7-0.7-1-1c0,0,0,0,0,0c-0.6-3.4-3.3-4.2-6-5c0,0,0,0,0,0c-0.4-0.9-1.1-1-2-1c0,0,0,0,0,0c0.1-1.4-0.6-2-2-2
		c0,0,0,0,0,0c-0.3-0.3-0.7-0.7-1-1c0,0,0,0,0,0c-0.5-1-1.3-1.1-2.3-1c-0.3-0.2-0.5-0.5-0.8-0.7c-0.3-0.4-0.7-0.9-1-1.3c0,0,0,0,0,0
		c-0.3-0.3-0.7-0.7-1-1c0,0,0,0,0,0c-1.7-4.3-4.7-7.3-9-9c0,0,0,0,0,0c0-2-1-3-3-3c0,0,0,0,0,0c0.3-3.7-2.6-5.2-5-7c0,0,0,0,0,0
		c-0.3-0.3-0.7-0.7-1-1c0,0,0,0,0,0c-0.4-3.3-2.2-5.4-5-7c0,0,0,0,0,0c0.1-1.5-0.6-2.5-2-3c0,0,0,0,0,0c-0.3-0.3-0.7-0.7-1-1
		c0,0,0,0,0,0c-2.3-7.5-6.5-14.1-10-21c0,0,0,0,0,0c0.4-3.2-0.8-6.2-1.5-9.3c-2.7-10.9-4.3-21.9,0.1-32.7c2.7-6.7,3.7-13.6,3.7-20.9
		c0-5.2,1.5-10.4,2.1-15.7c0.9-8.1,4.5-15.6,5.6-23.6c0.4-1.2,0.8-2.5,1.2-3.7c6.6-14.3,14.3-27.9,24.5-40c1.2-1.5,1.8-3.1,1.7-5
		c2.1,0.3,3.3-1.1,4.7-2.4c3.3-3.2,6.5-6.5,10-9.5c5.1-4.4,10.3-8.5,15.7-12.6c6.4-4.8,13.1-9,20.2-12.4c7.8-1.2,15.5-1.5,23.3-0.5
		c26.4,3.6,48.3,16,67.2,34.4c6.1,6,6,6,12.2,0c19.8-19.1,43.2-30.6,70.5-34.2c10.4-1.4,20.6-0.1,30.8,0.3l-0.1-0.1
		c0.3,0.9,1.2,0.8,1.9,1c6,4.1,11.8,8.7,18.2,12.3c11.9,6.7,19.6,17.8,29,27.2c2.1,2.1,2.7,6.1,6.9,5.6c-0.1,1.8,0,3.6,1.1,5.2
		c8.9,12.6,15.1,26.6,20.8,40.9c0.3,1.9,0.2,3.9,2.2,5c0,0.6,0,1.2,0,1.9c-1,0.7-1,1.6-0.7,2.6c2.5,10.8,5,21.6,4.7,32.8
		c0,1.6,0.4,2.9,2.1,3.6c0,0,0,0,0,0c0.4,1.2,0.7,2.6,1.3,3.7c3.5,6.4,4.7,13.2,4.7,20.5c0,14.3-3.9,27.6-9,40.8
		c-0.9,2.4-3.5,4.1-3,7.1c0,0,0,0,0,0c-1.9,0.7-2.2,2.3-2,4c0,0,0,0,0,0c-2.1,0-2.1,1.5-2,3c0,0,0,0,0,0c-0.3,0.3-0.7,0.7-1,1
		c0,0,0,0,0,0c-0.9,0.4-1.1,1.2-1,2c0,0,0,0,0,0c-1.4,0-2,0.7-2,2c0,0,0,0,0,0c-1.7,0.8-3,1.9-3,4c0,0,0,0,0,0c-0.3,0.3-0.7,0.7-1,1
		c0,0,0,0,0,0c-3,1.5-5,3.8-6,7c0,0,0,0,0,0c-0.9,0.4-1.1,1.1-1,2c0,0,0,0,0,0c-0.9,0-1.6,0.1-2,1c0,0,0,0,0,0c-0.9,0.4-1.1,1.1-1,2
		c0,0,0,0,0,0c-1.4,0-2,0.6-2,2c0,0,0,0,0,0c-2.2-0.1-3.9,0.3-4,3c0,0,0,0,0,0c-0.3,0.3-0.7,0.7-1,1c0,0,0,0,0,0
		c-1.5,0-2.1,0.8-2,2.2c-0.3,0.3-0.5,0.5-0.8,0.8c-3.8-0.4-5.4,2.5-7.2,5c0,0,0,0,0,0c-1.5-0.1-2.5,0.6-3,2c0,0,0,0,0,0
		c-1.4,0-2.1,0.6-2,2c0,0,0,0,0,0c-1.5-0.1-3-0.1-3,2c0,0,0,0,0,0c-1.5-0.1-3-0.1-3,2c0,0,0,0,0,0c-0.9,0-1.6,0.1-2,1c0,0,0,0,0,0
		c-1.8-0.2-3.3,0.1-4,2c0,0,0,0,0,0c-0.3,0.3-0.7,0.7-1,1c0,0,0,0,0,0c-4.1,0.1-7.1,2.4-10,5c0,0,0,0,0,0c-0.3,0.3-0.7,0.7-1,1
		c0,0,0,0,0,0c-1.5-0.1-2.9-0.1-3.1,1.9c-0.4,0-0.8,0.1-1.2,0.1c-11.6,4.7-23.1,9.9-35.3,13C340.5,367.8,339.7,368.8,339.8,370.5z
		 M237.8,232.4c-3.4,0.5-6.4,1.7-8,5c-15.6,3.6-30,9.9-41.9,20.9c-11.5,10.6-16.8,23.4-11.8,39.1c3.4,10.7,9.7,19.7,17.9,27.2
		c37.2,34.1,94.2,37.8,135.5,8.9c11.9-8.3,21.9-18.5,27.5-32.2c4.4-10.9,5.1-21.9-1.4-32.1c-12-18.8-30.5-27.4-51.5-31.9
		c-1.6-2-3.3-3.8-6.2-3.9c-3.8-1.6-7.9-2.1-12-2.6c-0.7-0.1-1.4-0.2-2-0.2c-1.3-0.2-2.6-0.8-4,0c-1-0.1-2-0.1-3-0.2
		c-0.4-1-1.2-0.9-2-0.8c-1.7,0-3.3-0.1-5-0.1c-4,0-8,0-12,0c-1,0-2,0.1-3,0.1c-2.7-0.2-5.3,0.3-8,1c-0.3,0.1-0.7,0.1-1,0.2
		c-1.3,0.3-2.6,0.6-3.9,0.8c-0.4,0-0.7,0.1-1.1,0.1C239.6,231.4,238.7,231.8,237.8,232.4z M296.7,191.3c-1.4,0.3-2.9,0.6-4.3,1.1
		c-7.2,2.5-8.5,4.9-7.3,12.3c1,6,3.9,10.9,8.3,15c6.3,5.9,14.1,9.4,22,12.5c14.1,5.4,29,7,43.9,8.6c18.7,1.9,37.5,2.6,56.1-1.3
		c21.2-4.5,27.2-19.4,24.8-37.8c-2.7-20.7-12.5-38.1-26.4-53.2c-8.5-9.2-18.9-12.6-31.2-7.9c-7.4,2.8-14.1,6.7-20.6,11
		c-12.8,8.4-25.7,16.6-38.5,25c-7.9,5.2-16.4,9.3-24.7,13.9C298.1,190.8,297.4,191,296.7,191.3z M150.7,242.2
		c12.7,0.1,25.2-1.3,37.8-3c15.8-2,31.1-5.6,44.9-14c8.9-5.4,14.9-12.7,16.1-23.3c0.5-4.2-0.7-7.3-5.1-9c-6.4-2.4-12.8-4.8-18.8-8
		c-20.3-10.8-38.9-24.3-58.3-36.7c-4.9-3.2-10.2-5.6-15.6-7.8c-10.3-4.1-20.1-2.5-27.9,4.9c-18.1,17-29.8,37.4-30.1,63
		c-0.2,17.9,7.8,27.3,25.4,31C129.5,241.5,140,242.3,150.7,242.2z M331.2,141c-3.8-0.1-7.2,1.2-10.5,2.8c-9.5,4.7-19.1,9.6-25,19.1
		c-1.9,3-3.2,6.5-0.7,9.8c2.4,3.2,6,3.4,9.5,2.9c6.2-0.9,11.9-3.3,16.8-7.2c6.5-5.1,13.8-9.5,16.7-18
		C340.1,144.7,337.3,141,331.2,141z M230,175.7c4.5,0.1,7.8-0.3,9.6-3.3c2-3.2,0.9-6.5-1.1-9.4c-8-11.4-19.2-18.2-32.5-21.6
		c-3.3-0.9-7.3-1.2-9.5,2.4c-2.3,3.7-0.9,7.5,1.4,10.7c6.6,8.9,15.2,15.3,25.4,19.4C225.9,175,228.6,175.3,230,175.7z M245.2,187.8
		c6.1,1.4,8.2-2.3,9.6-5.6c2.3-5.5,3.1-11.2-1.1-16.6C252.5,173.3,252.5,181.4,245.2,187.8z M288.8,187.6c-5.6-5.6-7.4-12.5-7.1-20
		c0-0.8,0-1.8-1.1-2c-1-0.2-1.3,0.8-1.7,1.5c-2.5,5.1-0.6,15.4,3.7,19.1C284.1,187.6,285.8,189.2,288.8,187.6z"/>
	<path fill="#97795D" d="M194,367.3c0.3,0,0.5,0,0.8,0.1c1.9,6.1,0.7,12.1-0.2,18.2c-3,19.8-10.3,38.5-16.9,57.3
		c-5.3,15.1-11.3,30.1-17.1,45c-4.4,11.4-8.2,23.3-12.5,34.8c-5,13.4-9.8,26.9-15.7,40.1c-2.9,6.5-5.3,13.5-7.8,20.3
		c-3.3,9.1-5.4,18.6-10.1,27.2c-1.4,2.4-1.9,5.3-1.8,8.1c-3.4,1.1-2.3,4.9-4,7c-4.1,1.4-4.9,3.7-1.9,7c-4.2,13.3-15.3,18.2-24.9,13
		c-1.7-0.9-2.6-0.2-3.8,1c-9.4,9.2-24.8,7.9-32.8-2.7c-1.3-1.8-2.5-2.5-4.9-2.2c-11.6,1.5-25-6.8-22.1-21c0.3-1.6,0-2.5-1.7-2.9
		C1.6,614,1.2,599.9,3.4,589c1.4-6.9,5.5-12.8,9.2-18.7C47.5,514.4,83,458.9,120.8,404.9c7.5-10.8,15.2-21.4,23-32
		c5.1-7,11.3-13,17.9-18.7c2.7-0.3,4.8,1.2,6.9,2.3c7.8,4,16.3,6.2,24.1,9.9C193.2,366.7,193.6,367,194,367.3z"/>
	<path fill="#97785D" d="M339.8,370.5c-0.1-1.7,0.7-2.7,2.4-3.2c12.2-3.1,23.7-8.2,35.3-13c33.5,36.1,58,78.6,85.3,119.1
		c21.6,32,42,64.8,62.8,97.3c5.8,9.1,10.4,18.6,8.4,30c-1.4,7.9-5.6,13-13.4,14.6c-2.1,0.4-2.1,1.4-2.1,3
		c-0.3,15.5-7.2,21.8-22.8,20.9c-1.7-0.1-2.7,0.4-3.7,1.7c-9.5,11.7-22.7,13-33.8,3.2c-1.2-1-2-1.2-3.5-0.7
		c-11.5,3.5-17.9,0.8-24.1-9.6c-2.5-4.1-2.4-9.3-5.9-13c0.3-0.6,0.7-1.2,1-1.8c0.1-0.1,0.2-0.3,0.2-0.4c-0.1,0.1-0.2,0.3-0.2,0.4
		c-2.1-0.8-3.4-2.1-3-4.5c0.6-4.2-1.3-7.7-2.8-11.4c-2.8-7-4.5-14.5-7.6-21.4c-4.6-10.2-8.1-20.9-12.3-31.3
		c-5.5-13.5-10.4-27.1-15-40.9c-3.1-9.4-7.8-18.2-11.2-27.5c-2.2-6-5.3-11.7-6.4-18.4c-1.1-6.5-4.1-13-6.9-19.1
		c-4.2-8.9-5.9-18.6-9.6-27.6c-4-9.7-6.3-20-8.8-30.2C340.8,381.8,341.4,375.9,339.8,370.5z"/>
	<path fill="#99785E" d="M369.8,81.4c-10.3-0.4-20.5-1.7-30.8-0.3c-27.3,3.6-50.8,15.1-70.5,34.2c-6.2,6-6.1,6-12.2,0
		C237.3,97,215.4,84.5,189,81c-7.8-1.1-15.6-0.7-23.3,0.5c10.7-7.3,23.1-10.9,35.7-16.1c-16.3-11.8-32.8-21.1-53-17.7
		c-13.8,2.3-24.6,9.8-31,22.6c-7.9,15.7-6.5,31.9-2.2,48.1c0.1,1.9-0.5,3.5-1.7,5c-10.2,12.1-17.9,25.7-24.5,40
		c-3.9-5.3-5.6-11.6-7.9-17.6c-2.7-7-3.7-14.3-6-21.3c-3.1-9.6-2.5-19.7-2.4-29.8c0.1-8.1,0-16.1,1.1-24c0.2-1.7,0.4-3.3,1.8-4.4
		c4-3.4,3.6-7.5,2.1-11.9c0.1-0.8,0.1-1.6,0.9-2c3.3-0.8,3.9-3.3,3.9-6.2c0,0,0,0.1,0,0.1c2.4-0.3,2.4-2.1,2.3-3.8c0,0,0,0,0,0
		c1.4-0.1,3.2,0.6,4-1.2c2.2-4.4,6.4-7,9.3-10.8c2.6-3.5,6.2-6.3,9.8-8.8c6.5-4.5,13.7-7.7,21.1-10.4c5.4-2,10.6-4.2,16.6-3.9
		c3.9,0.2,7.9-0.1,11.9-0.7c6.4-1,13-0.1,19.1,1.6c7.2,2,14,5.4,21,8c1.7,0.6,3,1.5,4.5,2.6c4.8,3.6,8.4,8.3,12.8,12.1
		c5.4,4.6,9.9,9.7,13.3,16c2,3.6,5.9,6.1,6.8,10.6c0.2,0.9,1.3,0.9,2.1,1c7.7,0.5,15.4,1.9,23.2,0.2c4.8-1,9.9-2.4,14.8-1
		c8.7,2.4,17.5,1.7,26.2,1.8c1.6,0,3.9,0.8,4.3-2c0,0,0,0,0,0c4.9-3.5,7.3-8.4,7.9-14.3c0-0.3,0.1-0.5,0.4-0.7
		c5.7-0.5,7.2-2.3,8.5-10.2c0,0-0.1,0,0,0c2.3,0.2,3.4-0.8,2.9-3.1c0,0,0,0.1,0,0.1c1.1-0.1,1.3-0.8,1.4-1.7c0,0,0.1-0.1,0.1-0.1
		c0.8-0.1,1.6-0.3,1.7-1.3c0,0-0.1,0-0.1,0c2.2,0.1,5-0.3,6-1.9c2.7-4.4,7.4-5.4,11.5-6.9c5.5-2.1,9.3-6.7,15.9-7.9
		c12.7-2.3,25.2-2.7,37.9-1.8c5.8,0.4,12.6,1,16.9,4.2c6.3,4.8,14.3,5.6,20.2,11.5c4.6,4.6,9.8,8.9,14.1,14c2,2.3,3.7,4.2,6.9,3.9
		c0,0,0,0,0,0c0.7,3.8,1.7,7.2,4.3,10.4c1.8,2.2,3.3,4.8,4.3,7.7c3.2,9.2,4.2,18.9,5.3,28.4c0.4,3.4,1.8,6.7,0.7,10.3
		c-1.5,4.8-2.2,9.8-1.6,14.7c1.2,9.9-4.8,18-6.4,27.2c-0.8,4.3-3.4,8.4-4.8,12.7c-2.4,7.7-5.7,15.1-12.1,20.6
		c-5.7-14.2-11.9-28.3-20.8-40.9c-1.1-1.6-1.2-3.4-1.1-5.2c4.5-13.5,6.7-27.1,5.2-41.5c-2.6-24.8-24.8-39.1-42.7-39
		C375,46.9,364,51.9,353,57.7c-4.6,2.4-9,5.4-13.1,9.2C350.3,71.5,360.8,74.9,369.8,81.4z"/>
	<path fill="#97795D" d="M305.7,57.3c-0.4,2.8-2.6,2.1-4.3,2c-8.8-0.1-17.5,0.6-26.2-1.8c-4.9-1.4-10,0-14.8,1
		c-7.9,1.6-15.5,0.3-23.2-0.2c-0.8-0.1-1.9-0.1-2.1-1c-0.9-4.5-4.8-7-6.8-10.6c-3.5-6.3-7.9-11.4-13.3-16
		c-4.4-3.8-8.1-8.5-12.8-12.1c-1.5-1.1-2.8-1.9-4.5-2.6c-7-2.6-13.8-6-21-8c-6.1-1.7-12.8-2.6-19.1-1.6c-4,0.6-7.9,0.9-11.9,0.7
		c-6-0.3-11.2,1.9-16.6,3.9c-7.4,2.7-14.6,5.8-21.1,10.4c-3.6,2.5-7.2,5.4-9.8,8.8c-2.9,3.8-7.1,6.4-9.3,10.8
		c-0.8,1.7-2.6,1.1-4,1.2c9.4-15.4,23.2-25.7,39.6-32.1c44.6-17.4,89.8,0.2,111.4,43c1.1,2.2,2.1,3.8,5.1,3.6
		c21.1-1.5,42.3-1.6,63.3,0.8C304.7,57.6,305.2,57.4,305.7,57.3z"/>
	<path fill="#97795D" d="M457.8,41.3c-3.2,0.3-4.9-1.6-6.9-3.9c-4.3-5.1-9.5-9.4-14.1-14c-5.9-6-13.9-6.8-20.2-11.5
		c-4.3-3.2-11.1-3.9-16.9-4.2c-12.6-0.8-25.2-0.5-37.9,1.8c-6.6,1.2-10.3,5.8-15.9,7.9c-4.1,1.6-8.7,2.5-11.5,6.9
		c-1,1.5-3.7,2-6,1.9c11.2-11.7,25.2-18.5,40.9-21c33.4-5.4,61.8,4.4,84.2,30.1C455.2,37.1,457,38.9,457.8,41.3z"/>
	<path fill="#97795D" d="M447.5,173.5c6.4-5.5,9.6-12.9,12.1-20.6c1.4-4.4,4-8.4,4.8-12.7c1.6-9.2,7.6-17.3,6.4-27.2
		c-0.6-5,0.1-10,1.6-14.7c1.1-3.6-0.3-6.9-0.7-10.3c-1.1-9.6-2.2-19.2-5.3-28.4c-1-2.9-2.5-5.5-4.3-7.7c-2.5-3.2-3.6-6.6-4.3-10.4
		c13.4,17.3,17.6,37.3,16.6,58.6c-1.3,28.3-9.9,54.4-24.6,78.6C447.7,177.3,447.8,175.3,447.5,173.5z"/>
	<path fill="#97795D" d="M77.6,54.3c1.5,4.3,1.9,8.5-2.1,11.9c-1.4,1.2-1.5,2.7-1.8,4.4c-1.1,8-1,16-1.1,24
		c-0.1,10.1-0.8,20.2,2.4,29.8c2.3,7,3.3,14.3,6,21.3c2.3,6.1,4,12.3,7.9,17.6c-0.4,1.2-0.8,2.5-1.2,3.8c-0.2,0-0.5,0.1-0.7,0.2
		c-9.8-19.8-15.8-40.7-17.6-62.7C67.9,87.2,69.4,70.2,77.6,54.3z"/>
	<path fill="#7E705E" d="M289,858.2c3.4,1.9,1.6,5,1.7,7.6c0.3,8.4,4.1,12.4,12.4,12.4c38.3,0,76.5,0,114.8,0c4.2,0,8.3,0.2,11.7-2.9
		c1.1-1,2.7-1.3,4.3-1c-3.6,4.2-8.3,6-13.7,6.1c-39.6,0.1-79.2,0.1-118.9,0.1c-7.1,0-11.2-3.7-11.9-10.7
		C289,865.9,289.1,862,289,858.2z"/>
	<path fill="#7E705E" d="M108.8,879.3c1.4-1.7,3.4-1,5.1-1c15.8-0.1,31.6,0,47.3,0c24.3,0,48.6,0,72.8,0c1.9,0,4-0.8,5.7,0.9
		c-2,1-4.1,1.2-6.3,1.2c-39.3,0-78.6,0-117.9-0.1C113.2,880.3,110.8,880.8,108.8,879.3z"/>
	<path fill="#7E705E" d="M108.8,625.3c1.7-2.1,0.6-5.9,4-7c-1.7,5.3,0.7,10.7-0.4,16.1c-2,10-2.8,20.3-2.6,30.6
		c0.2,15,2.4,29.8,3.3,44.7c0.2,3.5,2,7-0.1,10.5c-3.6-23.1-5.9-46.2-4.3-69.6c0.4-5.7-0.5-11.6,1.2-17.3c0.4-1.5,0.6-3.6-1-5
		C108.8,627.4,108.8,626.3,108.8,625.3z"/>
	<path fill="#D5CAB6" d="M87,167.3c0.2-0.1,0.5-0.1,0.7-0.2c-1.1,8-4.7,15.5-5.6,23.6c-0.6,5.2-2.2,10.5-2.1,15.7
		c0,7.3-0.9,14.2-3.7,20.9c-4.4,10.9-2.8,21.8-0.1,32.7c0.8,3,2,6,1.5,9.3c-4-4.9-3.5-11.2-4.8-16.8c-2.2-9.6-1.5-19.2,2.5-28.3
		c3.5-7.7,2.1-16,3.2-24C80.2,189,82.4,177.9,87,167.3z"/>
	<path fill="#D5CAB6" d="M449.8,291.4c-0.5-3,2.1-4.7,3-7.1c5.1-13.1,9-26.5,9-40.8c0-7.3-1.2-14.1-4.7-20.5c-0.6-1.1-0.9-2.5-1.3-3.7
		c3.8,2.2,4.7,6.2,5.8,9.9c4.5,15,1.1,29.5-2.9,44c-1.4,5.1-3.2,10.1-5.9,14.7C452,289.2,451.9,291.2,449.8,291.4z"/>
	<path fill="#7E705E" d="M118.1,756.2c4.1,3.5,2.8,8.6,3.4,12.8c1.1,8.7,3.5,17.1,4.6,25.7c0.3,2.5,1.1,5-0.3,7.4
		C122.6,787,120.3,771.6,118.1,756.2z"/>
	<path fill="#7E705E" d="M286.8,810.2c1,0.2,2.7-0.3,2.5,1.5c-1.9,12.9,1.7,25.8,0.5,38.7c-0.1,1.3,0.3,2.7-0.9,3.7
		C287.9,839.5,286.9,824.9,286.8,810.2z"/>
	<path fill="#D5CAB6" d="M455.8,219.3c-1.6-0.7-2.1-2-2.1-3.6c0.3-11.2-2.2-22-4.7-32.8c-0.2-1-0.3-2,0.7-2.6c4,10.9,4.8,22.3,5.4,33.7
		C455.2,215.8,456.1,217.5,455.8,219.3z"/>
	<path fill="#7E705E" d="M114.1,728.2c3.2,1.1,1.7,4,2,6c1,6.6,3.5,13.1,1.8,20C116.1,745.6,114.9,737,114.1,728.2z"/>
	<path fill="#D5CAB6" d="M77.7,269.4c3.5,6.9,7.8,13.5,10,21C82.6,284.2,78.9,277.4,77.7,269.4z"/>
	<path fill="#97795D" d="M322.5,32.2c-1.4,7.9-2.9,9.7-8.5,10.2C316.5,38.7,318.7,34.7,322.5,32.2z"/>
	<path fill="#97795D" d="M313.6,43.1c-0.7,5.9-3.1,10.8-7.9,14.3C307.8,52.3,309.9,47.3,313.6,43.1z"/>
	<path fill="#7E705E" d="M286.1,794.2c3.5,2.5,3.8,9.1,0.6,12C286,802.3,285.9,798.2,286.1,794.2z"/>
	<path fill="#D5CAB6" d="M104.7,312.4c4.3,1.7,7.3,4.7,9,9C109.4,319.7,106.9,316.2,104.7,312.4z"/>
	<path fill="#D5CAB6" d="M149.7,347.4c4.7,0.8,9,2.4,12,6.4C157.4,352.2,153.1,350.7,149.7,347.4z"/>
	<path fill="#8E745C" d="M108.8,625.3c0,1,0,2.1,0.1,3.1c-0.3,0.6-0.7,1.3-1,1.9c-0.3,0.5-0.6,1.1-0.9,1.6c0,0-0.1,0.4-0.1,0.4
		C103.8,628.9,104.7,626.7,108.8,625.3z"/>
	<path fill="#D5CAB6" d="M382.7,351.4c2.9-2.6,5.9-4.9,10-5C389.9,348.9,386.9,351.4,382.7,351.4z"/>
	<path fill="#D5CAB6" d="M431.8,315.4c1-3.2,3-5.5,6-7C437,311.8,435.2,314.3,431.8,315.4z"/>
	<path fill="#D5CAB6" d="M96.7,302.4c2.4,1.8,5.3,3.3,5,7C99.5,307.5,96.7,306,96.7,302.4z"/>
	<path fill="#D5CAB6" d="M410.7,334.4c1.8-2.5,3.4-5.4,7.2-5C415.8,331.4,414.3,334.4,410.7,334.4z"/>
	<path fill="#D5CAB6" d="M90.7,294.4c2.8,1.6,4.6,3.7,5,7C93.1,299.8,90.9,297.8,90.7,294.4z"/>
	<path fill="#D5CAB6" d="M123.7,329.4c2.7,0.8,5.4,1.6,6,5C127.1,333.4,124.6,332.5,123.7,329.4z"/>
	<path fill="#D5CAB6" d="M142.7,343.4c3,0.2,5.8,0.7,7,4C147.1,346.6,144.5,345.7,142.7,343.4z"/>
	<path fill="#97795D" d="M82.4,46.1c0,2.9-0.6,5.4-3.9,6.2C79.2,49.8,80.4,47.7,82.4,46.1z"/>
	<path fill="#7E705E" d="M113.2,722.2c2.3,1,1.9,2.4,0.7,3.9C113.7,724.9,113.4,723.6,113.2,722.2z"/>
	<path fill="#D5CAB6" d="M438.8,307.4c0-2.1,1.3-3.2,3-4C441.8,305.5,441.2,307.1,438.8,307.4z"/>
	<path fill="#D5CAB6" d="M421.8,325.4c0.1-2.7,1.8-3.2,4-3C424.8,323.9,423.8,325.3,421.8,325.4z"/>
	<path fill="#97795D" d="M325.4,29.1c0.4,2.4-0.7,3.3-2.9,3.1C323,30.7,323.9,29.6,325.4,29.1z"/>
	<path fill="#D5CAB6" d="M101.7,309.4c2,0,3,1,3,3C102.9,312.2,102,311.2,101.7,309.4z"/>
	<path fill="#97795D" d="M84.8,42.3c0,1.8,0.1,3.5-2.3,3.8C82.6,44.5,83.5,43.3,84.8,42.3z"/>
	<path fill="#D5CAB6" d="M447.7,295.4c-0.2-1.8,0.1-3.3,2-4C450,293.2,449.4,294.5,447.7,295.4z"/>
	<path fill="#D5CAB6" d="M393.7,345.4c0.7-1.9,2.2-2.2,4-2C396.9,345.1,395.5,345.5,393.7,345.4z"/>
	<path fill="#D5CAB6" d="M399.7,342.4c0-2.1,1.5-2.1,3-2C402.2,341.7,401.1,342.3,399.7,342.4z"/>
	<path fill="#D5CAB6" d="M407.7,336.4c0.5-1.4,1.5-2.1,3-2C410.6,336.3,409.3,336.5,407.7,336.4z"/>
	<path fill="#D5CAB6" d="M130.7,335.4c1.5-0.1,3-0.1,3,2C132.4,337.3,131.3,336.6,130.7,335.4z"/>
	<path fill="#D5CAB6" d="M133.7,337.4c1.5-0.1,3-0.1,3,2C135.3,339.3,134.3,338.6,133.7,337.4z"/>
	<path fill="#D5CAB6" d="M402.7,340.4c0-2.1,1.5-2.1,3-2C405.2,339.7,404.1,340.3,402.7,340.4z"/>
	<path fill="#D5CAB6" d="M136.7,339.4c1.5-0.1,3-0.1,3,2C138.3,341.3,137.3,340.7,136.7,339.4z"/>
	<path fill="#D5CAB6" d="M139.7,341.4c1.5-0.1,3-0.1,3,2C141.3,343.3,140.3,342.7,139.7,341.4z"/>
	<path fill="#D5CAB6" d="M378.7,354.3c0.1-2,1.6-2,3.1-1.9C381.1,353.6,380.1,354.2,378.7,354.3z"/>
	<path fill="#D5CAB6" d="M445.7,298.4c-0.1-1.5-0.1-3,2-3C447.7,296.8,447.1,297.8,445.7,298.4z"/>
	<path fill="#D5CAB6" d="M88.7,291.4c1.4,0.5,2.1,1.5,2,3C88.8,294.2,88.7,292.8,88.7,291.4z"/>
	<path fill="#D5CAB6" d="M418.8,328.6c-0.1-1.4,0.5-2.2,2-2.2C420.7,327.6,419.9,328.2,418.8,328.6z"/>
	<path fill="#D5CAB6" d="M441.8,303.4c0-1.4,0.6-2,2-2C443.6,302.6,443.1,303.4,441.8,303.4z"/>
	<path fill="#D5CAB6" d="M405.7,338.4c0-1.4,0.6-2,2-2C407.8,337.7,407,338.3,405.7,338.4z"/>
	<path fill="#D5CAB6" d="M119.7,326.4c1.4,0,2.1,0.6,2,2C120.5,328.3,119.8,327.7,119.7,326.4z"/>
	<path fill="#D5CAB6" d="M425.7,322.4c0-1.4,0.6-2.1,2-2C427.4,321.3,426.7,322,425.7,322.4z"/>
	<path fill="#D5CAB6" d="M121.7,328.4c0.9,0,1.6,0.1,2,1C122.8,329.6,122.2,329.2,121.7,328.4z"/>
	<path fill="#D5CAB6" d="M116.5,324.4c0.9-0.1,1.8,0,2.3,1C117.8,325.6,117.1,325.1,116.5,324.4z"/>
	<path fill="#D5CAB6" d="M397.7,343.4c0.4-0.9,1.2-1.1,2-1C399.3,343.2,398.6,343.4,397.7,343.4z"/>
	<path fill="#D5CAB6" d="M427.7,320.4c0-0.9,0.1-1.6,1-2C428.9,319.3,428.6,320,427.7,320.4z"/>
	<path fill="#D5CAB6" d="M428.7,318.4c0.4-0.9,1.1-1.1,2-1C430.3,318.2,429.7,318.6,428.7,318.4z"/>
	<path fill="#D5CAB6" d="M443.7,301.4c0-0.9,0.1-1.6,1-2C444.8,300.3,444.6,301,443.7,301.4z"/>
	<path fill="#D5CAB6" d="M430.7,317.4c-0.1-0.9,0.1-1.6,1-2C431.9,316.3,431.6,317,430.7,317.4z"/>
	<path fill="#97795D" d="M328.6,26.1c-0.1,1-0.9,1.2-1.7,1.3C327.1,26.7,327.7,26.2,328.6,26.1z"/>
	<path fill="#97795D" d="M326.8,27.5c-0.1,0.8-0.3,1.6-1.4,1.7C325.5,28.3,326,27.8,326.8,27.5z"/>
	<path fill="#D5CAB6" d="M118.7,325.4c0.3,0.3,0.7,0.7,1,1C119.4,326,119.1,325.7,118.7,325.4z"/>
	<path fill="#D5CAB6" d="M114.7,322.4c0.3,0.4,0.7,0.9,1,1.3C115.4,323.2,115.1,322.8,114.7,322.4z"/>
	<path fill="#D5CAB6" d="M113.7,321.4c0.3,0.3,0.7,0.7,1,1C114.4,322,114.1,321.7,113.7,321.4z"/>
	<path fill="#D5CAB6" d="M392.7,346.4c0.3-0.3,0.7-0.7,1-1C393.4,345.7,393.1,346,392.7,346.4z"/>
	<path fill="#D5CAB6" d="M381.7,352.4c0.3-0.3,0.7-0.7,1-1C382.4,351.7,382.1,352,381.7,352.4z"/>
	<path fill="#D5CAB6" d="M129.7,334.4c0.3,0.3,0.7,0.7,1,1C130.4,335,130.1,334.7,129.7,334.4z"/>
	<path fill="#D5CAB6" d="M95.7,301.4c0.3,0.3,0.7,0.7,1,1C96.1,302.4,95.8,302,95.7,301.4z"/>
	<path fill="#D5CAB6" d="M444.7,299.4c0.3-0.3,0.7-0.7,1-1C445.4,298.7,445.1,299,444.7,299.4z"/>
	<path fill="#D5CAB6" d="M437.7,308.4c0.3-0.3,0.7-0.7,1-1C438.4,307.7,438.1,308,437.7,308.4z"/>
	<path fill="#D5CAB6" d="M87.7,290.4c0.3,0.3,0.7,0.7,1,1C88.4,291,88.1,290.7,87.7,290.4z"/>
	<path fill="#7E705E" d="M106.9,631.9c0.3-0.5,0.6-1.1,0.9-1.6C107.8,631,107.7,631.6,106.9,631.9z"/>
	<path fill="#D5CAB6" d="M420.7,326.4c0.3-0.3,0.7-0.7,1-1C421.4,325.7,421.1,326,420.7,326.4z"/>
	<path fill="#EFD7B0" d="M338.4,410.5c-16,3.2-30.1,7.4-43,15c-7.8,4.6-14.9,10.1-21.5,16.2c-2.7,2.5-4.5,2.7-7.5,0
		c-12.5-11.7-26-21.8-42.3-27.6c-5.9-2.1-11.9-3.7-18.7-5.8c13.5-7.3,26.5-8.7,40.1-2.9c8,3.4,15.3,8.1,21.6,14.2
		c1.7,1.7,3,2.7,5.3,0.5C291.8,402.2,313.6,401.1,338.4,410.5z"/>
	<path fill="#99775D" d="M303.9,237.2c21,4.5,39.5,13.1,51.5,31.9c6.5,10.2,5.8,21.2,1.4,32.1c-5.6,13.7-15.6,23.9-27.5,32.2
		c-41.3,28.9-98.3,25.2-135.5-8.9c-8.2-7.5-14.5-16.5-17.9-27.2c-4.9-15.7,0.3-28.5,11.8-39.1c11.9-11,26.3-17.2,41.9-20.9
		c0.2,0.6,0.3,1.3,0.5,1.9c4.8,10.5,14.6,14.5,24.5,18c4.3,1.5,8.8,3.5,13.5,2.6c9.7-1.8,18.9-5.3,27-11.1
		C299.3,246,303.4,242.8,303.9,237.2z M314.8,280.2c-0.2-0.1-0.4-0.3-0.5-0.4c0.1,0.2,0.3,0.4,0.4,0.6c0,1.3,1.8,3.7-1.8,2.6
		c-6.1-1.9-12.5-2.2-18.8-1.4c-25,3.3-47.5,13.2-68.3,27.1c-1.1,0.7-2.8,1.1-2.4,3.6c10.5-5,20.8-9.4,31.6-12.6
		c24.2-7.2,48.3-11.1,72.5-0.4C328.3,291.4,322.5,282.4,314.8,280.2z"/>
	<path fill="#98795D" d="M150.7,242.2c-10.7,0-21.3-0.7-31.7-2.9c-17.6-3.7-25.5-13.1-25.4-31c0.3-25.6,12-46,30.1-63
		c7.8-7.4,17.6-9,27.9-4.9c5.4,2.2,10.7,4.6,15.6,7.8c19.3,12.4,38,25.8,58.3,36.7c6,3.2,12.4,5.6,18.8,8c4.5,1.7,5.6,4.8,5.1,9
		c-1.2,10.6-7.2,17.9-16.1,23.3c-13.8,8.3-29.1,11.9-44.9,14C175.9,240.9,163.4,242.3,150.7,242.2z M225.5,219.3
		c5.6,2,7,1.3,8.5-4.3c1-3.5,1.8-7.1,1.8-10.8c0-1.5-0.1-3.2,1.8-3.7c2.3-0.6,3.4-2,3.2-4.3c-0.2-2.6-2.2-3.7-4.2-4.4
		c-4-1.5-8.3-2.5-12.2-4.3c-23.6-10.3-47.1-20.8-70.6-31.2c-6.1-2.7-12.1-5.5-18.2-8.2c-2.6-1.2-4.6,0-6,2c-1.5,2.1-0.4,4.4,1.2,5.2
		c3.8,2.2,2.2,4.1,0.6,6.6c-9.8,14.7-11.8,30.9-8.9,48.1c0.8,5,3.2,7,8.1,6.1c3.5,4,8.2,6.1,13,8.1c9.5,4,19.6,4.9,29.8,5.3
		C191.6,230.5,209.1,227.4,225.5,219.3z"/>
	<path fill="#98795D" d="M298.8,190.5c8.3-4.5,16.8-8.7,24.7-13.9c12.8-8.4,25.7-16.6,38.5-25c6.6-4.3,13.3-8.2,20.6-11
		c12.3-4.8,22.7-1.4,31.2,7.9c13.9,15.1,23.8,32.5,26.4,53.2c2.4,18.4-3.6,33.4-24.8,37.8c-18.7,3.9-37.4,3.3-56.1,1.3
		c-14.8-1.5-29.8-3.2-43.9-8.6c-7.9-3-15.7-6.5-22-12.5c-4.4-4.1-7.2-9-8.3-15c-1.3-7.4,0.1-9.8,7.3-12.3c1.4-0.5,2.9-0.7,4.3-1.1
		c-1.6,3-5.3,6.3-0.8,9.1c2.7,1.7,2.8,3.5,3,6c0.2,3,0.6,6,1.4,8.8c1.4,4.7,3.8,5.7,8.7,4.1c23,10.7,47.1,13,71.8,8
		c8.5-1.7,16.6-4.5,22.9-11c4.1,0.7,7-0.8,7.7-5c3-18.3,1.7-35.8-9.8-51.3c-1.8-2.4-1.7-3.5,0.9-4.7c2.7-1.3,2.6-3.9,1.8-6
		c-1-2.6-3.4-2.1-5.6-1.4c-1.6,0.5-3.1,1.1-4.6,1.8c-28,12.7-55.9,25.4-84,37.9C306.7,189.1,303.2,191.9,298.8,190.5z"/>
	<path fill="#EDCBCA" d="M369.8,81.4c-8.9-6.6-19.4-9.9-29.9-14.5c4.2-3.8,8.5-6.8,13.1-9.2c11-5.8,22-10.8,35.2-10.9
		c17.9-0.1,40.1,14.2,42.7,39c1.5,14.4-0.7,28-5.2,41.5c-4.2,0.5-4.8-3.5-6.9-5.6c-9.4-9.4-17.1-20.4-29-27.2
		c-6.3-3.6-12.1-8.1-18.2-12.3C370.9,82,370.3,81.7,369.8,81.4L369.8,81.4z"/>
	<path fill="#EDCBCA" d="M115,118.4c-4.3-16.3-5.6-32.5,2.2-48.1c6.4-12.8,17.2-20.3,31-22.6c20.3-3.4,36.7,5.9,53,17.7
		c-12.5,5.2-24.9,8.9-35.7,16.1c-7.1,3.5-13.8,7.6-20.2,12.4c-5.4,4-10.7,8.2-15.7,12.6c-3.5,3-6.7,6.3-10,9.5
		C118.4,117.3,117.1,118.7,115,118.4z"/>
	<path fill="#5A3B1E" d="M309,219.3c-4.9,1.6-7.3,0.6-8.7-4.1c-0.8-2.8-1.2-5.8-1.4-8.8c-0.2-2.5-0.3-4.3-3-6
		c-4.5-2.9-0.7-6.1,0.8-9.1c0.7-0.3,1.4-0.6,2-0.9c4.4,1.4,7.9-1.4,11.4-2.9c28.1-12.5,56-25.2,84-37.9c1.5-0.7,3.1-1.3,4.6-1.8
		c2.1-0.7,4.6-1.2,5.6,1.4c0.8,2.2,0.9,4.8-1.8,6c-2.7,1.2-2.8,2.2-0.9,4.7c11.5,15.5,12.8,33,9.8,51.3c-0.7,4.2-3.6,5.7-7.7,5
		c-1.7-4.1-0.3-8.1,0.4-12.1c2.3-3.3,2.3-12.6-0.1-15.8c-1.7-9.1-4.2-17.8-10.7-24.8c-1.1-1.2-1.9-2.7-4.1-1.6
		c-6.2,3.2-12.4,6.2-18.7,9.2c-15.3,6.5-30.6,12.8-45.7,19.7c-4.1,1.9-8.9,2.9-12.2,6.4c-4.3-0.5-5.4,1.7-5.3,5.6
		C307.5,208.5,309.4,213.8,309,219.3z"/>
	<path fill="#5A3A1D" d="M303.9,237.2c-0.5,5.6-4.6,8.8-8.6,11.7c-8.1,5.7-17.3,9.3-27,11.1c-4.7,0.9-9.2-1.1-13.5-2.6
		c-9.9-3.5-19.7-7.5-24.5-18c-0.3-0.6-0.4-1.3-0.5-1.9c1.7-3.3,4.7-4.4,8-5c1.5,1.5,2.5,1.3,3-0.8c0.4,0,0.7-0.1,1.1-0.1
		c1.6,1.3,3.1,1.7,3.9-0.8c0.3-0.1,0.7-0.1,1-0.2c2.8,1,5.7,2.6,8-1c1,0,2-0.1,3-0.1c4,1.6,8,1.6,12,0c1.7,0,3.3,0.1,5,0.1
		c0.2,1.4,0.6,2.4,2,0.8c1,0.1,2,0.1,3,0.2c1.3,1.4,2.6,1.4,4,0c0.7,0.1,1.4,0.2,2,0.2c3.3,4.2,7.3,4.9,12,2.6
		C300.6,233.4,302.3,235.2,303.9,237.2z"/>
	<path fill="#5A3A1D" d="M331.2,141c6.1,0,8.8,3.7,6.8,9.5c-2.9,8.4-10.2,12.9-16.7,18c-4.9,3.8-10.6,6.3-16.8,7.2
		c-3.6,0.5-7.1,0.3-9.5-2.9c-2.5-3.3-1.2-6.8,0.7-9.8c5.9-9.5,15.4-14.3,25-19.1C324,142.2,327.5,141,331.2,141z"/>
	<path fill="#5A3A1D" d="M230,175.7c-1.4-0.4-4.1-0.7-6.6-1.7c-10.2-4.2-18.8-10.6-25.4-19.4c-2.4-3.2-3.8-7-1.4-10.7
		c2.2-3.6,6.2-3.3,9.5-2.4c13.3,3.4,24.5,10.2,32.5,21.6c2,2.8,3.1,6.1,1.1,9.4C237.8,175.4,234.5,175.8,230,175.7z"/>
	<path fill="#99785E" d="M245.2,187.8c7.3-6.3,7.2-14.4,8.5-22.2c4.1,5.4,3.4,11.2,1.1,16.6C253.4,185.5,251.3,189.2,245.2,187.8z"/>
	<path fill="#99785E" d="M288.8,187.6c-3,1.6-4.7,0-6.2-1.3c-4.3-3.7-6.2-14-3.7-19.1c0.4-0.7,0.7-1.6,1.7-1.5c1,0.2,1.1,1.1,1.1,2
		C281.4,175.1,283.2,182,288.8,187.6z"/>
	<path fill="#47301E" d="M297.8,233.2c-4.7,2.3-8.7,1.6-12-2.6C289.9,231.1,293.9,231.6,297.8,233.2z"/>
	<path fill="#47301E" d="M254.7,229.4c-2.3,3.5-5.1,2-8,1C249.4,229.8,252,229.3,254.7,229.4z"/>
	<path fill="#47301E" d="M269.7,229.3c-4,1.7-8,1.6-12,0C261.8,229.4,265.7,229.3,269.7,229.3z"/>
	<path fill="#47301E" d="M245.7,230.6c-0.8,2.5-2.3,2.1-3.9,0.8C243.1,231.2,244.4,230.9,245.7,230.6z"/>
	<path fill="#47301E" d="M240.7,231.6c-0.5,2.1-1.5,2.3-3,0.8C238.7,231.8,239.6,231.4,240.7,231.6z"/>
	<path fill="#47301E" d="M283.7,230.4c-1.3,1.3-2.7,1.4-4,0C281.1,229.6,282.4,230.3,283.7,230.4z"/>
	<path fill="#47301E" d="M276.8,230.2c-1.4,1.6-1.8,0.6-2-0.8C275.6,229.3,276.4,229.2,276.8,230.2z"/>
	<path fill="#99785E" d="M369.7,81.3c0.6,0.3,1.2,0.7,1.9,1C370.8,82.1,370,82.3,369.7,81.3z"/>
	<path fill="#8E745C" d="M194,367.3c-0.4-0.3-0.8-0.6-1.2-0.9C193.2,366.7,193.6,367,194,367.3z"/>
	<path fill="#8E745C" d="M425.7,619.3c0.1-0.1,0.2-0.3,0.2-0.4C425.9,619,425.8,619.1,425.7,619.3C425.7,619.3,425.7,619.3,425.7,619.3
		z"/>
	<path fill="#5A3B1E" d="M314.8,280.2c7.7,2.2,13.4,11.2,12.6,19.1c-24.2-10.7-48.3-6.8-72.5,0.4c-10.8,3.2-21.1,7.7-31.6,12.6
		c-0.3-2.5,1.4-2.9,2.4-3.6c20.8-13.9,43.3-23.9,68.3-27.1c6.3-0.8,12.6-0.5,18.8,1.4c3.6,1.1,1.8-1.3,1.8-2.6L314.8,280.2z"/>
	<path fill="#5A3B1E" d="M314.7,280.4c-0.1-0.2-0.3-0.4-0.4-0.6c0.2,0.1,0.4,0.3,0.5,0.4C314.8,280.2,314.7,280.4,314.7,280.4z"/>
	<path fill="#F8EADF" d="M225.5,219.3c-16.5,8.1-33.9,11.2-52.2,10.4c-10.2-0.4-20.2-1.4-29.8-5.3c-4.8-2-9.5-4.1-13-8.1
		c1.4-8-1.7-15.9-0.8-23.9c0.6-3.7,1.2-7.3,1.8-11c1.9-4.9,3.7-9.8,6.8-14.3c2.8-4.1,5.3-6.1,10.3-2.9c3.7,2.4,8.1,3.7,12.2,5.5
		c1.2,0.6,3.1,0.5,3.1,2.6c-4.6,6.6-4.6,14-4.3,21.6c0.9,22.8,28.1,37.2,47.5,25.1c8.5-5.3,12.8-13.2,15-22.6c4.3,0.8,5,3.4,4.9,7.5
		C226.8,209.1,224.9,214.1,225.5,219.3z"/>
	<path fill="#5A3B1E" d="M129.8,192.4c-0.9,8,2.2,15.9,0.8,23.9c-4.9,1-7.3-1.1-8.1-6.1c-2.9-17.2-1-33.4,8.9-48.1
		c1.7-2.5,3.3-4.4-0.6-6.6c-1.6-0.9-2.7-3.2-1.2-5.2c1.5-2,3.4-3.2,6-2c6.1,2.7,12.1,5.5,18.2,8.2c23.5,10.4,47,20.9,70.6,31.2
		c3.9,1.7,8.2,2.8,12.2,4.3c2,0.8,4,1.8,4.2,4.4c0.2,2.4-0.9,3.7-3.2,4.3c-1.9,0.5-1.8,2.2-1.8,3.7c0.1,3.7-0.8,7.2-1.8,10.8
		c-1.5,5.6-2.9,6.3-8.5,4.3c-0.7-5.2,1.3-10.2,1.4-15.3c0.1-4.1-0.7-6.7-4.9-7.5c-9.9-4.4-19.5-9.4-29.6-13.1
		c-7.4-2.7-13.9-7.3-21.7-9.2c-2.3-0.6-5.6,2.4-6.9-1.8c0-2.1-1.9-2.1-3.1-2.6c-4.1-1.9-8.5-3.1-12.2-5.5c-5-3.2-7.5-1.3-10.3,2.9
		c-3,4.5-4.8,9.4-6.8,14.3C129.1,184.7,127.7,188.3,129.8,192.4z"/>
	<path fill="#F8EADF" d="M309,219.3c0.4-5.5-1.5-10.8-1.6-16.3c-0.1-3.9,1-6.1,5.3-5.6c2.5,13.1,10.3,21.5,23.1,24.7
		c13.4,3.3,24.8-0.6,32.9-12c8.7-12.4,8.2-25.5,1.9-38.8c6.2-3.1,12.5-6.1,18.7-9.2c2.2-1.1,3,0.4,4.1,1.6c6.6,7,9,15.7,10.7,24.8
		c0.7,5.3,0.2,10.5,0.1,15.8c-0.6,4-2.1,8-0.4,12.1c-6.3,6.5-14.4,9.3-22.9,11C356.1,232.3,332.1,230.1,309,219.3z"/>
	<path fill="#47301E" d="M370.6,171.4c6.3,13.3,6.8,26.4-1.9,38.8c-8.1,11.4-19.5,15.4-32.9,12c-12.8-3.2-20.5-11.7-23.1-24.7
		c3.3-3.5,8.1-4.5,12.2-6.4C339.9,184.2,355.3,177.9,370.6,171.4z"/>
	<path fill="#47301E" d="M404.1,204.3c0.2-5.3,0.6-10.5-0.1-15.8C406.4,191.7,406.4,200.9,404.1,204.3z"/>
	<path fill="#47301E" d="M163.8,172.4c1.3,4.2,4.6,1.2,6.9,1.8c7.7,1.9,14.3,6.5,21.7,9.2c10.1,3.7,19.8,8.7,29.6,13.1
		c-2.2,9.4-6.5,17.3-15,22.6c-19.4,12.1-46.6-2.3-47.5-25.1C159.3,186.4,159.2,178.9,163.8,172.4z"/>
	<path fill="#47301E" d="M129.8,192.4c-2-4.1-0.6-7.6,1.8-11C131,185,130.4,188.7,129.8,192.4z"/>
</g>
</svg>
