<?xml version="1.0" encoding="utf-8"?>
<!-- Generator: Adobe Illustrator 26.0.3, SVG Export Plug-In . SVG Version: 6.00 Build 0)  -->
<svg version="1.1" id="Capa_1" xmlns="http://www.w3.org/2000/svg" xmlns:xlink="http://www.w3.org/1999/xlink" x="0px" y="0px"
	 viewBox="0 0 536.5 884" style="enable-background:new 0 0 536.5 884;" xml:space="preserve">

<g>
	<path fill="#8D735A" d="M417.9,823.4c0.3,0,0.5,0.1,0.6,0.3c1.7,5.5,7,7.8,10.7,11.4c5.6,5.6,10.7,11.2,10.2,19.7
		c-0.2,4.3,0.2,8.5,0.1,12.7c-1.1,0.1-1.7,0.8-2.4,1.6c-7.1,7.7-15.1,11.9-26.3,11.7c-34.3-0.7-68.6-0.5-102.9-0.1
		c-10.7,0.1-13.7-3.9-14.4-14.7c-0.3-5-2.3-9.7-1.7-14.7c0.6-4.9-1.4-9.6-1.4-14.5c0.1-9.1,0.3-18.2-0.2-27.2c-0.9-15-1.7-30-1.8-45
		c0-2-0.9-3.9-0.7-5.9c1.5-17.3,1.3-34.6-1.5-51.8c-0.8-5.1-2.4-10.2-1.1-15.8c0.8-3.6-1.4-7.9-2.6-11.8c-0.5-1.5-1.7-2.8-3.8-2.7
		c-7.1,0.4-14.3-0.7-21.4,0.9c-2,0.5-3,1.1-2.8,3.1c0,1,0,2,0,3c-2.1,4.4-0.5,9.1-1,13.7c-0.2,1.4,0.6,3.5-1.2,4
		c-3.7,0.9-2.8,3.6-2.8,5.9c0,25,0,50,0,75c0,4.1,0.5,8.2-2.1,11.9c-1.4,2-0.8,4.4-0.3,6.8c0.7,3.4,1.8,6.7,1.5,10.3
		c-0.8,9.3-2.8,18.5-2,28c0.7,7.9-1.2,15.7-2.6,23.4c-0.7,3.6,1.1,6.9,0,10.2c-1.5,4.9-7.2,7.9-15.1,7.9c-36.5,0-73-0.1-109.4,0.1
		c-8.6,0.1-13.5-6.7-20.6-9.3c-1.1-0.4-0.3-1.4-0.3-2.2c-0.2-6.6,0.7-13.3-0.5-19.9c-0.2-0.9,0.3-2,0.7-2.8
		c4.1-8.3,11.4-13.5,18.5-18.9c3.8-2.9,8.9-4.6,10.3-10.1c0,0-0.1,0.1-0.1,0.1c5.3-0.1,3.1-3.6,2.6-6c-2.5-11.5-6.5-22.8-4.5-34.9
		c0.4-2.7,1.5-6.5-3.2-7.6c-0.4-0.1-0.4-1.8-0.8-2.7c-2.3-4.6,1.7-9.7-1-14.1c-2.3-3.7-1.5-7.7-2-11.5c-0.6-4.3,1.9-9.7-0.4-12.6
		c-3.5-4.4-3.3-9.1-4.1-13.8c-1.5-8.5-1.1-17.1-1.8-25.5c-0.4-6.1,0.7-12.1-0.3-18.2c-0.8-5.2,0.1-10.7,0.2-16.1
		c0-8.3,2.2-16.5,0.5-24.8c0-0.7,0-1.3,0-2c0-1.3,0-2.7,0-4c0-1.3,0-2.7,0-4c1.8-5.3,2.7-10.9,4.7-16.3c3.9-10.9,8.5-21.4,12.4-32.3
		c4.3-11.9,9-23.7,13.4-35.5c3.7-9.7,7.2-19.4,10.9-29c2.8-7.3,5.8-14.4,8.5-21.7c4.6-12.5,9.1-25.1,13.7-37.6
		c3.7-10,7.8-20,10.7-30.3c1.9-6.6,3.8-13.3,5.3-20c2.3-9.9,5.6-19.7,3.3-30.1c1.5-0.4,2.9,0.1,4.4,0.5c16.1,5.1,32.6,7.6,49.3,9.4
		c24,2.5,47.7-0.3,71.3-4.5c6.6-1.2,13-3.8,20-3.3c2.9,3.4,0.2,7.6,1.6,11.3c2.2,5.9,2.7,12.2,4.1,18.3c2.3,10.1,5.4,20,9.3,29.5
		c4.1,10,6.7,20.4,10.9,30.4c2.4,5.8,3.7,12.1,6.3,17.7c4,8.6,6.3,17.7,9.7,26.4c4.3,11,8.3,22.2,12.8,33c3.4,8.1,6.5,16.3,9.5,24.5
		c3.7,9.9,7.4,19.7,11.1,29.6c1.2,3.2,1.3,7.1,3.4,9.8c3.8,4.9,4.4,10.5,5,16.3c-0.3,0.7-0.9,1.5-0.9,2.2c0.3,9.6,0.3,19.2,1.2,28.7
		c1.1,12.8,1.2,25.4-0.7,38.1c-1,6.6-3.7,12.9-4.3,19.5c-1,9.9,0.4,19.9-1.2,29.8c-1.4,9.4-0.3,19.1-4.9,28c-0.7,1.3-1.2,3-0.9,4.3
		c2,8.9-2.2,17.1-2.8,25.6c-0.5,6.2-4.4,11.6-3.6,18.4C407.2,817.8,409.8,821.7,417.9,823.4z M207.2,407.9
		c12.5,3.2,24.3,7.5,35.2,14.1c9.1,5.6,17.4,12.3,25.2,19.5c2.8,2.6,4.6,2.3,7.1,0c6.5-6,13.4-11.5,21-15.9
		c13.3-7.8,27.7-12.3,43.1-15.4c-0.8-0.6-1.1-1-1.5-1.1c-3.5-1-7-2-10.6-2.8c-19.7-4.7-37.3-0.8-52.5,12.7c-3,2.7-4.7,1.7-7.1-0.4
		c-6.6-6-13.8-10.9-22.2-14.1C231.8,399.4,219.3,401.3,207.2,407.9z"/>
	<path fill="#EFD7AE" d="M340.5,368.9c-6.9-0.5-13.3,2.1-20,3.3c-23.6,4.2-47.3,7.1-71.3,4.5c-16.7-1.8-33.3-4.2-49.3-9.4
		c-1.5-0.5-2.9-0.9-4.4-0.5c-0.7-0.1-1.3-0.2-2-0.3c-2-1.7-4.7-1.8-7.1-2.8c-0.3-0.1-0.6-0.1-0.9-0.1c-0.5-1-1.4-1.2-2.3-1.2
		c-5.9-2.6-11.8-5.3-17.7-7.9c-0.9-0.9-2-1-3.1-1c-2.1-3.3-5.4-4.4-9-4.8c0,0,0,0,0,0c-1.2-3.3-4-3.8-7-4c0,0,0,0,0,0
		c-0.5-0.3-1-0.7-1.5-1c0,0-0.3,0.1-0.3,0.1c-0.2-2-1.5-2.3-3.2-2.1c0,0,0,0,0,0c0-2.1-1.5-2.1-3-2c0,0,0,0,0,0c-0.9-2.9-3.1-4-6-4
		c0,0,0,0,0,0c0.1-1.4-0.6-2-2-2c0,0,0,0,0,0c-0.4-0.9-1.1-1.1-2-1c0,0,0,0,0,0c0.1-1.4-0.6-2-2-2c0,0,0,0,0,0c-0.8-1.7-1.9-3-4-3
		c0,0,0,0,0,0c-0.4-0.9-1.1-1.1-2-1c0,0,0,0,0,0c0-2-1-3-3-3c0,0,0,0,0,0c-0.4-0.9-1.1-1.1-2-1c0,0,0,0,0,0c0-1.4-0.6-2.1-2-2
		c0,0,0,0,0,0c0.1-1.4-0.6-2.1-2-2c0,0,0,0,0,0c-0.3-0.3-0.7-0.7-1-1c0,0,0,0,0,0c-0.3-0.3-0.7-0.7-1-1c0,0,0,0,0,0
		c-0.3-0.3-0.7-0.7-1-1c0,0,0,0,0,0c-0.3-0.3-0.7-0.7-1-1c0,0,0,0,0,0c-0.3-0.3-0.7-0.7-1-1c0,0,0,0,0,0c-0.3-0.3-0.7-0.7-1-1
		c0,0,0,0,0,0c-0.4-0.3-0.9-0.7-1.3-1c-0.2-0.2-0.5-0.5-0.7-0.7c-0.3-0.4-0.7-0.9-1-1.3c0,0,0,0,0,0c0-0.9-0.1-1.6-1-2c0,0,0,0,0,0
		c0-1.5-0.9-2.1-2.3-2c-0.2-0.3-0.5-0.5-0.7-0.8c-0.4-0.5-0.7-1-1.1-1.4c0,0,0-0.4,0-0.4c0.2-2.3-1.1-3.6-3-4.4c0,0,0,0,0,0
		c0-1.4-0.6-2.1-2-2c0,0,0,0,0,0c0.1-0.9-0.1-1.6-1-2c0,0,0,0,0,0c-0.3-2.7-1.5-4.8-4-6c0,0,0,0,0,0c-0.2-2.1-0.9-4-3-5c0,0,0,0,0,0
		c0.1-0.9-0.1-1.6-1-2c0,0,0,0,0,0c-0.9-4-2.3-7.8-5-11c0,0,0,0,0,0c0.4-2.2-0.6-4.2-1.1-6.3c-3.9-14.3-5.7-28.5,0.3-42.8
		c1-2.4,1.9-4.9,1.9-7.7c-0.2-14.9,2.4-29.4,7.2-43.4c0.6-1.7,1.7-3.4-0.3-5c-0.1-0.2,0-0.5,0.1-0.7c3.3-0.8,2.7-3.8,3.5-6
		c6.8-13,13.8-26,23.6-37.2c1-1.1,1.8-2.4,1.9-4c1.3,0,2-1,2.8-1.8c7.9-7.5,15.2-15.6,24.3-21.9c7.8-5.5,14.9-12.1,24.2-15.3
		c2-0.1,4,0,6-0.2c16.1-1,31.4,1.9,46.1,8.6c15.8,7.2,29.7,17,41.5,29.8c2,2.2,3.1,2.5,5.4,0.2c5.3-5.7,11-11,17.5-15.5
		c16.2-11.3,33.8-19.2,53.4-22.1c11.8-1.8,23.5-1.1,35.3,0.2c10.4,4.5,18.7,12.1,27.4,19.2c6.3,5.1,11.9,10.9,17,17.3
		c2.9,3.6,4.7,9.7,11.2,9.4c0.1,1.8-0.3,3.5,0.9,5.2c7.9,11.5,14,23.9,19.2,36.8c0.7,3,1.4,5.9,2.1,8.9c3,12.4,5.3,25,6,37.8
		c0.1,2.2,0.8,4.2,3,5.3c0,0,0,0,0,0c0.2,1.1,0.2,2.4,0.7,3.3c7.2,14,4,28.2,0.9,42.4c-1.4,6.6-3.7,12.9-5.6,19.4c0,0,0,0,0,0
		c-4.3,4.4-6.3,10.4-10.1,15.1c-1.1,1.4-2.3,2.9-1.9,4.9c0,0,0,0,0,0c-3.2,0.7-5.1,2.5-5,6c0,0,0,0,0,0c-4,1.4-6.6,4.1-8,8
		c0,0,0,0,0,0c-0.3,0.3-0.7,0.7-1,1c0,0,0,0,0,0c-2,0-3,1-3,3c0,0,0,0,0,0c-1.4,0-2.1,0.6-2,2c0,0,0,0,0,0c-4.7,0.2-6.4,4.2-9,7
		c0,0,0,0,0,0c-3,0.7-5.1,2.8-7,5c0,0,0,0,0,0c-0.3,0.3-0.7,0.7-1,1l0,0c-1.5-0.1-2.5,0.6-3,2c0,0,0,0,0,0c-0.3,0.3-0.7,0.7-1,1
		c0,0,0,0,0,0c-1.5-0.1-3-0.1-3,2c0,0,0,0,0,0c-2.5,0-4.7,0.6-6,3c0,0,0,0,0,0c-5,2.1-10.5,3.2-14,8c0,0-0.3,0-0.3,0
		c-1.5,0-3,0.1-3.8,1.7c-10.8,4-21.4,8.9-32.7,11.6C341.7,367.2,340.9,367.8,340.5,368.9z M305.5,235.7c-3.3-3.3-7.4-4.8-12-5.6
		c-6.1-1-12.4-1.3-18.6-2c-11.8-1.4-23.6-0.1-35.2,2.3c-3.6,0.8-7,1.9-9.4,5c-14.8,4.1-29.2,9.1-41.2,19.4
		c-10.1,8.7-16.4,19-15.9,32.9c0.5,13.2,7.1,23.6,15.5,32.7c27.6,29.4,61.6,41.2,101.3,33.1c29-5.9,52.2-21.4,67.3-47.4
		c7.8-13.4,8.2-27.2-0.8-40.5C344.3,247.7,325.8,240.1,305.5,235.7z M150.1,241.9c6.1,0.3,16.1-0.4,26.1-1.3
		c16.7-1.6,33.4-3.5,49.2-10c12.8-5.3,21.3-13.9,23.9-27.8c1.3-6.9,1.6-13.8,0.4-20.8c-2.7-16.5-9.5-30.9-22.6-41.6
		c-19.7-16.1-42.5-19.9-66.8-14c-22.7,5.5-39,20.2-51.9,38.9c-10.3,14.9-16,31.4-14.8,49.7c0.7,10.4,5.8,17.6,15.5,21.9
		C121,242.4,133.6,241.7,150.1,241.9z M389.8,241.8c10.1-0.1,20.3,0.5,30.3-2.1c14.8-3.8,22.6-13.6,22.5-28.8
		c-0.2-16.1-5.2-30.8-14-44.1c-19.2-28.7-44.4-46.5-81-42.3c-14.6,1.7-27.7,6.7-38.9,16.4c-15.6,13.4-22.9,30.9-23,51.1
		c-0.1,13.9,3.7,26.6,16.6,34.2c7.8,4.6,16.4,7.5,25.2,9.4C347.9,240.1,368.8,242,389.8,241.8z M131,246.6
		c-4.8-0.5-10.5,0.8-16.2,2.1c-3.2,0.8-6.3,2.2-8.9,4.2c-9.2,7-8,16.7,3.4,21.5c15.7,6.5,31.6,6.9,47.1-1.1
		c10.4-5.4,10.8-14.3,0.9-20.7C149.6,247.6,141,246.5,131,246.6z M402.9,278.7c3.5,0,6,0.3,8.5-0.1c8.3-1.1,16.3-3,22.3-9.6
		c3.8-4.2,3.8-8.7-0.1-12.9c-3.5-3.7-7.7-6.1-12.6-7.5c-10-3-20.1-2.5-30-0.7c-5.8,1-11.7,3-15.8,7.8c-2.9,3.3-5.3,7.3-2.1,11.7
		c2.4,3.2,5.2,5.8,9.1,7.5C389.1,277.7,396.3,279.4,402.9,278.7z M343.8,88.6c-3.2-0.1-6.3,0.2-9.3,1.3c-5.6,2.1-6.9,8-3,12.5
		c1.6,1.8,3.7,2.9,5.9,3.6c8.9,2.6,17.8,5.3,26.8,7.5c3.9,1,8.3,0.8,10.6-3.4c2.4-4.4-0.6-7.7-3.4-10.5
		C363.8,92,354.2,89.1,343.8,88.6z M192.8,88.5c-10.6,0.6-20.3,3.5-28.1,11.1c-2.8,2.7-5.2,6.1-3.4,10.2c1.9,4.3,6.2,4.5,9.9,3.7
		c9.9-2,19.8-4.5,29.2-8.2c1.4-0.5,2.6-1.5,3.7-2.5c4.1-3.6,3.5-9.5-1.2-12.2C199.8,88.9,196.3,88.5,192.8,88.5z"/>
	<path fill="#98775C" d="M340.5,368.9c0.3-1.1,1.2-1.6,2.2-1.9c11.3-2.6,21.9-7.5,32.7-11.6c1.2,4.6,6.3,5.3,8.9,8.9
		c6.5,8.8,14.4,16.5,20.9,25.4c1.6,2.2,1,5.1,3.7,7.2c4.2,3.2,5.3,9.4,10.2,12.3c-1.5,6.8,5.5,8.8,8.1,13.4
		c2.7,4.7,6.2,9.4,9.1,14.2c1.5,2.5,3.1,4.2,6.2,3.8c0,0,0,0,0,0c-0.5,3.9,2.1,6.7,3.5,9.9c2,4.7,6.7,7.4,8.6,12.1
		c0.3,0.8,1.9,1.1,3.2,0.8c0,0-0.1,0-0.1,0c0.3,0.4,0.6,0.8,1,1.2c0,0-0.1-0.1-0.1-0.1c0.1,3.7-0.5,6.6,3.7,10
		c4.5,3.7,8,9.9,10.1,16.1c1,3.1,2.7,5.2,6.4,4.9c0.3,0.3,0.6,0.6,0.8,0.8c0.1,1,0,2,0.3,2.9c2.5,6.3,4.9,12.4,9.8,17.7
		c5.6,6.2,9.3,14.2,13.7,21.5c1.4,2.4,3.6,4.2,4.6,7c2.3,6.4,5.9,12.2,10,17.4c3.3,4.1,5.4,8.6,8.2,12.6c3.5,5,3.9,10.7,6.2,16
		c3.1,7.2-0.4,16.3-7.3,20.3c-4.7,2.8-8.8,5.5-8.2,12.2c0.2,1.9,0.3,4.8-1.9,6.4c-5.1,3.8-10,8-17.1,7.2c-2.5-0.3-5.8,0-6.9,1.8
		c-2.5,4.1-6.8,5.1-10.4,7.3c-4.4,2.6-13.6,0.8-17-2.9c-2.5-2.8-5.4-3.9-9.2-2c-2.1,1-4.4,1.9-7.1,1.3c-7.8-1.6-15.2-10.4-15-18.1
		c0.1-5.4-4.8-6.7-8-9.4c-0.6-5.7-1.3-11.4-5-16.3c-2.1-2.7-2.1-6.6-3.4-9.8c-3.7-9.8-7.4-19.7-11.1-29.6
		c-3.1-8.2-6.1-16.4-9.5-24.5c-4.6-10.9-8.5-22-12.8-33c-3.5-8.7-5.8-17.8-9.7-26.4c-2.6-5.7-3.9-12-6.3-17.7
		c-4.2-9.9-6.8-20.4-10.9-30.4c-3.9-9.5-7-19.3-9.3-29.5c-1.4-6.1-2-12.4-4.1-18.3C340.8,376.5,343.5,372.3,340.5,368.9z"/>
	<path fill="#97785D" d="M371.8,79.8c-11.8-1.3-23.5-2-35.3-0.2c-19.6,2.9-37.2,10.8-53.4,22.1c-6.5,4.5-12.2,9.8-17.5,15.5
		c-2.2,2.4-3.3,2-5.4-0.2c-11.8-12.8-25.7-22.6-41.5-29.8c-14.7-6.7-30-9.6-46.1-8.6c-2,0.1-4,0.1-6,0.2c9.8-6.2,20.6-10,31.4-13.9
		c2.7-1,3.6-1.8,0.8-3.7c-11.2-7.7-22.7-14.3-36.5-16.2c-21.4-2.9-41.4,10-47.9,30.4c-4.5,14.3-3,28.2,1,42.2
		c-0.1,1.6-0.9,2.9-1.9,4c-9.8,11.2-16.7,24.1-23.6,37.2c-3.1-0.5-3.3-2.8-3.4-5.3c-0.1-1.3,0.5-3.1-1-3.5
		c-6.6-1.9-5.3-7.5-5.9-12.2c-0.5-4.1,1.9-9.2-4.3-11.2c-0.3-0.1-0.6-0.8-0.6-1.3c-0.2-5.1-2.5-9.9-2.3-15.2
		c0.4-11.8,0.2-23.6,0.1-35.4c-0.1-4.3,1.2-7.9,4.3-10.7c2.2-2,2.9-4.2,2.8-7.1c-0.1-2.2-1-4.9,1-6.7c4-3.5,5.3-8.8,8.9-12.7
		c7.2-7.9,14.5-15.8,23.9-20.9c2.9-1.6,4.9-5,8.4-4.8c3.9,0.3,7.6-1.2,10.4-2.6c13.2-6.7,27.1-4.6,40.8-4.4
		c3.5,0.1,6.6,2.9,10.4,2.9c3.1,0,5.8,1.2,8.2,3.1c2.5,1.9,5.3,4.5,7.7,5.5c9.4,3.6,16,10.8,22.2,17.8c2.8,3.2,6.2,6.6,8.2,11.1
		c1.3,2.9,4.9,4.9,5.8,8.7c0.1,0.4,1.4,0.5,2.2,0.8c1.3,0.1,2.6,0.2,3.9,0.4c1.6,1.2,3.5,0.6,5.3,0.7c17.4,0.6,34.8-0.8,52.2,0.9
		c8.7,0.9,10.7-1.2,11.2-8.4l-0.1-0.3c0,0,0.2-0.2,0.2-0.2c2-0.3,3-1.4,4.2-3.3c3.2-4.8,6.6-9.8,11.2-13.2c2.7-2.1,2.6-3.5,2.2-5.8
		c0,0,0.1,0.1,0.1,0.1c0.7,0,1.1-0.3,1.1-1c0,0,0,0.1,0,0.1c0.7,0,1.1-0.3,1.1-1c0,0-0.1,0-0.1,0c2.8,1.1,4.7-0.7,6.8-2
		c8.2-5.1,15.8-11.4,25.5-13.7c15.6-3.7,31.2-4.8,47-0.6c8.9,2.4,17.3,6,25.2,10.5c6.9,3.9,11.6,10.5,17,16.1
		c3.7,3.8,7,7.9,9.5,12.9c1.8,3.6,3.4,8.3,8,10c0.1,0.3,0.2,0.7,0.3,1c-0.8,0.6-0.8,1.2-0.6,2.2c2.8,10.4,2.5,20.9,2.6,31.5
		c0.1,12.5,0.4,25-3.1,37.2c-1.8,6.3-3.6,12.6-5.9,18.8c-1.3,3.5-2.8,7.2-4.5,10.3c-2.2,4.1-3.9,10.2-10.6,10.1
		c-5.2-12.9-11.3-25.3-19.2-36.8c-1.2-1.7-0.8-3.5-0.9-5.2c4.3-13.4,7-27,5.1-41.1c-3.3-24.7-20.5-40-45.4-39.9
		c-17,0.1-30.6,9-43.9,18.1c-3.4,2.3-0.2,3,1.5,3.7C354,70.2,363.5,73.9,371.8,79.8z"/>
	<path fill="#8C7662" d="M162.5,353.5c1.1,0,2.3,0,3.1,1c-0.9,1.1-1.8,2.3-2.9,3.4c-4,4.2-8.7,7.6-12.8,11.8c-2.2,2.3-4.7,3.9-5.2,7.3
		c-0.6,3.4-4.8,3.4-6.2,6.1c-4.9,9.7-11.3,18.3-17.6,27c-3.5,4.8-9.4,8.5-9.5,15.6c0,1.2-0.7,1.9-1.9,1.9c-2.7,0.1-2.9,2.3-3.6,4.1
		c-0.5,1.4-0.5,3.3-2.2,3.6c-2.7,0.5-3.4,2.5-3.8,4.6c-1,5.8-5.3,9.9-8.7,14c-5.2,6.2-9.9,12.5-12.1,20.3c-0.3,1.1-1,2.5-1.9,2.8
		c-5.6,2.2-5.4,9.1-10.1,12c-0.4,0.3-0.6,1.2-0.6,1.8c-0.2,5.5-3.8,8.8-7.6,12c-1.4,1.2-2.6,2.4-3.5,4.1c-3.2,6-5.9,12.4-10.1,17.6
		c-3.5,4.3-6.7,8.9-9.1,13.5c-3.8,7.1-8.7,13.3-12.5,20.3c-3.7,6.8-7.5,13.6-12.7,19.5c-2.7,3.1-3.4,7.1-3.4,11.2
		c0,2.1-0.2,4-1.4,6.1c-3.1,5.5-0.3,12.9,5.4,16.3c5.3,3.1,10.3,6.1,9.2,14.1c-0.8,6,4.7,12,9.5,11.8c8.4-0.4,15.2,2.2,21.5,8.1
		c7.3,6.9,15.9,6.1,23.3-1c0.9-0.9,2.2-0.7,3.2-1.2c4.7-2.4,11.1,2.7,14.9-3.5c0.1-0.2,1.2,0.2,1.9,0.3c3.2,0.3,9.8-6.3,9.6-9.6
		c-0.3-5.7,3.3-10.7,7.8-11.1c0,1.3,0,2.7,0,4c-1.6,0.1-2.7,0.9-3.4,2.4c1.1,0.5,2.3,1.1,3.4,1.6c0,0.7,0,1.3,0,2
		c-1.1,0-2.1,0.1-3.2,0.1c-2.8,2.8-3.4,6.7-5.5,9.9c-5.2,7.8-12.6,10.6-21.1,7c-2.5-1.1-3.9-0.4-5.7,1.1
		c-10.2,8.7-24.2,7.3-32.2-3.3c-1.3-1.8-2.4-2.3-4.9-2c-11.1,1.3-24.3-6.3-22.5-20.1c0.3-2,0.2-3.3-2.2-4.1
		c-14.2-4.5-15.2-17.8-12.6-28.6c2.4-10,8.7-18.2,14.1-26.7c24-38.3,48.4-76.3,73.6-113.9c17.3-25.8,34.9-51.5,53.5-76.5
		c4.9-6.5,10.3-12.6,16.9-17.6C161.7,354.7,162.3,354.3,162.5,353.5z"/>
	<path fill="#8C7662" d="M424.5,615.6c3.2,2.7,8.1,4,8,9.4c-0.2,7.8,7.1,16.5,15,18.1c2.7,0.5,5-0.3,7.1-1.3c3.8-1.9,6.6-0.7,9.2,2
		c3.3,3.6,12.6,5.5,17,2.9c3.6-2.1,7.9-3.2,10.4-7.3c1.1-1.8,4.4-2.1,6.9-1.8c7.1,0.8,12-3.5,17.1-7.2c2.2-1.6,2.1-4.6,1.9-6.4
		c-0.6-6.6,3.5-9.4,8.2-12.2c6.9-4.1,10.4-13.1,7.3-20.3c-2.3-5.2-2.6-11-6.2-16c-2.9-4.1-5-8.6-8.2-12.6c-4.1-5.1-7.8-11-10-17.4
		c-1-2.8-3.2-4.6-4.6-7c-4.4-7.3-8-15.3-13.7-21.5c-4.9-5.4-7.3-11.4-9.8-17.7c-0.3-0.9-0.2-2-0.3-2.9c17,26.5,34,53,50.9,79.6
		c4.6,7.2,6.8,15.1,6,23.7c-0.8,9-6.2,15.5-14.7,16.7c-2,0.3-2.2,0.9-2,2.4c1.7,14-6.7,22.9-20.7,21.7c-3-0.3-4.4,0.8-6.1,2.9
		c-7.5,9.8-23.5,11.2-32.3,2.6c-2-2-3.1-2.2-5.7-0.9c-6.3,3.1-13.5,1.3-18.4-4.1c-1.5-1.7-2.7-3.6-4-5.4c-2.1-5.8-4.2-11.6-6.2-17.3
		c-0.3,0.1-0.6,0.1-0.9,0.2c0.5,5.7,1.1,11.3,1.6,17c1.5,27.5,0,54.8-3.7,82.1c-4.1,30.8-9,61.5-14.2,92.2c-0.8,4.7-0.6,8,4.4,10
		c1.8,0.7,3.1,2.4,4.6,3.7c-8.1-1.7-10.7-5.6-11.6-13.2c-0.8-6.8,3.1-12.2,3.6-18.4c0.6-8.6,4.9-16.7,2.8-25.6
		c-0.3-1.3,0.3-3,0.9-4.3c4.6-8.8,3.4-18.6,4.9-28c1.5-9.9,0.2-19.9,1.2-29.8c0.6-6.6,3.4-12.9,4.3-19.5c1.9-12.7,1.9-25.4,0.7-38.1
		c-0.9-9.5-0.9-19.1-1.2-28.7C423.5,617.1,424.1,616.3,424.5,615.6z"/>
	<path fill="#82705E" d="M127.4,817.4c-1.3,5.5-6.4,7.2-10.3,10.1c-7.1,5.4-14.4,10.6-18.5,18.9c-0.4,0.9-0.8,1.9-0.7,2.8
		c1.2,6.6,0.3,13.3,0.5,19.9c0,0.8-0.8,1.8,0.3,2.2c7.1,2.6,12,9.4,20.6,9.3c36.5-0.3,73-0.1,109.4-0.1c7.9,0,13.6-3,15.1-7.9
		c1-3.4-0.7-6.7,0-10.2c1.4-7.7,3.3-15.4,2.6-23.4c-0.9-9.5,1.1-18.7,2-28c0.3-3.6-0.8-6.9-1.5-10.3c-0.5-2.4-1-4.8,0.3-6.8
		c2.6-3.7,2.1-7.8,2.1-11.9c0-25,0-50,0-75c0-2.3-0.9-5,2.8-5.9c1.8-0.4,1-2.6,1.2-4c0.5-4.5-1.1-9.3,1-13.7c0,0,0.5,0,0.5,0
		s0.5,0,0.5,0c0,1,0,2,0,3.1c-1.3,1.2-1.3,2.5-0.1,3.9c-0.8,19.6-1.5,39.2-2.4,58.9c-1.8,40.6-3.7,81.2-5.5,121.7
		c-0.3,7.3-4.8,11.4-12.9,11.4c-32,0-63.9,0-95.9,0c-7.3,0-14.7-0.4-22,0.1c-14.4,0.8-27.3-12.5-23.3-30.8
		c1.6-7.4,6.1-13.3,11.4-18.5C111.4,826.7,118.8,821.2,127.4,817.4z"/>
	<path fill="#82705E" d="M254.5,680.6c-0.2-2.1,0.8-2.7,2.8-3.1c7.1-1.6,14.3-0.5,21.4-0.9c2.1-0.1,3.3,1.2,3.8,2.7
		c1.2,3.9,3.4,8.2,2.6,11.8c-1.2,5.6,0.3,10.7,1.1,15.8c2.8,17.2,3,34.5,1.5,51.8c-0.2,1.9,0.7,3.9,0.7,5.9c0.1,15,0.9,30,1.8,45
		c0.6,9,0.3,18.1,0.2,27.2c0,4.9,2,9.6,1.4,14.5c-0.6,5,1.4,9.8,1.7,14.7c0.7,10.8,3.7,14.8,14.4,14.7c34.3-0.4,68.6-0.6,102.9,0.1
		c11.2,0.2,19.2-4,26.3-11.7c0.7-0.8,1.2-1.5,2.4-1.6c0.4,0.4,0.7,0.7,1.1,1.1c-0.5,1-0.9,2-1.4,3c-1.4,0.2-1.8,1.1-1.6,2.4
		c-0.5,0.6-1.1,1.2-1.6,1.8c-1.5-0.2-2.5,0.3-2.3,2.1c0,0,0,0,0,0c-1.4-0.3-2.1,0.3-2.3,1.7c-3.4,2.3-7.2,3.1-11.3,3.1
		c-38.5-0.1-76.9,0-115.4,0c-10.4,0-14.4-3.5-14.8-13.8c-2.2-49-4.3-98.1-6.5-147.1c-0.5-12.5-1.3-24.9-1.7-37.4
		c-0.1-3.3-1.4-3.8-4.2-3.8c-7.2,0.1-14.3,0-21.5,0C255.6,680.5,255.1,680.6,254.5,680.6z"/>
	<path fill="#8C7662" d="M237.7,54.6c-0.8-0.3-2.1-0.4-2.2-0.8c-0.8-3.7-4.5-5.8-5.8-8.7c-2-4.4-5.5-7.9-8.2-11.1
		c-6.1-7.1-12.7-14.2-22.2-17.8c-2.4-0.9-5.2-3.5-7.7-5.5c-2.4-1.9-5.1-3.1-8.2-3.1c-3.8,0-6.8-2.8-10.4-2.9
		c-13.7-0.2-27.6-2.3-40.8,4.4c-2.8,1.4-6.5,2.9-10.4,2.6c-3.5-0.2-5.5,3.3-8.4,4.8c-9.5,5.1-16.7,13-23.9,20.9
		c-3.5,3.9-4.8,9.2-8.9,12.7c-2,1.7-1.1,4.4-1,6.7c0.1,2.9-0.6,5.1-2.8,7.1c-3.1,2.8-4.4,6.4-4.3,10.7c0.1,11.8,0.3,23.6-0.1,35.4
		c-0.2,5.3,2.1,10,2.3,15.2c0,0.5,0.3,1.2,0.6,1.3c6.1,2,3.7,7.1,4.3,11.2c0.6,4.7-0.7,10.3,5.9,12.2c1.6,0.4,1,2.3,1,3.5
		c0.1,2.4,0.3,4.7,3.4,5.3c-0.8,2.2-0.2,5.2-3.5,6c-11.6-23.9-18-48.9-17.7-75.6c0.5-50.6,43.5-90.7,94.1-87.6
		C198.7,3.9,222.8,22.9,237.7,54.6z"/>
	<path fill="#82705E" d="M109.4,629.7c1.1,0,2.1-0.1,3.2-0.1c1.8,8.3-0.4,16.6-0.5,24.8c0,5.4-1,10.9-0.2,16.1c1,6.1-0.2,12.1,0.3,18.2
		c0.6,8.5,0.2,17.1,1.8,25.5c0.9,4.7,0.6,9.4,4.1,13.8c2.3,2.9-0.2,8.2,0.4,12.6c0.5,3.9-0.3,7.9,2,11.5c2.7,4.4-1.3,9.5,1,14.1
		c0.4,0.8,0.3,2.6,0.8,2.7c4.6,1.1,3.6,4.9,3.2,7.6c-2,12.1,2,23.4,4.5,34.9c0.5,2.4,2.7,5.9-2.6,6c0.5-4.2-0.8-8.3-1.5-12.3
		c-5.6-30-10-60.1-14.1-90.3c-3.3-24.3-5.1-48.7-2.3-73.2C109.8,637.7,109.4,633.6,109.4,629.7z"/>
	<path fill="#8C7662" d="M469.3,56.7c-4.6-1.7-6.2-6.4-8-10c-2.5-5-5.9-9.1-9.5-12.9c-5.4-5.6-10.1-12.2-17-16.1
		c-7.9-4.5-16.2-8.2-25.2-10.5c-15.8-4.2-31.4-3.1-47,0.6c-9.7,2.3-17.3,8.6-25.5,13.7c-2.1,1.3-4,3.1-6.8,2
		c12.1-12,26.9-18.8,43.6-21.1c45.7-6.2,79.3,18.9,94.3,51.1C468.6,54.5,468.9,55.6,469.3,56.7z"/>
	<path fill="#8C7662" d="M447.5,167.7c6.7,0,8.4-6,10.6-10.1c1.7-3.1,3.2-6.8,4.5-10.3c2.3-6.1,4.1-12.5,5.9-18.8
		c3.5-12.2,3.2-24.7,3.1-37.2c0-10.6,0.2-21.2-2.6-31.5c-0.2-0.9-0.2-1.6,0.6-2.2c6.1,13.8,7.4,28.3,6.4,43.2
		c-1.7,27.4-10.7,52.4-24.5,75.8c-0.7,0-1.3-0.1-2-0.1C448.8,173.6,448.1,170.7,447.5,167.7z"/>
	<path fill="#8C7662" d="M442.6,440.6c-3.1,0.5-4.7-1.3-6.2-3.8c-2.9-4.8-6.5-9.5-9.1-14.2c-2.5-4.5-9.6-6.5-8.1-13.4
		c-4.9-2.9-6-9.1-10.2-12.3c-2.7-2.1-2.1-5-3.7-7.2c-6.5-8.9-14.4-16.6-20.9-25.4c-2.7-3.7-7.7-4.3-8.9-8.9c0.8-1.6,2.3-1.7,3.8-1.7
		c2.6,4.1,6.5,7.1,9.6,10.7c15.2,17.3,26.8,37.2,40.2,55.8C433.9,426.8,438.7,433.4,442.6,440.6z"/>
	<path fill="#CFC4B2" d="M86.4,165.5c2,1.5,0.9,3.3,0.3,5c-4.8,14.1-7.3,28.5-7.2,43.4c0,2.8-0.9,5.3-1.9,7.7
		c-6,14.2-4.2,28.5-0.3,42.8c0.6,2.1,1.5,4.1,1.1,6.3c-4.5-5.6-4.3-12.6-5.8-19.1c-2.2-9.6-1.5-19.2,2.6-28.3
		c3.3-7.3,2.1-15,3.1-22.5C79.8,188.7,82.4,177,86.4,165.5z"/>
	<path fill="#8C7662" d="M310.4,48.1c-0.5,7.2-2.5,9.3-11.2,8.4c-17.4-1.7-34.8-0.3-52.2-0.9c-1.8-0.1-3.7,0.5-5.3-0.7
		c8.4-1.6,16.9-1.2,25.4-1.2c11.1-0.1,22.3-0.4,33.4,1.3c4.8,0.7,7.1-0.8,8.6-4.9C309.3,49.4,309.9,48.8,310.4,48.1z"/>
	<path fill="#8C7662" d="M440.6,868.6c-0.4-0.3-0.7-0.7-1.1-1.1c0.1-4.2-0.3-8.5-0.1-12.7c0.4-8.4-4.6-14-10.2-19.7
		c-3.6-3.6-8.9-6-10.7-11.4c10.9,6.6,19.7,15.2,23.2,27.8C443.2,857.1,443.1,863,440.6,868.6z"/>
	<path fill="#CFC4B2" d="M454.5,284.7c1.9-6.5,4.1-12.8,5.6-19.4c3.1-14.1,6.3-28.4-0.9-42.4c-0.5-1-0.5-2.2-0.7-3.3
		c5.4,5.2,6.3,12.2,6.8,19.1c0.8,12-1.7,23.7-5.5,35.1C458.5,277.6,458.1,281.9,454.5,284.7z"/>
	<path fill="#8C7662" d="M478.7,495.5c-3.6,0.3-5.3-1.9-6.4-4.9c-2.1-6.2-5.6-12.4-10.1-16.1c-4.2-3.4-3.6-6.3-3.7-10
		C465.7,474.5,472.5,484.9,478.7,495.5z"/>
	<path fill="#CFC4B2" d="M449.5,176.6c0.7,0,1.3,0.1,2,0.1c3.9,14.1,4.3,28.7,7,43c-2.2-1.1-2.9-3.1-3-5.3
		C454.9,201.6,452.5,189,449.5,176.6z"/>
	<path fill="#8C7662" d="M457.8,463.4c-1.2,0.4-2.8,0-3.2-0.8c-1.9-4.7-6.6-7.4-8.6-12.1c-1.4-3.3-3.9-6-3.5-9.9
		C448.1,447.8,453.1,455.4,457.8,463.4z"/>
	<path fill="#8C7662" d="M328.1,25.3c0.5,2.4,0.6,3.8-2.2,5.8c-4.5,3.4-8,8.4-11.2,13.2c-1.2,1.9-2.2,3-4.2,3.3
		C314.7,39,320.7,31.6,328.1,25.3z"/>
	<path fill="#CFC4B2" d="M442.5,304.7c-0.4-2.1,0.8-3.5,1.9-4.9c3.8-4.8,5.9-10.7,10.1-15.1C452.9,292.8,447.7,298.7,442.5,304.7z"/>
	<path fill="#CFC4B2" d="M379.5,353.7c3.5-4.8,9-5.9,14-8C390,350.3,384.4,351.4,379.5,353.7z"/>
	<path fill="#CFC4B2" d="M429.5,318.7c1.4-3.9,4-6.6,8-8C435.8,314.3,433.3,317.2,429.5,318.7z"/>
	<path fill="#CFC4B2" d="M414.5,331.7c2.6-2.9,4.3-6.9,9-7C421.2,327.9,418.8,331,414.5,331.7z"/>
	<path fill="#CFC4B2" d="M78.5,270.7c2.8,3.2,4.2,7,5,11C79.7,279,79.1,274.9,78.5,270.7z"/>
	<path fill="#CFC4B2" d="M162.5,353.5c-0.2,0.9-0.9,1.3-1.7,1.4c-0.8-4-5.8-3.1-7.3-6.2C157.2,349,160.5,350.1,162.5,353.5z"/>
	<path fill="#CFC4B2" d="M437.5,310.7c-0.1-3.5,1.8-5.3,5-6C441.8,307.5,439.7,309.1,437.5,310.7z"/>
	<path fill="#CFC4B2" d="M407.5,336.7c1.9-2.2,4-4.3,7-5C413.4,335,410.8,336.4,407.5,336.7z"/>
	<path fill="#CFC4B2" d="M146.5,344.7c3,0.2,5.8,0.7,7,4C150.8,348,148.2,347.1,146.5,344.7z"/>
	<path fill="#CFC4B2" d="M87.5,288.7c2.5,1.2,3.7,3.3,4,6C88.8,293.6,87.7,291.5,87.5,288.7z"/>
	<path fill="#CFC4B2" d="M132.5,335.7c2.9,0,5.1,1.1,6,4C136,339.2,133.9,338,132.5,335.7z"/>
	<path fill="#CFC4B2" d="M393.5,345.7c1.3-2.4,3.5-3.1,6-3C398,344.7,396.1,345.8,393.5,345.7z"/>
	<path fill="#CFC4B2" d="M84.5,283.7c2.1,1,2.8,2.9,3,5C84.9,288,84.6,285.9,84.5,283.7z"/>
	<path fill="#CFC4B2" d="M122.5,327.7c2.1,0,3.2,1.3,4,3C124.3,330.8,122.8,330.1,122.5,327.7z"/>
	<path fill="#CFC4B2" d="M94.5,298.7c1.9,0.9,3.2,2.2,3,4.4C95.6,302.3,94.2,301.1,94.5,298.7z"/>
	<path fill="#97785D" d="M255.3,690.5c-1.1-1.3-1.2-2.6,0.1-3.9C256,687.9,256.1,689.2,255.3,690.5z"/>
	<path fill="#CFC4B2" d="M117.5,323.7c2,0,3,1,3,3C118.8,326.4,117.6,325.6,117.5,323.7z"/>
	<path fill="#CFC4B2" d="M425.5,322.7c0-2,1-3,3-3C428.4,321.5,427.4,322.5,425.5,322.7z"/>
	<path fill="#97785D" d="M254.5,680.6c0.5,0,1.1-0.1,1.6-0.1c-0.2,1-0.4,2.1-0.6,3.1c0,0-0.5,0-0.5,0s-0.5,0-0.5,0
		C254.5,682.6,254.5,681.6,254.5,680.6z"/>
	<path fill="#CFC4B2" d="M138.5,339.7c1.5-0.1,3-0.1,3,2C140.1,341.7,139.1,341.1,138.5,339.7z"/>
	<path fill="#CFC4B2" d="M399.5,342.7c0-2.1,1.5-2.1,3-2C402,342,400.9,342.6,399.5,342.7z"/>
	<path fill="#CFC4B2" d="M141.5,341.7c1.7-0.2,3,0.1,3.2,2.1C143.3,343.7,142.1,343.1,141.5,341.7z"/>
	<path fill="#CFC4B2" d="M403.5,339.7c0.5-1.4,1.5-2.1,3-2C406.3,339.6,405,339.8,403.5,339.7z"/>
	<path fill="#CFC4B2" d="M111.5,318.7c1.4-0.1,2.1,0.6,2,2C112.3,320.6,111.6,320,111.5,318.7z"/>
	<path fill="#CFC4B2" d="M423.5,324.7c0-1.4,0.6-2.1,2-2C425.5,324,424.7,324.6,423.5,324.7z"/>
	<path fill="#CFC4B2" d="M99.2,305.7c1.4-0.1,2.3,0.4,2.3,2C100.1,307.8,99.7,306.8,99.2,305.7z"/>
	<path fill="#8C7662" d="M437.6,873.9c-0.2-1.3,0.2-2.2,1.6-2.4C439.1,872.6,438.6,873.4,437.6,873.9z"/>
	<path fill="#CFC4B2" d="M92.5,296.7c1.4-0.1,2,0.7,2,2C93.1,298.7,92.6,298,92.5,296.7z"/>
	<path fill="#CFC4B2" d="M126.5,330.7c1.4,0,2,0.6,2,2C127.3,332.6,126.4,332.1,126.5,330.7z"/>
	<path fill="#8C7662" d="M433.7,877.8c-0.2-1.8,0.8-2.2,2.3-2.1C435.5,876.8,434.8,877.5,433.7,877.8z"/>
	<path fill="#8C7662" d="M431.4,879.4c0.2-1.4,0.9-1.9,2.3-1.7C433.3,878.7,432.5,879.3,431.4,879.4z"/>
	<path fill="#CFC4B2" d="M130.5,333.7c1.4,0,2.1,0.6,2,2C131.3,335.6,130.4,335.1,130.5,333.7z"/>
	<path fill="#CFC4B2" d="M113.5,320.7c1.4-0.1,2.1,0.6,2,2C114.6,322.3,113.8,321.7,113.5,320.7z"/>
	<path fill="#CFC4B2" d="M115.5,322.7c0.9,0,1.6,0.1,2,1C116.6,323.9,115.9,323.5,115.5,322.7z"/>
	<path fill="#CFC4B2" d="M120.5,326.7c0.9-0.1,1.6,0.1,2,1C121.6,327.8,120.9,327.6,120.5,326.7z"/>
	<path fill="#CFC4B2" d="M91.5,294.7c0.9,0.4,1.1,1.1,1,2C91.6,296.3,91.3,295.6,91.5,294.7z"/>
	<path fill="#CFC4B2" d="M128.5,332.7c0.9-0.1,1.6,0.1,2,1C129.6,333.9,128.9,333.7,128.5,332.7z"/>
	<path fill="#CFC4B2" d="M83.5,281.7c0.9,0.4,1.1,1.1,1,2C83.4,283.4,83.4,282.6,83.5,281.7z"/>
	<path fill="#CFC4B2" d="M101.5,307.7c0.9,0.4,1.1,1.1,1,2C101.7,309.3,101.4,308.6,101.5,307.7z"/>
	<path fill="#CFC4B2" d="M109.5,316.7c0.3,0.3,0.7,0.7,1,1C110.2,317.4,109.9,317,109.5,316.7z"/>
	<path fill="#CFC4B2" d="M108.5,315.7c0.3,0.3,0.7,0.7,1,1C109.2,316.4,108.9,316,108.5,315.7z"/>
	<path fill="#CFC4B2" d="M110.5,317.7c0.3,0.3,0.7,0.7,1,1C111.2,318.4,110.9,318,110.5,317.7z"/>
	<path fill="#CFC4B2" d="M104.2,311.7c0.4,0.3,0.9,0.7,1.3,1C105.1,312.4,104.7,312,104.2,311.7z"/>
	<path fill="#CFC4B2" d="M102.5,309.7c0.3,0.4,0.7,0.9,1,1.3C103.2,310.6,102.8,310.1,102.5,309.7z"/>
	<path fill="#8C7662" d="M458.6,464.6c-0.3-0.4-0.6-0.8-1-1.2C458,463.8,458.3,464.2,458.6,464.6z"/>
	<path fill="#CFC4B2" d="M105.5,312.7c0.3,0.3,0.7,0.7,1,1C106.2,313.4,105.9,313,105.5,312.7z"/>
	<path fill="#CFC4B2" d="M106.5,313.7c0.3,0.3,0.7,0.7,1,1C107.2,314.4,106.9,314,106.5,313.7z"/>
	<path fill="#CFC4B2" d="M145.1,343.7c0.5,0.3,1,0.7,1.5,1C146,344.4,145.5,344,145.1,343.7z"/>
	<path fill="#8C7662" d="M329.2,24.4c0,0.7-0.3,1.1-1.1,1C328.5,25,328.9,24.7,329.2,24.4z"/>
	<path fill="#CFC4B2" d="M402.5,340.7c0.3-0.3,0.7-0.7,1-1C403.2,340,402.9,340.4,402.5,340.7z"/>
	<path fill="#8C7662" d="M330.3,23.4c0,0.7-0.4,1.1-1.1,1C329.3,23.8,329.7,23.5,330.3,23.4z"/>
	<path fill="#CFC4B2" d="M406.5,337.7c0.3-0.3,0.7-0.7,1-1C407.2,337,406.9,337.4,406.5,337.7z"/>
	<path fill="#CFC4B2" d="M428.5,319.7c0.3-0.3,0.7-0.7,1-1C429.2,319,428.9,319.4,428.5,319.7z"/>
	<path fill="#CFC4B2" d="M107.5,314.7c0.3,0.3,0.7,0.7,1,1C108.2,315.4,107.9,315,107.5,314.7z"/>
	<path fill="#CFC4B2" d="M97.5,303.5c0.4,0.5,0.7,1,1.1,1.4C98.2,304.5,97.8,304,97.5,303.5z"/>
	<path fill="#98775D" d="M112.6,619.6c-4.6,0.4-8.1,5.4-7.8,11.1c0.2,3.3-6.5,9.9-9.6,9.6c-0.6-0.1-1.7-0.5-1.9-0.3
		c-3.8,6.2-10.2,1.1-14.9,3.5c-0.9,0.5-2.2,0.2-3.2,1.2c-7.4,7.1-16,7.9-23.3,1c-6.3-5.9-13.1-8.5-21.5-8.1
		c-4.8,0.2-10.4-5.8-9.5-11.8c1.1-8.1-3.8-11-9.2-14.1c-5.7-3.3-8.5-10.8-5.4-16.3c1.2-2.1,1.4-4,1.4-6.1c0-4.1,0.7-8.1,3.4-11.2
		c5.2-5.9,9.1-12.8,12.7-19.5c3.8-7,8.8-13.2,12.5-20.3c2.4-4.6,5.6-9.2,9.1-13.5c4.2-5.2,6.9-11.6,10.1-17.6
		c0.9-1.7,2.1-2.9,3.5-4.1c3.8-3.2,7.4-6.5,7.6-12c0-0.6,0.2-1.6,0.6-1.8c4.7-2.9,4.4-9.8,10.1-12c0.9-0.3,1.6-1.8,1.9-2.8
		c2.3-7.9,6.9-14.1,12.1-20.3c3.4-4.1,7.7-8.1,8.7-14c0.4-2.1,1.1-4.1,3.8-4.6c1.7-0.3,1.7-2.3,2.2-3.6c0.7-1.8,0.9-4,3.6-4.1
		c1.2-0.1,1.9-0.8,1.9-1.9c0.1-7,5.9-10.8,9.5-15.6c6.4-8.7,12.7-17.4,17.6-27c1.4-2.7,5.6-2.7,6.2-6.1c0.6-3.4,3.1-5,5.2-7.3
		c4-4.2,8.8-7.6,12.8-11.8c1-1.1,1.9-2.3,2.9-3.4c5.9,2.6,11.8,5.3,17.7,7.9c0.5,1,1.3,1.2,2.3,1.2c0.3,0,0.6,0,0.9,0.1
		c-0.2,2.9,0.4,5.4,3.8,5.9c2.4,0.4,3.4-0.8,3.2-3.1c0.7,0.1,1.3,0.2,2,0.3c2.3,10.4-1,20.2-3.3,30.1c-1.6,6.7-3.5,13.4-5.3,20
		c-2.9,10.3-7,20.2-10.7,30.3c-4.6,12.5-9.1,25.1-13.7,37.6c-2.7,7.3-5.7,14.5-8.5,21.7c-3.7,9.6-7.3,19.3-10.9,29
		c-4.5,11.8-9.1,23.6-13.4,35.5c-3.9,10.8-8.5,21.4-12.4,32.3C115.3,608.7,114.4,614.3,112.6,619.6z"/>
	<path fill="#EFD7AE" d="M207.2,407.9c12.1-6.6,24.6-8.5,37.7-3.5c8.3,3.2,15.6,8.2,22.2,14.1c2.3,2.1,4.1,3.1,7.1,0.4
		c15.2-13.5,32.9-17.4,52.5-12.7c3.6,0.9,7.1,1.9,10.6,2.8c0.4,0.1,0.8,0.5,1.5,1.1c-15.4,3.1-29.8,7.6-43.1,15.4
		c-7.7,4.5-14.6,9.9-21,15.9c-2.5,2.3-4.3,2.6-7.1,0c-7.8-7.2-16.1-13.9-25.2-19.5C231.5,415.4,219.6,411.1,207.2,407.9z"/>
	<path fill="#82705E" d="M112.5,627.6c-1.1-0.5-2.2-1.1-3.4-1.6c0.7-1.6,1.8-2.3,3.4-2.4C112.6,624.9,112.5,626.3,112.5,627.6z"/>
	<path fill="#98775C" d="M150.1,241.9c-16.5-0.2-29.2,0.5-41.2-4.9c-9.6-4.3-14.8-11.6-15.5-21.9c-1.2-18.4,4.6-34.8,14.8-49.7
		c12.9-18.8,29.3-33.4,51.9-38.9c24.3-5.9,47.1-2.1,66.8,14c13.1,10.7,19.9,25,22.6,41.6c1.2,7,0.9,13.9-0.4,20.8
		c-2.5,13.9-11.1,22.5-23.9,27.8c-15.8,6.5-32.4,8.4-49.2,10C166.2,241.5,156.3,242.2,150.1,241.9z M129.5,205.3c0,1.5,0,3,0,4.5
		c0.2,5.5,2.4,7.9,7.4,8c4.4,0,6.1-2,6.7-7.4c0.7-6.3,1.5-12.6,4.1-18.4c4.6-10.4,11.8-18.1,23.1-21.2c14-3.9,28.8,6.1,34.7,19
		c3.2,7.1,4.1,14.7,5.2,22.2c0.5,3,1.3,6.4,5,6.4c3.7,0,4.7-2.9,5-6.2c1.3-11.9-1.4-23-6.1-33.8c-12.8-29.2-49.6-32.3-70.1-11.6
		C134.3,177.1,129.5,190.4,129.5,205.3z"/>
	<path fill="#98775C" d="M389.8,241.8c-21,0.2-41.9-1.7-62.4-6.1c-8.8-1.9-17.4-4.8-25.2-9.4c-12.9-7.7-16.7-20.3-16.6-34.2
		c0.1-20.3,7.4-37.7,23-51.1c11.2-9.7,24.3-14.7,38.9-16.4c36.5-4.2,61.7,13.6,81,42.3c8.9,13.2,13.9,28,14,44.1
		c0.1,15.2-7.6,25-22.5,28.8C410.1,242.3,399.9,241.7,389.8,241.8z M360.1,153.7c-7.8-0.2-15,1.2-21.3,5.2
		c-19.4,12.4-24.5,31.6-24.2,53.1c0,3.3,1.4,6.6,5.5,6.5c3.5-0.1,4.1-3.1,4.6-6.1c1.8-11,3.4-21.9,11.2-30.9
		c15-17.3,37.5-13.7,48.4,3.5c5.3,8.4,6.6,17.6,8.1,26.9c0.7,4.4,2.9,6,7.1,5.9c4.4-0.2,6.8-2.4,7-6.8c0.3-5-0.3-9.9-0.9-14.9
		C402.4,172,382.5,152.6,360.1,153.7z"/>
	<path fill="#96785B" d="M305.5,235.7c20.3,4.4,38.8,11.9,51.1,30c9,13.3,8.7,27,0.8,40.5c-15.1,26-38.3,41.5-67.3,47.4
		c-39.7,8.1-73.7-3.7-101.3-33.1c-8.5-9-15-19.4-15.5-32.7c-0.5-13.9,5.8-24.2,15.9-32.9c11.9-10.3,26.3-15.3,41.2-19.4
		c-0.1,2,0.1,4,1.5,5.6c9.8,11.6,22.7,17.5,37.6,17.2c9.8-0.2,18.8-5.2,27.1-10.5C300.8,245.1,304.2,241,305.5,235.7z M345.8,276.5
		c3.2,1.5,4.6,0.6,4.1-3c-0.7-5.2-5.6-9.2-10.9-8.7c-2.4,0.2-4.7,1-2.7,4c1.1,1.6,0.2,2-0.9,2.5c-1.6,0.8-3.3,1.7-5,2.4
		c-27.1,11.3-55.4,13-84.2,9.9c-13.4-1.4-26.5-4.9-39-9.9c-2.7-1.1-8.4-0.3-6.3-6.6c0.3-0.8-1.3-1.8-2.5-2.2
		c-5.6-1.9-13,4.6-11.9,10.5c0.2,1,0.5,2.5,1.6,1.8c2.9-2,2.4,0.5,2.8,1.9c0.6,2.1,1.3,4.1,1.8,6.2c4.7,19.2,15.5,34.1,32.2,44.5
		c17.6,10.9,37,14.1,57.5,11.1C314.7,336,341.6,309,345.8,276.5z"/>
	<path fill="#ECC9C6" d="M371.8,79.8c-8.4-5.9-17.8-9.6-27.3-13.2c-1.7-0.6-4.8-1.4-1.5-3.7c13.3-9.1,27-18,43.9-18.1
		c24.9-0.2,42.2,15.2,45.4,39.9c1.9,14.1-0.8,27.7-5.1,41.1c-6.5,0.2-8.3-5.8-11.2-9.4c-5.1-6.4-10.7-12.2-17-17.3
		C390.5,91.9,382.2,84.3,371.8,79.8z"/>
	<path fill="#ECC9C6" d="M115.4,117.7c-4-14-5.5-27.9-1-42.2c6.5-20.5,26.6-33.3,47.9-30.4c13.8,1.8,25.4,8.5,36.5,16.2
		c2.8,1.9,1.9,2.7-0.8,3.7c-10.8,3.9-21.6,7.7-31.4,13.9c-9.2,3.2-16.3,9.8-24.2,15.3c-9.1,6.3-16.4,14.4-24.3,21.9
		C117.4,116.7,116.8,117.7,115.4,117.7z"/>
	<path fill="#5D3E1F" d="M305.5,235.7c-1.3,5.3-4.7,9.4-9,12.1c-8.3,5.3-17.3,10.3-27.1,10.5c-14.9,0.3-27.7-5.6-37.6-17.2
		c-1.4-1.6-1.6-3.6-1.5-5.6c2.4-3.1,5.8-4.3,9.4-5c11.6-2.4,23.4-3.8,35.2-2.3c6.2,0.8,12.4,1,18.6,2
		C298.1,230.9,302.1,232.5,305.5,235.7z"/>
	<path fill="#DF9E8D" d="M131,246.6c10-0.1,18.6,1,26.3,5.9c9.9,6.3,9.5,15.2-0.9,20.7c-15.5,8.1-31.4,7.7-47.1,1.1
		c-11.3-4.7-12.6-14.5-3.4-21.5c2.6-2,5.7-3.4,8.9-4.2C120.5,247.4,126.2,246.1,131,246.6z"/>
	<path fill="#DF9E8D" d="M402.9,278.7c-6.6,0.7-13.7-0.9-20.8-3.9c-3.9-1.6-6.8-4.3-9.1-7.5c-3.3-4.4-0.9-8.3,2.1-11.7
		c4.1-4.7,10-6.7,15.8-7.8c10-1.8,20.1-2.2,30,0.7c4.9,1.5,9.2,3.8,12.6,7.5c3.8,4.1,3.9,8.6,0.1,12.9c-5.9,6.6-14,8.5-22.3,9.6
		C408.9,279,406.4,278.7,402.9,278.7z"/>
	<path fill="#5D3E1F" d="M343.8,88.6c10.4,0.6,20,3.5,27.6,11c2.8,2.8,5.8,6.1,3.4,10.5c-2.3,4.2-6.7,4.4-10.6,3.4
		c-9-2.2-17.9-4.9-26.8-7.5c-2.2-0.7-4.3-1.7-5.9-3.6c-4-4.5-2.6-10.4,3-12.5C337.5,88.7,340.6,88.4,343.8,88.6z"/>
	<path fill="#5D3E1F" d="M192.8,88.5c3.6,0,7,0.4,10.2,2.2c4.7,2.7,5.3,8.6,1.2,12.2c-1.1,1-2.4,2-3.7,2.5c-9.5,3.7-19.3,6.2-29.2,8.2
		c-3.7,0.8-8.1,0.6-9.9-3.7c-1.8-4.1,0.6-7.5,3.4-10.2C172.5,92,182.1,89,192.8,88.5z"/>
	<path fill="#8D735A" d="M193.6,366.5c0.1,2.3-0.8,3.5-3.2,3.1c-3.4-0.6-4-3-3.8-5.9C188.9,364.7,191.6,364.8,193.6,366.5z"/>
	<path fill="#8D735A" d="M185.7,363.6c-1,0-1.8-0.2-2.3-1.2C184.3,362.4,185.2,362.6,185.7,363.6z"/>
	<path fill="#5D3E1F" d="M129.5,205.3c-0.1-14.8,4.8-28.2,15-38.6c20.4-20.7,57.2-17.6,70.1,11.6c4.7,10.8,7.4,21.9,6.1,33.8
		c-0.4,3.3-1.3,6.2-5,6.2c-3.8,0-4.6-3.4-5-6.4c-1.1-7.5-2-15.1-5.2-22.2c-5.9-12.9-20.7-22.9-34.7-19
		c-11.2,3.1-18.5,10.8-23.1,21.2c-2.6,5.8-3.4,12.1-4.1,18.4c-0.6,5.5-2.3,7.5-6.7,7.4c-5-0.1-7.2-2.4-7.4-8
		C129.5,208.3,129.5,206.8,129.5,205.3z"/>
	<path fill="#5D3E1F" d="M360.1,153.7c22.4-1.1,42.2,18.4,45.3,42.4c0.6,5,1.2,9.9,0.9,14.9c-0.3,4.4-2.7,6.6-7,6.8
		c-4.1,0.2-6.3-1.5-7.1-5.9c-1.5-9.3-2.8-18.6-8.1-26.9c-10.9-17.1-33.4-20.8-48.4-3.5c-7.8,9-9.4,19.9-11.2,30.9
		c-0.5,3-1,6-4.6,6.1c-4,0.1-5.4-3.2-5.5-6.5c-0.3-21.5,4.8-40.7,24.2-53.1C345.1,154.9,352.3,153.4,360.1,153.7z"/>
	<path fill="#593F22" d="M345.8,276.5c-4.2,32.5-31.1,59.6-63.4,64.3c-20.5,3-39.8-0.1-57.5-11.1c-16.7-10.3-27.5-25.3-32.2-44.5
		c-0.5-2.1-1.2-4.2-1.8-6.2c-0.4-1.3,0.1-3.8-2.8-1.9c-1.1,0.7-1.4-0.8-1.6-1.8c-1-5.9,6.3-12.4,11.9-10.5c1.2,0.4,2.8,1.4,2.5,2.2
		c-2.1,6.3,3.6,5.6,6.3,6.6c12.5,5,25.6,8.5,39,9.9c28.8,3.1,57.1,1.4,84.2-9.9c1.7-0.7,3.3-1.5,5-2.4c1.1-0.5,2-0.9,0.9-2.5
		c-2-3,0.2-3.8,2.7-4c5.3-0.5,10.2,3.5,10.9,8.7C350.4,277.1,349,278,345.8,276.5z M224.7,285.4c-9.4-2.7-18.6-5.9-28.2-10
		c3.3,19.5,11.6,35,27,46.3c1.4,1.4,3,2.5,4.8,3.2c11.2,7.5,24.1,9.8,37.1,11.7c1.7,0,3.4,0,5.1-0.1c2.1,0.8,3.7-0.9,5.7-1
		c11.4-0.6,21.9-4.2,31.4-10.6c1.7-0.3,2.9-1.3,3.8-2.7c16.2-11.3,25.2-26.8,28.6-47.4c-9.8,5.4-19.1,8.3-28.5,10.9
		c-1.1-0.1-2.2-0.1-3.1,0.7c-12.8,2.7-25.7,5-38.9,4.3c-1,0-2.1,0-3.1,0c-13.3,0.7-26.1-2.4-39-4.8
		C226.7,285.4,225.8,285.1,224.7,285.4z"/>
	<path fill="#FDFCFA" d="M307.7,324.9c-9.5,6.3-20,9.9-31.4,10.6c-2,0.1-3.6,1.8-5.7,1c-0.5-15.2,0.5-30.5-1-45.7
		c13.2,0.7,26.1-1.7,38.9-4.3C308.6,299.3,306.5,312.1,307.7,324.9z"/>
	<path fill="#FDFCFA" d="M265.5,336.5c-13-1.9-25.9-4.1-37.1-11.7c0.4-1.1,1.1-2,1-3.3c-1.4-11.8-0.1-23.8-1.8-35.6
		c12.9,2.4,25.7,5.5,39,4.8C266.1,306,265.8,321.3,265.5,336.5z"/>
	<path fill="#FDFCFA" d="M311.6,285.8c9.4-2.6,18.7-5.5,28.5-10.9c-3.3,20.6-12.3,36.1-28.6,47.4C311.5,310,311.5,297.9,311.6,285.8z"
		/>
	<path fill="#FDFCFA" d="M223.5,321.6c-15.4-11.3-23.7-26.8-27-46.3c9.6,4.1,18.8,7.3,28.2,10c-0.1,10.2-0.1,20.5-0.2,30.7
		C224.5,317.9,225.3,320,223.5,321.6z"/>
	<path fill="#CFC4B2" d="M265.5,336.5c0.3-15.2,0.7-30.5,1-45.7c1,0,2.1,0,3.1,0c1.6,15.2,0.5,30.5,1,45.7
		C268.9,336.5,267.2,336.5,265.5,336.5z"/>
	<path fill="#CFC4B2" d="M223.5,321.6c1.8-1.6,1-3.7,1-5.6c0.1-10.2,0.2-20.4,0.2-30.7c1-0.3,1.9,0,2.8,0.6c1.7,11.8,0.4,23.8,1.8,35.6
		c0.2,1.3-0.5,2.2-1,3.3C226.5,324.1,224.9,323.1,223.5,321.6z"/>
	<path fill="#CFC4B2" d="M311.6,285.8c0,12.1,0,24.3,0,36.4c-0.9,1.4-2.1,2.4-3.8,2.7c-1.2-12.9,0.9-25.6,0.8-38.5
		C309.4,285.6,310.5,285.7,311.6,285.8z"/>
</g>
</svg>
