<?xml version="1.0" encoding="utf-8"?>
<!-- Generator: Adobe Illustrator 26.0.3, SVG Export Plug-In . SVG Version: 6.00 Build 0)  -->
<svg version="1.1" id="Capa_1" xmlns="http://www.w3.org/2000/svg" xmlns:xlink="http://www.w3.org/1999/xlink" x="0px" y="0px"
	 viewBox="0 0 535 888" style="enable-background:new 0 0 535 888;" xml:space="preserve">

<g>
	<path fill="#93775D" d="M424.2,694.8c-1.3,16.7-3.6,33.3-6.2,49.9c-3.4,21.8-7,43.6-10.6,65.4c-0.6,3.3,0.2,5.2,3.2,6.8
		c6.4,3.5,12.3,7.9,17.6,13c8.5,8.1,14,17.6,13.2,29.9c-3.1,15.4-11.8,20.6-27.6,20.3c-36.5-0.5-72.9-0.1-109.4-0.1
		c-10.5,0-14.6-4.1-14.9-14.8c-0.2-5.8-0.4-11.6-0.7-17.4c-0.2-5-0.3-10-0.6-15c-1.2-26.8-2.7-53.5-3.6-80.3
		c-0.8-21.5-2.5-42.9-2.5-64.3c0.5-0.4,1-1.1,1.5-1.2c12-1.7,23.1-6,33-13c5.3-3.7,11.8-6.6,14.6-14.4
		c-20.8,10.7-41.7,17.1-64.4,17.2c-22.8,0.1-43.8-6.4-64.2-16.2c13.7,16.7,32.1,24.2,52.8,27.3c-0.4,7.3-0.7,14.6-1,21.9
		c-0.8,17.9-1.6,35.9-2.4,53.8c-1.3,28.1-2.6,56.1-3.9,84.2c-1.4,6.6-0.6,13.2-0.8,19.9c-0.2,8.1-4.3,12.2-12.4,12.2
		c-40.1,0-80.2,0-120.3,0c-2.6,0-4.9-0.5-7.2-1.5c-9.1-3.9-13.1-11.2-14-20.6c-0.8-9.7,3.6-17.3,9.8-24.2
		c6.1-6.9,13.6-12.2,21.6-16.7c2.7-1.5,3.6-2.8,3-6.2c-5.4-31.4-10.9-62.8-15.1-94.4c-0.2-1.8-0.2-3.6-0.3-5.5
		c2.5-9.9,1.5-20.1,1-30c-0.4-9.8-1.5-19.6-1.1-29.5c0.1-2,2.8-3.1,1.9-4.9c-2.5-4.4-0.6-8.9-0.9-13.4c-0.2-3.7,1.4-5.3,4.9-5.2
		c1.9,0.1,3.2-0.7,3.9-2.4c1.1-2.8,2.5-4.9,6.1-4.8c1.8,0,1.9-1.8,2.3-3.3c1.2-5-0.6-9.9,0-14.8c0.6-5.9,1.6-12,7.7-14.5
		c4.9-2.1,10.3-2.6,15.6-2c7.6,0.9,10.1-1.6,8.4-9.3c-0.6-2.8-0.2-5.5-0.2-8.3c0.2-7.2,2.4-14,3.3-21c0.6-4.3-0.3-8.8,5.1-10.6
		c1.3-0.5,1-2,1.2-3.1c0.8-3.4,2.8-5.1,6.4-4.8c5,0.5,8.5-0.8,8.6-6.8c0.1-2.3,1.5-3.2,4.2-2.1c5.3,2.2,3.9,6.5,3.3,10.2
		c-0.9,5.6-2,10.8-1.1,16.9c1.2,7.8,2.5,16.7-4.6,23.5c-1.7,1.6-1,2.9,1.3,3.5c4,1.1,8.9,1.3,11.7,3.8c5.4,4.8,9.9,0.7,14.8,0.1
		c1.6-0.2,2.1-1.8,2.4-3.4c0.3-2.7,2.2-4.2,4.5-5.5c4.6-2.6,9.6-4.4,14.2-7.1c5.6-3.2,6.7-5.5,5.2-10.8c-0.4-1.6,0.1-3.3-0.1-5
		c-0.6-3.7-0.5-8.9-5.3-8.8c-4.6,0.1-4.4,5.1-4.6,8.7c-0.3,5.1-7.1,9.6-12,7.8c-1-0.4-1.9-1-1.9-2.1c0.2-3.1-1.6-5.7-2.1-8.6
		c-0.6-3.2,0-5.6,4.3-5.1c3.6,0.4,5.4-1.3,5.8-5.1c0.4-4.6,0.9-9.3,5-12.6c1.3-1,2.3-2.9,1.8-4.5c-1.8-5.1,0.9-11.2-3.9-15.6
		c-1.2-1.1-1.6-4.1,0.5-3.9c5.5,0.5,10.6-3.8,16.4-0.7c4.8,2.5,10.1,0.4,15-0.3c4.1-0.6,3.6-5.2,5-8c3.6-6.8,0.7-12.6-6.8-13.3
		c-4.8-0.4-7.3-2.1-9.1-6.7c-1.6-4.1-3.9-7.7-2.6-12.3c1.4-5.2,10.3-9.7,17.4-8c4.1,1,8-0.4,12.1,0.2c3.4,0.5,6,0.3,8.4,3.2
		c3.6,4.3,11.8,2.8,13.4-2.5c1.4-4.8,4.9-5.5,8.7-6.1c2.3-0.3,4.7-0.1,7-0.1c7.7,0,7.7,0,7.7,7.7c0,7.6,1.1,8.9,8.8,9.3
		c4.1,0.2,6.1,2,6.2,6.1c0.1,4.3,0.4,8.5-5.3,9.6c-1,0.2-1.5,1.1-1.9,2.2c-0.7,2.1-2.3,3.1-4.6,3.2c-1.8,0.1-4.1,0.3-4,2.7
		c0,2.2,2.1,2.2,3.8,2.3c1.1,0.1,2,0.4,2.4,1.4c0.3,0.7-0.2,1.2-0.8,1.6c-3.1,2.5-11.1,0.7-11.4-3c-0.5-5.7-3.9-6.2-8.2-6.1
		c-4.3,0.1-8.4,0.1-12-3.3c-2.8-2.6-6.9-2.8-9.4,0.5c-3.5,4.7-6.1,9.9-4.4,16.2c0.4,1.6,0.7,3.3,0.7,4.9c0.2,8.7,0.2,8.7,8.6,8.7
		c0.7,0,1.3,0,2,0c3.2-0.2,4.3,1.3,4.5,4.4c0.3,5.6-0.3,11-3.8,15.6c-1.1,1.5-1.5,3-1.3,4.7c0.6,3.9-1.7,5.1-4.9,6.1
		c-7.4,2.5-14.8,1.6-22.3,1.1c-5.8-0.4-15.3,9.2-14.6,14.9c0.1,0.5,0.2,1,0.5,1.4c1.4,2.2,1.4,4.7,1.3,7.3c-0.1,3.4,0.3,6.5,4.3,7.3
		c4.5,0.8,9.3-1.9,10.4-5.6c2.4-8.1,8-12.5,16.3-12.1c6.9,0.3,13.2,4.2,20.4,3.1c1.5-0.2,2.5,1.2,2.4,2.7
		c-0.4,5.2,1.2,10.4-1.9,15.5c-3.3,5.5,0.6,14.1,6.2,14.6c3,0.3,6,0.3,9,0c8.8-1,9.8-0.3,9.7,8.7c-0.1,4.1,1.5,6.5,5.3,7.2
		c3,0.6,6.7,0,7.9-2.8c1.5-3.4,4-8.1,0.4-11.1c-4.6-3.9-3.9-8-2.7-12.5c1.8-6.4,1.9-6.4-4.7-7.3c-2.6-0.3-4.7-1.6-4.9-4.1
		c-0.2-3.4-1.3-7,0.9-10.1c0.2-0.3,0.9-0.4,1.3-0.6c4.7-1.4,10.3,1.2,12.7,5.9c1.1,2.2,2.9,4,5.4,3.5c2.7-0.5,3.4-2.9,3.4-5.4
		c0-3.8-0.1-7.7,0-11.5c0.1-4.1-1.8-5.9-5.8-5.6c-3,0.2-6.4,0.4-8.7-1.5c-3.3-2.7-6.3-2.5-10.2-1.7c-7.7,1.5-10.7-1.4-10.4-9.4
		c0-1,0.1-2,0.4-3c2-6.9-0.2-13.2-3.1-19.1c-1.7-3.6-0.7-4.6,2.1-6c2-1,4.1-1.2,6.3-1.3c3.1-0.1,5.2-1.8,5.2-4.9
		c0-5.9,4.4-5.4,7.7-4.8c3.4,0.6,8.9-0.9,8.5,6.1c-0.5,8.6-0.2,17.3,0,26c0.1,4.8,2.8,6.3,9.5,5.7c3.8-0.3,6.6-1.7,5.2-6.2
		c-0.8-2.7,0.1-2.8,2.4-2.2c6.3,1.6,8.3,5.4,6.5,13.7c-0.8,3.6,0.2,5.5,3.3,6.6c1.8,0.6,2.8,1.4,3,3.4c0.9,7.7,2.9,15.3,2,23.1
		c-0.3,2.4,0.5,4.3,2.6,5.5c3.6,1.9,4.6,5,4.4,8.8c-0.2,3.4,0.6,6.1,3.9,8c2.8,1.6,3.9,4.6,4.1,7.6c0.3,5.6,1.6,11.2,1.1,16.9
		c-0.3,2.6,0.5,4.9,2.4,6.8c2.9,3,4.2,6.6,4.6,10.7c0.2,2.1,0.7,4.5,2.7,5c4.5,1,5.9,4.4,7.6,7.9c1.1,2.3,2.2,4.8,5.5,2.4
		c2-1.4,2.1,0.3,2.2,1.7c0.6,5.5-0.9,10.9-1.1,16.4c0,1.2-0.5,1.4-1.9,1.1c-3.3-0.8-4.5,2.5-4.7,4.2c-0.2,3.1,0.2,6.7,2.9,9.1
		c0.6,0.5,1.2,0.1,1.7-0.4c1.9-1.8,3.6-0.4,4.8,0.7c2.2,2-0.9,2-1.4,3.1c-0.4,0.9-0.2,2-0.5,2.9
		C417.5,688.7,422.8,690.9,424.2,694.8z"/>
	<path fill="#F2D9B2" d="M450.2,177.8c1.1,6.2,2,12.4,3.5,18.5c0.8,3.1,1,6.4,0.9,9.4c-0.3,8.2,3.8,14.8,6.5,22c5,13.3,3.1,26.8-0.6,40
		c-7.7,27.4-24.7,48.1-46.9,65c-9.5,7.3-19.7,13.6-30.5,18.8c-1.8,0.9-3.8,1.5-4.2,3.8c-2.3-1.6-4.2,0-6.1,0.8
		c-12.7,5.4-25.7,9.8-39.1,13.1c-22.1,5.5-44.5,8.3-67.2,8.2c-33.4-0.1-65.3-7.5-95.9-20.7c-2.8-1.2-5.4-3.5-8.9-2.5
		c-3.4-4.2-8.6-5.6-13-8.1c-27.3-15.5-49.9-35.8-65.2-63.5c-9.7-17.5-14-36.7-7.9-56.2c4.7-15.1,2.8-31,7.7-45.9
		c1.6-4.8,4.3-9.4,4.2-14.8c2-0.6,1.9-2.6,2.6-4c6.4-13.7,13.5-27,23.5-38.5c2-2.3,2.2-4.7,1.5-7.4c5.4,0.8,8.3-3.4,11.8-6.2
		c6.3-5,10.9-11.7,17.7-16.2c3.1-2.1,6.9-3,9.4-5.9c3.4-3.8,7.9-5.8,12.4-7.8c1.2,1.9,3.1,1,4.5,0.8c8.7-1.6,17.3-0.8,25.7,0.9
		c23.1,4.8,42.5,16.6,59.5,32.7c6.9,6.5,6.6,6.4,13.4,0c22.7-21.6,49.5-33.6,81-34.5c6.7-0.2,13.2,1.1,19.9,1.1l-0.1-0.1
		c0.3,1.1,1.3,0.8,2.1,1c4.7,2.2,9,5.2,13.2,8.2c9.3,6.7,18.3,13.6,25.7,22.8c4.2,5.3,8.7,10.8,15.1,14c-0.3,2.6,0.4,4.8,2,7
		c3.7,5.1,7,10.5,9.7,16.3C442.1,159.4,446.1,168.6,450.2,177.8z M205.4,112.1c0.4,0.1,0.6,0,0.9-0.3c0.7-0.3,1.4-0.6,2-0.9
		c0.5-0.3,0.9-0.6,1.4-0.9c0.5-0.4,1.1-0.9,1.6-1.3c4.4-4.5,4.3-6.8-0.5-9.8c-0.6-2.5-2.9-2.4-4.6-2.9c-7.3-2-14.7-1.9-21.9,0.5
		c-0.6,0.2-1.3,0.3-1.9,0.5c-0.4,0.1-0.7,0.2-1.1,0.2c-1.4,0.6-2.9,0.9-4.1,1.7c-3.1,2-6.4,4.2-5.9,8.5c0.5,4,4,5.5,7.4,6.5
		c7.2,2.2,14.4,2.3,21.5,0c0.7-0.2,1.4-0.4,2-0.7C203.6,113.2,204.8,113.2,205.4,112.1L205.4,112.1z M261.3,228.9
		c-8.1-0.2-16,0.9-23.9,3c-3.3,0.9-6.2,2.3-7.4,5.8c-8.8,0.9-16.7,4.6-24.3,8.6c-10.4,5.5-19.8,12.3-25.7,23
		c-7.9,14.6-4.3,28.3,4.2,40.9c20.6,30.4,51,42.1,86.2,42.2c17.6,0.1,34.5-4.9,50-13.7c15.1-8.5,27.8-19.5,36.2-34.9
		c7.5-13.7,7.3-27.3-2.7-39.7c-12.7-15.8-30.1-23.6-49.5-27.5c-1.5-2.5-3.8-3.5-6.4-4.2c-7.8-2.1-15.7-3.5-23.9-3.5
		c-0.7,0-1.3,0-2-0.1c-1.3,0-2.7,0-4,0C266,228.9,263.7,228.9,261.3,228.9z M393.9,239.9c5.2,0,10.3,0.3,15.5,0
		c23.1-1.4,36.7-16.6,32.6-38.3c-6.3-33.5-24.9-58.7-55.6-73.6c-24.4-11.7-48.9-7.9-71.6,5.4c-24.9,14.6-36.1,46.3-27.7,73.9
		c1.7,5.5,4.4,10.3,8.9,14.1c8.3,7.1,18.3,10.2,28.5,12.3C347.4,238.5,370.6,239.3,393.9,239.9z M178,119.7
		c-7.5-0.2-14.7,0.6-21.7,3.3c-16.3,6.3-30.3,16-41.2,29.8c-13.7,17.4-23,36.5-22,59.4c0.5,10.8,6.9,19.3,17,22.9
		c8.1,2.9,16.6,3.6,25.1,3.5c17.6-0.1,35.2-0.8,52.8-2.9c11.7-1.4,23.4-3,34.6-6.8c12.2-4.1,22.3-10.8,26-24
		c5.1-18.1,2.6-35.6-6.8-51.5C227.7,129.4,204.7,120.7,178,119.7z M348.7,117.2c5.7,0.1,10.3-0.7,13.1-2.2c6.2-3.2,7-8.6,1.3-12.4
		c-10.3-6.8-21.8-8-33.2-3.5c-7,2.7-7.1,9.1-0.8,13.3C335.1,116.3,341.8,117.1,348.7,117.2z"/>
	<path fill="#93765A" d="M424.2,694.8c-1.4-3.9-6.6-6-4.9-11.3c0.3-0.9,0.1-2,0.5-2.9c0.4-1.1,3.6-1.1,1.4-3.1
		c-1.2-1.1-2.9-2.5-4.8-0.7c-0.5,0.5-1.2,0.9-1.7,0.4c-2.8-2.4-3.1-6-2.9-9.1c0.1-1.7,1.4-5,4.7-4.2c1.4,0.4,1.9,0.2,1.9-1.1
		c0.2-5.5,1.7-10.8,1.1-16.4c-0.2-1.4-0.3-3.1-2.2-1.7c-3.4,2.3-4.4-0.1-5.5-2.4c-1.7-3.5-3.1-6.9-7.6-7.9c-2-0.5-2.5-2.9-2.7-5
		c-0.3-4.1-1.6-7.7-4.6-10.7c-1.9-1.9-2.7-4.2-2.4-6.8c0.6-5.7-0.8-11.2-1.1-16.9c-0.2-3.1-1.2-6-4.1-7.6c-3.3-1.8-4.1-4.6-3.9-8
		c0.2-3.8-0.8-6.9-4.4-8.8c-2.2-1.2-2.9-3.1-2.6-5.5c0.9-7.8-1.1-15.4-2-23.1c-0.2-2-1.3-2.8-3-3.4c-3.1-1-4.1-3-3.3-6.6
		c1.9-8.4-0.2-12.1-6.5-13.7c-2.3-0.6-3.2-0.5-2.4,2.2c1.4,4.6-1.3,5.9-5.2,6.2c-6.7,0.6-9.4-0.9-9.5-5.7c-0.2-8.7-0.4-17.3,0-26
		c0.4-7-5-5.6-8.5-6.1c-3.3-0.5-7.7-1-7.7,4.8c0,3.1-2.1,4.8-5.2,4.9c-2.2,0.1-4.2,0.3-6.3,1.3c-2.8,1.4-3.8,2.4-2.1,6
		c2.8,5.9,5.1,12.3,3.1,19.1c-0.3,0.9-0.3,2-0.4,3c-0.3,8,2.7,11,10.4,9.4c3.8-0.8,6.9-1,10.2,1.7c2.3,1.9,5.7,1.7,8.7,1.5
		c4-0.2,5.9,1.6,5.8,5.6c-0.1,3.8,0,7.7,0,11.5c0,2.5-0.8,4.9-3.4,5.4c-2.5,0.5-4.3-1.3-5.4-3.5c-2.3-4.6-8-7.3-12.7-5.9
		c-0.5,0.1-1.1,0.2-1.3,0.6c-2.2,3.2-1.1,6.8-0.9,10.1c0.2,2.6,2.3,3.8,4.9,4.1c6.6,0.8,6.5,0.8,4.7,7.3c-1.3,4.6-1.9,8.7,2.7,12.5
		c3.6,3,1.1,7.7-0.4,11.1c-1.2,2.9-4.9,3.4-7.9,2.8c-3.8-0.7-5.3-3.2-5.3-7.2c0.1-9-0.9-9.7-9.7-8.7c-3,0.3-6,0.3-9,0
		c-5.6-0.5-9.6-9.1-6.2-14.6c3.1-5.1,1.5-10.3,1.9-15.5c0.1-1.5-0.9-2.9-2.4-2.7c-7.2,1.1-13.5-2.8-20.4-3.1
		c-8.3-0.4-13.9,4.1-16.3,12.1c-1.1,3.7-6,6.5-10.4,5.6c-4.1-0.7-4.5-3.9-4.3-7.3c0.1-2.5,0.1-5-1.3-7.3c-0.3-0.4-0.5-0.9-0.5-1.4
		c-0.6-5.8,8.9-15.3,14.6-14.9c7.5,0.5,14.9,1.4,22.3-1.1c3.2-1.1,5.5-2.2,4.9-6.1c-0.3-1.7,0.2-3.2,1.3-4.7
		c3.5-4.6,4.1-10,3.8-15.6c-0.2-3.2-1.2-4.7-4.5-4.4c-0.7,0.1-1.3,0-2,0c-8.5,0-8.5,0-8.6-8.7c0-1.6-0.3-3.3-0.7-4.9
		c-1.6-6.3,0.9-11.5,4.4-16.2c2.5-3.3,6.6-3.1,9.4-0.5c3.6,3.4,7.7,3.4,12,3.3c4.3-0.1,7.8,0.4,8.2,6.1c0.3,3.7,8.3,5.5,11.4,3
		c0.6-0.5,1-0.9,0.8-1.6c-0.4-1.1-1.4-1.4-2.4-1.4c-1.7-0.1-3.8-0.1-3.8-2.3c0-2.4,2.2-2.6,4-2.7c2.3-0.1,3.8-1.1,4.6-3.2
		c0.4-1,0.8-2,1.9-2.2c5.7-1.1,5.4-5.3,5.3-9.6c-0.1-4.1-2.1-5.9-6.2-6.1c-7.7-0.4-8.8-1.7-8.8-9.3c0-7.7,0-7.7-7.7-7.7
		c-2.3,0-4.7-0.3-7,0.1c-3.8,0.6-7.3,1.3-8.7,6.1c-1.6,5.3-9.8,6.8-13.4,2.5c-2.4-2.9-5-2.8-8.4-3.2c-4.1-0.6-8,0.8-12.1-0.2
		c-7-1.7-15.9,2.8-17.4,8c-1.3,4.6,1,8.2,2.6,12.3c1.8,4.6,4.3,6.3,9.1,6.7c7.5,0.6,10.4,6.5,6.8,13.3c-1.5,2.8-0.9,7.4-5,8
		c-5,0.7-10.3,2.9-15,0.3c-5.8-3.1-10.9,1.2-16.4,0.7c-2.1-0.2-1.7,2.7-0.5,3.9c4.8,4.4,2.1,10.5,3.9,15.6c0.6,1.6-0.5,3.4-1.8,4.5
		c-4.1,3.3-4.6,8-5,12.6c-0.3,3.9-2.1,5.5-5.8,5.1c-4.3-0.5-4.8,2-4.3,5.1c0.5,2.9,2.3,5.5,2.1,8.6c-0.1,1,0.9,1.7,1.9,2.1
		c4.8,1.9,11.7-2.7,12-7.8c0.2-3.6,0-8.6,4.6-8.7c4.9-0.1,4.7,5.1,5.3,8.8c0.3,1.6-0.3,3.4,0.1,5c1.5,5.3,0.4,7.6-5.2,10.8
		c-4.6,2.7-9.6,4.5-14.2,7.1c-2.4,1.3-4.2,2.8-4.5,5.5c-0.2,1.6-0.7,3.2-2.4,3.4c-4.9,0.6-9.4,4.7-14.8-0.1
		c-2.8-2.5-7.7-2.6-11.7-3.8c-2.2-0.6-2.9-1.9-1.3-3.5c7.1-6.8,5.8-15.7,4.6-23.5c-0.9-6.1,0.2-11.3,1.1-16.9c0.6-3.7,2-8-3.3-10.2
		c-2.7-1.1-4.1-0.3-4.2,2.1c-0.1,6-3.6,7.3-8.6,6.8c-3.6-0.3-5.6,1.3-6.4,4.8c-0.2,1.1,0.1,2.6-1.2,3.1c-5.4,1.9-4.5,6.3-5.1,10.6
		c-0.9,7-3.1,13.8-3.3,21c-0.1,2.8-0.5,5.5,0.2,8.3c1.7,7.7-0.8,10.2-8.4,9.3c-5.3-0.6-10.8-0.1-15.6,2c-6.1,2.6-7.1,8.7-7.7,14.5
		c-0.5,4.9,1.3,9.8,0,14.8c-0.4,1.5-0.5,3.4-2.3,3.3c-3.6-0.1-5,2.1-6.1,4.8c-0.7,1.8-1.9,2.5-3.9,2.4c-3.5-0.1-5.1,1.5-4.9,5.2
		c0.3,4.4-1.6,9,0.9,13.4c1,1.7-1.8,2.9-1.9,4.9c-0.4,9.9,0.6,19.7,1.1,29.5c0.4,9.9,1.5,20.1-1,30c-4.2-25.7-4.8-51.4-1.7-77.3
		c0.4-3.1,0.4-6.3,0.6-9.4c3.1-6.5,3.6-13.7,6.3-20.5c3.9-9.9,7.6-19.9,11-30c3-9.1,7-17.8,10.1-26.8c2.7-7.8,6.3-15.2,8.9-23.1
		c3.1-9,7.2-17.6,10.5-26.5c4.7-12.5,8.5-25.3,13.7-37.5c5-11.8,9.2-23.9,13.3-36c3.8-11.3,6.1-23.1,8.7-34.8c0.7-3.2,1.8-5.4,4.6-7
		c3.3,1.2,6.5,2.7,10,3c0.5,2.8-1,4.7-2.9,6.4c-2.6,2.2-4.4,5-5,8.3c-0.5,2.4,0.5,4.5,3,5c2.2,0.5,4.5-1.4,4.6-2.9
		c0.1-3.5,2.4-6.6,1.7-10c-0.6-2.8,0.5-4,2.7-4.9c14.7,3,29.3,6.4,44.4,7.5c13.5,0.9,26.9,0.4,40.2-0.9c15.4-1.5,30.6-5.4,45.3-10.6
		c2.6,5,3.4,10.4,3,16c1,2.7-0.5,6.3,3,8c3.1,15.9,9.6,30.8,15.2,45.9c3.8,10.3,7.2,20.9,11.6,31c5.2,11.8,8.7,24.4,13.5,36.4
		c3.3,8.4,5.8,17.1,9.6,25.4c5.9,12.5,9.5,25.9,15.3,38.5c2.2,4.9,5.3,9.9,4.8,15.8c0.1,1.9-0.5,3.2-1.9,4.7c-4.8,5.3-7.1,11.7-6,19
		c0.2,1.5,0.7,3.6,2.6,3.8c1.8,0.1,2.4-2,2.5-3.2c0.6-6.2,4.1-4.8,7.7-3.3c0,2.3-0.5,4.7,0.1,6.9c1.4,5-0.5,10.4,2.3,15.1
		c0.6,11.1,1.4,22.2-0.9,33.3c-1.2,2.8-0.3,5.7-0.6,8.6C424.3,688.1,425.1,691.4,424.2,694.8z M337.1,410.8c1.4,0,3.4,0.5,2.9-1.8
		c-0.4-1.7-1.8-0.3-2.8,0c-1.1-0.3-2.3-0.4-3.4-0.8c-22.4-7.2-43.1-5.2-60.9,11.5c-2.4,2.3-3.7,0.7-5.4-0.7
		c-8.1-7.1-16.7-13.2-27.3-16.1c-12.1-3.3-23.4-1.4-34.9,4.7c7,3.8,14.7,3.4,20.9,7.4c-1.3,2.7-4.3,3.2-6.3,5.1
		c-3.6,3.3-3.4,9.5,0.7,10.7c4.3,1.3,8.6,2.4,13,2.9c2.6,0.3,6.4-0.2,7.1-3.1c0.7-2.9-2.7-3.7-5-4.6c-0.5-0.2-0.9-0.3-1.4-0.4
		c-3.4-0.7-5-2.3-3.4-5.9c0.4-0.8,0.1-2,0.2-3c1.3,1.7,3.5,1.7,5.2,2.6c11.6,6.4,22.3,14,31.3,23.6c1.4,1.5,2.4,1.7,4,0.3
		c3.3-3,6.8-5.8,10.3-8.6c9.7-7.7,20.2-14.1,32.2-17.7c0.4,1.4-0.8,4.1,1.7,3.6c2.5-0.4,0.4-2.6,0.4-4c0-0.2,0-0.3-0.1-0.5
		C323,413.3,330,412,337.1,410.8z M220.4,465.8c2.9-0.4,5.2-0.5,7.4-1.1c2.9-0.8,5.6-3.1,5.9-5.5c0.4-3.4,0.8-7.7-1.5-10.4
		c-2-2.3-5.6-2.4-8.9-1.5c-3.2,0.9-5.5,2.3-5.9,5.8c-0.2,1.9-0.2,3.8-1.3,5.7C214.3,462.1,217,465.8,220.4,465.8z M338.2,402.2
		c0.2,1.2-1.6,2.7,0.5,3.4c1,0.3,2.4,0.3,3.4-0.1c1.8-0.7,1.3-2.5,1.1-3.9c-0.4-2.7-1.8-4.9-3.3-7.1c-0.7-1-2-2-3.4-1.1
		c-1.6,1-0.8,2.3-0.1,3.4C337.3,398.6,338.8,400.1,338.2,402.2z M299.3,434.5c0-2.4-0.2-4.8-2.6-4.4c-2.7,0.4-4.8,2.5-5.2,5.2
		c-0.3,2.1,1.7,3.6,3.9,3.4C298.3,438.5,299.3,436.6,299.3,434.5z"/>
	<path fill="#9C7C61" d="M450.2,177.8c-4.1-9.2-8.1-18.5-12.3-27.7c-2.6-5.8-6-11.2-9.7-16.3c-1.6-2.2-2.3-4.4-2-7
		c3-7.9,4.7-16.1,5.7-24.6c4.8-40.8-26.1-60.7-52.5-55.4c-14.6,2.9-27.1,10.2-39.2,19.4c10.7,4.6,21.1,8.3,30.1,14.7
		c-6.6,0-13.2-1.3-19.9-1.1c-31.5,0.9-58.3,12.9-81,34.5c-6.7,6.4-6.5,6.5-13.4,0c-17-16.1-36.4-27.9-59.5-32.7
		c-8.5-1.8-17.1-2.5-25.7-0.9c-1.5,0.3-3.3,1.1-4.5-0.8c11.7-4.8,22.8-11.3,36.1-14.7c-12-9.2-23.8-15.7-37.4-18.3
		c-19.7-3.7-38.7,5.9-47.6,23.9c-7.2,14.7-6.1,29.9-2.4,45.2c0.7,2.7,0.5,5-1.5,7.4c-10,11.5-17.1,24.8-23.5,38.5
		c-0.7,1.4-0.6,3.4-2.6,4c-12-24.3-18.5-49.7-18-77c0.6-35.4,25.1-69.1,58.8-80.4c30.8-10.3,59.1-6,84.6,14.2
		c10.3,8.2,18,18.7,23.8,30.4c1.2,2.4,2.3,3.9,5.6,3.5c18.9-2,37.9-2.3,56.8,0.3c5.2,0.7,7.4-0.8,9.8-5.4
		c13.2-24.9,33.2-41.4,61.2-46.9c48.9-9.5,96.8,24.2,104.1,73.1c3.3,22.2-0.6,43.8-7.3,64.9C462.8,155.2,457.2,166.8,450.2,177.8z"
		/>
	<path fill="#9B7B5F" d="M198.3,381.9c-2.8,1.5-3.9,3.8-4.6,7c-2.6,11.7-4.9,23.5-8.7,34.8c-4.1,12.1-8.2,24.2-13.3,36
		c-5.2,12.2-9,25-13.7,37.5c-3.3,8.9-7.4,17.6-10.5,26.5c-2.7,7.8-6.3,15.3-8.9,23.1c-3.1,9.1-7.1,17.7-10.1,26.8
		c-3.3,10.1-7.1,20.2-11,30c-2.7,6.8-3.2,14-6.3,20.5c-2.7,4.1-3.8,9.1-6.6,13.2c-5.6,8.5-11.7,11-21.2,7.7c-2.1-0.7-3.4-0.7-5.2,1
		c-9.3,8.9-24.4,7.5-32.1-2.7c-1.7-2.2-3-2.7-6-2.3c-12.6,1.5-24.6-9.9-21.2-21c0.7-2.1-0.3-2.7-2.4-3.2c-8.3-2-13-8.4-13.7-16.8
		c-0.8-9.5,2.4-17.6,7.2-25.4c22.5-36.8,45.8-73,69.5-109c20.1-30.6,40.5-61,62.4-90.4c4.5-6,9.3-11.7,15-16.6
		c1.1,1.9,2.8,3.2,4.6,4.5C173.2,370.8,185.9,376.2,198.3,381.9z"/>
	<path fill="#9B7B5F" d="M345.3,398.9c0.4-5.6-0.4-11-3-16c14.7-6,29.2-12.2,41.9-21.9c8.7,7.5,14.8,17,21.3,26.2
		c29.9,42.5,58.6,85.8,86.6,129.5c11.5,17.9,23.1,35.8,34.3,53.9c5.5,8.8,10,18.1,8.1,29.1c-1.4,8.6-5.5,13.5-14,15.2
		c-2.3,0.5-2,1.3-1.8,3c1.6,12.9-8.7,22.9-21.6,21.2c-1.9-0.3-3.2-0.2-4.7,1.5c-9.5,11.4-22.2,12.6-33.5,3.1
		c-1.9-1.6-3.2-0.7-4.9-0.1c-9.5,3.6-18.4-0.5-21.9-10.2c1.3-5-2.7-9.2-2.1-14.2c0.2-1.4-1.7-1.8-2.8-2.4c0.2-2.9,0.2-5.6-4-5
		c-0.7-2-1.1-4.2-2.2-5.9c-1.3-1.9,0.7-5.3-2.8-6.1c0.5-5.9-2.6-10.9-4.8-15.8c-5.7-12.6-9.4-26-15.3-38.5c-3.9-8.2-6.3-17-9.6-25.4
		c-4.8-12-8.3-24.6-13.5-36.4c-4.4-10.2-7.8-20.7-11.6-31c-5.6-15.1-12-29.9-15.2-45.9C347.8,404,348.7,400.6,345.3,398.9z"/>
	<path fill="#806245" d="M384.2,361c-12.8,9.6-27.3,15.9-41.9,21.9c-14.7,5.1-29.9,9.1-45.3,10.6c-13.3,1.3-26.7,1.9-40.2,0.9
		c-15.2-1.1-29.7-4.5-44.4-7.5c-1.1-1.2-2.4-1.8-4-1.9c-3.5-0.3-6.7-1.8-10-3c-12.5-5.7-25.1-11.1-36.6-18.8
		c-1.8-1.2-3.5-2.5-4.6-4.5c1.5-1.5,3-2.9,4.5-4.4c3.5-1,6.1,1.3,8.9,2.5c30.6,13.2,62.5,20.6,95.9,20.7c22.7,0.1,45.1-2.7,67.2-8.2
		c13.4-3.3,26.4-7.7,39.1-13.1c1.9-0.8,3.8-2.4,6.1-0.8C380.6,357.3,382.4,359.1,384.2,361z"/>
	<path fill="#9C7C61" d="M425.7,642.8c-2.8-4.7-0.9-10.1-2.3-15.1c-0.6-2.2-0.1-4.6-0.1-6.9c0-1.7,0-3.3,0-5c1.6-0.3,2,1.4,3.1,2
		c0.2,1,1.5,1.9,0.1,3c-3.2,0.8-2.1,3.4-1.7,5.1C426.1,631.5,426,637.1,425.7,642.8z"/>
	<path fill="#93775D" d="M426.4,620.8c1.5-1,0.1-2-0.1-3c0.3-0.3,0.6-0.7,1-1c1.1,0.6,3,1.1,2.8,2.4c-0.7,5,3.3,9.2,2.1,14.2
		C428.7,629.9,427.9,625.2,426.4,620.8z"/>
	<path fill="#9C7C61" d="M424.2,684.7c0.3-2.9-0.6-5.8,0.6-8.6C426.6,679.1,426,681.9,424.2,684.7z"/>
	<path fill="#806245" d="M282.2,688.1c-8.9,0-17.8,1.2-26.6-0.2c-20.7-3.1-39.1-10.6-52.8-27.3c20.3,9.8,41.4,16.4,64.2,16.2
		c22.6-0.1,43.6-6.5,64.4-17.2c-2.8,7.8-9.3,10.7-14.6,14.4c-9.9,6.9-21,11.2-33,13C283.2,687.1,282.7,687.7,282.2,688.1z"/>
	<path fill="#9C7A5F" d="M304.6,236.7c19.4,3.9,36.8,11.7,49.5,27.5c10,12.4,10.1,26,2.7,39.7c-8.4,15.3-21.1,26.4-36.2,34.9
		c-15.5,8.7-32.4,13.8-50,13.7c-35.3-0.2-65.6-11.9-86.2-42.2c-8.5-12.6-12.2-26.3-4.2-40.9c5.8-10.7,15.3-17.5,25.7-23
		c7.6-4,15.5-7.7,24.3-8.6c2.3,7.3,8.2,11,14.3,14.5c7.9,4.5,16.3,8.1,25.4,7.1c10.2-1.1,19.2-6,27.6-11.8
		C301.3,244.8,303.9,241.4,304.6,236.7z M207.3,292.9c-0.1-0.1-0.2-0.2-0.3-0.2C207.1,292.7,207.3,292.8,207.3,292.9
		c0.1,0.1,0.1,0.2,0.2,0.3c0,0.1,0.2,0,0.3,0.1C207.7,293.2,207.5,293,207.3,292.9z M208.7,294.7c7.5,5.3,14.2,10.2,23.2,10.3
		c8.3,0.1,16.5-0.9,24.7-2.6c4.3-0.9,8.5-2.8,13.1-1.9c9.4,1.9,18.9,3.6,28.4,4.7c11,1.2,18.3-5.6,26.5-10.8
		c-2.6,0.1-4.9,0.9-7.1,1.8c-8,3.3-16,4.4-24.7,2.2c-14.2-3.6-28.6-7.8-43.3-1.6c-0.8,0.3-1.6,0.4-2.4,0.6
		c-11,2.6-21.9,3.6-32.5-1.8C213.2,294.9,211.6,293.8,208.7,294.7z"/>
	<path fill="#9C7C60" d="M393.9,239.9c-23.3-0.6-46.5-1.4-69.4-6.1c-10.3-2.1-20.3-5.2-28.5-12.3c-4.5-3.9-7.2-8.7-8.9-14.1
		c-8.5-27.6,2.8-59.3,27.7-73.9c22.7-13.3,47.2-17.1,71.6-5.4c30.7,14.8,49.3,40.1,55.6,73.6c4.1,21.6-9.4,36.9-32.6,38.3
		C404.2,240.2,399.1,239.9,393.9,239.9z M308.5,216.8c4.7,2.2,9.7,3.3,14.7,4.5c24.2,6,48.4,8,72.9,1.5c2.6-0.7,5-1.4,6.3-3.9
		c7.6,1,9,0.4,9.6-6.5c1.8-19.1-0.7-37.3-13.1-52.8c-12.9-16.3-30.2-25-50.8-24.1c-20.8,0.8-35.9,12.2-44.2,31.4
		c-6.8,15.5-6.7,32-4.5,48.5c0.3,1.9,1.2,3.5,3.2,4.1C305.3,220.2,307.1,218.9,308.5,216.8z"/>
	<path fill="#9C7C60" d="M178,119.7c26.7,0.9,49.7,9.7,63.9,33.8c9.4,15.9,11.9,33.4,6.8,51.5c-3.8,13.2-13.8,19.8-26,24
		c-11.2,3.8-22.9,5.4-34.6,6.8c-17.5,2.1-35.1,2.8-52.8,2.9c-8.4,0-16.9-0.6-25.1-3.5c-10.1-3.7-16.5-12.1-17-22.9
		c-1-22.9,8.3-42,22-59.4c10.9-13.8,24.8-23.4,41.2-29.8C163.3,120.3,170.5,119.5,178,119.7z M230.4,219.1c4.7,0.6,5.7-2.4,5.9-6
		c0.6-8.6,0.8-17.1,0.3-25.8c-1.9-33-30.3-57.6-60.7-52.6c-17.5,2.9-31.3,10.9-41.6,24.7c-11.5,15.5-15.4,33.1-13,52.3
		c0.9,7.4,2.8,9,9.8,6.1c0.9,2.4,2.1,4.3,5,5c21,5.2,42.1,5.7,63.2,1.5c9.2-1.9,18.3-4.2,27.5-6.4
		C228,218.3,229.2,218.7,230.4,219.1z"/>
	<path fill="#EDCBCB" d="M370.3,81c-9-6.4-19.3-10.1-30.1-14.7c12.1-9.2,24.6-16.4,39.2-19.4c26.4-5.3,57.3,14.7,52.5,55.4
		c-1,8.4-2.6,16.6-5.7,24.6c-6.4-3.2-10.9-8.7-15.1-14c-7.3-9.1-16.3-16.1-25.7-22.8c-4.2-3-8.5-6-13.2-8.2
		C371.6,81.6,371,81.2,370.3,81L370.3,81z"/>
	<path fill="#EDCBCB" d="M115,116.1c-3.6-15.3-4.8-30.5,2.4-45.2c8.8-18,27.9-27.6,47.6-23.9c13.6,2.6,25.5,9,37.4,18.3
		c-13.4,3.4-24.4,9.9-36.1,14.7c-4.5,2-9,4-12.4,7.8c-2.6,2.9-6.4,3.8-9.4,5.9c-6.8,4.6-11.4,11.2-17.7,16.2
		C123.3,112.6,120.4,116.8,115,116.1z"/>
	<path fill="#58381D" d="M304.6,236.7c-0.8,4.7-3.3,8.1-7.2,10.8c-8.4,5.8-17.4,10.7-27.6,11.8c-9.1,1-17.5-2.7-25.4-7.1
		c-6.1-3.5-12-7.2-14.3-14.5c1.2-3.5,4.1-4.9,7.4-5.8c7.8-2.1,15.8-3.2,23.9-3c2.4,1.6,4.7,1.7,7-0.1c1.3,0,2.7,0,4,0
		c0.6,1.1,1.3,1.1,2,0.1c8.1,0,16.1,1.4,23.9,3.5C300.8,233.2,303.2,234.2,304.6,236.7z"/>
	<path fill="#58381D" d="M348.7,117.2c-6.9,0-13.6-0.9-19.5-4.8c-6.3-4.1-6.2-10.5,0.8-13.3c11.5-4.5,22.9-3.4,33.2,3.5
		c5.7,3.8,4.8,9.2-1.3,12.4C359,116.5,354.4,117.2,348.7,117.2z"/>
	<path fill="#58381D" d="M208.4,110.9c-0.7,0.3-1.4,0.6-2,0.9c-0.5-0.6-0.7-0.3-0.9,0.3c0,0,0.1-0.1,0.1-0.1c-1.2,0-2.6-0.5-3.1,1.2
		c-0.7,0.2-1.4,0.4-2,0.7c-0.6-0.3-1.2-0.9-1.6-0.9c-5.9,1-11.6,1.8-17.5-1.4c-3.8-2.1-5.7-5.4-3.1-9c1.2-1.7,2.8-3.2,3.3-5.4
		c0.4-0.1,0.7-0.2,1.1-0.2c1,1.3,1.6,0.7,1.9-0.5c7.3-2.3,14.6-2.5,21.9-0.5c1.7,0.5,4.1,0.4,4.6,2.9c0.9,3.2,1.9,6.4,0.5,9.8
		c-0.5,0.4-1.1,0.9-1.6,1.3C209.3,110.3,208.8,110.6,208.4,110.9z"/>
	<path fill="#47301E" d="M181.3,97.3c-0.5,2.2-2,3.7-3.3,5.4c-2.6,3.6-0.7,6.9,3.1,9c5.9,3.2,11.5,2.4,17.5,1.4
		c0.5-0.1,1.1,0.6,1.6,0.9c-7.2,2.3-14.4,2.2-21.5,0c-3.4-1-6.9-2.4-7.4-6.5c-0.6-4.3,2.8-6.5,5.9-8.5
		C178.5,98.2,180,97.8,181.3,97.3z"/>
	<path fill="#47301E" d="M211.4,108.7c1.4-3.3,0.4-6.6-0.5-9.8C215.6,101.9,215.7,104.2,211.4,108.7z"/>
	<path fill="#47301E" d="M268.3,228.8c-2.3,1.7-4.7,1.7-7,0.1C263.7,228.9,266,228.9,268.3,228.8z"/>
	<path fill="#47301E" d="M202.4,113.2c0.6-1.7,1.9-1.2,3.1-1.2C204.8,113.2,203.6,113.2,202.4,113.2z"/>
	<path fill="#47301E" d="M184.3,96.5c-0.4,1.2-0.9,1.8-1.9,0.5C183,96.8,183.7,96.7,184.3,96.5z"/>
	<path fill="#47301E" d="M274.3,228.9c-0.7,1-1.4,1-2-0.1C273,228.9,273.7,228.9,274.3,228.9z"/>
	<path fill="#9C7C61" d="M370.3,80.9c0.7,0.3,1.4,0.7,2.1,1C371.6,81.7,370.6,82,370.3,80.9z"/>
	<path fill="#47301E" d="M205.4,112.1c0.1-0.6,0.4-0.9,0.9-0.3C206.1,112.1,205.8,112.2,205.4,112.1z"/>
	<path fill="#47301E" d="M208.4,110.9c0.5-0.3,0.9-0.6,1.4-0.9C209.3,110.3,208.8,110.6,208.4,110.9z"/>
	<path fill="#F2D9B2" d="M314.3,416.8c-12,3.5-22.5,9.9-32.2,17.7c-3.5,2.8-7,5.6-10.3,8.6c-1.6,1.5-2.6,1.2-4-0.3
		c-9.1-9.7-19.8-17.2-31.3-23.6c-1.7-0.9-3.9-0.9-5.2-2.6c-1.6-0.9-3-2.1-5-1.7c-6.2-3.9-13.9-3.6-20.9-7.4
		c11.4-6.1,22.8-8,34.9-4.7c10.5,2.9,19.2,9,27.3,16.1c1.7,1.5,2.9,3,5.4,0.7c17.8-16.7,38.5-18.7,60.9-11.5
		c1.1,0.4,2.3,0.5,3.4,0.8c-0.1,0.6-0.1,1.2-0.2,1.9c-7.1,1.2-14.1,2.5-20.7,5.2C315.5,415.9,314.8,416.1,314.3,416.8z"/>
	<path fill="#93775D" d="M220.4,465.8c-3.4,0-6.1-3.7-4.2-7c1.1-1.9,1-3.8,1.3-5.7c0.4-3.5,2.7-4.9,5.9-5.8c3.3-0.9,6.9-0.8,8.9,1.5
		c2.3,2.7,1.9,7,1.5,10.4c-0.3,2.4-3,4.8-5.9,5.5C225.6,465.3,223.2,465.4,220.4,465.8z"/>
	<path fill="#93775D" d="M226.3,414.9c2-0.4,3.4,0.8,5,1.7c0,1,0.2,2.1-0.2,3c-1.7,3.6-0.1,5.3,3.4,5.9c0.5,0.1,1,0.3,1.4,0.4
		c2.3,0.9,5.7,1.7,5,4.6c-0.7,3-4.5,3.4-7.1,3.1c-4.4-0.5-8.8-1.6-13-2.9c-4.1-1.2-4.3-7.4-0.7-10.7
		C222,418.2,225,417.6,226.3,414.9z"/>
	<path fill="#93775D" d="M423.3,615.8c0,1.7,0,3.3,0,5c-3.7-1.6-7.2-2.9-7.7,3.3c-0.1,1.2-0.7,3.4-2.5,3.2c-1.9-0.2-2.4-2.2-2.6-3.8
		c-1.2-7.3,1.2-13.6,6-19c1.4-1.5,2-2.8,1.9-4.7c3.5,0.8,1.5,4.2,2.8,6.1c1.1,1.7,1.5,3.9,2.2,5.9
		C421.9,613.2,421.9,614.5,423.3,615.8z"/>
	<path fill="#93775D" d="M208.4,384.9c1.6,0.1,3,0.7,4,1.9c-2.2,0.9-3.3,2-2.7,4.9c0.7,3.3-1.6,6.5-1.7,10c0,1.5-2.4,3.3-4.6,2.9
		c-2.4-0.5-3.4-2.6-3-5c0.6-3.3,2.4-6.1,5-8.3C207.4,389.6,208.8,387.7,208.4,384.9z"/>
	<path fill="#93775D" d="M338.2,402.2c0.6-2.2-0.9-3.6-1.9-5.3c-0.7-1.1-1.4-2.5,0.1-3.4c1.4-0.9,2.7,0.1,3.4,1.1
		c1.5,2.2,2.9,4.4,3.3,7.1c0.2,1.3,0.7,3.2-1.1,3.9c-1,0.4-2.4,0.4-3.4,0.1C336.6,405,338.4,403.4,338.2,402.2z"/>
	<path fill="#93775D" d="M299.3,434.5c0,2.1-1.1,4-3.8,4.2c-2.2,0.2-4.2-1.3-3.9-3.4c0.3-2.7,2.5-4.8,5.2-5.2
		C299.2,429.8,299.3,432.1,299.3,434.5z"/>
	<path fill="#93775D" d="M345.3,398.9c3.4,1.8,2.5,5.1,3,8C344.8,405.1,346.3,401.5,345.3,398.9z"/>
	<path fill="#9B7B5F" d="M314.3,416.8c0.5-0.7,1.2-0.9,2-0.8c0,0.2,0.1,0.3,0.1,0.5c0,1.4,2.1,3.5-0.4,4
		C313.5,420.9,314.7,418.2,314.3,416.8z"/>
	<path fill="#93775D" d="M337.1,410.8c0.1-0.6,0.1-1.2,0.2-1.9c1-0.2,2.4-1.6,2.8,0C340.5,411.2,338.4,410.7,337.1,410.8z"/>
	<path fill="#93765A" d="M423.3,615.8c-1.4-1.3-1.4-2.7,0-4c4.2-0.6,4.2,2.1,4,5c-0.3,0.3-0.6,0.7-1,1
		C425.3,617.2,424.9,615.6,423.3,615.8z"/>
	<path fill="#58381D" d="M208.7,294.7c2.8-0.9,4.5,0.2,6,1c10.6,5.4,21.5,4.4,32.5,1.8c0.8-0.2,1.7-0.3,2.4-0.6
		c14.7-6.2,29.1-2,43.3,1.6c8.7,2.2,16.7,1.1,24.7-2.2c2.2-0.9,4.5-1.7,7.1-1.8c-8.2,5.1-15.5,12-26.5,10.8
		c-9.6-1.1-19-2.8-28.4-4.7c-4.6-0.9-8.8,1-13.1,1.9c-8.2,1.7-16.4,2.7-24.7,2.6C222.9,304.9,216.2,299.9,208.7,294.7z"/>
	<path fill="#58381D" d="M207.3,292.9c0.2,0.1,0.3,0.2,0.5,0.4c-0.1,0-0.2,0-0.3-0.1C207.5,293.1,207.4,293,207.3,292.9L207.3,292.9z"
		/>
	<path fill="#58381D" d="M207.4,292.9c-0.1-0.1-0.2-0.1-0.4-0.2C207.1,292.8,207.2,292.8,207.4,292.9
		C207.3,292.9,207.4,292.9,207.4,292.9z"/>
	<path fill="#F7E8DE" d="M402.4,218.9c-1.4,2.5-3.8,3.2-6.3,3.9c-24.4,6.4-48.7,4.5-72.9-1.5c-5-1.2-10-2.3-14.7-4.5
		c-1.3-11.1-2.3-22.3-0.1-33.4c0.2-0.9-0.1-2.2,1.5-1.7c-0.9,8.2,0.8,16,4.8,23.1c5.5,9.6,13.4,16.4,25.1,16.2
		c11.6-0.2,19.5-6.7,24.8-16.6c6.3-11.8,6.5-24.1,2.4-36.3c-4-11.7-11.9-19.9-24.8-22c3.7-1.7,7.7-1.6,11.7-1.3
		c25.6,2.1,46.4,22.8,49.4,48.5C404.4,201.8,402.5,210.3,402.4,218.9z"/>
	<path fill="#58381D" d="M402.4,218.9c0.1-8.6,2-17.1,0.9-25.9c-3-25.7-23.8-46.4-49.4-48.5c-3.9-0.3-7.9-0.4-11.7,1.3
		c-1.1,1.5-2.3,1.1-3.4,0.1c-1.3-1.1-2.4-0.8-3.6,0c-13.5,8.3-23.6,19-25.4,35.6c-1.6-0.4-1.3,0.9-1.5,1.7
		c-2.2,11.2-1.2,22.3,0.1,33.4c-1.4,2.1-3.2,3.4-5.8,2.7c-2-0.6-2.9-2.2-3.2-4.1c-2.2-16.5-2.3-33,4.5-48.5
		c8.3-19.2,23.5-30.6,44.2-31.4c20.5-0.8,37.8,7.8,50.8,24.1c12.4,15.6,14.8,33.8,13.1,52.8C411.4,219.3,410,219.9,402.4,218.9z"/>
	<path fill="#F7E8DE" d="M226.8,217.9c-9.2,2.1-18.3,4.5-27.5,6.4c-21.2,4.3-42.2,3.8-63.2-1.5c-2.9-0.7-4.1-2.6-5-5
		c-0.3-8.4-1.9-16.8-0.8-25.4c4.4-32.5,31.8-53.7,63.1-48.6c1.1,0.5,2.3,1,4,1.7c-8.7,0.9-13.9,2.9-18.4,6.8
		c-15.3,13.1-18.4,38.8-6.8,55.5c4.8,7,10.9,12.2,19.5,13.4c12.8,1.7,21.7-4.5,28.1-15c4.9-7.9,5.9-16.8,6-25.9
		c2.1,5.4,2.2,11,2.7,16.6c0,1,0,2,0,3c-0.2,0.3-0.2,0.6,0,1c0,0.7,0,1.3,0,2C226.8,207.8,227.7,212.9,226.8,217.9z"/>
	<path fill="#58381D" d="M228.4,199.9c0-1,0-2,0-3c1.4-7.7,2-15.2-4-21.6c-0.4-0.4-0.8-1.1-0.8-1.7c0.4-5.8-3.7-9.6-6.3-14
		c-3.3-5.4-9.5-8.3-13.1-13.4c-3.2-4.5-6.7-4.5-11-2.4c-31.3-5.1-58.6,16.1-63.1,48.6c-1.2,8.6,0.4,16.9,0.8,25.4
		c-7,2.8-8.9,1.3-9.8-6.1c-2.4-19.2,1.5-36.8,13-52.3c10.3-13.9,24.1-21.8,41.6-24.7c30.4-5,58.8,19.6,60.7,52.6
		c0.5,8.7,0.3,17.2-0.3,25.8c-0.2,3.7-1.3,6.7-5.9,6c-1.1-3.8-1.6-7.6-0.4-11.4c0.6-1.9-0.2-3.5-1.6-4.7c0-0.7,0-1.3,0-2
		c0.1-0.1,0.4-0.2,0.4-0.3C228.7,200.4,228.6,200.2,228.4,199.9z"/>
	<path fill="#47301E" d="M228.4,202.9c1.4,1.3,2.2,2.8,1.6,4.7c-1.2,3.9-0.7,7.6,0.4,11.4c-1.2-0.4-2.4-0.8-3.6-1.2
		C227.7,212.9,226.8,207.8,228.4,202.9z"/>
	<path fill="#47301E" d="M310,181.6c1.7-16.7,11.9-27.4,25.4-35.6c1.2-0.7,2.4-1.1,3.6,0c1.1,1,2.3,1.4,3.4-0.1
		c12.9,2.1,20.8,10.2,24.8,22c4.1,12.2,4,24.6-2.4,36.3c-5.4,9.9-13.2,16.5-24.8,16.6c-11.7,0.2-19.6-6.6-25.1-16.2
		C310.8,197.6,309.1,189.8,310,181.6z"/>
	<path fill="#47301E" d="M193.4,143.8c4.3-2.1,7.8-2.1,11,2.4c3.6,5.1,9.8,8,13.1,13.4c2.6,4.4,6.7,8.2,6.3,14c0,0.6,0.4,1.3,0.8,1.7
		c5.9,6.3,5.3,13.9,4,21.6c-0.4-5.6-0.6-11.2-2.7-16.6c-0.1,9.1-1.1,18-6,25.9c-6.4,10.4-15.3,16.6-28.1,15
		c-8.7-1.1-14.7-6.4-19.5-13.4c-11.6-16.7-8.4-42.3,6.8-55.5c4.6-3.9,9.7-5.9,18.4-6.8C195.6,144.8,194.5,144.3,193.4,143.8z"/>
	<path fill="#47301E" d="M228.4,199.9c0.1,0.2,0.3,0.5,0.3,0.7c0,0-0.2,0.2-0.4,0.3C228.3,200.6,228.3,200.2,228.4,199.9z"/>
</g>
</svg>
