<?xml version="1.0" encoding="utf-8"?>
<!-- Generator: Adobe Illustrator 26.0.3, SVG Export Plug-In . SVG Version: 6.00 Build 0)  -->
<svg version="1.1" id="Capa_1" xmlns="http://www.w3.org/2000/svg" xmlns:xlink="http://www.w3.org/1999/xlink" x="0px" y="0px"
	 viewBox="0 0 536.5 884" style="enable-background:new 0 0 536.5 884;" xml:space="preserve">

<g>
	<path fill="#8D735A" d="M423.7,708.2c-3.6,26.2-7.2,52.4-11.6,78.5c-1.5,8.9-2.6,17.8-4.2,26.6c-0.6,3.5,0.5,5.3,3.6,7.1
		c9.6,5.4,18.3,12.1,24.6,21.5c5.8,8.8,7.4,18.1,3.9,28.1c-2.7,7.7-8.3,12.2-16.6,13.2c-8.3,1-16.6,0.6-25,0.6
		c-30.2,0.1-60.3,0-90.5,0c-2.3,0-4.7,0.1-7-0.2c-8-0.8-11.8-4.6-11.9-12.6c-0.3-25.8-2-51.6-3.1-77.4c-1.6-35.9-3.3-71.9-4.9-107.8
		c-0.1-2.6-0.6-4-3.6-3.9c-6.5,0.2-13,0.1-19.5-0.1c-2.8-0.1-3.8,0.9-3.9,3.7c-0.9,24-1.8,47.9-3,71.9c-1.5,31.6-3.2,63.2-4.7,94.8
		c-0.3,6.7-0.2,13.3-0.4,20c-0.2,6.2-2.6,9.3-8.5,10.6c-2.6,0.6-5.3,0.8-7.9,0.8c-37.3,0-74.6-0.1-112,0.1c-10.2,0-19.2-2-23.8-12.1
		c-4.8-10.5-3.4-20.7,3.4-30.2c6.6-9.1,15.1-15.9,24.9-21.2c2.8-1.5,3.8-2.9,3.2-6.2c-4.1-25-8.1-49.9-11.7-75
		c-3.6-24.9-7.5-49.7-7.5-74.9c0-10.8,1.1-21.6,2.4-32.3c0.2-1.3,0.7-2.6-0.3-3.8c-3.5-1.1-2.5-3.2-0.2-3.7c3.4-0.8,3.4-2.6,2.6-5.1
		c-0.5-1.5,0.1-2.6,0.7-3.7c3.8-6.3,5.5-13.4,7.6-20.3c3.2-10.6,8.2-20.4,11.7-30.9c2.6-7.8,6.5-15.2,9-23
		c4.1-13.2,9.8-25.8,14.3-38.8c5.8-16.9,13.4-33.3,19.2-50.4c3.1-9,6-18.1,9.7-26.9c3.8-9.1,7-18.4,8.6-28.2c0.4-2.6,1-5.4,1.8-8.1
		c2-7.2,2.8-14.8,1.7-22.4c1.9,0.4,3.9,0.8,5.8,1.3c21.1,5.6,42.4,9.7,64.3,9.2c8.8-0.2,17.6-0.2,26.4-1.1c14.1-1.4,28-3.6,41.7-7
		c2.8-0.7,5.3-1.2,7.8,0.6c0.6,4.3-0.2,8.6,0.7,12.9c1.3,6.1,3.6,12,4.9,18c2,8.9,5.6,17.2,8.1,25.8c3.3,11.2,7.9,22,11.6,33.1
		c4.1,12.2,9.1,24,12.8,36.3c1.4,4.4,4.5,8.4,5.5,12.7c2.1,8.9,6,17.1,9.2,25.4c5.1,12.9,9.9,26,15.1,38.8
		c3.8,9.3,6.9,18.8,10.2,28.3c1.9,5.4,4.7,10.6,5,16.5c0.4,4.6,0.6,9.2,1.9,13.6c0.3,7.7,0.6,15.4,0.9,23.1
		c-0.5,0.7-0.5,1.3,0.1,1.9c0,10,0.1,20.1-1,30.1c-0.8,0.9-0.9,1.9-0.2,2.9c-0.2,2.4-0.5,4.7-0.7,7.1c-0.8,0.9-0.9,1.9-0.4,3
		c-0.2,1.7-0.4,3.3-0.6,5C423.3,705.4,423.3,706.8,423.7,708.2z M204.4,408.2c2.7,0.8,4.1,1.3,5.6,1.6c21.6,4.9,39.7,16,55.4,31.2
		c3.7,3.6,5.8,3.3,9.3,0.1c12.8-12.3,27.7-21.1,44.9-26.1c5.8-1.7,11.7-3.1,18-4.7c-2.8-2.8-6-2.5-8.8-3.3
		c-20.5-5.7-39.3-2.8-55.3,11.9c-3.1,2.9-4.9,2.1-7.3-0.3c-5.7-5.7-12.6-9.9-19.9-13.2C232.3,399.1,218.7,400.3,204.4,408.2z"/>
	<path fill="#F2D9B2" d="M341,369.8c-2.5-1.8-5-1.3-7.8-0.6c-13.7,3.4-27.6,5.6-41.7,7c-8.8,0.9-17.6,0.9-26.4,1.1
		c-22,0.5-43.2-3.6-64.3-9.2c-1.9-0.5-3.9-0.9-5.8-1.3c-10.9-4.3-22.1-8-32.7-13.2c-0.6-0.3-1.3-0.1-2-0.2
		c-6.9-5.5-15.3-8.4-22.6-13.3c-20.8-13.9-39-30.4-52.1-51.9c-9.7-15.8-14.8-32.8-14.3-51.4c0.1-2.1,0.3-4.4,1-6.4
		c3.8-10,4.8-20.6,5.7-31.1c1-12.2,4.3-23.8,8.2-35.2c6.2-17,15.7-32,27.3-45.8c1.2,0.1,2.1-0.4,3-1.3c6.7-7.2,12.5-15.1,21-20.6
		c9.2-6,17.1-14.1,27.7-18c22.3-3.7,42.9,1,62.2,12.5c11.2,6.7,21.3,14.9,30.4,24.2c3.5,3.6,5,3.2,8.3-0.1
		c27.3-27.3,60-40.3,98.9-36.7c2,0.2,4,2.2,6.1,0.2c2.5,0.7,4.9,0.9,6.9,3.7c2.7,3.7,6.6,6.9,10.6,9.3c5.8,3.5,11.5,7,16.1,12.1
		c5,5.5,9.9,11.1,14.8,16.6c2,2.3,4.1,4.3,7.5,4.3c0,1.9-0.9,3.7,0.6,5.7c10.2,13.9,17,29.6,22.6,45.8c2.8,11.9,5.1,24,5.1,36.3
		c0,1.1,0.4,2.4,1,3.3c10.2,14.7,8.8,30.7,5.4,46.9c-6.1,28.7-23,50.2-45.5,68c-10.8,8.6-22.5,15.8-35,21.5c-1.2,0.6-2.4,1.1-3,2.4
		c-11.8,4.2-23.3,9.3-35.4,12.6C341,367.2,340.7,368.3,341,369.8z M362.8,121.1c2.4-5.5,1.2-9-4.8-10.6c-9.9-2.6-18.9-7.2-28.2-11.2
		c-1.6-0.7-3.5-1.4-5.2-1.4c-3,0.1-6.2,0.4-8.1,3.4c-2,3.1-1.3,6.1,0.5,8.9c1,1.5,2.3,2.9,3.5,4.2c4.8,4.9,11.4,6.5,17.5,9
		c-0.6,0.3-1.1,0.7-1.8,0.9c-27.6,8.7-46.4,25.6-50.6,55.4c-1.5,10.4-1.5,20.9,3.3,30.8c6.2,12.9,18.1,17.4,30.7,20.7
		c16,4.2,32.3,6.1,48.8,6.7c15.4,0.5,30.8,2.8,46.3,0.4c21.1-3.2,31.8-18.7,27.9-39.3c-3.3-17.2-11.1-31.9-22.3-45
		c-12.1-14.3-27.1-24.3-45.3-29.4C370.9,123.3,366.4,123.9,362.8,121.1z M229,236.1c-17.1,3.9-32.3,11.2-44.5,24.1
		c-7.3,7.7-11,17.1-10,27.8c0.8,9,4.7,17,10.1,24.1c19.3,25.6,45.8,37.9,77.2,39.9c21.3,1.4,41.3-4,59.8-14.6
		c14.5-8.3,27-18.8,34.7-34.1c4.4-7.4,7-15.3,4.9-24c-0.1-2.5-0.9-4.9-2-7.1c-11.3-22.4-31.4-31.5-54.5-36.1
		c-1.9-1.9-3.9-3.3-6.6-4.3c-8.3-3-17-3.6-25.6-4c-11.5-0.6-23-0.4-34.1,2.7C234.8,231.3,230.6,231.8,229,236.1z M248.2,185.2
		c-1.2-21.3-10.6-40.2-31.2-52.6c-29.5-17.7-62.4-13.5-89.9,6.4c-22.3,16.1-35.1,38.5-38.2,65.8c-1.5,12.8,2.7,25.6,18.8,30.8
		c9.5,3.1,19.4,3.6,29.1,3.2c15.4-0.6,30.9-0.6,46.3-2.5c13.6-1.7,27-3.6,39.9-8.3c5.9-2.2,11.3-5.4,15.7-10.3
		C246.3,208.9,247.8,198.4,248.2,185.2z M169.9,113.8c1-0.1,2.1,0,2.9-0.4c10.5-4.7,21.8-7,32.9-9.6c2.2-0.5,3.8-1.9,5-3.8
		c3.6-6.1-0.7-12.9-9.3-13.4c-15.2-1-27.3,5.7-36.9,17c-1.6,1.8-2.9,4.1-1.3,6.9C164.7,113.1,167,113.9,169.9,113.8z M185.8,242.7
		c0-0.4-0.1-0.9-0.1-1.3c-0.6-0.1-1.2-0.3-1.8-0.2c-13.5,2.3-26.9,4.6-40.6,1.8c-1-0.2-2.3-0.3-2.4,1c-0.1,1.7,1.6,2.1,2.8,2.4
		C158.2,250.2,172.2,247.9,185.8,242.7z"/>
	<path fill="#98765B" d="M160.3,353.4c0.7,0.1,1.4-0.1,2,0.2c10.6,5.2,21.8,8.9,32.7,13.2c1,7.6,0.3,15.2-1.7,22.4
		c-0.8,2.7-1.4,5.5-1.8,8.1c-1.6,9.8-4.8,19.1-8.6,28.2c-3.7,8.8-6.6,17.9-9.7,26.9c-5.8,17-13.3,33.4-19.2,50.4
		c-4.5,13-10.2,25.6-14.3,38.8c-2.4,7.8-6.4,15.3-9,23c-3.5,10.5-8.5,20.3-11.7,30.9c-2.1,6.9-3.8,14-7.6,20.3
		c-0.7,1.1-1.3,2.2-0.7,3.7c0.9,2.4,0.8,4.2-2.6,5.1c-2.3,0.6-3.3,2.7,0.2,3.7c-1.9,3.7-3.6,7.5-5.7,11.1c-5,8.1-11.2,10.7-20.4,8.2
		c-2.9-0.8-4.9-0.4-7.2,1.6c-8.9,7.5-23.1,6.4-30.5-2.4c-2.2-2.7-4.2-3.9-7.9-3.6c-12.1,1-23.4-9.3-20.6-21.4c0.3-1.5,0.6-3-1.7-3.4
		c-14.3-2.1-16.1-15.8-13.5-27.4c2-8.9,7.4-16.3,12.1-23.9c27.4-43.9,55.4-87.4,84.2-130.4c14.6-21.7,29.5-43.1,45.1-64
		c4.6-6.1,9.6-11.9,15.8-16.5C159.1,355.3,160.1,354.6,160.3,353.4z"/>
	<path fill="#98765B" d="M341,369.8c-0.3-1.5,0.1-2.6,1.7-3c12.1-3.3,23.6-8.4,35.4-12.6c15.1,12.8,25.1,29.6,36.3,45.5
		c36,51.4,70.1,104.1,103.5,157.2c6,9.6,12.8,18.8,16.8,29.4c3.2,8.6,3.1,17.3-2.8,25.1c-1.9,2.5-4.3,4.5-7.4,4.7
		c-4.2,0.3-4.4,2.5-4.3,6c0.5,10.8-7.4,19.2-18.3,19c-4.8-0.1-8,1-11.3,4.8c-7.1,8.2-21.8,8.3-29.9,1.2c-1.5-1.3-2.7-2.6-5.2-2
		c-11.9,3.1-16.8,1.1-23.2-9.4c-1.1-1.8-2-3.8-3.1-5.7c-1.8-4.1-1.2-9.2-5-12.5c-0.3-5.9-3.1-11.1-5-16.5c-3.3-9.5-6.3-19-10.2-28.3
		c-5.3-12.8-10.1-25.9-15.1-38.8c-3.3-8.3-7.1-16.5-9.2-25.4c-1-4.3-4.2-8.2-5.5-12.7c-3.8-12.3-8.7-24.1-12.8-36.3
		c-3.7-11.1-8.3-21.9-11.6-33.1c-2.5-8.7-6.1-16.9-8.1-25.8c-1.3-6-3.6-11.9-4.9-18C340.8,378.4,341.6,374.1,341,369.8z"/>
	<path fill="#99795F" d="M113.4,118.2c-11.6,13.8-21,28.9-27.3,45.8c-2-0.7-2.3-2.7-3.1-4.3c-11.6-25-18.1-51.3-15.5-78.9
		c2.8-29.7,17.8-52.5,43.5-68C144.3-7.3,186.6-3,215.1,23.4c8.3,7.7,15.2,16.7,20,27.2c1.1,2.4,2.3,3.7,5.2,3.5
		c20.1-1.5,40.2-2.6,60.2,0.3c3.8,0.5,5.5-0.7,7.2-4.1C324.5,16.7,359.9-3.3,395,0.5c39.7,4.4,70.5,32.1,78.9,71.2
		c4.7,21.6,0.9,42.7-5,63.5c-3.9,13.7-9.1,26.8-17.2,38.6c-0.5,0.7-1.1,1.3-1.6,1.9c-5.6-16.2-12.4-31.8-22.6-45.8
		c-1.4-1.9-0.6-3.8-0.6-5.7c5.4-16.3,8.3-32.7,3.2-49.8c-5.5-18.2-25.4-32.3-43.5-31c-16.6,1.2-30.4,8.8-43.6,17.9
		c-3.3,2.3-2,3.4,0.9,4.4c9.4,3.3,18.3,7.8,27.1,12.6c-2.1,2-4.1,0-6.1-0.2c-38.9-3.6-71.6,9.4-98.9,36.7c-3.3,3.3-4.8,3.7-8.3,0.1
		c-9.1-9.3-19.1-17.5-30.4-24.2c-19.3-11.5-39.9-16.2-62.2-12.5c0.5-0.9,1.2-1.5,2.2-1.9c9.7-4.6,19.6-8.9,29.8-12.5
		c1-0.3,2.6-0.2,2.6-1.8c0-1.1-1.2-1.5-2-2c-12-7.9-24.4-14.6-39.2-16.3c-21.8-2.4-44.3,14.7-47.6,36.4
		C109.1,93.1,110.5,105.7,113.4,118.2z"/>
	<path fill="#F2D9B2" d="M204.4,408.2c14.3-7.8,27.9-9,41.7-2.8c7.3,3.3,14.1,7.5,19.9,13.2c2.5,2.5,4.2,3.2,7.3,0.3
		c16-14.7,34.8-17.6,55.3-11.9c2.8,0.8,6,0.5,8.8,3.3c-6.3,1.6-12.2,3-18,4.7c-17.1,4.9-32.1,13.8-44.9,26.1
		c-3.4,3.3-5.5,3.5-9.3-0.1c-15.7-15.2-33.8-26.3-55.4-31.2C208.5,409.4,207.1,408.9,204.4,408.2z"/>
	<path fill="#99785C" d="M356.2,303.3c-7.7,15.3-20.3,25.8-34.7,34.1C303,348,283,353.4,261.7,352c-31.4-2-57.8-14.3-77.2-39.9
		c-5.4-7.1-9.3-15.2-10.1-24.1c-1-10.6,2.7-20,10-27.8c12.2-12.8,27.4-20.2,44.5-24.1c1.4,5.7,5.3,9.5,10,12.5
		c9.7,6.1,20,11,31.8,9.3c9.2-1.4,17.5-5.9,25.3-11.2c4-2.7,6.9-6.1,8.4-10.7c23.1,4.7,43.2,13.7,54.5,36.1c1.1,2.2,1.9,4.6,2,7.1
		c-1,0.3-3.3-0.4-2,1.8c0.8,1.4,1.5,2.9,0.8,4.1c-2.6,4.7-1.1,10.5-3.8,15.1C355.5,301.2,354.8,302.4,356.2,303.3z M224.1,296.1
		c-6.3,1-12,2.6-15.9,7.7c-1.5,2-3.4,4.4-0.9,6.6c2.4,2.1,4.2,0,5.9-1.7c4.2-4.4,9.1-6.4,15.3-4.6c2.2,0.7,4.6,0.9,6.8,1.6
		c10,3.2,19.2,1.3,27.4-4.7c5.2-3.8,10.4-4.9,16.3-2.7c9.2,3.5,18,2.6,26.2-2.7c7.4-4.8,14.5-3.5,21.5,0.9c1,0.6,1.9,1.3,2.9,1.9
		c1.7,1,3.6,1.6,5-0.2c1.5-2,0.6-3.9-1.1-5.2c-3.7-2.8-7.8-5.1-12.2-6.6c-8.1-2.7-15,1-21.6,4.8c-4.8,2.8-9.6,3.9-14.7,1.7
		c-10-4.4-19.1-2.7-27.9,2.9c-0.8,0.5-1.8,0.8-2.6,1.4c-5.1,3.4-10.5,3.5-16.2,1.9C233.4,297.8,228.7,297.1,224.1,296.1z"/>
	<path fill="#9A785D" d="M362.8,121.1c3.6,2.8,8.2,2.2,12.3,3.4c18.2,5.1,33.2,15.1,45.3,29.4c11.1,13.2,19,27.9,22.3,45
		c3.9,20.6-6.8,36-27.9,39.3c-15.5,2.4-30.9,0.1-46.3-0.4c-16.4-0.6-32.8-2.5-48.8-6.7c-12.6-3.3-24.5-7.9-30.7-20.7
		c-4.8-9.9-4.8-20.4-3.3-30.8c4.3-29.8,23-46.7,50.6-55.4c0.6-0.2,1.2-0.6,1.8-0.9c2.5-0.5,4.7,0.9,7.1,1.3
		C351.4,125.7,357.4,125,362.8,121.1z M323.1,223.2c3.8,0.1,7.4-0.7,11-2.1c9.4-1,18.8-2.3,28.2-2.8c9.9-0.5,19.9-0.6,29.8,0.8
		c2.3,0,4.6,1.6,7,0.2c10.3-0.2,11.7-1.7,13.2-11.2c1.6-10,0.3-19.5-2.5-29c-3.5-11.9-9.5-22.1-19.2-30.1
		c-11.4-9.4-23.9-14.7-39.1-15c-14.3-0.2-26.3,4.3-36,13.8c-18.1,17.8-19.1,40.7-16.8,64.1c0.8,7.8,2.6,8.5,10.3,6.4
		c1.4,0.8,2.8,1.6,4.2,2.3c0.1,1.6-2.9,1.9-1.8,3.6c1,1.7,3.1,1.2,4.5,0.7C318.3,224.1,321,224.9,323.1,223.2z M342.8,228.4
		c1.3,0.4,1.8,0.7,2.2,0.7c10.7-1,21.4-2,32.1-3.1c0.9-0.1,1.8-0.4,1.8-1.3c0-1.3-1.2-1.4-2.2-1.4c-6.8-0.2-13.7-0.9-20.4,0.3
		C351.9,224.3,347.1,224.8,342.8,228.4z"/>
	<path fill="#9B7A5E" d="M248.2,185.2c-0.4,13.2-1.8,23.7-9.6,32.4c-4.4,4.9-9.7,8.2-15.7,10.3c-12.9,4.7-26.4,6.6-39.9,8.3
		c-15.4,1.9-30.9,2-46.3,2.5c-9.7,0.4-19.6-0.1-29.1-3.2c-16.1-5.2-20.3-18-18.8-30.8c3.1-27.3,15.9-49.7,38.2-65.8
		c27.6-19.8,60.4-24.1,89.9-6.4C237.5,145,247,163.9,248.2,185.2z M228.2,217.4c5.1,1.2,6.4,0.2,6.9-5.8c0.8-9.6,1.6-19.1,0.2-28.8
		c-2.5-17-9.1-31.7-23.5-41.7c-26.7-18.4-65.6-8.1-83.2,21.7c-8.4,14.2-11.6,29.8-9.4,46.5c1.1,8.3,3.2,10.1,11.3,7.9
		c1.8,1.7,3.1,3.8,5.6,4.7c6.4,2.3,12.9,4.2,19.7,5.2c24.2,3.5,47.6,1,69.9-9.9C226.4,217.3,227.3,217.3,228.2,217.4z"/>
	<path fill="#ECC9CA" d="M371,78.3c-8.8-4.8-17.6-9.3-27.1-12.6c-3-1-4.2-2.2-0.9-4.4c13.2-9.1,27-16.7,43.6-17.9
		c18.1-1.3,38.1,12.8,43.5,31c5.1,17,2.2,33.5-3.2,49.8c-3.3,0.1-5.4-2-7.5-4.3c-4.9-5.6-9.8-11.2-14.8-16.6
		c-4.6-5-10.2-8.6-16.1-12.1c-4-2.4-7.9-5.6-10.6-9.3C375.9,79.2,373.5,79,371,78.3z"/>
	<path fill="#ECC9CA" d="M113.4,118.2c-2.9-12.5-4.4-25.1-2.4-38c3.3-21.8,25.8-38.9,47.6-36.4c14.8,1.6,27.2,8.3,39.2,16.3
		c0.8,0.5,2,0.9,2,2c0,1.6-1.7,1.4-2.6,1.8c-10.2,3.6-20.1,7.9-29.8,12.5c-1,0.5-1.7,1-2.2,1.9c-10.6,3.9-18.5,12-27.7,18
		c-8.5,5.5-14.3,13.4-21,20.6C115.5,117.8,114.7,118.3,113.4,118.2z"/>
	<path fill="#55371C" d="M304.6,236c-1.5,4.6-4.5,8-8.4,10.7c-7.8,5.3-16,9.8-25.3,11.2c-11.7,1.7-22.1-3.2-31.8-9.3
		c-4.7-3-8.6-6.7-10-12.5c1.6-4.3,5.8-4.8,9.2-5.8c11.2-3.1,22.6-3.3,34.1-2.7c8.7,0.5,17.3,1,25.6,4
		C300.6,232.7,302.7,234.1,304.6,236z"/>
	<path fill="#5A3B20" d="M169.9,113.8c-2.8,0-5.2-0.7-6.7-3.4c-1.5-2.7-0.2-5,1.3-6.9c9.7-11.3,21.7-18,36.9-17
		c8.6,0.5,12.9,7.3,9.3,13.4c-1.2,2-2.8,3.3-5,3.8c-11.1,2.6-22.4,4.9-32.9,9.6C172,113.8,170.9,113.7,169.9,113.8z"/>
	<path fill="#5A3B20" d="M362.8,121.1c-5.3,3.9-11.3,4.6-17.7,3.6c-2.4-0.4-4.6-1.8-7.1-1.3c-6.1-2.4-12.7-4-17.5-9
		c-1.3-1.3-2.6-2.6-3.5-4.2c-1.8-2.8-2.5-5.8-0.5-8.9c1.9-2.9,5.1-3.3,8.1-3.4c1.7,0,3.6,0.6,5.2,1.4c9.3,4,18.3,8.7,28.2,11.2
		C364,112.1,365.2,115.6,362.8,121.1z"/>
	<path fill="#5A3B20" d="M185.8,242.7c-13.6,5.2-27.6,7.5-42.1,3.7c-1.2-0.3-2.9-0.7-2.8-2.4c0.1-1.3,1.4-1.2,2.4-1
		c13.7,2.8,27.1,0.5,40.6-1.8c0.6-0.1,1.2,0.1,1.8,0.2C185.7,241.8,185.8,242.3,185.8,242.7z"/>
	<path fill="#8D735A" d="M356.2,303.3c-1.4-0.9-0.7-2.1-0.2-3c2.8-4.7,1.3-10.4,3.8-15.1c0.7-1.2,0-2.7-0.8-4.1c-1.3-2.2,1-1.6,2-1.8
		C363.2,288,360.6,295.8,356.2,303.3z"/>
	<path fill="#5A3B20" d="M224.1,296.1c4.5,1,9.3,1.7,13.9,3c5.7,1.6,11.1,1.5,16.2-1.9c0.8-0.5,1.8-0.9,2.6-1.4
		c8.8-5.7,17.9-7.4,27.9-2.9c5,2.2,9.9,1.1,14.7-1.7c6.6-3.8,13.5-7.5,21.6-4.8c4.4,1.5,8.5,3.8,12.2,6.6c1.8,1.3,2.7,3.2,1.1,5.2
		c-1.4,1.8-3.3,1.2-5,0.2c-1-0.6-1.9-1.3-2.9-1.9c-7-4.3-14-5.7-21.5-0.9c-8.2,5.3-17,6.2-26.2,2.7c-5.9-2.2-11.1-1.1-16.3,2.7
		c-8.2,6.1-17.4,7.9-27.4,4.7c-2.2-0.7-4.5-1-6.8-1.6c-6.1-1.8-11,0.1-15.3,4.6c-1.6,1.7-3.5,3.8-5.9,1.7c-2.5-2.2-0.6-4.6,0.9-6.6
		C212.2,298.7,217.9,297.1,224.1,296.1z"/>
	<path fill="#F8E9E1" d="M313.3,220.6c-1.4-0.8-2.8-1.6-4.2-2.3c-2.3-13.5-3.4-27.1,0.4-40.6c3.8-13.3,10.3-24.7,23.4-30.6
		c19.3-8.6,36.6-4.1,52.2,9.2c-3,1.1-6-2.9-9-0.1c-12.7,1-17.3,21-8.6,30.9c6.5,7.4,16.8,6.2,21.6-2.5c3.9-7.1,2.8-14.2-0.1-21.3
		c0.4-0.4,0.8-0.7,1.2-1.1c2.1,1.4,3.4,3.5,4.8,5.6c4.1,6.3,6.1,13.4,8.1,20.5c-0.1,3.3-0.5,6.7,0.9,9.9c-0.2,4.1-0.4,8.3-0.6,12.4
		c0,0,0,0.3,0.1,0.3c-0.6,2.1-1.5,3.2-4.2,2.7c-16.3-2.7-32.7-2.8-49-0.3c-0.7,0.1-1.4,0.3-2,0.4c-10.3,0.9-20.2,3.2-30,6.5
		C316.5,220.3,314.9,220.4,313.3,220.6z"/>
	<path fill="#5A3B20" d="M385.1,156.2c-15.6-13.3-32.9-17.8-52.2-9.2c-13.1,5.9-19.7,17.3-23.4,30.6c-3.8,13.5-2.7,27-0.4,40.6
		c-7.7,2.1-9.5,1.4-10.3-6.4c-2.4-23.4-1.3-46.3,16.8-64.1c9.7-9.6,21.7-14.1,36-13.8c15.2,0.3,27.7,5.6,39.1,15
		c9.8,8,15.8,18.2,19.2,30.1c2.8,9.5,4.1,19,2.5,29c-1.5,9.5-2.9,11-13.2,11.2c-0.3-2.3,0.3-4.2,2.8-4.9c2.1-0.6,2.6-1.6,1.5-3.5
		c0,0,0-0.3,0-0.3c3.3,0.3,2.7-2.2,2.7-4c0.1-2.8-1.5-5.5-1-8.3c-1.1-3.3,2.3-7.4-2-10c-2-7.1-4-14.2-8.1-20.5
		c-1.4-2.1-2.7-4.2-4.8-5.6C389.4,159.5,387.3,157.8,385.1,156.2z"/>
	<path fill="#5A3B20" d="M348.1,213.7c0.7-0.1,1.4-0.3,2-0.4c3.1,1.7,6.4,0.9,9.7,0.5c9.1-1.2,18.3-0.6,27.4-0.3
		c3.2,0.1,5.8,1.5,4.9,5.6c-9.9-1.4-19.9-1.3-29.8-0.8c-9.4,0.5-18.8,1.9-28.2,2.8c-2.1-5,2.5-4.1,4.6-4.8
		C341.8,215.4,345.5,216.4,348.1,213.7z"/>
	<path fill="#55371C" d="M392.1,219.1c0.9-4.1-1.7-5.5-4.9-5.6c-9.1-0.3-18.3-0.9-27.4,0.3c-3.2,0.4-6.5,1.2-9.7-0.5
		c16.4-2.5,32.7-2.5,49,0.3c2.7,0.5,3.5-0.7,4.2-2.7c1.1,1.9,0.6,3-1.5,3.5c-2.5,0.7-3.1,2.6-2.8,4.9
		C396.7,220.7,394.4,219.2,392.1,219.1z"/>
	<path fill="#5A3B20" d="M342.8,228.4c4.3-3.6,9.1-4.1,13.5-4.9c6.7-1.2,13.6-0.4,20.4-0.3c1,0,2.2,0.1,2.2,1.4c0,0.9-0.9,1.2-1.8,1.3
		c-10.7,1-21.4,2.1-32.1,3.1C344.6,229.1,344.1,228.8,342.8,228.4z"/>
	<path fill="#55371C" d="M348.1,213.7c-2.6,2.7-6.3,1.8-9.4,2.7c-2.2,0.7-6.7-0.3-4.6,4.8c-3.5,1.3-7.2,2.2-11,2.1
		c-1.1-1.9-3.7-1.4-5-3C327.9,216.9,337.8,214.6,348.1,213.7z"/>
	<path fill="#5A3B20" d="M318.1,220.2c1.3,1.6,3.9,1.1,5,3c-2.1,1.7-4.8,0.9-7.1,1.7c-1.4,0.5-3.5,1-4.5-0.7c-1.1-1.8,1.9-2.1,1.8-3.6
		C314.9,220.4,316.5,220.3,318.1,220.2z"/>
	<path fill="#F8EAE1" d="M225.6,217.2c-22.2,10.9-45.6,13.4-69.9,9.9c-6.8-1-13.3-3-19.7-5.2c-2.5-0.9-3.8-3-5.6-4.7
		c-0.2-3.5-1.3-6.7-2.4-10c-0.6-5.3-0.7-10.5-0.1-15.8c3.2-20.3,13-36,31.8-45.2c17.8-8.7,36.5-6.6,50.3,5.5
		c7,6.1,10.6,14.3,14.2,22.5c1,5.7,1.9,11.3,2.9,17c0,3.3,0,6.7,0,10C226.7,206.6,225.2,211.8,225.6,217.2z M191.1,187.3
		c0,0.6-0.1,1.9,0,3.2c0.9,6.9,5.7,12.8,11.2,13.8c6.3,1.1,12.3-1.7,14.8-7.4c2.9-6.7,3.1-13.6-0.2-20.2c-2.1-4.1-5.3-7.6-10.3-7.6
		c-5.5-0.1-10.4,1.6-13.3,7C191.7,179.4,190.6,182.8,191.1,187.3z"/>
	<path fill="#57381E" d="M224.3,174.2c-3.7-8.2-7.3-16.4-14.2-22.5c-13.8-12.2-32.5-14.2-50.3-5.5c-18.9,9.3-28.7,24.9-31.8,45.2
		c-3.6,4.8-1.5,10.1-1.2,15.2c0,0.2,0.8,0.4,1.3,0.6c1.1,3.2,2.2,6.5,2.4,10c-8.1,2.2-10.2,0.4-11.3-7.9c-2.2-16.6,1-32.2,9.4-46.5
		c17.6-29.7,56.5-40.1,83.2-21.7c14.4,9.9,21.1,24.7,23.5,41.7c1.4,9.7,0.6,19.2-0.2,28.8c-0.5,5.9-1.8,7-6.9,5.8
		c-0.4-1.9-0.4-3.7-0.3-5.7c0.2-3.5,1.3-7.1-0.8-10.5c0-3.3,0-6.7,0-10C228.8,185.1,228.3,179.4,224.3,174.2z"/>
	<path fill="#49311E" d="M227.2,201.2c2.1,3.3,1,7,0.8,10.5c-0.1,2-0.1,3.8,0.3,5.7c-0.9-0.1-1.7-0.1-2.6-0.2
		C225.2,211.8,226.7,206.6,227.2,201.2z"/>
	<path fill="#49311E" d="M389.1,163.3c2.9,7.1,4,14.2,0.1,21.3c-4.8,8.7-15.1,9.9-21.6,2.5c-8.7-9.9-4.2-29.9,8.6-30.9
		C380.8,157.8,386.6,157.6,389.1,163.3z"/>
	<path fill="#F2D9B2" d="M389.1,163.3c-2.5-5.7-8.2-5.4-12.9-7.1c3-2.8,6,1.2,9,0.1c2.2,1.6,4.2,3.2,5.1,5.9
		C389.8,162.5,389.4,162.9,389.1,163.3z"/>
	<path fill="#55371C" d="M405.1,198.2c-0.5,2.9,1.1,5.5,1,8.3c-0.1,1.9,0.6,4.3-2.7,4c0.2-4.1,0.4-8.3,0.6-12.4
		C404.3,198.2,404.7,198.2,405.1,198.2z"/>
	<path fill="#49311E" d="M405.1,198.2c-0.4,0-0.8,0-1.1-0.1c-1.4-3.2-1-6.6-0.9-9.9C407.4,190.8,404,195,405.1,198.2z"/>
	<path fill="#49311E" d="M191.1,187.3c-0.4-4.5,0.6-7.9,2.3-11.2c2.8-5.5,7.7-7.1,13.3-7c5,0.1,8.2,3.5,10.3,7.6
		c3.3,6.6,3.1,13.6,0.2,20.2c-2.5,5.8-8.5,8.6-14.8,7.4c-5.5-1-10.3-6.9-11.2-13.8C190.9,189.2,191.1,187.9,191.1,187.3z"/>
	<path fill="#49311E" d="M224.3,174.2c4,5.1,4.5,10.9,2.9,17C226.2,185.6,225.3,179.9,224.3,174.2z"/>
	<path fill="#49311E" d="M128,207.2c-0.4-0.2-1.3-0.4-1.3-0.6c-0.3-5.1-2.4-10.4,1.2-15.2C127.3,196.7,127.4,201.9,128,207.2z"/>
</g>
</svg>
