<?xml version="1.0" encoding="utf-8"?>
<!-- Generator: Adobe Illustrator 26.0.3, SVG Export Plug-In . SVG Version: 6.00 Build 0)  -->
<svg version="1.1" id="Capa_1" xmlns="http://www.w3.org/2000/svg" xmlns:xlink="http://www.w3.org/1999/xlink" x="0px" y="0px"
	 viewBox="0 0 536.5 884" style="enable-background:new 0 0 536.5 884;" xml:space="preserve">

<g>
	<path fill="#8E745A" d="M467.5,649.7c-3.5-1-7-2-9.3-5.1c-1.2-1.6-2.8-1.4-4.5-0.7c-11.8,4.5-17.6-1-22.7-9.1
		c-2.7-4.4-3.7-9.4-5.7-14.2c-1.5,1-1,2-0.9,2.8c2.8,31.9,1,63.5-3.2,95.2c-4.1,31-9.5,61.9-14.4,92.8c-0.5,3,0.3,4.5,2.9,5.9
		c9.6,5.5,18.2,12.3,24.8,21.3c7.1,9.7,8.5,20.2,3.2,31.1c-3.6,7.3-10.1,10.8-18.3,10.8c-18.3,0-36.7,0.1-55,0.1
		c-20.3,0-40.6,0-61,0c-10.8,0-14.5-4-14.8-14.6c-1.3-34.8-2.8-69.5-4.3-104.2c-1.1-25.8-2.4-51.6-3.4-77.4
		c-0.1-3.7-0.9-4.9-4.9-4.6c-5.6,0.5-11.3,0.3-17,0.2c-2.8-0.1-4.1,0.4-4.2,3.7c-1.3,33.1-2.8,66.2-4.3,99.3
		c-1.3,28.8-3.5,57.5-4,86.3c-0.1,6.9-4.5,11.2-11.5,11.2c-40.6,0.1-81.3,0.4-121.9-0.2c-14.5-0.2-22.3-12.8-20.1-27
		c2.3-14.6,12.7-23.6,24-31.6c10.9-7.7,10.7-7.5,8.2-21.4c-7.1-38.5-13-77.2-16.7-116.2c-1.5-16,0.2-32,0.2-47.9
		c0-2.4,1.8-4.7,0.5-7.2c-1.9-0.3-1.2,2.1-2.5,2.4c-1.3-1-1.6-2.8-0.4-3.4c3.1-1.5,2.2-4.1,2.4-6.4c0.1-0.8-0.1-2,0.4-2.4
		c5.6-4.8,6-12,8.4-18.2c6.1-15.5,12.2-31.1,17.5-46.9c2.2-6.5,6.1-12,7.9-18.7c2.1-7.9,5.6-15.4,8.5-23c2.6-6.6,6.1-13,7.7-19.9
		c2.5-11,8.3-20.8,11.5-31.5c1.8-6.2,4.3-12.4,6.6-18.6c3.3-9.2,5.6-18.9,9.3-27.8c4.2-10.1,5.4-20.7,8.4-30.9
		c0.8-2.8,3.4-7.2,0.3-10.7c-2-2.2-1-3.8,0.3-5.6c16.1,3.8,32.1,7.8,48.7,9.4c18.8,1.8,37.4,0.8,56.1-1c11.4-1.1,22.6-3.4,33.7-6.4
		c2.6-0.7,5.7,1.4,7.9-1.3c1.6,1.6,4.2,3.2-0.3,4.6c-1.9,0.6-1.2,2.6-1.2,3.9c0.3,7.3,2.5,14.1,4.5,21.1c3.4,12.1,7.1,24,10.9,35.9
		c4.1,13.1,9.8,25.7,14,38.8c3.9,12.3,9.3,24.2,14.1,36.3c4.8,12,8.3,24.4,14,36.1c3.9,8.1,6.3,16.9,9.2,25.5
		c3.4,10.1,8.3,19.7,11.2,30c1.1,3.7,2.3,7.9,5.1,10c3.4,2.6,4.3,6,5.8,9.4c2.8,6.6,2.5,14.2,9.9,19.2c3.5,2.3,6.5,4.3,10,3.2
		c7.5-2.3,12.6,2.1,18.3,5.2C467.5,648.1,467.5,648.9,467.5,649.7z M336.6,409.7c-8.3-3.4-16.8-4.6-25.3-5.2
		c-14.4-0.8-26.7,4.6-37.3,13.9c-2.9,2.6-4.8,3.3-8.1,0.1c-7.4-7.1-16-12.4-26-15.3c-12-3.5-23-1.2-33.9,4.4c1,1.7,2.3,1.7,3.3,1.9
		c22.1,4.9,40.6,16.4,56.7,31.9c3.4,3.2,5.1,2.6,8-0.1c16.3-15.5,35.6-25.4,57.9-29.3C333.4,411.8,335.1,411.6,336.6,409.7z"/>
	<path fill="#F2DAB2" d="M342,368c-2.3,2.7-5.3,0.6-7.9,1.3c-11.1,3-22.3,5.3-33.7,6.4c-18.6,1.8-37.3,2.8-56.1,1
		c-16.6-1.6-32.6-5.6-48.7-9.4c-6.3-2.4-12.6-4.8-18.9-7.1c-5-1.8-9.4-5.4-15.1-5.8c0.2-2.4-0.4-4-3.3-4.4c-1.7-0.2-3.3-1.3-4.9-2.2
		c-6.3-3.3-11.4-8.4-17.4-12.1c-12.7-8-24.5-17.1-33.6-29.1c-4.6-6-9.5-11.8-13.8-18.1c-3.3-5-5.9-10.7-10.1-15.1c0,0,0,0,0,0
		c-0.5-4.9-0.1-10.1-1.6-14.7c-3.3-10.4-4.3-20.6-1.1-31.3c1.4-4.5,3.8-8.7,3.8-13.8c0-12.6,2.2-24.9,5.9-37
		c0.8-2.7,2.1-5.4,0.9-8.4c0-0.6,0-1.1,0-1.7c2.8-1.6,2.7-4.5,3.2-7.2c0.4-0.5,1.1-0.9,1.3-1.4c5.6-12.4,12.5-24,21.4-34.3
		c1.3-1.5,2.5-3.1,2-5.3c3.3,0,5.8-0.7,7.5-4.3c1.4-3,4-5.8,6.8-7.7c8-5.5,15-12.2,23.1-17.5c4.5-2.9,9.1-5.6,13.7-8.4
		c0.8,1.2,2.1,0.9,3.2,0.7c19.2-2.9,36.9,2.3,54,10.4c13.6,6.5,25.3,15.8,35.8,26.7c2.7,2.8,4.3,2.7,6.7-0.1
		c4.1-4.6,8.5-8.8,13.5-12.5C296.5,92.4,316,84,338,81c10.7-1.5,21.2-0.3,31.8,0.4c1.4-0.2,2.5,0.4,3.6,1.3
		c5.2,4,10.4,8.1,15.8,11.7c10.2,6.9,19.5,14.4,26.3,25.1c2.1,3.3,4.6,7.7,10.1,6.9c-0.2,2.5-0.3,4.8,1.4,7.1
		c6.6,8.9,11.4,18.7,15.7,28.9c2.1,5,4.8,9.9,5,15.5c0,0.8-0.2,1.7,0,2.5c3.1,8.2,2.7,16.9,4,25.4c0.9,5.4-0.1,11.1,4.1,16.2
		c2.9,3.6,5.1,9,5,13.6c-0.1,6.9,0.5,14-0.5,20.8c-1,7-2,14.1-5.3,20.4c-1.1,2.2-1.8,4.2-1.5,6.6c0,0,0,0,0,0
		c-1.1,1.2-2.3,2.4-3.2,3.7c-3.3,5.2-7.2,10.1-8.8,16.3c0,0,0,0,0,0c-7.3,4.2-11.7,11.1-16,18c0,0,0,0,0,0c-2.3,0.1-4,1.3-5.5,2.9
		c-4,4.1-8.5,7.7-13,10.9c-8.3,6-17.6,10.8-26.4,16c-1.4,0.8-3.3,1.1-3,3.4c0.1,0.2,0,0.3-0.1,0.5C365.4,358.5,353.8,363.5,342,368z
		 M364.3,124.8c-9.4-4.9-18.8-9.8-28.2-14.7c-2.2-1.2-4.5-2.1-7.1-2.1c-3.3,0-6.2,1-8.1,3.9c-2,3.1-1,6.1,0.6,8.9
		c1.5,2.6,3.6,4.8,6.1,6.5c-1.2,2.6-4,2.8-6.1,3.9c-25.3,13.3-37.6,34.6-37.7,62.7c0,12.8,4.3,24.6,16.4,31.7
		c7.7,4.5,15.9,7.6,24.5,9.6c16.5,3.7,33.1,6.8,50.2,7.4c14.9,0.6,29.5,0.4,44-3.4c15.8-4.2,24.7-18.1,23.2-33
		C438,167.7,407.8,130.7,364.3,124.8z M168.7,125.7c-10.2,1.1-19.8,4.1-28.7,9.1c-25.1,13.9-39.9,35.5-46.9,62.8
		c-5.3,20.6,5,37.6,24.1,42.3c9.7,2.3,19.4,3,29.1,3.2c22.7,0.4,45.1-2.8,66.9-9.2c9.9-2.9,19.8-6.2,27-14.2
		c9.4-10.3,11-22.7,9.3-35.9c-3.1-24.4-15.2-42.5-37.7-53.2c-1.9-0.9-4.2-1.2-5.5-3.2c1.4-1.4,3.1-2.6,4.3-4.1
		c2.9-3.5,5-7.3,2.3-11.8c-2.3-3.7-7.4-4.9-12.6-2.4C189.7,114.3,179.3,120.1,168.7,125.7z M229.6,237.3c-14.6,3.5-28,9.7-39.5,19.4
		c-12.6,10.6-19.5,26.8-11.5,44.7c2.9,6.5,6.6,12.3,11.3,17.5c27.3,30.7,72.2,41.9,111.9,27.9c22-7.8,40.4-20.2,52.9-40.3
		c9.1-14.5,8.5-30-2.4-43.1c-12.5-15.2-29.5-22.7-48.5-26.4c-1.5-2.4-3.8-3.5-6.5-4.2c-19.6-5.2-39.3-5.2-59-1.2
		C235,232.4,231.1,233.3,229.6,237.3z M399.6,296.3c12.3,1.4,18-11.1,16.7-19.8c-1.6-11.1-8.1-20-14.9-28.6
		c-1.3-1.7-3.8-2.8-4.9-0.2c-4,9.6-10.2,18.4-11.9,28.8C382.8,288.2,389.2,296.3,399.6,296.3z"/>
	<path fill="#98765B" d="M161.6,354.4c5.6,0.3,10,3.9,15.1,5.8c6.3,2.3,12.6,4.7,18.9,7.1c-1.3,1.8-2.4,3.4-0.3,5.6
		c3.1,3.4,0.5,7.8-0.3,10.7c-3,10.2-4.2,20.9-8.4,30.9c-3.7,8.9-5.9,18.6-9.3,27.8c-2.3,6.2-4.7,12.4-6.6,18.6
		c-3.2,10.8-8.9,20.5-11.5,31.5c-1.6,6.8-5.1,13.2-7.7,19.9c-3,7.6-6.4,15.2-8.5,23c-1.8,6.7-5.7,12.2-7.9,18.7
		c-5.3,15.8-11.4,31.4-17.5,46.9c-2.4,6.2-2.9,13.4-8.4,18.2c-0.5,0.4-0.4,1.6-0.4,2.4c-0.2,2.4,0.7,4.9-2.4,6.4
		c-1.2,0.6-0.8,2.4,0.4,3.4c-3.2,12.9-11.8,18.1-24.1,14.3c-2.1-0.6-3.2-0.4-4.8,1c-9.7,8.8-24.4,7.4-32.5-3.1
		c-1.3-1.6-2.4-2.2-4.6-2c-14.3,1.6-23.2-6.8-22.4-21.1c0.1-1.6-0.3-2.5-1.8-2.9c-15-4.4-15.3-16.6-13.3-28.1
		c0.8-4.8,3.2-9.1,5.7-13.2c24.3-40.1,50-79.4,75.7-118.7c18.4-28,37.5-55.4,57.1-82.5c5.4-7.5,11.9-13.8,18.9-19.8
		C160.9,355,161.3,354.7,161.6,354.4z"/>
	<path fill="#98775C" d="M342,368c11.8-4.5,23.4-9.4,35.6-12.8c21,19.5,35.1,44.3,51.2,67.5c31.2,45.2,61,91.4,90,138
		c5.3,8.6,12.1,16.5,14.2,26.7c2,9.2,2.8,19.2-6.3,24.9c-5.7,3.6-8.1,6.9-9.1,13.7c-1.2,8.5-8.2,13.5-16.7,13.9
		c-5.1,0.2-9.5,0.5-12.8,4.7c-4.5-0.5-8.5,1.6-12.7,2.8c-0.7,0-1.3,0-2,0c-0.7,0-1.3,0-2,0c-1.3,0-2.7,0-4,0
		c-5.7-3.1-10.8-7.5-18.3-5.2c-3.5,1.1-6.5-0.9-10-3.2c-7.4-4.9-7.1-12.6-9.9-19.2c-1.4-3.3-2.4-6.8-5.8-9.4
		c-2.9-2.2-4.1-6.3-5.1-10c-3-10.3-7.9-19.9-11.2-30c-2.8-8.6-5.3-17.4-9.2-25.5c-5.6-11.7-9.2-24.1-14-36.1
		c-4.8-12-10.2-23.9-14.1-36.3c-4.2-13.1-9.8-25.7-14-38.8c-3.8-11.9-7.5-23.9-10.9-35.9c-2-7-4.2-13.8-4.5-21.1
		c-0.1-1.4-0.7-3.4,1.2-3.9C346.3,371.2,343.7,369.6,342,368z"/>
	<path fill="#98795E" d="M369.8,81.4c-10.6-0.7-21.1-1.8-31.8-0.4c-22,3-41.5,11.3-59.2,24.5c-5,3.7-9.4,7.9-13.5,12.5
		c-2.4,2.8-4,2.9-6.7,0.1c-10.5-10.8-22.2-20.2-35.8-26.7c-17-8.1-34.7-13.3-54-10.4c-1.1,0.2-2.4,0.5-3.2-0.7
		c10.3-5.4,21.1-9.9,32.1-13.7c1.7-0.6,4.4-1,1.2-3.3c-14.6-10.1-29.8-18.4-48.5-16.3c-15.6,1.8-27,10.1-33.9,23.9
		c-7.6,15.3-6.1,31.3-2,47.3c0.4,2.2-0.7,3.8-2,5.3c-8.9,10.4-15.8,21.9-21.4,34.3c-0.3,0.6-0.9,1-1.3,1.4c-1.5-1.1-4-0.6-4.7-2.5
		c-2.1-6-6-11.3-6.5-17.8c-0.1-2.2-0.6-4.1-1.5-6.1c-4.3-9.7-5.4-20.3-5.2-30.6c0.2-7.6,0.2-15.2,0.6-22.9c0.5-9.4,4.2-18,7.6-26.4
		c3.4-8.5,10.4-14.9,16.7-21.6c3.4-3.6,7.1-7,10.8-9.7c6.7-4.8,14.6-8.2,22.4-10.9c3.3-1.2,6.6-3.3,10.1-3.4
		c9.7-0.3,19.5-0.2,29.2-0.2c1.5,0,3.1-0.1,4.4,0.4c7,2.5,14.1,4.9,21,7.9c7.1,3.1,13.5,7.6,19.2,13c7.9,7.5,13.9,16.5,19.2,26.1
		c0.8,1.4,1.9,1.7,3.3,1.6c7-0.1,13.9-0.2,20.9-0.1c14.6,0.1,29.3-1.1,43.9,1.4c4.1,0.7,4.8-2.1,6-4.5c8.8-17.3,21.6-30.7,38.6-40
		c30.8-16.7,70.7-11.6,98.2,12.7c23.8,21.1,32.3,48.2,29.5,79.1c-2.3,26.2-10.3,50.8-24.2,73.3c-0.6-0.2-1.2-0.3-1.8-0.5
		c-0.2-5.7-2.9-10.5-5-15.5c-4.2-10.2-9.1-20-15.7-28.9c-1.7-2.3-1.6-4.6-1.4-7.1c5-13.1,6.8-26.5,5.2-40.6
		c-3.3-27.7-31-45.7-57.6-37.3c-10.6,3.4-20.2,8.5-29.3,14.8c-1.3,0.9-3.4,1.5-3.1,3.4c0.2,1.5,2.3,1.8,3.6,2.3
		C353.1,72.5,362,75.8,369.8,81.4z"/>
	<path fill="#987A5E" d="M236.6,56.4c-1.4,0.1-2.5-0.2-3.3-1.6c-5.2-9.5-11.3-18.6-19.2-26.1c-5.6-5.3-12-9.9-19.2-13
		c-6.8-3-13.9-5.4-21-7.9c-1.4-0.5-2.9-0.4-4.4-0.4c-9.7,0-19.5-0.1-29.2,0.2c-3.5,0.1-6.8,2.2-10.1,3.4
		c-7.8,2.8-15.7,6.2-22.4,10.9c-3.7,2.6-7.5,6.1-10.8,9.7c-6.3,6.7-13.3,13.1-16.7,21.6c-3.4,8.4-7.1,17-7.6,26.4
		c-0.4,7.6-0.5,15.3-0.6,22.9c-0.2,10.3,0.9,20.8,5.2,30.6c0.9,2.1,1.4,4,1.5,6.1c0.4,6.5,4.4,11.9,6.5,17.8
		c0.6,1.9,3.2,1.4,4.7,2.5c-0.5,2.7-0.4,5.6-3.2,7.2c-7.7-16.4-13.6-33.5-16.2-51.5c-3.9-27.5-1.3-53.6,16.3-76.4
		c34.2-44.3,100.9-47.9,136.8-3.9C228.8,41.4,233.7,48.2,236.6,56.4z"/>
	<path fill="#DFD4BE" d="M161.6,354.4c-0.3,0.3-0.7,0.6-1,0.9c-3.6-4.7-9.3-6.1-14.1-9c-28.1-16.9-51.8-37.9-66.3-67.9
		c-0.8-1.6-1.8-3.2-1.7-5.1c4.3,4.4,6.8,10.1,10.1,15.1c4.2,6.4,9.2,12.1,13.8,18.1c9.2,12,20.9,21.1,33.6,29.1
		c5.9,3.7,11,8.8,17.4,12.1c1.6,0.9,3.2,2,4.9,2.2C161.3,350.4,161.8,352,161.6,354.4z"/>
	<path fill="#DFD4BE" d="M447.7,177.9c0.6,0.2,1.2,0.3,1.8,0.5c1.7,8,4.5,16.1,4.4,24.2c-0.1,9.9,4.1,18.1,7.4,26.9
		c3.5,9.4,2.1,19.3,1,29c-0.7,6.3-2.6,12.3-4.8,18.2c-0.9,2.4-1.4,5.2-3.9,6.7c-0.3-2.4,0.4-4.4,1.5-6.6c3.3-6.3,4.3-13.5,5.3-20.4
		c1-6.9,0.3-13.9,0.5-20.8c0.1-4.6-2-10-5-13.6c-4.2-5.1-3.2-10.8-4.1-16.2c-1.4-8.4-0.9-17.2-4-25.4
		C447.4,179.6,447.7,178.7,447.7,177.9z"/>
	<path fill="#DFD4BE" d="M86.5,168.3c1.2,3-0.1,5.7-0.9,8.4c-3.8,12-6,24.4-5.9,37c0,5.1-2.4,9.3-3.8,13.8c-3.3,10.6-2.3,20.8,1.1,31.3
		c1.5,4.6,1.1,9.8,1.6,14.7c-6.1-11.9-9.5-25.1-6.3-37.5c4.1-15.8,5.1-31.9,8.4-47.7C82.1,181.4,83,174.4,86.5,168.3z"/>
	<path fill="#DFD4BE" d="M377.7,354.6c-0.3-2.3,1.6-2.6,3-3.4c8.9-5.3,18.1-10.1,26.4-16c4.5-3.2,9-6.8,13-10.9
		c1.5-1.6,3.2-2.8,5.5-2.9c-2,5.5-7.2,8.1-11.4,11.3C402.8,341.3,390.8,349,377.7,354.6z"/>
	<path fill="#DFD4BE" d="M425.6,321.4c4.3-6.9,8.6-13.8,16-18c0.5,2.9-1.8,4.7-3.4,6.2C434.1,313.6,431.6,319.4,425.6,321.4z"/>
	<path fill="#DFD4BE" d="M441.6,303.4c1.5-6.2,5.4-11.1,8.8-16.3c0.9-1.4,2.1-2.5,3.2-3.7C451.9,291.4,447.9,298.1,441.6,303.4z"/>
	<path fill="#8E745A" d="M475.5,647.3c4.2-1.2,8.1-3.3,12.7-2.8c-3.6,3.2-7.5,5.9-12.6,5.6C475.5,649.1,475.5,648.2,475.5,647.3z"/>
	<path fill="#987A5E" d="M467.5,647.3c1.3,0,2.7,0,4,0c0,0.9,0,1.9,0,2.8c-1.4,0.3-2.7,0.3-4-0.5C467.5,648.9,467.5,648.1,467.5,647.3z
		"/>
	<path fill="#8E745A" d="M471.5,650.1c0-0.9,0-1.9,0-2.8c0.7,0,1.3,0,2,0c0,1,0,1.9,0,2.9C472.8,650.1,472.2,650.1,471.5,650.1z"/>
	<path fill="#987A5E" d="M473.5,650.1c0-1,0-1.9,0-2.9c0.7,0,1.3,0,2,0c0,0.9,0,1.9,0,2.8C474.8,650.1,474.2,650.1,473.5,650.1z"/>
	<path fill="#F2DAB2" d="M336.6,409.7c-1.5,1.9-3.2,2-4.8,2.3c-22.3,3.9-41.5,13.8-57.9,29.3c-2.9,2.7-4.6,3.4-8,0.1
		c-16.1-15.5-34.5-27-56.7-31.9c-1.1-0.2-2.4-0.2-3.3-1.9c10.8-5.6,21.9-7.9,33.9-4.4c9.9,2.9,18.6,8.2,26,15.3
		c3.4,3.2,5.2,2.4,8.1-0.1c10.7-9.3,22.9-14.7,37.3-13.9C319.9,405.1,328.3,406.4,336.6,409.7z"/>
	<path fill="#99785C" d="M303.8,237.1c18.9,3.7,35.9,11.2,48.5,26.4c10.8,13.1,11.4,28.6,2.4,43.1c-12.5,20.1-31,32.5-52.9,40.3
		c-39.6,14-84.5,2.8-111.9-27.9c-4.7-5.2-8.4-11.1-11.3-17.5c-8-17.9-1.1-34.2,11.5-44.7c11.6-9.7,24.9-15.9,39.5-19.4
		c0.2,3.7,2,6.7,4.8,9c4.3,3.6,9,7.1,14.3,8.9c7.3,2.4,14.3,6.3,22.5,4.2c8.9-2.3,17.3-5.8,24.8-11.2
		C299.7,245.4,303.2,242.3,303.8,237.1z M317.9,312.7c-0.6-9.9-21.8-28.3-44.4-29.4c-25-1.2-55,14.2-56.2,28.3
		C251.1,287.9,284.6,286.8,317.9,312.7z M264.4,300.9c-4.2,2.8-5.4,6.3-6.9,9.5c-0.6,1.2-1.1,2.7,0.6,3.4c1.6,0.7,2.4-0.8,3.1-1.9
		C262.9,308.9,263.6,305.5,264.4,300.9z M275.5,313.3c1.1-0.1,2.1-0.5,1.5-1.8c-1.3-2.8-2.8-5.6-4.3-8.3c-0.2-0.3-0.9-0.5-1.3-0.5
		c-0.8,0.2-0.8,0.9-0.6,1.6c0.5,2.1,0.9,4.2,1.5,6.2C272.7,312,273.7,313.2,275.5,313.3z"/>
	<path fill="#987A5E" d="M206.5,127.3c1.3,2,3.6,2.3,5.5,3.2c22.5,10.7,34.5,28.8,37.7,53.2c1.7,13.2,0.1,25.6-9.3,35.9
		c-7.3,8-17.2,11.3-27,14.2c-21.8,6.4-44.2,9.6-66.9,9.2c-9.7-0.2-19.5-0.9-29.1-3.2c-19.2-4.6-29.5-21.7-24.1-42.3
		c7.1-27.3,21.9-49,46.9-62.8c8.9-4.9,18.5-8,28.7-9.1c-0.2,6.8,0.7,8,7.2,9.7C187.6,138.4,197.3,133.8,206.5,127.3z M200.4,157.2
		c-2.9,1.4-5.9,2.7-8.8,4.1c-3.5,1.5-7,3-10.5,4.4c-19.4,7.2-39,14.1-59.5,17.7c-3.6,0.6-5.7,4.5-3.5,7.1c3.3,3.9,2,8.1,2.5,12.3
		c0.6,5.5,0.3,11.4,5.1,15.5c-0.8,5.8,0.8,9,6,11.7c5.9,3.1,12.3,4.2,18.8,3.3c11.9-1.7,23.7-2.7,35.7-2.3
		c8.9,0.3,17.4-2.3,25.5-5.9c4.9-0.4,9.2-2.7,13.9-3.9c8.2,0.3,9.8-1.2,10.1-9.6c0.1-2,0.5-4,0.6-5.9c0.5-13.2,0.1-26.2-5.7-38.4
		c-0.4-3.2-2.6-5.6-4.1-8.4c-1.3-2.5-3.6-4.6-1.5-8c1-1.6-0.6-3.4-2-4.6c-1.6-1.4-3.4-1.1-5.1-0.1
		C212,149.9,206.2,153.6,200.4,157.2z"/>
	<path fill="#987A5E" d="M364.3,124.8c43.4,5.9,73.7,42.9,77.7,81.5c1.5,14.9-7.3,28.8-23.2,33c-14.5,3.8-29.1,4-44,3.4
		c-17.1-0.6-33.7-3.7-50.2-7.4c-8.6-1.9-16.9-5.1-24.5-9.6c-12.1-7.1-16.4-18.9-16.4-31.7c0.1-28.1,12.4-49.4,37.7-62.7
		c2.1-1.1,4.9-1.3,6.1-3.9c0.7,0.5,1.3,1,2,1.4c9.4,5,18.6,10.4,29.9,6.1C365.4,132.7,366.4,130.7,364.3,124.8z M309.2,221.2
		c4,1.6,7.9,3.3,12.3,3.5c11.4,6,23.6,7.3,36.3,6.5c6.3-0.4,12.5-0.2,18.8,1.6c7.3,2.1,14.8,1.4,22.1-0.9
		c5.9-1.9,10.3-5.5,10.9-12.2c3.7-7.7,5.5-15.8,4.9-24.4c0.1-0.8,0.1-1.7,0.4-2.4c3.2-7.1,2.6-7.9-4.9-9.7
		c-24.2-5.9-48.1-13-70.5-24c-7.5-3.6-15.1-6.9-21.8-12c-2-1.6-4.6-2.2-6.9-0.3c-2.1,1.7-2.3,3.9-0.9,6.2c0.4,0.7,0.6,1.5,0.8,2.3
		c-3.1,3.7-5.3,7.9-7.1,12.4c-6,14.8-7.1,30.1-5,45.8C299.6,220.7,302.1,222.7,309.2,221.2z"/>
	<path fill="#EDCBC8" d="M369.8,81.4c-7.8-5.6-16.7-8.9-25.5-12.4c-1.4-0.5-3.4-0.8-3.6-2.3c-0.3-1.9,1.8-2.5,3.1-3.4
		c9.1-6.2,18.7-11.4,29.3-14.8c26.6-8.4,54.3,9.5,57.6,37.3c1.7,14-0.1,27.5-5.2,40.6c-5.5,0.9-8-3.6-10.1-6.9
		c-6.7-10.6-16.1-18.2-26.3-25.1c-5.4-3.7-10.6-7.7-15.8-11.7C372.3,81.8,371.2,81.2,369.8,81.4z"/>
	<path fill="#EDCBC8" d="M114.6,118.4c-4.1-16-5.6-32,2-47.3c6.9-13.8,18.3-22.2,33.9-23.9c18.7-2.1,33.9,6.2,48.5,16.3
		c3.2,2.2,0.5,2.7-1.2,3.3c-11,3.8-21.8,8.2-32.1,13.7c-4.6,2.8-9.2,5.5-13.7,8.4c-8.1,5.3-15.1,12.1-23.1,17.5
		c-2.8,1.9-5.4,4.7-6.8,7.7C120.4,117.7,117.9,118.4,114.6,118.4z"/>
	<path fill="#53361C" d="M303.8,237.1c-0.6,5.1-4.1,8.3-7.9,11c-7.5,5.4-15.8,8.9-24.8,11.2c-8.2,2.1-15.3-1.7-22.5-4.2
		c-5.4-1.8-10-5.2-14.3-8.9c-2.7-2.3-4.6-5.2-4.8-9c1.5-4.1,5.4-5,8.8-5.7c19.7-3.9,39.4-4,59,1.2
		C300,233.6,302.3,234.7,303.8,237.1z"/>
	<path fill="#B7CED6" d="M399.6,296.3c-10.3,0-16.8-8.1-14.9-19.9c1.7-10.4,7.9-19.2,11.9-28.8c1.1-2.6,3.6-1.4,4.9,0.2
		c6.7,8.6,13.2,17.6,14.9,28.6C417.6,285.2,411.9,297.7,399.6,296.3z M412.4,277.9c0.4-3.7-1.5-6.5-3.3-9.3c-0.5-0.8-1.4-1.5-2.6-1
		c-1,0.4-1.1,1.3-1,2.1c0.3,3.4-0.8,6.6-1,9.9c-0.1,2.6-0.7,6.2,2.8,6.5c3.7,0.3,4.5-3.2,5-6.3C412.5,279.1,412.4,278.4,412.4,277.9
		z"/>
	<path fill="#5D3F21" d="M206.5,127.3c-9.2,6.5-18.8,11.1-30.5,8.1c-6.5-1.7-7.4-2.9-7.2-9.7c10.5-5.6,21-11.4,31.7-16.7
		c5.2-2.6,10.3-1.3,12.6,2.4c2.8,4.5,0.6,8.3-2.3,11.8C209.5,124.7,207.9,125.9,206.5,127.3z"/>
	<path fill="#5D3F21" d="M364.3,124.8c2.1,5.9,1,7.9-4.8,10.1c-11.3,4.3-20.6-1.2-29.9-6.1c-0.7-0.4-1.3-0.9-2-1.4
		c-2.5-1.8-4.6-3.9-6.1-6.5c-1.6-2.8-2.6-5.8-0.6-8.9c1.9-3,4.8-3.9,8.1-3.9c2.6,0,4.9,0.9,7.1,2.1
		C345.5,114.9,354.9,119.9,364.3,124.8z"/>
	<path fill="#624223" d="M317.9,312.7c-33.3-25.9-66.9-24.8-100.5-1.1c1.2-14.1,31.1-29.6,56.2-28.3
		C296.1,284.5,317.4,302.8,317.9,312.7z"/>
	<path fill="#624223" d="M264.4,300.9c-0.8,4.6-1.4,8-3.2,11c-0.6,1.1-1.4,2.6-3.1,1.9c-1.7-0.7-1.2-2.2-0.6-3.4
		C259,307.2,260.2,303.7,264.4,300.9z"/>
	<path fill="#624223" d="M275.5,313.3c-1.8-0.1-2.7-1.3-3.2-2.7c-0.6-2-1.1-4.1-1.5-6.2c-0.1-0.6-0.2-1.4,0.6-1.6
		c0.4-0.1,1.1,0.1,1.3,0.5c1.5,2.7,3,5.5,4.3,8.3C277.6,312.8,276.6,313.2,275.5,313.3z"/>
	<path fill="#B7CED6" d="M211.6,225.2c-8.1,3.7-16.6,6.3-25.5,5.9c-12-0.5-23.9,0.6-35.7,2.3c-6.5,0.9-12.9-0.1-18.8-3.3
		c-5.2-2.7-6.8-5.9-6-11.7c1.5-2.1,3.8-3.1,6-4.1c7.8-1,14.5,2.6,21.4,5.3c5.9,2.2,11.7,2.8,17.7,0.6c13.1,2.4,26,2.4,38.8-1.9
		C210.9,220.4,213.3,222.2,211.6,225.2z M134.4,216.7c-1.7,0.5-2.9,1.2-2.7,3.1c0.3,1.8,1.5,2.5,3.2,2.3c1.5-0.1,2.7-0.8,2.5-2.4
		C137.2,218,136,216.9,134.4,216.7z"/>
	<path fill="#624223" d="M131.6,214.3c-2.2,1.1-4.5,2-6,4.1c-4.8-4.2-4.5-10-5.1-15.5c-0.4-4.2,0.8-8.4-2.5-12.3
		c-2.2-2.7-0.1-6.5,3.5-7.1c20.5-3.7,40-10.5,59.5-17.7c3.6-1.3,7-2.9,10.5-4.4c0.7,3,1.3,6,2,9c-3,3.3-8.1,3-11.1,6.3
		c-7.1,1.5-13.9,4.2-20.8,6.7c-2.8,0.9-5.5,2.5-8.6,2.3c-6.6,1.6-13.2,3.5-19.8,4.7c-3.4,0.6-4.3,2.3-4.3,5.3
		C129,201.9,130.3,208.1,131.6,214.3z"/>
	<path fill="#5D3F21" d="M230.5,167.4c5.8,12.2,6.2,25.3,5.7,38.4c-0.1,2-0.5,4-0.6,5.9c-0.3,8.4-1.9,9.9-10.1,9.6
		c0.5-3.6,1.1-7.2,1.4-10.8c1.7-16.5-0.2-32.4-8.3-47.1c-1-1.8-1.3-4.8-4.7-3.9c-0.2-0.2-0.7-0.5-0.7-0.6c1.2-2.8,3.9-2.1,6-2.4
		c2.3-0.4,1.4,1.5,1.4,2.6c0,1.4,0.6,2.3,2,2.2c2.8-0.2,3.4,2,3.6,3.8C226.5,168.4,228.3,168,230.5,167.4z"/>
	<path fill="#F6E9DC" d="M213.9,159.5c3.3-0.8,3.7,2.1,4.7,3.9c8.2,14.7,10.1,30.6,8.3,47.1c-0.4,3.6-1,7.2-1.4,10.8
		c-4.6,1.2-9,3.5-13.9,3.9c1.7-3-0.7-4.9-2.1-7c2.3-2.2,4.7-4.1,6.7-6.5c12.3-14.5,9.5-39.7-5.2-49.7c0,0-0.3-0.1-0.3-0.1
		c0.4-0.5,0.8-1,1.3-1.5C212.8,160.5,213.4,160.2,213.9,159.5z"/>
	<path fill="#624223" d="M213.9,159.5c-0.5,0.7-1.1,1-2,0.9c-0.4,0-0.9,0-1.3,0c-4.5,2.3-7.3-0.7-10.3-3.2c5.8-3.7,11.6-7.3,17.5-10.9
		c1.6-1,3.5-1.3,5.1,0.1c1.4,1.2,3,3,2,4.6c-2.1,3.4,0.2,5.5,1.5,8c1.5,2.7,3.6,5.1,4.1,8.4c-2.2,0.6-4,1.1-4.3-2.3
		c-0.1-1.8-0.8-4-3.6-3.8c-1.4,0.1-2-0.8-2-2.2c0-1.2,0.9-3.1-1.4-2.6c-2.1,0.4-4.8-0.3-6,2.4C213.2,159,213.6,159.3,213.9,159.5z"
		/>
	<path fill="#5D3F21" d="M200.4,157.2c3,2.5,5.8,5.5,10.3,3.2c0,0.5,0,1,0,1.5c0,0,0.3,0.1,0.3,0.1c-6.1,2.1-11,6.8-17.4,8.3
		c-0.7-3-1.3-6-2-9C194.5,160,197.4,158.6,200.4,157.2z"/>
	<path fill="#624223" d="M310.7,155.4c-0.3-0.8-0.4-1.6-0.8-2.3c-1.4-2.3-1.2-4.5,0.9-6.2c2.3-1.9,4.9-1.2,6.9,0.3
		c6.7,5.1,14.3,8.4,21.8,12c22.5,11,46.3,18.1,70.5,24c7.5,1.8,8.1,2.6,4.9,9.7c-0.3,0.7-0.3,1.6-0.4,2.4c-3.4,0.3-5.7-2.8-8.9-3
		c-0.7-1.6-2.3-1.6-3.8-2c-6.9-1.6-13.8-3.2-20.7-4.8c-6.1-2-12.1-4.1-18.2-6.1c-6.5-2.1-12.5-5.7-19.6-6.1
		c-2.8-0.9-5.4-2.1-7.8-3.7c0.4-2.2-0.7-3.3-2.7-3.8c-3.6-0.9-7.2-1.9-10.8-2.9c1.4-2.4-0.8-2.9-2.1-3.5c-1.4-0.7-2,0.7-2.6,1.6
		c-0.9,1.2-1.7,2.4-2.5,3.6C312.8,161.9,314.4,157.5,310.7,155.4z"/>
	<path fill="#B7CED6" d="M409.5,219.7c-0.7,6.7-5,10.3-10.9,12.2c-7.2,2.4-14.7,3.1-22.1,0.9c-6.2-1.8-12.4-2-18.8-1.6
		c-12.6,0.8-24.9-0.5-36.3-6.5c-0.9-3,2.5-4,3-6.3c12.5,3.1,25.2,4.7,38,1.8c7.4,2.4,14.7,1.6,21.5-1.8c6-3,12-4.5,18.6-4.2
		C405.7,215.2,407.3,217.8,409.5,219.7z M397.1,223.3c2.1,0.1,4.1-0.1,4.3-2.8c0.2-2-1.1-3.2-3-2.9c-1.9,0.3-4.6,0.1-4.7,3.1
		C393.6,222.8,395.3,223.3,397.1,223.3z"/>
	<path fill="#5D3F21" d="M310.7,155.4c3.8,2.1,2.1,6.5,4.1,9.3c-0.7,1.9-1.4,3.7-2.2,5.6c-3,5.6-4.9,11.6-5,18
		c-2.2,11.1-0.8,22,1.7,32.9c-7.1,1.5-9.6-0.5-10.6-7.6c-2.2-15.7-1-31,5-45.8C305.4,163.3,307.6,159.1,310.7,155.4z"/>
	<path fill="#F6E9DC" d="M309.2,221.2c-2.5-10.9-3.9-21.8-1.7-32.9c0.5,0,1.1,0,1.6,0.1c-0.1,12.7,5,22.7,15.4,30
		c-0.5,2.3-4,3.3-3,6.3C317.1,224.5,313.2,222.8,309.2,221.2z"/>
	<path fill="#5D3F21" d="M409.5,219.7c-2.2-1.9-3.8-4.6-6.8-5.5c2-7.2,2.7-14.5,2.8-21.9c3.2,0.3,5.5,3.3,8.9,3
		C415,203.9,413.1,212,409.5,219.7z"/>
	<path fill="#FFFFFE" d="M412.4,277.9c0,0.5,0.1,1.2,0,1.8c-0.4,3.1-1.3,6.6-5,6.3c-3.5-0.3-2.9-3.9-2.8-6.5c0.1-3.3,1.3-6.5,1-9.9
		c-0.1-0.8,0-1.7,1-2.1c1.1-0.4,2,0.2,2.6,1C410.9,271.4,412.8,274.2,412.4,277.9z"/>
	<path fill="#49311E" d="M193.6,170.3c6.4-1.4,11.3-6.1,17.4-8.3c14.8,10,17.5,35.2,5.2,49.7c-2,2.4-4.5,4.4-6.7,6.5
		c-12.8,4.3-25.7,4.3-38.8,1.9c-13-7.9-18.4-19.6-17.7-34.5c3.1,0.3,5.8-1.3,8.6-2.3c0,1.2-0.1,2.3,0,3.5c0.3,5,4.6,9.4,9.9,10.3
		c6.3,1,12.7-1.8,14.9-6.5c2.4-5.1,1-10-4-13.9C185.4,173.3,190.6,173.7,193.6,170.3z M204.3,209.8c3.3-0.3,5.4-2.1,5.5-5.7
		c0.1-3.6-1.7-6.1-5.5-6.4c-3.6-0.3-6.8,2.6-6.7,5.9C197.7,207.7,200.5,209.3,204.3,209.8z"/>
	<path fill="#F6E9DC" d="M153,185.6c-0.7,14.9,4.7,26.7,17.7,34.5c-6,2.2-11.8,1.6-17.7-0.6c-6.9-2.6-13.6-6.2-21.4-5.3
		c-1.3-6.2-2.6-12.3-2.7-18.7c0-3.1,0.9-4.7,4.3-5.3C139.9,189.1,146.4,187.2,153,185.6z"/>
	<path fill="#FFFFFE" d="M134.4,216.7c1.7,0.2,2.9,1.2,3,3.1c0.1,1.6-1.1,2.3-2.5,2.4c-1.7,0.1-2.9-0.6-3.2-2.3
		C131.4,218,132.6,217.2,134.4,216.7z"/>
	<path fill="#F6E9DC" d="M182.4,176.7c5,3.9,6.4,8.7,4,13.9c-2.2,4.7-8.6,7.6-14.9,6.5c-5.3-0.9-9.6-5.3-9.9-10.3
		c-0.1-1.2,0-2.3,0-3.5C168.5,180.9,175.3,178.2,182.4,176.7z"/>
	<path fill="#49311E" d="M210.7,161.9c0-0.5,0-1,0-1.5c0.4,0,0.9,0,1.3,0C211.5,161,211.1,161.4,210.7,161.9z"/>
	<path fill="#49311E" d="M324.5,218.4c-10.3-7.3-15.5-17.3-15.4-30c0.4-6.4,2.6-12.3,5.5-18c2.5-2.4,4.1-5.7,7.3-7.4
		c3.6,1,7.2,2,10.8,2.9c2,0.5,3.1,1.6,2.7,3.8c-7.2-1.2-11.7,1-14,7c-1.7,4.5,0.3,9.8,4.8,12.4c4.7,2.7,12.3,2.1,15.9-1.2
		c4.1-3.9,4.5-8,1.2-14.4c7,0.3,13.1,4,19.6,6.1c6.1,2,12.1,4,18.2,6.1c0.5,15.2-5.2,27-18.5,34.7
		C349.7,223.1,337,221.5,324.5,218.4z M358.8,212.1c3.6,0.1,6.6-2.7,6.4-6.1c-0.2-3.7-2.5-5.8-6.1-5.8c-3.5,0-6.1,1.7-6.4,5.5
		C352.4,209,355.4,212,358.8,212.1z"/>
	<path fill="#F6E9DC" d="M362.5,220.3c13.3-7.7,19.1-19.5,18.5-34.7c6.9,1.6,13.8,3.2,20.7,4.8c1.4,0.3,3,0.3,3.8,2
		c-0.1,7.4-0.8,14.8-2.8,21.9c-6.6-0.3-12.7,1.2-18.6,4.2C377.2,221.8,369.9,222.6,362.5,220.3z"/>
	<path fill="#F6E9DC" d="M343.3,173.4c3.2,6.4,2.9,10.5-1.2,14.4c-3.6,3.4-11.2,4-15.9,1.2c-4.4-2.6-6.5-7.9-4.8-12.4
		c2.3-6,6.8-8.3,14-7C337.9,171.4,340.5,172.5,343.3,173.4z"/>
	<path fill="#EDCBC8" d="M322,163c-3.2,1.7-4.8,5-7.3,7.4c-0.7,0-1.4,0-2.1,0c0.7-1.9,1.4-3.7,2.2-5.6c0.8-1.2,1.7-2.4,2.5-3.6
		c0.7-0.9,1.2-2.3,2.6-1.6C321.2,160.1,323.4,160.6,322,163z"/>
	<path fill="#FFFFFE" d="M397.1,223.3c-1.8,0-3.5-0.5-3.4-2.6c0.1-3,2.8-2.8,4.7-3.1c1.9-0.3,3.2,0.8,3,2.9
		C401.2,223.1,399.2,223.3,397.1,223.3z"/>
	<path fill="#DFD4BE" d="M312.6,170.3c0.7,0,1.4,0,2.1,0c-2.9,5.7-5.1,11.6-5.5,18c-0.5,0-1.1,0-1.6-0.1
		C307.6,181.9,309.6,176,312.6,170.3z"/>
	<path fill="#F6E9DC" d="M204.3,209.8c-3.9-0.5-6.6-2-6.7-6.1c-0.1-3.3,3.1-6.2,6.7-5.9c3.8,0.3,5.6,2.8,5.5,6.4
		C209.7,207.6,207.6,209.5,204.3,209.8z"/>
	<path fill="#F6E9DC" d="M358.8,212.1c-3.4-0.1-6.4-3.1-6.1-6.4c0.3-3.8,2.9-5.6,6.4-5.5c3.6,0,5.9,2.1,6.1,5.8
		C365.4,209.4,362.4,212.1,358.8,212.1z"/>
</g>
</svg>
