<svg xmlns="http://www.w3.org/2000/svg" viewBox="0 0 200 200">
  <polygon points="58,26 38,70 78,70" fill="#C2185B"/>
  <polygon points="142,26 122,70 162,70" fill="#C2185B"/>
  <polygon points="58,36 46,66 70,66" fill="#F48FB1"/>
  <polygon points="142,36 130,66 154,66" fill="#F48FB1"/>
  <circle cx="100" cy="112" r="75" fill="#D4537E"/>
  <ellipse cx="100" cy="130" rx="26" ry="19" fill="#F8BBD9"/>
  <ellipse cx="100" cy="122" rx="7" ry="5" fill="#C2185B"/>
  <circle cx="77" cy="128" r="2.5" fill="#880E4F" opacity="0.5"/>
  <circle cx="85" cy="134" r="2.5" fill="#880E4F" opacity="0.5"/>
  <circle cx="115" cy="128" r="2.5" fill="#880E4F" opacity="0.5"/>
  <circle cx="123" cy="134" r="2.5" fill="#880E4F" opacity="0.5"/>
  <path d="M 68,97 a 10,10 0 0 1 20,0 Z" fill="#1A1A1A"/>
  <path d="M 112,97 a 10,10 0 0 1 20,0 Z" fill="#1A1A1A"/>
  <circle cx="81" cy="100" r="3" fill="white" opacity="0.6"/>
  <circle cx="125" cy="100" r="3" fill="white" opacity="0.6"/>
  <path d="M 68,107 q 10,4 20,0" stroke="#888" stroke-width="1.5" fill="none" opacity="0.4"/>
  <path d="M 112,107 q 10,4 20,0" stroke="#888" stroke-width="1.5" fill="none" opacity="0.4"/>
  <path d="M 86,132 Q 100,135 114,132" stroke="#1A1A1A" stroke-width="3" fill="none" stroke-linecap="round"/>
</svg>