<svg xmlns="http://www.w3.org/2000/svg" viewBox="0 0 200 200">
  <polygon points="58,26 38,70 78,70" fill="#C2185B"/>
  <polygon points="142,26 122,70 162,70" fill="#C2185B"/>
  <polygon points="58,36 46,66 70,66" fill="#F48FB1"/>
  <polygon points="142,36 130,66 154,66" fill="#F48FB1"/>
  <circle cx="100" cy="112" r="75" fill="#D4537E"/>
  <ellipse cx="100" cy="130" rx="26" ry="19" fill="#F8BBD9"/>
  <ellipse cx="100" cy="122" rx="7" ry="5" fill="#C2185B"/>
  <circle cx="77" cy="128" r="2.5" fill="#880E4F" opacity="0.5"/>
  <circle cx="85" cy="134" r="2.5" fill="#880E4F" opacity="0.5"/>
  <circle cx="115" cy="128" r="2.5" fill="#880E4F" opacity="0.5"/>
  <circle cx="123" cy="134" r="2.5" fill="#880E4F" opacity="0.5"/>
  <path d="M 68,97 Q 78,90 88,97" stroke="#1A1A1A" stroke-width="4" fill="none" stroke-linecap="round"/>
  <path d="M 112,97 Q 122,90 132,97" stroke="#1A1A1A" stroke-width="4" fill="none" stroke-linecap="round"/>
  <path d="M 88,132 Q 100,140 112,132" stroke="#1A1A1A" stroke-width="3" fill="none" stroke-linecap="round"/>
  <text x="138" y="85" font-family="Arial" font-size="14" font-weight="bold" fill="#9E9E9E" opacity="0.8">z</text>
  <text x="146" y="71" font-family="Arial" font-size="18" font-weight="bold" fill="#9E9E9E" opacity="0.7">z</text>
  <text x="154" y="55" font-family="Arial" font-size="22" font-weight="bold" fill="#9E9E9E" opacity="0.6">Z</text>
</svg>