<svg xmlns="http://www.w3.org/2000/svg" viewBox="0 0 200 200">
  <polygon points="58,26 38,70 78,70" fill="#C2185B"/>
  <polygon points="142,26 122,70 162,70" fill="#C2185B"/>
  <polygon points="58,36 46,66 70,66" fill="#F48FB1"/>
  <polygon points="142,36 130,66 154,66" fill="#F48FB1"/>
  <circle cx="100" cy="112" r="75" fill="#D4537E"/>
  <ellipse cx="100" cy="130" rx="26" ry="19" fill="#F8BBD9"/>
  <ellipse cx="100" cy="122" rx="7" ry="5" fill="#C2185B"/>
  <circle cx="77" cy="128" r="2.5" fill="#880E4F" opacity="0.5"/>
  <circle cx="85" cy="134" r="2.5" fill="#880E4F" opacity="0.5"/>
  <circle cx="115" cy="128" r="2.5" fill="#880E4F" opacity="0.5"/>
  <circle cx="123" cy="134" r="2.5" fill="#880E4F" opacity="0.5"/>
  <polygon points="78.0,88.0 80.4,93.8 86.6,94.2 81.8,98.2 83.3,104.3 78.0,101.0 72.7,104.3 74.2,98.2 69.4,94.2 75.6,93.8" fill="#FFD700"/>
  <polygon points="122.0,88.0 124.4,93.8 130.6,94.2 125.8,98.2 127.3,104.3 122.0,101.0 116.7,104.3 118.2,98.2 113.4,94.2 119.6,93.8" fill="#FFD700"/>
  <circle cx="62" cy="112" r="13.0" fill="#FF8A80" opacity="0.6"/>
  <circle cx="138" cy="112" r="13.0" fill="#FF8A80" opacity="0.6"/>
  <path d="M 76,128 Q 100,150 124,128" stroke="#1A1A1A" stroke-width="4" fill="#FF8A65" stroke-linecap="round"/>
  <line x1="90" y1="136" x2="90" y2="141" stroke="#1A1A1A" stroke-width="2"/>
  <line x1="100" y1="140" x2="100" y2="145" stroke="#1A1A1A" stroke-width="2"/>
  <line x1="110" y1="136" x2="110" y2="141" stroke="#1A1A1A" stroke-width="2"/>
</svg>