<svg xmlns="http://www.w3.org/2000/svg" viewBox="0 0 200 200">
  <polygon points="58,26 38,70 78,70" fill="#C2185B"/>
  <polygon points="142,26 122,70 162,70" fill="#C2185B"/>
  <polygon points="58,36 46,66 70,66" fill="#F48FB1"/>
  <polygon points="142,36 130,66 154,66" fill="#F48FB1"/>
  <circle cx="100" cy="112" r="75" fill="#D4537E"/>
  <ellipse cx="100" cy="130" rx="26" ry="19" fill="#F8BBD9"/>
  <ellipse cx="100" cy="122" rx="7" ry="5" fill="#C2185B"/>
  <circle cx="77" cy="128" r="2.5" fill="#880E4F" opacity="0.5"/>
  <circle cx="85" cy="134" r="2.5" fill="#880E4F" opacity="0.5"/>
  <circle cx="115" cy="128" r="2.5" fill="#880E4F" opacity="0.5"/>
  <circle cx="123" cy="134" r="2.5" fill="#880E4F" opacity="0.5"/>
  <line x1="65" y1="83" x2="88" y2="92" stroke="#1A1A1A" stroke-width="5" stroke-linecap="round"/>
  <line x1="112" y1="92" x2="135" y2="83" stroke="#1A1A1A" stroke-width="5" stroke-linecap="round"/>
  <circle cx="78" cy="97" r="9" fill="#1A1A1A"/>
  <circle cx="122" cy="97" r="9" fill="#1A1A1A"/>
  <circle cx="75" cy="94" r="3.5" fill="white"/>
  <circle cx="119" cy="94" r="3.5" fill="white"/>
  <path d="M 85,132 Q 100,127 115,132" stroke="#1A1A1A" stroke-width="3" fill="none" stroke-linecap="round"/>
  <path d="M 52,81 Q 56,71 52,61" stroke="#FF5722" stroke-width="3" fill="none" stroke-linecap="round" opacity="0.7"/>
  <path d="M 60,83 Q 64,73 60,63" stroke="#FF5722" stroke-width="3" fill="none" stroke-linecap="round" opacity="0.7"/>
</svg>