<svg xmlns="http://www.w3.org/2000/svg" viewBox="0 0 200 200">
  <circle cx="100" cy="112" r="75" fill="#0097A7"/>
  <ellipse cx="100" cy="120" rx="44" ry="54" fill="white"/>
  <polygon points="100,106 86,120 114,120" fill="#FF8F00"/>
  <polygon points="100,110 90,118 98,118" fill="#FFA726" opacity="0.5"/>
  <polygon points="80.0,84.0 82.4,89.8 88.6,90.2 83.8,94.2 85.3,100.3 80.0,97.0 74.7,100.3 76.2,94.2 71.4,90.2 77.6,89.8" fill="#FFD700"/>
  <polygon points="120.0,84.0 122.4,89.8 128.6,90.2 123.8,94.2 125.3,100.3 120.0,97.0 114.7,100.3 116.2,94.2 111.4,90.2 117.6,89.8" fill="#FFD700"/>
  <circle cx="64" cy="108" r="13.0" fill="#FF8A80" opacity="0.6"/>
  <circle cx="136" cy="108" r="13.0" fill="#FF8A80" opacity="0.6"/>
  <path d="M 76,112 Q 100,132 124,112" stroke="#1A1A1A" stroke-width="4" fill="#FF8A65" stroke-linecap="round"/>
  <line x1="90" y1="120" x2="90" y2="125" stroke="#1A1A1A" stroke-width="2"/>
  <line x1="100" y1="124" x2="100" y2="129" stroke="#1A1A1A" stroke-width="2"/>
  <line x1="110" y1="120" x2="110" y2="125" stroke="#1A1A1A" stroke-width="2"/>
</svg>