<svg xmlns="http://www.w3.org/2000/svg" viewBox="0 0 200 200">
  <ellipse cx="72" cy="30" rx="18" ry="42" fill="#FF7043"/>
  <ellipse cx="128" cy="30" rx="18" ry="42" fill="#FF7043"/>
  <ellipse cx="72" cy="30" rx="10" ry="31" fill="#FFAB91"/>
  <ellipse cx="128" cy="30" rx="10" ry="31" fill="#FFAB91"/>
  <circle cx="100" cy="120" r="70" fill="#FF7043"/>
  <ellipse cx="100" cy="140" rx="26" ry="18" fill="#FFAB91"/>
  <circle cx="100" cy="132" r="6" fill="#E64A19"/>
  <rect x="93" y="147" width="6" height="9" rx="2" fill="white" stroke="#E64A19" stroke-width="1"/>
  <rect x="101" y="147" width="6" height="9" rx="2" fill="white" stroke="#E64A19" stroke-width="1"/>
  <path d="M 68,108 a 10,10 0 0 1 20,0 Z" fill="#1A1A1A"/>
  <path d="M 112,108 a 10,10 0 0 1 20,0 Z" fill="#1A1A1A"/>
  <circle cx="81" cy="111" r="3" fill="white" opacity="0.6"/>
  <circle cx="125" cy="111" r="3" fill="white" opacity="0.6"/>
  <path d="M 68,118 q 10,4 20,0" stroke="#888" stroke-width="1.5" fill="none" opacity="0.4"/>
  <path d="M 112,118 q 10,4 20,0" stroke="#888" stroke-width="1.5" fill="none" opacity="0.4"/>
  <path d="M 86,143 Q 100,146 114,143" stroke="#1A1A1A" stroke-width="3" fill="none" stroke-linecap="round"/>
</svg>