<svg xmlns="http://www.w3.org/2000/svg" viewBox="0 0 200 200">
  <ellipse cx="72" cy="30" rx="18" ry="42" fill="#FF7043"/>
  <ellipse cx="128" cy="30" rx="18" ry="42" fill="#FF7043"/>
  <ellipse cx="72" cy="30" rx="10" ry="31" fill="#FFAB91"/>
  <ellipse cx="128" cy="30" rx="10" ry="31" fill="#FFAB91"/>
  <circle cx="100" cy="120" r="70" fill="#FF7043"/>
  <ellipse cx="100" cy="140" rx="26" ry="18" fill="#FFAB91"/>
  <circle cx="100" cy="132" r="6" fill="#E64A19"/>
  <rect x="93" y="147" width="6" height="9" rx="2" fill="white" stroke="#E64A19" stroke-width="1"/>
  <rect x="101" y="147" width="6" height="9" rx="2" fill="white" stroke="#E64A19" stroke-width="1"/>
  <path d="M 68,108 Q 78,101 88,108" stroke="#1A1A1A" stroke-width="4" fill="none" stroke-linecap="round"/>
  <path d="M 112,108 Q 122,101 132,108" stroke="#1A1A1A" stroke-width="4" fill="none" stroke-linecap="round"/>
  <path d="M 88,143 Q 100,151 112,143" stroke="#1A1A1A" stroke-width="3" fill="none" stroke-linecap="round"/>
  <text x="138" y="96" font-family="Arial" font-size="14" font-weight="bold" fill="#9E9E9E" opacity="0.8">z</text>
  <text x="146" y="82" font-family="Arial" font-size="18" font-weight="bold" fill="#9E9E9E" opacity="0.7">z</text>
  <text x="154" y="66" font-family="Arial" font-size="22" font-weight="bold" fill="#9E9E9E" opacity="0.6">Z</text>
</svg>