<svg xmlns="http://www.w3.org/2000/svg" viewBox="0 0 200 200">
  <ellipse cx="72" cy="30" rx="18" ry="42" fill="#FF7043"/>
  <ellipse cx="128" cy="30" rx="18" ry="42" fill="#FF7043"/>
  <ellipse cx="72" cy="30" rx="10" ry="31" fill="#FFAB91"/>
  <ellipse cx="128" cy="30" rx="10" ry="31" fill="#FFAB91"/>
  <circle cx="100" cy="120" r="70" fill="#FF7043"/>
  <ellipse cx="100" cy="140" rx="26" ry="18" fill="#FFAB91"/>
  <circle cx="100" cy="132" r="6" fill="#E64A19"/>
  <rect x="93" y="147" width="6" height="9" rx="2" fill="white" stroke="#E64A19" stroke-width="1"/>
  <rect x="101" y="147" width="6" height="9" rx="2" fill="white" stroke="#E64A19" stroke-width="1"/>
  <circle cx="78" cy="108" r="9" fill="#1A1A1A"/>
  <circle cx="122" cy="108" r="9" fill="#1A1A1A"/>
  <circle cx="75" cy="105" r="3.5" fill="white"/>
  <circle cx="119" cy="105" r="3.5" fill="white"/>
  <ellipse cx="78" cy="120" rx="4" ry="7" fill="#64B5F6" opacity="0.9"/>
  <ellipse cx="122" cy="120" rx="4" ry="7" fill="#64B5F6" opacity="0.9"/>
  <path d="M 80,143 Q 100,131 120,143" stroke="#1A1A1A" stroke-width="4" fill="none" stroke-linecap="round"/>
</svg>